<?xml version="1.0" encoding="utf-8" ?>
<svg baseProfile="full" height="594.2769515458674mm" version="1.1" viewBox="-3.1,-3.1,350.67220617680596,594.2769515458674" width="350.67220617680596mm" xmlns="http://www.w3.org/2000/svg" xmlns:ev="http://www.w3.org/2001/xml-events" xmlns:xlink="http://www.w3.org/1999/xlink"><defs /><g><path d="M 149.996 465.9 L 149.996 456.9  L 139.079 456.9  L 139.079 465.9  L 128.562 465.9  L 128.562 456.9  L 117.645 456.9  L 117.645 465.9  L 107.128 465.9  L 107.128 456.9  L 96.2114 456.9  L 96.2114 465.9  L 85.6945 465.9  L 85.6945 456.9  L 74.7777 456.9  L 74.7777 465.9  L 64.2608 465.9  L 64.2608 456.9  L 53.3439 456.9  L 53.3439 465.9  L 42.827 465.9  L 42.827 456.9  L 31.9101 456.9  L 31.9101 465.9  L 21.3933 465.9  L 21.3933 456.9  L 10.4764 456.9  L 10.4764 465.9  L 1.9 465.9  L 1.9 546.1  L 158.572 546.1  L 158.572 465.9  z" fill="none" stroke="rgb(27, 158, 119)" /><path d="M 149.996 374.9 L 149.996 365.9  L 139.079 365.9  L 139.079 374.9  L 128.562 374.9  L 128.562 365.9  L 117.645 365.9  L 117.645 374.9  L 107.128 374.9  L 107.128 365.9  L 96.2114 365.9  L 96.2114 374.9  L 85.6945 374.9  L 85.6945 365.9  L 74.7777 365.9  L 74.7777 374.9  L 64.2608 374.9  L 64.2608 365.9  L 53.3439 365.9  L 53.3439 374.9  L 42.827 374.9  L 42.827 365.9  L 31.9101 365.9  L 31.9101 374.9  L 21.3933 374.9  L 21.3933 365.9  L 10.4764 365.9  L 10.4764 374.9  L 1.9 374.9  L 1.9 455.1  L 158.572 455.1  L 158.572 374.9  z" fill="none" stroke="rgb(27, 158, 119)" /><path d="M 149.996 283.9 L 149.996 274.9  L 139.079 274.9  L 139.079 283.9  L 128.562 283.9  L 128.562 274.9  L 117.645 274.9  L 117.645 283.9  L 107.128 283.9  L 107.128 274.9  L 96.2114 274.9  L 96.2114 283.9  L 85.6945 283.9  L 85.6945 274.9  L 74.7777 274.9  L 74.7777 283.9  L 64.2608 283.9  L 64.2608 274.9  L 53.3439 274.9  L 53.3439 283.9  L 42.827 283.9  L 42.827 274.9  L 31.9101 274.9  L 31.9101 283.9  L 21.3933 283.9  L 21.3933 274.9  L 10.4764 274.9  L 10.4764 283.9  L 1.9 283.9  L 1.9 364.1  L 158.572 364.1  L 158.572 283.9  z" fill="none" stroke="rgb(27, 158, 119)" /><path d="M 149.996 192.9 L 149.996 183.9  L 139.079 183.9  L 139.079 192.9  L 128.562 192.9  L 128.562 183.9  L 117.645 183.9  L 117.645 192.9  L 107.128 192.9  L 107.128 183.9  L 96.2114 183.9  L 96.2114 192.9  L 85.6945 192.9  L 85.6945 183.9  L 74.7777 183.9  L 74.7777 192.9  L 64.2608 192.9  L 64.2608 183.9  L 53.3439 183.9  L 53.3439 192.9  L 42.827 192.9  L 42.827 183.9  L 31.9101 183.9  L 31.9101 192.9  L 21.3933 192.9  L 21.3933 183.9  L 10.4764 183.9  L 10.4764 192.9  L 1.9 192.9  L 1.9 273.1  L 158.572 273.1  L 158.572 192.9  z" fill="none" stroke="rgb(27, 158, 119)" /><path d="M 149.996 101.9 L 149.996 92.9  L 139.079 92.9  L 139.079 101.9  L 128.562 101.9  L 128.562 92.9  L 117.645 92.9  L 117.645 101.9  L 107.128 101.9  L 107.128 92.9  L 96.2114 92.9  L 96.2114 101.9  L 85.6945 101.9  L 85.6945 92.9  L 74.7777 92.9  L 74.7777 101.9  L 64.2608 101.9  L 64.2608 92.9  L 53.3439 92.9  L 53.3439 101.9  L 42.827 101.9  L 42.827 92.9  L 31.9101 92.9  L 31.9101 101.9  L 21.3933 101.9  L 21.3933 92.9  L 10.4764 92.9  L 10.4764 101.9  L 1.9 101.9  L 1.9 182.1  L 158.572 182.1  L 158.572 101.9  z" fill="none" stroke="rgb(27, 158, 119)" /><path d="M 149.996 10.9 L 149.996 1.9  L 139.079 1.9  L 139.079 10.9  L 128.562 10.9  L 128.562 1.9  L 117.645 1.9  L 117.645 10.9  L 107.128 10.9  L 107.128 1.9  L 96.2114 1.9  L 96.2114 10.9  L 85.6945 10.9  L 85.6945 1.9  L 74.7777 1.9  L 74.7777 10.9  L 64.2608 10.9  L 64.2608 1.9  L 53.3439 1.9  L 53.3439 10.9  L 42.827 10.9  L 42.827 1.9  L 31.9101 1.9  L 31.9101 10.9  L 21.3933 10.9  L 21.3933 1.9  L 10.4764 1.9  L 10.4764 10.9  L 1.9 10.9  L 1.9 91.1  L 158.572 91.1  L 158.572 10.9  z" fill="none" stroke="rgb(27, 158, 119)" /></g><g><path d="M 272.026 580.274 L 271.438 580.122  L 270.894 579.854  L 270.414 579.483  L 270.018 579.023  L 269.724 578.492  L 269.542 577.913  L 269.481 577.309  L 269.542 576.705  L 269.724 576.126  L 270.018 575.595  L 270.414 575.135  L 270.894 574.764  L 271.438 574.496  L 272.026 574.344  L 272.632 574.313  L 273.232 574.405  L 273.801 574.616  L 274.316 574.937  L 274.756 575.355  L 275.103 575.853  L 275.342 576.411  L 275.464 577.006  L 275.464 577.612  L 275.342 578.207  L 275.103 578.765  L 274.756 579.263  L 274.316 579.681  L 273.801 580.002  L 273.232 580.213  L 272.632 580.305  z" fill="none" stroke="rgb(217, 95, 2)" /><path d="M 200.572 584.134 L 200.572 580.484  L 197.572 580.484  L 197.572 574.134  L 200.572 574.134  L 200.572 570.484  L 197.572 570.484  L 197.572 568.441  L 163.372 568.441  L 163.372 570.484  L 160.372 570.484  L 160.372 574.134  L 163.372 574.134  L 163.372 580.484  L 160.372 580.484  L 160.372 584.134  L 163.372 584.134  L 163.372 586.177  L 197.572 586.177  L 197.572 584.134  z" fill="none" stroke="rgb(27, 158, 119)" /><path d="M 300.572 584.134 L 300.572 580.484  L 297.572 580.484  L 297.572 574.134  L 300.572 574.134  L 300.572 570.484  L 297.572 570.484  L 297.572 568.441  L 263.372 568.441  L 263.372 570.484  L 260.372 570.484  L 260.372 574.134  L 263.372 574.134  L 263.372 580.484  L 260.372 580.484  L 260.372 584.134  L 263.372 584.134  L 263.372 586.177  L 297.572 586.177  L 297.572 584.134  z" fill="none" stroke="rgb(27, 158, 119)" /><path d="M 258.572 584.134 L 258.572 580.484  L 255.572 580.484  L 255.572 574.134  L 258.572 574.134  L 258.572 570.484  L 255.572 570.484  L 255.572 568.441  L 221.372 568.441  L 221.372 570.484  L 218.372 570.484  L 218.372 574.134  L 221.372 574.134  L 221.372 580.484  L 218.372 580.484  L 218.372 584.134  L 221.372 584.134  L 221.372 586.177  L 255.572 586.177  L 255.572 584.134  z" fill="none" stroke="rgb(27, 158, 119)" /><path d="M 272.026 560.738 L 271.438 560.586  L 270.894 560.319  L 270.414 559.947  L 270.018 559.487  L 269.724 558.956  L 269.542 558.377  L 269.481 557.773  L 269.542 557.169  L 269.724 556.59  L 270.018 556.06  L 270.414 555.599  L 270.894 555.228  L 271.438 554.96  L 272.026 554.808  L 272.632 554.777  L 273.232 554.869  L 273.801 555.08  L 274.316 555.401  L 274.756 555.819  L 275.103 556.317  L 275.342 556.875  L 275.464 557.47  L 275.464 558.077  L 275.342 558.671  L 275.103 559.229  L 274.756 559.727  L 274.316 560.145  L 273.801 560.466  L 273.232 560.677  L 272.632 560.769  z" fill="none" stroke="rgb(217, 95, 2)" /><path d="M 200.572 564.598 L 200.572 560.948  L 197.572 560.948  L 197.572 554.598  L 200.572 554.598  L 200.572 550.948  L 197.572 550.948  L 197.572 548.905  L 163.372 548.905  L 163.372 550.948  L 160.372 550.948  L 160.372 554.598  L 163.372 554.598  L 163.372 560.948  L 160.372 560.948  L 160.372 564.598  L 163.372 564.598  L 163.372 566.641  L 197.572 566.641  L 197.572 564.598  z" fill="none" stroke="rgb(27, 158, 119)" /><path d="M 300.572 564.598 L 300.572 560.948  L 297.572 560.948  L 297.572 554.598  L 300.572 554.598  L 300.572 550.948  L 297.572 550.948  L 297.572 548.905  L 263.372 548.905  L 263.372 550.948  L 260.372 550.948  L 260.372 554.598  L 263.372 554.598  L 263.372 560.948  L 260.372 560.948  L 260.372 564.598  L 263.372 564.598  L 263.372 566.641  L 297.572 566.641  L 297.572 564.598  z" fill="none" stroke="rgb(27, 158, 119)" /><path d="M 258.572 564.598 L 258.572 560.948  L 255.572 560.948  L 255.572 554.598  L 258.572 554.598  L 258.572 550.948  L 255.572 550.948  L 255.572 548.905  L 221.372 548.905  L 221.372 550.948  L 218.372 550.948  L 218.372 554.598  L 221.372 554.598  L 221.372 560.948  L 218.372 560.948  L 218.372 564.598  L 221.372 564.598  L 221.372 566.641  L 255.572 566.641  L 255.572 564.598  z" fill="none" stroke="rgb(27, 158, 119)" /><path d="M 272.026 541.202 L 271.438 541.05  L 270.894 540.783  L 270.414 540.411  L 270.018 539.951  L 269.724 539.42  L 269.542 538.841  L 269.481 538.237  L 269.542 537.633  L 269.724 537.054  L 270.018 536.524  L 270.414 536.063  L 270.894 535.692  L 271.438 535.424  L 272.026 535.272  L 272.632 535.242  L 273.232 535.333  L 273.801 535.544  L 274.316 535.865  L 274.756 536.283  L 275.103 536.782  L 275.342 537.339  L 275.464 537.934  L 275.464 538.541  L 275.342 539.135  L 275.103 539.693  L 274.756 540.191  L 274.316 540.609  L 273.801 540.93  L 273.232 541.141  L 272.632 541.233  z" fill="none" stroke="rgb(217, 95, 2)" /><path d="M 200.572 545.062 L 200.572 541.412  L 197.572 541.412  L 197.572 535.062  L 200.572 535.062  L 200.572 531.412  L 197.572 531.412  L 197.572 529.369  L 163.372 529.369  L 163.372 531.412  L 160.372 531.412  L 160.372 535.062  L 163.372 535.062  L 163.372 541.412  L 160.372 541.412  L 160.372 545.062  L 163.372 545.062  L 163.372 547.105  L 197.572 547.105  L 197.572 545.062  z" fill="none" stroke="rgb(27, 158, 119)" /><path d="M 300.572 545.062 L 300.572 541.412  L 297.572 541.412  L 297.572 535.062  L 300.572 535.062  L 300.572 531.412  L 297.572 531.412  L 297.572 529.369  L 263.372 529.369  L 263.372 531.412  L 260.372 531.412  L 260.372 535.062  L 263.372 535.062  L 263.372 541.412  L 260.372 541.412  L 260.372 545.062  L 263.372 545.062  L 263.372 547.105  L 297.572 547.105  L 297.572 545.062  z" fill="none" stroke="rgb(27, 158, 119)" /><path d="M 258.572 545.062 L 258.572 541.412  L 255.572 541.412  L 255.572 535.062  L 258.572 535.062  L 258.572 531.412  L 255.572 531.412  L 255.572 529.369  L 221.372 529.369  L 221.372 531.412  L 218.372 531.412  L 218.372 535.062  L 221.372 535.062  L 221.372 541.412  L 218.372 541.412  L 218.372 545.062  L 221.372 545.062  L 221.372 547.105  L 255.572 547.105  L 255.572 545.062  z" fill="none" stroke="rgb(27, 158, 119)" /><path d="M 272.026 521.666 L 271.438 521.514  L 270.894 521.247  L 270.414 520.875  L 270.018 520.415  L 269.724 519.884  L 269.542 519.305  L 269.481 518.701  L 269.542 518.098  L 269.724 517.518  L 270.018 516.988  L 270.414 516.527  L 270.894 516.156  L 271.438 515.889  L 272.026 515.736  L 272.632 515.706  L 273.232 515.798  L 273.801 516.008  L 274.316 516.329  L 274.756 516.748  L 275.103 517.246  L 275.342 517.803  L 275.464 518.398  L 275.464 519.005  L 275.342 519.599  L 275.103 520.157  L 274.756 520.655  L 274.316 521.073  L 273.801 521.394  L 273.232 521.605  L 272.632 521.697  z" fill="none" stroke="rgb(217, 95, 2)" /><path d="M 200.572 525.526 L 200.572 521.876  L 197.572 521.876  L 197.572 515.526  L 200.572 515.526  L 200.572 511.876  L 197.572 511.876  L 197.572 509.833  L 163.372 509.833  L 163.372 511.876  L 160.372 511.876  L 160.372 515.526  L 163.372 515.526  L 163.372 521.876  L 160.372 521.876  L 160.372 525.526  L 163.372 525.526  L 163.372 527.569  L 197.572 527.569  L 197.572 525.526  z" fill="none" stroke="rgb(27, 158, 119)" /><path d="M 300.572 525.526 L 300.572 521.876  L 297.572 521.876  L 297.572 515.526  L 300.572 515.526  L 300.572 511.876  L 297.572 511.876  L 297.572 509.833  L 263.372 509.833  L 263.372 511.876  L 260.372 511.876  L 260.372 515.526  L 263.372 515.526  L 263.372 521.876  L 260.372 521.876  L 260.372 525.526  L 263.372 525.526  L 263.372 527.569  L 297.572 527.569  L 297.572 525.526  z" fill="none" stroke="rgb(27, 158, 119)" /><path d="M 258.572 525.526 L 258.572 521.876  L 255.572 521.876  L 255.572 515.526  L 258.572 515.526  L 258.572 511.876  L 255.572 511.876  L 255.572 509.833  L 221.372 509.833  L 221.372 511.876  L 218.372 511.876  L 218.372 515.526  L 221.372 515.526  L 221.372 521.876  L 218.372 521.876  L 218.372 525.526  L 221.372 525.526  L 221.372 527.569  L 255.572 527.569  L 255.572 525.526  z" fill="none" stroke="rgb(27, 158, 119)" /><path d="M 272.026 502.13 L 271.438 501.978  L 270.894 501.711  L 270.414 501.339  L 270.018 500.879  L 269.724 500.348  L 269.542 499.769  L 269.481 499.165  L 269.542 498.562  L 269.724 497.983  L 270.018 497.452  L 270.414 496.991  L 270.894 496.62  L 271.438 496.353  L 272.026 496.201  L 272.632 496.17  L 273.232 496.262  L 273.801 496.472  L 274.316 496.793  L 274.756 497.212  L 275.103 497.71  L 275.342 498.267  L 275.464 498.862  L 275.464 499.469  L 275.342 500.063  L 275.103 500.621  L 274.756 501.119  L 274.316 501.537  L 273.801 501.858  L 273.232 502.069  L 272.632 502.161  z" fill="none" stroke="rgb(217, 95, 2)" /><path d="M 200.572 505.99 L 200.572 502.34  L 197.572 502.34  L 197.572 495.99  L 200.572 495.99  L 200.572 492.34  L 197.572 492.34  L 197.572 490.297  L 163.372 490.297  L 163.372 492.34  L 160.372 492.34  L 160.372 495.99  L 163.372 495.99  L 163.372 502.34  L 160.372 502.34  L 160.372 505.99  L 163.372 505.99  L 163.372 508.033  L 197.572 508.033  L 197.572 505.99  z" fill="none" stroke="rgb(27, 158, 119)" /><path d="M 300.572 505.99 L 300.572 502.34  L 297.572 502.34  L 297.572 495.99  L 300.572 495.99  L 300.572 492.34  L 297.572 492.34  L 297.572 490.297  L 263.372 490.297  L 263.372 492.34  L 260.372 492.34  L 260.372 495.99  L 263.372 495.99  L 263.372 502.34  L 260.372 502.34  L 260.372 505.99  L 263.372 505.99  L 263.372 508.033  L 297.572 508.033  L 297.572 505.99  z" fill="none" stroke="rgb(27, 158, 119)" /><path d="M 258.572 505.99 L 258.572 502.34  L 255.572 502.34  L 255.572 495.99  L 258.572 495.99  L 258.572 492.34  L 255.572 492.34  L 255.572 490.297  L 221.372 490.297  L 221.372 492.34  L 218.372 492.34  L 218.372 495.99  L 221.372 495.99  L 221.372 502.34  L 218.372 502.34  L 218.372 505.99  L 221.372 505.99  L 221.372 508.033  L 255.572 508.033  L 255.572 505.99  z" fill="none" stroke="rgb(27, 158, 119)" /><path d="M 272.026 482.594 L 271.438 482.442  L 270.894 482.175  L 270.414 481.804  L 270.018 481.343  L 269.724 480.812  L 269.542 480.233  L 269.481 479.63  L 269.542 479.026  L 269.724 478.447  L 270.018 477.916  L 270.414 477.456  L 270.894 477.084  L 271.438 476.817  L 272.026 476.665  L 272.632 476.634  L 273.232 476.726  L 273.801 476.937  L 274.316 477.258  L 274.756 477.676  L 275.103 478.174  L 275.342 478.732  L 275.464 479.326  L 275.464 479.933  L 275.342 480.527  L 275.103 481.085  L 274.756 481.583  L 274.316 482.001  L 273.801 482.322  L 273.232 482.533  L 272.632 482.625  z" fill="none" stroke="rgb(217, 95, 2)" /><path d="M 200.572 486.455 L 200.572 482.805  L 197.572 482.805  L 197.572 476.455  L 200.572 476.455  L 200.572 472.805  L 197.572 472.805  L 197.572 470.762  L 163.372 470.762  L 163.372 472.805  L 160.372 472.805  L 160.372 476.455  L 163.372 476.455  L 163.372 482.805  L 160.372 482.805  L 160.372 486.455  L 163.372 486.455  L 163.372 488.497  L 197.572 488.497  L 197.572 486.455  z" fill="none" stroke="rgb(27, 158, 119)" /><path d="M 300.572 486.455 L 300.572 482.805  L 297.572 482.805  L 297.572 476.455  L 300.572 476.455  L 300.572 472.805  L 297.572 472.805  L 297.572 470.762  L 263.372 470.762  L 263.372 472.805  L 260.372 472.805  L 260.372 476.455  L 263.372 476.455  L 263.372 482.805  L 260.372 482.805  L 260.372 486.455  L 263.372 486.455  L 263.372 488.497  L 297.572 488.497  L 297.572 486.455  z" fill="none" stroke="rgb(27, 158, 119)" /><path d="M 258.572 486.455 L 258.572 482.805  L 255.572 482.805  L 255.572 476.455  L 258.572 476.455  L 258.572 472.805  L 255.572 472.805  L 255.572 470.762  L 221.372 470.762  L 221.372 472.805  L 218.372 472.805  L 218.372 476.455  L 221.372 476.455  L 221.372 482.805  L 218.372 482.805  L 218.372 486.455  L 221.372 486.455  L 221.372 488.497  L 255.572 488.497  L 255.572 486.455  z" fill="none" stroke="rgb(27, 158, 119)" /><path d="M 188.018 463.059 L 187.43 462.906  L 186.886 462.639  L 186.406 462.268  L 186.01 461.807  L 185.716 461.276  L 185.534 460.697  L 185.473 460.094  L 185.534 459.49  L 185.716 458.911  L 186.01 458.38  L 186.406 457.92  L 186.886 457.548  L 187.43 457.281  L 188.018 457.129  L 188.624 457.098  L 189.224 457.19  L 189.793 457.401  L 190.308 457.722  L 190.748 458.14  L 191.095 458.638  L 191.334 459.196  L 191.456 459.79  L 191.456 460.397  L 191.334 460.992  L 191.095 461.549  L 190.748 462.047  L 190.308 462.466  L 189.793 462.787  L 189.224 462.997  L 188.624 463.089  z" fill="none" stroke="rgb(217, 95, 2)" /><path d="M 272.026 463.059 L 271.438 462.906  L 270.894 462.639  L 270.414 462.268  L 270.018 461.807  L 269.724 461.276  L 269.542 460.697  L 269.481 460.094  L 269.542 459.49  L 269.724 458.911  L 270.018 458.38  L 270.414 457.92  L 270.894 457.548  L 271.438 457.281  L 272.026 457.129  L 272.632 457.098  L 273.232 457.19  L 273.801 457.401  L 274.316 457.722  L 274.756 458.14  L 275.103 458.638  L 275.342 459.196  L 275.464 459.79  L 275.464 460.397  L 275.342 460.992  L 275.103 461.549  L 274.756 462.047  L 274.316 462.466  L 273.801 462.787  L 273.232 462.997  L 272.632 463.089  z" fill="none" stroke="rgb(217, 95, 2)" /><path d="M 216.572 466.919 L 216.572 463.269  L 213.572 463.269  L 213.572 456.919  L 216.572 456.919  L 216.572 453.269  L 213.572 453.269  L 213.572 451.226  L 163.372 451.226  L 163.372 453.269  L 160.372 453.269  L 160.372 456.919  L 163.372 456.919  L 163.372 463.269  L 160.372 463.269  L 160.372 466.919  L 163.372 466.919  L 163.372 468.962  L 213.572 468.962  L 213.572 466.919  z" fill="none" stroke="rgb(27, 158, 119)" /><path d="M 300.572 466.919 L 300.572 463.269  L 297.572 463.269  L 297.572 456.919  L 300.572 456.919  L 300.572 453.269  L 297.572 453.269  L 297.572 451.226  L 263.372 451.226  L 263.372 453.269  L 260.372 453.269  L 260.372 456.919  L 263.372 456.919  L 263.372 463.269  L 260.372 463.269  L 260.372 466.919  L 263.372 466.919  L 263.372 468.962  L 297.572 468.962  L 297.572 466.919  z" fill="none" stroke="rgb(27, 158, 119)" /><path d="M 258.572 466.919 L 258.572 463.269  L 255.572 463.269  L 255.572 456.919  L 258.572 456.919  L 258.572 453.269  L 255.572 453.269  L 255.572 451.226  L 221.372 451.226  L 221.372 453.269  L 218.372 453.269  L 218.372 456.919  L 221.372 456.919  L 221.372 463.269  L 218.372 463.269  L 218.372 466.919  L 221.372 466.919  L 221.372 468.962  L 255.572 468.962  L 255.572 466.919  z" fill="none" stroke="rgb(27, 158, 119)" /><path d="M 188.018 443.523 L 187.43 443.37  L 186.886 443.103  L 186.406 442.732  L 186.01 442.271  L 185.716 441.741  L 185.534 441.162  L 185.473 440.558  L 185.534 439.954  L 185.716 439.375  L 186.01 438.844  L 186.406 438.384  L 186.886 438.012  L 187.43 437.745  L 188.018 437.593  L 188.624 437.562  L 189.224 437.654  L 189.793 437.865  L 190.308 438.186  L 190.748 438.604  L 191.095 439.102  L 191.334 439.66  L 191.456 440.254  L 191.456 440.861  L 191.334 441.456  L 191.095 442.013  L 190.748 442.511  L 190.308 442.93  L 189.793 443.251  L 189.224 443.461  L 188.624 443.553  z" fill="none" stroke="rgb(217, 95, 2)" /><path d="M 272.026 443.523 L 271.438 443.37  L 270.894 443.103  L 270.414 442.732  L 270.018 442.271  L 269.724 441.741  L 269.542 441.162  L 269.481 440.558  L 269.542 439.954  L 269.724 439.375  L 270.018 438.844  L 270.414 438.384  L 270.894 438.012  L 271.438 437.745  L 272.026 437.593  L 272.632 437.562  L 273.232 437.654  L 273.801 437.865  L 274.316 438.186  L 274.756 438.604  L 275.103 439.102  L 275.342 439.66  L 275.464 440.254  L 275.464 440.861  L 275.342 441.456  L 275.103 442.013  L 274.756 442.511  L 274.316 442.93  L 273.801 443.251  L 273.232 443.461  L 272.632 443.553  z" fill="none" stroke="rgb(217, 95, 2)" /><path d="M 216.572 447.383 L 216.572 443.733  L 213.572 443.733  L 213.572 437.383  L 216.572 437.383  L 216.572 433.733  L 213.572 433.733  L 213.572 431.69  L 163.372 431.69  L 163.372 433.733  L 160.372 433.733  L 160.372 437.383  L 163.372 437.383  L 163.372 443.733  L 160.372 443.733  L 160.372 447.383  L 163.372 447.383  L 163.372 449.426  L 213.572 449.426  L 213.572 447.383  z" fill="none" stroke="rgb(27, 158, 119)" /><path d="M 300.572 447.383 L 300.572 443.733  L 297.572 443.733  L 297.572 437.383  L 300.572 437.383  L 300.572 433.733  L 297.572 433.733  L 297.572 431.69  L 263.372 431.69  L 263.372 433.733  L 260.372 433.733  L 260.372 437.383  L 263.372 437.383  L 263.372 443.733  L 260.372 443.733  L 260.372 447.383  L 263.372 447.383  L 263.372 449.426  L 297.572 449.426  L 297.572 447.383  z" fill="none" stroke="rgb(27, 158, 119)" /><path d="M 258.572 447.383 L 258.572 443.733  L 255.572 443.733  L 255.572 437.383  L 258.572 437.383  L 258.572 433.733  L 255.572 433.733  L 255.572 431.69  L 221.372 431.69  L 221.372 433.733  L 218.372 433.733  L 218.372 437.383  L 221.372 437.383  L 221.372 443.733  L 218.372 443.733  L 218.372 447.383  L 221.372 447.383  L 221.372 449.426  L 255.572 449.426  L 255.572 447.383  z" fill="none" stroke="rgb(27, 158, 119)" /><path d="M 188.018 423.987 L 187.43 423.835  L 186.886 423.567  L 186.406 423.196  L 186.01 422.735  L 185.716 422.205  L 185.534 421.626  L 185.473 421.022  L 185.534 420.418  L 185.716 419.839  L 186.01 419.308  L 186.406 418.848  L 186.886 418.476  L 187.43 418.209  L 188.018 418.057  L 188.624 418.026  L 189.224 418.118  L 189.793 418.329  L 190.308 418.65  L 190.748 419.068  L 191.095 419.566  L 191.334 420.124  L 191.456 420.718  L 191.456 421.325  L 191.334 421.92  L 191.095 422.477  L 190.748 422.976  L 190.308 423.394  L 189.793 423.715  L 189.224 423.926  L 188.624 424.017  z" fill="none" stroke="rgb(217, 95, 2)" /><path d="M 272.026 423.987 L 271.438 423.835  L 270.894 423.567  L 270.414 423.196  L 270.018 422.735  L 269.724 422.205  L 269.542 421.626  L 269.481 421.022  L 269.542 420.418  L 269.724 419.839  L 270.018 419.308  L 270.414 418.848  L 270.894 418.476  L 271.438 418.209  L 272.026 418.057  L 272.632 418.026  L 273.232 418.118  L 273.801 418.329  L 274.316 418.65  L 274.756 419.068  L 275.103 419.566  L 275.342 420.124  L 275.464 420.718  L 275.464 421.325  L 275.342 421.92  L 275.103 422.477  L 274.756 422.976  L 274.316 423.394  L 273.801 423.715  L 273.232 423.926  L 272.632 424.017  z" fill="none" stroke="rgb(217, 95, 2)" /><path d="M 216.572 427.847 L 216.572 424.197  L 213.572 424.197  L 213.572 417.847  L 216.572 417.847  L 216.572 414.197  L 213.572 414.197  L 213.572 412.154  L 163.372 412.154  L 163.372 414.197  L 160.372 414.197  L 160.372 417.847  L 163.372 417.847  L 163.372 424.197  L 160.372 424.197  L 160.372 427.847  L 163.372 427.847  L 163.372 429.89  L 213.572 429.89  L 213.572 427.847  z" fill="none" stroke="rgb(27, 158, 119)" /><path d="M 300.572 427.847 L 300.572 424.197  L 297.572 424.197  L 297.572 417.847  L 300.572 417.847  L 300.572 414.197  L 297.572 414.197  L 297.572 412.154  L 263.372 412.154  L 263.372 414.197  L 260.372 414.197  L 260.372 417.847  L 263.372 417.847  L 263.372 424.197  L 260.372 424.197  L 260.372 427.847  L 263.372 427.847  L 263.372 429.89  L 297.572 429.89  L 297.572 427.847  z" fill="none" stroke="rgb(27, 158, 119)" /><path d="M 258.572 427.847 L 258.572 424.197  L 255.572 424.197  L 255.572 417.847  L 258.572 417.847  L 258.572 414.197  L 255.572 414.197  L 255.572 412.154  L 221.372 412.154  L 221.372 414.197  L 218.372 414.197  L 218.372 417.847  L 221.372 417.847  L 221.372 424.197  L 218.372 424.197  L 218.372 427.847  L 221.372 427.847  L 221.372 429.89  L 255.572 429.89  L 255.572 427.847  z" fill="none" stroke="rgb(27, 158, 119)" /><path d="M 188.018 404.451 L 187.43 404.299  L 186.886 404.031  L 186.406 403.66  L 186.01 403.199  L 185.716 402.669  L 185.534 402.09  L 185.473 401.486  L 185.534 400.882  L 185.716 400.303  L 186.01 399.772  L 186.406 399.312  L 186.886 398.94  L 187.43 398.673  L 188.018 398.521  L 188.624 398.49  L 189.224 398.582  L 189.793 398.793  L 190.308 399.114  L 190.748 399.532  L 191.095 400.03  L 191.334 400.588  L 191.456 401.182  L 191.456 401.789  L 191.334 402.384  L 191.095 402.942  L 190.748 403.44  L 190.308 403.858  L 189.793 404.179  L 189.224 404.39  L 188.624 404.482  z" fill="none" stroke="rgb(217, 95, 2)" /><path d="M 272.026 404.451 L 271.438 404.299  L 270.894 404.031  L 270.414 403.66  L 270.018 403.199  L 269.724 402.669  L 269.542 402.09  L 269.481 401.486  L 269.542 400.882  L 269.724 400.303  L 270.018 399.772  L 270.414 399.312  L 270.894 398.94  L 271.438 398.673  L 272.026 398.521  L 272.632 398.49  L 273.232 398.582  L 273.801 398.793  L 274.316 399.114  L 274.756 399.532  L 275.103 400.03  L 275.342 400.588  L 275.464 401.182  L 275.464 401.789  L 275.342 402.384  L 275.103 402.942  L 274.756 403.44  L 274.316 403.858  L 273.801 404.179  L 273.232 404.39  L 272.632 404.482  z" fill="none" stroke="rgb(217, 95, 2)" /><path d="M 216.572 408.311 L 216.572 404.661  L 213.572 404.661  L 213.572 398.311  L 216.572 398.311  L 216.572 394.661  L 213.572 394.661  L 213.572 392.618  L 163.372 392.618  L 163.372 394.661  L 160.372 394.661  L 160.372 398.311  L 163.372 398.311  L 163.372 404.661  L 160.372 404.661  L 160.372 408.311  L 163.372 408.311  L 163.372 410.354  L 213.572 410.354  L 213.572 408.311  z" fill="none" stroke="rgb(27, 158, 119)" /><path d="M 300.572 408.311 L 300.572 404.661  L 297.572 404.661  L 297.572 398.311  L 300.572 398.311  L 300.572 394.661  L 297.572 394.661  L 297.572 392.618  L 263.372 392.618  L 263.372 394.661  L 260.372 394.661  L 260.372 398.311  L 263.372 398.311  L 263.372 404.661  L 260.372 404.661  L 260.372 408.311  L 263.372 408.311  L 263.372 410.354  L 297.572 410.354  L 297.572 408.311  z" fill="none" stroke="rgb(27, 158, 119)" /><path d="M 258.572 408.311 L 258.572 404.661  L 255.572 404.661  L 255.572 398.311  L 258.572 398.311  L 258.572 394.661  L 255.572 394.661  L 255.572 392.618  L 221.372 392.618  L 221.372 394.661  L 218.372 394.661  L 218.372 398.311  L 221.372 398.311  L 221.372 404.661  L 218.372 404.661  L 218.372 408.311  L 221.372 408.311  L 221.372 410.354  L 255.572 410.354  L 255.572 408.311  z" fill="none" stroke="rgb(27, 158, 119)" /><path d="M 272.026 384.915 L 271.438 384.763  L 270.894 384.496  L 270.414 384.124  L 270.018 383.664  L 269.724 383.133  L 269.542 382.554  L 269.481 381.95  L 269.542 381.346  L 269.724 380.767  L 270.018 380.237  L 270.414 379.776  L 270.894 379.405  L 271.438 379.137  L 272.026 378.985  L 272.632 378.954  L 273.232 379.046  L 273.801 379.257  L 274.316 379.578  L 274.756 379.996  L 275.103 380.494  L 275.342 381.052  L 275.464 381.647  L 275.464 382.253  L 275.342 382.848  L 275.103 383.406  L 274.756 383.904  L 274.316 384.322  L 273.801 384.643  L 273.232 384.854  L 272.632 384.946  z" fill="none" stroke="rgb(217, 95, 2)" /><path d="M 216.572 388.775 L 216.572 385.125  L 213.572 385.125  L 213.572 378.775  L 216.572 378.775  L 216.572 375.125  L 213.572 375.125  L 213.572 373.082  L 163.372 373.082  L 163.372 375.125  L 160.372 375.125  L 160.372 378.775  L 163.372 378.775  L 163.372 385.125  L 160.372 385.125  L 160.372 388.775  L 163.372 388.775  L 163.372 390.818  L 213.572 390.818  L 213.572 388.775  z" fill="none" stroke="rgb(27, 158, 119)" /><path d="M 300.572 388.775 L 300.572 385.125  L 297.572 385.125  L 297.572 378.775  L 300.572 378.775  L 300.572 375.125  L 297.572 375.125  L 297.572 373.082  L 263.372 373.082  L 263.372 375.125  L 260.372 375.125  L 260.372 378.775  L 263.372 378.775  L 263.372 385.125  L 260.372 385.125  L 260.372 388.775  L 263.372 388.775  L 263.372 390.818  L 297.572 390.818  L 297.572 388.775  z" fill="none" stroke="rgb(27, 158, 119)" /><path d="M 258.572 388.775 L 258.572 385.125  L 255.572 385.125  L 255.572 378.775  L 258.572 378.775  L 258.572 375.125  L 255.572 375.125  L 255.572 373.082  L 221.372 373.082  L 221.372 375.125  L 218.372 375.125  L 218.372 378.775  L 221.372 378.775  L 221.372 385.125  L 218.372 385.125  L 218.372 388.775  L 221.372 388.775  L 221.372 390.818  L 255.572 390.818  L 255.572 388.775  z" fill="none" stroke="rgb(27, 158, 119)" /><path d="M 272.026 365.379 L 271.438 365.227  L 270.894 364.96  L 270.414 364.588  L 270.018 364.128  L 269.724 363.597  L 269.542 363.018  L 269.481 362.414  L 269.542 361.81  L 269.724 361.231  L 270.018 360.701  L 270.414 360.24  L 270.894 359.869  L 271.438 359.601  L 272.026 359.449  L 272.632 359.418  L 273.232 359.51  L 273.801 359.721  L 274.316 360.042  L 274.756 360.46  L 275.103 360.958  L 275.342 361.516  L 275.464 362.111  L 275.464 362.718  L 275.342 363.312  L 275.103 363.87  L 274.756 364.368  L 274.316 364.786  L 273.801 365.107  L 273.232 365.318  L 272.632 365.41  z" fill="none" stroke="rgb(217, 95, 2)" /><path d="M 216.572 369.239 L 216.572 365.589  L 213.572 365.589  L 213.572 359.239  L 216.572 359.239  L 216.572 355.589  L 213.572 355.589  L 213.572 353.546  L 163.372 353.546  L 163.372 355.589  L 160.372 355.589  L 160.372 359.239  L 163.372 359.239  L 163.372 365.589  L 160.372 365.589  L 160.372 369.239  L 163.372 369.239  L 163.372 371.282  L 213.572 371.282  L 213.572 369.239  z" fill="none" stroke="rgb(27, 158, 119)" /><path d="M 300.572 369.239 L 300.572 365.589  L 297.572 365.589  L 297.572 359.239  L 300.572 359.239  L 300.572 355.589  L 297.572 355.589  L 297.572 353.546  L 263.372 353.546  L 263.372 355.589  L 260.372 355.589  L 260.372 359.239  L 263.372 359.239  L 263.372 365.589  L 260.372 365.589  L 260.372 369.239  L 263.372 369.239  L 263.372 371.282  L 297.572 371.282  L 297.572 369.239  z" fill="none" stroke="rgb(27, 158, 119)" /><path d="M 258.572 369.239 L 258.572 365.589  L 255.572 365.589  L 255.572 359.239  L 258.572 359.239  L 258.572 355.589  L 255.572 355.589  L 255.572 353.546  L 221.372 353.546  L 221.372 355.589  L 218.372 355.589  L 218.372 359.239  L 221.372 359.239  L 221.372 365.589  L 218.372 365.589  L 218.372 369.239  L 221.372 369.239  L 221.372 371.282  L 255.572 371.282  L 255.572 369.239  z" fill="none" stroke="rgb(27, 158, 119)" /><path d="M 272.026 345.843 L 271.438 345.691  L 270.894 345.424  L 270.414 345.052  L 270.018 344.592  L 269.724 344.061  L 269.542 343.482  L 269.481 342.878  L 269.542 342.274  L 269.724 341.695  L 270.018 341.165  L 270.414 340.704  L 270.894 340.333  L 271.438 340.065  L 272.026 339.913  L 272.632 339.883  L 273.232 339.974  L 273.801 340.185  L 274.316 340.506  L 274.756 340.924  L 275.103 341.423  L 275.342 341.98  L 275.464 342.575  L 275.464 343.182  L 275.342 343.776  L 275.103 344.334  L 274.756 344.832  L 274.316 345.25  L 273.801 345.571  L 273.232 345.782  L 272.632 345.874  z" fill="none" stroke="rgb(217, 95, 2)" /><path d="M 216.572 349.703 L 216.572 346.053  L 213.572 346.053  L 213.572 339.703  L 216.572 339.703  L 216.572 336.053  L 213.572 336.053  L 213.572 334.01  L 163.372 334.01  L 163.372 336.053  L 160.372 336.053  L 160.372 339.703  L 163.372 339.703  L 163.372 346.053  L 160.372 346.053  L 160.372 349.703  L 163.372 349.703  L 163.372 351.746  L 213.572 351.746  L 213.572 349.703  z" fill="none" stroke="rgb(27, 158, 119)" /><path d="M 300.572 349.703 L 300.572 346.053  L 297.572 346.053  L 297.572 339.703  L 300.572 339.703  L 300.572 336.053  L 297.572 336.053  L 297.572 334.01  L 263.372 334.01  L 263.372 336.053  L 260.372 336.053  L 260.372 339.703  L 263.372 339.703  L 263.372 346.053  L 260.372 346.053  L 260.372 349.703  L 263.372 349.703  L 263.372 351.746  L 297.572 351.746  L 297.572 349.703  z" fill="none" stroke="rgb(27, 158, 119)" /><path d="M 258.572 349.703 L 258.572 346.053  L 255.572 346.053  L 255.572 339.703  L 258.572 339.703  L 258.572 336.053  L 255.572 336.053  L 255.572 334.01  L 221.372 334.01  L 221.372 336.053  L 218.372 336.053  L 218.372 339.703  L 221.372 339.703  L 221.372 346.053  L 218.372 346.053  L 218.372 349.703  L 221.372 349.703  L 221.372 351.746  L 255.572 351.746  L 255.572 349.703  z" fill="none" stroke="rgb(27, 158, 119)" /><path d="M 272.026 326.307 L 271.438 326.155  L 270.894 325.888  L 270.414 325.516  L 270.018 325.056  L 269.724 324.525  L 269.542 323.946  L 269.481 323.342  L 269.542 322.739  L 269.724 322.159  L 270.018 321.629  L 270.414 321.168  L 270.894 320.797  L 271.438 320.53  L 272.026 320.377  L 272.632 320.347  L 273.232 320.439  L 273.801 320.649  L 274.316 320.97  L 274.756 321.389  L 275.103 321.887  L 275.342 322.444  L 275.464 323.039  L 275.464 323.646  L 275.342 324.24  L 275.103 324.798  L 274.756 325.296  L 274.316 325.714  L 273.801 326.035  L 273.232 326.246  L 272.632 326.338  z" fill="none" stroke="rgb(217, 95, 2)" /><path d="M 216.572 330.167 L 216.572 326.517  L 213.572 326.517  L 213.572 320.167  L 216.572 320.167  L 216.572 316.517  L 213.572 316.517  L 213.572 314.474  L 163.372 314.474  L 163.372 316.517  L 160.372 316.517  L 160.372 320.167  L 163.372 320.167  L 163.372 326.517  L 160.372 326.517  L 160.372 330.167  L 163.372 330.167  L 163.372 332.21  L 213.572 332.21  L 213.572 330.167  z" fill="none" stroke="rgb(27, 158, 119)" /><path d="M 300.572 330.167 L 300.572 326.517  L 297.572 326.517  L 297.572 320.167  L 300.572 320.167  L 300.572 316.517  L 297.572 316.517  L 297.572 314.474  L 263.372 314.474  L 263.372 316.517  L 260.372 316.517  L 260.372 320.167  L 263.372 320.167  L 263.372 326.517  L 260.372 326.517  L 260.372 330.167  L 263.372 330.167  L 263.372 332.21  L 297.572 332.21  L 297.572 330.167  z" fill="none" stroke="rgb(27, 158, 119)" /><path d="M 258.572 330.167 L 258.572 326.517  L 255.572 326.517  L 255.572 320.167  L 258.572 320.167  L 258.572 316.517  L 255.572 316.517  L 255.572 314.474  L 221.372 314.474  L 221.372 316.517  L 218.372 316.517  L 218.372 320.167  L 221.372 320.167  L 221.372 326.517  L 218.372 326.517  L 218.372 330.167  L 221.372 330.167  L 221.372 332.21  L 255.572 332.21  L 255.572 330.167  z" fill="none" stroke="rgb(27, 158, 119)" /><path d="M 272.026 306.771 L 271.438 306.619  L 270.894 306.352  L 270.414 305.98  L 270.018 305.52  L 269.724 304.989  L 269.542 304.41  L 269.481 303.806  L 269.542 303.203  L 269.724 302.624  L 270.018 302.093  L 270.414 301.632  L 270.894 301.261  L 271.438 300.994  L 272.026 300.842  L 272.632 300.811  L 273.232 300.903  L 273.801 301.113  L 274.316 301.435  L 274.756 301.853  L 275.103 302.351  L 275.342 302.908  L 275.464 303.503  L 275.464 304.11  L 275.342 304.704  L 275.103 305.262  L 274.756 305.76  L 274.316 306.178  L 273.801 306.499  L 273.232 306.71  L 272.632 306.802  z" fill="none" stroke="rgb(217, 95, 2)" /><path d="M 216.572 310.631 L 216.572 306.981  L 213.572 306.981  L 213.572 300.631  L 216.572 300.631  L 216.572 296.981  L 213.572 296.981  L 213.572 294.938  L 163.372 294.938  L 163.372 296.981  L 160.372 296.981  L 160.372 300.631  L 163.372 300.631  L 163.372 306.981  L 160.372 306.981  L 160.372 310.631  L 163.372 310.631  L 163.372 312.674  L 213.572 312.674  L 213.572 310.631  z" fill="none" stroke="rgb(27, 158, 119)" /><path d="M 300.572 310.631 L 300.572 306.981  L 297.572 306.981  L 297.572 300.631  L 300.572 300.631  L 300.572 296.981  L 297.572 296.981  L 297.572 294.938  L 263.372 294.938  L 263.372 296.981  L 260.372 296.981  L 260.372 300.631  L 263.372 300.631  L 263.372 306.981  L 260.372 306.981  L 260.372 310.631  L 263.372 310.631  L 263.372 312.674  L 297.572 312.674  L 297.572 310.631  z" fill="none" stroke="rgb(27, 158, 119)" /><path d="M 258.572 310.631 L 258.572 306.981  L 255.572 306.981  L 255.572 300.631  L 258.572 300.631  L 258.572 296.981  L 255.572 296.981  L 255.572 294.938  L 221.372 294.938  L 221.372 296.981  L 218.372 296.981  L 218.372 300.631  L 221.372 300.631  L 221.372 306.981  L 218.372 306.981  L 218.372 310.631  L 221.372 310.631  L 221.372 312.674  L 255.572 312.674  L 255.572 310.631  z" fill="none" stroke="rgb(27, 158, 119)" /><path d="M 272.026 287.235 L 271.438 287.083  L 270.894 286.816  L 270.414 286.445  L 270.018 285.984  L 269.724 285.453  L 269.542 284.874  L 269.481 284.271  L 269.542 283.667  L 269.724 283.088  L 270.018 282.557  L 270.414 282.097  L 270.894 281.725  L 271.438 281.458  L 272.026 281.306  L 272.632 281.275  L 273.232 281.367  L 273.801 281.578  L 274.316 281.899  L 274.756 282.317  L 275.103 282.815  L 275.342 283.373  L 275.464 283.967  L 275.464 284.574  L 275.342 285.168  L 275.103 285.726  L 274.756 286.224  L 274.316 286.642  L 273.801 286.963  L 273.232 287.174  L 272.632 287.266  z" fill="none" stroke="rgb(217, 95, 2)" /><path d="M 216.572 291.096 L 216.572 287.446  L 213.572 287.446  L 213.572 281.096  L 216.572 281.096  L 216.572 277.446  L 213.572 277.446  L 213.572 275.403  L 163.372 275.403  L 163.372 277.446  L 160.372 277.446  L 160.372 281.096  L 163.372 281.096  L 163.372 287.446  L 160.372 287.446  L 160.372 291.096  L 163.372 291.096  L 163.372 293.138  L 213.572 293.138  L 213.572 291.096  z" fill="none" stroke="rgb(27, 158, 119)" /><path d="M 300.572 291.096 L 300.572 287.446  L 297.572 287.446  L 297.572 281.096  L 300.572 281.096  L 300.572 277.446  L 297.572 277.446  L 297.572 275.403  L 263.372 275.403  L 263.372 277.446  L 260.372 277.446  L 260.372 281.096  L 263.372 281.096  L 263.372 287.446  L 260.372 287.446  L 260.372 291.096  L 263.372 291.096  L 263.372 293.138  L 297.572 293.138  L 297.572 291.096  z" fill="none" stroke="rgb(27, 158, 119)" /><path d="M 258.572 291.096 L 258.572 287.446  L 255.572 287.446  L 255.572 281.096  L 258.572 281.096  L 258.572 277.446  L 255.572 277.446  L 255.572 275.403  L 221.372 275.403  L 221.372 277.446  L 218.372 277.446  L 218.372 281.096  L 221.372 281.096  L 221.372 287.446  L 218.372 287.446  L 218.372 291.096  L 221.372 291.096  L 221.372 293.138  L 255.572 293.138  L 255.572 291.096  z" fill="none" stroke="rgb(27, 158, 119)" /><path d="M 216.572 271.56 L 216.572 267.91  L 213.572 267.91  L 213.572 261.56  L 216.572 261.56  L 216.572 257.91  L 213.572 257.91  L 213.572 255.867  L 163.372 255.867  L 163.372 257.91  L 160.372 257.91  L 160.372 261.56  L 163.372 261.56  L 163.372 267.91  L 160.372 267.91  L 160.372 271.56  L 163.372 271.56  L 163.372 273.603  L 213.572 273.603  L 213.572 271.56  z" fill="none" stroke="rgb(27, 158, 119)" /><path d="M 300.572 271.56 L 300.572 267.91  L 297.572 267.91  L 297.572 261.56  L 300.572 261.56  L 300.572 257.91  L 297.572 257.91  L 297.572 255.867  L 263.372 255.867  L 263.372 257.91  L 260.372 257.91  L 260.372 261.56  L 263.372 261.56  L 263.372 267.91  L 260.372 267.91  L 260.372 271.56  L 263.372 271.56  L 263.372 273.603  L 297.572 273.603  L 297.572 271.56  z" fill="none" stroke="rgb(27, 158, 119)" /><path d="M 258.572 271.56 L 258.572 267.91  L 255.572 267.91  L 255.572 261.56  L 258.572 261.56  L 258.572 257.91  L 255.572 257.91  L 255.572 255.867  L 221.372 255.867  L 221.372 257.91  L 218.372 257.91  L 218.372 261.56  L 221.372 261.56  L 221.372 267.91  L 218.372 267.91  L 218.372 271.56  L 221.372 271.56  L 221.372 273.603  L 255.572 273.603  L 255.572 271.56  z" fill="none" stroke="rgb(27, 158, 119)" /><path d="M 216.572 252.024 L 216.572 248.374  L 213.572 248.374  L 213.572 242.024  L 216.572 242.024  L 216.572 238.374  L 213.572 238.374  L 213.572 236.331  L 163.372 236.331  L 163.372 238.374  L 160.372 238.374  L 160.372 242.024  L 163.372 242.024  L 163.372 248.374  L 160.372 248.374  L 160.372 252.024  L 163.372 252.024  L 163.372 254.067  L 213.572 254.067  L 213.572 252.024  z" fill="none" stroke="rgb(27, 158, 119)" /><path d="M 300.572 252.024 L 300.572 248.374  L 297.572 248.374  L 297.572 242.024  L 300.572 242.024  L 300.572 238.374  L 297.572 238.374  L 297.572 236.331  L 263.372 236.331  L 263.372 238.374  L 260.372 238.374  L 260.372 242.024  L 263.372 242.024  L 263.372 248.374  L 260.372 248.374  L 260.372 252.024  L 263.372 252.024  L 263.372 254.067  L 297.572 254.067  L 297.572 252.024  z" fill="none" stroke="rgb(27, 158, 119)" /><path d="M 258.572 252.024 L 258.572 248.374  L 255.572 248.374  L 255.572 242.024  L 258.572 242.024  L 258.572 238.374  L 255.572 238.374  L 255.572 236.331  L 221.372 236.331  L 221.372 238.374  L 218.372 238.374  L 218.372 242.024  L 221.372 242.024  L 221.372 248.374  L 218.372 248.374  L 218.372 252.024  L 221.372 252.024  L 221.372 254.067  L 255.572 254.067  L 255.572 252.024  z" fill="none" stroke="rgb(27, 158, 119)" /><path d="M 314.026 228.628 L 313.438 228.476  L 312.894 228.208  L 312.414 227.837  L 312.018 227.376  L 311.724 226.846  L 311.542 226.267  L 311.481 225.663  L 311.542 225.059  L 311.724 224.48  L 312.018 223.949  L 312.414 223.489  L 312.894 223.117  L 313.438 222.85  L 314.026 222.698  L 314.632 222.667  L 315.232 222.759  L 315.801 222.97  L 316.316 223.291  L 316.756 223.709  L 317.103 224.207  L 317.342 224.765  L 317.464 225.359  L 317.464 225.966  L 317.342 226.561  L 317.103 227.118  L 316.756 227.617  L 316.316 228.035  L 315.801 228.356  L 315.232 228.567  L 314.632 228.658  z" fill="none" stroke="rgb(217, 95, 2)" /><path d="M 216.572 232.488 L 216.572 228.838  L 213.572 228.838  L 213.572 222.488  L 216.572 222.488  L 216.572 218.838  L 213.572 218.838  L 213.572 216.795  L 163.372 216.795  L 163.372 218.838  L 160.372 218.838  L 160.372 222.488  L 163.372 222.488  L 163.372 228.838  L 160.372 228.838  L 160.372 232.488  L 163.372 232.488  L 163.372 234.531  L 213.572 234.531  L 213.572 232.488  z" fill="none" stroke="rgb(27, 158, 119)" /><path d="M 342.572 232.488 L 342.572 228.838  L 339.572 228.838  L 339.572 222.488  L 342.572 222.488  L 342.572 218.838  L 339.572 218.838  L 339.572 216.795  L 305.372 216.795  L 305.372 218.838  L 302.372 218.838  L 302.372 222.488  L 305.372 222.488  L 305.372 228.838  L 302.372 228.838  L 302.372 232.488  L 305.372 232.488  L 305.372 234.531  L 339.572 234.531  L 339.572 232.488  z" fill="none" stroke="rgb(27, 158, 119)" /><path d="M 300.572 232.488 L 300.572 228.838  L 297.572 228.838  L 297.572 222.488  L 300.572 222.488  L 300.572 218.838  L 297.572 218.838  L 297.572 216.795  L 263.372 216.795  L 263.372 218.838  L 260.372 218.838  L 260.372 222.488  L 263.372 222.488  L 263.372 228.838  L 260.372 228.838  L 260.372 232.488  L 263.372 232.488  L 263.372 234.531  L 297.572 234.531  L 297.572 232.488  z" fill="none" stroke="rgb(27, 158, 119)" /><path d="M 258.572 232.488 L 258.572 228.838  L 255.572 228.838  L 255.572 222.488  L 258.572 222.488  L 258.572 218.838  L 255.572 218.838  L 255.572 216.795  L 221.372 216.795  L 221.372 218.838  L 218.372 218.838  L 218.372 222.488  L 221.372 222.488  L 221.372 228.838  L 218.372 228.838  L 218.372 232.488  L 221.372 232.488  L 221.372 234.531  L 255.572 234.531  L 255.572 232.488  z" fill="none" stroke="rgb(27, 158, 119)" /><path d="M 314.026 209.092 L 313.438 208.94  L 312.894 208.672  L 312.414 208.301  L 312.018 207.84  L 311.724 207.31  L 311.542 206.731  L 311.481 206.127  L 311.542 205.523  L 311.724 204.944  L 312.018 204.413  L 312.414 203.953  L 312.894 203.581  L 313.438 203.314  L 314.026 203.162  L 314.632 203.131  L 315.232 203.223  L 315.801 203.434  L 316.316 203.755  L 316.756 204.173  L 317.103 204.671  L 317.342 205.229  L 317.464 205.823  L 317.464 206.43  L 317.342 207.025  L 317.103 207.583  L 316.756 208.081  L 316.316 208.499  L 315.801 208.82  L 315.232 209.031  L 314.632 209.123  z" fill="none" stroke="rgb(217, 95, 2)" /><path d="M 216.572 212.952 L 216.572 209.302  L 213.572 209.302  L 213.572 202.952  L 216.572 202.952  L 216.572 199.302  L 213.572 199.302  L 213.572 197.259  L 163.372 197.259  L 163.372 199.302  L 160.372 199.302  L 160.372 202.952  L 163.372 202.952  L 163.372 209.302  L 160.372 209.302  L 160.372 212.952  L 163.372 212.952  L 163.372 214.995  L 213.572 214.995  L 213.572 212.952  z" fill="none" stroke="rgb(27, 158, 119)" /><path d="M 342.572 212.952 L 342.572 209.302  L 339.572 209.302  L 339.572 202.952  L 342.572 202.952  L 342.572 199.302  L 339.572 199.302  L 339.572 197.259  L 305.372 197.259  L 305.372 199.302  L 302.372 199.302  L 302.372 202.952  L 305.372 202.952  L 305.372 209.302  L 302.372 209.302  L 302.372 212.952  L 305.372 212.952  L 305.372 214.995  L 339.572 214.995  L 339.572 212.952  z" fill="none" stroke="rgb(27, 158, 119)" /><path d="M 300.572 212.952 L 300.572 209.302  L 297.572 209.302  L 297.572 202.952  L 300.572 202.952  L 300.572 199.302  L 297.572 199.302  L 297.572 197.259  L 263.372 197.259  L 263.372 199.302  L 260.372 199.302  L 260.372 202.952  L 263.372 202.952  L 263.372 209.302  L 260.372 209.302  L 260.372 212.952  L 263.372 212.952  L 263.372 214.995  L 297.572 214.995  L 297.572 212.952  z" fill="none" stroke="rgb(27, 158, 119)" /><path d="M 258.572 212.952 L 258.572 209.302  L 255.572 209.302  L 255.572 202.952  L 258.572 202.952  L 258.572 199.302  L 255.572 199.302  L 255.572 197.259  L 221.372 197.259  L 221.372 199.302  L 218.372 199.302  L 218.372 202.952  L 221.372 202.952  L 221.372 209.302  L 218.372 209.302  L 218.372 212.952  L 221.372 212.952  L 221.372 214.995  L 255.572 214.995  L 255.572 212.952  z" fill="none" stroke="rgb(27, 158, 119)" /><path d="M 314.026 189.556 L 313.438 189.404  L 312.894 189.137  L 312.414 188.765  L 312.018 188.305  L 311.724 187.774  L 311.542 187.195  L 311.481 186.591  L 311.542 185.987  L 311.724 185.408  L 312.018 184.878  L 312.414 184.417  L 312.894 184.046  L 313.438 183.778  L 314.026 183.626  L 314.632 183.595  L 315.232 183.687  L 315.801 183.898  L 316.316 184.219  L 316.756 184.637  L 317.103 185.135  L 317.342 185.693  L 317.464 186.288  L 317.464 186.894  L 317.342 187.489  L 317.103 188.047  L 316.756 188.545  L 316.316 188.963  L 315.801 189.284  L 315.232 189.495  L 314.632 189.587  z" fill="none" stroke="rgb(217, 95, 2)" /><path d="M 216.572 193.416 L 216.572 189.766  L 213.572 189.766  L 213.572 183.416  L 216.572 183.416  L 216.572 179.766  L 213.572 179.766  L 213.572 177.723  L 163.372 177.723  L 163.372 179.766  L 160.372 179.766  L 160.372 183.416  L 163.372 183.416  L 163.372 189.766  L 160.372 189.766  L 160.372 193.416  L 163.372 193.416  L 163.372 195.459  L 213.572 195.459  L 213.572 193.416  z" fill="none" stroke="rgb(27, 158, 119)" /><path d="M 342.572 193.416 L 342.572 189.766  L 339.572 189.766  L 339.572 183.416  L 342.572 183.416  L 342.572 179.766  L 339.572 179.766  L 339.572 177.723  L 305.372 177.723  L 305.372 179.766  L 302.372 179.766  L 302.372 183.416  L 305.372 183.416  L 305.372 189.766  L 302.372 189.766  L 302.372 193.416  L 305.372 193.416  L 305.372 195.459  L 339.572 195.459  L 339.572 193.416  z" fill="none" stroke="rgb(27, 158, 119)" /><path d="M 300.572 193.416 L 300.572 189.766  L 297.572 189.766  L 297.572 183.416  L 300.572 183.416  L 300.572 179.766  L 297.572 179.766  L 297.572 177.723  L 263.372 177.723  L 263.372 179.766  L 260.372 179.766  L 260.372 183.416  L 263.372 183.416  L 263.372 189.766  L 260.372 189.766  L 260.372 193.416  L 263.372 193.416  L 263.372 195.459  L 297.572 195.459  L 297.572 193.416  z" fill="none" stroke="rgb(27, 158, 119)" /><path d="M 258.572 193.416 L 258.572 189.766  L 255.572 189.766  L 255.572 183.416  L 258.572 183.416  L 258.572 179.766  L 255.572 179.766  L 255.572 177.723  L 221.372 177.723  L 221.372 179.766  L 218.372 179.766  L 218.372 183.416  L 221.372 183.416  L 221.372 189.766  L 218.372 189.766  L 218.372 193.416  L 221.372 193.416  L 221.372 195.459  L 255.572 195.459  L 255.572 193.416  z" fill="none" stroke="rgb(27, 158, 119)" /><path d="M 314.026 170.02 L 313.438 169.868  L 312.894 169.601  L 312.414 169.229  L 312.018 168.769  L 311.724 168.238  L 311.542 167.659  L 311.481 167.055  L 311.542 166.451  L 311.724 165.872  L 312.018 165.342  L 312.414 164.881  L 312.894 164.51  L 313.438 164.242  L 314.026 164.09  L 314.632 164.06  L 315.232 164.151  L 315.801 164.362  L 316.316 164.683  L 316.756 165.101  L 317.103 165.599  L 317.342 166.157  L 317.464 166.752  L 317.464 167.359  L 317.342 167.953  L 317.103 168.511  L 316.756 169.009  L 316.316 169.427  L 315.801 169.748  L 315.232 169.959  L 314.632 170.051  z" fill="none" stroke="rgb(217, 95, 2)" /><path d="M 216.572 173.88 L 216.572 170.23  L 213.572 170.23  L 213.572 163.88  L 216.572 163.88  L 216.572 160.23  L 213.572 160.23  L 213.572 158.187  L 163.372 158.187  L 163.372 160.23  L 160.372 160.23  L 160.372 163.88  L 163.372 163.88  L 163.372 170.23  L 160.372 170.23  L 160.372 173.88  L 163.372 173.88  L 163.372 175.923  L 213.572 175.923  L 213.572 173.88  z" fill="none" stroke="rgb(27, 158, 119)" /><path d="M 342.572 173.88 L 342.572 170.23  L 339.572 170.23  L 339.572 163.88  L 342.572 163.88  L 342.572 160.23  L 339.572 160.23  L 339.572 158.187  L 305.372 158.187  L 305.372 160.23  L 302.372 160.23  L 302.372 163.88  L 305.372 163.88  L 305.372 170.23  L 302.372 170.23  L 302.372 173.88  L 305.372 173.88  L 305.372 175.923  L 339.572 175.923  L 339.572 173.88  z" fill="none" stroke="rgb(27, 158, 119)" /><path d="M 300.572 173.88 L 300.572 170.23  L 297.572 170.23  L 297.572 163.88  L 300.572 163.88  L 300.572 160.23  L 297.572 160.23  L 297.572 158.187  L 263.372 158.187  L 263.372 160.23  L 260.372 160.23  L 260.372 163.88  L 263.372 163.88  L 263.372 170.23  L 260.372 170.23  L 260.372 173.88  L 263.372 173.88  L 263.372 175.923  L 297.572 175.923  L 297.572 173.88  z" fill="none" stroke="rgb(27, 158, 119)" /><path d="M 258.572 173.88 L 258.572 170.23  L 255.572 170.23  L 255.572 163.88  L 258.572 163.88  L 258.572 160.23  L 255.572 160.23  L 255.572 158.187  L 221.372 158.187  L 221.372 160.23  L 218.372 160.23  L 218.372 163.88  L 221.372 163.88  L 221.372 170.23  L 218.372 170.23  L 218.372 173.88  L 221.372 173.88  L 221.372 175.923  L 255.572 175.923  L 255.572 173.88  z" fill="none" stroke="rgb(27, 158, 119)" /><path d="M 314.026 150.484 L 313.438 150.332  L 312.894 150.065  L 312.414 149.693  L 312.018 149.233  L 311.724 148.702  L 311.542 148.123  L 311.481 147.519  L 311.542 146.915  L 311.724 146.336  L 312.018 145.806  L 312.414 145.345  L 312.894 144.974  L 313.438 144.706  L 314.026 144.554  L 314.632 144.524  L 315.232 144.616  L 315.801 144.826  L 316.316 145.147  L 316.756 145.565  L 317.103 146.064  L 317.342 146.621  L 317.464 147.216  L 317.464 147.823  L 317.342 148.417  L 317.103 148.975  L 316.756 149.473  L 316.316 149.891  L 315.801 150.212  L 315.232 150.423  L 314.632 150.515  z" fill="none" stroke="rgb(217, 95, 2)" /><path d="M 216.572 154.344 L 216.572 150.694  L 213.572 150.694  L 213.572 144.344  L 216.572 144.344  L 216.572 140.694  L 213.572 140.694  L 213.572 138.651  L 163.372 138.651  L 163.372 140.694  L 160.372 140.694  L 160.372 144.344  L 163.372 144.344  L 163.372 150.694  L 160.372 150.694  L 160.372 154.344  L 163.372 154.344  L 163.372 156.387  L 213.572 156.387  L 213.572 154.344  z" fill="none" stroke="rgb(27, 158, 119)" /><path d="M 342.572 154.344 L 342.572 150.694  L 339.572 150.694  L 339.572 144.344  L 342.572 144.344  L 342.572 140.694  L 339.572 140.694  L 339.572 138.651  L 305.372 138.651  L 305.372 140.694  L 302.372 140.694  L 302.372 144.344  L 305.372 144.344  L 305.372 150.694  L 302.372 150.694  L 302.372 154.344  L 305.372 154.344  L 305.372 156.387  L 339.572 156.387  L 339.572 154.344  z" fill="none" stroke="rgb(27, 158, 119)" /><path d="M 300.572 154.344 L 300.572 150.694  L 297.572 150.694  L 297.572 144.344  L 300.572 144.344  L 300.572 140.694  L 297.572 140.694  L 297.572 138.651  L 263.372 138.651  L 263.372 140.694  L 260.372 140.694  L 260.372 144.344  L 263.372 144.344  L 263.372 150.694  L 260.372 150.694  L 260.372 154.344  L 263.372 154.344  L 263.372 156.387  L 297.572 156.387  L 297.572 154.344  z" fill="none" stroke="rgb(27, 158, 119)" /><path d="M 258.572 154.344 L 258.572 150.694  L 255.572 150.694  L 255.572 144.344  L 258.572 144.344  L 258.572 140.694  L 255.572 140.694  L 255.572 138.651  L 221.372 138.651  L 221.372 140.694  L 218.372 140.694  L 218.372 144.344  L 221.372 144.344  L 221.372 150.694  L 218.372 150.694  L 218.372 154.344  L 221.372 154.344  L 221.372 156.387  L 255.572 156.387  L 255.572 154.344  z" fill="none" stroke="rgb(27, 158, 119)" /><path d="M 314.026 130.948 L 313.438 130.796  L 312.894 130.529  L 312.414 130.157  L 312.018 129.697  L 311.724 129.166  L 311.542 128.587  L 311.481 127.983  L 311.542 127.38  L 311.724 126.8  L 312.018 126.27  L 312.414 125.809  L 312.894 125.438  L 313.438 125.171  L 314.026 125.018  L 314.632 124.988  L 315.232 125.08  L 315.801 125.29  L 316.316 125.611  L 316.756 126.03  L 317.103 126.528  L 317.342 127.085  L 317.464 127.68  L 317.464 128.287  L 317.342 128.881  L 317.103 129.439  L 316.756 129.937  L 316.316 130.355  L 315.801 130.676  L 315.232 130.887  L 314.632 130.979  z" fill="none" stroke="rgb(217, 95, 2)" /><path d="M 342.572 134.808 L 342.572 131.158  L 339.572 131.158  L 339.572 124.808  L 342.572 124.808  L 342.572 121.158  L 339.572 121.158  L 339.572 119.115  L 305.372 119.115  L 305.372 121.158  L 302.372 121.158  L 302.372 124.808  L 305.372 124.808  L 305.372 131.158  L 302.372 131.158  L 302.372 134.808  L 305.372 134.808  L 305.372 136.851  L 339.572 136.851  L 339.572 134.808  z" fill="none" stroke="rgb(27, 158, 119)" /><path d="M 300.572 134.808 L 300.572 131.158  L 297.572 131.158  L 297.572 124.808  L 300.572 124.808  L 300.572 121.158  L 297.572 121.158  L 297.572 119.115  L 263.372 119.115  L 263.372 121.158  L 260.372 121.158  L 260.372 124.808  L 263.372 124.808  L 263.372 131.158  L 260.372 131.158  L 260.372 134.808  L 263.372 134.808  L 263.372 136.851  L 297.572 136.851  L 297.572 134.808  z" fill="none" stroke="rgb(27, 158, 119)" /><path d="M 258.572 134.808 L 258.572 131.158  L 255.572 131.158  L 255.572 124.808  L 258.572 124.808  L 258.572 121.158  L 255.572 121.158  L 255.572 119.115  L 221.372 119.115  L 221.372 121.158  L 218.372 121.158  L 218.372 124.808  L 221.372 124.808  L 221.372 131.158  L 218.372 131.158  L 218.372 134.808  L 221.372 134.808  L 221.372 136.851  L 255.572 136.851  L 255.572 134.808  z" fill="none" stroke="rgb(27, 158, 119)" /><path d="M 216.572 134.808 L 216.572 131.158  L 213.572 131.158  L 213.572 124.808  L 216.572 124.808  L 216.572 121.158  L 213.572 121.158  L 213.572 119.115  L 163.372 119.115  L 163.372 121.158  L 160.372 121.158  L 160.372 124.808  L 163.372 124.808  L 163.372 131.158  L 160.372 131.158  L 160.372 134.808  L 163.372 134.808  L 163.372 136.851  L 213.572 136.851  L 213.572 134.808  z" fill="none" stroke="rgb(27, 158, 119)" /><path d="M 213.572 115.272 L 216.572 115.272  L 216.572 111.622  L 213.572 111.622  L 213.572 105.272  L 216.572 105.272  L 216.572 101.622  L 213.572 101.622  L 213.572 99.5795  L 163.372 99.5795  L 163.372 101.622  L 160.372 101.622  L 160.372 105.272  L 163.372 105.272  L 163.372 111.622  L 160.372 111.622  L 160.372 115.272  L 163.372 115.272  L 163.372 117.315  L 213.572 117.315  z" fill="none" stroke="rgb(27, 158, 119)" /><path d="M 314.026 111.412 L 313.438 111.26  L 312.894 110.993  L 312.414 110.621  L 312.018 110.161  L 311.724 109.63  L 311.542 109.051  L 311.481 108.447  L 311.542 107.844  L 311.724 107.265  L 312.018 106.734  L 312.414 106.273  L 312.894 105.902  L 313.438 105.635  L 314.026 105.483  L 314.632 105.452  L 315.232 105.544  L 315.801 105.754  L 316.316 106.076  L 316.756 106.494  L 317.103 106.992  L 317.342 107.55  L 317.464 108.144  L 317.464 108.751  L 317.342 109.345  L 317.103 109.903  L 316.756 110.401  L 316.316 110.819  L 315.801 111.14  L 315.232 111.351  L 314.632 111.443  z" fill="none" stroke="rgb(217, 95, 2)" /><path d="M 342.572 115.272 L 342.572 111.622  L 339.572 111.622  L 339.572 105.272  L 342.572 105.272  L 342.572 101.622  L 339.572 101.622  L 339.572 99.5795  L 305.372 99.5795  L 305.372 101.622  L 302.372 101.622  L 302.372 105.272  L 305.372 105.272  L 305.372 111.622  L 302.372 111.622  L 302.372 115.272  L 305.372 115.272  L 305.372 117.315  L 339.572 117.315  L 339.572 115.272  z" fill="none" stroke="rgb(27, 158, 119)" /><path d="M 300.572 115.272 L 300.572 111.622  L 297.572 111.622  L 297.572 105.272  L 300.572 105.272  L 300.572 101.622  L 297.572 101.622  L 297.572 99.5795  L 263.372 99.5795  L 263.372 101.622  L 260.372 101.622  L 260.372 105.272  L 263.372 105.272  L 263.372 111.622  L 260.372 111.622  L 260.372 115.272  L 263.372 115.272  L 263.372 117.315  L 297.572 117.315  L 297.572 115.272  z" fill="none" stroke="rgb(27, 158, 119)" /><path d="M 258.572 115.272 L 258.572 111.622  L 255.572 111.622  L 255.572 105.272  L 258.572 105.272  L 258.572 101.622  L 255.572 101.622  L 255.572 99.5795  L 221.372 99.5795  L 221.372 101.622  L 218.372 101.622  L 218.372 105.272  L 221.372 105.272  L 221.372 111.622  L 218.372 111.622  L 218.372 115.272  L 221.372 115.272  L 221.372 117.315  L 255.572 117.315  L 255.572 115.272  z" fill="none" stroke="rgb(27, 158, 119)" /><path d="M 213.572 95.7365 L 216.572 95.7365  L 216.572 92.0865  L 213.572 92.0865  L 213.572 85.7365  L 216.572 85.7365  L 216.572 82.0865  L 213.572 82.0865  L 213.572 80.0436  L 163.372 80.0436  L 163.372 82.0865  L 160.372 82.0865  L 160.372 85.7365  L 163.372 85.7365  L 163.372 92.0865  L 160.372 92.0865  L 160.372 95.7365  L 163.372 95.7365  L 163.372 97.7795  L 213.572 97.7795  z" fill="none" stroke="rgb(27, 158, 119)" /><path d="M 314.026 91.8764 L 313.438 91.7243  L 312.894 91.457  L 312.414 91.0855  L 312.018 90.6251  L 311.724 90.0944  L 311.542 89.5153  L 311.481 88.9115  L 311.542 88.3078  L 311.724 87.7287  L 312.018 87.198  L 312.414 86.7375  L 312.894 86.366  L 313.438 86.0988  L 314.026 85.9466  L 314.632 85.9159  L 315.232 86.0078  L 315.801 86.2186  L 316.316 86.5396  L 316.756 86.9578  L 317.103 87.4559  L 317.342 88.0136  L 317.464 88.6081  L 317.464 89.215  L 317.342 89.8095  L 317.103 90.3672  L 316.756 90.8653  L 316.316 91.2835  L 315.801 91.6045  L 315.232 91.8153  L 314.632 91.9072  z" fill="none" stroke="rgb(217, 95, 2)" /><path d="M 342.572 95.7365 L 342.572 92.0865  L 339.572 92.0865  L 339.572 85.7365  L 342.572 85.7365  L 342.572 82.0865  L 339.572 82.0865  L 339.572 80.0436  L 305.372 80.0436  L 305.372 82.0865  L 302.372 82.0865  L 302.372 85.7365  L 305.372 85.7365  L 305.372 92.0865  L 302.372 92.0865  L 302.372 95.7365  L 305.372 95.7365  L 305.372 97.7795  L 339.572 97.7795  L 339.572 95.7365  z" fill="none" stroke="rgb(27, 158, 119)" /><path d="M 300.572 95.7365 L 300.572 92.0865  L 297.572 92.0865  L 297.572 85.7365  L 300.572 85.7365  L 300.572 82.0865  L 297.572 82.0865  L 297.572 80.0436  L 263.372 80.0436  L 263.372 82.0865  L 260.372 82.0865  L 260.372 85.7365  L 263.372 85.7365  L 263.372 92.0865  L 260.372 92.0865  L 260.372 95.7365  L 263.372 95.7365  L 263.372 97.7795  L 297.572 97.7795  L 297.572 95.7365  z" fill="none" stroke="rgb(27, 158, 119)" /><path d="M 258.572 95.7365 L 258.572 92.0865  L 255.572 92.0865  L 255.572 85.7365  L 258.572 85.7365  L 258.572 82.0865  L 255.572 82.0865  L 255.572 80.0436  L 221.372 80.0436  L 221.372 82.0865  L 218.372 82.0865  L 218.372 85.7365  L 221.372 85.7365  L 221.372 92.0865  L 218.372 92.0865  L 218.372 95.7365  L 221.372 95.7365  L 221.372 97.7795  L 255.572 97.7795  L 255.572 95.7365  z" fill="none" stroke="rgb(27, 158, 119)" /><path d="M 213.572 76.2006 L 216.572 76.2006  L 216.572 72.5506  L 213.572 72.5506  L 213.572 66.2006  L 216.572 66.2006  L 216.572 62.5506  L 213.572 62.5506  L 213.572 60.5077  L 163.372 60.5077  L 163.372 62.5506  L 160.372 62.5506  L 160.372 66.2006  L 163.372 66.2006  L 163.372 72.5506  L 160.372 72.5506  L 160.372 76.2006  L 163.372 76.2006  L 163.372 78.2436  L 213.572 78.2436  z" fill="none" stroke="rgb(27, 158, 119)" /><path d="M 314.026 72.3405 L 313.438 72.1884  L 312.894 71.9211  L 312.414 71.5496  L 312.018 71.0892  L 311.724 70.5585  L 311.542 69.9794  L 311.481 69.3756  L 311.542 68.7719  L 311.724 68.1928  L 312.018 67.6621  L 312.414 67.2016  L 312.894 66.8301  L 313.438 66.5629  L 314.026 66.4107  L 314.632 66.38  L 315.232 66.4719  L 315.801 66.6827  L 316.316 67.0037  L 316.756 67.4219  L 317.103 67.92  L 317.342 68.4777  L 317.464 69.0722  L 317.464 69.6791  L 317.342 70.2736  L 317.103 70.8313  L 316.756 71.3294  L 316.316 71.7476  L 315.801 72.0686  L 315.232 72.2794  L 314.632 72.3713  z" fill="none" stroke="rgb(217, 95, 2)" /><path d="M 342.572 76.2006 L 342.572 72.5506  L 339.572 72.5506  L 339.572 66.2006  L 342.572 66.2006  L 342.572 62.5506  L 339.572 62.5506  L 339.572 60.5077  L 305.372 60.5077  L 305.372 62.5506  L 302.372 62.5506  L 302.372 66.2006  L 305.372 66.2006  L 305.372 72.5506  L 302.372 72.5506  L 302.372 76.2006  L 305.372 76.2006  L 305.372 78.2436  L 339.572 78.2436  L 339.572 76.2006  z" fill="none" stroke="rgb(27, 158, 119)" /><path d="M 300.572 76.2006 L 300.572 72.5506  L 297.572 72.5506  L 297.572 66.2006  L 300.572 66.2006  L 300.572 62.5506  L 297.572 62.5506  L 297.572 60.5077  L 263.372 60.5077  L 263.372 62.5506  L 260.372 62.5506  L 260.372 66.2006  L 263.372 66.2006  L 263.372 72.5506  L 260.372 72.5506  L 260.372 76.2006  L 263.372 76.2006  L 263.372 78.2436  L 297.572 78.2436  L 297.572 76.2006  z" fill="none" stroke="rgb(27, 158, 119)" /><path d="M 258.572 76.2006 L 258.572 72.5506  L 255.572 72.5506  L 255.572 66.2006  L 258.572 66.2006  L 258.572 62.5506  L 255.572 62.5506  L 255.572 60.5077  L 221.372 60.5077  L 221.372 62.5506  L 218.372 62.5506  L 218.372 66.2006  L 221.372 66.2006  L 221.372 72.5506  L 218.372 72.5506  L 218.372 76.2006  L 221.372 76.2006  L 221.372 78.2436  L 255.572 78.2436  L 255.572 76.2006  z" fill="none" stroke="rgb(27, 158, 119)" /><path d="M 314.026 52.8046 L 313.438 52.6525  L 312.894 52.3852  L 312.414 52.0138  L 312.018 51.5533  L 311.724 51.0226  L 311.542 50.4435  L 311.481 49.8397  L 311.542 49.236  L 311.724 48.6569  L 312.018 48.1262  L 312.414 47.6657  L 312.894 47.2943  L 313.438 47.027  L 314.026 46.8749  L 314.632 46.8441  L 315.232 46.936  L 315.801 47.1468  L 316.316 47.4678  L 316.756 47.886  L 317.103 48.3841  L 317.342 48.9418  L 317.464 49.5363  L 317.464 50.1432  L 317.342 50.7377  L 317.103 51.2954  L 316.756 51.7935  L 316.316 52.2117  L 315.801 52.5327  L 315.232 52.7435  L 314.632 52.8354  z" fill="none" stroke="rgb(217, 95, 2)" /><path d="M 213.572 56.6647 L 216.572 56.6647  L 216.572 53.0147  L 213.572 53.0147  L 213.572 46.6647  L 216.572 46.6647  L 216.572 43.0147  L 213.572 43.0147  L 213.572 40.9718  L 163.372 40.9718  L 163.372 43.0147  L 160.372 43.0147  L 160.372 46.6647  L 163.372 46.6647  L 163.372 53.0147  L 160.372 53.0147  L 160.372 56.6647  L 163.372 56.6647  L 163.372 58.7077  L 213.572 58.7077  z" fill="none" stroke="rgb(27, 158, 119)" /><path d="M 342.572 56.6647 L 342.572 53.0147  L 339.572 53.0147  L 339.572 46.6647  L 342.572 46.6647  L 342.572 43.0147  L 339.572 43.0147  L 339.572 40.9718  L 305.372 40.9718  L 305.372 43.0147  L 302.372 43.0147  L 302.372 46.6647  L 305.372 46.6647  L 305.372 53.0147  L 302.372 53.0147  L 302.372 56.6647  L 305.372 56.6647  L 305.372 58.7077  L 339.572 58.7077  L 339.572 56.6647  z" fill="none" stroke="rgb(27, 158, 119)" /><path d="M 300.572 56.6647 L 300.572 53.0147  L 297.572 53.0147  L 297.572 46.6647  L 300.572 46.6647  L 300.572 43.0147  L 297.572 43.0147  L 297.572 40.9718  L 263.372 40.9718  L 263.372 43.0147  L 260.372 43.0147  L 260.372 46.6647  L 263.372 46.6647  L 263.372 53.0147  L 260.372 53.0147  L 260.372 56.6647  L 263.372 56.6647  L 263.372 58.7077  L 297.572 58.7077  L 297.572 56.6647  z" fill="none" stroke="rgb(27, 158, 119)" /><path d="M 258.572 56.6647 L 258.572 53.0147  L 255.572 53.0147  L 255.572 46.6647  L 258.572 46.6647  L 258.572 43.0147  L 255.572 43.0147  L 255.572 40.9718  L 221.372 40.9718  L 221.372 43.0147  L 218.372 43.0147  L 218.372 46.6647  L 221.372 46.6647  L 221.372 53.0147  L 218.372 53.0147  L 218.372 56.6647  L 221.372 56.6647  L 221.372 58.7077  L 255.572 58.7077  L 255.572 56.6647  z" fill="none" stroke="rgb(27, 158, 119)" /><path d="M 314.026 33.2687 L 313.438 33.1166  L 312.894 32.8493  L 312.414 32.4779  L 312.018 32.0174  L 311.724 31.4867  L 311.542 30.9076  L 311.481 30.3038  L 311.542 29.7001  L 311.724 29.121  L 312.018 28.5903  L 312.414 28.1298  L 312.894 27.7584  L 313.438 27.4911  L 314.026 27.339  L 314.632 27.3082  L 315.232 27.4001  L 315.801 27.6109  L 316.316 27.9319  L 316.756 28.3501  L 317.103 28.8482  L 317.342 29.4059  L 317.464 30.0004  L 317.464 30.6073  L 317.342 31.2018  L 317.103 31.7595  L 316.756 32.2576  L 316.316 32.6758  L 315.801 32.9968  L 315.232 33.2076  L 314.632 33.2995  z" fill="none" stroke="rgb(217, 95, 2)" /><path d="M 342.572 37.1288 L 342.572 33.4788  L 339.572 33.4788  L 339.572 27.1288  L 342.572 27.1288  L 342.572 23.4788  L 339.572 23.4788  L 339.572 21.4359  L 305.372 21.4359  L 305.372 23.4788  L 302.372 23.4788  L 302.372 27.1288  L 305.372 27.1288  L 305.372 33.4788  L 302.372 33.4788  L 302.372 37.1288  L 305.372 37.1288  L 305.372 39.1718  L 339.572 39.1718  L 339.572 37.1288  z" fill="none" stroke="rgb(27, 158, 119)" /><path d="M 300.572 37.1288 L 300.572 33.4788  L 297.572 33.4788  L 297.572 27.1288  L 300.572 27.1288  L 300.572 23.4788  L 297.572 23.4788  L 297.572 21.4359  L 263.372 21.4359  L 263.372 23.4788  L 260.372 23.4788  L 260.372 27.1288  L 263.372 27.1288  L 263.372 33.4788  L 260.372 33.4788  L 260.372 37.1288  L 263.372 37.1288  L 263.372 39.1718  L 297.572 39.1718  L 297.572 37.1288  z" fill="none" stroke="rgb(27, 158, 119)" /><path d="M 258.572 37.1288 L 258.572 33.4788  L 255.572 33.4788  L 255.572 27.1288  L 258.572 27.1288  L 258.572 23.4788  L 255.572 23.4788  L 255.572 21.4359  L 221.372 21.4359  L 221.372 23.4788  L 218.372 23.4788  L 218.372 27.1288  L 221.372 27.1288  L 221.372 33.4788  L 218.372 33.4788  L 218.372 37.1288  L 221.372 37.1288  L 221.372 39.1718  L 255.572 39.1718  L 255.572 37.1288  z" fill="none" stroke="rgb(27, 158, 119)" /><path d="M 216.572 37.1288 L 216.572 33.4788  L 213.572 33.4788  L 213.572 27.1288  L 216.572 27.1288  L 216.572 23.4788  L 213.572 23.4788  L 213.572 21.4359  L 163.372 21.4359  L 163.372 23.4788  L 160.372 23.4788  L 160.372 27.1288  L 163.372 27.1288  L 163.372 33.4788  L 160.372 33.4788  L 160.372 37.1288  L 163.372 37.1288  L 163.372 39.1718  L 213.572 39.1718  L 213.572 37.1288  z" fill="none" stroke="rgb(27, 158, 119)" /><path d="M 314.026 13.7328 L 313.438 13.5807  L 312.894 13.3134  L 312.414 12.942  L 312.018 12.4815  L 311.724 11.9508  L 311.542 11.3717  L 311.481 10.7679  L 311.542 10.1642  L 311.724 9.58509  L 312.018 9.05444  L 312.414 8.59394  L 312.894 8.22245  L 313.438 7.95518  L 314.026 7.80305  L 314.632 7.77231  L 315.232 7.86422  L 315.801 8.075  L 316.316 8.39603  L 316.756 8.81417  L 317.103 9.31229  L 317.342 9.87001  L 317.464 10.4645  L 317.464 11.0714  L 317.342 11.6659  L 317.103 12.2236  L 316.756 12.7217  L 316.316 13.1399  L 315.801 13.4609  L 315.232 13.6717  L 314.632 13.7636  z" fill="none" stroke="rgb(217, 95, 2)" /><path d="M 342.572 17.5929 L 342.572 13.9429  L 339.572 13.9429  L 339.572 7.59295  L 342.572 7.59295  L 342.572 3.94295  L 339.572 3.94295  L 339.572 1.9  L 305.372 1.9  L 305.372 3.94295  L 302.372 3.94295  L 302.372 7.59295  L 305.372 7.59295  L 305.372 13.9429  L 302.372 13.9429  L 302.372 17.5929  L 305.372 17.5929  L 305.372 19.6359  L 339.572 19.6359  L 339.572 17.5929  z" fill="none" stroke="rgb(27, 158, 119)" /><path d="M 300.572 17.5929 L 300.572 13.9429  L 297.572 13.9429  L 297.572 7.59295  L 300.572 7.59295  L 300.572 3.94295  L 297.572 3.94295  L 297.572 1.9  L 263.372 1.9  L 263.372 3.94295  L 260.372 3.94295  L 260.372 7.59295  L 263.372 7.59295  L 263.372 13.9429  L 260.372 13.9429  L 260.372 17.5929  L 263.372 17.5929  L 263.372 19.6359  L 297.572 19.6359  L 297.572 17.5929  z" fill="none" stroke="rgb(27, 158, 119)" /><path d="M 258.572 17.5929 L 258.572 13.9429  L 255.572 13.9429  L 255.572 7.59295  L 258.572 7.59295  L 258.572 3.94295  L 255.572 3.94295  L 255.572 1.9  L 221.372 1.9  L 221.372 3.94295  L 218.372 3.94295  L 218.372 7.59295  L 221.372 7.59295  L 221.372 13.9429  L 218.372 13.9429  L 218.372 17.5929  L 221.372 17.5929  L 221.372 19.6359  L 255.572 19.6359  L 255.572 17.5929  z" fill="none" stroke="rgb(27, 158, 119)" /><path d="M 213.572 17.5929 L 216.572 17.5929  L 216.572 13.9429  L 213.572 13.9429  L 213.572 7.59295  L 216.572 7.59295  L 216.572 3.94295  L 213.572 3.94295  L 213.572 1.9  L 163.372 1.9  L 163.372 3.94295  L 160.372 3.94295  L 160.372 7.59295  L 163.372 7.59295  L 163.372 13.9429  L 160.372 13.9429  L 160.372 17.5929  L 163.372 17.5929  L 163.372 19.6359  L 213.572 19.6359  z" fill="none" stroke="rgb(27, 158, 119)" /></g></svg>