<?xml version="1.0" encoding="utf-8" ?>
<svg baseProfile="full" height="594.0974596215566mm" version="1.1" viewBox="-3.1,-3.1,416.31469970012114,594.0974596215566" width="416.31469970012114mm" xmlns="http://www.w3.org/2000/svg" xmlns:ev="http://www.w3.org/2001/xml-events" xmlns:xlink="http://www.w3.org/1999/xlink"><defs /><g><path d="M 173.569 465.9 L 173.569 456.9  L 162.514 456.9  L 162.514 465.9  L 151.859 465.9  L 151.859 456.9  L 140.805 456.9  L 140.805 465.9  L 130.15 465.9  L 130.15 456.9  L 119.095 456.9  L 119.095 465.9  L 108.44 465.9  L 108.44 456.9  L 97.3848 456.9  L 97.3848 465.9  L 86.7299 465.9  L 86.7299 456.9  L 75.675 456.9  L 75.675 465.9  L 65.02 465.9  L 65.02 456.9  L 53.9651 456.9  L 53.9651 465.9  L 43.3102 465.9  L 43.3102 456.9  L 32.2553 456.9  L 32.2553 465.9  L 21.6003 465.9  L 21.6003 456.9  L 10.5454 456.9  L 10.5454 465.9  L 1.9 465.9  L 1.9 546.1  L 182.215 546.1  L 182.215 465.9  z" fill="none" stroke="rgb(27, 158, 119)" /><path d="M 173.569 374.9 L 173.569 365.9  L 162.514 365.9  L 162.514 374.9  L 151.859 374.9  L 151.859 365.9  L 140.805 365.9  L 140.805 374.9  L 130.15 374.9  L 130.15 365.9  L 119.095 365.9  L 119.095 374.9  L 108.44 374.9  L 108.44 365.9  L 97.3848 365.9  L 97.3848 374.9  L 86.7299 374.9  L 86.7299 365.9  L 75.675 365.9  L 75.675 374.9  L 65.02 374.9  L 65.02 365.9  L 53.9651 365.9  L 53.9651 374.9  L 43.3102 374.9  L 43.3102 365.9  L 32.2553 365.9  L 32.2553 374.9  L 21.6003 374.9  L 21.6003 365.9  L 10.5454 365.9  L 10.5454 374.9  L 1.9 374.9  L 1.9 455.1  L 182.215 455.1  L 182.215 374.9  z" fill="none" stroke="rgb(27, 158, 119)" /><path d="M 173.569 283.9 L 173.569 274.9  L 162.514 274.9  L 162.514 283.9  L 151.859 283.9  L 151.859 274.9  L 140.805 274.9  L 140.805 283.9  L 130.15 283.9  L 130.15 274.9  L 119.095 274.9  L 119.095 283.9  L 108.44 283.9  L 108.44 274.9  L 97.3848 274.9  L 97.3848 283.9  L 86.7299 283.9  L 86.7299 274.9  L 75.675 274.9  L 75.675 283.9  L 65.02 283.9  L 65.02 274.9  L 53.9651 274.9  L 53.9651 283.9  L 43.3102 283.9  L 43.3102 274.9  L 32.2553 274.9  L 32.2553 283.9  L 21.6003 283.9  L 21.6003 274.9  L 10.5454 274.9  L 10.5454 283.9  L 1.9 283.9  L 1.9 364.1  L 182.215 364.1  L 182.215 283.9  z" fill="none" stroke="rgb(27, 158, 119)" /><path d="M 173.569 192.9 L 173.569 183.9  L 162.514 183.9  L 162.514 192.9  L 151.859 192.9  L 151.859 183.9  L 140.805 183.9  L 140.805 192.9  L 130.15 192.9  L 130.15 183.9  L 119.095 183.9  L 119.095 192.9  L 108.44 192.9  L 108.44 183.9  L 97.3848 183.9  L 97.3848 192.9  L 86.7299 192.9  L 86.7299 183.9  L 75.675 183.9  L 75.675 192.9  L 65.02 192.9  L 65.02 183.9  L 53.9651 183.9  L 53.9651 192.9  L 43.3102 192.9  L 43.3102 183.9  L 32.2553 183.9  L 32.2553 192.9  L 21.6003 192.9  L 21.6003 183.9  L 10.5454 183.9  L 10.5454 192.9  L 1.9 192.9  L 1.9 273.1  L 182.215 273.1  L 182.215 192.9  z" fill="none" stroke="rgb(27, 158, 119)" /><path d="M 173.569 101.9 L 173.569 92.9  L 162.514 92.9  L 162.514 101.9  L 151.859 101.9  L 151.859 92.9  L 140.805 92.9  L 140.805 101.9  L 130.15 101.9  L 130.15 92.9  L 119.095 92.9  L 119.095 101.9  L 108.44 101.9  L 108.44 92.9  L 97.3848 92.9  L 97.3848 101.9  L 86.7299 101.9  L 86.7299 92.9  L 75.675 92.9  L 75.675 101.9  L 65.02 101.9  L 65.02 92.9  L 53.9651 92.9  L 53.9651 101.9  L 43.3102 101.9  L 43.3102 92.9  L 32.2553 92.9  L 32.2553 101.9  L 21.6003 101.9  L 21.6003 92.9  L 10.5454 92.9  L 10.5454 101.9  L 1.9 101.9  L 1.9 182.1  L 182.215 182.1  L 182.215 101.9  z" fill="none" stroke="rgb(27, 158, 119)" /><path d="M 173.569 10.9 L 173.569 1.9  L 162.514 1.9  L 162.514 10.9  L 151.859 10.9  L 151.859 1.9  L 140.805 1.9  L 140.805 10.9  L 130.15 10.9  L 130.15 1.9  L 119.095 1.9  L 119.095 10.9  L 108.44 10.9  L 108.44 1.9  L 97.3848 1.9  L 97.3848 10.9  L 86.7299 10.9  L 86.7299 1.9  L 75.675 1.9  L 75.675 10.9  L 65.02 10.9  L 65.02 1.9  L 53.9651 1.9  L 53.9651 10.9  L 43.3102 10.9  L 43.3102 1.9  L 32.2553 1.9  L 32.2553 10.9  L 21.6003 10.9  L 21.6003 1.9  L 10.5454 1.9  L 10.5454 10.9  L 1.9 10.9  L 1.9 91.1  L 182.215 91.1  L 182.215 10.9  z" fill="none" stroke="rgb(27, 158, 119)" /></g><g><path d="M 337.668 578.144 L 337.081 577.992  L 336.536 577.725  L 336.056 577.354  L 335.661 576.893  L 335.366 576.362  L 335.185 575.783  L 335.123 575.18  L 335.185 574.576  L 335.366 573.997  L 335.661 573.466  L 336.056 573.006  L 336.536 572.634  L 337.081 572.367  L 337.668 572.215  L 338.275 572.184  L 338.874 572.276  L 339.444 572.487  L 339.959 572.808  L 340.399 573.226  L 340.745 573.724  L 340.985 574.282  L 341.107 574.876  L 341.107 575.483  L 340.985 576.077  L 340.745 576.635  L 340.399 577.133  L 339.959 577.551  L 339.444 577.872  L 338.874 578.083  L 338.275 578.175  z" fill="none" stroke="rgb(217, 95, 2)" /><path d="M 295.668 578.144 L 295.081 577.992  L 294.536 577.725  L 294.056 577.354  L 293.661 576.893  L 293.366 576.362  L 293.185 575.783  L 293.123 575.18  L 293.185 574.576  L 293.366 573.997  L 293.661 573.466  L 294.056 573.006  L 294.536 572.634  L 295.081 572.367  L 295.668 572.215  L 296.275 572.184  L 296.874 572.276  L 297.444 572.487  L 297.959 572.808  L 298.399 573.226  L 298.745 573.724  L 298.985 574.282  L 299.107 574.876  L 299.107 575.483  L 298.985 576.077  L 298.745 576.635  L 298.399 577.133  L 297.959 577.551  L 297.444 577.872  L 296.874 578.083  L 296.275 578.175  z" fill="none" stroke="rgb(217, 95, 2)" /><path d="M 366.215 582.005 L 366.215 578.355  L 363.215 578.355  L 363.215 572.005  L 366.215 572.005  L 366.215 568.355  L 363.215 568.355  L 363.215 564.362  L 329.015 564.362  L 329.015 568.355  L 326.015 568.355  L 326.015 572.005  L 329.015 572.005  L 329.015 578.355  L 326.015 578.355  L 326.015 582.005  L 329.015 582.005  L 329.015 585.997  L 363.215 585.997  L 363.215 582.005  z" fill="none" stroke="rgb(27, 158, 119)" /><path d="M 324.215 582.005 L 324.215 578.355  L 321.215 578.355  L 321.215 572.005  L 324.215 572.005  L 324.215 568.355  L 321.215 568.355  L 321.215 564.362  L 287.015 564.362  L 287.015 568.355  L 284.015 568.355  L 284.015 572.005  L 287.015 572.005  L 287.015 578.355  L 284.015 578.355  L 284.015 582.005  L 287.015 582.005  L 287.015 585.997  L 321.215 585.997  L 321.215 582.005  z" fill="none" stroke="rgb(27, 158, 119)" /><path d="M 282.215 582.005 L 282.215 578.355  L 279.215 578.355  L 279.215 572.005  L 282.215 572.005  L 282.215 568.355  L 279.215 568.355  L 279.215 564.362  L 245.015 564.362  L 245.015 568.355  L 242.015 568.355  L 242.015 572.005  L 245.015 572.005  L 245.015 578.355  L 242.015 578.355  L 242.015 582.005  L 245.015 582.005  L 245.015 585.997  L 279.215 585.997  L 279.215 582.005  z" fill="none" stroke="rgb(27, 158, 119)" /><path d="M 224.215 582.005 L 224.215 578.355  L 221.215 578.355  L 221.215 572.005  L 224.215 572.005  L 224.215 568.355  L 221.215 568.355  L 221.215 564.362  L 187.015 564.362  L 187.015 568.355  L 184.015 568.355  L 184.015 572.005  L 187.015 572.005  L 187.015 578.355  L 184.015 578.355  L 184.015 582.005  L 187.015 582.005  L 187.015 585.997  L 221.215 585.997  L 221.215 582.005  z" fill="none" stroke="rgb(27, 158, 119)" /><path d="M 337.668 554.709 L 337.081 554.556  L 336.536 554.289  L 336.056 553.918  L 335.661 553.457  L 335.366 552.926  L 335.185 552.347  L 335.123 551.744  L 335.185 551.14  L 335.366 550.561  L 335.661 550.03  L 336.056 549.57  L 336.536 549.198  L 337.081 548.931  L 337.668 548.779  L 338.275 548.748  L 338.874 548.84  L 339.444 549.051  L 339.959 549.372  L 340.399 549.79  L 340.745 550.288  L 340.985 550.846  L 341.107 551.44  L 341.107 552.047  L 340.985 552.642  L 340.745 553.199  L 340.399 553.697  L 339.959 554.116  L 339.444 554.437  L 338.874 554.647  L 338.275 554.739  z" fill="none" stroke="rgb(217, 95, 2)" /><path d="M 295.668 554.709 L 295.081 554.556  L 294.536 554.289  L 294.056 553.918  L 293.661 553.457  L 293.366 552.926  L 293.185 552.347  L 293.123 551.744  L 293.185 551.14  L 293.366 550.561  L 293.661 550.03  L 294.056 549.57  L 294.536 549.198  L 295.081 548.931  L 295.668 548.779  L 296.275 548.748  L 296.874 548.84  L 297.444 549.051  L 297.959 549.372  L 298.399 549.79  L 298.745 550.288  L 298.985 550.846  L 299.107 551.44  L 299.107 552.047  L 298.985 552.642  L 298.745 553.199  L 298.399 553.697  L 297.959 554.116  L 297.444 554.437  L 296.874 554.647  L 296.275 554.739  z" fill="none" stroke="rgb(217, 95, 2)" /><path d="M 366.215 558.569 L 366.215 554.919  L 363.215 554.919  L 363.215 548.569  L 366.215 548.569  L 366.215 544.919  L 363.215 544.919  L 363.215 540.926  L 329.015 540.926  L 329.015 544.919  L 326.015 544.919  L 326.015 548.569  L 329.015 548.569  L 329.015 554.919  L 326.015 554.919  L 326.015 558.569  L 329.015 558.569  L 329.015 562.562  L 363.215 562.562  L 363.215 558.569  z" fill="none" stroke="rgb(27, 158, 119)" /><path d="M 324.215 558.569 L 324.215 554.919  L 321.215 554.919  L 321.215 548.569  L 324.215 548.569  L 324.215 544.919  L 321.215 544.919  L 321.215 540.926  L 287.015 540.926  L 287.015 544.919  L 284.015 544.919  L 284.015 548.569  L 287.015 548.569  L 287.015 554.919  L 284.015 554.919  L 284.015 558.569  L 287.015 558.569  L 287.015 562.562  L 321.215 562.562  L 321.215 558.569  z" fill="none" stroke="rgb(27, 158, 119)" /><path d="M 282.215 558.569 L 282.215 554.919  L 279.215 554.919  L 279.215 548.569  L 282.215 548.569  L 282.215 544.919  L 279.215 544.919  L 279.215 540.926  L 245.015 540.926  L 245.015 544.919  L 242.015 544.919  L 242.015 548.569  L 245.015 548.569  L 245.015 554.919  L 242.015 554.919  L 242.015 558.569  L 245.015 558.569  L 245.015 562.562  L 279.215 562.562  L 279.215 558.569  z" fill="none" stroke="rgb(27, 158, 119)" /><path d="M 224.215 558.569 L 224.215 554.919  L 221.215 554.919  L 221.215 548.569  L 224.215 548.569  L 224.215 544.919  L 221.215 544.919  L 221.215 540.926  L 187.015 540.926  L 187.015 544.919  L 184.015 544.919  L 184.015 548.569  L 187.015 548.569  L 187.015 554.919  L 184.015 554.919  L 184.015 558.569  L 187.015 558.569  L 187.015 562.562  L 221.215 562.562  L 221.215 558.569  z" fill="none" stroke="rgb(27, 158, 119)" /><path d="M 337.668 531.273 L 337.081 531.12  L 336.536 530.853  L 336.056 530.482  L 335.661 530.021  L 335.366 529.491  L 335.185 528.912  L 335.123 528.308  L 335.185 527.704  L 335.366 527.125  L 335.661 526.594  L 336.056 526.134  L 336.536 525.762  L 337.081 525.495  L 337.668 525.343  L 338.275 525.312  L 338.874 525.404  L 339.444 525.615  L 339.959 525.936  L 340.399 526.354  L 340.745 526.852  L 340.985 527.41  L 341.107 528.004  L 341.107 528.611  L 340.985 529.206  L 340.745 529.763  L 340.399 530.261  L 339.959 530.68  L 339.444 531.001  L 338.874 531.211  L 338.275 531.303  z" fill="none" stroke="rgb(217, 95, 2)" /><path d="M 295.668 531.273 L 295.081 531.12  L 294.536 530.853  L 294.056 530.482  L 293.661 530.021  L 293.366 529.491  L 293.185 528.912  L 293.123 528.308  L 293.185 527.704  L 293.366 527.125  L 293.661 526.594  L 294.056 526.134  L 294.536 525.762  L 295.081 525.495  L 295.668 525.343  L 296.275 525.312  L 296.874 525.404  L 297.444 525.615  L 297.959 525.936  L 298.399 526.354  L 298.745 526.852  L 298.985 527.41  L 299.107 528.004  L 299.107 528.611  L 298.985 529.206  L 298.745 529.763  L 298.399 530.261  L 297.959 530.68  L 297.444 531.001  L 296.874 531.211  L 296.275 531.303  z" fill="none" stroke="rgb(217, 95, 2)" /><path d="M 366.215 535.133 L 366.215 531.483  L 363.215 531.483  L 363.215 525.133  L 366.215 525.133  L 366.215 521.483  L 363.215 521.483  L 363.215 517.49  L 329.015 517.49  L 329.015 521.483  L 326.015 521.483  L 326.015 525.133  L 329.015 525.133  L 329.015 531.483  L 326.015 531.483  L 326.015 535.133  L 329.015 535.133  L 329.015 539.126  L 363.215 539.126  L 363.215 535.133  z" fill="none" stroke="rgb(27, 158, 119)" /><path d="M 324.215 535.133 L 324.215 531.483  L 321.215 531.483  L 321.215 525.133  L 324.215 525.133  L 324.215 521.483  L 321.215 521.483  L 321.215 517.49  L 287.015 517.49  L 287.015 521.483  L 284.015 521.483  L 284.015 525.133  L 287.015 525.133  L 287.015 531.483  L 284.015 531.483  L 284.015 535.133  L 287.015 535.133  L 287.015 539.126  L 321.215 539.126  L 321.215 535.133  z" fill="none" stroke="rgb(27, 158, 119)" /><path d="M 282.215 535.133 L 282.215 531.483  L 279.215 531.483  L 279.215 525.133  L 282.215 525.133  L 282.215 521.483  L 279.215 521.483  L 279.215 517.49  L 245.015 517.49  L 245.015 521.483  L 242.015 521.483  L 242.015 525.133  L 245.015 525.133  L 245.015 531.483  L 242.015 531.483  L 242.015 535.133  L 245.015 535.133  L 245.015 539.126  L 279.215 539.126  L 279.215 535.133  z" fill="none" stroke="rgb(27, 158, 119)" /><path d="M 224.215 535.133 L 224.215 531.483  L 221.215 531.483  L 221.215 525.133  L 224.215 525.133  L 224.215 521.483  L 221.215 521.483  L 221.215 517.49  L 187.015 517.49  L 187.015 521.483  L 184.015 521.483  L 184.015 525.133  L 187.015 525.133  L 187.015 531.483  L 184.015 531.483  L 184.015 535.133  L 187.015 535.133  L 187.015 539.126  L 221.215 539.126  L 221.215 535.133  z" fill="none" stroke="rgb(27, 158, 119)" /><path d="M 337.668 507.837 L 337.081 507.685  L 336.536 507.417  L 336.056 507.046  L 335.661 506.585  L 335.366 506.055  L 335.185 505.476  L 335.123 504.872  L 335.185 504.268  L 335.366 503.689  L 335.661 503.158  L 336.056 502.698  L 336.536 502.326  L 337.081 502.059  L 337.668 501.907  L 338.275 501.876  L 338.874 501.968  L 339.444 502.179  L 339.959 502.5  L 340.399 502.918  L 340.745 503.416  L 340.985 503.974  L 341.107 504.568  L 341.107 505.175  L 340.985 505.77  L 340.745 506.327  L 340.399 506.826  L 339.959 507.244  L 339.444 507.565  L 338.874 507.776  L 338.275 507.867  z" fill="none" stroke="rgb(217, 95, 2)" /><path d="M 295.668 507.837 L 295.081 507.685  L 294.536 507.417  L 294.056 507.046  L 293.661 506.585  L 293.366 506.055  L 293.185 505.476  L 293.123 504.872  L 293.185 504.268  L 293.366 503.689  L 293.661 503.158  L 294.056 502.698  L 294.536 502.326  L 295.081 502.059  L 295.668 501.907  L 296.275 501.876  L 296.874 501.968  L 297.444 502.179  L 297.959 502.5  L 298.399 502.918  L 298.745 503.416  L 298.985 503.974  L 299.107 504.568  L 299.107 505.175  L 298.985 505.77  L 298.745 506.327  L 298.399 506.826  L 297.959 507.244  L 297.444 507.565  L 296.874 507.776  L 296.275 507.867  z" fill="none" stroke="rgb(217, 95, 2)" /><path d="M 366.215 511.697 L 366.215 508.047  L 363.215 508.047  L 363.215 501.697  L 366.215 501.697  L 366.215 498.047  L 363.215 498.047  L 363.215 494.054  L 329.015 494.054  L 329.015 498.047  L 326.015 498.047  L 326.015 501.697  L 329.015 501.697  L 329.015 508.047  L 326.015 508.047  L 326.015 511.697  L 329.015 511.697  L 329.015 515.69  L 363.215 515.69  L 363.215 511.697  z" fill="none" stroke="rgb(27, 158, 119)" /><path d="M 324.215 511.697 L 324.215 508.047  L 321.215 508.047  L 321.215 501.697  L 324.215 501.697  L 324.215 498.047  L 321.215 498.047  L 321.215 494.054  L 287.015 494.054  L 287.015 498.047  L 284.015 498.047  L 284.015 501.697  L 287.015 501.697  L 287.015 508.047  L 284.015 508.047  L 284.015 511.697  L 287.015 511.697  L 287.015 515.69  L 321.215 515.69  L 321.215 511.697  z" fill="none" stroke="rgb(27, 158, 119)" /><path d="M 282.215 511.697 L 282.215 508.047  L 279.215 508.047  L 279.215 501.697  L 282.215 501.697  L 282.215 498.047  L 279.215 498.047  L 279.215 494.054  L 245.015 494.054  L 245.015 498.047  L 242.015 498.047  L 242.015 501.697  L 245.015 501.697  L 245.015 508.047  L 242.015 508.047  L 242.015 511.697  L 245.015 511.697  L 245.015 515.69  L 279.215 515.69  L 279.215 511.697  z" fill="none" stroke="rgb(27, 158, 119)" /><path d="M 224.215 511.697 L 224.215 508.047  L 221.215 508.047  L 221.215 501.697  L 224.215 501.697  L 224.215 498.047  L 221.215 498.047  L 221.215 494.054  L 187.015 494.054  L 187.015 498.047  L 184.015 498.047  L 184.015 501.697  L 187.015 501.697  L 187.015 508.047  L 184.015 508.047  L 184.015 511.697  L 187.015 511.697  L 187.015 515.69  L 221.215 515.69  L 221.215 511.697  z" fill="none" stroke="rgb(27, 158, 119)" /><path d="M 337.668 484.401 L 337.081 484.249  L 336.536 483.981  L 336.056 483.61  L 335.661 483.149  L 335.366 482.619  L 335.185 482.04  L 335.123 481.436  L 335.185 480.832  L 335.366 480.253  L 335.661 479.722  L 336.056 479.262  L 336.536 478.89  L 337.081 478.623  L 337.668 478.471  L 338.275 478.44  L 338.874 478.532  L 339.444 478.743  L 339.959 479.064  L 340.399 479.482  L 340.745 479.98  L 340.985 480.538  L 341.107 481.132  L 341.107 481.739  L 340.985 482.334  L 340.745 482.892  L 340.399 483.39  L 339.959 483.808  L 339.444 484.129  L 338.874 484.34  L 338.275 484.432  z" fill="none" stroke="rgb(217, 95, 2)" /><path d="M 295.668 484.401 L 295.081 484.249  L 294.536 483.981  L 294.056 483.61  L 293.661 483.149  L 293.366 482.619  L 293.185 482.04  L 293.123 481.436  L 293.185 480.832  L 293.366 480.253  L 293.661 479.722  L 294.056 479.262  L 294.536 478.89  L 295.081 478.623  L 295.668 478.471  L 296.275 478.44  L 296.874 478.532  L 297.444 478.743  L 297.959 479.064  L 298.399 479.482  L 298.745 479.98  L 298.985 480.538  L 299.107 481.132  L 299.107 481.739  L 298.985 482.334  L 298.745 482.892  L 298.399 483.39  L 297.959 483.808  L 297.444 484.129  L 296.874 484.34  L 296.275 484.432  z" fill="none" stroke="rgb(217, 95, 2)" /><path d="M 363.215 488.261 L 366.215 488.261  L 366.215 484.611  L 363.215 484.611  L 363.215 478.261  L 366.215 478.261  L 366.215 474.611  L 363.215 474.611  L 363.215 470.618  L 329.015 470.618  L 329.015 474.611  L 326.015 474.611  L 326.015 478.261  L 329.015 478.261  L 329.015 484.611  L 326.015 484.611  L 326.015 488.261  L 329.015 488.261  L 329.015 492.254  L 363.215 492.254  z" fill="none" stroke="rgb(27, 158, 119)" /><path d="M 321.215 488.261 L 324.215 488.261  L 324.215 484.611  L 321.215 484.611  L 321.215 478.261  L 324.215 478.261  L 324.215 474.611  L 321.215 474.611  L 321.215 470.618  L 287.015 470.618  L 287.015 474.611  L 284.015 474.611  L 284.015 478.261  L 287.015 478.261  L 287.015 484.611  L 284.015 484.611  L 284.015 488.261  L 287.015 488.261  L 287.015 492.254  L 321.215 492.254  z" fill="none" stroke="rgb(27, 158, 119)" /><path d="M 279.215 488.261 L 282.215 488.261  L 282.215 484.611  L 279.215 484.611  L 279.215 478.261  L 282.215 478.261  L 282.215 474.611  L 279.215 474.611  L 279.215 470.618  L 245.015 470.618  L 245.015 474.611  L 242.015 474.611  L 242.015 478.261  L 245.015 478.261  L 245.015 484.611  L 242.015 484.611  L 242.015 488.261  L 245.015 488.261  L 245.015 492.254  L 279.215 492.254  z" fill="none" stroke="rgb(27, 158, 119)" /><path d="M 221.215 488.261 L 224.215 488.261  L 224.215 484.611  L 221.215 484.611  L 221.215 478.261  L 224.215 478.261  L 224.215 474.611  L 221.215 474.611  L 221.215 470.618  L 187.015 470.618  L 187.015 474.611  L 184.015 474.611  L 184.015 478.261  L 187.015 478.261  L 187.015 484.611  L 184.015 484.611  L 184.015 488.261  L 187.015 488.261  L 187.015 492.254  L 221.215 492.254  z" fill="none" stroke="rgb(27, 158, 119)" /><path d="M 337.668 460.965 L 337.081 460.813  L 336.536 460.546  L 336.056 460.174  L 335.661 459.714  L 335.366 459.183  L 335.185 458.604  L 335.123 458  L 335.185 457.396  L 335.366 456.817  L 335.661 456.287  L 336.056 455.826  L 336.536 455.455  L 337.081 455.187  L 337.668 455.035  L 338.275 455.004  L 338.874 455.096  L 339.444 455.307  L 339.959 455.628  L 340.399 456.046  L 340.745 456.544  L 340.985 457.102  L 341.107 457.697  L 341.107 458.303  L 340.985 458.898  L 340.745 459.456  L 340.399 459.954  L 339.959 460.372  L 339.444 460.693  L 338.874 460.904  L 338.275 460.996  z" fill="none" stroke="rgb(217, 95, 2)" /><path d="M 363.215 464.825 L 366.215 464.825  L 366.215 461.175  L 363.215 461.175  L 363.215 454.825  L 366.215 454.825  L 366.215 451.175  L 363.215 451.175  L 363.215 447.182  L 329.015 447.182  L 329.015 451.175  L 326.015 451.175  L 326.015 454.825  L 329.015 454.825  L 329.015 461.175  L 326.015 461.175  L 326.015 464.825  L 329.015 464.825  L 329.015 468.818  L 363.215 468.818  z" fill="none" stroke="rgb(27, 158, 119)" /><path d="M 321.215 464.825 L 324.215 464.825  L 324.215 461.175  L 321.215 461.175  L 321.215 454.825  L 324.215 454.825  L 324.215 451.175  L 321.215 451.175  L 321.215 447.182  L 287.015 447.182  L 287.015 451.175  L 284.015 451.175  L 284.015 454.825  L 287.015 454.825  L 287.015 461.175  L 284.015 461.175  L 284.015 464.825  L 287.015 464.825  L 287.015 468.818  L 321.215 468.818  z" fill="none" stroke="rgb(27, 158, 119)" /><path d="M 279.215 464.825 L 282.215 464.825  L 282.215 461.175  L 279.215 461.175  L 279.215 454.825  L 282.215 454.825  L 282.215 451.175  L 279.215 451.175  L 279.215 447.182  L 245.015 447.182  L 245.015 451.175  L 242.015 451.175  L 242.015 454.825  L 245.015 454.825  L 245.015 461.175  L 242.015 461.175  L 242.015 464.825  L 245.015 464.825  L 245.015 468.818  L 279.215 468.818  z" fill="none" stroke="rgb(27, 158, 119)" /><path d="M 221.215 464.825 L 224.215 464.825  L 224.215 461.175  L 221.215 461.175  L 221.215 454.825  L 224.215 454.825  L 224.215 451.175  L 221.215 451.175  L 221.215 447.182  L 187.015 447.182  L 187.015 451.175  L 184.015 451.175  L 184.015 454.825  L 187.015 454.825  L 187.015 461.175  L 184.015 461.175  L 184.015 464.825  L 187.015 464.825  L 187.015 468.818  L 221.215 468.818  z" fill="none" stroke="rgb(27, 158, 119)" /><path d="M 337.668 437.529 L 337.081 437.377  L 336.536 437.11  L 336.056 436.738  L 335.661 436.278  L 335.366 435.747  L 335.185 435.168  L 335.123 434.564  L 335.185 433.96  L 335.366 433.381  L 335.661 432.851  L 336.056 432.39  L 336.536 432.019  L 337.081 431.751  L 337.668 431.599  L 338.275 431.568  L 338.874 431.66  L 339.444 431.871  L 339.959 432.192  L 340.399 432.61  L 340.745 433.108  L 340.985 433.666  L 341.107 434.261  L 341.107 434.868  L 340.985 435.462  L 340.745 436.02  L 340.399 436.518  L 339.959 436.936  L 339.444 437.257  L 338.874 437.468  L 338.275 437.56  z" fill="none" stroke="rgb(217, 95, 2)" /><path d="M 363.215 441.389 L 366.215 441.389  L 366.215 437.739  L 363.215 437.739  L 363.215 431.389  L 366.215 431.389  L 366.215 427.739  L 363.215 427.739  L 363.215 423.746  L 329.015 423.746  L 329.015 427.739  L 326.015 427.739  L 326.015 431.389  L 329.015 431.389  L 329.015 437.739  L 326.015 437.739  L 326.015 441.389  L 329.015 441.389  L 329.015 445.382  L 363.215 445.382  z" fill="none" stroke="rgb(27, 158, 119)" /><path d="M 321.215 441.389 L 324.215 441.389  L 324.215 437.739  L 321.215 437.739  L 321.215 431.389  L 324.215 431.389  L 324.215 427.739  L 321.215 427.739  L 321.215 423.746  L 287.015 423.746  L 287.015 427.739  L 284.015 427.739  L 284.015 431.389  L 287.015 431.389  L 287.015 437.739  L 284.015 437.739  L 284.015 441.389  L 287.015 441.389  L 287.015 445.382  L 321.215 445.382  z" fill="none" stroke="rgb(27, 158, 119)" /><path d="M 279.215 441.389 L 282.215 441.389  L 282.215 437.739  L 279.215 437.739  L 279.215 431.389  L 282.215 431.389  L 282.215 427.739  L 279.215 427.739  L 279.215 423.746  L 245.015 423.746  L 245.015 427.739  L 242.015 427.739  L 242.015 431.389  L 245.015 431.389  L 245.015 437.739  L 242.015 437.739  L 242.015 441.389  L 245.015 441.389  L 245.015 445.382  L 279.215 445.382  z" fill="none" stroke="rgb(27, 158, 119)" /><path d="M 221.215 441.389 L 224.215 441.389  L 224.215 437.739  L 221.215 437.739  L 221.215 431.389  L 224.215 431.389  L 224.215 427.739  L 221.215 427.739  L 221.215 423.746  L 187.015 423.746  L 187.015 427.739  L 184.015 427.739  L 184.015 431.389  L 187.015 431.389  L 187.015 437.739  L 184.015 437.739  L 184.015 441.389  L 187.015 441.389  L 187.015 445.382  L 221.215 445.382  z" fill="none" stroke="rgb(27, 158, 119)" /><path d="M 337.668 414.093 L 337.081 413.941  L 336.536 413.674  L 336.056 413.302  L 335.661 412.842  L 335.366 412.311  L 335.185 411.732  L 335.123 411.128  L 335.185 410.524  L 335.366 409.945  L 335.661 409.415  L 336.056 408.954  L 336.536 408.583  L 337.081 408.315  L 337.668 408.163  L 338.275 408.133  L 338.874 408.224  L 339.444 408.435  L 339.959 408.756  L 340.399 409.174  L 340.745 409.673  L 340.985 410.23  L 341.107 410.825  L 341.107 411.432  L 340.985 412.026  L 340.745 412.584  L 340.399 413.082  L 339.959 413.5  L 339.444 413.821  L 338.874 414.032  L 338.275 414.124  z" fill="none" stroke="rgb(217, 95, 2)" /><path d="M 211.66 414.093 L 211.073 413.941  L 210.528 413.674  L 210.048 413.302  L 209.653 412.842  L 209.358 412.311  L 209.177 411.732  L 209.115 411.128  L 209.177 410.524  L 209.358 409.945  L 209.653 409.415  L 210.048 408.954  L 210.528 408.583  L 211.073 408.315  L 211.66 408.163  L 212.267 408.133  L 212.867 408.224  L 213.436 408.435  L 213.951 408.756  L 214.391 409.174  L 214.737 409.673  L 214.977 410.23  L 215.099 410.825  L 215.099 411.432  L 214.977 412.026  L 214.737 412.584  L 214.391 413.082  L 213.951 413.5  L 213.436 413.821  L 212.867 414.032  L 212.267 414.124  z" fill="none" stroke="rgb(217, 95, 2)" /><path d="M 363.215 417.953 L 366.215 417.953  L 366.215 414.303  L 363.215 414.303  L 363.215 407.953  L 366.215 407.953  L 366.215 404.303  L 363.215 404.303  L 363.215 400.31  L 329.015 400.31  L 329.015 404.303  L 326.015 404.303  L 326.015 407.953  L 329.015 407.953  L 329.015 414.303  L 326.015 414.303  L 326.015 417.953  L 329.015 417.953  L 329.015 421.946  L 363.215 421.946  z" fill="none" stroke="rgb(27, 158, 119)" /><path d="M 321.215 417.953 L 324.215 417.953  L 324.215 414.303  L 321.215 414.303  L 321.215 407.953  L 324.215 407.953  L 324.215 404.303  L 321.215 404.303  L 321.215 400.31  L 287.015 400.31  L 287.015 404.303  L 284.015 404.303  L 284.015 407.953  L 287.015 407.953  L 287.015 414.303  L 284.015 414.303  L 284.015 417.953  L 287.015 417.953  L 287.015 421.946  L 321.215 421.946  z" fill="none" stroke="rgb(27, 158, 119)" /><path d="M 279.215 417.953 L 282.215 417.953  L 282.215 414.303  L 279.215 414.303  L 279.215 407.953  L 282.215 407.953  L 282.215 404.303  L 279.215 404.303  L 279.215 400.31  L 245.015 400.31  L 245.015 404.303  L 242.015 404.303  L 242.015 407.953  L 245.015 407.953  L 245.015 414.303  L 242.015 414.303  L 242.015 417.953  L 245.015 417.953  L 245.015 421.946  L 279.215 421.946  z" fill="none" stroke="rgb(27, 158, 119)" /><path d="M 240.215 417.953 L 240.215 414.303  L 237.215 414.303  L 237.215 407.953  L 240.215 407.953  L 240.215 404.303  L 237.215 404.303  L 237.215 400.31  L 187.015 400.31  L 187.015 404.303  L 184.015 404.303  L 184.015 407.953  L 187.015 407.953  L 187.015 414.303  L 184.015 414.303  L 184.015 417.953  L 187.015 417.953  L 187.015 421.946  L 237.215 421.946  L 237.215 417.953  z" fill="none" stroke="rgb(27, 158, 119)" /><path d="M 337.668 390.657 L 337.081 390.505  L 336.536 390.238  L 336.056 389.866  L 335.661 389.406  L 335.366 388.875  L 335.185 388.296  L 335.123 387.692  L 335.185 387.089  L 335.366 386.509  L 335.661 385.979  L 336.056 385.518  L 336.536 385.147  L 337.081 384.88  L 337.668 384.727  L 338.275 384.697  L 338.874 384.789  L 339.444 384.999  L 339.959 385.32  L 340.399 385.739  L 340.745 386.237  L 340.985 386.794  L 341.107 387.389  L 341.107 387.996  L 340.985 388.59  L 340.745 389.148  L 340.399 389.646  L 339.959 390.064  L 339.444 390.385  L 338.874 390.596  L 338.275 390.688  z" fill="none" stroke="rgb(217, 95, 2)" /><path d="M 211.66 390.657 L 211.073 390.505  L 210.528 390.238  L 210.048 389.866  L 209.653 389.406  L 209.358 388.875  L 209.177 388.296  L 209.115 387.692  L 209.177 387.089  L 209.358 386.509  L 209.653 385.979  L 210.048 385.518  L 210.528 385.147  L 211.073 384.88  L 211.66 384.727  L 212.267 384.697  L 212.867 384.789  L 213.436 384.999  L 213.951 385.32  L 214.391 385.739  L 214.737 386.237  L 214.977 386.794  L 215.099 387.389  L 215.099 387.996  L 214.977 388.59  L 214.737 389.148  L 214.391 389.646  L 213.951 390.064  L 213.436 390.385  L 212.867 390.596  L 212.267 390.688  z" fill="none" stroke="rgb(217, 95, 2)" /><path d="M 363.215 394.517 L 366.215 394.517  L 366.215 390.867  L 363.215 390.867  L 363.215 384.517  L 366.215 384.517  L 366.215 380.867  L 363.215 380.867  L 363.215 376.874  L 329.015 376.874  L 329.015 380.867  L 326.015 380.867  L 326.015 384.517  L 329.015 384.517  L 329.015 390.867  L 326.015 390.867  L 326.015 394.517  L 329.015 394.517  L 329.015 398.51  L 363.215 398.51  z" fill="none" stroke="rgb(27, 158, 119)" /><path d="M 321.215 394.517 L 324.215 394.517  L 324.215 390.867  L 321.215 390.867  L 321.215 384.517  L 324.215 384.517  L 324.215 380.867  L 321.215 380.867  L 321.215 376.874  L 287.015 376.874  L 287.015 380.867  L 284.015 380.867  L 284.015 384.517  L 287.015 384.517  L 287.015 390.867  L 284.015 390.867  L 284.015 394.517  L 287.015 394.517  L 287.015 398.51  L 321.215 398.51  z" fill="none" stroke="rgb(27, 158, 119)" /><path d="M 279.215 394.517 L 282.215 394.517  L 282.215 390.867  L 279.215 390.867  L 279.215 384.517  L 282.215 384.517  L 282.215 380.867  L 279.215 380.867  L 279.215 376.874  L 245.015 376.874  L 245.015 380.867  L 242.015 380.867  L 242.015 384.517  L 245.015 384.517  L 245.015 390.867  L 242.015 390.867  L 242.015 394.517  L 245.015 394.517  L 245.015 398.51  L 279.215 398.51  z" fill="none" stroke="rgb(27, 158, 119)" /><path d="M 240.215 394.517 L 240.215 390.867  L 237.215 390.867  L 237.215 384.517  L 240.215 384.517  L 240.215 380.867  L 237.215 380.867  L 237.215 376.874  L 187.015 376.874  L 187.015 380.867  L 184.015 380.867  L 184.015 384.517  L 187.015 384.517  L 187.015 390.867  L 184.015 390.867  L 184.015 394.517  L 187.015 394.517  L 187.015 398.51  L 237.215 398.51  L 237.215 394.517  z" fill="none" stroke="rgb(27, 158, 119)" /><path d="M 337.668 367.221 L 337.081 367.069  L 336.536 366.802  L 336.056 366.43  L 335.661 365.97  L 335.366 365.439  L 335.185 364.86  L 335.123 364.256  L 335.185 363.653  L 335.366 363.074  L 335.661 362.543  L 336.056 362.082  L 336.536 361.711  L 337.081 361.444  L 337.668 361.292  L 338.275 361.261  L 338.874 361.353  L 339.444 361.563  L 339.959 361.885  L 340.399 362.303  L 340.745 362.801  L 340.985 363.358  L 341.107 363.953  L 341.107 364.56  L 340.985 365.154  L 340.745 365.712  L 340.399 366.21  L 339.959 366.628  L 339.444 366.949  L 338.874 367.16  L 338.275 367.252  z" fill="none" stroke="rgb(217, 95, 2)" /><path d="M 211.66 367.221 L 211.073 367.069  L 210.528 366.802  L 210.048 366.43  L 209.653 365.97  L 209.358 365.439  L 209.177 364.86  L 209.115 364.256  L 209.177 363.653  L 209.358 363.074  L 209.653 362.543  L 210.048 362.082  L 210.528 361.711  L 211.073 361.444  L 211.66 361.292  L 212.267 361.261  L 212.867 361.353  L 213.436 361.563  L 213.951 361.885  L 214.391 362.303  L 214.737 362.801  L 214.977 363.358  L 215.099 363.953  L 215.099 364.56  L 214.977 365.154  L 214.737 365.712  L 214.391 366.21  L 213.951 366.628  L 213.436 366.949  L 212.867 367.16  L 212.267 367.252  z" fill="none" stroke="rgb(217, 95, 2)" /><path d="M 363.215 371.081 L 366.215 371.081  L 366.215 367.431  L 363.215 367.431  L 363.215 361.081  L 366.215 361.081  L 366.215 357.431  L 363.215 357.431  L 363.215 353.438  L 329.015 353.438  L 329.015 357.431  L 326.015 357.431  L 326.015 361.081  L 329.015 361.081  L 329.015 367.431  L 326.015 367.431  L 326.015 371.081  L 329.015 371.081  L 329.015 375.074  L 363.215 375.074  z" fill="none" stroke="rgb(27, 158, 119)" /><path d="M 321.215 371.081 L 324.215 371.081  L 324.215 367.431  L 321.215 367.431  L 321.215 361.081  L 324.215 361.081  L 324.215 357.431  L 321.215 357.431  L 321.215 353.438  L 287.015 353.438  L 287.015 357.431  L 284.015 357.431  L 284.015 361.081  L 287.015 361.081  L 287.015 367.431  L 284.015 367.431  L 284.015 371.081  L 287.015 371.081  L 287.015 375.074  L 321.215 375.074  z" fill="none" stroke="rgb(27, 158, 119)" /><path d="M 279.215 371.081 L 282.215 371.081  L 282.215 367.431  L 279.215 367.431  L 279.215 361.081  L 282.215 361.081  L 282.215 357.431  L 279.215 357.431  L 279.215 353.438  L 245.015 353.438  L 245.015 357.431  L 242.015 357.431  L 242.015 361.081  L 245.015 361.081  L 245.015 367.431  L 242.015 367.431  L 242.015 371.081  L 245.015 371.081  L 245.015 375.074  L 279.215 375.074  z" fill="none" stroke="rgb(27, 158, 119)" /><path d="M 240.215 371.081 L 240.215 367.431  L 237.215 367.431  L 237.215 361.081  L 240.215 361.081  L 240.215 357.431  L 237.215 357.431  L 237.215 353.438  L 187.015 353.438  L 187.015 357.431  L 184.015 357.431  L 184.015 361.081  L 187.015 361.081  L 187.015 367.431  L 184.015 367.431  L 184.015 371.081  L 187.015 371.081  L 187.015 375.074  L 237.215 375.074  L 237.215 371.081  z" fill="none" stroke="rgb(27, 158, 119)" /><path d="M 337.668 343.785 L 337.081 343.633  L 336.536 343.366  L 336.056 342.995  L 335.661 342.534  L 335.366 342.003  L 335.185 341.424  L 335.123 340.821  L 335.185 340.217  L 335.366 339.638  L 335.661 339.107  L 336.056 338.647  L 336.536 338.275  L 337.081 338.008  L 337.668 337.856  L 338.275 337.825  L 338.874 337.917  L 339.444 338.128  L 339.959 338.449  L 340.399 338.867  L 340.745 339.365  L 340.985 339.923  L 341.107 340.517  L 341.107 341.124  L 340.985 341.718  L 340.745 342.276  L 340.399 342.774  L 339.959 343.192  L 339.444 343.513  L 338.874 343.724  L 338.275 343.816  z" fill="none" stroke="rgb(217, 95, 2)" /><path d="M 363.215 347.646 L 366.215 347.646  L 366.215 343.996  L 363.215 343.996  L 363.215 337.646  L 366.215 337.646  L 366.215 333.996  L 363.215 333.996  L 363.215 330.003  L 329.015 330.003  L 329.015 333.996  L 326.015 333.996  L 326.015 337.646  L 329.015 337.646  L 329.015 343.996  L 326.015 343.996  L 326.015 347.646  L 329.015 347.646  L 329.015 351.638  L 363.215 351.638  z" fill="none" stroke="rgb(27, 158, 119)" /><path d="M 321.215 347.646 L 324.215 347.646  L 324.215 343.996  L 321.215 343.996  L 321.215 337.646  L 324.215 337.646  L 324.215 333.996  L 321.215 333.996  L 321.215 330.003  L 287.015 330.003  L 287.015 333.996  L 284.015 333.996  L 284.015 337.646  L 287.015 337.646  L 287.015 343.996  L 284.015 343.996  L 284.015 347.646  L 287.015 347.646  L 287.015 351.638  L 321.215 351.638  z" fill="none" stroke="rgb(27, 158, 119)" /><path d="M 279.215 347.646 L 282.215 347.646  L 282.215 343.996  L 279.215 343.996  L 279.215 337.646  L 282.215 337.646  L 282.215 333.996  L 279.215 333.996  L 279.215 330.003  L 245.015 330.003  L 245.015 333.996  L 242.015 333.996  L 242.015 337.646  L 245.015 337.646  L 245.015 343.996  L 242.015 343.996  L 242.015 347.646  L 245.015 347.646  L 245.015 351.638  L 279.215 351.638  z" fill="none" stroke="rgb(27, 158, 119)" /><path d="M 240.215 347.646 L 240.215 343.996  L 237.215 343.996  L 237.215 337.646  L 240.215 337.646  L 240.215 333.996  L 237.215 333.996  L 237.215 330.003  L 187.015 330.003  L 187.015 333.996  L 184.015 333.996  L 184.015 337.646  L 187.015 337.646  L 187.015 343.996  L 184.015 343.996  L 184.015 347.646  L 187.015 347.646  L 187.015 351.638  L 237.215 351.638  L 237.215 347.646  z" fill="none" stroke="rgb(27, 158, 119)" /><path d="M 337.668 320.35 L 337.081 320.197  L 336.536 319.93  L 336.056 319.559  L 335.661 319.098  L 335.366 318.567  L 335.185 317.988  L 335.123 317.385  L 335.185 316.781  L 335.366 316.202  L 335.661 315.671  L 336.056 315.211  L 336.536 314.839  L 337.081 314.572  L 337.668 314.42  L 338.275 314.389  L 338.874 314.481  L 339.444 314.692  L 339.959 315.013  L 340.399 315.431  L 340.745 315.929  L 340.985 316.487  L 341.107 317.081  L 341.107 317.688  L 340.985 318.283  L 340.745 318.84  L 340.399 319.338  L 339.959 319.757  L 339.444 320.078  L 338.874 320.288  L 338.275 320.38  z" fill="none" stroke="rgb(217, 95, 2)" /><path d="M 363.215 324.21 L 366.215 324.21  L 366.215 320.56  L 363.215 320.56  L 363.215 314.21  L 366.215 314.21  L 366.215 310.56  L 363.215 310.56  L 363.215 306.567  L 329.015 306.567  L 329.015 310.56  L 326.015 310.56  L 326.015 314.21  L 329.015 314.21  L 329.015 320.56  L 326.015 320.56  L 326.015 324.21  L 329.015 324.21  L 329.015 328.203  L 363.215 328.203  z" fill="none" stroke="rgb(27, 158, 119)" /><path d="M 321.215 324.21 L 324.215 324.21  L 324.215 320.56  L 321.215 320.56  L 321.215 314.21  L 324.215 314.21  L 324.215 310.56  L 321.215 310.56  L 321.215 306.567  L 287.015 306.567  L 287.015 310.56  L 284.015 310.56  L 284.015 314.21  L 287.015 314.21  L 287.015 320.56  L 284.015 320.56  L 284.015 324.21  L 287.015 324.21  L 287.015 328.203  L 321.215 328.203  z" fill="none" stroke="rgb(27, 158, 119)" /><path d="M 279.215 324.21 L 282.215 324.21  L 282.215 320.56  L 279.215 320.56  L 279.215 314.21  L 282.215 314.21  L 282.215 310.56  L 279.215 310.56  L 279.215 306.567  L 245.015 306.567  L 245.015 310.56  L 242.015 310.56  L 242.015 314.21  L 245.015 314.21  L 245.015 320.56  L 242.015 320.56  L 242.015 324.21  L 245.015 324.21  L 245.015 328.203  L 279.215 328.203  z" fill="none" stroke="rgb(27, 158, 119)" /><path d="M 240.215 324.21 L 240.215 320.56  L 237.215 320.56  L 237.215 314.21  L 240.215 314.21  L 240.215 310.56  L 237.215 310.56  L 237.215 306.567  L 187.015 306.567  L 187.015 310.56  L 184.015 310.56  L 184.015 314.21  L 187.015 314.21  L 187.015 320.56  L 184.015 320.56  L 184.015 324.21  L 187.015 324.21  L 187.015 328.203  L 237.215 328.203  L 237.215 324.21  z" fill="none" stroke="rgb(27, 158, 119)" /><path d="M 337.668 296.914 L 337.081 296.762  L 336.536 296.494  L 336.056 296.123  L 335.661 295.662  L 335.366 295.132  L 335.185 294.553  L 335.123 293.949  L 335.185 293.345  L 335.366 292.766  L 335.661 292.235  L 336.056 291.775  L 336.536 291.403  L 337.081 291.136  L 337.668 290.984  L 338.275 290.953  L 338.874 291.045  L 339.444 291.256  L 339.959 291.577  L 340.399 291.995  L 340.745 292.493  L 340.985 293.051  L 341.107 293.645  L 341.107 294.252  L 340.985 294.847  L 340.745 295.404  L 340.399 295.903  L 339.959 296.321  L 339.444 296.642  L 338.874 296.852  L 338.275 296.944  z" fill="none" stroke="rgb(217, 95, 2)" /><path d="M 363.215 300.774 L 366.215 300.774  L 366.215 297.124  L 363.215 297.124  L 363.215 290.774  L 366.215 290.774  L 366.215 287.124  L 363.215 287.124  L 363.215 283.131  L 329.015 283.131  L 329.015 287.124  L 326.015 287.124  L 326.015 290.774  L 329.015 290.774  L 329.015 297.124  L 326.015 297.124  L 326.015 300.774  L 329.015 300.774  L 329.015 304.767  L 363.215 304.767  z" fill="none" stroke="rgb(27, 158, 119)" /><path d="M 321.215 300.774 L 324.215 300.774  L 324.215 297.124  L 321.215 297.124  L 321.215 290.774  L 324.215 290.774  L 324.215 287.124  L 321.215 287.124  L 321.215 283.131  L 287.015 283.131  L 287.015 287.124  L 284.015 287.124  L 284.015 290.774  L 287.015 290.774  L 287.015 297.124  L 284.015 297.124  L 284.015 300.774  L 287.015 300.774  L 287.015 304.767  L 321.215 304.767  z" fill="none" stroke="rgb(27, 158, 119)" /><path d="M 279.215 300.774 L 282.215 300.774  L 282.215 297.124  L 279.215 297.124  L 279.215 290.774  L 282.215 290.774  L 282.215 287.124  L 279.215 287.124  L 279.215 283.131  L 245.015 283.131  L 245.015 287.124  L 242.015 287.124  L 242.015 290.774  L 245.015 290.774  L 245.015 297.124  L 242.015 297.124  L 242.015 300.774  L 245.015 300.774  L 245.015 304.767  L 279.215 304.767  z" fill="none" stroke="rgb(27, 158, 119)" /><path d="M 240.215 300.774 L 240.215 297.124  L 237.215 297.124  L 237.215 290.774  L 240.215 290.774  L 240.215 287.124  L 237.215 287.124  L 237.215 283.131  L 187.015 283.131  L 187.015 287.124  L 184.015 287.124  L 184.015 290.774  L 187.015 290.774  L 187.015 297.124  L 184.015 297.124  L 184.015 300.774  L 187.015 300.774  L 187.015 304.767  L 237.215 304.767  L 237.215 300.774  z" fill="none" stroke="rgb(27, 158, 119)" /><path d="M 337.668 273.478 L 337.081 273.326  L 336.536 273.058  L 336.056 272.687  L 335.661 272.226  L 335.366 271.696  L 335.185 271.117  L 335.123 270.513  L 335.185 269.909  L 335.366 269.33  L 335.661 268.799  L 336.056 268.339  L 336.536 267.967  L 337.081 267.7  L 337.668 267.548  L 338.275 267.517  L 338.874 267.609  L 339.444 267.82  L 339.959 268.141  L 340.399 268.559  L 340.745 269.057  L 340.985 269.615  L 341.107 270.209  L 341.107 270.816  L 340.985 271.411  L 340.745 271.968  L 340.399 272.467  L 339.959 272.885  L 339.444 273.206  L 338.874 273.417  L 338.275 273.508  z" fill="none" stroke="rgb(217, 95, 2)" /><path d="M 363.215 277.338 L 366.215 277.338  L 366.215 273.688  L 363.215 273.688  L 363.215 267.338  L 366.215 267.338  L 366.215 263.688  L 363.215 263.688  L 363.215 259.695  L 329.015 259.695  L 329.015 263.688  L 326.015 263.688  L 326.015 267.338  L 329.015 267.338  L 329.015 273.688  L 326.015 273.688  L 326.015 277.338  L 329.015 277.338  L 329.015 281.331  L 363.215 281.331  z" fill="none" stroke="rgb(27, 158, 119)" /><path d="M 321.215 277.338 L 324.215 277.338  L 324.215 273.688  L 321.215 273.688  L 321.215 267.338  L 324.215 267.338  L 324.215 263.688  L 321.215 263.688  L 321.215 259.695  L 287.015 259.695  L 287.015 263.688  L 284.015 263.688  L 284.015 267.338  L 287.015 267.338  L 287.015 273.688  L 284.015 273.688  L 284.015 277.338  L 287.015 277.338  L 287.015 281.331  L 321.215 281.331  z" fill="none" stroke="rgb(27, 158, 119)" /><path d="M 279.215 277.338 L 282.215 277.338  L 282.215 273.688  L 279.215 273.688  L 279.215 267.338  L 282.215 267.338  L 282.215 263.688  L 279.215 263.688  L 279.215 259.695  L 245.015 259.695  L 245.015 263.688  L 242.015 263.688  L 242.015 267.338  L 245.015 267.338  L 245.015 273.688  L 242.015 273.688  L 242.015 277.338  L 245.015 277.338  L 245.015 281.331  L 279.215 281.331  z" fill="none" stroke="rgb(27, 158, 119)" /><path d="M 240.215 277.338 L 240.215 273.688  L 237.215 273.688  L 237.215 267.338  L 240.215 267.338  L 240.215 263.688  L 237.215 263.688  L 237.215 259.695  L 187.015 259.695  L 187.015 263.688  L 184.015 263.688  L 184.015 267.338  L 187.015 267.338  L 187.015 273.688  L 184.015 273.688  L 184.015 277.338  L 187.015 277.338  L 187.015 281.331  L 237.215 281.331  L 237.215 277.338  z" fill="none" stroke="rgb(27, 158, 119)" /><path d="M 337.668 250.042 L 337.081 249.89  L 336.536 249.622  L 336.056 249.251  L 335.661 248.79  L 335.366 248.26  L 335.185 247.681  L 335.123 247.077  L 335.185 246.473  L 335.366 245.894  L 335.661 245.363  L 336.056 244.903  L 336.536 244.531  L 337.081 244.264  L 337.668 244.112  L 338.275 244.081  L 338.874 244.173  L 339.444 244.384  L 339.959 244.705  L 340.399 245.123  L 340.745 245.621  L 340.985 246.179  L 341.107 246.773  L 341.107 247.38  L 340.985 247.975  L 340.745 248.533  L 340.399 249.031  L 339.959 249.449  L 339.444 249.77  L 338.874 249.981  L 338.275 250.073  z" fill="none" stroke="rgb(217, 95, 2)" /><path d="M 363.215 253.902 L 366.215 253.902  L 366.215 250.252  L 363.215 250.252  L 363.215 243.902  L 366.215 243.902  L 366.215 240.252  L 363.215 240.252  L 363.215 236.259  L 329.015 236.259  L 329.015 240.252  L 326.015 240.252  L 326.015 243.902  L 329.015 243.902  L 329.015 250.252  L 326.015 250.252  L 326.015 253.902  L 329.015 253.902  L 329.015 257.895  L 363.215 257.895  z" fill="none" stroke="rgb(27, 158, 119)" /><path d="M 321.215 253.902 L 324.215 253.902  L 324.215 250.252  L 321.215 250.252  L 321.215 243.902  L 324.215 243.902  L 324.215 240.252  L 321.215 240.252  L 321.215 236.259  L 287.015 236.259  L 287.015 240.252  L 284.015 240.252  L 284.015 243.902  L 287.015 243.902  L 287.015 250.252  L 284.015 250.252  L 284.015 253.902  L 287.015 253.902  L 287.015 257.895  L 321.215 257.895  z" fill="none" stroke="rgb(27, 158, 119)" /><path d="M 279.215 253.902 L 282.215 253.902  L 282.215 250.252  L 279.215 250.252  L 279.215 243.902  L 282.215 243.902  L 282.215 240.252  L 279.215 240.252  L 279.215 236.259  L 245.015 236.259  L 245.015 240.252  L 242.015 240.252  L 242.015 243.902  L 245.015 243.902  L 245.015 250.252  L 242.015 250.252  L 242.015 253.902  L 245.015 253.902  L 245.015 257.895  L 279.215 257.895  z" fill="none" stroke="rgb(27, 158, 119)" /><path d="M 240.215 253.902 L 240.215 250.252  L 237.215 250.252  L 237.215 243.902  L 240.215 243.902  L 240.215 240.252  L 237.215 240.252  L 237.215 236.259  L 187.015 236.259  L 187.015 240.252  L 184.015 240.252  L 184.015 243.902  L 187.015 243.902  L 187.015 250.252  L 184.015 250.252  L 184.015 253.902  L 187.015 253.902  L 187.015 257.895  L 237.215 257.895  L 237.215 253.902  z" fill="none" stroke="rgb(27, 158, 119)" /><path d="M 337.668 226.606 L 337.081 226.454  L 336.536 226.187  L 336.056 225.815  L 335.661 225.355  L 335.366 224.824  L 335.185 224.245  L 335.123 223.641  L 335.185 223.037  L 335.366 222.458  L 335.661 221.928  L 336.056 221.467  L 336.536 221.096  L 337.081 220.828  L 337.668 220.676  L 338.275 220.645  L 338.874 220.737  L 339.444 220.948  L 339.959 221.269  L 340.399 221.687  L 340.745 222.185  L 340.985 222.743  L 341.107 223.338  L 341.107 223.944  L 340.985 224.539  L 340.745 225.097  L 340.399 225.595  L 339.959 226.013  L 339.444 226.334  L 338.874 226.545  L 338.275 226.637  z" fill="none" stroke="rgb(217, 95, 2)" /><path d="M 366.215 230.466 L 366.215 226.816  L 363.215 226.816  L 363.215 220.466  L 366.215 220.466  L 366.215 216.816  L 363.215 216.816  L 363.215 212.823  L 329.015 212.823  L 329.015 216.816  L 326.015 216.816  L 326.015 220.466  L 329.015 220.466  L 329.015 226.816  L 326.015 226.816  L 326.015 230.466  L 329.015 230.466  L 329.015 234.459  L 363.215 234.459  L 363.215 230.466  z" fill="none" stroke="rgb(27, 158, 119)" /><path d="M 324.215 230.466 L 324.215 226.816  L 321.215 226.816  L 321.215 220.466  L 324.215 220.466  L 324.215 216.816  L 321.215 216.816  L 321.215 212.823  L 287.015 212.823  L 287.015 216.816  L 284.015 216.816  L 284.015 220.466  L 287.015 220.466  L 287.015 226.816  L 284.015 226.816  L 284.015 230.466  L 287.015 230.466  L 287.015 234.459  L 321.215 234.459  L 321.215 230.466  z" fill="none" stroke="rgb(27, 158, 119)" /><path d="M 282.215 230.466 L 282.215 226.816  L 279.215 226.816  L 279.215 220.466  L 282.215 220.466  L 282.215 216.816  L 279.215 216.816  L 279.215 212.823  L 245.015 212.823  L 245.015 216.816  L 242.015 216.816  L 242.015 220.466  L 245.015 220.466  L 245.015 226.816  L 242.015 226.816  L 242.015 230.466  L 245.015 230.466  L 245.015 234.459  L 279.215 234.459  L 279.215 230.466  z" fill="none" stroke="rgb(27, 158, 119)" /><path d="M 240.215 230.466 L 240.215 226.816  L 237.215 226.816  L 237.215 220.466  L 240.215 220.466  L 240.215 216.816  L 237.215 216.816  L 237.215 212.823  L 187.015 212.823  L 187.015 216.816  L 184.015 216.816  L 184.015 220.466  L 187.015 220.466  L 187.015 226.816  L 184.015 226.816  L 184.015 230.466  L 187.015 230.466  L 187.015 234.459  L 237.215 234.459  L 237.215 230.466  z" fill="none" stroke="rgb(27, 158, 119)" /><path d="M 337.668 203.17 L 337.081 203.018  L 336.536 202.751  L 336.056 202.379  L 335.661 201.919  L 335.366 201.388  L 335.185 200.809  L 335.123 200.205  L 335.185 199.601  L 335.366 199.022  L 335.661 198.492  L 336.056 198.031  L 336.536 197.66  L 337.081 197.392  L 337.668 197.24  L 338.275 197.21  L 338.874 197.301  L 339.444 197.512  L 339.959 197.833  L 340.399 198.251  L 340.745 198.749  L 340.985 199.307  L 341.107 199.902  L 341.107 200.509  L 340.985 201.103  L 340.745 201.661  L 340.399 202.159  L 339.959 202.577  L 339.444 202.898  L 338.874 203.109  L 338.275 203.201  z" fill="none" stroke="rgb(217, 95, 2)" /><path d="M 366.215 207.03 L 366.215 203.38  L 363.215 203.38  L 363.215 197.03  L 366.215 197.03  L 366.215 193.38  L 363.215 193.38  L 363.215 189.387  L 329.015 189.387  L 329.015 193.38  L 326.015 193.38  L 326.015 197.03  L 329.015 197.03  L 329.015 203.38  L 326.015 203.38  L 326.015 207.03  L 329.015 207.03  L 329.015 211.023  L 363.215 211.023  L 363.215 207.03  z" fill="none" stroke="rgb(27, 158, 119)" /><path d="M 324.215 207.03 L 324.215 203.38  L 321.215 203.38  L 321.215 197.03  L 324.215 197.03  L 324.215 193.38  L 321.215 193.38  L 321.215 189.387  L 287.015 189.387  L 287.015 193.38  L 284.015 193.38  L 284.015 197.03  L 287.015 197.03  L 287.015 203.38  L 284.015 203.38  L 284.015 207.03  L 287.015 207.03  L 287.015 211.023  L 321.215 211.023  L 321.215 207.03  z" fill="none" stroke="rgb(27, 158, 119)" /><path d="M 282.215 207.03 L 282.215 203.38  L 279.215 203.38  L 279.215 197.03  L 282.215 197.03  L 282.215 193.38  L 279.215 193.38  L 279.215 189.387  L 245.015 189.387  L 245.015 193.38  L 242.015 193.38  L 242.015 197.03  L 245.015 197.03  L 245.015 203.38  L 242.015 203.38  L 242.015 207.03  L 245.015 207.03  L 245.015 211.023  L 279.215 211.023  L 279.215 207.03  z" fill="none" stroke="rgb(27, 158, 119)" /><path d="M 240.215 207.03 L 240.215 203.38  L 237.215 203.38  L 237.215 197.03  L 240.215 197.03  L 240.215 193.38  L 237.215 193.38  L 237.215 189.387  L 187.015 189.387  L 187.015 193.38  L 184.015 193.38  L 184.015 197.03  L 187.015 197.03  L 187.015 203.38  L 184.015 203.38  L 184.015 207.03  L 187.015 207.03  L 187.015 211.023  L 237.215 211.023  L 237.215 207.03  z" fill="none" stroke="rgb(27, 158, 119)" /><path d="M 337.668 179.734 L 337.081 179.582  L 336.536 179.315  L 336.056 178.943  L 335.661 178.483  L 335.366 177.952  L 335.185 177.373  L 335.123 176.769  L 335.185 176.165  L 335.366 175.586  L 335.661 175.056  L 336.056 174.595  L 336.536 174.224  L 337.081 173.956  L 337.668 173.804  L 338.275 173.774  L 338.874 173.866  L 339.444 174.076  L 339.959 174.397  L 340.399 174.815  L 340.745 175.314  L 340.985 175.871  L 341.107 176.466  L 341.107 177.073  L 340.985 177.667  L 340.745 178.225  L 340.399 178.723  L 339.959 179.141  L 339.444 179.462  L 338.874 179.673  L 338.275 179.765  z" fill="none" stroke="rgb(217, 95, 2)" /><path d="M 366.215 183.594 L 366.215 179.944  L 363.215 179.944  L 363.215 173.594  L 366.215 173.594  L 366.215 169.944  L 363.215 169.944  L 363.215 165.951  L 329.015 165.951  L 329.015 169.944  L 326.015 169.944  L 326.015 173.594  L 329.015 173.594  L 329.015 179.944  L 326.015 179.944  L 326.015 183.594  L 329.015 183.594  L 329.015 187.587  L 363.215 187.587  L 363.215 183.594  z" fill="none" stroke="rgb(27, 158, 119)" /><path d="M 324.215 183.594 L 324.215 179.944  L 321.215 179.944  L 321.215 173.594  L 324.215 173.594  L 324.215 169.944  L 321.215 169.944  L 321.215 165.951  L 287.015 165.951  L 287.015 169.944  L 284.015 169.944  L 284.015 173.594  L 287.015 173.594  L 287.015 179.944  L 284.015 179.944  L 284.015 183.594  L 287.015 183.594  L 287.015 187.587  L 321.215 187.587  L 321.215 183.594  z" fill="none" stroke="rgb(27, 158, 119)" /><path d="M 282.215 183.594 L 282.215 179.944  L 279.215 179.944  L 279.215 173.594  L 282.215 173.594  L 282.215 169.944  L 279.215 169.944  L 279.215 165.951  L 245.015 165.951  L 245.015 169.944  L 242.015 169.944  L 242.015 173.594  L 245.015 173.594  L 245.015 179.944  L 242.015 179.944  L 242.015 183.594  L 245.015 183.594  L 245.015 187.587  L 279.215 187.587  L 279.215 183.594  z" fill="none" stroke="rgb(27, 158, 119)" /><path d="M 240.215 183.594 L 240.215 179.944  L 237.215 179.944  L 237.215 173.594  L 240.215 173.594  L 240.215 169.944  L 237.215 169.944  L 237.215 165.951  L 187.015 165.951  L 187.015 169.944  L 184.015 169.944  L 184.015 173.594  L 187.015 173.594  L 187.015 179.944  L 184.015 179.944  L 184.015 183.594  L 187.015 183.594  L 187.015 187.587  L 237.215 187.587  L 237.215 183.594  z" fill="none" stroke="rgb(27, 158, 119)" /><path d="M 337.668 156.298 L 337.081 156.146  L 336.536 155.879  L 336.056 155.507  L 335.661 155.047  L 335.366 154.516  L 335.185 153.937  L 335.123 153.333  L 335.185 152.73  L 335.366 152.15  L 335.661 151.62  L 336.056 151.159  L 336.536 150.788  L 337.081 150.521  L 337.668 150.368  L 338.275 150.338  L 338.874 150.43  L 339.444 150.64  L 339.959 150.961  L 340.399 151.38  L 340.745 151.878  L 340.985 152.435  L 341.107 153.03  L 341.107 153.637  L 340.985 154.231  L 340.745 154.789  L 340.399 155.287  L 339.959 155.705  L 339.444 156.026  L 338.874 156.237  L 338.275 156.329  z" fill="none" stroke="rgb(217, 95, 2)" /><path d="M 366.215 160.158 L 366.215 156.508  L 363.215 156.508  L 363.215 150.158  L 366.215 150.158  L 366.215 146.508  L 363.215 146.508  L 363.215 142.515  L 329.015 142.515  L 329.015 146.508  L 326.015 146.508  L 326.015 150.158  L 329.015 150.158  L 329.015 156.508  L 326.015 156.508  L 326.015 160.158  L 329.015 160.158  L 329.015 164.151  L 363.215 164.151  L 363.215 160.158  z" fill="none" stroke="rgb(27, 158, 119)" /><path d="M 324.215 160.158 L 324.215 156.508  L 321.215 156.508  L 321.215 150.158  L 324.215 150.158  L 324.215 146.508  L 321.215 146.508  L 321.215 142.515  L 287.015 142.515  L 287.015 146.508  L 284.015 146.508  L 284.015 150.158  L 287.015 150.158  L 287.015 156.508  L 284.015 156.508  L 284.015 160.158  L 287.015 160.158  L 287.015 164.151  L 321.215 164.151  L 321.215 160.158  z" fill="none" stroke="rgb(27, 158, 119)" /><path d="M 282.215 160.158 L 282.215 156.508  L 279.215 156.508  L 279.215 150.158  L 282.215 150.158  L 282.215 146.508  L 279.215 146.508  L 279.215 142.515  L 245.015 142.515  L 245.015 146.508  L 242.015 146.508  L 242.015 150.158  L 245.015 150.158  L 245.015 156.508  L 242.015 156.508  L 242.015 160.158  L 245.015 160.158  L 245.015 164.151  L 279.215 164.151  L 279.215 160.158  z" fill="none" stroke="rgb(27, 158, 119)" /><path d="M 240.215 160.158 L 240.215 156.508  L 237.215 156.508  L 237.215 150.158  L 240.215 150.158  L 240.215 146.508  L 237.215 146.508  L 237.215 142.515  L 187.015 142.515  L 187.015 146.508  L 184.015 146.508  L 184.015 150.158  L 187.015 150.158  L 187.015 156.508  L 184.015 156.508  L 184.015 160.158  L 187.015 160.158  L 187.015 164.151  L 237.215 164.151  L 237.215 160.158  z" fill="none" stroke="rgb(27, 158, 119)" /><path d="M 337.668 132.862 L 337.081 132.71  L 336.536 132.443  L 336.056 132.071  L 335.661 131.611  L 335.366 131.08  L 335.185 130.501  L 335.123 129.897  L 335.185 129.294  L 335.366 128.715  L 335.661 128.184  L 336.056 127.723  L 336.536 127.352  L 337.081 127.085  L 337.668 126.933  L 338.275 126.902  L 338.874 126.994  L 339.444 127.204  L 339.959 127.526  L 340.399 127.944  L 340.745 128.442  L 340.985 129  L 341.107 129.594  L 341.107 130.201  L 340.985 130.795  L 340.745 131.353  L 340.399 131.851  L 339.959 132.269  L 339.444 132.59  L 338.874 132.801  L 338.275 132.893  z" fill="none" stroke="rgb(217, 95, 2)" /><path d="M 366.215 136.722 L 366.215 133.072  L 363.215 133.072  L 363.215 126.722  L 366.215 126.722  L 366.215 123.072  L 363.215 123.072  L 363.215 119.079  L 329.015 119.079  L 329.015 123.072  L 326.015 123.072  L 326.015 126.722  L 329.015 126.722  L 329.015 133.072  L 326.015 133.072  L 326.015 136.722  L 329.015 136.722  L 329.015 140.715  L 363.215 140.715  L 363.215 136.722  z" fill="none" stroke="rgb(27, 158, 119)" /><path d="M 324.215 136.722 L 324.215 133.072  L 321.215 133.072  L 321.215 126.722  L 324.215 126.722  L 324.215 123.072  L 321.215 123.072  L 321.215 119.079  L 287.015 119.079  L 287.015 123.072  L 284.015 123.072  L 284.015 126.722  L 287.015 126.722  L 287.015 133.072  L 284.015 133.072  L 284.015 136.722  L 287.015 136.722  L 287.015 140.715  L 321.215 140.715  L 321.215 136.722  z" fill="none" stroke="rgb(27, 158, 119)" /><path d="M 282.215 136.722 L 282.215 133.072  L 279.215 133.072  L 279.215 126.722  L 282.215 126.722  L 282.215 123.072  L 279.215 123.072  L 279.215 119.079  L 245.015 119.079  L 245.015 123.072  L 242.015 123.072  L 242.015 126.722  L 245.015 126.722  L 245.015 133.072  L 242.015 133.072  L 242.015 136.722  L 245.015 136.722  L 245.015 140.715  L 279.215 140.715  L 279.215 136.722  z" fill="none" stroke="rgb(27, 158, 119)" /><path d="M 240.215 136.722 L 240.215 133.072  L 237.215 133.072  L 237.215 126.722  L 240.215 126.722  L 240.215 123.072  L 237.215 123.072  L 237.215 119.079  L 187.015 119.079  L 187.015 123.072  L 184.015 123.072  L 184.015 126.722  L 187.015 126.722  L 187.015 133.072  L 184.015 133.072  L 184.015 136.722  L 187.015 136.722  L 187.015 140.715  L 237.215 140.715  L 237.215 136.722  z" fill="none" stroke="rgb(27, 158, 119)" /><path d="M 337.668 109.426 L 337.081 109.274  L 336.536 109.007  L 336.056 108.636  L 335.661 108.175  L 335.366 107.644  L 335.185 107.065  L 335.123 106.462  L 335.185 105.858  L 335.366 105.279  L 335.661 104.748  L 336.056 104.288  L 336.536 103.916  L 337.081 103.649  L 337.668 103.497  L 338.275 103.466  L 338.874 103.558  L 339.444 103.769  L 339.959 104.09  L 340.399 104.508  L 340.745 105.006  L 340.985 105.564  L 341.107 106.158  L 341.107 106.765  L 340.985 107.359  L 340.745 107.917  L 340.399 108.415  L 339.959 108.833  L 339.444 109.154  L 338.874 109.365  L 338.275 109.457  z" fill="none" stroke="rgb(217, 95, 2)" /><path d="M 366.215 113.287 L 366.215 109.637  L 363.215 109.637  L 363.215 103.287  L 366.215 103.287  L 366.215 99.6365  L 363.215 99.6365  L 363.215 95.6436  L 329.015 95.6436  L 329.015 99.6365  L 326.015 99.6365  L 326.015 103.287  L 329.015 103.287  L 329.015 109.637  L 326.015 109.637  L 326.015 113.287  L 329.015 113.287  L 329.015 117.279  L 363.215 117.279  L 363.215 113.287  z" fill="none" stroke="rgb(27, 158, 119)" /><path d="M 324.215 113.287 L 324.215 109.637  L 321.215 109.637  L 321.215 103.287  L 324.215 103.287  L 324.215 99.6365  L 321.215 99.6365  L 321.215 95.6436  L 287.015 95.6436  L 287.015 99.6365  L 284.015 99.6365  L 284.015 103.287  L 287.015 103.287  L 287.015 109.637  L 284.015 109.637  L 284.015 113.287  L 287.015 113.287  L 287.015 117.279  L 321.215 117.279  L 321.215 113.287  z" fill="none" stroke="rgb(27, 158, 119)" /><path d="M 282.215 113.287 L 282.215 109.637  L 279.215 109.637  L 279.215 103.287  L 282.215 103.287  L 282.215 99.6365  L 279.215 99.6365  L 279.215 95.6436  L 245.015 95.6436  L 245.015 99.6365  L 242.015 99.6365  L 242.015 103.287  L 245.015 103.287  L 245.015 109.637  L 242.015 109.637  L 242.015 113.287  L 245.015 113.287  L 245.015 117.279  L 279.215 117.279  L 279.215 113.287  z" fill="none" stroke="rgb(27, 158, 119)" /><path d="M 240.215 113.287 L 240.215 109.637  L 237.215 109.637  L 237.215 103.287  L 240.215 103.287  L 240.215 99.6365  L 237.215 99.6365  L 237.215 95.6436  L 187.015 95.6436  L 187.015 99.6365  L 184.015 99.6365  L 184.015 103.287  L 187.015 103.287  L 187.015 109.637  L 184.015 109.637  L 184.015 113.287  L 187.015 113.287  L 187.015 117.279  L 237.215 117.279  L 237.215 113.287  z" fill="none" stroke="rgb(27, 158, 119)" /><path d="M 337.668 85.9905 L 337.081 85.8384  L 336.536 85.5711  L 336.056 85.1996  L 335.661 84.7392  L 335.366 84.2085  L 335.185 83.6294  L 335.123 83.0256  L 335.185 82.4219  L 335.366 81.8428  L 335.661 81.3121  L 336.056 80.8516  L 336.536 80.4801  L 337.081 80.2129  L 337.668 80.0607  L 338.275 80.03  L 338.874 80.1219  L 339.444 80.3327  L 339.959 80.6537  L 340.399 81.0719  L 340.745 81.57  L 340.985 82.1277  L 341.107 82.7222  L 341.107 83.3291  L 340.985 83.9236  L 340.745 84.4813  L 340.399 84.9794  L 339.959 85.3976  L 339.444 85.7186  L 338.874 85.9294  L 338.275 86.0213  z" fill="none" stroke="rgb(217, 95, 2)" /><path d="M 366.215 89.8506 L 366.215 86.2006  L 363.215 86.2006  L 363.215 79.8506  L 366.215 79.8506  L 366.215 76.2006  L 363.215 76.2006  L 363.215 72.2077  L 329.015 72.2077  L 329.015 76.2006  L 326.015 76.2006  L 326.015 79.8506  L 329.015 79.8506  L 329.015 86.2006  L 326.015 86.2006  L 326.015 89.8506  L 329.015 89.8506  L 329.015 93.8436  L 363.215 93.8436  L 363.215 89.8506  z" fill="none" stroke="rgb(27, 158, 119)" /><path d="M 324.215 89.8506 L 324.215 86.2006  L 321.215 86.2006  L 321.215 79.8506  L 324.215 79.8506  L 324.215 76.2006  L 321.215 76.2006  L 321.215 72.2077  L 287.015 72.2077  L 287.015 76.2006  L 284.015 76.2006  L 284.015 79.8506  L 287.015 79.8506  L 287.015 86.2006  L 284.015 86.2006  L 284.015 89.8506  L 287.015 89.8506  L 287.015 93.8436  L 321.215 93.8436  L 321.215 89.8506  z" fill="none" stroke="rgb(27, 158, 119)" /><path d="M 282.215 89.8506 L 282.215 86.2006  L 279.215 86.2006  L 279.215 79.8506  L 282.215 79.8506  L 282.215 76.2006  L 279.215 76.2006  L 279.215 72.2077  L 245.015 72.2077  L 245.015 76.2006  L 242.015 76.2006  L 242.015 79.8506  L 245.015 79.8506  L 245.015 86.2006  L 242.015 86.2006  L 242.015 89.8506  L 245.015 89.8506  L 245.015 93.8436  L 279.215 93.8436  L 279.215 89.8506  z" fill="none" stroke="rgb(27, 158, 119)" /><path d="M 240.215 89.8506 L 240.215 86.2006  L 237.215 86.2006  L 237.215 79.8506  L 240.215 79.8506  L 240.215 76.2006  L 237.215 76.2006  L 237.215 72.2077  L 187.015 72.2077  L 187.015 76.2006  L 184.015 76.2006  L 184.015 79.8506  L 187.015 79.8506  L 187.015 86.2006  L 184.015 86.2006  L 184.015 89.8506  L 187.015 89.8506  L 187.015 93.8436  L 237.215 93.8436  L 237.215 89.8506  z" fill="none" stroke="rgb(27, 158, 119)" /><path d="M 337.668 62.5546 L 337.081 62.4025  L 336.536 62.1352  L 336.056 61.7638  L 335.661 61.3033  L 335.366 60.7726  L 335.185 60.1935  L 335.123 59.5897  L 335.185 58.986  L 335.366 58.4069  L 335.661 57.8762  L 336.056 57.4157  L 336.536 57.0443  L 337.081 56.777  L 337.668 56.6249  L 338.275 56.5941  L 338.874 56.686  L 339.444 56.8968  L 339.959 57.2178  L 340.399 57.636  L 340.745 58.1341  L 340.985 58.6918  L 341.107 59.2863  L 341.107 59.8932  L 340.985 60.4877  L 340.745 61.0454  L 340.399 61.5435  L 339.959 61.9617  L 339.444 62.2827  L 338.874 62.4935  L 338.275 62.5854  z" fill="none" stroke="rgb(217, 95, 2)" /><path d="M 366.215 66.4147 L 366.215 62.7647  L 363.215 62.7647  L 363.215 56.4147  L 366.215 56.4147  L 366.215 52.7647  L 363.215 52.7647  L 363.215 48.7718  L 329.015 48.7718  L 329.015 52.7647  L 326.015 52.7647  L 326.015 56.4147  L 329.015 56.4147  L 329.015 62.7647  L 326.015 62.7647  L 326.015 66.4147  L 329.015 66.4147  L 329.015 70.4077  L 363.215 70.4077  L 363.215 66.4147  z" fill="none" stroke="rgb(27, 158, 119)" /><path d="M 324.215 66.4147 L 324.215 62.7647  L 321.215 62.7647  L 321.215 56.4147  L 324.215 56.4147  L 324.215 52.7647  L 321.215 52.7647  L 321.215 48.7718  L 287.015 48.7718  L 287.015 52.7647  L 284.015 52.7647  L 284.015 56.4147  L 287.015 56.4147  L 287.015 62.7647  L 284.015 62.7647  L 284.015 66.4147  L 287.015 66.4147  L 287.015 70.4077  L 321.215 70.4077  L 321.215 66.4147  z" fill="none" stroke="rgb(27, 158, 119)" /><path d="M 282.215 66.4147 L 282.215 62.7647  L 279.215 62.7647  L 279.215 56.4147  L 282.215 56.4147  L 282.215 52.7647  L 279.215 52.7647  L 279.215 48.7718  L 245.015 48.7718  L 245.015 52.7647  L 242.015 52.7647  L 242.015 56.4147  L 245.015 56.4147  L 245.015 62.7647  L 242.015 62.7647  L 242.015 66.4147  L 245.015 66.4147  L 245.015 70.4077  L 279.215 70.4077  L 279.215 66.4147  z" fill="none" stroke="rgb(27, 158, 119)" /><path d="M 240.215 66.4147 L 240.215 62.7647  L 237.215 62.7647  L 237.215 56.4147  L 240.215 56.4147  L 240.215 52.7647  L 237.215 52.7647  L 237.215 48.7718  L 187.015 48.7718  L 187.015 52.7647  L 184.015 52.7647  L 184.015 56.4147  L 187.015 56.4147  L 187.015 62.7647  L 184.015 62.7647  L 184.015 66.4147  L 187.015 66.4147  L 187.015 70.4077  L 237.215 70.4077  L 237.215 66.4147  z" fill="none" stroke="rgb(27, 158, 119)" /><path d="M 379.668 39.1187 L 379.081 38.9666  L 378.536 38.6993  L 378.056 38.3279  L 377.661 37.8674  L 377.366 37.3367  L 377.185 36.7576  L 377.123 36.1538  L 377.185 35.5501  L 377.366 34.971  L 377.661 34.4403  L 378.056 33.9798  L 378.536 33.6084  L 379.081 33.3411  L 379.668 33.189  L 380.275 33.1582  L 380.874 33.2501  L 381.444 33.4609  L 381.959 33.7819  L 382.399 34.2001  L 382.745 34.6982  L 382.985 35.2559  L 383.107 35.8504  L 383.107 36.4573  L 382.985 37.0518  L 382.745 37.6095  L 382.399 38.1076  L 381.959 38.5258  L 381.444 38.8468  L 380.874 39.0576  L 380.275 39.1495  z" fill="none" stroke="rgb(217, 95, 2)" /><path d="M 337.668 39.1187 L 337.081 38.9666  L 336.536 38.6993  L 336.056 38.3279  L 335.661 37.8674  L 335.366 37.3367  L 335.185 36.7576  L 335.123 36.1538  L 335.185 35.5501  L 335.366 34.971  L 335.661 34.4403  L 336.056 33.9798  L 336.536 33.6084  L 337.081 33.3411  L 337.668 33.189  L 338.275 33.1582  L 338.874 33.2501  L 339.444 33.4609  L 339.959 33.7819  L 340.399 34.2001  L 340.745 34.6982  L 340.985 35.2559  L 341.107 35.8504  L 341.107 36.4573  L 340.985 37.0518  L 340.745 37.6095  L 340.399 38.1076  L 339.959 38.5258  L 339.444 38.8468  L 338.874 39.0576  L 338.275 39.1495  z" fill="none" stroke="rgb(217, 95, 2)" /><path d="M 408.215 42.9788 L 408.215 39.3288  L 405.215 39.3288  L 405.215 32.9788  L 408.215 32.9788  L 408.215 29.3288  L 405.215 29.3288  L 405.215 25.3359  L 371.015 25.3359  L 371.015 29.3288  L 368.015 29.3288  L 368.015 32.9788  L 371.015 32.9788  L 371.015 39.3288  L 368.015 39.3288  L 368.015 42.9788  L 371.015 42.9788  L 371.015 46.9718  L 405.215 46.9718  L 405.215 42.9788  z" fill="none" stroke="rgb(27, 158, 119)" /><path d="M 366.215 42.9788 L 366.215 39.3288  L 363.215 39.3288  L 363.215 32.9788  L 366.215 32.9788  L 366.215 29.3288  L 363.215 29.3288  L 363.215 25.3359  L 329.015 25.3359  L 329.015 29.3288  L 326.015 29.3288  L 326.015 32.9788  L 329.015 32.9788  L 329.015 39.3288  L 326.015 39.3288  L 326.015 42.9788  L 329.015 42.9788  L 329.015 46.9718  L 363.215 46.9718  L 363.215 42.9788  z" fill="none" stroke="rgb(27, 158, 119)" /><path d="M 324.215 42.9788 L 324.215 39.3288  L 321.215 39.3288  L 321.215 32.9788  L 324.215 32.9788  L 324.215 29.3288  L 321.215 29.3288  L 321.215 25.3359  L 287.015 25.3359  L 287.015 29.3288  L 284.015 29.3288  L 284.015 32.9788  L 287.015 32.9788  L 287.015 39.3288  L 284.015 39.3288  L 284.015 42.9788  L 287.015 42.9788  L 287.015 46.9718  L 321.215 46.9718  L 321.215 42.9788  z" fill="none" stroke="rgb(27, 158, 119)" /><path d="M 282.215 42.9788 L 282.215 39.3288  L 279.215 39.3288  L 279.215 32.9788  L 282.215 32.9788  L 282.215 29.3288  L 279.215 29.3288  L 279.215 25.3359  L 245.015 25.3359  L 245.015 29.3288  L 242.015 29.3288  L 242.015 32.9788  L 245.015 32.9788  L 245.015 39.3288  L 242.015 39.3288  L 242.015 42.9788  L 245.015 42.9788  L 245.015 46.9718  L 279.215 46.9718  L 279.215 42.9788  z" fill="none" stroke="rgb(27, 158, 119)" /><path d="M 237.215 42.9788 L 240.215 42.9788  L 240.215 39.3288  L 237.215 39.3288  L 237.215 32.9788  L 240.215 32.9788  L 240.215 29.3288  L 237.215 29.3288  L 237.215 25.3359  L 187.015 25.3359  L 187.015 29.3288  L 184.015 29.3288  L 184.015 32.9788  L 187.015 32.9788  L 187.015 39.3288  L 184.015 39.3288  L 184.015 42.9788  L 187.015 42.9788  L 187.015 46.9718  L 237.215 46.9718  z" fill="none" stroke="rgb(27, 158, 119)" /><path d="M 379.668 15.6828 L 379.081 15.5307  L 378.536 15.2634  L 378.056 14.892  L 377.661 14.4315  L 377.366 13.9008  L 377.185 13.3217  L 377.123 12.7179  L 377.185 12.1142  L 377.366 11.5351  L 377.661 11.0044  L 378.056 10.5439  L 378.536 10.1725  L 379.081 9.90518  L 379.668 9.75305  L 380.275 9.72231  L 380.874 9.81422  L 381.444 10.025  L 381.959 10.346  L 382.399 10.7642  L 382.745 11.2623  L 382.985 11.82  L 383.107 12.4145  L 383.107 13.0214  L 382.985 13.6159  L 382.745 14.1736  L 382.399 14.6717  L 381.959 15.0899  L 381.444 15.4109  L 380.874 15.6217  L 380.275 15.7136  z" fill="none" stroke="rgb(217, 95, 2)" /><path d="M 337.668 15.6828 L 337.081 15.5307  L 336.536 15.2634  L 336.056 14.892  L 335.661 14.4315  L 335.366 13.9008  L 335.185 13.3217  L 335.123 12.7179  L 335.185 12.1142  L 335.366 11.5351  L 335.661 11.0044  L 336.056 10.5439  L 336.536 10.1725  L 337.081 9.90518  L 337.668 9.75305  L 338.275 9.72231  L 338.874 9.81422  L 339.444 10.025  L 339.959 10.346  L 340.399 10.7642  L 340.745 11.2623  L 340.985 11.82  L 341.107 12.4145  L 341.107 13.0214  L 340.985 13.6159  L 340.745 14.1736  L 340.399 14.6717  L 339.959 15.0899  L 339.444 15.4109  L 338.874 15.6217  L 338.275 15.7136  z" fill="none" stroke="rgb(217, 95, 2)" /><path d="M 408.215 19.5429 L 408.215 15.8929  L 405.215 15.8929  L 405.215 9.54295  L 408.215 9.54295  L 408.215 5.89295  L 405.215 5.89295  L 405.215 1.9  L 371.015 1.9  L 371.015 5.89295  L 368.015 5.89295  L 368.015 9.54295  L 371.015 9.54295  L 371.015 15.8929  L 368.015 15.8929  L 368.015 19.5429  L 371.015 19.5429  L 371.015 23.5359  L 405.215 23.5359  L 405.215 19.5429  z" fill="none" stroke="rgb(27, 158, 119)" /><path d="M 366.215 19.5429 L 366.215 15.8929  L 363.215 15.8929  L 363.215 9.54295  L 366.215 9.54295  L 366.215 5.89295  L 363.215 5.89295  L 363.215 1.9  L 329.015 1.9  L 329.015 5.89295  L 326.015 5.89295  L 326.015 9.54295  L 329.015 9.54295  L 329.015 15.8929  L 326.015 15.8929  L 326.015 19.5429  L 329.015 19.5429  L 329.015 23.5359  L 363.215 23.5359  L 363.215 19.5429  z" fill="none" stroke="rgb(27, 158, 119)" /><path d="M 324.215 19.5429 L 324.215 15.8929  L 321.215 15.8929  L 321.215 9.54295  L 324.215 9.54295  L 324.215 5.89295  L 321.215 5.89295  L 321.215 1.9  L 287.015 1.9  L 287.015 5.89295  L 284.015 5.89295  L 284.015 9.54295  L 287.015 9.54295  L 287.015 15.8929  L 284.015 15.8929  L 284.015 19.5429  L 287.015 19.5429  L 287.015 23.5359  L 321.215 23.5359  L 321.215 19.5429  z" fill="none" stroke="rgb(27, 158, 119)" /><path d="M 282.215 19.5429 L 282.215 15.8929  L 279.215 15.8929  L 279.215 9.54295  L 282.215 9.54295  L 282.215 5.89295  L 279.215 5.89295  L 279.215 1.9  L 245.015 1.9  L 245.015 5.89295  L 242.015 5.89295  L 242.015 9.54295  L 245.015 9.54295  L 245.015 15.8929  L 242.015 15.8929  L 242.015 19.5429  L 245.015 19.5429  L 245.015 23.5359  L 279.215 23.5359  L 279.215 19.5429  z" fill="none" stroke="rgb(27, 158, 119)" /><path d="M 240.215 19.5429 L 240.215 15.8929  L 237.215 15.8929  L 237.215 9.54295  L 240.215 9.54295  L 240.215 5.89295  L 237.215 5.89295  L 237.215 1.9  L 187.015 1.9  L 187.015 5.89295  L 184.015 5.89295  L 184.015 9.54295  L 187.015 9.54295  L 187.015 15.8929  L 184.015 15.8929  L 184.015 19.5429  L 187.015 19.5429  L 187.015 23.5359  L 237.215 23.5359  L 237.215 19.5429  z" fill="none" stroke="rgb(27, 158, 119)" /></g></svg>