<?xml version="1.0" encoding="utf-8" ?>
<svg baseProfile="full" height="66.2mm" version="1.1" viewBox="-26.75063509461097,-33.1,53.50127018922194,66.2" width="53.50127018922194mm" xmlns="http://www.w3.org/2000/svg" xmlns:ev="http://www.w3.org/2001/xml-events" xmlns:xlink="http://www.w3.org/1999/xlink"><defs /><g><path d="M 3.62707 19.5573 L 6.46331 17.9198  L 7.96331 20.5179  L 13.7873 17.1554  L 12.2873 14.5573  L 15.1236 12.9198  L 16.6236 15.5179  L 21.7506 12.5577  L 21.7506 6.6375  L 18.7506 6.6375  L 18.7506 3.3625  L 21.7506 3.3625  L 21.7506 -3.3625  L 18.7506 -3.3625  L 18.7506 -6.6375  L 21.7506 -6.6375  L 21.7506 -12.5577  L 16.6236 -15.5179  L 15.1236 -12.9198  L 12.2873 -14.5573  L 13.7873 -17.1554  L 7.96331 -20.5179  L 6.46331 -17.9198  L 3.62707 -19.5573  L 5.12707 -22.1554  L 0 -25.1155  L -5.12707 -22.1554  L -3.62707 -19.5573  L -6.46331 -17.9198  L -7.96331 -20.5179  L -13.7873 -17.1554  L -12.2873 -14.5573  L -15.1236 -12.9198  L -16.6236 -15.5179  L -21.7506 -12.5577  L -21.7506 -6.6375  L -18.7506 -6.6375  L -18.7506 -3.3625  L -21.7506 -3.3625  L -21.7506 3.3625  L -18.7506 3.3625  L -18.7506 6.6375  L -21.7506 6.6375  L -21.7506 12.5577  L -16.6236 15.5179  L -15.1236 12.9198  L -12.2873 14.5573  L -13.7873 17.1554  L -7.96331 20.5179  L -6.46331 17.9198  L -3.62707 19.5573  L -5.12707 22.1554  L 0 25.1155  L 5.12707 22.1554  z" fill="none" stroke="rgb(27, 158, 119)" /></g><g><path d="M 3.62707 19.5573 L 6.46331 17.9198  L 7.96331 20.5179  L 13.7873 17.1554  L 12.2873 14.5573  L 15.1236 12.9198  L 16.6236 15.5179  L 21.7506 12.5577  L 21.7506 6.6375  L 18.7506 6.6375  L 18.7506 3.3625  L 21.7506 3.3625  L 21.7506 -3.3625  L 18.7506 -3.3625  L 18.7506 -6.6375  L 21.7506 -6.6375  L 21.7506 -12.5577  L 16.6236 -15.5179  L 15.1236 -12.9198  L 12.2873 -14.5573  L 13.7873 -17.1554  L 7.96331 -20.5179  L 6.46331 -17.9198  L 3.62707 -19.5573  L 5.12707 -22.1554  L 0 -25.1155  L -5.12707 -22.1554  L -3.62707 -19.5573  L -6.46331 -17.9198  L -7.96331 -20.5179  L -13.7873 -17.1554  L -12.2873 -14.5573  L -15.1236 -12.9198  L -16.6236 -15.5179  L -21.7506 -12.5577  L -21.7506 -6.6375  L -18.7506 -6.6375  L -18.7506 -3.3625  L -21.7506 -3.3625  L -21.7506 3.3625  L -18.7506 3.3625  L -18.7506 6.6375  L -21.7506 6.6375  L -21.7506 12.5577  L -16.6236 15.5179  L -15.1236 12.9198  L -12.2873 14.5573  L -13.7873 17.1554  L -7.96331 20.5179  L -6.46331 17.9198  L -3.62707 19.5573  L -5.12707 22.1554  L 0 25.1155  L 5.12707 22.1554  z" fill="none" stroke="rgb(27, 158, 119)" /></g><g><path d="M 10.8679 25.1 L 10.8679 -25.1  L 6.85 -25.1  L 6.85 -28.1  L 3.15 -28.1  L 3.15 -25.1  L -3.15 -25.1  L -3.15 -28.1  L -6.85 -28.1  L -6.85 -25.1  L -10.8679 -25.1  L -10.8679 25.1  L -6.85 25.1  L -6.85 28.1  L -3.15 28.1  L -3.15 25.1  L 3.15 25.1  L 3.15 28.1  L 6.85 28.1  L 6.85 25.1  z" fill="none" stroke="rgb(27, 158, 119)" /><path d="M -0.585675 2.84993 L -1.14737 2.67369  L -1.6621 2.388  L -2.10877 2.00454  L -2.46912 1.53901  L -2.72838 1.01048  L -2.87593 0.440577  L -2.90575 -0.147363  L -2.81661 -0.72927  L -2.61215 -1.28132  L -2.30075 -1.78091  L -1.89516 -2.20759  L -1.41198 -2.5439  L -0.870992 -2.77605  L -0.294348 -2.89456  L 0.294348 -2.89456  L 0.870992 -2.77605  L 1.41198 -2.5439  L 1.89516 -2.20759  L 2.30075 -1.78091  L 2.61215 -1.28132  L 2.81661 -0.72927  L 2.90575 -0.147363  L 2.87593 0.440577  L 2.72838 1.01048  L 2.46912 1.53901  L 2.10877 2.00454  L 1.6621 2.388  L 1.14737 2.67369  L 0.585675 2.84993  L -0 2.90948  z" fill="none" stroke="rgb(217, 95, 2)" /></g><g><path d="M 10.8679 25.1 L 10.8679 -25.1  L 6.85 -25.1  L 6.85 -28.1  L 3.15 -28.1  L 3.15 -25.1  L -3.15 -25.1  L -3.15 -28.1  L -6.85 -28.1  L -6.85 -25.1  L -10.8679 -25.1  L -10.8679 25.1  L -6.85 25.1  L -6.85 28.1  L -3.15 28.1  L -3.15 25.1  L 3.15 25.1  L 3.15 28.1  L 6.85 28.1  L 6.85 25.1  z" fill="none" stroke="rgb(27, 158, 119)" /></g><g><path d="M 10.8679 25.1 L 10.8679 -25.1  L 6.85 -25.1  L 6.85 -28.1  L 3.15 -28.1  L 3.15 -25.1  L -3.15 -25.1  L -3.15 -28.1  L -6.85 -28.1  L -6.85 -25.1  L -10.8679 -25.1  L -10.8679 25.1  L -6.85 25.1  L -6.85 28.1  L -3.15 28.1  L -3.15 25.1  L 3.15 25.1  L 3.15 28.1  L 6.85 28.1  L 6.85 25.1  z" fill="none" stroke="rgb(27, 158, 119)" /></g><g><path d="M 10.8679 25.1 L 10.8679 -25.1  L 6.85 -25.1  L 6.85 -28.1  L 3.15 -28.1  L 3.15 -25.1  L -3.15 -25.1  L -3.15 -28.1  L -6.85 -28.1  L -6.85 -25.1  L -10.8679 -25.1  L -10.8679 25.1  L -6.85 25.1  L -6.85 28.1  L -3.15 28.1  L -3.15 25.1  L 3.15 25.1  L 3.15 28.1  L 6.85 28.1  L 6.85 25.1  z" fill="none" stroke="rgb(27, 158, 119)" /></g><g><path d="M 10.8679 25.1 L 10.8679 -25.1  L 6.85 -25.1  L 6.85 -28.1  L 3.15 -28.1  L 3.15 -25.1  L -3.15 -25.1  L -3.15 -28.1  L -6.85 -28.1  L -6.85 -25.1  L -10.8679 -25.1  L -10.8679 25.1  L -6.85 25.1  L -6.85 28.1  L -3.15 28.1  L -3.15 25.1  L 3.15 25.1  L 3.15 28.1  L 6.85 28.1  L 6.85 25.1  z" fill="none" stroke="rgb(27, 158, 119)" /></g><g><path d="M 10.8679 25.1 L 10.8679 -25.1  L 6.85 -25.1  L 6.85 -28.1  L 3.15 -28.1  L 3.15 -25.1  L -3.15 -25.1  L -3.15 -28.1  L -6.85 -28.1  L -6.85 -25.1  L -10.8679 -25.1  L -10.8679 25.1  L -6.85 25.1  L -6.85 28.1  L -3.15 28.1  L -3.15 25.1  L 3.15 25.1  L 3.15 28.1  L 6.85 28.1  L 6.85 25.1  z" fill="none" stroke="rgb(27, 158, 119)" /></g></svg>