<?xml version="1.0" encoding="utf-8" ?>
<svg baseProfile="full" height="125.4mm" version="1.1" viewBox="-2.0,-30.1,127.96434084913116,125.4" width="127.96434084913116mm" xmlns="http://www.w3.org/2000/svg" xmlns:ev="http://www.w3.org/2001/xml-events" xmlns:xlink="http://www.w3.org/1999/xlink"><defs /><g transform="translate(21.3731, 3)"><path d="M 1.9275 16.6385 L 4.78538 14.9885  L 6.28538 17.5866  L 12.0878 14.2366  L 10.5878 11.6385  L 13.4456 9.98853  L 14.9456 12.5866  L 18.3731 10.6077  L 18.3731 6.65  L 15.3731 6.65  L 15.3731 3.35  L 18.3731 3.35  L 18.3731 -3.35  L 15.3731 -3.35  L 15.3731 -6.65  L 18.3731 -6.65  L 18.3731 -10.6077  L 14.9456 -12.5866  L 13.4456 -9.98853  L 10.5878 -11.6385  L 12.0878 -14.2366  L 6.28538 -17.5866  L 4.78538 -14.9885  L 1.9275 -16.6385  L 3.4275 -19.2366  L 6.15348e-15 -21.2155  L -3.4275 -19.2366  L -1.9275 -16.6385  L -4.78538 -14.9885  L -6.28538 -17.5866  L -12.0878 -14.2366  L -10.5878 -11.6385  L -13.4456 -9.98853  L -14.9456 -12.5866  L -18.3731 -10.6077  L -18.3731 -6.65  L -15.3731 -6.65  L -15.3731 -3.35  L -18.3731 -3.35  L -18.3731 3.35  L -15.3731 3.35  L -15.3731 6.65  L -18.3731 6.65  L -18.3731 10.6077  L -14.9456 12.5866  L -13.4456 9.98853  L -10.5878 11.6385  L -12.0878 14.2366  L -6.28538 17.5866  L -4.78538 14.9885  L -1.9275 16.6385  L -3.4275 19.2366  L 3.07674e-15 21.2155  L 3.4275 19.2366  z" fill="none" stroke="rgb(27, 158, 119)" /><path d="M -0.189167 11.8892 L -0.376453 11.861  L -0.559998 11.8142  L -0.737978 11.7494  L -0.908623 11.6673  L -1.07024 11.5685  L -1.22122 11.4541  L -1.36006 11.3253  L -1.48538 11.1833  L -1.59594 11.0295  L -1.69065 10.8655  L -1.76854 10.6929  L -1.82887 10.5133  L -1.87101 10.3287  L -1.89456 10.1407  L -1.89929 9.95139  L -1.88513 9.76252  L -1.85224 9.57599  L -1.80094 9.39367  L -1.73175 9.21736  L -1.64534 9.04882  L -1.54258 8.88972  L -1.42449 8.74164  L -1.29224 8.60605  L -1.14715 8.4843  L -0.990662 8.37761  L -0.824325 8.28703  L -0.649796 8.21346  L -0.468808 8.15763  L -0.283162 8.1201  L -0.094701 8.10124  L 0.094701 8.10124  L 0.283162 8.1201  L 0.468808 8.15763  L 0.649796 8.21346  L 0.824325 8.28703  L 0.990662 8.37761  L 1.14715 8.4843  L 1.29224 8.60605  L 1.42449 8.74164  L 1.54258 8.88972  L 1.64534 9.04882  L 1.73175 9.21736  L 1.80094 9.39367  L 1.85224 9.57599  L 1.88513 9.76252  L 1.89929 9.95139  L 1.89456 10.1407  L 1.87101 10.3287  L 1.82887 10.5133  L 1.76854 10.6929  L 1.69065 10.8655  L 1.59594 11.0295  L 1.48538 11.1833  L 1.36006 11.3253  L 1.22122 11.4541  L 1.07024 11.5685  L 0.908623 11.6673  L 0.737978 11.7494  L 0.559998 11.8142  L 0.376453 11.861  L 0.189167 11.8892  L -0 11.8986  z" fill="none" stroke="rgb(217, 95, 2)" /><path d="M -0.293713 2.93522 L -0.584506 2.89139  L -0.869491 2.81882  L -1.14583 2.71824  L -1.41079 2.59064  L -1.66172 2.4373  L -1.89614 2.25974  L -2.11172 2.05971  L -2.30631 1.83922  L -2.47797 1.60044  L -2.62501 1.34576  L -2.74596 1.07771  L -2.83962 0.798946  L -2.90506 0.512241  L -2.94163 0.220444  L -2.94896 -0.0735424  L -2.92698 -0.366798  L -2.87592 -0.656409  L -2.79627 -0.939496  L -2.68883 -1.21325  L -2.55467 -1.47494  L -2.39512 -1.72197  L -2.21176 -1.95189  L -2.00642 -2.16241  L -1.78115 -2.35144  L -1.53817 -2.5171  L -1.2799 -2.65775  L -1.00892 -2.77198  L -0.727904 -2.85866  L -0.439656 -2.91693  L -0.147039 -2.94621  L 0.147039 -2.94621  L 0.439656 -2.91693  L 0.727904 -2.85866  L 1.00892 -2.77198  L 1.2799 -2.65775  L 1.53817 -2.5171  L 1.78115 -2.35144  L 2.00642 -2.16241  L 2.21176 -1.95189  L 2.39512 -1.72197  L 2.55467 -1.47494  L 2.68883 -1.21325  L 2.79627 -0.939496  L 2.87592 -0.656409  L 2.92698 -0.366798  L 2.94896 -0.0735424  L 2.94163 0.220444  L 2.90506 0.512241  L 2.83962 0.798946  L 2.74596 1.07771  L 2.62501 1.34576  L 2.47797 1.60044  L 2.30631 1.83922  L 2.11172 2.05971  L 1.89614 2.25974  L 1.66172 2.4373  L 1.41079 2.59064  L 1.14583 2.71824  L 0.869491 2.81882  L 0.584506 2.89139  L 0.293713 2.93522  L -0 2.94988  z" fill="none" stroke="rgb(217, 95, 2)" /><path d="M 8.47109 -3.11081 L 8.2838 -3.13904  L 8.10026 -3.18577  L 7.92228 -3.25055  L 7.75163 -3.33273  L 7.59002 -3.43149  L 7.43904 -3.54585  L 7.3002 -3.67468  L 7.17487 -3.81669  L 7.06431 -3.97047  L 6.96961 -4.1345  L 6.89171 -4.30714  L 6.83139 -4.48668  L 6.78924 -4.67133  L 6.76569 -4.85927  L 6.76097 -5.04861  L 6.77512 -5.23748  L 6.80801 -5.42401  L 6.85931 -5.60633  L 6.92851 -5.78264  L 7.01491 -5.95118  L 7.11767 -6.11028  L 7.23576 -6.25836  L 7.36801 -6.39395  L 7.5131 -6.5157  L 7.66959 -6.62239  L 7.83593 -6.71297  L 8.01046 -6.78654  L 8.19145 -6.84237  L 8.37709 -6.8799  L 8.56555 -6.89876  L 8.75496 -6.89876  L 8.94342 -6.8799  L 9.12906 -6.84237  L 9.31005 -6.78654  L 9.48458 -6.71297  L 9.65092 -6.62239  L 9.80741 -6.5157  L 9.9525 -6.39395  L 10.0847 -6.25836  L 10.2028 -6.11028  L 10.3056 -5.95118  L 10.392 -5.78264  L 10.4612 -5.60633  L 10.5125 -5.42401  L 10.5454 -5.23748  L 10.5595 -5.04861  L 10.5548 -4.85927  L 10.5313 -4.67133  L 10.4891 -4.48668  L 10.4288 -4.30714  L 10.3509 -4.1345  L 10.2562 -3.97047  L 10.1456 -3.81669  L 10.0203 -3.67468  L 9.88147 -3.54585  L 9.73049 -3.43149  L 9.56888 -3.33273  L 9.39823 -3.25055  L 9.22025 -3.18577  L 9.03671 -3.13904  L 8.84942 -3.11081  L 8.66025 -3.10137  z" fill="none" stroke="rgb(217, 95, 2)" /><path d="M -8.84942 -3.11081 L -9.03671 -3.13904  L -9.22025 -3.18577  L -9.39823 -3.25055  L -9.56888 -3.33273  L -9.73049 -3.43149  L -9.88147 -3.54585  L -10.0203 -3.67468  L -10.1456 -3.81669  L -10.2562 -3.97047  L -10.3509 -4.1345  L -10.4288 -4.30714  L -10.4891 -4.48668  L -10.5313 -4.67133  L -10.5548 -4.85927  L -10.5595 -5.04861  L -10.5454 -5.23748  L -10.5125 -5.42401  L -10.4612 -5.60633  L -10.392 -5.78264  L -10.3056 -5.95118  L -10.2028 -6.11028  L -10.0847 -6.25836  L -9.9525 -6.39395  L -9.80741 -6.5157  L -9.65092 -6.62239  L -9.48458 -6.71297  L -9.31005 -6.78654  L -9.12906 -6.84237  L -8.94342 -6.8799  L -8.75496 -6.89876  L -8.56555 -6.89876  L -8.37709 -6.8799  L -8.19145 -6.84237  L -8.01046 -6.78654  L -7.83593 -6.71297  L -7.66959 -6.62239  L -7.5131 -6.5157  L -7.36801 -6.39395  L -7.23576 -6.25836  L -7.11767 -6.11028  L -7.01491 -5.95118  L -6.92851 -5.78264  L -6.85931 -5.60633  L -6.80801 -5.42401  L -6.77512 -5.23748  L -6.76097 -5.04861  L -6.76569 -4.85927  L -6.78924 -4.67133  L -6.83139 -4.48668  L -6.89171 -4.30714  L -6.96961 -4.1345  L -7.06431 -3.97047  L -7.17487 -3.81669  L -7.3002 -3.67468  L -7.43904 -3.54585  L -7.59002 -3.43149  L -7.75163 -3.33273  L -7.92228 -3.25055  L -8.10026 -3.18577  L -8.2838 -3.13904  L -8.47109 -3.11081  L -8.66025 -3.10137  z" fill="none" stroke="rgb(217, 95, 2)" /></g><g transform="translate(61.1194, 3)"><path d="M 1.9275 16.6385 L 4.78538 14.9885  L 6.28538 17.5866  L 12.0878 14.2366  L 10.5878 11.6385  L 13.4456 9.98853  L 14.9456 12.5866  L 18.3731 10.6077  L 18.3731 6.65  L 15.3731 6.65  L 15.3731 3.35  L 18.3731 3.35  L 18.3731 -3.35  L 15.3731 -3.35  L 15.3731 -6.65  L 18.3731 -6.65  L 18.3731 -10.6077  L 14.9456 -12.5866  L 13.4456 -9.98853  L 10.5878 -11.6385  L 12.0878 -14.2366  L 6.28538 -17.5866  L 4.78538 -14.9885  L 1.9275 -16.6385  L 3.4275 -19.2366  L 0 -21.2155  L -3.4275 -19.2366  L -1.9275 -16.6385  L -4.78538 -14.9885  L -6.28538 -17.5866  L -12.0878 -14.2366  L -10.5878 -11.6385  L -13.4456 -9.98853  L -14.9456 -12.5866  L -18.3731 -10.6077  L -18.3731 -6.65  L -15.3731 -6.65  L -15.3731 -3.35  L -18.3731 -3.35  L -18.3731 3.35  L -15.3731 3.35  L -15.3731 6.65  L -18.3731 6.65  L -18.3731 10.6077  L -14.9456 12.5866  L -13.4456 9.98853  L -10.5878 11.6385  L -12.0878 14.2366  L -6.28538 17.5866  L -4.78538 14.9885  L -1.9275 16.6385  L -3.4275 19.2366  L 0 21.2155  L 3.4275 19.2366  z" fill="none" stroke="rgb(27, 158, 119)" /></g><g transform="translate(91.3605, 3)"><path d="M 8.86795 25.1 L 8.86795 -25.1  L 6.825 -25.1  L 6.825 -28.1  L 3.175 -28.1  L 3.175 -25.1  L -3.175 -25.1  L -3.175 -28.1  L -6.825 -28.1  L -6.825 -25.1  L -8.86795 -25.1  L -8.86795 25.1  L -6.825 25.1  L -6.825 28.1  L -3.175 28.1  L -3.175 25.1  L 3.175 25.1  L 3.175 28.1  L 6.825 28.1  L 6.825 25.1  z" fill="none" stroke="rgb(27, 158, 119)" /><path d="M -0.0739122 2.99908 L -0.147779 2.99635  L -0.221557 2.9918  L -0.2952 2.98543  L -0.368664 2.97725  L -0.441904 2.96727  L -0.514876 2.95548  L -0.587535 2.9419  L -0.659837 2.92653  L -0.731739 2.90938  L -0.803197 2.89047  L -0.874167 2.86981  L -0.944606 2.8474  L -1.01447 2.82326  L -1.08372 2.79741  L -1.15231 2.76986  L -1.22021 2.74063  L -1.28736 2.70973  L -1.35373 2.67719  L -1.41928 2.64303  L -1.48396 2.60726  L -1.54775 2.56991  L -1.6106 2.531  L -1.67246 2.49055  L -1.73332 2.44858  L -1.79312 2.40514  L -1.85183 2.36023  L -1.90942 2.31389  L -1.96585 2.26614  L -2.02108 2.21702  L -2.07509 2.16655  L -2.12784 2.11477  L -2.1793 2.0617  L -2.22943 2.00739  L -2.27821 1.95185  L -2.32561 1.89513  L -2.37159 1.83726  L -2.41614 1.77827  L -2.45922 1.7182  L -2.5008 1.65709  L -2.54087 1.59497  L -2.57939 1.53189  L -2.61635 1.46788  L -2.65172 1.40297  L -2.68548 1.33721  L -2.71761 1.27064  L -2.74809 1.2033  L -2.77691 1.13523  L -2.80403 1.06647  L -2.82946 0.997062  L -2.85316 0.927049  L -2.87514 0.856473  L -2.89536 0.785377  L -2.91384 0.713804  L -2.93054 0.641798  L -2.94546 0.569402  L -2.95859 0.49666  L -2.96993 0.423617  L -2.97947 0.350317  L -2.98719 0.276804  L -2.99311 0.203123  L -2.9972 0.129319  L -2.99948 0.0554366  L -2.99994 -0.0184798  L -2.99857 -0.0923849  L -2.99538 -0.166234  L -2.99038 -0.239982  L -2.98356 -0.313585  L -2.97493 -0.386997  L -2.96449 -0.460174  L -2.95225 -0.533072  L -2.93822 -0.605646  L -2.92241 -0.677852  L -2.90482 -0.749647  L -2.88547 -0.820987  L -2.86437 -0.891828  L -2.84152 -0.962128  L -2.81696 -1.03184  L -2.79068 -1.10093  L -2.76271 -1.16935  L -2.73306 -1.23707  L -2.70175 -1.30403  L -2.66881 -1.37019  L -2.63424 -1.43553  L -2.59807 -1.5  L -2.56032 -1.56355  L -2.52103 -1.62616  L -2.4802 -1.68777  L -2.43786 -1.74837  L -2.39405 -1.8079  L -2.34878 -1.86633  L -2.30208 -1.92364  L -2.25399 -1.97977  L -2.20453 -2.0347  L -2.15373 -2.0884  L -2.10162 -2.14083  L -2.04824 -2.19195  L -1.99362 -2.24175  L -1.93778 -2.29019  L -1.88077 -2.33724  L -1.82261 -2.38286  L -1.76335 -2.42704  L -1.70302 -2.46975  L -1.64165 -2.51096  L -1.57929 -2.55064  L -1.51597 -2.58878  L -1.45173 -2.62534  L -1.38661 -2.66031  L -1.32064 -2.69367  L -1.25388 -2.72539  L -1.18635 -2.75545  L -1.1181 -2.78385  L -1.04918 -2.81055  L -0.979614 -2.83554  L -0.909456 -2.85882  L -0.838746 -2.88036  L -0.767526 -2.90015  L -0.695841 -2.91818  L -0.623733 -2.93444  L -0.551247 -2.94891  L -0.478426 -2.9616  L -0.405315 -2.97249  L -0.331957 -2.98157  L -0.258398 -2.98884  L -0.184682 -2.9943  L -0.110854 -2.99794  L -0.0369589 -2.99976  L 0.0369589 -2.99976  L 0.110854 -2.99794  L 0.184682 -2.9943  L 0.258398 -2.98884  L 0.331957 -2.98157  L 0.405315 -2.97249  L 0.478426 -2.9616  L 0.551247 -2.94891  L 0.623733 -2.93444  L 0.695841 -2.91818  L 0.767526 -2.90015  L 0.838746 -2.88036  L 0.909456 -2.85882  L 0.979614 -2.83554  L 1.04918 -2.81055  L 1.1181 -2.78385  L 1.18635 -2.75545  L 1.25388 -2.72539  L 1.32064 -2.69367  L 1.38661 -2.66031  L 1.45173 -2.62534  L 1.51597 -2.58878  L 1.57929 -2.55064  L 1.64165 -2.51096  L 1.70302 -2.46975  L 1.76335 -2.42704  L 1.82261 -2.38286  L 1.88077 -2.33724  L 1.93778 -2.29019  L 1.99362 -2.24175  L 2.04824 -2.19195  L 2.10162 -2.14083  L 2.15373 -2.0884  L 2.20453 -2.0347  L 2.25399 -1.97977  L 2.30208 -1.92364  L 2.34878 -1.86633  L 2.39405 -1.8079  L 2.43786 -1.74837  L 2.4802 -1.68777  L 2.52103 -1.62616  L 2.56032 -1.56355  L 2.59807 -1.5  L 2.63424 -1.43553  L 2.66881 -1.37019  L 2.70175 -1.30403  L 2.73306 -1.23707  L 2.76271 -1.16935  L 2.79068 -1.10093  L 2.81696 -1.03184  L 2.84152 -0.962128  L 2.86437 -0.891828  L 2.88547 -0.820987  L 2.90482 -0.749647  L 2.92241 -0.677852  L 2.93822 -0.605646  L 2.95225 -0.533072  L 2.96449 -0.460174  L 2.97493 -0.386997  L 2.98356 -0.313585  L 2.99038 -0.239982  L 2.99538 -0.166234  L 2.99857 -0.0923849  L 2.99994 -0.0184798  L 2.99948 0.0554366  L 2.9972 0.129319  L 2.99311 0.203123  L 2.98719 0.276804  L 2.97947 0.350317  L 2.96993 0.423617  L 2.95859 0.49666  L 2.94546 0.569402  L 2.93054 0.641798  L 2.91384 0.713804  L 2.89536 0.785377  L 2.87514 0.856473  L 2.85316 0.927049  L 2.82946 0.997062  L 2.80403 1.06647  L 2.77691 1.13523  L 2.74809 1.2033  L 2.71761 1.27064  L 2.68548 1.33721  L 2.65172 1.40297  L 2.61635 1.46788  L 2.57939 1.53189  L 2.54087 1.59497  L 2.5008 1.65709  L 2.45922 1.7182  L 2.41614 1.77827  L 2.37159 1.83726  L 2.32561 1.89513  L 2.27821 1.95185  L 2.22943 2.00739  L 2.1793 2.0617  L 2.12784 2.11477  L 2.07509 2.16655  L 2.02108 2.21702  L 1.96585 2.26614  L 1.90942 2.31389  L 1.85183 2.36023  L 1.79312 2.40514  L 1.73332 2.44858  L 1.67246 2.49055  L 1.6106 2.531  L 1.54775 2.56991  L 1.48396 2.60726  L 1.41928 2.64303  L 1.35373 2.67719  L 1.28736 2.70973  L 1.22021 2.74063  L 1.15231 2.76986  L 1.08372 2.79741  L 1.01447 2.82326  L 0.944606 2.8474  L 0.874167 2.86981  L 0.803197 2.89047  L 0.731739 2.90938  L 0.659837 2.92653  L 0.587535 2.9419  L 0.514876 2.95548  L 0.441904 2.96727  L 0.368664 2.97725  L 0.2952 2.98543  L 0.221557 2.9918  L 0.147779 2.99635  L 0.0739122 2.99908  L -0 2.99999  z" fill="none" stroke="rgb(217, 95, 2)" /></g><g transform="translate(112.096, 3)"><path d="M 8.86795 25.1 L 8.86795 -25.1  L 6.825 -25.1  L 6.825 -28.1  L 3.175 -28.1  L 3.175 -25.1  L -3.175 -25.1  L -3.175 -28.1  L -6.825 -28.1  L -6.825 -25.1  L -8.86795 -25.1  L -8.86795 25.1  L -6.825 25.1  L -6.825 28.1  L -3.175 28.1  L -3.175 25.1  L 3.175 25.1  L 3.175 28.1  L 6.825 28.1  L 6.825 25.1  z" fill="none" stroke="rgb(27, 158, 119)" /></g><g transform="translate(11.8679, 62.2)"><path d="M 8.86795 25.1 L 8.86795 -25.1  L 6.825 -25.1  L 6.825 -28.1  L 3.175 -28.1  L 3.175 -25.1  L -3.175 -25.1  L -3.175 -28.1  L -6.825 -28.1  L -6.825 -25.1  L -8.86795 -25.1  L -8.86795 25.1  L -6.825 25.1  L -6.825 28.1  L -3.175 28.1  L -3.175 25.1  L 3.175 25.1  L 3.175 28.1  L 6.825 28.1  L 6.825 25.1  z" fill="none" stroke="rgb(27, 158, 119)" /></g><g transform="translate(32.6038, 62.2)"><path d="M 8.86795 25.1 L 8.86795 -25.1  L 6.825 -25.1  L 6.825 -28.1  L 3.175 -28.1  L 3.175 -25.1  L -3.175 -25.1  L -3.175 -28.1  L -6.825 -28.1  L -6.825 -25.1  L -8.86795 -25.1  L -8.86795 25.1  L -6.825 25.1  L -6.825 28.1  L -3.175 28.1  L -3.175 25.1  L 3.175 25.1  L 3.175 28.1  L 6.825 28.1  L 6.825 25.1  z" fill="none" stroke="rgb(27, 158, 119)" /></g><g transform="translate(53.3397, 62.2)"><path d="M 8.86795 25.1 L 8.86795 -25.1  L 6.825 -25.1  L 6.825 -28.1  L 3.175 -28.1  L 3.175 -25.1  L -3.175 -25.1  L -3.175 -28.1  L -6.825 -28.1  L -6.825 -25.1  L -8.86795 -25.1  L -8.86795 25.1  L -6.825 25.1  L -6.825 28.1  L -3.175 28.1  L -3.175 25.1  L 3.175 25.1  L 3.175 28.1  L 6.825 28.1  L 6.825 25.1  z" fill="none" stroke="rgb(27, 158, 119)" /></g><g transform="translate(74.0756, 62.2)"><path d="M 8.86795 25.1 L 8.86795 -25.1  L 6.825 -25.1  L 6.825 -28.1  L 3.175 -28.1  L 3.175 -25.1  L -3.175 -25.1  L -3.175 -28.1  L -6.825 -28.1  L -6.825 -25.1  L -8.86795 -25.1  L -8.86795 25.1  L -6.825 25.1  L -6.825 28.1  L -3.175 28.1  L -3.175 25.1  L 3.175 25.1  L 3.175 28.1  L 6.825 28.1  L 6.825 25.1  z" fill="none" stroke="rgb(27, 158, 119)" /></g></svg>