<?xml version="1.0" encoding="utf-8" ?>
<svg baseProfile="full" height="70.89142261149883mm" version="1.1" viewBox="-3.5,-30.1,388.50000000000006,70.89142261149883" width="388.50000000000006mm" xmlns="http://www.w3.org/2000/svg" xmlns:ev="http://www.w3.org/2001/xml-events" xmlns:xlink="http://www.w3.org/1999/xlink"><defs /><g transform="translate(29.6, 3)"><path d="M 17.503 29.5749 L 17.1087 29.5155  L 16.7223 29.4171  L 16.3476 29.2807  L 15.9883 29.1077  L 15.6481 28.8998  L 15.3302 28.659  L 15.0379 28.3878  L 14.774 28.0888  L 14.5413 27.765  L 14.3419 27.4197  L 14.1779 27.0562  L 14.0509 26.6782  L 13.9622 26.2895  L 13.9126 25.8938  L 13.9026 25.4952  L 13.9324 25.0975  L 14.0017 24.7048  L 14.1097 24.321  L 14.2554 23.9498  L 14.4373 23.595  L 14.6536 23.26  L 14.9022 22.9482  L 15.1807 22.6628  L 15.4861 22.4065  L 15.8156 22.1818  L 15.9013 22.1352  L 15.9013 20.1  L 19.9013 20.1  L 19.9013 22.1352  L 19.987 22.1818  L 20.3164 22.4065  L 20.6219 22.6628  L 20.9003 22.9482  L 21.1489 23.26  L 21.3653 23.595  L 21.5472 23.9498  L 21.6929 24.321  L 21.8009 24.7048  L 21.8701 25.0975  L 21.8999 25.4952  L 21.89 25.8938  L 21.8404 26.2895  L 21.7517 26.6782  L 21.6247 27.0562  L 21.4607 27.4197  L 21.2613 27.765  L 21.0285 28.0888  L 20.7647 28.3878  L 20.4723 28.659  L 20.1545 28.8998  L 19.8142 29.1077  L 19.455 29.2807  L 19.0803 29.4171  L 18.6938 29.5155  L 18.2995 29.5749  L 17.9013 29.5948  z" fill="none" stroke="rgb(217, 95, 2)" /><path d="M 18.7964 32.7378 L 19.1513 32.6843  L 19.5031 32.6132  L 19.851 32.5246  L 20.194 32.4188  L 20.5313 32.296  L 20.862 32.1566  L 21.1854 32.0009  L 21.5007 31.8292  L 21.8069 31.642  L 22.1035 31.4398  L 22.3896 31.2231  L 22.6646 30.9924  L 22.9277 30.7483  L 23.1783 30.4913  L 23.4158 30.2222  L 23.6396 29.9415  L 23.8492 29.6501  L 24.0439 29.3486  L 24.2234 29.0377  L 24.3871 28.7183  L 24.5348 28.3912  L 24.6659 28.057  L 24.7802 27.7168  L 24.8774 27.3712  L 24.9573 27.0213  L 25.0196 26.6678  L 25.0643 26.3117  L 25.0911 25.9537  L 25.1 25.5962  L 25.1 -17.1  L 22.1 -17.1  L 22.1 -20.1  L 18.9 -20.1  L 18.9 -17.1  L 15.1 -17.1  L 15.1 -20.1  L 12.1 -20.1  L 12.1 -23.1  L 8.9 -23.1  L 8.9 -20.1  L 5.1 -20.1  L 5.1 -23.1  L -0.1 -23.1  L -0.1 -20.1  L -12.4 -20.1  L -12.4 -23.1  L -25.1 -23.1  L -25.1 -10.1  L -28.1 -10.1  L -28.1 0.1  L -25.1 0.1  L -25.1 9.9  L -28.1 9.9  L -28.1 20.1  L 10.7025 20.1  L 10.7025 25.5962  L 10.7115 25.9537  L 10.7383 26.3117  L 10.7829 26.6678  L 10.8453 27.0213  L 10.9251 27.3712  L 11.0223 27.7168  L 11.1367 28.057  L 11.2678 28.3912  L 11.4154 28.7183  L 11.5792 29.0377  L 11.7586 29.3486  L 11.9534 29.6501  L 12.1629 29.9415  L 12.3867 30.2222  L 12.6242 30.4913  L 12.8748 30.7483  L 13.138 30.9924  L 13.4129 31.2231  L 13.699 31.4398  L 13.9956 31.642  L 14.3019 31.8292  L 14.6171 32.0009  L 14.9405 32.1566  L 15.2713 32.296  L 15.6086 32.4188  L 15.9516 32.5246  L 16.2994 32.6132  L 16.6512 32.6843  L 17.0062 32.7378  L 17.3633 32.7735  L 17.7218 32.7914  L 18.0807 32.7914  L 18.4392 32.7735  z" fill="none" stroke="rgb(27, 158, 119)" /></g><g transform="translate(85.8, 3)"><path d="M -18.2995 29.5749 L -18.6938 29.5155  L -19.0803 29.4171  L -19.455 29.2807  L -19.8142 29.1077  L -20.1545 28.8998  L -20.4723 28.659  L -20.7647 28.3878  L -21.0285 28.0888  L -21.2613 27.765  L -21.4607 27.4197  L -21.6247 27.0562  L -21.7517 26.6782  L -21.8404 26.2895  L -21.89 25.8938  L -21.8999 25.4952  L -21.8701 25.0975  L -21.8009 24.7048  L -21.6929 24.321  L -21.5472 23.9498  L -21.3653 23.595  L -21.1489 23.26  L -20.9003 22.9482  L -20.6219 22.6628  L -20.3164 22.4065  L -19.987 22.1818  L -19.9013 22.1352  L -19.9013 20.1  L -15.9013 20.1  L -15.9013 22.1352  L -15.8156 22.1818  L -15.4861 22.4065  L -15.1807 22.6628  L -14.9022 22.9482  L -14.6536 23.26  L -14.4373 23.595  L -14.2554 23.9498  L -14.1097 24.321  L -14.0017 24.7048  L -13.9324 25.0975  L -13.9026 25.4952  L -13.9126 25.8938  L -13.9622 26.2895  L -14.0509 26.6782  L -14.1779 27.0562  L -14.3419 27.4197  L -14.5413 27.765  L -14.774 28.0888  L -15.0379 28.3878  L -15.3302 28.659  L -15.6481 28.8998  L -15.9883 29.1077  L -16.3476 29.2807  L -16.7223 29.4171  L -17.1087 29.5155  L -17.503 29.5749  L -17.9013 29.5948  z" fill="none" stroke="rgb(217, 95, 2)" /><path d="M -17.0062 32.7378 L -16.6512 32.6843  L -16.2994 32.6132  L -15.9516 32.5246  L -15.6086 32.4188  L -15.2713 32.296  L -14.9405 32.1566  L -14.6171 32.0009  L -14.3019 31.8292  L -13.9956 31.642  L -13.699 31.4398  L -13.4129 31.2231  L -13.138 30.9924  L -12.8748 30.7483  L -12.6242 30.4913  L -12.3867 30.2222  L -12.1629 29.9415  L -11.9534 29.6501  L -11.7586 29.3486  L -11.5792 29.0377  L -11.4154 28.7183  L -11.2678 28.3912  L -11.1367 28.057  L -11.0223 27.7168  L -10.9251 27.3712  L -10.8453 27.0213  L -10.7829 26.6678  L -10.7383 26.3117  L -10.7115 25.9537  L -10.7025 25.5962  L -10.7025 20.1  L 25.1 20.1  L 25.1 10.1  L 28.1 10.1  L 28.1 -0.1  L 25.1 -0.1  L 25.1 -9.9  L 28.1 -9.9  L 28.1 -23.1  L 24.9 -23.1  L 24.9 -20.1  L 12.6 -20.1  L 12.6 -23.1  L -0.1 -23.1  L -0.1 -20.1  L -8.9 -20.1  L -8.9 -23.1  L -12.1 -23.1  L -12.1 -20.1  L -15.1 -20.1  L -15.1 -17.1  L -18.9 -17.1  L -18.9 -20.1  L -22.1 -20.1  L -22.1 -17.1  L -25.1 -17.1  L -25.1 25.5962  L -25.0911 25.9537  L -25.0643 26.3117  L -25.0196 26.6678  L -24.9573 27.0213  L -24.8774 27.3712  L -24.7802 27.7168  L -24.6659 28.057  L -24.5348 28.3912  L -24.3871 28.7183  L -24.2234 29.0377  L -24.0439 29.3486  L -23.8492 29.6501  L -23.6396 29.9415  L -23.4158 30.2222  L -23.1783 30.4913  L -22.9277 30.7483  L -22.6646 30.9924  L -22.3896 31.2231  L -22.1035 31.4398  L -21.8069 31.642  L -21.5007 31.8292  L -21.1854 32.0009  L -20.862 32.1566  L -20.5313 32.296  L -20.194 32.4188  L -19.851 32.5246  L -19.5031 32.6132  L -19.1513 32.6843  L -18.7964 32.7378  L -18.4392 32.7735  L -18.0807 32.7914  L -17.7218 32.7914  L -17.3633 32.7735  z" fill="none" stroke="rgb(27, 158, 119)" /></g><g transform="translate(158.5, 3)"><path d="M 43.1 10.1 L 43.1 -0.1  L 40.1 -0.1  L 40.1 -9.9  L 43.1 -9.9  L 43.1 -23.1  L 39.9 -23.1  L 39.9 -20.1  L 30.1 -20.1  L 30.1 -23.1  L 19.9 -23.1  L 19.9 -20.1  L 10.1 -20.1  L 10.1 -23.1  L -0.1 -23.1  L -0.1 -20.1  L -9.9 -20.1  L -9.9 -23.1  L -20.1 -23.1  L -20.1 -20.1  L -29.9 -20.1  L -29.9 -23.1  L -40.1 -23.1  L -40.1 -10.1  L -43.1 -10.1  L -43.1 0.1  L -40.1 0.1  L -40.1 9.9  L -43.1 9.9  L -43.1 20.1  L 40.1 20.1  L 40.1 10.1  z" fill="none" stroke="rgb(27, 158, 119)" /></g><g transform="translate(247.7, 3)"><path d="M 40.1 -0.1 L 40.1 -12.4  L 43.1 -12.4  L 43.1 -25.1  L 30.1 -25.1  L 30.1 -28.1  L 19.9 -28.1  L 19.9 -25.1  L 10.1 -25.1  L 10.1 -28.1  L -0.1 -28.1  L -0.1 -25.1  L -9.9 -25.1  L -9.9 -28.1  L -20.1 -28.1  L -20.1 -25.1  L -29.9 -25.1  L -29.9 -28.1  L -40.1 -28.1  L -40.1 -12.6  L -43.1 -12.6  L -43.1 0.1  L -40.1 0.1  L -40.1 5.1  L 43.1 5.1  L 43.1 -0.1  z" fill="none" stroke="rgb(27, 158, 119)" /></g><g transform="translate(336.9, 3)"><path d="M 43.1 21.5013 L 43.1 17.3013  L 40.1 17.3013  L 40.1 -26.6  L -40.1 -26.6  L -40.1 17.3013  L -43.1 17.3013  L -43.1 21.5013  L -40.1 21.5013  L -40.1 26.6  L 40.1 26.6  L 40.1 21.5013  z" fill="none" stroke="rgb(27, 158, 119)" /></g></svg>