<?xml version="1.0" encoding="utf-8" ?>
<svg baseProfile="full" height="60.23094010767585mm" version="1.1" viewBox="-26.75063509461097,-30.115470053837925,53.50127018922194,60.23094010767585" width="53.50127018922194mm" xmlns="http://www.w3.org/2000/svg" xmlns:ev="http://www.w3.org/2001/xml-events" xmlns:xlink="http://www.w3.org/1999/xlink"><defs /><g><path d="M 3.62707 19.5573 L 6.46331 17.9198  L 7.96331 20.5179  L 13.7873 17.1554  L 12.2873 14.5573  L 15.1236 12.9198  L 16.6236 15.5179  L 21.7506 12.5577  L 21.7506 6.6375  L 18.7506 6.6375  L 18.7506 3.3625  L 21.7506 3.3625  L 21.7506 -3.3625  L 18.7506 -3.3625  L 18.7506 -6.6375  L 21.7506 -6.6375  L 21.7506 -12.5577  L 16.6236 -15.5179  L 15.1236 -12.9198  L 12.2873 -14.5573  L 13.7873 -17.1554  L 7.96331 -20.5179  L 6.46331 -17.9198  L 3.62707 -19.5573  L 5.12707 -22.1554  L 0 -25.1155  L -5.12707 -22.1554  L -3.62707 -19.5573  L -6.46331 -17.9198  L -7.96331 -20.5179  L -13.7873 -17.1554  L -12.2873 -14.5573  L -15.1236 -12.9198  L -16.6236 -15.5179  L -21.7506 -12.5577  L -21.7506 -6.6375  L -18.7506 -6.6375  L -18.7506 -3.3625  L -21.7506 -3.3625  L -21.7506 3.3625  L -18.7506 3.3625  L -18.7506 6.6375  L -21.7506 6.6375  L -21.7506 12.5577  L -16.6236 15.5179  L -15.1236 12.9198  L -12.2873 14.5573  L -13.7873 17.1554  L -7.96331 20.5179  L -6.46331 17.9198  L -3.62707 19.5573  L -5.12707 22.1554  L 0 25.1155  L 5.12707 22.1554  z" fill="none" stroke="rgb(27, 158, 119)" /><path d="M -14.8981 8.4 L -14.8981 -8.4  L 11.9019 -8.4  L 11.9019 -2.8923  L 12.2953 -2.8923  L 12.8699 -2.77421  L 13.4091 -2.54285  L 13.8906 -2.2077  L 14.2948 -1.78249  L 14.6051 -1.28461  L 14.8088 -0.734459  L 14.8977 -0.154552  L 14.868 0.431366  L 14.7209 0.99931  L 14.4626 1.52603  L 14.1035 1.98995  L 13.6583 2.37209  L 13.1454 2.65681  L 12.5856 2.83244  L 11.9019 2.90196  L 11.9019 8.4  z" fill="none" stroke="rgb(217, 95, 2)" /><path d="M -0.194145 -11.0611 L -0.38636 -11.0901  L -0.574736 -11.138  L -0.7574 -11.2045  L -0.932536 -11.2889  L -1.0984 -11.3902  L -1.25336 -11.5076  L -1.39585 -11.6398  L -1.52447 -11.7855  L -1.63795 -11.9434  L -1.73514 -12.1117  L -1.81509 -12.2889  L -1.877 -12.4732  L -1.92025 -12.6627  L -1.94442 -12.8556  L -1.94927 -13.0499  L -1.93474 -13.2437  L -1.90099 -13.4352  L -1.84834 -13.6223  L -1.77732 -13.8032  L -1.68864 -13.9762  L -1.58318 -14.1395  L -1.46198 -14.2915  L -1.32625 -14.4306  L -1.17734 -14.5556  L -1.01673 -14.6651  L -0.846019 -14.7581  L -0.666897 -14.8336  L -0.481146 -14.8909  L -0.290614 -14.9294  L -0.0971933 -14.9487  L 0.0971933 -14.9487  L 0.290614 -14.9294  L 0.481146 -14.8909  L 0.666897 -14.8336  L 0.846019 -14.7581  L 1.01673 -14.6651  L 1.17734 -14.5556  L 1.32625 -14.4306  L 1.46198 -14.2915  L 1.58318 -14.1395  L 1.68864 -13.9762  L 1.77732 -13.8032  L 1.84834 -13.6223  L 1.90099 -13.4352  L 1.93474 -13.2437  L 1.94927 -13.0499  L 1.94442 -12.8556  L 1.92025 -12.6627  L 1.877 -12.4732  L 1.81509 -12.2889  L 1.73514 -12.1117  L 1.63795 -11.9434  L 1.52447 -11.7855  L 1.39585 -11.6398  L 1.25336 -11.5076  L 1.0984 -11.3902  L 0.932536 -11.2889  L 0.7574 -11.2045  L 0.574736 -11.138  L 0.38636 -11.0901  L 0.194145 -11.0611  L -0 -11.0514  z" fill="none" stroke="rgb(217, 95, 2)" /></g></svg>