<?xml version="1.0" encoding="utf-8" ?>
<svg baseProfile="full" height="87.4618802153517mm" version="1.1" viewBox="-15.286533479473214,3.0,36.57306695894643,87.4618802153517" width="36.57306695894643mm" xmlns="http://www.w3.org/2000/svg" xmlns:ev="http://www.w3.org/2001/xml-events" xmlns:xlink="http://www.w3.org/1999/xlink"><defs /><g><path d="M 4.8842 40.679 L 7.74208 39.029  L 9.24208 41.6271  L 15.0445 38.2771  L 13.5445 35.679  L 16.4023 34.029  L 17.9023 36.6271  L 21.2865 34.6732  L 21.2865 30.7655  L 18.2865 30.7655  L 18.2865 27.4655  L 21.2865 27.4655  L 21.2865 20.7655  L 18.2865 20.7655  L 18.2865 17.4655  L 21.2865 17.4655  L 21.2865 13.5577  L 17.9023 11.6039  L 16.4023 14.2019  L 13.5445 12.5519  L 15.0445 9.95387  L 9.24208 6.60387  L 7.74208 9.20194  L 4.8842 7.55194  L 6.3842 4.95387  L 3 3  L -0.384198 4.95387  L 1.1158 7.55194  L -1.74208 9.20194  L -3.24208 6.60387  L -9.04445 9.95387  L -7.54445 12.5519  L -10.4023 14.2019  L -11.9023 11.6039  L -15.2865 13.5577  L -15.2865 17.4655  L -12.2865 17.4655  L -12.2865 20.7655  L -15.2865 20.7655  L -15.2865 27.4655  L -12.2865 27.4655  L -12.2865 30.7655  L -15.2865 30.7655  L -15.2865 34.6732  L -11.9023 36.6271  L -10.4023 34.029  L -7.54445 35.679  L -9.04445 38.2771  L -3.24208 41.6271  L -1.74208 39.029  L 1.1158 40.679  L -0.384198 43.2771  L 3 45.2309  L 6.3842 43.2771  z" fill="none" stroke="rgb(27, 158, 119)" /><path d="M -11.975 24.5655 L -11.975 23.6655  L 17.975 23.6655  L 17.975 24.5655  z" fill="none" stroke="rgb(217, 95, 2)" /></g><g><path d="M 4.8842 85.9099 L 7.74208 84.2599  L 9.24208 86.858  L 15.0445 83.508  L 13.5445 80.9099  L 16.4023 79.2599  L 17.9023 81.858  L 21.2865 79.9041  L 21.2865 75.9964  L 18.2865 75.9964  L 18.2865 72.6964  L 21.2865 72.6964  L 21.2865 65.9964  L 18.2865 65.9964  L 18.2865 62.6964  L 21.2865 62.6964  L 21.2865 58.7887  L 17.9023 56.8348  L 16.4023 59.4329  L 13.5445 57.7829  L 15.0445 55.1848  L 9.24208 51.8348  L 7.74208 54.4329  L 4.8842 52.7829  L 6.3842 50.1848  L 3 48.2309  L -0.384198 50.1848  L 1.1158 52.7829  L -1.74208 54.4329  L -3.24208 51.8348  L -9.04445 55.1848  L -7.54445 57.7829  L -10.4023 59.4329  L -11.9023 56.8348  L -15.2865 58.7887  L -15.2865 62.6964  L -12.2865 62.6964  L -12.2865 65.9964  L -15.2865 65.9964  L -15.2865 72.6964  L -12.2865 72.6964  L -12.2865 75.9964  L -15.2865 75.9964  L -15.2865 79.9041  L -11.9023 81.858  L -10.4023 79.2599  L -7.54445 80.9099  L -9.04445 83.508  L -3.24208 86.858  L -1.74208 84.2599  L 1.1158 85.9099  L -0.384198 88.508  L 3 90.4619  L 6.3842 88.508  z" fill="none" stroke="rgb(27, 158, 119)" /><path d="M -7.4432 63.6346 L -7.1682 63.1583  L 13.4432 75.0583  L 13.1682 75.5346  z" fill="none" stroke="rgb(217, 95, 2)" /></g></svg>