<?xml version="1.0" encoding="utf-8" ?>
<svg baseProfile="full" height="42.43094010767585mm" version="1.1" viewBox="-15.373136019851664,3.0,36.74627203970333,42.43094010767585" width="36.74627203970333mm" xmlns="http://www.w3.org/2000/svg" xmlns:ev="http://www.w3.org/2001/xml-events" xmlns:xlink="http://www.w3.org/1999/xlink"><defs /><path d="M 6.95489 39.6835 L 14.4182 35.3745  L 15.9182 37.9726  L 21.3731 34.8232  L 21.3731 28.5244  L 18.3731 28.5244  L 18.3731 19.9065  L 21.3731 19.9065  L 21.3731 13.6077  L 15.9182 10.4584  L 14.4182 13.0564  L 6.95489 8.74746  L 8.45489 6.14938  L 3 3  L -2.45489 6.14938  L -0.954887 8.74746  L -8.41825 13.0564  L -9.91825 10.4584  L -15.3731 13.6077  L -15.3731 19.9065  L -12.3731 19.9065  L -12.3731 28.5244  L -15.3731 28.5244  L -15.3731 34.8232  L -9.91825 37.9726  L -8.41825 35.3745  L -0.954887 39.6835  L -2.45489 42.2816  L 3 45.4309  L 8.45489 42.2816  z" fill="none" stroke="blue" /></svg>