<?xml version="1.0" encoding="utf-8" ?>
<svg baseProfile="full" height="42.23094010767585mm" version="1.1" viewBox="-15.286533479473214,3.0,36.57306695894643,42.23094010767585" width="36.57306695894643mm" xmlns="http://www.w3.org/2000/svg" xmlns:ev="http://www.w3.org/2001/xml-events" xmlns:xlink="http://www.w3.org/1999/xlink"><defs /><g><path d="M 4.8842 40.679 L 7.74208 39.029  L 9.24208 41.6271  L 15.0445 38.2771  L 13.5445 35.679  L 16.4023 34.029  L 17.9023 36.6271  L 21.2865 34.6732  L 21.2865 30.7655  L 18.2865 30.7655  L 18.2865 27.4655  L 21.2865 27.4655  L 21.2865 20.7655  L 18.2865 20.7655  L 18.2865 17.4655  L 21.2865 17.4655  L 21.2865 13.5577  L 17.9023 11.6039  L 16.4023 14.2019  L 13.5445 12.5519  L 15.0445 9.95387  L 9.24208 6.60387  L 7.74208 9.20194  L 4.8842 7.55194  L 6.3842 4.95387  L 3 3  L -0.384198 4.95387  L 1.1158 7.55194  L -1.74208 9.20194  L -3.24208 6.60387  L -9.04445 9.95387  L -7.54445 12.5519  L -10.4023 14.2019  L -11.9023 11.6039  L -15.2865 13.5577  L -15.2865 17.4655  L -12.2865 17.4655  L -12.2865 20.7655  L -15.2865 20.7655  L -15.2865 27.4655  L -12.2865 27.4655  L -12.2865 30.7655  L -15.2865 30.7655  L -15.2865 34.6732  L -11.9023 36.6271  L -10.4023 34.029  L -7.54445 35.679  L -9.04445 38.2771  L -3.24208 41.6271  L -1.74208 39.029  L 1.1158 40.679  L -0.384198 43.2771  L 3 45.2309  L 6.3842 43.2771  z" fill="none" stroke="rgb(27, 158, 119)" /></g></svg>