<?xml version="1.0" encoding="utf-8" ?>
<svg baseProfile="full" height="42.23094010767585mm" version="1.1" viewBox="-15.286533479473214,3.0,36.57306695894643,42.23094010767585" width="36.57306695894643mm" xmlns="http://www.w3.org/2000/svg" xmlns:ev="http://www.w3.org/2001/xml-events" xmlns:xlink="http://www.w3.org/1999/xlink"><defs /><g transform="translate(3, 24.1155)"><path d="M 1.8842 16.5635 L 4.74208 14.9135  L 6.24208 17.5116  L 12.0445 14.1616  L 10.5445 11.5635  L 13.4023 9.91353  L 14.9023 12.5116  L 18.2865 10.5577  L 18.2865 6.65  L 15.2865 6.65  L 15.2865 3.35  L 18.2865 3.35  L 18.2865 -3.35  L 15.2865 -3.35  L 15.2865 -6.65  L 18.2865 -6.65  L 18.2865 -10.5577  L 14.9023 -12.5116  L 13.4023 -9.91353  L 10.5445 -11.5635  L 12.0445 -14.1616  L 6.24208 -17.5116  L 4.74208 -14.9135  L 1.8842 -16.5635  L 3.3842 -19.1616  L 3.07674e-15 -21.1155  L -3.3842 -19.1616  L -1.8842 -16.5635  L -4.74208 -14.9135  L -6.24208 -17.5116  L -12.0445 -14.1616  L -10.5445 -11.5635  L -13.4023 -9.91353  L -14.9023 -12.5116  L -18.2865 -10.5577  L -18.2865 -6.65  L -15.2865 -6.65  L -15.2865 -3.35  L -18.2865 -3.35  L -18.2865 3.35  L -15.2865 3.35  L -15.2865 6.65  L -18.2865 6.65  L -18.2865 10.5577  L -14.9023 12.5116  L -13.4023 9.91353  L -10.5445 11.5635  L -12.0445 14.1616  L -6.24208 17.5116  L -4.74208 14.9135  L -1.8842 16.5635  L -3.3842 19.1616  L 0 21.1155  L 3.3842 19.1616  z" fill="none" stroke="rgb(27, 158, 119)" /></g></svg>