<?xml version="1.0" encoding="utf-8" ?>
<svg baseProfile="full" height="42.23094010767585mm" version="1.1" viewBox="-15.286533479473214,3.0,36.57306695894643,42.23094010767585" width="36.57306695894643mm" xmlns="http://www.w3.org/2000/svg" xmlns:ev="http://www.w3.org/2001/xml-events" xmlns:xlink="http://www.w3.org/1999/xlink"><defs /><g><path d="M 4.8842 40.679 L 7.74208 39.029  L 9.24208 41.6271  L 15.0445 38.2771  L 13.5445 35.679  L 16.4023 34.029  L 17.9023 36.6271  L 21.2865 34.6732  L 21.2865 30.7655  L 18.2865 30.7655  L 18.2865 27.4655  L 21.2865 27.4655  L 21.2865 20.7655  L 18.2865 20.7655  L 18.2865 17.4655  L 21.2865 17.4655  L 21.2865 13.5577  L 17.9023 11.6039  L 16.4023 14.2019  L 13.5445 12.5519  L 15.0445 9.95387  L 9.24208 6.60387  L 7.74208 9.20194  L 4.8842 7.55194  L 6.3842 4.95387  L 3 3  L -0.384198 4.95387  L 1.1158 7.55194  L -1.74208 9.20194  L -3.24208 6.60387  L -9.04445 9.95387  L -7.54445 12.5519  L -10.4023 14.2019  L -11.9023 11.6039  L -15.2865 13.5577  L -15.2865 17.4655  L -12.2865 17.4655  L -12.2865 20.7655  L -15.2865 20.7655  L -15.2865 27.4655  L -12.2865 27.4655  L -12.2865 30.7655  L -15.2865 30.7655  L -15.2865 34.6732  L -11.9023 36.6271  L -10.4023 34.029  L -7.54445 35.679  L -9.04445 38.2771  L -3.24208 41.6271  L -1.74208 39.029  L 1.1158 40.679  L -0.384198 43.2771  L 3 45.2309  L 6.3842 43.2771  z" fill="none" stroke="rgb(27, 158, 119)" /><path d="M 11.474 31.0062 L 11.2896 30.9788  L 11.1087 30.9335  L 10.9332 30.8707  L 10.7647 30.791  L 10.6047 30.6952  L 10.455 30.5841  L 10.3168 30.4589  L 10.1916 30.3207  L 10.0806 30.171  L 9.98471 30.0111  L 9.90499 29.8425  L 9.84218 29.667  L 9.79688 29.4861  L 9.76952 29.3017  L 9.76037 29.1155  L 9.76952 28.9292  L 9.79688 28.7448  L 9.84218 28.564  L 9.90499 28.3884  L 9.98471 28.2199  L 10.0806 28.06  L 10.1916 27.9102  L 10.3168 27.7721  L 10.455 27.6468  L 10.6047 27.5358  L 10.7647 27.4399  L 10.9332 27.3602  L 11.1087 27.2974  L 11.2896 27.2521  L 11.474 27.2247  L 11.6603 27.2156  L 11.8465 27.2247  L 12.0309 27.2521  L 12.2118 27.2974  L 12.3873 27.3602  L 12.5559 27.4399  L 12.7158 27.5358  L 12.8655 27.6468  L 13.0037 27.7721  L 13.1289 27.9102  L 13.2399 28.06  L 13.3358 28.2199  L 13.4155 28.3884  L 13.4783 28.564  L 13.5236 28.7448  L 13.551 28.9292  L 13.5601 29.1155  L 13.551 29.3017  L 13.5236 29.4861  L 13.4783 29.667  L 13.4155 29.8425  L 13.3358 30.0111  L 13.2399 30.171  L 13.1289 30.3207  L 13.0037 30.4589  L 12.8655 30.5841  L 12.7158 30.6952  L 12.5559 30.791  L 12.3873 30.8707  L 12.2118 30.9335  L 12.0309 30.9788  L 11.8465 31.0062  L 11.6603 31.0153  z" fill="none" stroke="rgb(217, 95, 2)" /><path d="M 2.71086 27.0511 L 2.42451 27.0087  L 2.1437 26.9383  L 1.87113 26.8408  L 1.60944 26.717  L 1.36113 26.5682  L 1.12862 26.3958  L 0.91412 26.2013  L 0.719712 25.9869  L 0.547265 25.7543  L 0.398439 25.506  L 0.274667 25.2443  L 0.177141 24.9718  L 0.106802 24.691  L 0.0643251 24.4046  L 0.0501206 24.1155  L 0.0643251 23.8263  L 0.106802 23.54  L 0.177141 23.2592  L 0.274667 22.9866  L 0.398439 22.7249  L 0.547265 22.4766  L 0.719712 22.2441  L 0.91412 22.0296  L 1.12862 21.8352  L 1.36113 21.6627  L 1.60944 21.5139  L 1.87113 21.3901  L 2.1437 21.2926  L 2.42451 21.2223  L 2.71086 21.1798  L 3 21.1656  L 3.28914 21.1798  L 3.57549 21.2223  L 3.8563 21.2926  L 4.12887 21.3901  L 4.39056 21.5139  L 4.63887 21.6627  L 4.87138 21.8352  L 5.08588 22.0296  L 5.28029 22.2441  L 5.45274 22.4766  L 5.60156 22.7249  L 5.72533 22.9866  L 5.82286 23.2592  L 5.8932 23.54  L 5.93567 23.8263  L 5.94988 24.1155  L 5.93567 24.4046  L 5.8932 24.691  L 5.82286 24.9718  L 5.72533 25.2443  L 5.60156 25.506  L 5.45274 25.7543  L 5.28029 25.9869  L 5.08588 26.2013  L 4.87138 26.3958  L 4.63887 26.5682  L 4.39056 26.717  L 4.12887 26.8408  L 3.8563 26.9383  L 3.57549 27.0087  L 3.28914 27.0511  L 3 27.0653  z" fill="none" stroke="rgb(217, 95, 2)" /></g></svg>