<?xml version="1.0" encoding="utf-8" ?>
<svg baseProfile="full" height="60.23094010767585mm" version="1.1" viewBox="-26.75063509461097,-30.115470053837925,53.50127018922194,60.23094010767585" width="53.50127018922194mm" xmlns="http://www.w3.org/2000/svg" xmlns:ev="http://www.w3.org/2001/xml-events" xmlns:xlink="http://www.w3.org/1999/xlink"><defs /><g><path d="M 3.62707 19.5573 L 6.46331 17.9198  L 7.96331 20.5179  L 13.7873 17.1554  L 12.2873 14.5573  L 15.1236 12.9198  L 16.6236 15.5179  L 21.7506 12.5577  L 21.7506 6.6375  L 18.7506 6.6375  L 18.7506 3.3625  L 21.7506 3.3625  L 21.7506 -3.3625  L 18.7506 -3.3625  L 18.7506 -6.6375  L 21.7506 -6.6375  L 21.7506 -12.5577  L 16.6236 -15.5179  L 15.1236 -12.9198  L 12.2873 -14.5573  L 13.7873 -17.1554  L 7.96331 -20.5179  L 6.46331 -17.9198  L 3.62707 -19.5573  L 5.12707 -22.1554  L 0 -25.1155  L -5.12707 -22.1554  L -3.62707 -19.5573  L -6.46331 -17.9198  L -7.96331 -20.5179  L -13.7873 -17.1554  L -12.2873 -14.5573  L -15.1236 -12.9198  L -16.6236 -15.5179  L -21.7506 -12.5577  L -21.7506 -6.6375  L -18.7506 -6.6375  L -18.7506 -3.3625  L -21.7506 -3.3625  L -21.7506 3.3625  L -18.7506 3.3625  L -18.7506 6.6375  L -21.7506 6.6375  L -21.7506 12.5577  L -16.6236 15.5179  L -15.1236 12.9198  L -12.2873 14.5573  L -13.7873 17.1554  L -7.96331 20.5179  L -6.46331 17.9198  L -3.62707 19.5573  L -5.12707 22.1554  L 0 25.1155  L 5.12707 22.1554  z" fill="none" stroke="rgb(27, 158, 119)" /></g></svg>