<?xml version="1.0" encoding="utf-8" ?>
<svg baseProfile="full" height="42.43094010767585mm" version="1.1" viewBox="-15.373136019851664,3.0,36.74627203970333,42.43094010767585" width="36.74627203970333mm" xmlns="http://www.w3.org/2000/svg" xmlns:ev="http://www.w3.org/2001/xml-events" xmlns:xlink="http://www.w3.org/1999/xlink"><defs /><path d="M 6.95489 39.6835 L 14.4182 35.3745  L 15.9182 37.9726  L 21.3731 34.8232  L 21.3731 28.5244  L 18.3731 28.5244  L 18.3731 19.9065  L 21.3731 19.9065  L 21.3731 13.6077  L 15.9182 10.4584  L 14.4182 13.0564  L 6.95489 8.74746  L 8.45489 6.14938  L 3 3  L -2.45489 6.14938  L -0.954887 8.74746  L -8.41825 13.0564  L -9.91825 10.4584  L -15.3731 13.6077  L -15.3731 19.9065  L -12.3731 19.9065  L -12.3731 28.5244  L -15.3731 28.5244  L -15.3731 34.8232  L -9.91825 37.9726  L -8.41825 35.3745  L -0.954887 39.6835  L -2.45489 42.2816  L 3 45.4309  L 8.45489 42.2816  z" fill="none" stroke="blue" /><path d="M 11.474 31.1062 L 11.2896 31.0788  L 11.1087 31.0335  L 10.9332 30.9707  L 10.7647 30.891  L 10.6047 30.7952  L 10.455 30.6841  L 10.3168 30.5589  L 10.1916 30.4207  L 10.0806 30.271  L 9.98471 30.1111  L 9.90499 29.9425  L 9.84218 29.767  L 9.79688 29.5861  L 9.76952 29.4017  L 9.76037 29.2155  L 9.76952 29.0292  L 9.79688 28.8448  L 9.84218 28.664  L 9.90499 28.4884  L 9.98471 28.3199  L 10.0806 28.16  L 10.1916 28.0102  L 10.3168 27.8721  L 10.455 27.7468  L 10.6047 27.6358  L 10.7647 27.5399  L 10.9332 27.4602  L 11.1087 27.3974  L 11.2896 27.3521  L 11.474 27.3247  L 11.6603 27.3156  L 11.8465 27.3247  L 12.0309 27.3521  L 12.2118 27.3974  L 12.3873 27.4602  L 12.5559 27.5399  L 12.7158 27.6358  L 12.8655 27.7468  L 13.0037 27.8721  L 13.1289 28.0102  L 13.2399 28.16  L 13.3358 28.3199  L 13.4155 28.4884  L 13.4783 28.664  L 13.5236 28.8448  L 13.551 29.0292  L 13.5601 29.2155  L 13.551 29.4017  L 13.5236 29.5861  L 13.4783 29.767  L 13.4155 29.9425  L 13.3358 30.1111  L 13.2399 30.271  L 13.1289 30.4207  L 13.0037 30.5589  L 12.8655 30.6841  L 12.7158 30.7952  L 12.5559 30.891  L 12.3873 30.9707  L 12.2118 31.0335  L 12.0309 31.0788  L 11.8465 31.1062  L 11.6603 31.1153  z" fill="none" stroke="blue" /><path d="M 2.71086 27.1511 L 2.42451 27.1087  L 2.1437 27.0383  L 1.87113 26.9408  L 1.60944 26.817  L 1.36113 26.6682  L 1.12862 26.4958  L 0.91412 26.3013  L 0.719712 26.0869  L 0.547265 25.8543  L 0.398439 25.606  L 0.274667 25.3443  L 0.177141 25.0718  L 0.106802 24.791  L 0.0643251 24.5046  L 0.0501206 24.2155  L 0.0643251 23.9263  L 0.106802 23.64  L 0.177141 23.3592  L 0.274667 23.0866  L 0.398439 22.8249  L 0.547265 22.5766  L 0.719712 22.3441  L 0.91412 22.1296  L 1.12862 21.9352  L 1.36113 21.7627  L 1.60944 21.6139  L 1.87113 21.4901  L 2.1437 21.3926  L 2.42451 21.3223  L 2.71086 21.2798  L 3 21.2656  L 3.28914 21.2798  L 3.57549 21.3223  L 3.8563 21.3926  L 4.12887 21.4901  L 4.39056 21.6139  L 4.63887 21.7627  L 4.87138 21.9352  L 5.08588 22.1296  L 5.28029 22.3441  L 5.45274 22.5766  L 5.60156 22.8249  L 5.72533 23.0866  L 5.82286 23.3592  L 5.8932 23.64  L 5.93567 23.9263  L 5.94988 24.2155  L 5.93567 24.5046  L 5.8932 24.791  L 5.82286 25.0718  L 5.72533 25.3443  L 5.60156 25.606  L 5.45274 25.8543  L 5.28029 26.0869  L 5.08588 26.3013  L 4.87138 26.4958  L 4.63887 26.6682  L 4.39056 26.817  L 4.12887 26.9408  L 3.8563 27.0383  L 3.57549 27.1087  L 3.28914 27.1511  L 3 27.1653  z" fill="none" stroke="blue" /></svg>