<?xml version="1.0" encoding="utf-8" ?>
<svg baseProfile="full" height="52.43094010767585mm" version="1.1" viewBox="-1.9999999999999964,-23.215470053837926,46.74627203970333,52.43094010767585" width="46.74627203970333mm" xmlns="http://www.w3.org/2000/svg" xmlns:ev="http://www.w3.org/2001/xml-events" xmlns:xlink="http://www.w3.org/1999/xlink"><defs /><g transform="translate(21.3731, 3)"><path d="M 1.9275 16.6385 L 4.78538 14.9885  L 6.28538 17.5866  L 12.0878 14.2366  L 10.5878 11.6385  L 13.4456 9.98853  L 14.9456 12.5866  L 18.3731 10.6077  L 18.3731 6.65  L 15.3731 6.65  L 15.3731 3.35  L 18.3731 3.35  L 18.3731 -3.35  L 15.3731 -3.35  L 15.3731 -6.65  L 18.3731 -6.65  L 18.3731 -10.6077  L 14.9456 -12.5866  L 13.4456 -9.98853  L 10.5878 -11.6385  L 12.0878 -14.2366  L 6.28538 -17.5866  L 4.78538 -14.9885  L 1.9275 -16.6385  L 3.4275 -19.2366  L 6.15348e-15 -21.2155  L -3.4275 -19.2366  L -1.9275 -16.6385  L -4.78538 -14.9885  L -6.28538 -17.5866  L -12.0878 -14.2366  L -10.5878 -11.6385  L -13.4456 -9.98853  L -14.9456 -12.5866  L -18.3731 -10.6077  L -18.3731 -6.65  L -15.3731 -6.65  L -15.3731 -3.35  L -18.3731 -3.35  L -18.3731 3.35  L -15.3731 3.35  L -15.3731 6.65  L -18.3731 6.65  L -18.3731 10.6077  L -14.9456 12.5866  L -13.4456 9.98853  L -10.5878 11.6385  L -12.0878 14.2366  L -6.28538 17.5866  L -4.78538 14.9885  L -1.9275 16.6385  L -3.4275 19.2366  L 3.07674e-15 21.2155  L 3.4275 19.2366  z" fill="none" stroke="rgb(27, 158, 119)" /><path d="M -0.189167 11.8892 L -0.376453 11.861  L -0.559998 11.8142  L -0.737978 11.7494  L -0.908623 11.6673  L -1.07024 11.5685  L -1.22122 11.4541  L -1.36006 11.3253  L -1.48538 11.1833  L -1.59594 11.0295  L -1.69065 10.8655  L -1.76854 10.6929  L -1.82887 10.5133  L -1.87101 10.3287  L -1.89456 10.1407  L -1.89929 9.95139  L -1.88513 9.76252  L -1.85224 9.57599  L -1.80094 9.39367  L -1.73175 9.21736  L -1.64534 9.04882  L -1.54258 8.88972  L -1.42449 8.74164  L -1.29224 8.60605  L -1.14715 8.4843  L -0.990662 8.37761  L -0.824325 8.28703  L -0.649796 8.21346  L -0.468808 8.15763  L -0.283162 8.1201  L -0.094701 8.10124  L 0.094701 8.10124  L 0.283162 8.1201  L 0.468808 8.15763  L 0.649796 8.21346  L 0.824325 8.28703  L 0.990662 8.37761  L 1.14715 8.4843  L 1.29224 8.60605  L 1.42449 8.74164  L 1.54258 8.88972  L 1.64534 9.04882  L 1.73175 9.21736  L 1.80094 9.39367  L 1.85224 9.57599  L 1.88513 9.76252  L 1.89929 9.95139  L 1.89456 10.1407  L 1.87101 10.3287  L 1.82887 10.5133  L 1.76854 10.6929  L 1.69065 10.8655  L 1.59594 11.0295  L 1.48538 11.1833  L 1.36006 11.3253  L 1.22122 11.4541  L 1.07024 11.5685  L 0.908623 11.6673  L 0.737978 11.7494  L 0.559998 11.8142  L 0.376453 11.861  L 0.189167 11.8892  L -0 11.8986  z" fill="none" stroke="rgb(217, 95, 2)" /><path d="M -0.293713 2.93522 L -0.584506 2.89139  L -0.869491 2.81882  L -1.14583 2.71824  L -1.41079 2.59064  L -1.66172 2.4373  L -1.89614 2.25974  L -2.11172 2.05971  L -2.30631 1.83922  L -2.47797 1.60044  L -2.62501 1.34576  L -2.74596 1.07771  L -2.83962 0.798946  L -2.90506 0.512241  L -2.94163 0.220444  L -2.94896 -0.0735424  L -2.92698 -0.366798  L -2.87592 -0.656409  L -2.79627 -0.939496  L -2.68883 -1.21325  L -2.55467 -1.47494  L -2.39512 -1.72197  L -2.21176 -1.95189  L -2.00642 -2.16241  L -1.78115 -2.35144  L -1.53817 -2.5171  L -1.2799 -2.65775  L -1.00892 -2.77198  L -0.727904 -2.85866  L -0.439656 -2.91693  L -0.147039 -2.94621  L 0.147039 -2.94621  L 0.439656 -2.91693  L 0.727904 -2.85866  L 1.00892 -2.77198  L 1.2799 -2.65775  L 1.53817 -2.5171  L 1.78115 -2.35144  L 2.00642 -2.16241  L 2.21176 -1.95189  L 2.39512 -1.72197  L 2.55467 -1.47494  L 2.68883 -1.21325  L 2.79627 -0.939496  L 2.87592 -0.656409  L 2.92698 -0.366798  L 2.94896 -0.0735424  L 2.94163 0.220444  L 2.90506 0.512241  L 2.83962 0.798946  L 2.74596 1.07771  L 2.62501 1.34576  L 2.47797 1.60044  L 2.30631 1.83922  L 2.11172 2.05971  L 1.89614 2.25974  L 1.66172 2.4373  L 1.41079 2.59064  L 1.14583 2.71824  L 0.869491 2.81882  L 0.584506 2.89139  L 0.293713 2.93522  L -0 2.94988  z" fill="none" stroke="rgb(217, 95, 2)" /><path d="M 8.47109 -3.11081 L 8.2838 -3.13904  L 8.10026 -3.18577  L 7.92228 -3.25055  L 7.75163 -3.33273  L 7.59002 -3.43149  L 7.43904 -3.54585  L 7.3002 -3.67468  L 7.17487 -3.81669  L 7.06431 -3.97047  L 6.96961 -4.1345  L 6.89171 -4.30714  L 6.83139 -4.48668  L 6.78924 -4.67133  L 6.76569 -4.85927  L 6.76097 -5.04861  L 6.77512 -5.23748  L 6.80801 -5.42401  L 6.85931 -5.60633  L 6.92851 -5.78264  L 7.01491 -5.95118  L 7.11767 -6.11028  L 7.23576 -6.25836  L 7.36801 -6.39395  L 7.5131 -6.5157  L 7.66959 -6.62239  L 7.83593 -6.71297  L 8.01046 -6.78654  L 8.19145 -6.84237  L 8.37709 -6.8799  L 8.56555 -6.89876  L 8.75496 -6.89876  L 8.94342 -6.8799  L 9.12906 -6.84237  L 9.31005 -6.78654  L 9.48458 -6.71297  L 9.65092 -6.62239  L 9.80741 -6.5157  L 9.9525 -6.39395  L 10.0847 -6.25836  L 10.2028 -6.11028  L 10.3056 -5.95118  L 10.392 -5.78264  L 10.4612 -5.60633  L 10.5125 -5.42401  L 10.5454 -5.23748  L 10.5595 -5.04861  L 10.5548 -4.85927  L 10.5313 -4.67133  L 10.4891 -4.48668  L 10.4288 -4.30714  L 10.3509 -4.1345  L 10.2562 -3.97047  L 10.1456 -3.81669  L 10.0203 -3.67468  L 9.88147 -3.54585  L 9.73049 -3.43149  L 9.56888 -3.33273  L 9.39823 -3.25055  L 9.22025 -3.18577  L 9.03671 -3.13904  L 8.84942 -3.11081  L 8.66025 -3.10137  z" fill="none" stroke="rgb(217, 95, 2)" /><path d="M -8.84942 -3.11081 L -9.03671 -3.13904  L -9.22025 -3.18577  L -9.39823 -3.25055  L -9.56888 -3.33273  L -9.73049 -3.43149  L -9.88147 -3.54585  L -10.0203 -3.67468  L -10.1456 -3.81669  L -10.2562 -3.97047  L -10.3509 -4.1345  L -10.4288 -4.30714  L -10.4891 -4.48668  L -10.5313 -4.67133  L -10.5548 -4.85927  L -10.5595 -5.04861  L -10.5454 -5.23748  L -10.5125 -5.42401  L -10.4612 -5.60633  L -10.392 -5.78264  L -10.3056 -5.95118  L -10.2028 -6.11028  L -10.0847 -6.25836  L -9.9525 -6.39395  L -9.80741 -6.5157  L -9.65092 -6.62239  L -9.48458 -6.71297  L -9.31005 -6.78654  L -9.12906 -6.84237  L -8.94342 -6.8799  L -8.75496 -6.89876  L -8.56555 -6.89876  L -8.37709 -6.8799  L -8.19145 -6.84237  L -8.01046 -6.78654  L -7.83593 -6.71297  L -7.66959 -6.62239  L -7.5131 -6.5157  L -7.36801 -6.39395  L -7.23576 -6.25836  L -7.11767 -6.11028  L -7.01491 -5.95118  L -6.92851 -5.78264  L -6.85931 -5.60633  L -6.80801 -5.42401  L -6.77512 -5.23748  L -6.76097 -5.04861  L -6.76569 -4.85927  L -6.78924 -4.67133  L -6.83139 -4.48668  L -6.89171 -4.30714  L -6.96961 -4.1345  L -7.06431 -3.97047  L -7.17487 -3.81669  L -7.3002 -3.67468  L -7.43904 -3.54585  L -7.59002 -3.43149  L -7.75163 -3.33273  L -7.92228 -3.25055  L -8.10026 -3.18577  L -8.2838 -3.13904  L -8.47109 -3.11081  L -8.66025 -3.10137  z" fill="none" stroke="rgb(217, 95, 2)" /></g></svg>