<?xml version="1.0" encoding="utf-8" ?>
<svg baseProfile="full" height="42.23094010767585mm" version="1.1" viewBox="-15.286533479473214,3.0,36.57306695894643,42.23094010767585" width="36.57306695894643mm" xmlns="http://www.w3.org/2000/svg" xmlns:ev="http://www.w3.org/2001/xml-events" xmlns:xlink="http://www.w3.org/1999/xlink"><defs /><g transform="translate(3, 24.1155)"><path d="M 1.8842 16.5635 L 4.74208 14.9135  L 6.24208 17.5116  L 12.0445 14.1616  L 10.5445 11.5635  L 13.4023 9.91353  L 14.9023 12.5116  L 18.2865 10.5577  L 18.2865 6.65  L 15.2865 6.65  L 15.2865 3.35  L 18.2865 3.35  L 18.2865 -3.35  L 15.2865 -3.35  L 15.2865 -6.65  L 18.2865 -6.65  L 18.2865 -10.5577  L 14.9023 -12.5116  L 13.4023 -9.91353  L 10.5445 -11.5635  L 12.0445 -14.1616  L 6.24208 -17.5116  L 4.74208 -14.9135  L 1.8842 -16.5635  L 3.3842 -19.1616  L 3.07674e-15 -21.1155  L -3.3842 -19.1616  L -1.8842 -16.5635  L -4.74208 -14.9135  L -6.24208 -17.5116  L -12.0445 -14.1616  L -10.5445 -11.5635  L -13.4023 -9.91353  L -14.9023 -12.5116  L -18.2865 -10.5577  L -18.2865 -6.65  L -15.2865 -6.65  L -15.2865 -3.35  L -18.2865 -3.35  L -18.2865 3.35  L -15.2865 3.35  L -15.2865 6.65  L -18.2865 6.65  L -18.2865 10.5577  L -14.9023 12.5116  L -13.4023 9.91353  L -10.5445 11.5635  L -12.0445 14.1616  L -6.24208 17.5116  L -4.74208 14.9135  L -1.8842 16.5635  L -3.3842 19.1616  L 0 21.1155  L 3.3842 19.1616  z" fill="none" stroke="rgb(27, 158, 119)" /><path d="M 8.47403 6.89073 L 8.28961 6.86337  L 8.10875 6.81807  L 7.9332 6.75526  L 7.76466 6.67554  L 7.60474 6.57969  L 7.45498 6.46863  L 7.31684 6.34342  L 7.19163 6.20527  L 7.08056 6.05552  L 6.98471 5.8956  L 6.90499 5.72705  L 6.84218 5.55151  L 6.79688 5.37065  L 6.76952 5.18622  L 6.76037 5  L 6.76952 4.81378  L 6.79688 4.62935  L 6.84218 4.44849  L 6.90499 4.27295  L 6.98471 4.1044  L 7.08056 3.94448  L 7.19163 3.79473  L 7.31684 3.65658  L 7.45498 3.53137  L 7.60474 3.42031  L 7.76466 3.32446  L 7.9332 3.24474  L 8.10875 3.18193  L 8.28961 3.13663  L 8.47403 3.10927  L 8.66025 3.10012  L 8.84647 3.10927  L 9.0309 3.13663  L 9.21176 3.18193  L 9.38731 3.24474  L 9.55585 3.32446  L 9.71577 3.42031  L 9.86552 3.53137  L 10.0037 3.65658  L 10.1289 3.79473  L 10.2399 3.94448  L 10.3358 4.1044  L 10.4155 4.27295  L 10.4783 4.44849  L 10.5236 4.62935  L 10.551 4.81378  L 10.5601 5  L 10.551 5.18622  L 10.5236 5.37065  L 10.4783 5.55151  L 10.4155 5.72705  L 10.3358 5.8956  L 10.2399 6.05552  L 10.1289 6.20527  L 10.0037 6.34342  L 9.86552 6.46863  L 9.71577 6.57969  L 9.55585 6.67554  L 9.38731 6.75526  L 9.21176 6.81807  L 9.0309 6.86337  L 8.84647 6.89073  L 8.66025 6.89988  z" fill="none" stroke="rgb(217, 95, 2)" /><path d="M -0.289139 2.93567 L -0.575493 2.8932  L -0.856305 2.82286  L -1.12887 2.72533  L -1.39056 2.60156  L -1.63887 2.45274  L -1.87138 2.28029  L -2.08588 2.08588  L -2.28029 1.87138  L -2.45274 1.63887  L -2.60156 1.39056  L -2.72533 1.12887  L -2.82286 0.856305  L -2.8932 0.575493  L -2.93567 0.289139  L -2.94988 -7.10543e-15  L -2.93567 -0.289139  L -2.8932 -0.575493  L -2.82286 -0.856305  L -2.72533 -1.12887  L -2.60156 -1.39056  L -2.45274 -1.63887  L -2.28029 -1.87138  L -2.08588 -2.08588  L -1.87138 -2.28029  L -1.63887 -2.45274  L -1.39056 -2.60156  L -1.12887 -2.72533  L -0.856305 -2.82286  L -0.575493 -2.8932  L -0.289139 -2.93567  L -0 -2.94988  L 0.289139 -2.93567  L 0.575493 -2.8932  L 0.856305 -2.82286  L 1.12887 -2.72533  L 1.39056 -2.60156  L 1.63887 -2.45274  L 1.87138 -2.28029  L 2.08588 -2.08588  L 2.28029 -1.87138  L 2.45274 -1.63887  L 2.60156 -1.39056  L 2.72533 -1.12887  L 2.82286 -0.856305  L 2.8932 -0.575493  L 2.93567 -0.289139  L 2.94988 0  L 2.93567 0.289139  L 2.8932 0.575493  L 2.82286 0.856305  L 2.72533 1.12887  L 2.60156 1.39056  L 2.45274 1.63887  L 2.28029 1.87138  L 2.08588 2.08588  L 1.87138 2.28029  L 1.63887 2.45274  L 1.39056 2.60156  L 1.12887 2.72533  L 0.856305 2.82286  L 0.575493 2.8932  L 0.289139 2.93567  L -0 2.94988  z" fill="none" stroke="rgb(217, 95, 2)" /></g></svg>