<?xml version="1.0" encoding="utf-8" ?>
<svg baseProfile="full" height="52.43094010767585mm" version="1.1" viewBox="-2.0,-23.215470053837926,46.74627203970333,52.43094010767585" width="46.74627203970333mm" xmlns="http://www.w3.org/2000/svg" xmlns:ev="http://www.w3.org/2001/xml-events" xmlns:xlink="http://www.w3.org/1999/xlink"><defs /><g transform="translate(21.3731, 3)"><path d="M 1.9275 16.6385 L 4.78538 14.9885  L 6.28538 17.5866  L 12.0878 14.2366  L 10.5878 11.6385  L 13.4456 9.98853  L 14.9456 12.5866  L 18.3731 10.6077  L 18.3731 6.65  L 15.3731 6.65  L 15.3731 3.35  L 18.3731 3.35  L 18.3731 -3.35  L 15.3731 -3.35  L 15.3731 -6.65  L 18.3731 -6.65  L 18.3731 -10.6077  L 14.9456 -12.5866  L 13.4456 -9.98853  L 10.5878 -11.6385  L 12.0878 -14.2366  L 6.28538 -17.5866  L 4.78538 -14.9885  L 1.9275 -16.6385  L 3.4275 -19.2366  L 0 -21.2155  L -3.4275 -19.2366  L -1.9275 -16.6385  L -4.78538 -14.9885  L -6.28538 -17.5866  L -12.0878 -14.2366  L -10.5878 -11.6385  L -13.4456 -9.98853  L -14.9456 -12.5866  L -18.3731 -10.6077  L -18.3731 -6.65  L -15.3731 -6.65  L -15.3731 -3.35  L -18.3731 -3.35  L -18.3731 3.35  L -15.3731 3.35  L -15.3731 6.65  L -18.3731 6.65  L -18.3731 10.6077  L -14.9456 12.5866  L -13.4456 9.98853  L -10.5878 11.6385  L -12.0878 14.2366  L -6.28538 17.5866  L -4.78538 14.9885  L -1.9275 16.6385  L -3.4275 19.2366  L 0 21.2155  L 3.4275 19.2366  z" fill="none" stroke="rgb(27, 158, 119)" /><path d="M -0.194145 1.94019 L -0.38636 1.91121  L -0.574736 1.86325  L -0.7574 1.79676  L -0.932536 1.71242  L -1.0984 1.61106  L -1.25336 1.49369  L -1.39585 1.36147  L -1.52447 1.21573  L -1.63795 1.0579  L -1.73514 0.889554  L -1.81509 0.71237  L -1.877 0.528105  L -1.92025 0.338592  L -1.94442 0.145714  L -1.94927 -0.0486117  L -1.93474 -0.242455  L -1.90099 -0.433888  L -1.84834 -0.621009  L -1.77732 -0.801959  L -1.68864 -0.974938  L -1.58318 -1.13823  L -1.46198 -1.29021  L -1.32625 -1.42936  L -1.17734 -1.55431  L -1.01673 -1.66381  L -0.846019 -1.75678  L -0.666897 -1.83228  L -0.481146 -1.88958  L -0.290614 -1.9281  L -0.0971933 -1.94745  L 0.0971933 -1.94745  L 0.290614 -1.9281  L 0.481146 -1.88958  L 0.666897 -1.83228  L 0.846019 -1.75678  L 1.01673 -1.66381  L 1.17734 -1.55431  L 1.32625 -1.42936  L 1.46198 -1.29021  L 1.58318 -1.13823  L 1.68864 -0.974938  L 1.77732 -0.801959  L 1.84834 -0.621009  L 1.90099 -0.433888  L 1.93474 -0.242455  L 1.94927 -0.0486117  L 1.94442 0.145714  L 1.92025 0.338592  L 1.877 0.528105  L 1.81509 0.71237  L 1.73514 0.889554  L 1.63795 1.0579  L 1.52447 1.21573  L 1.39585 1.36147  L 1.25336 1.49369  L 1.0984 1.61106  L 0.932536 1.71242  L 0.7574 1.79676  L 0.574736 1.86325  L 0.38636 1.91121  L 0.194145 1.94019  L -0 1.94988  z" fill="none" stroke="rgb(217, 95, 2)" /></g></svg>