<?xml version="1.0" encoding="utf-8" ?>
<svg baseProfile="full" height="60.23094010767585mm" version="1.1" viewBox="-26.75063509461097,-30.115470053837925,53.50127018922194,60.23094010767585" width="53.50127018922194mm" xmlns="http://www.w3.org/2000/svg" xmlns:ev="http://www.w3.org/2001/xml-events" xmlns:xlink="http://www.w3.org/1999/xlink"><defs /><g><path d="M 3.62707 19.5573 L 6.46331 17.9198  L 7.96331 20.5179  L 13.7873 17.1554  L 12.2873 14.5573  L 15.1236 12.9198  L 16.6236 15.5179  L 21.7506 12.5577  L 21.7506 6.6375  L 18.7506 6.6375  L 18.7506 3.3625  L 21.7506 3.3625  L 21.7506 -3.3625  L 18.7506 -3.3625  L 18.7506 -6.6375  L 21.7506 -6.6375  L 21.7506 -12.5577  L 16.6236 -15.5179  L 15.1236 -12.9198  L 12.2873 -14.5573  L 13.7873 -17.1554  L 7.96331 -20.5179  L 6.46331 -17.9198  L 3.62707 -19.5573  L 5.12707 -22.1554  L 0 -25.1155  L -5.12707 -22.1554  L -3.62707 -19.5573  L -6.46331 -17.9198  L -7.96331 -20.5179  L -13.7873 -17.1554  L -12.2873 -14.5573  L -15.1236 -12.9198  L -16.6236 -15.5179  L -21.7506 -12.5577  L -21.7506 -6.6375  L -18.7506 -6.6375  L -18.7506 -3.3625  L -21.7506 -3.3625  L -21.7506 3.3625  L -18.7506 3.3625  L -18.7506 6.6375  L -21.7506 6.6375  L -21.7506 12.5577  L -16.6236 15.5179  L -15.1236 12.9198  L -12.2873 14.5573  L -13.7873 17.1554  L -7.96331 20.5179  L -6.46331 17.9198  L -3.62707 19.5573  L -5.12707 22.1554  L 0 25.1155  L 5.12707 22.1554  z" fill="none" stroke="rgb(27, 158, 119)" /><path d="M -0.293713 2.93522 L -0.584506 2.89139  L -0.869491 2.81882  L -1.14583 2.71824  L -1.41079 2.59064  L -1.66172 2.4373  L -1.89614 2.25974  L -2.11172 2.05971  L -2.30631 1.83922  L -2.47797 1.60044  L -2.62501 1.34576  L -2.74596 1.07771  L -2.83962 0.798946  L -2.90506 0.512241  L -2.94163 0.220444  L -2.94896 -0.0735424  L -2.92698 -0.366798  L -2.87592 -0.656409  L -2.79627 -0.939496  L -2.68883 -1.21325  L -2.55467 -1.47494  L -2.39512 -1.72197  L -2.21176 -1.95189  L -2.00642 -2.16241  L -1.78115 -2.35144  L -1.53817 -2.5171  L -1.2799 -2.65775  L -1.00892 -2.77198  L -0.727904 -2.85866  L -0.439656 -2.91693  L -0.147039 -2.94621  L 0.147039 -2.94621  L 0.439656 -2.91693  L 0.727904 -2.85866  L 1.00892 -2.77198  L 1.2799 -2.65775  L 1.53817 -2.5171  L 1.78115 -2.35144  L 2.00642 -2.16241  L 2.21176 -1.95189  L 2.39512 -1.72197  L 2.55467 -1.47494  L 2.68883 -1.21325  L 2.79627 -0.939496  L 2.87592 -0.656409  L 2.92698 -0.366798  L 2.94896 -0.0735424  L 2.94163 0.220444  L 2.90506 0.512241  L 2.83962 0.798946  L 2.74596 1.07771  L 2.62501 1.34576  L 2.47797 1.60044  L 2.30631 1.83922  L 2.11172 2.05971  L 1.89614 2.25974  L 1.66172 2.4373  L 1.41079 2.59064  L 1.14583 2.71824  L 0.869491 2.81882  L 0.584506 2.89139  L 0.293713 2.93522  L -0 2.94988  z" fill="none" stroke="rgb(217, 95, 2)" /></g></svg>