<?xml version="1.0" encoding="utf-8" ?>
<svg baseProfile="full" height="52.43094010767585mm" version="1.1" viewBox="-2.0,-23.215470053837926,46.74627203970333,52.43094010767585" width="46.74627203970333mm" xmlns="http://www.w3.org/2000/svg" xmlns:ev="http://www.w3.org/2001/xml-events" xmlns:xlink="http://www.w3.org/1999/xlink"><defs /><g transform="translate(21.3731, 3)"><path d="M 1.9275 16.6385 L 4.78538 14.9885  L 6.28538 17.5866  L 12.0878 14.2366  L 10.5878 11.6385  L 13.4456 9.98853  L 14.9456 12.5866  L 18.3731 10.6077  L 18.3731 6.65  L 15.3731 6.65  L 15.3731 3.35  L 18.3731 3.35  L 18.3731 -3.35  L 15.3731 -3.35  L 15.3731 -6.65  L 18.3731 -6.65  L 18.3731 -10.6077  L 14.9456 -12.5866  L 13.4456 -9.98853  L 10.5878 -11.6385  L 12.0878 -14.2366  L 6.28538 -17.5866  L 4.78538 -14.9885  L 1.9275 -16.6385  L 3.4275 -19.2366  L 0 -21.2155  L -3.4275 -19.2366  L -1.9275 -16.6385  L -4.78538 -14.9885  L -6.28538 -17.5866  L -12.0878 -14.2366  L -10.5878 -11.6385  L -13.4456 -9.98853  L -14.9456 -12.5866  L -18.3731 -10.6077  L -18.3731 -6.65  L -15.3731 -6.65  L -15.3731 -3.35  L -18.3731 -3.35  L -18.3731 3.35  L -15.3731 3.35  L -15.3731 6.65  L -18.3731 6.65  L -18.3731 10.6077  L -14.9456 12.5866  L -13.4456 9.98853  L -10.5878 11.6385  L -12.0878 14.2366  L -6.28538 17.5866  L -4.78538 14.9885  L -1.9275 16.6385  L -3.4275 19.2366  L 0 21.2155  L 3.4275 19.2366  z" fill="none" stroke="rgb(27, 158, 119)" /><path d="M -0.293713 2.93522 L -0.584506 2.89139  L -0.869491 2.81882  L -1.14583 2.71824  L -1.41079 2.59064  L -1.66172 2.4373  L -1.89614 2.25974  L -2.11172 2.05971  L -2.30631 1.83922  L -2.47797 1.60044  L -2.62501 1.34576  L -2.74596 1.07771  L -2.83962 0.798946  L -2.90506 0.512241  L -2.94163 0.220444  L -2.94896 -0.0735424  L -2.92698 -0.366798  L -2.87592 -0.656409  L -2.79627 -0.939496  L -2.68883 -1.21325  L -2.55467 -1.47494  L -2.39512 -1.72197  L -2.21176 -1.95189  L -2.00642 -2.16241  L -1.78115 -2.35144  L -1.53817 -2.5171  L -1.2799 -2.65775  L -1.00892 -2.77198  L -0.727904 -2.85866  L -0.439656 -2.91693  L -0.147039 -2.94621  L 0.147039 -2.94621  L 0.439656 -2.91693  L 0.727904 -2.85866  L 1.00892 -2.77198  L 1.2799 -2.65775  L 1.53817 -2.5171  L 1.78115 -2.35144  L 2.00642 -2.16241  L 2.21176 -1.95189  L 2.39512 -1.72197  L 2.55467 -1.47494  L 2.68883 -1.21325  L 2.79627 -0.939496  L 2.87592 -0.656409  L 2.92698 -0.366798  L 2.94896 -0.0735424  L 2.94163 0.220444  L 2.90506 0.512241  L 2.83962 0.798946  L 2.74596 1.07771  L 2.62501 1.34576  L 2.47797 1.60044  L 2.30631 1.83922  L 2.11172 2.05971  L 1.89614 2.25974  L 1.66172 2.4373  L 1.41079 2.59064  L 1.14583 2.71824  L 0.869491 2.81882  L 0.584506 2.89139  L 0.293713 2.93522  L -0 2.94988  z" fill="none" stroke="rgb(217, 95, 2)" /></g></svg>