<?xml version="1.0" encoding="utf-8" standalone="no"?>
        <!DOCTYPE svg PUBLIC "-//W3C//DTD SVG 1.1//EN" "http://www.w3.org/Graphics/SVG/1.1/DTD/svg11.dtd">
         <svg xmlns="http://www.w3.org/2000/svg" width="265mm" height="265mm" viewbox="0 0 265 265">
<path style="fill:none;stroke:rgb(217, 95, 2);stroke-width:1mm;" d="M 971.339, 26.4567 L 820.157, 26.4567 L 820.157, 177.638 L 971.339, 177.638 z " /><path style="fill:none;stroke:rgb(217, 95, 2);stroke-width:1mm;" d="M 812.598, 26.4567 L 661.417, 26.4567 L 661.417, 177.638 L 812.598, 177.638 z " /><path style="fill:none;stroke:rgb(217, 95, 2);stroke-width:1mm;" d="M 653.858, 26.4567 L 502.677, 26.4567 L 502.677, 177.638 L 653.858, 177.638 z " /><path style="fill:none;stroke:rgb(217, 95, 2);stroke-width:1mm;" d="M 495.118, 26.4567 L 343.937, 26.4567 L 343.937, 177.638 L 495.118, 177.638 z " /><path style="fill:none;stroke:rgb(217, 95, 2);stroke-width:1mm;" d="M 336.378, 26.4567 L 185.197, 26.4567 L 185.197, 177.638 L 336.378, 177.638 z " /><path style="fill:none;stroke:rgb(217, 95, 2);stroke-width:1mm;" d="M 177.638, 26.4567 L 26.4567, 26.4567 L 26.4567, 177.638 L 177.638, 177.638 z " /><path style="fill:none;stroke:rgb(217, 95, 2);stroke-width:1mm;" d="M 971.339, 185.197 L 820.157, 185.197 L 820.157, 336.378 L 971.339, 336.378 z " /><path style="fill:none;stroke:rgb(217, 95, 2);stroke-width:1mm;" d="M 812.598, 185.197 L 661.417, 185.197 L 661.417, 336.378 L 812.598, 336.378 z " /><path style="fill:none;stroke:rgb(217, 95, 2);stroke-width:1mm;" d="M 653.858, 185.197 L 502.677, 185.197 L 502.677, 336.378 L 653.858, 336.378 z " /><path style="fill:none;stroke:rgb(217, 95, 2);stroke-width:1mm;" d="M 495.118, 185.197 L 343.937, 185.197 L 343.937, 336.378 L 495.118, 336.378 z " /><path style="fill:none;stroke:rgb(217, 95, 2);stroke-width:1mm;" d="M 336.378, 185.197 L 185.197, 185.197 L 185.197, 336.378 L 336.378, 336.378 z " /><path style="fill:none;stroke:rgb(217, 95, 2);stroke-width:1mm;" d="M 177.638, 185.197 L 26.4567, 185.197 L 26.4567, 336.378 L 177.638, 336.378 z " /><path style="fill:none;stroke:rgb(217, 95, 2);stroke-width:1mm;" d="M 971.339, 343.937 L 820.157, 343.937 L 820.157, 495.118 L 971.339, 495.118 z " /><path style="fill:none;stroke:rgb(217, 95, 2);stroke-width:1mm;" d="M 812.598, 343.937 L 661.417, 343.937 L 661.417, 495.118 L 812.598, 495.118 z " /><path style="fill:none;stroke:rgb(217, 95, 2);stroke-width:1mm;" d="M 653.858, 343.937 L 502.677, 343.937 L 502.677, 495.118 L 653.858, 495.118 z " /><path style="fill:none;stroke:rgb(217, 95, 2);stroke-width:1mm;" d="M 495.118, 343.937 L 343.937, 343.937 L 343.937, 495.118 L 495.118, 495.118 z " /><path style="fill:none;stroke:rgb(217, 95, 2);stroke-width:1mm;" d="M 336.378, 343.937 L 185.197, 343.937 L 185.197, 495.118 L 336.378, 495.118 z " /><path style="fill:none;stroke:rgb(217, 95, 2);stroke-width:1mm;" d="M 177.638, 343.937 L 26.4567, 343.937 L 26.4567, 495.118 L 177.638, 495.118 z " /><path style="fill:none;stroke:rgb(217, 95, 2);stroke-width:1mm;" d="M 971.339, 502.677 L 820.157, 502.677 L 820.157, 653.858 L 971.339, 653.858 z " /><path style="fill:none;stroke:rgb(217, 95, 2);stroke-width:1mm;" d="M 812.598, 502.677 L 661.417, 502.677 L 661.417, 653.858 L 812.598, 653.858 z " /><path style="fill:none;stroke:rgb(217, 95, 2);stroke-width:1mm;" d="M 653.858, 502.677 L 502.677, 502.677 L 502.677, 653.858 L 653.858, 653.858 z " /><path style="fill:none;stroke:rgb(217, 95, 2);stroke-width:1mm;" d="M 495.118, 502.677 L 343.937, 502.677 L 343.937, 653.858 L 495.118, 653.858 z " /><path style="fill:none;stroke:rgb(217, 95, 2);stroke-width:1mm;" d="M 336.378, 502.677 L 185.197, 502.677 L 185.197, 653.858 L 336.378, 653.858 z " /><path style="fill:none;stroke:rgb(217, 95, 2);stroke-width:1mm;" d="M 177.638, 502.677 L 26.4567, 502.677 L 26.4567, 653.858 L 177.638, 653.858 z " /><path style="fill:none;stroke:rgb(217, 95, 2);stroke-width:1mm;" d="M 971.339, 661.417 L 820.157, 661.417 L 820.157, 812.598 L 971.339, 812.598 z " /><path style="fill:none;stroke:rgb(217, 95, 2);stroke-width:1mm;" d="M 812.598, 661.417 L 661.417, 661.417 L 661.417, 812.598 L 812.598, 812.598 z " /><path style="fill:none;stroke:rgb(217, 95, 2);stroke-width:1mm;" d="M 653.858, 661.417 L 502.677, 661.417 L 502.677, 812.598 L 653.858, 812.598 z " /><path style="fill:none;stroke:rgb(217, 95, 2);stroke-width:1mm;" d="M 495.118, 661.417 L 343.937, 661.417 L 343.937, 812.598 L 495.118, 812.598 z " /><path style="fill:none;stroke:rgb(217, 95, 2);stroke-width:1mm;" d="M 336.378, 661.417 L 185.197, 661.417 L 185.197, 812.598 L 336.378, 812.598 z " /><path style="fill:none;stroke:rgb(217, 95, 2);stroke-width:1mm;" d="M 177.638, 661.417 L 26.4567, 661.417 L 26.4567, 812.598 L 177.638, 812.598 z " /><path style="fill:none;stroke:rgb(217, 95, 2);stroke-width:1mm;" d="M 971.339, 820.157 L 820.157, 820.157 L 820.157, 971.339 L 971.339, 971.339 z " /><path style="fill:none;stroke:rgb(217, 95, 2);stroke-width:1mm;" d="M 812.598, 820.157 L 661.417, 820.157 L 661.417, 971.339 L 812.598, 971.339 z " /><path style="fill:none;stroke:rgb(217, 95, 2);stroke-width:1mm;" d="M 653.858, 820.157 L 502.677, 820.157 L 502.677, 971.339 L 653.858, 971.339 z " /><path style="fill:none;stroke:rgb(217, 95, 2);stroke-width:1mm;" d="M 495.118, 820.157 L 343.937, 820.157 L 343.937, 971.339 L 495.118, 971.339 z " /><path style="fill:none;stroke:rgb(217, 95, 2);stroke-width:1mm;" d="M 336.378, 820.157 L 185.197, 820.157 L 185.197, 971.339 L 336.378, 971.339 z " /><path style="fill:none;stroke:rgb(217, 95, 2);stroke-width:1mm;" d="M 177.638, 820.157 L 26.4567, 820.157 L 26.4567, 971.339 L 177.638, 971.339 z " /><path style="fill:none;stroke:rgb(27, 158, 119);stroke-width:1mm;" d="M 978.898, 978.898 L 18.8976, 978.898 L 18.8976, 18.8976 L 978.898, 18.8976 z " />
</svg>