<?xml version="1.0" encoding="utf-8" standalone="no"?>
        <!DOCTYPE svg PUBLIC "-//W3C//DTD SVG 1.1//EN" "http://www.w3.org/Graphics/SVG/1.1/DTD/svg11.dtd">
         <svg xmlns="http://www.w3.org/2000/svg" width="265mm" height="265mm" viewbox="0 0 265 265">
<path style="fill:none;stroke:rgb(217, 95, 2);stroke-width:1mm;" d="M 924.675, 32.2107 L 866.821, 32.2107 L 825.911, 73.12 L 825.911, 130.974 L 866.821, 171.884 L 924.675, 171.884 L 965.585, 130.974 L 965.585, 73.12 z " /><path style="fill:none;stroke:rgb(217, 95, 2);stroke-width:1mm;" d="M 765.935, 32.2107 L 708.081, 32.2107 L 667.171, 73.12 L 667.171, 130.974 L 708.081, 171.884 L 765.935, 171.884 L 806.844, 130.974 L 806.844, 73.12 z " /><path style="fill:none;stroke:rgb(217, 95, 2);stroke-width:1mm;" d="M 607.195, 32.2107 L 549.34, 32.2107 L 508.431, 73.12 L 508.431, 130.974 L 549.34, 171.884 L 607.195, 171.884 L 648.104, 130.974 L 648.104, 73.12 z " /><path style="fill:none;stroke:rgb(217, 95, 2);stroke-width:1mm;" d="M 448.455, 32.2107 L 390.6, 32.2107 L 349.691, 73.12 L 349.691, 130.974 L 390.6, 171.884 L 448.455, 171.884 L 489.364, 130.974 L 489.364, 73.12 z " /><path style="fill:none;stroke:rgb(217, 95, 2);stroke-width:1mm;" d="M 289.715, 32.2107 L 231.86, 32.2107 L 190.951, 73.12 L 190.951, 130.974 L 231.86, 171.884 L 289.715, 171.884 L 330.624, 130.974 L 330.624, 73.12 z " /><path style="fill:none;stroke:rgb(217, 95, 2);stroke-width:1mm;" d="M 130.974, 32.2107 L 73.12, 32.2107 L 32.2107, 73.12 L 32.2107, 130.974 L 73.12, 171.884 L 130.974, 171.884 L 171.884, 130.974 L 171.884, 73.12 z " /><path style="fill:none;stroke:rgb(217, 95, 2);stroke-width:1mm;" d="M 924.675, 190.951 L 866.821, 190.951 L 825.911, 231.86 L 825.911, 289.715 L 866.821, 330.624 L 924.675, 330.624 L 965.585, 289.715 L 965.585, 231.86 z " /><path style="fill:none;stroke:rgb(217, 95, 2);stroke-width:1mm;" d="M 765.935, 190.951 L 708.081, 190.951 L 667.171, 231.86 L 667.171, 289.715 L 708.081, 330.624 L 765.935, 330.624 L 806.844, 289.715 L 806.844, 231.86 z " /><path style="fill:none;stroke:rgb(217, 95, 2);stroke-width:1mm;" d="M 607.195, 190.951 L 549.34, 190.951 L 508.431, 231.86 L 508.431, 289.715 L 549.34, 330.624 L 607.195, 330.624 L 648.104, 289.715 L 648.104, 231.86 z " /><path style="fill:none;stroke:rgb(217, 95, 2);stroke-width:1mm;" d="M 448.455, 190.951 L 390.6, 190.951 L 349.691, 231.86 L 349.691, 289.715 L 390.6, 330.624 L 448.455, 330.624 L 489.364, 289.715 L 489.364, 231.86 z " /><path style="fill:none;stroke:rgb(217, 95, 2);stroke-width:1mm;" d="M 289.715, 190.951 L 231.86, 190.951 L 190.951, 231.86 L 190.951, 289.715 L 231.86, 330.624 L 289.715, 330.624 L 330.624, 289.715 L 330.624, 231.86 z " /><path style="fill:none;stroke:rgb(217, 95, 2);stroke-width:1mm;" d="M 130.974, 190.951 L 73.12, 190.951 L 32.2107, 231.86 L 32.2107, 289.715 L 73.12, 330.624 L 130.974, 330.624 L 171.884, 289.715 L 171.884, 231.86 z " /><path style="fill:none;stroke:rgb(217, 95, 2);stroke-width:1mm;" d="M 924.675, 349.691 L 866.821, 349.691 L 825.911, 390.6 L 825.911, 448.455 L 866.821, 489.364 L 924.675, 489.364 L 965.585, 448.455 L 965.585, 390.6 z " /><path style="fill:none;stroke:rgb(217, 95, 2);stroke-width:1mm;" d="M 765.935, 349.691 L 708.081, 349.691 L 667.171, 390.6 L 667.171, 448.455 L 708.081, 489.364 L 765.935, 489.364 L 806.844, 448.455 L 806.844, 390.6 z " /><path style="fill:none;stroke:rgb(217, 95, 2);stroke-width:1mm;" d="M 607.195, 349.691 L 549.34, 349.691 L 508.431, 390.6 L 508.431, 448.455 L 549.34, 489.364 L 607.195, 489.364 L 648.104, 448.455 L 648.104, 390.6 z " /><path style="fill:none;stroke:rgb(217, 95, 2);stroke-width:1mm;" d="M 448.455, 349.691 L 390.6, 349.691 L 349.691, 390.6 L 349.691, 448.455 L 390.6, 489.364 L 448.455, 489.364 L 489.364, 448.455 L 489.364, 390.6 z " /><path style="fill:none;stroke:rgb(217, 95, 2);stroke-width:1mm;" d="M 289.715, 349.691 L 231.86, 349.691 L 190.951, 390.6 L 190.951, 448.455 L 231.86, 489.364 L 289.715, 489.364 L 330.624, 448.455 L 330.624, 390.6 z " /><path style="fill:none;stroke:rgb(217, 95, 2);stroke-width:1mm;" d="M 130.974, 349.691 L 73.12, 349.691 L 32.2107, 390.6 L 32.2107, 448.455 L 73.12, 489.364 L 130.974, 489.364 L 171.884, 448.455 L 171.884, 390.6 z " /><path style="fill:none;stroke:rgb(217, 95, 2);stroke-width:1mm;" d="M 924.675, 508.431 L 866.821, 508.431 L 825.911, 549.34 L 825.911, 607.195 L 866.821, 648.104 L 924.675, 648.104 L 965.585, 607.195 L 965.585, 549.34 z " /><path style="fill:none;stroke:rgb(217, 95, 2);stroke-width:1mm;" d="M 765.935, 508.431 L 708.081, 508.431 L 667.171, 549.34 L 667.171, 607.195 L 708.081, 648.104 L 765.935, 648.104 L 806.844, 607.195 L 806.844, 549.34 z " /><path style="fill:none;stroke:rgb(217, 95, 2);stroke-width:1mm;" d="M 607.195, 508.431 L 549.34, 508.431 L 508.431, 549.34 L 508.431, 607.195 L 549.34, 648.104 L 607.195, 648.104 L 648.104, 607.195 L 648.104, 549.34 z " /><path style="fill:none;stroke:rgb(217, 95, 2);stroke-width:1mm;" d="M 448.455, 508.431 L 390.6, 508.431 L 349.691, 549.34 L 349.691, 607.195 L 390.6, 648.104 L 448.455, 648.104 L 489.364, 607.195 L 489.364, 549.34 z " /><path style="fill:none;stroke:rgb(217, 95, 2);stroke-width:1mm;" d="M 289.715, 508.431 L 231.86, 508.431 L 190.951, 549.34 L 190.951, 607.195 L 231.86, 648.104 L 289.715, 648.104 L 330.624, 607.195 L 330.624, 549.34 z " /><path style="fill:none;stroke:rgb(217, 95, 2);stroke-width:1mm;" d="M 130.974, 508.431 L 73.12, 508.431 L 32.2107, 549.34 L 32.2107, 607.195 L 73.12, 648.104 L 130.974, 648.104 L 171.884, 607.195 L 171.884, 549.34 z " /><path style="fill:none;stroke:rgb(217, 95, 2);stroke-width:1mm;" d="M 924.675, 667.171 L 866.821, 667.171 L 825.911, 708.081 L 825.911, 765.935 L 866.821, 806.844 L 924.675, 806.844 L 965.585, 765.935 L 965.585, 708.081 z " /><path style="fill:none;stroke:rgb(217, 95, 2);stroke-width:1mm;" d="M 765.935, 667.171 L 708.081, 667.171 L 667.171, 708.081 L 667.171, 765.935 L 708.081, 806.844 L 765.935, 806.844 L 806.844, 765.935 L 806.844, 708.081 z " /><path style="fill:none;stroke:rgb(217, 95, 2);stroke-width:1mm;" d="M 607.195, 667.171 L 549.34, 667.171 L 508.431, 708.081 L 508.431, 765.935 L 549.34, 806.844 L 607.195, 806.844 L 648.104, 765.935 L 648.104, 708.081 z " /><path style="fill:none;stroke:rgb(217, 95, 2);stroke-width:1mm;" d="M 448.455, 667.171 L 390.6, 667.171 L 349.691, 708.081 L 349.691, 765.935 L 390.6, 806.844 L 448.455, 806.844 L 489.364, 765.935 L 489.364, 708.081 z " /><path style="fill:none;stroke:rgb(217, 95, 2);stroke-width:1mm;" d="M 289.715, 667.171 L 231.86, 667.171 L 190.951, 708.081 L 190.951, 765.935 L 231.86, 806.844 L 289.715, 806.844 L 330.624, 765.935 L 330.624, 708.081 z " /><path style="fill:none;stroke:rgb(217, 95, 2);stroke-width:1mm;" d="M 130.974, 667.171 L 73.12, 667.171 L 32.2107, 708.081 L 32.2107, 765.935 L 73.12, 806.844 L 130.974, 806.844 L 171.884, 765.935 L 171.884, 708.081 z " /><path style="fill:none;stroke:rgb(217, 95, 2);stroke-width:1mm;" d="M 924.675, 825.911 L 866.821, 825.911 L 825.911, 866.821 L 825.911, 924.675 L 866.821, 965.585 L 924.675, 965.585 L 965.585, 924.675 L 965.585, 866.821 z " /><path style="fill:none;stroke:rgb(217, 95, 2);stroke-width:1mm;" d="M 765.935, 825.911 L 708.081, 825.911 L 667.171, 866.821 L 667.171, 924.675 L 708.081, 965.585 L 765.935, 965.585 L 806.844, 924.675 L 806.844, 866.821 z " /><path style="fill:none;stroke:rgb(217, 95, 2);stroke-width:1mm;" d="M 607.195, 825.911 L 549.34, 825.911 L 508.431, 866.821 L 508.431, 924.675 L 549.34, 965.585 L 607.195, 965.585 L 648.104, 924.675 L 648.104, 866.821 z " /><path style="fill:none;stroke:rgb(217, 95, 2);stroke-width:1mm;" d="M 448.455, 825.911 L 390.6, 825.911 L 349.691, 866.821 L 349.691, 924.675 L 390.6, 965.585 L 448.455, 965.585 L 489.364, 924.675 L 489.364, 866.821 z " /><path style="fill:none;stroke:rgb(217, 95, 2);stroke-width:1mm;" d="M 289.715, 825.911 L 231.86, 825.911 L 190.951, 866.821 L 190.951, 924.675 L 231.86, 965.585 L 289.715, 965.585 L 330.624, 924.675 L 330.624, 866.821 z " /><path style="fill:none;stroke:rgb(217, 95, 2);stroke-width:1mm;" d="M 130.974, 825.911 L 73.12, 825.911 L 32.2107, 866.821 L 32.2107, 924.675 L 73.12, 965.585 L 130.974, 965.585 L 171.884, 924.675 L 171.884, 866.821 z " /><path style="fill:none;stroke:rgb(27, 158, 119);stroke-width:1mm;" d="M 978.898, 978.898 L 18.8976, 978.898 L 18.8976, 18.8976 L 978.898, 18.8976 z " />
</svg>