<?xml version="1.0" encoding="utf-8" standalone="no"?>
        <!DOCTYPE svg PUBLIC "-//W3C//DTD SVG 1.1//EN" "http://www.w3.org/Graphics/SVG/1.1/DTD/svg11.dtd">
         <svg xmlns="http://www.w3.org/2000/svg" width="196mm" height="286mm" viewbox="0 0 196 286">
<path style="fill:none;stroke:rgb(217, 95, 2);stroke-width:1mm;" d="M 652.549, 43.5493 L 594.695, 43.5493 L 553.785, 84.4586 L 553.785, 142.313 L 594.695, 183.222 L 652.549, 183.222 L 693.459, 142.313 L 693.459, 84.4586 z " /><path style="fill:none;stroke:rgb(217, 95, 2);stroke-width:1mm;" d="M 482.471, 43.5493 L 424.616, 43.5493 L 383.707, 84.4586 L 383.707, 142.313 L 424.616, 183.222 L 482.471, 183.222 L 523.38, 142.313 L 523.38, 84.4586 z " /><path style="fill:none;stroke:rgb(217, 95, 2);stroke-width:1mm;" d="M 312.392, 43.5493 L 254.537, 43.5493 L 213.628, 84.4586 L 213.628, 142.313 L 254.537, 183.222 L 312.392, 183.222 L 353.301, 142.313 L 353.301, 84.4586 z " /><path style="fill:none;stroke:rgb(217, 95, 2);stroke-width:1mm;" d="M 142.313, 43.5493 L 84.4586, 43.5493 L 43.5493, 84.4586 L 43.5493, 142.313 L 84.4586, 183.222 L 142.313, 183.222 L 183.222, 142.313 L 183.222, 84.4586 z " /><path style="fill:none;stroke:rgb(217, 95, 2);stroke-width:1mm;" d="M 652.549, 213.628 L 594.695, 213.628 L 553.785, 254.537 L 553.785, 312.392 L 594.695, 353.301 L 652.549, 353.301 L 693.459, 312.392 L 693.459, 254.537 z " /><path style="fill:none;stroke:rgb(217, 95, 2);stroke-width:1mm;" d="M 482.471, 213.628 L 424.616, 213.628 L 383.707, 254.537 L 383.707, 312.392 L 424.616, 353.301 L 482.471, 353.301 L 523.38, 312.392 L 523.38, 254.537 z " /><path style="fill:none;stroke:rgb(217, 95, 2);stroke-width:1mm;" d="M 312.392, 213.628 L 254.537, 213.628 L 213.628, 254.537 L 213.628, 312.392 L 254.537, 353.301 L 312.392, 353.301 L 353.301, 312.392 L 353.301, 254.537 z " /><path style="fill:none;stroke:rgb(217, 95, 2);stroke-width:1mm;" d="M 142.313, 213.628 L 84.4586, 213.628 L 43.5493, 254.537 L 43.5493, 312.392 L 84.4586, 353.301 L 142.313, 353.301 L 183.222, 312.392 L 183.222, 254.537 z " /><path style="fill:none;stroke:rgb(217, 95, 2);stroke-width:1mm;" d="M 652.549, 383.707 L 594.695, 383.707 L 553.785, 424.616 L 553.785, 482.471 L 594.695, 523.38 L 652.549, 523.38 L 693.459, 482.471 L 693.459, 424.616 z " /><path style="fill:none;stroke:rgb(217, 95, 2);stroke-width:1mm;" d="M 482.471, 383.707 L 424.616, 383.707 L 383.707, 424.616 L 383.707, 482.471 L 424.616, 523.38 L 482.471, 523.38 L 523.38, 482.471 L 523.38, 424.616 z " /><path style="fill:none;stroke:rgb(217, 95, 2);stroke-width:1mm;" d="M 312.392, 383.707 L 254.537, 383.707 L 213.628, 424.616 L 213.628, 482.471 L 254.537, 523.38 L 312.392, 523.38 L 353.301, 482.471 L 353.301, 424.616 z " /><path style="fill:none;stroke:rgb(217, 95, 2);stroke-width:1mm;" d="M 142.313, 383.707 L 84.4586, 383.707 L 43.5493, 424.616 L 43.5493, 482.471 L 84.4586, 523.38 L 142.313, 523.38 L 183.222, 482.471 L 183.222, 424.616 z " /><path style="fill:none;stroke:rgb(217, 95, 2);stroke-width:1mm;" d="M 652.549, 553.785 L 594.695, 553.785 L 553.785, 594.695 L 553.785, 652.549 L 594.695, 693.459 L 652.549, 693.459 L 693.459, 652.549 L 693.459, 594.695 z " /><path style="fill:none;stroke:rgb(217, 95, 2);stroke-width:1mm;" d="M 482.471, 553.785 L 424.616, 553.785 L 383.707, 594.695 L 383.707, 652.549 L 424.616, 693.459 L 482.471, 693.459 L 523.38, 652.549 L 523.38, 594.695 z " /><path style="fill:none;stroke:rgb(217, 95, 2);stroke-width:1mm;" d="M 312.392, 553.785 L 254.537, 553.785 L 213.628, 594.695 L 213.628, 652.549 L 254.537, 693.459 L 312.392, 693.459 L 353.301, 652.549 L 353.301, 594.695 z " /><path style="fill:none;stroke:rgb(217, 95, 2);stroke-width:1mm;" d="M 142.313, 553.785 L 84.4586, 553.785 L 43.5493, 594.695 L 43.5493, 652.549 L 84.4586, 693.459 L 142.313, 693.459 L 183.222, 652.549 L 183.222, 594.695 z " /><path style="fill:none;stroke:rgb(217, 95, 2);stroke-width:1mm;" d="M 652.549, 723.864 L 594.695, 723.864 L 553.785, 764.774 L 553.785, 822.628 L 594.695, 863.537 L 652.549, 863.537 L 693.459, 822.628 L 693.459, 764.774 z " /><path style="fill:none;stroke:rgb(217, 95, 2);stroke-width:1mm;" d="M 482.471, 723.864 L 424.616, 723.864 L 383.707, 764.774 L 383.707, 822.628 L 424.616, 863.537 L 482.471, 863.537 L 523.38, 822.628 L 523.38, 764.774 z " /><path style="fill:none;stroke:rgb(217, 95, 2);stroke-width:1mm;" d="M 312.392, 723.864 L 254.537, 723.864 L 213.628, 764.774 L 213.628, 822.628 L 254.537, 863.537 L 312.392, 863.537 L 353.301, 822.628 L 353.301, 764.774 z " /><path style="fill:none;stroke:rgb(217, 95, 2);stroke-width:1mm;" d="M 142.313, 723.864 L 84.4586, 723.864 L 43.5493, 764.774 L 43.5493, 822.628 L 84.4586, 863.537 L 142.313, 863.537 L 183.222, 822.628 L 183.222, 764.774 z " /><path style="fill:none;stroke:rgb(217, 95, 2);stroke-width:1mm;" d="M 652.549, 893.943 L 594.695, 893.943 L 553.785, 934.852 L 553.785, 992.707 L 594.695, 1033.62 L 652.549, 1033.62 L 693.459, 992.707 L 693.459, 934.852 z " /><path style="fill:none;stroke:rgb(217, 95, 2);stroke-width:1mm;" d="M 482.471, 893.943 L 424.616, 893.943 L 383.707, 934.852 L 383.707, 992.707 L 424.616, 1033.62 L 482.471, 1033.62 L 523.38, 992.707 L 523.38, 934.852 z " /><path style="fill:none;stroke:rgb(217, 95, 2);stroke-width:1mm;" d="M 312.392, 893.943 L 254.537, 893.943 L 213.628, 934.852 L 213.628, 992.707 L 254.537, 1033.62 L 312.392, 1033.62 L 353.301, 992.707 L 353.301, 934.852 z " /><path style="fill:none;stroke:rgb(217, 95, 2);stroke-width:1mm;" d="M 142.313, 893.943 L 84.4586, 893.943 L 43.5493, 934.852 L 43.5493, 992.707 L 84.4586, 1033.62 L 142.313, 1033.62 L 183.222, 992.707 L 183.222, 934.852 z " /><path style="fill:none;stroke:rgb(27, 158, 119);stroke-width:1mm;" d="M 718.11, 1058.27 L 18.8976, 1058.27 L 18.8976, 18.8976 L 718.11, 18.8976 z " />
</svg>