<?xml version="1.0" encoding="utf-8" standalone="no"?>
        <!DOCTYPE svg PUBLIC "-//W3C//DTD SVG 1.1//EN" "http://www.w3.org/Graphics/SVG/1.1/DTD/svg11.dtd">
         <svg xmlns="http://www.w3.org/2000/svg" width="293.736mm" height="255.856mm" viewbox="0 0 293.736 255.856">
<path style="fill:none;stroke:rgb(217, 95, 2);stroke-width:1mm;" d="M 769.231, 31.8546 L 703.767, 69.6499 L 703.767, 145.24 L 769.231, 183.036 L 834.694, 145.24 L 834.694, 69.6499 z " /><path style="fill:none;stroke:rgb(217, 95, 2);stroke-width:1mm;" d="M 625.211, 31.8546 L 559.748, 69.6499 L 559.748, 145.24 L 625.211, 183.036 L 690.675, 145.24 L 690.675, 69.6499 z " /><path style="fill:none;stroke:rgb(217, 95, 2);stroke-width:1mm;" d="M 481.192, 31.8546 L 415.729, 69.6499 L 415.729, 145.24 L 481.192, 183.036 L 546.655, 145.24 L 546.655, 69.6499 z " /><path style="fill:none;stroke:rgb(217, 95, 2);stroke-width:1mm;" d="M 337.173, 31.8546 L 271.709, 69.6499 L 271.709, 145.24 L 337.173, 183.036 L 402.636, 145.24 L 402.636, 69.6499 z " /><path style="fill:none;stroke:rgb(217, 95, 2);stroke-width:1mm;" d="M 841.24, 156.579 L 775.777, 194.374 L 775.777, 269.965 L 841.24, 307.76 L 906.704, 269.965 L 906.704, 194.374 z " /><path style="fill:none;stroke:rgb(217, 95, 2);stroke-width:1mm;" d="M 697.221, 156.579 L 631.758, 194.374 L 631.758, 269.965 L 697.221, 307.76 L 762.684, 269.965 L 762.684, 194.374 z " /><path style="fill:none;stroke:rgb(217, 95, 2);stroke-width:1mm;" d="M 553.202, 156.579 L 487.738, 194.374 L 487.738, 269.965 L 553.202, 307.76 L 618.665, 269.965 L 618.665, 194.374 z " /><path style="fill:none;stroke:rgb(217, 95, 2);stroke-width:1mm;" d="M 409.182, 156.579 L 343.719, 194.374 L 343.719, 269.965 L 409.182, 307.76 L 474.646, 269.965 L 474.646, 194.374 z " /><path style="fill:none;stroke:rgb(217, 95, 2);stroke-width:1mm;" d="M 265.163, 156.579 L 199.7, 194.374 L 199.7, 269.965 L 265.163, 307.76 L 330.626, 269.965 L 330.626, 194.374 z " /><path style="fill:none;stroke:rgb(217, 95, 2);stroke-width:1mm;" d="M 913.25, 281.303 L 847.787, 319.099 L 847.787, 394.689 L 913.25, 432.485 L 978.713, 394.689 L 978.713, 319.099 z " /><path style="fill:none;stroke:rgb(217, 95, 2);stroke-width:1mm;" d="M 769.231, 281.303 L 703.767, 319.099 L 703.767, 394.689 L 769.231, 432.485 L 834.694, 394.689 L 834.694, 319.099 z " /><path style="fill:none;stroke:rgb(217, 95, 2);stroke-width:1mm;" d="M 625.211, 281.303 L 559.748, 319.099 L 559.748, 394.689 L 625.211, 432.485 L 690.675, 394.689 L 690.675, 319.099 z " /><path style="fill:none;stroke:rgb(217, 95, 2);stroke-width:1mm;" d="M 481.192, 281.303 L 415.729, 319.099 L 415.729, 394.689 L 481.192, 432.485 L 546.655, 394.689 L 546.655, 319.099 z " /><path style="fill:none;stroke:rgb(217, 95, 2);stroke-width:1mm;" d="M 337.173, 281.303 L 271.709, 319.099 L 271.709, 394.689 L 337.173, 432.485 L 402.636, 394.689 L 402.636, 319.099 z " /><path style="fill:none;stroke:rgb(217, 95, 2);stroke-width:1mm;" d="M 193.153, 281.303 L 127.69, 319.099 L 127.69, 394.689 L 193.153, 432.485 L 258.617, 394.689 L 258.617, 319.099 z " /><path style="fill:none;stroke:rgb(217, 95, 2);stroke-width:1mm;" d="M 985.26, 406.028 L 919.796, 443.823 L 919.796, 519.414 L 985.26, 557.209 L 1050.72, 519.414 L 1050.72, 443.823 z " /><path style="fill:none;stroke:rgb(217, 95, 2);stroke-width:1mm;" d="M 841.24, 406.028 L 775.777, 443.823 L 775.777, 519.414 L 841.24, 557.209 L 906.704, 519.414 L 906.704, 443.823 z " /><path style="fill:none;stroke:rgb(217, 95, 2);stroke-width:1mm;" d="M 697.221, 406.028 L 631.758, 443.823 L 631.758, 519.414 L 697.221, 557.209 L 762.684, 519.414 L 762.684, 443.823 z " /><path style="fill:none;stroke:rgb(217, 95, 2);stroke-width:1mm;" d="M 553.202, 406.028 L 487.738, 443.823 L 487.738, 519.414 L 553.202, 557.209 L 618.665, 519.414 L 618.665, 443.823 z " /><path style="fill:none;stroke:rgb(217, 95, 2);stroke-width:1mm;" d="M 409.182, 406.028 L 343.719, 443.823 L 343.719, 519.414 L 409.182, 557.209 L 474.646, 519.414 L 474.646, 443.823 z " /><path style="fill:none;stroke:rgb(217, 95, 2);stroke-width:1mm;" d="M 265.163, 406.028 L 199.7, 443.823 L 199.7, 519.414 L 265.163, 557.209 L 330.626, 519.414 L 330.626, 443.823 z " /><path style="fill:none;stroke:rgb(217, 95, 2);stroke-width:1mm;" d="M 121.144, 406.028 L 55.6802, 443.823 L 55.6802, 519.414 L 121.144, 557.209 L 186.607, 519.414 L 186.607, 443.823 z " /><path style="fill:none;stroke:rgb(217, 95, 2);stroke-width:1mm;" d="M 913.25, 530.752 L 847.787, 568.548 L 847.787, 644.138 L 913.25, 681.933 L 978.713, 644.138 L 978.713, 568.548 z " /><path style="fill:none;stroke:rgb(217, 95, 2);stroke-width:1mm;" d="M 769.231, 530.752 L 703.767, 568.548 L 703.767, 644.138 L 769.231, 681.933 L 834.694, 644.138 L 834.694, 568.548 z " /><path style="fill:none;stroke:rgb(217, 95, 2);stroke-width:1mm;" d="M 625.211, 530.752 L 559.748, 568.548 L 559.748, 644.138 L 625.211, 681.933 L 690.675, 644.138 L 690.675, 568.548 z " /><path style="fill:none;stroke:rgb(217, 95, 2);stroke-width:1mm;" d="M 481.192, 530.752 L 415.729, 568.548 L 415.729, 644.138 L 481.192, 681.933 L 546.655, 644.138 L 546.655, 568.548 z " /><path style="fill:none;stroke:rgb(217, 95, 2);stroke-width:1mm;" d="M 337.173, 530.752 L 271.709, 568.548 L 271.709, 644.138 L 337.173, 681.933 L 402.636, 644.138 L 402.636, 568.548 z " /><path style="fill:none;stroke:rgb(217, 95, 2);stroke-width:1mm;" d="M 193.153, 530.752 L 127.69, 568.548 L 127.69, 644.138 L 193.153, 681.933 L 258.617, 644.138 L 258.617, 568.548 z " /><path style="fill:none;stroke:rgb(217, 95, 2);stroke-width:1mm;" d="M 841.24, 655.477 L 775.777, 693.272 L 775.777, 768.863 L 841.24, 806.658 L 906.704, 768.863 L 906.704, 693.272 z " /><path style="fill:none;stroke:rgb(217, 95, 2);stroke-width:1mm;" d="M 697.221, 655.477 L 631.758, 693.272 L 631.758, 768.863 L 697.221, 806.658 L 762.684, 768.863 L 762.684, 693.272 z " /><path style="fill:none;stroke:rgb(217, 95, 2);stroke-width:1mm;" d="M 553.202, 655.477 L 487.738, 693.272 L 487.738, 768.863 L 553.202, 806.658 L 618.665, 768.863 L 618.665, 693.272 z " /><path style="fill:none;stroke:rgb(217, 95, 2);stroke-width:1mm;" d="M 409.182, 655.477 L 343.719, 693.272 L 343.719, 768.863 L 409.182, 806.658 L 474.646, 768.863 L 474.646, 693.272 z " /><path style="fill:none;stroke:rgb(217, 95, 2);stroke-width:1mm;" d="M 265.163, 655.477 L 199.7, 693.272 L 199.7, 768.863 L 265.163, 806.658 L 330.626, 768.863 L 330.626, 693.272 z " /><path style="fill:none;stroke:rgb(217, 95, 2);stroke-width:1mm;" d="M 769.231, 780.201 L 703.767, 817.996 L 703.767, 893.587 L 769.231, 931.382 L 834.694, 893.587 L 834.694, 817.996 z " /><path style="fill:none;stroke:rgb(217, 95, 2);stroke-width:1mm;" d="M 625.211, 780.201 L 559.748, 817.996 L 559.748, 893.587 L 625.211, 931.382 L 690.675, 893.587 L 690.675, 817.996 z " /><path style="fill:none;stroke:rgb(217, 95, 2);stroke-width:1mm;" d="M 481.192, 780.201 L 415.729, 817.996 L 415.729, 893.587 L 481.192, 931.382 L 546.655, 893.587 L 546.655, 817.996 z " /><path style="fill:none;stroke:rgb(217, 95, 2);stroke-width:1mm;" d="M 337.173, 780.201 L 271.709, 817.996 L 271.709, 893.587 L 337.173, 931.382 L 402.636, 893.587 L 402.636, 817.996 z " /><path style="fill:none;stroke:rgb(27, 158, 119);stroke-width:1mm;" d="M 820.354, 18.8976 L 1087.51, 481.618 L 820.354, 944.339 L 286.05, 944.339 L 18.8976, 481.618 L 286.05, 18.8976 z " />
</svg>