<?xml version="1.0" encoding="utf-8" ?>
<svg baseProfile="full" height="276.3410161513776mm" version="1.1" viewBox="-156.54556006313257,3.0,319.0911201262652,276.3410161513776" width="319.0911201262652mm" xmlns="http://www.w3.org/2000/svg" xmlns:ev="http://www.w3.org/2001/xml-events" xmlns:xlink="http://www.w3.org/1999/xlink"><defs /><path d="M 84.5559 268.252 L 89.7927 259.182  L 93.2568 261.182  L 98.6936 251.765  L 95.2295 249.765  L 100.466 240.695  L 103.93 242.695  L 109.367 233.278  L 105.903 231.278  L 111.14 222.208  L 114.604 224.208  L 120.041 214.791  L 116.577 212.791  L 121.813 203.721  L 125.278 205.721  L 130.714 196.304  L 127.25 194.304  L 132.487 185.233  L 135.951 187.233  L 141.388 177.817  L 137.924 175.817  L 143.161 166.746  L 146.625 168.746  L 152.062 159.329  L 148.597 157.329  L 153.834 148.259  L 157.298 150.259  L 162.546 141.171  L 157.298 132.082  L 153.834 134.082  L 148.597 125.012  L 152.062 123.012  L 146.625 113.595  L 143.161 115.595  L 137.924 106.524  L 141.388 104.524  L 135.951 95.1076  L 132.487 97.1076  L 127.25 88.0372  L 130.714 86.0372  L 125.278 76.6204  L 121.813 78.6204  L 116.577 69.5501  L 120.041 67.5501  L 114.604 58.1333  L 111.14 60.1333  L 105.903 51.0629  L 109.367 49.0629  L 103.93 39.6461  L 100.466 41.6461  L 95.2295 32.5757  L 98.6936 30.5757  L 93.2568 21.1589  L 89.7927 23.1589  L 84.5559 14.0885  L 88.02 12.0885  L 82.7728 3  L 72.2783 3  L 72.2783 7  L 61.8047 7  L 61.8047 3  L 50.9311 3  L 50.9311 7  L 40.4575 7  L 40.4575 3  L 29.5839 3  L 29.5839 7  L 19.1104 7  L 19.1104 3  L 8.23679 3  L 8.23679 7  L -2.23679 7  L -2.23679 3  L -13.1104 3  L -13.1104 7  L -23.5839 7  L -23.5839 3  L -34.4575 3  L -34.4575 7  L -44.9311 7  L -44.9311 3  L -55.8047 3  L -55.8047 7  L -66.2783 7  L -66.2783 3  L -76.7728 3  L -82.02 12.0885  L -78.5559 14.0885  L -83.7927 23.1589  L -87.2568 21.1589  L -92.6936 30.5757  L -89.2295 32.5757  L -94.4663 41.6461  L -97.9304 39.6461  L -103.367 49.0629  L -99.9031 51.0629  L -105.14 60.1333  L -108.604 58.1333  L -114.041 67.5501  L -110.577 69.5501  L -115.813 78.6204  L -119.278 76.6204  L -124.714 86.0372  L -121.25 88.0372  L -126.487 97.1076  L -129.951 95.1076  L -135.388 104.524  L -131.924 106.524  L -137.161 115.595  L -140.625 113.595  L -146.062 123.012  L -142.597 125.012  L -147.834 134.082  L -151.298 132.082  L -156.546 141.171  L -151.298 150.259  L -147.834 148.259  L -142.597 157.329  L -146.062 159.329  L -140.625 168.746  L -137.161 166.746  L -131.924 175.817  L -135.388 177.817  L -129.951 187.233  L -126.487 185.233  L -121.25 194.304  L -124.714 196.304  L -119.278 205.721  L -115.813 203.721  L -110.577 212.791  L -114.041 214.791  L -108.604 224.208  L -105.14 222.208  L -99.9031 231.278  L -103.367 233.278  L -97.9304 242.695  L -94.4663 240.695  L -89.2295 249.765  L -92.6936 251.765  L -87.2568 261.182  L -83.7927 259.182  L -78.5559 268.252  L -82.02 270.252  L -76.7728 279.341  L -66.2783 279.341  L -66.2783 275.341  L -55.8047 275.341  L -55.8047 279.341  L -44.9311 279.341  L -44.9311 275.341  L -34.4575 275.341  L -34.4575 279.341  L -23.5839 279.341  L -23.5839 275.341  L -13.1104 275.341  L -13.1104 279.341  L -2.23679 279.341  L -2.23679 275.341  L 8.23679 275.341  L 8.23679 279.341  L 19.1104 279.341  L 19.1104 275.341  L 29.5839 275.341  L 29.5839 279.341  L 40.4575 279.341  L 40.4575 275.341  L 50.9311 275.341  L 50.9311 279.341  L 61.8047 279.341  L 61.8047 275.341  L 72.2783 275.341  L 72.2783 279.341  L 82.7728 279.341  L 88.02 270.252  z" fill="none" stroke="rgb(27, 158, 119)" /><path d="M 62.1869 249.537 L 61.6258 249.438  L 61.0799 249.275  L 60.5567 249.049  L 60.0633 248.764  L 59.6062 248.424  L 59.1917 248.033  L 58.8255 247.596  L 58.5124 247.12  L 58.2566 246.611  L 58.0618 246.076  L 57.9304 245.521  L 57.8642 244.955  L 57.8642 244.386  L 57.9304 243.82  L 58.0618 243.265  L 58.2566 242.73  L 58.5124 242.221  L 58.8255 241.745  L 59.1917 241.308  L 59.6062 240.917  L 60.0633 240.577  L 60.5567 240.292  L 61.0799 240.066  L 61.6258 239.903  L 62.1869 239.804  L 62.7558 239.771  L 63.3246 239.804  L 63.8857 239.903  L 64.4316 240.066  L 64.9548 240.292  L 65.4483 240.577  L 65.9053 240.917  L 66.3198 241.308  L 66.686 241.745  L 66.9991 242.221  L 67.2549 242.73  L 67.4497 243.265  L 67.5811 243.82  L 67.6473 244.386  L 67.6473 244.955  L 67.5811 245.521  L 67.4497 246.076  L 67.2549 246.611  L 66.9991 247.12  L 66.686 247.596  L 66.3198 248.033  L 65.9053 248.424  L 65.4483 248.764  L 64.9548 249.049  L 64.4316 249.275  L 63.8857 249.438  L 63.3246 249.537  L 62.7558 249.57  z" fill="none" stroke="rgb(217, 95, 2)" /><path d="M 22.3497 249.537 L 21.7886 249.438  L 21.2427 249.275  L 20.7195 249.049  L 20.2261 248.764  L 19.769 248.424  L 19.3546 248.033  L 18.9883 247.596  L 18.6752 247.12  L 18.4195 246.611  L 18.2246 246.076  L 18.0932 245.521  L 18.027 244.955  L 18.027 244.386  L 18.0932 243.82  L 18.2246 243.265  L 18.4195 242.73  L 18.6752 242.221  L 18.9883 241.745  L 19.3546 241.308  L 19.769 240.917  L 20.2261 240.577  L 20.7195 240.292  L 21.2427 240.066  L 21.7886 239.903  L 22.3497 239.804  L 22.9186 239.771  L 23.4874 239.804  L 24.0486 239.903  L 24.5944 240.066  L 25.1176 240.292  L 25.6111 240.577  L 26.0681 240.917  L 26.4826 241.308  L 26.8489 241.745  L 27.162 242.221  L 27.4177 242.73  L 27.6126 243.265  L 27.744 243.82  L 27.8101 244.386  L 27.8101 244.955  L 27.744 245.521  L 27.6126 246.076  L 27.4177 246.611  L 27.162 247.12  L 26.8489 247.596  L 26.4826 248.033  L 26.0681 248.424  L 25.6111 248.764  L 25.1176 249.049  L 24.5944 249.275  L 24.0486 249.438  L 23.4874 249.537  L 22.9186 249.57  z" fill="none" stroke="rgb(217, 95, 2)" /><path d="M -17.4874 249.537 L -18.0486 249.438  L -18.5944 249.275  L -19.1176 249.049  L -19.6111 248.764  L -20.0681 248.424  L -20.4826 248.033  L -20.8489 247.596  L -21.162 247.12  L -21.4177 246.611  L -21.6126 246.076  L -21.744 245.521  L -21.8101 244.955  L -21.8101 244.386  L -21.744 243.82  L -21.6126 243.265  L -21.4177 242.73  L -21.162 242.221  L -20.8489 241.745  L -20.4826 241.308  L -20.0681 240.917  L -19.6111 240.577  L -19.1176 240.292  L -18.5944 240.066  L -18.0486 239.903  L -17.4874 239.804  L -16.9186 239.771  L -16.3497 239.804  L -15.7886 239.903  L -15.2427 240.066  L -14.7195 240.292  L -14.2261 240.577  L -13.769 240.917  L -13.3546 241.308  L -12.9883 241.745  L -12.6752 242.221  L -12.4195 242.73  L -12.2246 243.265  L -12.0932 243.82  L -12.027 244.386  L -12.027 244.955  L -12.0932 245.521  L -12.2246 246.076  L -12.4195 246.611  L -12.6752 247.12  L -12.9883 247.596  L -13.3546 248.033  L -13.769 248.424  L -14.2261 248.764  L -14.7195 249.049  L -15.2427 249.275  L -15.7886 249.438  L -16.3497 249.537  L -16.9186 249.57  z" fill="none" stroke="rgb(217, 95, 2)" /><path d="M -57.3246 249.537 L -57.8857 249.438  L -58.4316 249.275  L -58.9548 249.049  L -59.4483 248.764  L -59.9053 248.424  L -60.3198 248.033  L -60.686 247.596  L -60.9991 247.12  L -61.2549 246.611  L -61.4497 246.076  L -61.5811 245.521  L -61.6473 244.955  L -61.6473 244.386  L -61.5811 243.82  L -61.4497 243.265  L -61.2549 242.73  L -60.9991 242.221  L -60.686 241.745  L -60.3198 241.308  L -59.9053 240.917  L -59.4483 240.577  L -58.9548 240.292  L -58.4316 240.066  L -57.8857 239.903  L -57.3246 239.804  L -56.7558 239.771  L -56.1869 239.804  L -55.6258 239.903  L -55.0799 240.066  L -54.5567 240.292  L -54.0633 240.577  L -53.6062 240.917  L -53.1917 241.308  L -52.8255 241.745  L -52.5124 242.221  L -52.2566 242.73  L -52.0618 243.265  L -51.9304 243.82  L -51.8642 244.386  L -51.8642 244.955  L -51.9304 245.521  L -52.0618 246.076  L -52.2566 246.611  L -52.5124 247.12  L -52.8255 247.596  L -53.1917 248.033  L -53.6062 248.424  L -54.0633 248.764  L -54.5567 249.049  L -55.0799 249.275  L -55.6258 249.438  L -56.1869 249.537  L -56.7558 249.57  z" fill="none" stroke="rgb(217, 95, 2)" /><path d="M 82.1055 215.037 L 81.5444 214.938  L 80.9985 214.775  L 80.4753 214.549  L 79.9818 214.264  L 79.5248 213.924  L 79.1103 213.533  L 78.7441 213.096  L 78.431 212.62  L 78.1752 212.111  L 77.9804 211.576  L 77.8489 211.021  L 77.7828 210.455  L 77.7828 209.886  L 77.8489 209.32  L 77.9804 208.765  L 78.1752 208.23  L 78.431 207.721  L 78.7441 207.245  L 79.1103 206.808  L 79.5248 206.417  L 79.9818 206.077  L 80.4753 205.792  L 80.9985 205.566  L 81.5444 205.403  L 82.1055 205.304  L 82.6743 205.271  L 83.2432 205.304  L 83.8043 205.403  L 84.3502 205.566  L 84.8734 205.792  L 85.3668 206.077  L 85.8239 206.417  L 86.2383 206.808  L 86.6046 207.245  L 86.9177 207.721  L 87.1734 208.23  L 87.3683 208.765  L 87.4997 209.32  L 87.5659 209.886  L 87.5659 210.455  L 87.4997 211.021  L 87.3683 211.576  L 87.1734 212.111  L 86.9177 212.62  L 86.6046 213.096  L 86.2383 213.533  L 85.8239 213.924  L 85.3668 214.264  L 84.8734 214.549  L 84.3502 214.775  L 83.8043 214.938  L 83.2432 215.037  L 82.6743 215.07  z" fill="none" stroke="rgb(217, 95, 2)" /><path d="M 42.2683 215.037 L 41.7072 214.938  L 41.1613 214.775  L 40.6381 214.549  L 40.1447 214.264  L 39.6876 213.924  L 39.2732 213.533  L 38.9069 213.096  L 38.5938 212.62  L 38.3381 212.111  L 38.1432 211.576  L 38.0118 211.021  L 37.9456 210.455  L 37.9456 209.886  L 38.0118 209.32  L 38.1432 208.765  L 38.3381 208.23  L 38.5938 207.721  L 38.9069 207.245  L 39.2732 206.808  L 39.6876 206.417  L 40.1447 206.077  L 40.6381 205.792  L 41.1613 205.566  L 41.7072 205.403  L 42.2683 205.304  L 42.8372 205.271  L 43.406 205.304  L 43.9671 205.403  L 44.513 205.566  L 45.0362 205.792  L 45.5297 206.077  L 45.9867 206.417  L 46.4012 206.808  L 46.7674 207.245  L 47.0805 207.721  L 47.3363 208.23  L 47.5312 208.765  L 47.6626 209.32  L 47.7287 209.886  L 47.7287 210.455  L 47.6626 211.021  L 47.5312 211.576  L 47.3363 212.111  L 47.0805 212.62  L 46.7674 213.096  L 46.4012 213.533  L 45.9867 213.924  L 45.5297 214.264  L 45.0362 214.549  L 44.513 214.775  L 43.9671 214.938  L 43.406 215.037  L 42.8372 215.07  z" fill="none" stroke="rgb(217, 95, 2)" /><path d="M 2.43116 215.037 L 1.87002 214.938  L 1.32416 214.775  L 0.80096 214.549  L 0.307499 214.264  L -0.14955 213.924  L -0.564008 213.533  L -0.930268 213.096  L -1.24338 212.62  L -1.4991 212.111  L -1.69399 211.576  L -1.82539 211.021  L -1.89154 210.455  L -1.89154 209.886  L -1.82539 209.32  L -1.69399 208.765  L -1.4991 208.23  L -1.24338 207.721  L -0.930268 207.245  L -0.564008 206.808  L -0.14955 206.417  L 0.307499 206.077  L 0.80096 205.792  L 1.32416 205.566  L 1.87002 205.403  L 2.43116 205.304  L 3 205.271  L 3.56884 205.304  L 4.12998 205.403  L 4.67584 205.566  L 5.19904 205.792  L 5.6925 206.077  L 6.14955 206.417  L 6.56401 206.808  L 6.93027 207.245  L 7.24338 207.721  L 7.4991 208.23  L 7.69399 208.765  L 7.82539 209.32  L 7.89154 209.886  L 7.89154 210.455  L 7.82539 211.021  L 7.69399 211.576  L 7.4991 212.111  L 7.24338 212.62  L 6.93027 213.096  L 6.56401 213.533  L 6.14955 213.924  L 5.6925 214.264  L 5.19904 214.549  L 4.67584 214.775  L 4.12998 214.938  L 3.56884 215.037  L 3 215.07  z" fill="none" stroke="rgb(217, 95, 2)" /><path d="M -37.406 215.037 L -37.9671 214.938  L -38.513 214.775  L -39.0362 214.549  L -39.5297 214.264  L -39.9867 213.924  L -40.4012 213.533  L -40.7674 213.096  L -41.0805 212.62  L -41.3363 212.111  L -41.5312 211.576  L -41.6626 211.021  L -41.7287 210.455  L -41.7287 209.886  L -41.6626 209.32  L -41.5312 208.765  L -41.3363 208.23  L -41.0805 207.721  L -40.7674 207.245  L -40.4012 206.808  L -39.9867 206.417  L -39.5297 206.077  L -39.0362 205.792  L -38.513 205.566  L -37.9671 205.403  L -37.406 205.304  L -36.8372 205.271  L -36.2683 205.304  L -35.7072 205.403  L -35.1613 205.566  L -34.6381 205.792  L -34.1447 206.077  L -33.6876 206.417  L -33.2732 206.808  L -32.9069 207.245  L -32.5938 207.721  L -32.3381 208.23  L -32.1432 208.765  L -32.0118 209.32  L -31.9456 209.886  L -31.9456 210.455  L -32.0118 211.021  L -32.1432 211.576  L -32.3381 212.111  L -32.5938 212.62  L -32.9069 213.096  L -33.2732 213.533  L -33.6876 213.924  L -34.1447 214.264  L -34.6381 214.549  L -35.1613 214.775  L -35.7072 214.938  L -36.2683 215.037  L -36.8372 215.07  z" fill="none" stroke="rgb(217, 95, 2)" /><path d="M -77.2432 215.037 L -77.8043 214.938  L -78.3502 214.775  L -78.8734 214.549  L -79.3668 214.264  L -79.8239 213.924  L -80.2383 213.533  L -80.6046 213.096  L -80.9177 212.62  L -81.1734 212.111  L -81.3683 211.576  L -81.4997 211.021  L -81.5659 210.455  L -81.5659 209.886  L -81.4997 209.32  L -81.3683 208.765  L -81.1734 208.23  L -80.9177 207.721  L -80.6046 207.245  L -80.2383 206.808  L -79.8239 206.417  L -79.3668 206.077  L -78.8734 205.792  L -78.3502 205.566  L -77.8043 205.403  L -77.2432 205.304  L -76.6743 205.271  L -76.1055 205.304  L -75.5444 205.403  L -74.9985 205.566  L -74.4753 205.792  L -73.9818 206.077  L -73.5248 206.417  L -73.1103 206.808  L -72.7441 207.245  L -72.431 207.721  L -72.1752 208.23  L -71.9804 208.765  L -71.8489 209.32  L -71.7828 209.886  L -71.7828 210.455  L -71.8489 211.021  L -71.9804 211.576  L -72.1752 212.111  L -72.431 212.62  L -72.7441 213.096  L -73.1103 213.533  L -73.5248 213.924  L -73.9818 214.264  L -74.4753 214.549  L -74.9985 214.775  L -75.5444 214.938  L -76.1055 215.037  L -76.6743 215.07  z" fill="none" stroke="rgb(217, 95, 2)" /><path d="M 102.024 180.537 L 101.463 180.438  L 100.917 180.275  L 100.394 180.049  L 99.9004 179.764  L 99.4434 179.424  L 99.0289 179.033  L 98.6627 178.596  L 98.3495 178.12  L 98.0938 177.611  L 97.8989 177.076  L 97.7675 176.521  L 97.7014 175.955  L 97.7014 175.386  L 97.7675 174.82  L 97.8989 174.265  L 98.0938 173.73  L 98.3495 173.221  L 98.6627 172.745  L 99.0289 172.308  L 99.4434 171.917  L 99.9004 171.577  L 100.394 171.292  L 100.917 171.066  L 101.463 170.903  L 102.024 170.804  L 102.593 170.771  L 103.162 170.804  L 103.723 170.903  L 104.269 171.066  L 104.792 171.292  L 105.285 171.577  L 105.742 171.917  L 106.157 172.308  L 106.523 172.745  L 106.836 173.221  L 107.092 173.73  L 107.287 174.265  L 107.418 174.82  L 107.484 175.386  L 107.484 175.955  L 107.418 176.521  L 107.287 177.076  L 107.092 177.611  L 106.836 178.12  L 106.523 178.596  L 106.157 179.033  L 105.742 179.424  L 105.285 179.764  L 104.792 180.049  L 104.269 180.275  L 103.723 180.438  L 103.162 180.537  L 102.593 180.57  z" fill="none" stroke="rgb(217, 95, 2)" /><path d="M 62.1869 180.537 L 61.6258 180.438  L 61.0799 180.275  L 60.5567 180.049  L 60.0633 179.764  L 59.6062 179.424  L 59.1917 179.033  L 58.8255 178.596  L 58.5124 178.12  L 58.2566 177.611  L 58.0618 177.076  L 57.9304 176.521  L 57.8642 175.955  L 57.8642 175.386  L 57.9304 174.82  L 58.0618 174.265  L 58.2566 173.73  L 58.5124 173.221  L 58.8255 172.745  L 59.1917 172.308  L 59.6062 171.917  L 60.0633 171.577  L 60.5567 171.292  L 61.0799 171.066  L 61.6258 170.903  L 62.1869 170.804  L 62.7558 170.771  L 63.3246 170.804  L 63.8857 170.903  L 64.4316 171.066  L 64.9548 171.292  L 65.4483 171.577  L 65.9053 171.917  L 66.3198 172.308  L 66.686 172.745  L 66.9991 173.221  L 67.2549 173.73  L 67.4497 174.265  L 67.5811 174.82  L 67.6473 175.386  L 67.6473 175.955  L 67.5811 176.521  L 67.4497 177.076  L 67.2549 177.611  L 66.9991 178.12  L 66.686 178.596  L 66.3198 179.033  L 65.9053 179.424  L 65.4483 179.764  L 64.9548 180.049  L 64.4316 180.275  L 63.8857 180.438  L 63.3246 180.537  L 62.7558 180.57  z" fill="none" stroke="rgb(217, 95, 2)" /><path d="M 22.3497 180.537 L 21.7886 180.438  L 21.2427 180.275  L 20.7195 180.049  L 20.2261 179.764  L 19.769 179.424  L 19.3546 179.033  L 18.9883 178.596  L 18.6752 178.12  L 18.4195 177.611  L 18.2246 177.076  L 18.0932 176.521  L 18.027 175.955  L 18.027 175.386  L 18.0932 174.82  L 18.2246 174.265  L 18.4195 173.73  L 18.6752 173.221  L 18.9883 172.745  L 19.3546 172.308  L 19.769 171.917  L 20.2261 171.577  L 20.7195 171.292  L 21.2427 171.066  L 21.7886 170.903  L 22.3497 170.804  L 22.9186 170.771  L 23.4874 170.804  L 24.0486 170.903  L 24.5944 171.066  L 25.1176 171.292  L 25.6111 171.577  L 26.0681 171.917  L 26.4826 172.308  L 26.8489 172.745  L 27.162 173.221  L 27.4177 173.73  L 27.6126 174.265  L 27.744 174.82  L 27.8101 175.386  L 27.8101 175.955  L 27.744 176.521  L 27.6126 177.076  L 27.4177 177.611  L 27.162 178.12  L 26.8489 178.596  L 26.4826 179.033  L 26.0681 179.424  L 25.6111 179.764  L 25.1176 180.049  L 24.5944 180.275  L 24.0486 180.438  L 23.4874 180.537  L 22.9186 180.57  z" fill="none" stroke="rgb(217, 95, 2)" /><path d="M -17.4874 180.537 L -18.0486 180.438  L -18.5944 180.275  L -19.1176 180.049  L -19.6111 179.764  L -20.0681 179.424  L -20.4826 179.033  L -20.8489 178.596  L -21.162 178.12  L -21.4177 177.611  L -21.6126 177.076  L -21.744 176.521  L -21.8101 175.955  L -21.8101 175.386  L -21.744 174.82  L -21.6126 174.265  L -21.4177 173.73  L -21.162 173.221  L -20.8489 172.745  L -20.4826 172.308  L -20.0681 171.917  L -19.6111 171.577  L -19.1176 171.292  L -18.5944 171.066  L -18.0486 170.903  L -17.4874 170.804  L -16.9186 170.771  L -16.3497 170.804  L -15.7886 170.903  L -15.2427 171.066  L -14.7195 171.292  L -14.2261 171.577  L -13.769 171.917  L -13.3546 172.308  L -12.9883 172.745  L -12.6752 173.221  L -12.4195 173.73  L -12.2246 174.265  L -12.0932 174.82  L -12.027 175.386  L -12.027 175.955  L -12.0932 176.521  L -12.2246 177.076  L -12.4195 177.611  L -12.6752 178.12  L -12.9883 178.596  L -13.3546 179.033  L -13.769 179.424  L -14.2261 179.764  L -14.7195 180.049  L -15.2427 180.275  L -15.7886 180.438  L -16.3497 180.537  L -16.9186 180.57  z" fill="none" stroke="rgb(217, 95, 2)" /><path d="M -57.3246 180.537 L -57.8857 180.438  L -58.4316 180.275  L -58.9548 180.049  L -59.4483 179.764  L -59.9053 179.424  L -60.3198 179.033  L -60.686 178.596  L -60.9991 178.12  L -61.2549 177.611  L -61.4497 177.076  L -61.5811 176.521  L -61.6473 175.955  L -61.6473 175.386  L -61.5811 174.82  L -61.4497 174.265  L -61.2549 173.73  L -60.9991 173.221  L -60.686 172.745  L -60.3198 172.308  L -59.9053 171.917  L -59.4483 171.577  L -58.9548 171.292  L -58.4316 171.066  L -57.8857 170.903  L -57.3246 170.804  L -56.7558 170.771  L -56.1869 170.804  L -55.6258 170.903  L -55.0799 171.066  L -54.5567 171.292  L -54.0633 171.577  L -53.6062 171.917  L -53.1917 172.308  L -52.8255 172.745  L -52.5124 173.221  L -52.2566 173.73  L -52.0618 174.265  L -51.9304 174.82  L -51.8642 175.386  L -51.8642 175.955  L -51.9304 176.521  L -52.0618 177.076  L -52.2566 177.611  L -52.5124 178.12  L -52.8255 178.596  L -53.1917 179.033  L -53.6062 179.424  L -54.0633 179.764  L -54.5567 180.049  L -55.0799 180.275  L -55.6258 180.438  L -56.1869 180.537  L -56.7558 180.57  z" fill="none" stroke="rgb(217, 95, 2)" /><path d="M -97.1618 180.537 L -97.7229 180.438  L -98.2688 180.275  L -98.792 180.049  L -99.2854 179.764  L -99.7425 179.424  L -100.157 179.033  L -100.523 178.596  L -100.836 178.12  L -101.092 177.611  L -101.287 177.076  L -101.418 176.521  L -101.484 175.955  L -101.484 175.386  L -101.418 174.82  L -101.287 174.265  L -101.092 173.73  L -100.836 173.221  L -100.523 172.745  L -100.157 172.308  L -99.7425 171.917  L -99.2854 171.577  L -98.792 171.292  L -98.2688 171.066  L -97.7229 170.903  L -97.1618 170.804  L -96.5929 170.771  L -96.0241 170.804  L -95.4629 170.903  L -94.9171 171.066  L -94.3939 171.292  L -93.9004 171.577  L -93.4434 171.917  L -93.0289 172.308  L -92.6627 172.745  L -92.3495 173.221  L -92.0938 173.73  L -91.8989 174.265  L -91.7675 174.82  L -91.7014 175.386  L -91.7014 175.955  L -91.7675 176.521  L -91.8989 177.076  L -92.0938 177.611  L -92.3495 178.12  L -92.6627 178.596  L -93.0289 179.033  L -93.4434 179.424  L -93.9004 179.764  L -94.3939 180.049  L -94.9171 180.275  L -95.4629 180.438  L -96.0241 180.537  L -96.5929 180.57  z" fill="none" stroke="rgb(217, 95, 2)" /><path d="M 121.943 146.037 L 121.382 145.938  L 120.836 145.775  L 120.312 145.549  L 119.819 145.264  L 119.362 144.924  L 118.947 144.533  L 118.581 144.096  L 118.268 143.62  L 118.012 143.111  L 117.818 142.576  L 117.686 142.021  L 117.62 141.455  L 117.62 140.886  L 117.686 140.32  L 117.818 139.765  L 118.012 139.23  L 118.268 138.721  L 118.581 138.245  L 118.947 137.808  L 119.362 137.417  L 119.819 137.077  L 120.312 136.792  L 120.836 136.566  L 121.382 136.403  L 121.943 136.304  L 122.512 136.271  L 123.08 136.304  L 123.641 136.403  L 124.187 136.566  L 124.711 136.792  L 125.204 137.077  L 125.661 137.417  L 126.076 137.808  L 126.442 138.245  L 126.755 138.721  L 127.011 139.23  L 127.205 139.765  L 127.337 140.32  L 127.403 140.886  L 127.403 141.455  L 127.337 142.021  L 127.205 142.576  L 127.011 143.111  L 126.755 143.62  L 126.442 144.096  L 126.076 144.533  L 125.661 144.924  L 125.204 145.264  L 124.711 145.549  L 124.187 145.775  L 123.641 145.938  L 123.08 146.037  L 122.512 146.07  z" fill="none" stroke="rgb(217, 95, 2)" /><path d="M 82.1055 146.037 L 81.5444 145.938  L 80.9985 145.775  L 80.4753 145.549  L 79.9818 145.264  L 79.5248 144.924  L 79.1103 144.533  L 78.7441 144.096  L 78.431 143.62  L 78.1752 143.111  L 77.9804 142.576  L 77.8489 142.021  L 77.7828 141.455  L 77.7828 140.886  L 77.8489 140.32  L 77.9804 139.765  L 78.1752 139.23  L 78.431 138.721  L 78.7441 138.245  L 79.1103 137.808  L 79.5248 137.417  L 79.9818 137.077  L 80.4753 136.792  L 80.9985 136.566  L 81.5444 136.403  L 82.1055 136.304  L 82.6743 136.271  L 83.2432 136.304  L 83.8043 136.403  L 84.3502 136.566  L 84.8734 136.792  L 85.3668 137.077  L 85.8239 137.417  L 86.2383 137.808  L 86.6046 138.245  L 86.9177 138.721  L 87.1734 139.23  L 87.3683 139.765  L 87.4997 140.32  L 87.5659 140.886  L 87.5659 141.455  L 87.4997 142.021  L 87.3683 142.576  L 87.1734 143.111  L 86.9177 143.62  L 86.6046 144.096  L 86.2383 144.533  L 85.8239 144.924  L 85.3668 145.264  L 84.8734 145.549  L 84.3502 145.775  L 83.8043 145.938  L 83.2432 146.037  L 82.6743 146.07  z" fill="none" stroke="rgb(217, 95, 2)" /><path d="M 42.2683 146.037 L 41.7072 145.938  L 41.1613 145.775  L 40.6381 145.549  L 40.1447 145.264  L 39.6876 144.924  L 39.2732 144.533  L 38.9069 144.096  L 38.5938 143.62  L 38.3381 143.111  L 38.1432 142.576  L 38.0118 142.021  L 37.9456 141.455  L 37.9456 140.886  L 38.0118 140.32  L 38.1432 139.765  L 38.3381 139.23  L 38.5938 138.721  L 38.9069 138.245  L 39.2732 137.808  L 39.6876 137.417  L 40.1447 137.077  L 40.6381 136.792  L 41.1613 136.566  L 41.7072 136.403  L 42.2683 136.304  L 42.8372 136.271  L 43.406 136.304  L 43.9671 136.403  L 44.513 136.566  L 45.0362 136.792  L 45.5297 137.077  L 45.9867 137.417  L 46.4012 137.808  L 46.7674 138.245  L 47.0805 138.721  L 47.3363 139.23  L 47.5312 139.765  L 47.6626 140.32  L 47.7287 140.886  L 47.7287 141.455  L 47.6626 142.021  L 47.5312 142.576  L 47.3363 143.111  L 47.0805 143.62  L 46.7674 144.096  L 46.4012 144.533  L 45.9867 144.924  L 45.5297 145.264  L 45.0362 145.549  L 44.513 145.775  L 43.9671 145.938  L 43.406 146.037  L 42.8372 146.07  z" fill="none" stroke="rgb(217, 95, 2)" /><path d="M 2.43116 146.037 L 1.87002 145.938  L 1.32416 145.775  L 0.80096 145.549  L 0.307499 145.264  L -0.14955 144.924  L -0.564008 144.533  L -0.930268 144.096  L -1.24338 143.62  L -1.4991 143.111  L -1.69399 142.576  L -1.82539 142.021  L -1.89154 141.455  L -1.89154 140.886  L -1.82539 140.32  L -1.69399 139.765  L -1.4991 139.23  L -1.24338 138.721  L -0.930268 138.245  L -0.564008 137.808  L -0.14955 137.417  L 0.307499 137.077  L 0.80096 136.792  L 1.32416 136.566  L 1.87002 136.403  L 2.43116 136.304  L 3 136.271  L 3.56884 136.304  L 4.12998 136.403  L 4.67584 136.566  L 5.19904 136.792  L 5.6925 137.077  L 6.14955 137.417  L 6.56401 137.808  L 6.93027 138.245  L 7.24338 138.721  L 7.4991 139.23  L 7.69399 139.765  L 7.82539 140.32  L 7.89154 140.886  L 7.89154 141.455  L 7.82539 142.021  L 7.69399 142.576  L 7.4991 143.111  L 7.24338 143.62  L 6.93027 144.096  L 6.56401 144.533  L 6.14955 144.924  L 5.6925 145.264  L 5.19904 145.549  L 4.67584 145.775  L 4.12998 145.938  L 3.56884 146.037  L 3 146.07  z" fill="none" stroke="rgb(217, 95, 2)" /><path d="M -37.406 146.037 L -37.9671 145.938  L -38.513 145.775  L -39.0362 145.549  L -39.5297 145.264  L -39.9867 144.924  L -40.4012 144.533  L -40.7674 144.096  L -41.0805 143.62  L -41.3363 143.111  L -41.5312 142.576  L -41.6626 142.021  L -41.7287 141.455  L -41.7287 140.886  L -41.6626 140.32  L -41.5312 139.765  L -41.3363 139.23  L -41.0805 138.721  L -40.7674 138.245  L -40.4012 137.808  L -39.9867 137.417  L -39.5297 137.077  L -39.0362 136.792  L -38.513 136.566  L -37.9671 136.403  L -37.406 136.304  L -36.8372 136.271  L -36.2683 136.304  L -35.7072 136.403  L -35.1613 136.566  L -34.6381 136.792  L -34.1447 137.077  L -33.6876 137.417  L -33.2732 137.808  L -32.9069 138.245  L -32.5938 138.721  L -32.3381 139.23  L -32.1432 139.765  L -32.0118 140.32  L -31.9456 140.886  L -31.9456 141.455  L -32.0118 142.021  L -32.1432 142.576  L -32.3381 143.111  L -32.5938 143.62  L -32.9069 144.096  L -33.2732 144.533  L -33.6876 144.924  L -34.1447 145.264  L -34.6381 145.549  L -35.1613 145.775  L -35.7072 145.938  L -36.2683 146.037  L -36.8372 146.07  z" fill="none" stroke="rgb(217, 95, 2)" /><path d="M -77.2432 146.037 L -77.8043 145.938  L -78.3502 145.775  L -78.8734 145.549  L -79.3668 145.264  L -79.8239 144.924  L -80.2383 144.533  L -80.6046 144.096  L -80.9177 143.62  L -81.1734 143.111  L -81.3683 142.576  L -81.4997 142.021  L -81.5659 141.455  L -81.5659 140.886  L -81.4997 140.32  L -81.3683 139.765  L -81.1734 139.23  L -80.9177 138.721  L -80.6046 138.245  L -80.2383 137.808  L -79.8239 137.417  L -79.3668 137.077  L -78.8734 136.792  L -78.3502 136.566  L -77.8043 136.403  L -77.2432 136.304  L -76.6743 136.271  L -76.1055 136.304  L -75.5444 136.403  L -74.9985 136.566  L -74.4753 136.792  L -73.9818 137.077  L -73.5248 137.417  L -73.1103 137.808  L -72.7441 138.245  L -72.431 138.721  L -72.1752 139.23  L -71.9804 139.765  L -71.8489 140.32  L -71.7828 140.886  L -71.7828 141.455  L -71.8489 142.021  L -71.9804 142.576  L -72.1752 143.111  L -72.431 143.62  L -72.7441 144.096  L -73.1103 144.533  L -73.5248 144.924  L -73.9818 145.264  L -74.4753 145.549  L -74.9985 145.775  L -75.5444 145.938  L -76.1055 146.037  L -76.6743 146.07  z" fill="none" stroke="rgb(217, 95, 2)" /><path d="M -117.08 146.037 L -117.641 145.938  L -118.187 145.775  L -118.711 145.549  L -119.204 145.264  L -119.661 144.924  L -120.076 144.533  L -120.442 144.096  L -120.755 143.62  L -121.011 143.111  L -121.205 142.576  L -121.337 142.021  L -121.403 141.455  L -121.403 140.886  L -121.337 140.32  L -121.205 139.765  L -121.011 139.23  L -120.755 138.721  L -120.442 138.245  L -120.076 137.808  L -119.661 137.417  L -119.204 137.077  L -118.711 136.792  L -118.187 136.566  L -117.641 136.403  L -117.08 136.304  L -116.512 136.271  L -115.943 136.304  L -115.382 136.403  L -114.836 136.566  L -114.312 136.792  L -113.819 137.077  L -113.362 137.417  L -112.947 137.808  L -112.581 138.245  L -112.268 138.721  L -112.012 139.23  L -111.818 139.765  L -111.686 140.32  L -111.62 140.886  L -111.62 141.455  L -111.686 142.021  L -111.818 142.576  L -112.012 143.111  L -112.268 143.62  L -112.581 144.096  L -112.947 144.533  L -113.362 144.924  L -113.819 145.264  L -114.312 145.549  L -114.836 145.775  L -115.382 145.938  L -115.943 146.037  L -116.512 146.07  z" fill="none" stroke="rgb(217, 95, 2)" /><path d="M 102.024 111.537 L 101.463 111.438  L 100.917 111.275  L 100.394 111.049  L 99.9004 110.764  L 99.4434 110.424  L 99.0289 110.033  L 98.6627 109.596  L 98.3495 109.12  L 98.0938 108.611  L 97.8989 108.076  L 97.7675 107.521  L 97.7014 106.955  L 97.7014 106.386  L 97.7675 105.82  L 97.8989 105.265  L 98.0938 104.73  L 98.3495 104.221  L 98.6627 103.745  L 99.0289 103.308  L 99.4434 102.917  L 99.9004 102.577  L 100.394 102.292  L 100.917 102.066  L 101.463 101.903  L 102.024 101.804  L 102.593 101.771  L 103.162 101.804  L 103.723 101.903  L 104.269 102.066  L 104.792 102.292  L 105.285 102.577  L 105.742 102.917  L 106.157 103.308  L 106.523 103.745  L 106.836 104.221  L 107.092 104.73  L 107.287 105.265  L 107.418 105.82  L 107.484 106.386  L 107.484 106.955  L 107.418 107.521  L 107.287 108.076  L 107.092 108.611  L 106.836 109.12  L 106.523 109.596  L 106.157 110.033  L 105.742 110.424  L 105.285 110.764  L 104.792 111.049  L 104.269 111.275  L 103.723 111.438  L 103.162 111.537  L 102.593 111.57  z" fill="none" stroke="rgb(217, 95, 2)" /><path d="M 62.1869 111.537 L 61.6258 111.438  L 61.0799 111.275  L 60.5567 111.049  L 60.0633 110.764  L 59.6062 110.424  L 59.1917 110.033  L 58.8255 109.596  L 58.5124 109.12  L 58.2566 108.611  L 58.0618 108.076  L 57.9304 107.521  L 57.8642 106.955  L 57.8642 106.386  L 57.9304 105.82  L 58.0618 105.265  L 58.2566 104.73  L 58.5124 104.221  L 58.8255 103.745  L 59.1917 103.308  L 59.6062 102.917  L 60.0633 102.577  L 60.5567 102.292  L 61.0799 102.066  L 61.6258 101.903  L 62.1869 101.804  L 62.7558 101.771  L 63.3246 101.804  L 63.8857 101.903  L 64.4316 102.066  L 64.9548 102.292  L 65.4483 102.577  L 65.9053 102.917  L 66.3198 103.308  L 66.686 103.745  L 66.9991 104.221  L 67.2549 104.73  L 67.4497 105.265  L 67.5811 105.82  L 67.6473 106.386  L 67.6473 106.955  L 67.5811 107.521  L 67.4497 108.076  L 67.2549 108.611  L 66.9991 109.12  L 66.686 109.596  L 66.3198 110.033  L 65.9053 110.424  L 65.4483 110.764  L 64.9548 111.049  L 64.4316 111.275  L 63.8857 111.438  L 63.3246 111.537  L 62.7558 111.57  z" fill="none" stroke="rgb(217, 95, 2)" /><path d="M 22.3497 111.537 L 21.7886 111.438  L 21.2427 111.275  L 20.7195 111.049  L 20.2261 110.764  L 19.769 110.424  L 19.3546 110.033  L 18.9883 109.596  L 18.6752 109.12  L 18.4195 108.611  L 18.2246 108.076  L 18.0932 107.521  L 18.027 106.955  L 18.027 106.386  L 18.0932 105.82  L 18.2246 105.265  L 18.4195 104.73  L 18.6752 104.221  L 18.9883 103.745  L 19.3546 103.308  L 19.769 102.917  L 20.2261 102.577  L 20.7195 102.292  L 21.2427 102.066  L 21.7886 101.903  L 22.3497 101.804  L 22.9186 101.771  L 23.4874 101.804  L 24.0486 101.903  L 24.5944 102.066  L 25.1176 102.292  L 25.6111 102.577  L 26.0681 102.917  L 26.4826 103.308  L 26.8489 103.745  L 27.162 104.221  L 27.4177 104.73  L 27.6126 105.265  L 27.744 105.82  L 27.8101 106.386  L 27.8101 106.955  L 27.744 107.521  L 27.6126 108.076  L 27.4177 108.611  L 27.162 109.12  L 26.8489 109.596  L 26.4826 110.033  L 26.0681 110.424  L 25.6111 110.764  L 25.1176 111.049  L 24.5944 111.275  L 24.0486 111.438  L 23.4874 111.537  L 22.9186 111.57  z" fill="none" stroke="rgb(217, 95, 2)" /><path d="M -17.4874 111.537 L -18.0486 111.438  L -18.5944 111.275  L -19.1176 111.049  L -19.6111 110.764  L -20.0681 110.424  L -20.4826 110.033  L -20.8489 109.596  L -21.162 109.12  L -21.4177 108.611  L -21.6126 108.076  L -21.744 107.521  L -21.8101 106.955  L -21.8101 106.386  L -21.744 105.82  L -21.6126 105.265  L -21.4177 104.73  L -21.162 104.221  L -20.8489 103.745  L -20.4826 103.308  L -20.0681 102.917  L -19.6111 102.577  L -19.1176 102.292  L -18.5944 102.066  L -18.0486 101.903  L -17.4874 101.804  L -16.9186 101.771  L -16.3497 101.804  L -15.7886 101.903  L -15.2427 102.066  L -14.7195 102.292  L -14.2261 102.577  L -13.769 102.917  L -13.3546 103.308  L -12.9883 103.745  L -12.6752 104.221  L -12.4195 104.73  L -12.2246 105.265  L -12.0932 105.82  L -12.027 106.386  L -12.027 106.955  L -12.0932 107.521  L -12.2246 108.076  L -12.4195 108.611  L -12.6752 109.12  L -12.9883 109.596  L -13.3546 110.033  L -13.769 110.424  L -14.2261 110.764  L -14.7195 111.049  L -15.2427 111.275  L -15.7886 111.438  L -16.3497 111.537  L -16.9186 111.57  z" fill="none" stroke="rgb(217, 95, 2)" /><path d="M -57.3246 111.537 L -57.8857 111.438  L -58.4316 111.275  L -58.9548 111.049  L -59.4483 110.764  L -59.9053 110.424  L -60.3198 110.033  L -60.686 109.596  L -60.9991 109.12  L -61.2549 108.611  L -61.4497 108.076  L -61.5811 107.521  L -61.6473 106.955  L -61.6473 106.386  L -61.5811 105.82  L -61.4497 105.265  L -61.2549 104.73  L -60.9991 104.221  L -60.686 103.745  L -60.3198 103.308  L -59.9053 102.917  L -59.4483 102.577  L -58.9548 102.292  L -58.4316 102.066  L -57.8857 101.903  L -57.3246 101.804  L -56.7558 101.771  L -56.1869 101.804  L -55.6258 101.903  L -55.0799 102.066  L -54.5567 102.292  L -54.0633 102.577  L -53.6062 102.917  L -53.1917 103.308  L -52.8255 103.745  L -52.5124 104.221  L -52.2566 104.73  L -52.0618 105.265  L -51.9304 105.82  L -51.8642 106.386  L -51.8642 106.955  L -51.9304 107.521  L -52.0618 108.076  L -52.2566 108.611  L -52.5124 109.12  L -52.8255 109.596  L -53.1917 110.033  L -53.6062 110.424  L -54.0633 110.764  L -54.5567 111.049  L -55.0799 111.275  L -55.6258 111.438  L -56.1869 111.537  L -56.7558 111.57  z" fill="none" stroke="rgb(217, 95, 2)" /><path d="M -97.1618 111.537 L -97.7229 111.438  L -98.2688 111.275  L -98.792 111.049  L -99.2854 110.764  L -99.7425 110.424  L -100.157 110.033  L -100.523 109.596  L -100.836 109.12  L -101.092 108.611  L -101.287 108.076  L -101.418 107.521  L -101.484 106.955  L -101.484 106.386  L -101.418 105.82  L -101.287 105.265  L -101.092 104.73  L -100.836 104.221  L -100.523 103.745  L -100.157 103.308  L -99.7425 102.917  L -99.2854 102.577  L -98.792 102.292  L -98.2688 102.066  L -97.7229 101.903  L -97.1618 101.804  L -96.5929 101.771  L -96.0241 101.804  L -95.4629 101.903  L -94.9171 102.066  L -94.3939 102.292  L -93.9004 102.577  L -93.4434 102.917  L -93.0289 103.308  L -92.6627 103.745  L -92.3495 104.221  L -92.0938 104.73  L -91.8989 105.265  L -91.7675 105.82  L -91.7014 106.386  L -91.7014 106.955  L -91.7675 107.521  L -91.8989 108.076  L -92.0938 108.611  L -92.3495 109.12  L -92.6627 109.596  L -93.0289 110.033  L -93.4434 110.424  L -93.9004 110.764  L -94.3939 111.049  L -94.9171 111.275  L -95.4629 111.438  L -96.0241 111.537  L -96.5929 111.57  z" fill="none" stroke="rgb(217, 95, 2)" /><path d="M 82.1055 77.0372 L 81.5444 76.9383  L 80.9985 76.7748  L 80.4753 76.5492  L 79.9818 76.2643  L 79.5248 75.924  L 79.1103 75.533  L 78.7441 75.0965  L 78.431 74.6204  L 78.1752 74.1112  L 77.9804 73.5758  L 77.8489 73.0214  L 77.7828 72.4554  L 77.7828 71.8856  L 77.8489 71.3197  L 77.9804 70.7652  L 78.1752 70.2298  L 78.431 69.7206  L 78.7441 69.2445  L 79.1103 68.808  L 79.5248 68.417  L 79.9818 68.0768  L 80.4753 67.7919  L 80.9985 67.5662  L 81.5444 67.4028  L 82.1055 67.3038  L 82.6743 67.2707  L 83.2432 67.3038  L 83.8043 67.4028  L 84.3502 67.5662  L 84.8734 67.7919  L 85.3668 68.0768  L 85.8239 68.417  L 86.2383 68.808  L 86.6046 69.2445  L 86.9177 69.7206  L 87.1734 70.2298  L 87.3683 70.7652  L 87.4997 71.3197  L 87.5659 71.8856  L 87.5659 72.4554  L 87.4997 73.0214  L 87.3683 73.5758  L 87.1734 74.1112  L 86.9177 74.6204  L 86.6046 75.0965  L 86.2383 75.533  L 85.8239 75.924  L 85.3668 76.2643  L 84.8734 76.5492  L 84.3502 76.7748  L 83.8043 76.9383  L 83.2432 77.0372  L 82.6743 77.0703  z" fill="none" stroke="rgb(217, 95, 2)" /><path d="M 42.2683 77.0372 L 41.7072 76.9383  L 41.1613 76.7748  L 40.6381 76.5492  L 40.1447 76.2643  L 39.6876 75.924  L 39.2732 75.533  L 38.9069 75.0965  L 38.5938 74.6204  L 38.3381 74.1112  L 38.1432 73.5758  L 38.0118 73.0214  L 37.9456 72.4554  L 37.9456 71.8856  L 38.0118 71.3197  L 38.1432 70.7652  L 38.3381 70.2298  L 38.5938 69.7206  L 38.9069 69.2445  L 39.2732 68.808  L 39.6876 68.417  L 40.1447 68.0768  L 40.6381 67.7919  L 41.1613 67.5662  L 41.7072 67.4028  L 42.2683 67.3038  L 42.8372 67.2707  L 43.406 67.3038  L 43.9671 67.4028  L 44.513 67.5662  L 45.0362 67.7919  L 45.5297 68.0768  L 45.9867 68.417  L 46.4012 68.808  L 46.7674 69.2445  L 47.0805 69.7206  L 47.3363 70.2298  L 47.5312 70.7652  L 47.6626 71.3197  L 47.7287 71.8856  L 47.7287 72.4554  L 47.6626 73.0214  L 47.5312 73.5758  L 47.3363 74.1112  L 47.0805 74.6204  L 46.7674 75.0965  L 46.4012 75.533  L 45.9867 75.924  L 45.5297 76.2643  L 45.0362 76.5492  L 44.513 76.7748  L 43.9671 76.9383  L 43.406 77.0372  L 42.8372 77.0703  z" fill="none" stroke="rgb(217, 95, 2)" /><path d="M 2.43116 77.0372 L 1.87002 76.9383  L 1.32416 76.7748  L 0.80096 76.5492  L 0.307499 76.2643  L -0.14955 75.924  L -0.564008 75.533  L -0.930268 75.0965  L -1.24338 74.6204  L -1.4991 74.1112  L -1.69399 73.5758  L -1.82539 73.0214  L -1.89154 72.4554  L -1.89154 71.8856  L -1.82539 71.3197  L -1.69399 70.7652  L -1.4991 70.2298  L -1.24338 69.7206  L -0.930268 69.2445  L -0.564008 68.808  L -0.14955 68.417  L 0.307499 68.0768  L 0.80096 67.7919  L 1.32416 67.5662  L 1.87002 67.4028  L 2.43116 67.3038  L 3 67.2707  L 3.56884 67.3038  L 4.12998 67.4028  L 4.67584 67.5662  L 5.19904 67.7919  L 5.6925 68.0768  L 6.14955 68.417  L 6.56401 68.808  L 6.93027 69.2445  L 7.24338 69.7206  L 7.4991 70.2298  L 7.69399 70.7652  L 7.82539 71.3197  L 7.89154 71.8856  L 7.89154 72.4554  L 7.82539 73.0214  L 7.69399 73.5758  L 7.4991 74.1112  L 7.24338 74.6204  L 6.93027 75.0965  L 6.56401 75.533  L 6.14955 75.924  L 5.6925 76.2643  L 5.19904 76.5492  L 4.67584 76.7748  L 4.12998 76.9383  L 3.56884 77.0372  L 3 77.0703  z" fill="none" stroke="rgb(217, 95, 2)" /><path d="M -37.406 77.0372 L -37.9671 76.9383  L -38.513 76.7748  L -39.0362 76.5492  L -39.5297 76.2643  L -39.9867 75.924  L -40.4012 75.533  L -40.7674 75.0965  L -41.0805 74.6204  L -41.3363 74.1112  L -41.5312 73.5758  L -41.6626 73.0214  L -41.7287 72.4554  L -41.7287 71.8856  L -41.6626 71.3197  L -41.5312 70.7652  L -41.3363 70.2298  L -41.0805 69.7206  L -40.7674 69.2445  L -40.4012 68.808  L -39.9867 68.417  L -39.5297 68.0768  L -39.0362 67.7919  L -38.513 67.5662  L -37.9671 67.4028  L -37.406 67.3038  L -36.8372 67.2707  L -36.2683 67.3038  L -35.7072 67.4028  L -35.1613 67.5662  L -34.6381 67.7919  L -34.1447 68.0768  L -33.6876 68.417  L -33.2732 68.808  L -32.9069 69.2445  L -32.5938 69.7206  L -32.3381 70.2298  L -32.1432 70.7652  L -32.0118 71.3197  L -31.9456 71.8856  L -31.9456 72.4554  L -32.0118 73.0214  L -32.1432 73.5758  L -32.3381 74.1112  L -32.5938 74.6204  L -32.9069 75.0965  L -33.2732 75.533  L -33.6876 75.924  L -34.1447 76.2643  L -34.6381 76.5492  L -35.1613 76.7748  L -35.7072 76.9383  L -36.2683 77.0372  L -36.8372 77.0703  z" fill="none" stroke="rgb(217, 95, 2)" /><path d="M -77.2432 77.0372 L -77.8043 76.9383  L -78.3502 76.7748  L -78.8734 76.5492  L -79.3668 76.2643  L -79.8239 75.924  L -80.2383 75.533  L -80.6046 75.0965  L -80.9177 74.6204  L -81.1734 74.1112  L -81.3683 73.5758  L -81.4997 73.0214  L -81.5659 72.4554  L -81.5659 71.8856  L -81.4997 71.3197  L -81.3683 70.7652  L -81.1734 70.2298  L -80.9177 69.7206  L -80.6046 69.2445  L -80.2383 68.808  L -79.8239 68.417  L -79.3668 68.0768  L -78.8734 67.7919  L -78.3502 67.5662  L -77.8043 67.4028  L -77.2432 67.3038  L -76.6743 67.2707  L -76.1055 67.3038  L -75.5444 67.4028  L -74.9985 67.5662  L -74.4753 67.7919  L -73.9818 68.0768  L -73.5248 68.417  L -73.1103 68.808  L -72.7441 69.2445  L -72.431 69.7206  L -72.1752 70.2298  L -71.9804 70.7652  L -71.8489 71.3197  L -71.7828 71.8856  L -71.7828 72.4554  L -71.8489 73.0214  L -71.9804 73.5758  L -72.1752 74.1112  L -72.431 74.6204  L -72.7441 75.0965  L -73.1103 75.533  L -73.5248 75.924  L -73.9818 76.2643  L -74.4753 76.5492  L -74.9985 76.7748  L -75.5444 76.9383  L -76.1055 77.0372  L -76.6743 77.0703  z" fill="none" stroke="rgb(217, 95, 2)" /><path d="M 62.1869 42.5372 L 61.6258 42.4383  L 61.0799 42.2748  L 60.5567 42.0492  L 60.0633 41.7643  L 59.6062 41.424  L 59.1917 41.033  L 58.8255 40.5965  L 58.5124 40.1204  L 58.2566 39.6112  L 58.0618 39.0758  L 57.9304 38.5214  L 57.8642 37.9554  L 57.8642 37.3856  L 57.9304 36.8197  L 58.0618 36.2652  L 58.2566 35.7298  L 58.5124 35.2206  L 58.8255 34.7445  L 59.1917 34.308  L 59.6062 33.917  L 60.0633 33.5768  L 60.5567 33.2919  L 61.0799 33.0662  L 61.6258 32.9028  L 62.1869 32.8038  L 62.7558 32.7707  L 63.3246 32.8038  L 63.8857 32.9028  L 64.4316 33.0662  L 64.9548 33.2919  L 65.4483 33.5768  L 65.9053 33.917  L 66.3198 34.308  L 66.686 34.7445  L 66.9991 35.2206  L 67.2549 35.7298  L 67.4497 36.2652  L 67.5811 36.8197  L 67.6473 37.3856  L 67.6473 37.9554  L 67.5811 38.5214  L 67.4497 39.0758  L 67.2549 39.6112  L 66.9991 40.1204  L 66.686 40.5965  L 66.3198 41.033  L 65.9053 41.424  L 65.4483 41.7643  L 64.9548 42.0492  L 64.4316 42.2748  L 63.8857 42.4383  L 63.3246 42.5372  L 62.7558 42.5703  z" fill="none" stroke="rgb(217, 95, 2)" /><path d="M 22.3497 42.5372 L 21.7886 42.4383  L 21.2427 42.2748  L 20.7195 42.0492  L 20.2261 41.7643  L 19.769 41.424  L 19.3546 41.033  L 18.9883 40.5965  L 18.6752 40.1204  L 18.4195 39.6112  L 18.2246 39.0758  L 18.0932 38.5214  L 18.027 37.9554  L 18.027 37.3856  L 18.0932 36.8197  L 18.2246 36.2652  L 18.4195 35.7298  L 18.6752 35.2206  L 18.9883 34.7445  L 19.3546 34.308  L 19.769 33.917  L 20.2261 33.5768  L 20.7195 33.2919  L 21.2427 33.0662  L 21.7886 32.9028  L 22.3497 32.8038  L 22.9186 32.7707  L 23.4874 32.8038  L 24.0486 32.9028  L 24.5944 33.0662  L 25.1176 33.2919  L 25.6111 33.5768  L 26.0681 33.917  L 26.4826 34.308  L 26.8489 34.7445  L 27.162 35.2206  L 27.4177 35.7298  L 27.6126 36.2652  L 27.744 36.8197  L 27.8101 37.3856  L 27.8101 37.9554  L 27.744 38.5214  L 27.6126 39.0758  L 27.4177 39.6112  L 27.162 40.1204  L 26.8489 40.5965  L 26.4826 41.033  L 26.0681 41.424  L 25.6111 41.7643  L 25.1176 42.0492  L 24.5944 42.2748  L 24.0486 42.4383  L 23.4874 42.5372  L 22.9186 42.5703  z" fill="none" stroke="rgb(217, 95, 2)" /><path d="M -17.4874 42.5372 L -18.0486 42.4383  L -18.5944 42.2748  L -19.1176 42.0492  L -19.6111 41.7643  L -20.0681 41.424  L -20.4826 41.033  L -20.8489 40.5965  L -21.162 40.1204  L -21.4177 39.6112  L -21.6126 39.0758  L -21.744 38.5214  L -21.8101 37.9554  L -21.8101 37.3856  L -21.744 36.8197  L -21.6126 36.2652  L -21.4177 35.7298  L -21.162 35.2206  L -20.8489 34.7445  L -20.4826 34.308  L -20.0681 33.917  L -19.6111 33.5768  L -19.1176 33.2919  L -18.5944 33.0662  L -18.0486 32.9028  L -17.4874 32.8038  L -16.9186 32.7707  L -16.3497 32.8038  L -15.7886 32.9028  L -15.2427 33.0662  L -14.7195 33.2919  L -14.2261 33.5768  L -13.769 33.917  L -13.3546 34.308  L -12.9883 34.7445  L -12.6752 35.2206  L -12.4195 35.7298  L -12.2246 36.2652  L -12.0932 36.8197  L -12.027 37.3856  L -12.027 37.9554  L -12.0932 38.5214  L -12.2246 39.0758  L -12.4195 39.6112  L -12.6752 40.1204  L -12.9883 40.5965  L -13.3546 41.033  L -13.769 41.424  L -14.2261 41.7643  L -14.7195 42.0492  L -15.2427 42.2748  L -15.7886 42.4383  L -16.3497 42.5372  L -16.9186 42.5703  z" fill="none" stroke="rgb(217, 95, 2)" /><path d="M -57.3246 42.5372 L -57.8857 42.4383  L -58.4316 42.2748  L -58.9548 42.0492  L -59.4483 41.7643  L -59.9053 41.424  L -60.3198 41.033  L -60.686 40.5965  L -60.9991 40.1204  L -61.2549 39.6112  L -61.4497 39.0758  L -61.5811 38.5214  L -61.6473 37.9554  L -61.6473 37.3856  L -61.5811 36.8197  L -61.4497 36.2652  L -61.2549 35.7298  L -60.9991 35.2206  L -60.686 34.7445  L -60.3198 34.308  L -59.9053 33.917  L -59.4483 33.5768  L -58.9548 33.2919  L -58.4316 33.0662  L -57.8857 32.9028  L -57.3246 32.8038  L -56.7558 32.7707  L -56.1869 32.8038  L -55.6258 32.9028  L -55.0799 33.0662  L -54.5567 33.2919  L -54.0633 33.5768  L -53.6062 33.917  L -53.1917 34.308  L -52.8255 34.7445  L -52.5124 35.2206  L -52.2566 35.7298  L -52.0618 36.2652  L -51.9304 36.8197  L -51.8642 37.3856  L -51.8642 37.9554  L -51.9304 38.5214  L -52.0618 39.0758  L -52.2566 39.6112  L -52.5124 40.1204  L -52.8255 40.5965  L -53.1917 41.033  L -53.6062 41.424  L -54.0633 41.7643  L -54.5567 42.0492  L -55.0799 42.2748  L -55.6258 42.4383  L -56.1869 42.5372  L -56.7558 42.5703  z" fill="none" stroke="rgb(217, 95, 2)" /></svg>