<?xml version="1.0" encoding="utf-8" ?>
<svg baseProfile="full" height="287.19101615137754mm" version="1.1" viewBox="-2.0,-140.59550807568877,330.0726155838875,287.19101615137754" width="330.0726155838875mm" xmlns="http://www.w3.org/2000/svg" xmlns:ev="http://www.w3.org/2001/xml-events" xmlns:xlink="http://www.w3.org/1999/xlink"><defs /><g transform="translate(163.036, 3)"><path d="M 82.5993 128.125 L 87.9577 118.844  L 90.5558 120.344  L 95.9143 111.063  L 93.3162 109.563  L 98.6746 100.282  L 101.273 101.782  L 106.631 92.5005  L 104.033 91.0005  L 109.391 81.7194  L 111.99 83.2194  L 117.348 73.9383  L 114.75 72.4383  L 120.108 63.1572  L 122.706 64.6572  L 128.065 55.3761  L 125.467 53.8761  L 130.825 44.595  L 133.423 46.095  L 138.782 36.8139  L 136.184 35.3139  L 141.542 26.0329  L 144.14 27.5329  L 149.499 18.2518  L 146.901 16.7518  L 152.259 7.47067  L 154.857 8.97067  L 160.036 0  L 154.857 -8.97067  L 152.259 -7.47067  L 146.901 -16.7518  L 149.499 -18.2518  L 144.14 -27.5329  L 141.542 -26.0329  L 136.184 -35.3139  L 138.782 -36.8139  L 133.423 -46.095  L 130.825 -44.595  L 125.467 -53.8761  L 128.065 -55.3761  L 122.706 -64.6572  L 120.108 -63.1572  L 114.75 -72.4383  L 117.348 -73.9383  L 111.99 -83.2194  L 109.391 -81.7194  L 104.033 -91.0005  L 106.631 -92.5005  L 101.273 -101.782  L 98.6746 -100.282  L 93.3162 -109.563  L 95.9143 -111.063  L 90.5558 -120.344  L 87.9577 -118.844  L 82.5993 -128.125  L 85.1974 -129.625  L 80.0182 -138.596  L 69.6597 -138.596  L 69.6597 -135.596  L 58.9428 -135.596  L 58.9428 -138.596  L 48.226 -138.596  L 48.226 -135.596  L 37.5091 -135.596  L 37.5091 -138.596  L 26.7922 -138.596  L 26.7922 -135.596  L 16.0753 -135.596  L 16.0753 -138.596  L 5.35844 -138.596  L 5.35844 -135.596  L -5.35844 -135.596  L -5.35844 -138.596  L -16.0753 -138.596  L -16.0753 -135.596  L -26.7922 -135.596  L -26.7922 -138.596  L -37.5091 -138.596  L -37.5091 -135.596  L -48.226 -135.596  L -48.226 -138.596  L -58.9428 -138.596  L -58.9428 -135.596  L -69.6597 -135.596  L -69.6597 -138.596  L -80.0182 -138.596  L -85.1974 -129.625  L -82.5993 -128.125  L -87.9577 -118.844  L -90.5558 -120.344  L -95.9143 -111.063  L -93.3162 -109.563  L -98.6746 -100.282  L -101.273 -101.782  L -106.631 -92.5005  L -104.033 -91.0005  L -109.391 -81.7194  L -111.99 -83.2194  L -117.348 -73.9383  L -114.75 -72.4383  L -120.108 -63.1572  L -122.706 -64.6572  L -128.065 -55.3761  L -125.467 -53.8761  L -130.825 -44.595  L -133.423 -46.095  L -138.782 -36.8139  L -136.184 -35.3139  L -141.542 -26.0329  L -144.14 -27.5329  L -149.499 -18.2518  L -146.901 -16.7518  L -152.259 -7.47067  L -154.857 -8.97067  L -160.036 0  L -154.857 8.97067  L -152.259 7.47067  L -146.901 16.7518  L -149.499 18.2518  L -144.14 27.5329  L -141.542 26.0329  L -136.184 35.3139  L -138.782 36.8139  L -133.423 46.095  L -130.825 44.595  L -125.467 53.8761  L -128.065 55.3761  L -122.706 64.6572  L -120.108 63.1572  L -114.75 72.4383  L -117.348 73.9383  L -111.99 83.2194  L -109.391 81.7194  L -104.033 91.0005  L -106.631 92.5005  L -101.273 101.782  L -98.6746 100.282  L -93.3162 109.563  L -95.9143 111.063  L -90.5558 120.344  L -87.9577 118.844  L -82.5993 128.125  L -85.1974 129.625  L -80.0182 138.596  L -69.6597 138.596  L -69.6597 135.596  L -58.9428 135.596  L -58.9428 138.596  L -48.226 138.596  L -48.226 135.596  L -37.5091 135.596  L -37.5091 138.596  L -26.7922 138.596  L -26.7922 135.596  L -16.0753 135.596  L -16.0753 138.596  L -5.35844 138.596  L -5.35844 135.596  L 5.35844 135.596  L 5.35844 138.596  L 16.0753 138.596  L 16.0753 135.596  L 26.7922 135.596  L 26.7922 138.596  L 37.5091 138.596  L 37.5091 135.596  L 48.226 135.596  L 48.226 138.596  L 58.9428 138.596  L 58.9428 135.596  L 69.6597 135.596  L 69.6597 138.596  L 80.0182 138.596  L 85.1974 129.625  z" fill="none" stroke="rgb(27, 158, 119)" /><path d="M 40.0104 108.501 L 20.0052 123.035  L 0 108.501  L -20.0052 123.035  L -40.0104 108.501  L -60.0156 123.035  L -80.0829 108.455  L -72.4178 84.8649  L -47.6133 84.8649  L -40.0104 108.264  L -32.4075 84.8649  L -7.60292 84.8649  L -4.61739e-15 108.264  L 7.60292 84.8649  L 32.4075 84.8649  L 40.0104 108.264  L 47.6133 84.8649  L 72.4178 84.8649  L 80.0829 108.455  L 60.0156 123.035  z" fill="none" stroke="rgb(217, 95, 2)" /><path d="M 60.0156 73.8505 L 40.0104 88.3851  L 20.0052 73.8505  L -0 88.3851  L -20.0052 73.8505  L -40.0104 88.3851  L -60.0156 73.8505  L -80.0207 88.3851  L -100.088 73.8054  L -92.423 50.2149  L -67.6185 50.2149  L -60.0156 73.6142  L -52.4126 50.2149  L -27.6081 50.2149  L -20.0052 73.6142  L -12.4023 50.2149  L 12.4023 50.2149  L 20.0052 73.6142  L 27.6081 50.2149  L 52.4126 50.2149  L 60.0156 73.6142  L 67.6185 50.2149  L 92.423 50.2149  L 100.088 73.8054  L 80.0207 88.3851  z" fill="none" stroke="rgb(217, 95, 2)" /><path d="M 80.0207 39.2005 L 60.0156 53.7351  L 40.0104 39.2005  L 20.0052 53.7351  L 9.77978e-15 39.2005  L -20.0052 53.7351  L -40.0104 39.2005  L -60.0156 53.7351  L -80.0207 39.2005  L -100.026 53.7351  L -120.093 39.1554  L -112.428 15.5649  L -87.6237 15.5649  L -80.0207 38.9642  L -72.4178 15.5649  L -47.6133 15.5649  L -40.0104 38.9642  L -32.4075 15.5649  L -7.60292 15.5649  L 2.30869e-15 38.9642  L 7.60292 15.5649  L 32.4075 15.5649  L 40.0104 38.9642  L 47.6133 15.5649  L 72.4178 15.5649  L 80.0207 38.9642  L 87.6237 15.5649  L 112.428 15.5649  L 120.093 39.1554  L 100.026 53.7351  z" fill="none" stroke="rgb(217, 95, 2)" /><path d="M 100.026 4.55051 L 80.0207 19.0851  L 60.0156 4.55051  L 40.0104 19.0851  L 20.0052 4.55051  L -1.22247e-14 19.0851  L -20.0052 4.55051  L -40.0104 19.0851  L -60.0156 4.55051  L -80.0207 19.0851  L -100.026 4.55051  L -120.031 19.0851  L -140.098 4.50539  L -132.433 -19.0851  L -107.629 -19.0851  L -100.026 4.31425  L -92.423 -19.0851  L -67.6185 -19.0851  L -60.0156 4.31425  L -52.4126 -19.0851  L -27.6081 -19.0851  L -20.0052 4.31425  L -12.4023 -19.0851  L 12.4023 -19.0851  L 20.0052 4.31425  L 27.6081 -19.0851  L 52.4126 -19.0851  L 60.0156 4.31425  L 67.6185 -19.0851  L 92.423 -19.0851  L 100.026 4.31425  L 107.629 -19.0851  L 132.433 -19.0851  L 140.098 4.50539  L 120.031 19.0851  z" fill="none" stroke="rgb(217, 95, 2)" /><path d="M 80.0207 -30.0995 L 60.0156 -15.5649  L 40.0104 -30.0995  L 20.0052 -15.5649  L 7.33484e-15 -30.0995  L -20.0052 -15.5649  L -40.0104 -30.0995  L -60.0156 -15.5649  L -80.0207 -30.0995  L -100.026 -15.5649  L -120.093 -30.1446  L -112.428 -53.7351  L -87.6237 -53.7351  L -80.0207 -30.3358  L -72.4178 -53.7351  L -47.6133 -53.7351  L -40.0104 -30.3358  L -32.4075 -53.7351  L -7.60292 -53.7351  L 3.46304e-15 -30.3358  L 7.60292 -53.7351  L 32.4075 -53.7351  L 40.0104 -30.3358  L 47.6133 -53.7351  L 72.4178 -53.7351  L 80.0207 -30.3358  L 87.6237 -53.7351  L 112.428 -53.7351  L 120.093 -30.1446  L 100.026 -15.5649  z" fill="none" stroke="rgb(217, 95, 2)" /><path d="M 60.0156 -64.7495 L 40.0104 -50.2149  L 20.0052 -64.7495  L -0 -50.2149  L -20.0052 -64.7495  L -40.0104 -50.2149  L -60.0156 -64.7495  L -80.0207 -50.2149  L -100.088 -64.7946  L -92.423 -88.3851  L -67.6185 -88.3851  L -60.0156 -64.9858  L -52.4126 -88.3851  L -27.6081 -88.3851  L -20.0052 -64.9858  L -12.4023 -88.3851  L 12.4023 -88.3851  L 20.0052 -64.9858  L 27.6081 -88.3851  L 52.4126 -88.3851  L 60.0156 -64.9858  L 67.6185 -88.3851  L 92.423 -88.3851  L 100.088 -64.7946  L 80.0207 -50.2149  z" fill="none" stroke="rgb(217, 95, 2)" /><path d="M 40.0104 -99.3995 L 20.0052 -84.8649  L 0 -99.3995  L -20.0052 -84.8649  L -40.0104 -99.3995  L -60.0156 -84.8649  L -80.0829 -99.4446  L -72.4178 -123.035  L -47.6133 -123.035  L -40.0104 -99.6358  L -32.4075 -123.035  L -7.60292 -123.035  L -4.61739e-15 -99.6358  L 7.60292 -123.035  L 32.4075 -123.035  L 40.0104 -99.6358  L 47.6133 -123.035  L 72.4178 -123.035  L 80.0829 -99.4446  L 60.0156 -84.8649  z" fill="none" stroke="rgb(217, 95, 2)" /></g></svg>