<?xml version="1.0" encoding="utf-8" ?>
<svg baseProfile="full" height="287.19101615137754mm" version="1.1" viewBox="-165.03630779194376,-143.59550807568877,330.0726155838875,287.19101615137754" width="330.0726155838875mm" xmlns="http://www.w3.org/2000/svg" xmlns:ev="http://www.w3.org/2001/xml-events" xmlns:xlink="http://www.w3.org/1999/xlink"><defs /><g><path d="M 82.5993 128.125 L 87.9577 118.844  L 90.5558 120.344  L 95.9143 111.063  L 93.3162 109.563  L 98.6746 100.282  L 101.273 101.782  L 106.631 92.5005  L 104.033 91.0005  L 109.391 81.7194  L 111.99 83.2194  L 117.348 73.9383  L 114.75 72.4383  L 120.108 63.1572  L 122.706 64.6572  L 128.065 55.3761  L 125.467 53.8761  L 130.825 44.595  L 133.423 46.095  L 138.782 36.8139  L 136.184 35.3139  L 141.542 26.0329  L 144.14 27.5329  L 149.499 18.2518  L 146.901 16.7518  L 152.259 7.47067  L 154.857 8.97067  L 160.036 0  L 154.857 -8.97067  L 152.259 -7.47067  L 146.901 -16.7518  L 149.499 -18.2518  L 144.14 -27.5329  L 141.542 -26.0329  L 136.184 -35.3139  L 138.782 -36.8139  L 133.423 -46.095  L 130.825 -44.595  L 125.467 -53.8761  L 128.065 -55.3761  L 122.706 -64.6572  L 120.108 -63.1572  L 114.75 -72.4383  L 117.348 -73.9383  L 111.99 -83.2194  L 109.391 -81.7194  L 104.033 -91.0005  L 106.631 -92.5005  L 101.273 -101.782  L 98.6746 -100.282  L 93.3162 -109.563  L 95.9143 -111.063  L 90.5558 -120.344  L 87.9577 -118.844  L 82.5993 -128.125  L 85.1974 -129.625  L 80.0182 -138.596  L 69.6597 -138.596  L 69.6597 -135.596  L 58.9428 -135.596  L 58.9428 -138.596  L 48.226 -138.596  L 48.226 -135.596  L 37.5091 -135.596  L 37.5091 -138.596  L 26.7922 -138.596  L 26.7922 -135.596  L 16.0753 -135.596  L 16.0753 -138.596  L 5.35844 -138.596  L 5.35844 -135.596  L -5.35844 -135.596  L -5.35844 -138.596  L -16.0753 -138.596  L -16.0753 -135.596  L -26.7922 -135.596  L -26.7922 -138.596  L -37.5091 -138.596  L -37.5091 -135.596  L -48.226 -135.596  L -48.226 -138.596  L -58.9428 -138.596  L -58.9428 -135.596  L -69.6597 -135.596  L -69.6597 -138.596  L -80.0182 -138.596  L -85.1974 -129.625  L -82.5993 -128.125  L -87.9577 -118.844  L -90.5558 -120.344  L -95.9143 -111.063  L -93.3162 -109.563  L -98.6746 -100.282  L -101.273 -101.782  L -106.631 -92.5005  L -104.033 -91.0005  L -109.391 -81.7194  L -111.99 -83.2194  L -117.348 -73.9383  L -114.75 -72.4383  L -120.108 -63.1572  L -122.706 -64.6572  L -128.065 -55.3761  L -125.467 -53.8761  L -130.825 -44.595  L -133.423 -46.095  L -138.782 -36.8139  L -136.184 -35.3139  L -141.542 -26.0329  L -144.14 -27.5329  L -149.499 -18.2518  L -146.901 -16.7518  L -152.259 -7.47067  L -154.857 -8.97067  L -160.036 0  L -154.857 8.97067  L -152.259 7.47067  L -146.901 16.7518  L -149.499 18.2518  L -144.14 27.5329  L -141.542 26.0329  L -136.184 35.3139  L -138.782 36.8139  L -133.423 46.095  L -130.825 44.595  L -125.467 53.8761  L -128.065 55.3761  L -122.706 64.6572  L -120.108 63.1572  L -114.75 72.4383  L -117.348 73.9383  L -111.99 83.2194  L -109.391 81.7194  L -104.033 91.0005  L -106.631 92.5005  L -101.273 101.782  L -98.6746 100.282  L -93.3162 109.563  L -95.9143 111.063  L -90.5558 120.344  L -87.9577 118.844  L -82.5993 128.125  L -85.1974 129.625  L -80.0182 138.596  L -69.6597 138.596  L -69.6597 135.596  L -58.9428 135.596  L -58.9428 138.596  L -48.226 138.596  L -48.226 135.596  L -37.5091 135.596  L -37.5091 138.596  L -26.7922 138.596  L -26.7922 135.596  L -16.0753 135.596  L -16.0753 138.596  L -5.35844 138.596  L -5.35844 135.596  L 5.35844 135.596  L 5.35844 138.596  L 16.0753 138.596  L 16.0753 135.596  L 26.7922 135.596  L 26.7922 138.596  L 37.5091 138.596  L 37.5091 135.596  L 48.226 135.596  L 48.226 138.596  L 58.9428 138.596  L 58.9428 135.596  L 69.6597 135.596  L 69.6597 138.596  L 80.0182 138.596  L 85.1974 129.625  z" fill="none" stroke="rgb(27, 158, 119)" /><path d="M 56.7247 123.15 L 58.2247 120.552  L 55.1936 118.802  L 53.6936 121.4  L 48.0644 118.15  L 49.5644 115.552  L 46.5333 113.802  L 45.0333 116.4  L 41.7424 114.5  L 41.7424 110.7  L 44.7424 110.7  L 44.7424 107.2  L 41.7424 107.2  L 41.7424 100.7  L 44.7424 100.7  L 44.7424 97.2  L 41.7424 97.2  L 41.7424 93.4  L 45.0333 91.5  L 46.5333 94.0981  L 49.5644 92.3481  L 48.0644 89.75  L 53.6936 86.5  L 55.1936 89.0981  L 58.2247 87.3481  L 56.7247 84.75  L 60.0156 82.85  L 63.3065 84.75  L 61.8065 87.3481  L 64.8375 89.0981  L 66.3375 86.5  L 71.9667 89.75  L 70.4667 92.3481  L 73.4978 94.0981  L 74.9978 91.5  L 78.2887 93.4  L 78.2887 97.2  L 75.2887 97.2  L 75.2887 100.7  L 78.2887 100.7  L 78.2887 107.2  L 75.2887 107.2  L 75.2887 110.7  L 78.2887 110.7  L 78.2887 114.5  L 74.9978 116.4  L 73.4978 113.802  L 70.4667 115.552  L 71.9667 118.15  L 66.3375 121.4  L 64.8375 118.802  L 61.8065 120.552  L 63.3065 123.15  L 60.0156 125.05  z" fill="none" stroke="rgb(217, 95, 2)" /><path d="M 16.7143 123.15 L 18.2143 120.552  L 15.1832 118.802  L 13.6832 121.4  L 8.05404 118.15  L 9.55404 115.552  L 6.52295 113.802  L 5.02295 116.4  L 1.73205 114.5  L 1.73205 110.7  L 4.73205 110.7  L 4.73205 107.2  L 1.73205 107.2  L 1.73205 100.7  L 4.73205 100.7  L 4.73205 97.2  L 1.73205 97.2  L 1.73205 93.4  L 5.02295 91.5  L 6.52295 94.0981  L 9.55404 92.3481  L 8.05404 89.75  L 13.6832 86.5  L 15.1832 89.0981  L 18.2143 87.3481  L 16.7143 84.75  L 20.0052 82.85  L 23.2961 84.75  L 21.7961 87.3481  L 24.8272 89.0981  L 26.3272 86.5  L 31.9563 89.75  L 30.4563 92.3481  L 33.4874 94.0981  L 34.9874 91.5  L 38.2783 93.4  L 38.2783 97.2  L 35.2783 97.2  L 35.2783 100.7  L 38.2783 100.7  L 38.2783 107.2  L 35.2783 107.2  L 35.2783 110.7  L 38.2783 110.7  L 38.2783 114.5  L 34.9874 116.4  L 33.4874 113.802  L 30.4563 115.552  L 31.9563 118.15  L 26.3272 121.4  L 24.8272 118.802  L 21.7961 120.552  L 23.2961 123.15  L 20.0052 125.05  z" fill="none" stroke="rgb(217, 95, 2)" /><path d="M -23.2961 123.15 L -21.7961 120.552  L -24.8272 118.802  L -26.3272 121.4  L -31.9563 118.15  L -30.4563 115.552  L -33.4874 113.802  L -34.9874 116.4  L -38.2783 114.5  L -38.2783 110.7  L -35.2783 110.7  L -35.2783 107.2  L -38.2783 107.2  L -38.2783 100.7  L -35.2783 100.7  L -35.2783 97.2  L -38.2783 97.2  L -38.2783 93.4  L -34.9874 91.5  L -33.4874 94.0981  L -30.4563 92.3481  L -31.9563 89.75  L -26.3272 86.5  L -24.8272 89.0981  L -21.7961 87.3481  L -23.2961 84.75  L -20.0052 82.85  L -16.7143 84.75  L -18.2143 87.3481  L -15.1832 89.0981  L -13.6832 86.5  L -8.05404 89.75  L -9.55404 92.3481  L -6.52295 94.0981  L -5.02295 91.5  L -1.73205 93.4  L -1.73205 97.2  L -4.73205 97.2  L -4.73205 100.7  L -1.73205 100.7  L -1.73205 107.2  L -4.73205 107.2  L -4.73205 110.7  L -1.73205 110.7  L -1.73205 114.5  L -5.02295 116.4  L -6.52295 113.802  L -9.55404 115.552  L -8.05404 118.15  L -13.6832 121.4  L -15.1832 118.802  L -18.2143 120.552  L -16.7143 123.15  L -20.0052 125.05  z" fill="none" stroke="rgb(217, 95, 2)" /><path d="M -63.3065 123.15 L -61.8065 120.552  L -64.8375 118.802  L -66.3375 121.4  L -71.9667 118.15  L -70.4667 115.552  L -73.4978 113.802  L -74.9978 116.4  L -78.2887 114.5  L -78.2887 110.7  L -75.2887 110.7  L -75.2887 107.2  L -78.2887 107.2  L -78.2887 100.7  L -75.2887 100.7  L -75.2887 97.2  L -78.2887 97.2  L -78.2887 93.4  L -74.9978 91.5  L -73.4978 94.0981  L -70.4667 92.3481  L -71.9667 89.75  L -66.3375 86.5  L -64.8375 89.0981  L -61.8065 87.3481  L -63.3065 84.75  L -60.0156 82.85  L -56.7247 84.75  L -58.2247 87.3481  L -55.1936 89.0981  L -53.6936 86.5  L -48.0644 89.75  L -49.5644 92.3481  L -46.5333 94.0981  L -45.0333 91.5  L -41.7424 93.4  L -41.7424 97.2  L -44.7424 97.2  L -44.7424 100.7  L -41.7424 100.7  L -41.7424 107.2  L -44.7424 107.2  L -44.7424 110.7  L -41.7424 110.7  L -41.7424 114.5  L -45.0333 116.4  L -46.5333 113.802  L -49.5644 115.552  L -48.0644 118.15  L -53.6936 121.4  L -55.1936 118.802  L -58.2247 120.552  L -56.7247 123.15  L -60.0156 125.05  z" fill="none" stroke="rgb(217, 95, 2)" /><path d="M 76.7299 88.5 L 78.2299 85.9019  L 75.1988 84.1519  L 73.6988 86.75  L 68.0696 83.5  L 69.5696 80.9019  L 66.5385 79.1519  L 65.0385 81.75  L 61.7476 79.85  L 61.7476 76.05  L 64.7476 76.05  L 64.7476 72.55  L 61.7476 72.55  L 61.7476 66.05  L 64.7476 66.05  L 64.7476 62.55  L 61.7476 62.55  L 61.7476 58.75  L 65.0385 56.85  L 66.5385 59.4481  L 69.5696 57.6981  L 68.0696 55.1  L 73.6988 51.85  L 75.1988 54.4481  L 78.2299 52.6981  L 76.7299 50.1  L 80.0207 48.2  L 83.3116 50.1  L 81.8116 52.6981  L 84.8427 54.4481  L 86.3427 51.85  L 91.9719 55.1  L 90.4719 57.6981  L 93.503 59.4481  L 95.003 56.85  L 98.2939 58.75  L 98.2939 62.55  L 95.2939 62.55  L 95.2939 66.05  L 98.2939 66.05  L 98.2939 72.55  L 95.2939 72.55  L 95.2939 76.05  L 98.2939 76.05  L 98.2939 79.85  L 95.003 81.75  L 93.503 79.1519  L 90.4719 80.9019  L 91.9719 83.5  L 86.3427 86.75  L 84.8427 84.1519  L 81.8116 85.9019  L 83.3116 88.5  L 80.0207 90.4  z" fill="none" stroke="rgb(217, 95, 2)" /><path d="M 36.7195 88.5 L 38.2195 85.9019  L 35.1884 84.1519  L 33.6884 86.75  L 28.0592 83.5  L 29.5592 80.9019  L 26.5281 79.1519  L 25.0281 81.75  L 21.7372 79.85  L 21.7372 76.05  L 24.7372 76.05  L 24.7372 72.55  L 21.7372 72.55  L 21.7372 66.05  L 24.7372 66.05  L 24.7372 62.55  L 21.7372 62.55  L 21.7372 58.75  L 25.0281 56.85  L 26.5281 59.4481  L 29.5592 57.6981  L 28.0592 55.1  L 33.6884 51.85  L 35.1884 54.4481  L 38.2195 52.6981  L 36.7195 50.1  L 40.0104 48.2  L 43.3013 50.1  L 41.8013 52.6981  L 44.8324 54.4481  L 46.3324 51.85  L 51.9615 55.1  L 50.4615 57.6981  L 53.4926 59.4481  L 54.9926 56.85  L 58.2835 58.75  L 58.2835 62.55  L 55.2835 62.55  L 55.2835 66.05  L 58.2835 66.05  L 58.2835 72.55  L 55.2835 72.55  L 55.2835 76.05  L 58.2835 76.05  L 58.2835 79.85  L 54.9926 81.75  L 53.4926 79.1519  L 50.4615 80.9019  L 51.9615 83.5  L 46.3324 86.75  L 44.8324 84.1519  L 41.8013 85.9019  L 43.3013 88.5  L 40.0104 90.4  z" fill="none" stroke="rgb(217, 95, 2)" /><path d="M -3.2909 88.5 L -1.7909 85.9019  L -4.82199 84.1519  L -6.32199 86.75  L -11.9512 83.5  L -10.4512 80.9019  L -13.4822 79.1519  L -14.9822 81.75  L -18.2731 79.85  L -18.2731 76.05  L -15.2731 76.05  L -15.2731 72.55  L -18.2731 72.55  L -18.2731 66.05  L -15.2731 66.05  L -15.2731 62.55  L -18.2731 62.55  L -18.2731 58.75  L -14.9822 56.85  L -13.4822 59.4481  L -10.4512 57.6981  L -11.9512 55.1  L -6.32199 51.85  L -4.82199 54.4481  L -1.7909 52.6981  L -3.2909 50.1  L 6.15348e-15 48.2  L 3.2909 50.1  L 1.7909 52.6981  L 4.82199 54.4481  L 6.32199 51.85  L 11.9512 55.1  L 10.4512 57.6981  L 13.4822 59.4481  L 14.9822 56.85  L 18.2731 58.75  L 18.2731 62.55  L 15.2731 62.55  L 15.2731 66.05  L 18.2731 66.05  L 18.2731 72.55  L 15.2731 72.55  L 15.2731 76.05  L 18.2731 76.05  L 18.2731 79.85  L 14.9822 81.75  L 13.4822 79.1519  L 10.4512 80.9019  L 11.9512 83.5  L 6.32199 86.75  L 4.82199 84.1519  L 1.7909 85.9019  L 3.2909 88.5  L -0 90.4  z" fill="none" stroke="rgb(217, 95, 2)" /><path d="M -43.3013 88.5 L -41.8013 85.9019  L -44.8324 84.1519  L -46.3324 86.75  L -51.9615 83.5  L -50.4615 80.9019  L -53.4926 79.1519  L -54.9926 81.75  L -58.2835 79.85  L -58.2835 76.05  L -55.2835 76.05  L -55.2835 72.55  L -58.2835 72.55  L -58.2835 66.05  L -55.2835 66.05  L -55.2835 62.55  L -58.2835 62.55  L -58.2835 58.75  L -54.9926 56.85  L -53.4926 59.4481  L -50.4615 57.6981  L -51.9615 55.1  L -46.3324 51.85  L -44.8324 54.4481  L -41.8013 52.6981  L -43.3013 50.1  L -40.0104 48.2  L -36.7195 50.1  L -38.2195 52.6981  L -35.1884 54.4481  L -33.6884 51.85  L -28.0592 55.1  L -29.5592 57.6981  L -26.5281 59.4481  L -25.0281 56.85  L -21.7372 58.75  L -21.7372 62.55  L -24.7372 62.55  L -24.7372 66.05  L -21.7372 66.05  L -21.7372 72.55  L -24.7372 72.55  L -24.7372 76.05  L -21.7372 76.05  L -21.7372 79.85  L -25.0281 81.75  L -26.5281 79.1519  L -29.5592 80.9019  L -28.0592 83.5  L -33.6884 86.75  L -35.1884 84.1519  L -38.2195 85.9019  L -36.7195 88.5  L -40.0104 90.4  z" fill="none" stroke="rgb(217, 95, 2)" /><path d="M -83.3116 88.5 L -81.8116 85.9019  L -84.8427 84.1519  L -86.3427 86.75  L -91.9719 83.5  L -90.4719 80.9019  L -93.503 79.1519  L -95.003 81.75  L -98.2939 79.85  L -98.2939 76.05  L -95.2939 76.05  L -95.2939 72.55  L -98.2939 72.55  L -98.2939 66.05  L -95.2939 66.05  L -95.2939 62.55  L -98.2939 62.55  L -98.2939 58.75  L -95.003 56.85  L -93.503 59.4481  L -90.4719 57.6981  L -91.9719 55.1  L -86.3427 51.85  L -84.8427 54.4481  L -81.8116 52.6981  L -83.3116 50.1  L -80.0207 48.2  L -76.7299 50.1  L -78.2299 52.6981  L -75.1988 54.4481  L -73.6988 51.85  L -68.0696 55.1  L -69.5696 57.6981  L -66.5385 59.4481  L -65.0385 56.85  L -61.7476 58.75  L -61.7476 62.55  L -64.7476 62.55  L -64.7476 66.05  L -61.7476 66.05  L -61.7476 72.55  L -64.7476 72.55  L -64.7476 76.05  L -61.7476 76.05  L -61.7476 79.85  L -65.0385 81.75  L -66.5385 79.1519  L -69.5696 80.9019  L -68.0696 83.5  L -73.6988 86.75  L -75.1988 84.1519  L -78.2299 85.9019  L -76.7299 88.5  L -80.0207 90.4  z" fill="none" stroke="rgb(217, 95, 2)" /><path d="M -79.6145 71.3094 L -79.4165 71.2589  L -79.2245 71.189  L -79.0403 71.1004  L -78.8659 70.9938  L -78.703 70.8704  L -78.5532 70.7314  L -78.418 70.5782  L -78.2987 70.4122  L -78.1965 70.2352  L -78.1125 70.0489  L -78.0474 69.8552  L -78.0019 69.656  L -77.9765 69.4532  L -77.9714 69.2489  L -77.9867 69.0451  L -78.0221 68.8438  L -78.0775 68.6471  L -78.1522 68.4569  L -78.2454 68.275  L -78.3563 68.1033  L -78.4837 67.9435  L -78.6264 67.7972  L -78.7829 67.6659  L -78.9518 67.5508  L -79.1313 67.453  L -79.3196 67.3736  L -79.5149 67.3134  L -79.7152 67.2729  L -79.9186 67.2525  L -80.1229 67.2525  L -80.3263 67.2729  L -80.5266 67.3134  L -80.7219 67.3736  L -80.9102 67.453  L -81.0897 67.5508  L -81.2585 67.6659  L -81.4151 67.7972  L -81.5578 67.9435  L -81.6852 68.1033  L -81.7961 68.275  L -81.8893 68.4569  L -81.964 68.6471  L -82.0193 68.8438  L -82.0548 69.0451  L -82.0701 69.2489  L -82.065 69.4532  L -82.0396 69.656  L -81.9941 69.8552  L -81.929 70.0489  L -81.845 70.2352  L -81.7428 70.4122  L -81.6235 70.5782  L -81.4883 70.7314  L -81.3385 70.8704  L -81.1756 70.9938  L -81.0012 71.1004  L -80.817 71.189  L -80.625 71.2589  L -80.4269 71.3094  L -80.2249 71.3398  L -80.0207 71.35  L -79.8166 71.3398  z" fill="none" stroke="rgb(27, 158, 119)" /><path d="M 0.604346 72.2895 L 0.899003 72.2145  L 1.18473 72.1105  L 1.45867 71.9786  L 1.71813 71.82  L 1.9605 71.6364  L 2.18339 71.4296  L 2.38459 71.2016  L 2.56208 70.9548  L 2.71411 70.6914  L 2.83916 70.4143  L 2.936 70.1261  L 3.00366 69.8296  L 3.04147 69.5279  L 3.04905 69.224  L 3.02633 68.9208  L 2.97353 68.6213  L 2.89118 68.3286  L 2.78009 68.0456  L 2.64138 67.775  L 2.47641 67.5196  L 2.28683 67.2819  L 2.07453 67.0642  L 1.8416 66.8687  L 1.59038 66.6975  L 1.32335 66.552  L 1.04316 66.4339  L 0.75261 66.3443  L 0.454579 66.2841  L 0.15203 66.2538  L -0.15203 66.2538  L -0.454579 66.2841  L -0.75261 66.3443  L -1.04316 66.4339  L -1.32335 66.552  L -1.59038 66.6975  L -1.8416 66.8687  L -2.07453 67.0642  L -2.28683 67.2819  L -2.47641 67.5196  L -2.64138 67.775  L -2.78009 68.0456  L -2.89118 68.3286  L -2.97353 68.6213  L -3.02633 68.9208  L -3.04905 69.224  L -3.04147 69.5279  L -3.00366 69.8296  L -2.936 70.1261  L -2.83916 70.4143  L -2.71411 70.6914  L -2.56208 70.9548  L -2.38459 71.2016  L -2.18339 71.4296  L -1.9605 71.6364  L -1.71813 71.82  L -1.45867 71.9786  L -1.18473 72.1105  L -0.899003 72.2145  L -0.604346 72.2895  L -0.303682 72.3348  L 0 72.35  L 0.303682 72.3348  z" fill="none" stroke="rgb(27, 158, 119)" /><path d="M -39.406 72.2895 L -39.1114 72.2145  L -38.8256 72.1105  L -38.5517 71.9786  L -38.2922 71.82  L -38.0499 71.6364  L -37.827 71.4296  L -37.6258 71.2016  L -37.4483 70.9548  L -37.2963 70.6914  L -37.1712 70.4143  L -37.0744 70.1261  L -37.0067 69.8296  L -36.9689 69.5279  L -36.9613 69.224  L -36.984 68.9208  L -37.0368 68.6213  L -37.1192 68.3286  L -37.2303 68.0456  L -37.369 67.775  L -37.534 67.5196  L -37.7235 67.2819  L -37.9358 67.0642  L -38.1688 66.8687  L -38.42 66.6975  L -38.687 66.552  L -38.9672 66.4339  L -39.2578 66.3443  L -39.5558 66.2841  L -39.8583 66.2538  L -40.1624 66.2538  L -40.465 66.2841  L -40.763 66.3443  L -41.0535 66.4339  L -41.3337 66.552  L -41.6008 66.6975  L -41.852 66.8687  L -42.0849 67.0642  L -42.2972 67.2819  L -42.4868 67.5196  L -42.6518 67.775  L -42.7905 68.0456  L -42.9016 68.3286  L -42.9839 68.6213  L -43.0367 68.9208  L -43.0594 69.224  L -43.0518 69.5279  L -43.014 69.8296  L -42.9464 70.1261  L -42.8495 70.4143  L -42.7245 70.6914  L -42.5725 70.9548  L -42.395 71.2016  L -42.1938 71.4296  L -41.9709 71.6364  L -41.7285 71.82  L -41.469 71.9786  L -41.1951 72.1105  L -40.9094 72.2145  L -40.6147 72.2895  L -40.3141 72.3348  L -40.0104 72.35  L -39.7067 72.3348  z" fill="none" stroke="rgb(27, 158, 119)" /><path d="M 67.2654 61.2429 L 66.6654 62.2821  L 92.7761 77.3571  L 93.3761 76.3179  z" fill="none" stroke="rgb(27, 158, 119)" /><path d="M 27.255 61.2429 L 26.655 62.2821  L 52.7657 77.3571  L 53.3657 76.3179  z" fill="none" stroke="rgb(27, 158, 119)" /><path d="M 96.735 53.85 L 98.235 51.2519  L 95.2039 49.5019  L 93.7039 52.1  L 88.0748 48.85  L 89.5748 46.2519  L 86.5437 44.5019  L 85.0437 47.1  L 81.7528 45.2  L 81.7528 41.4  L 84.7528 41.4  L 84.7528 37.9  L 81.7528 37.9  L 81.7528 31.4  L 84.7528 31.4  L 84.7528 27.9  L 81.7528 27.9  L 81.7528 24.1  L 85.0437 22.2  L 86.5437 24.7981  L 89.5748 23.0481  L 88.0748 20.45  L 93.7039 17.2  L 95.2039 19.7981  L 98.235 18.0481  L 96.735 15.45  L 100.026 13.55  L 103.317 15.45  L 101.817 18.0481  L 104.848 19.7981  L 106.348 17.2  L 111.977 20.45  L 110.477 23.0481  L 113.508 24.7981  L 115.008 22.2  L 118.299 24.1  L 118.299 27.9  L 115.299 27.9  L 115.299 31.4  L 118.299 31.4  L 118.299 37.9  L 115.299 37.9  L 115.299 41.4  L 118.299 41.4  L 118.299 45.2  L 115.008 47.1  L 113.508 44.5019  L 110.477 46.2519  L 111.977 48.85  L 106.348 52.1  L 104.848 49.5019  L 101.817 51.2519  L 103.317 53.85  L 100.026 55.75  z" fill="none" stroke="rgb(217, 95, 2)" /><path d="M 56.7247 53.85 L 58.2247 51.2519  L 55.1936 49.5019  L 53.6936 52.1  L 48.0644 48.85  L 49.5644 46.2519  L 46.5333 44.5019  L 45.0333 47.1  L 41.7424 45.2  L 41.7424 41.4  L 44.7424 41.4  L 44.7424 37.9  L 41.7424 37.9  L 41.7424 31.4  L 44.7424 31.4  L 44.7424 27.9  L 41.7424 27.9  L 41.7424 24.1  L 45.0333 22.2  L 46.5333 24.7981  L 49.5644 23.0481  L 48.0644 20.45  L 53.6936 17.2  L 55.1936 19.7981  L 58.2247 18.0481  L 56.7247 15.45  L 60.0156 13.55  L 63.3065 15.45  L 61.8065 18.0481  L 64.8375 19.7981  L 66.3375 17.2  L 71.9667 20.45  L 70.4667 23.0481  L 73.4978 24.7981  L 74.9978 22.2  L 78.2887 24.1  L 78.2887 27.9  L 75.2887 27.9  L 75.2887 31.4  L 78.2887 31.4  L 78.2887 37.9  L 75.2887 37.9  L 75.2887 41.4  L 78.2887 41.4  L 78.2887 45.2  L 74.9978 47.1  L 73.4978 44.5019  L 70.4667 46.2519  L 71.9667 48.85  L 66.3375 52.1  L 64.8375 49.5019  L 61.8065 51.2519  L 63.3065 53.85  L 60.0156 55.75  z" fill="none" stroke="rgb(217, 95, 2)" /><path d="M 16.7143 53.85 L 18.2143 51.2519  L 15.1832 49.5019  L 13.6832 52.1  L 8.05404 48.85  L 9.55404 46.2519  L 6.52295 44.5019  L 5.02295 47.1  L 1.73205 45.2  L 1.73205 41.4  L 4.73205 41.4  L 4.73205 37.9  L 1.73205 37.9  L 1.73205 31.4  L 4.73205 31.4  L 4.73205 27.9  L 1.73205 27.9  L 1.73205 24.1  L 5.02295 22.2  L 6.52295 24.7981  L 9.55404 23.0481  L 8.05404 20.45  L 13.6832 17.2  L 15.1832 19.7981  L 18.2143 18.0481  L 16.7143 15.45  L 20.0052 13.55  L 23.2961 15.45  L 21.7961 18.0481  L 24.8272 19.7981  L 26.3272 17.2  L 31.9563 20.45  L 30.4563 23.0481  L 33.4874 24.7981  L 34.9874 22.2  L 38.2783 24.1  L 38.2783 27.9  L 35.2783 27.9  L 35.2783 31.4  L 38.2783 31.4  L 38.2783 37.9  L 35.2783 37.9  L 35.2783 41.4  L 38.2783 41.4  L 38.2783 45.2  L 34.9874 47.1  L 33.4874 44.5019  L 30.4563 46.2519  L 31.9563 48.85  L 26.3272 52.1  L 24.8272 49.5019  L 21.7961 51.2519  L 23.2961 53.85  L 20.0052 55.75  z" fill="none" stroke="rgb(217, 95, 2)" /><path d="M -23.2961 53.85 L -21.7961 51.2519  L -24.8272 49.5019  L -26.3272 52.1  L -31.9563 48.85  L -30.4563 46.2519  L -33.4874 44.5019  L -34.9874 47.1  L -38.2783 45.2  L -38.2783 41.4  L -35.2783 41.4  L -35.2783 37.9  L -38.2783 37.9  L -38.2783 31.4  L -35.2783 31.4  L -35.2783 27.9  L -38.2783 27.9  L -38.2783 24.1  L -34.9874 22.2  L -33.4874 24.7981  L -30.4563 23.0481  L -31.9563 20.45  L -26.3272 17.2  L -24.8272 19.7981  L -21.7961 18.0481  L -23.2961 15.45  L -20.0052 13.55  L -16.7143 15.45  L -18.2143 18.0481  L -15.1832 19.7981  L -13.6832 17.2  L -8.05404 20.45  L -9.55404 23.0481  L -6.52295 24.7981  L -5.02295 22.2  L -1.73205 24.1  L -1.73205 27.9  L -4.73205 27.9  L -4.73205 31.4  L -1.73205 31.4  L -1.73205 37.9  L -4.73205 37.9  L -4.73205 41.4  L -1.73205 41.4  L -1.73205 45.2  L -5.02295 47.1  L -6.52295 44.5019  L -9.55404 46.2519  L -8.05404 48.85  L -13.6832 52.1  L -15.1832 49.5019  L -18.2143 51.2519  L -16.7143 53.85  L -20.0052 55.75  z" fill="none" stroke="rgb(217, 95, 2)" /><path d="M -63.3065 53.85 L -61.8065 51.2519  L -64.8375 49.5019  L -66.3375 52.1  L -71.9667 48.85  L -70.4667 46.2519  L -73.4978 44.5019  L -74.9978 47.1  L -78.2887 45.2  L -78.2887 41.4  L -75.2887 41.4  L -75.2887 37.9  L -78.2887 37.9  L -78.2887 31.4  L -75.2887 31.4  L -75.2887 27.9  L -78.2887 27.9  L -78.2887 24.1  L -74.9978 22.2  L -73.4978 24.7981  L -70.4667 23.0481  L -71.9667 20.45  L -66.3375 17.2  L -64.8375 19.7981  L -61.8065 18.0481  L -63.3065 15.45  L -60.0156 13.55  L -56.7247 15.45  L -58.2247 18.0481  L -55.1936 19.7981  L -53.6936 17.2  L -48.0644 20.45  L -49.5644 23.0481  L -46.5333 24.7981  L -45.0333 22.2  L -41.7424 24.1  L -41.7424 27.9  L -44.7424 27.9  L -44.7424 31.4  L -41.7424 31.4  L -41.7424 37.9  L -44.7424 37.9  L -44.7424 41.4  L -41.7424 41.4  L -41.7424 45.2  L -45.0333 47.1  L -46.5333 44.5019  L -49.5644 46.2519  L -48.0644 48.85  L -53.6936 52.1  L -55.1936 49.5019  L -58.2247 51.2519  L -56.7247 53.85  L -60.0156 55.75  z" fill="none" stroke="rgb(217, 95, 2)" /><path d="M -103.317 53.85 L -101.817 51.2519  L -104.848 49.5019  L -106.348 52.1  L -111.977 48.85  L -110.477 46.2519  L -113.508 44.5019  L -115.008 47.1  L -118.299 45.2  L -118.299 41.4  L -115.299 41.4  L -115.299 37.9  L -118.299 37.9  L -118.299 31.4  L -115.299 31.4  L -115.299 27.9  L -118.299 27.9  L -118.299 24.1  L -115.008 22.2  L -113.508 24.7981  L -110.477 23.0481  L -111.977 20.45  L -106.348 17.2  L -104.848 19.7981  L -101.817 18.0481  L -103.317 15.45  L -100.026 13.55  L -96.735 15.45  L -98.235 18.0481  L -95.2039 19.7981  L -93.7039 17.2  L -88.0748 20.45  L -89.5748 23.0481  L -86.5437 24.7981  L -85.0437 22.2  L -81.7528 24.1  L -81.7528 27.9  L -84.7528 27.9  L -84.7528 31.4  L -81.7528 31.4  L -81.7528 37.9  L -84.7528 37.9  L -84.7528 41.4  L -81.7528 41.4  L -81.7528 45.2  L -85.0437 47.1  L -86.5437 44.5019  L -89.5748 46.2519  L -88.0748 48.85  L -93.7039 52.1  L -95.2039 49.5019  L -98.235 51.2519  L -96.735 53.85  L -100.026 55.75  z" fill="none" stroke="rgb(217, 95, 2)" /><path d="M 98.4759 33.1 L 98.4759 36.2  L 101.576 36.2  L 101.576 33.1  z" fill="none" stroke="rgb(27, 158, 119)" /><path d="M 58.4656 33.1 L 58.4656 36.2  L 61.5656 36.2  L 61.5656 33.1  z" fill="none" stroke="rgb(27, 158, 119)" /><path d="M 18.4552 33.1 L 18.4552 36.2  L 21.5552 36.2  L 21.5552 33.1  z" fill="none" stroke="rgb(27, 158, 119)" /><path d="M -30.235 28.3685 L -30.56 28.9315  L -9.77538 40.9315  L -9.45038 40.3685  z" fill="none" stroke="rgb(27, 158, 119)" /><path d="M -70.2454 28.3685 L -70.5704 28.9315  L -49.7858 40.9315  L -49.4608 40.3685  z" fill="none" stroke="rgb(27, 158, 119)" /><path d="M -110.256 28.3685 L -110.581 28.9315  L -89.7961 40.9315  L -89.4711 40.3685  z" fill="none" stroke="rgb(27, 158, 119)" /><path d="M 116.74 19.2 L 118.24 16.6019  L 115.209 14.8519  L 113.709 17.45  L 108.08 14.2  L 109.58 11.6019  L 106.549 9.85192  L 105.049 12.45  L 101.758 10.55  L 101.758 6.75  L 104.758 6.75  L 104.758 3.25  L 101.758 3.25  L 101.758 -3.25  L 104.758 -3.25  L 104.758 -6.75  L 101.758 -6.75  L 101.758 -10.55  L 105.049 -12.45  L 106.549 -9.85192  L 109.58 -11.6019  L 108.08 -14.2  L 113.709 -17.45  L 115.209 -14.8519  L 118.24 -16.6019  L 116.74 -19.2  L 120.031 -21.1  L 123.322 -19.2  L 121.822 -16.6019  L 124.853 -14.8519  L 126.353 -17.45  L 131.982 -14.2  L 130.482 -11.6019  L 133.513 -9.85192  L 135.013 -12.45  L 138.304 -10.55  L 138.304 -6.75  L 135.304 -6.75  L 135.304 -3.25  L 138.304 -3.25  L 138.304 3.25  L 135.304 3.25  L 135.304 6.75  L 138.304 6.75  L 138.304 10.55  L 135.013 12.45  L 133.513 9.85192  L 130.482 11.6019  L 131.982 14.2  L 126.353 17.45  L 124.853 14.8519  L 121.822 16.6019  L 123.322 19.2  L 120.031 21.1  z" fill="none" stroke="rgb(217, 95, 2)" /><path d="M 76.7299 19.2 L 78.2299 16.6019  L 75.1988 14.8519  L 73.6988 17.45  L 68.0696 14.2  L 69.5696 11.6019  L 66.5385 9.85192  L 65.0385 12.45  L 61.7476 10.55  L 61.7476 6.75  L 64.7476 6.75  L 64.7476 3.25  L 61.7476 3.25  L 61.7476 -3.25  L 64.7476 -3.25  L 64.7476 -6.75  L 61.7476 -6.75  L 61.7476 -10.55  L 65.0385 -12.45  L 66.5385 -9.85192  L 69.5696 -11.6019  L 68.0696 -14.2  L 73.6988 -17.45  L 75.1988 -14.8519  L 78.2299 -16.6019  L 76.7299 -19.2  L 80.0207 -21.1  L 83.3116 -19.2  L 81.8116 -16.6019  L 84.8427 -14.8519  L 86.3427 -17.45  L 91.9719 -14.2  L 90.4719 -11.6019  L 93.503 -9.85192  L 95.003 -12.45  L 98.2939 -10.55  L 98.2939 -6.75  L 95.2939 -6.75  L 95.2939 -3.25  L 98.2939 -3.25  L 98.2939 3.25  L 95.2939 3.25  L 95.2939 6.75  L 98.2939 6.75  L 98.2939 10.55  L 95.003 12.45  L 93.503 9.85192  L 90.4719 11.6019  L 91.9719 14.2  L 86.3427 17.45  L 84.8427 14.8519  L 81.8116 16.6019  L 83.3116 19.2  L 80.0207 21.1  z" fill="none" stroke="rgb(217, 95, 2)" /><path d="M 36.7195 19.2 L 38.2195 16.6019  L 35.1884 14.8519  L 33.6884 17.45  L 28.0592 14.2  L 29.5592 11.6019  L 26.5281 9.85192  L 25.0281 12.45  L 21.7372 10.55  L 21.7372 6.75  L 24.7372 6.75  L 24.7372 3.25  L 21.7372 3.25  L 21.7372 -3.25  L 24.7372 -3.25  L 24.7372 -6.75  L 21.7372 -6.75  L 21.7372 -10.55  L 25.0281 -12.45  L 26.5281 -9.85192  L 29.5592 -11.6019  L 28.0592 -14.2  L 33.6884 -17.45  L 35.1884 -14.8519  L 38.2195 -16.6019  L 36.7195 -19.2  L 40.0104 -21.1  L 43.3013 -19.2  L 41.8013 -16.6019  L 44.8324 -14.8519  L 46.3324 -17.45  L 51.9615 -14.2  L 50.4615 -11.6019  L 53.4926 -9.85192  L 54.9926 -12.45  L 58.2835 -10.55  L 58.2835 -6.75  L 55.2835 -6.75  L 55.2835 -3.25  L 58.2835 -3.25  L 58.2835 3.25  L 55.2835 3.25  L 55.2835 6.75  L 58.2835 6.75  L 58.2835 10.55  L 54.9926 12.45  L 53.4926 9.85192  L 50.4615 11.6019  L 51.9615 14.2  L 46.3324 17.45  L 44.8324 14.8519  L 41.8013 16.6019  L 43.3013 19.2  L 40.0104 21.1  z" fill="none" stroke="rgb(217, 95, 2)" /><path d="M -3.2909 19.2 L -1.7909 16.6019  L -4.82199 14.8519  L -6.32199 17.45  L -11.9512 14.2  L -10.4512 11.6019  L -13.4822 9.85192  L -14.9822 12.45  L -18.2731 10.55  L -18.2731 6.75  L -15.2731 6.75  L -15.2731 3.25  L -18.2731 3.25  L -18.2731 -3.25  L -15.2731 -3.25  L -15.2731 -6.75  L -18.2731 -6.75  L -18.2731 -10.55  L -14.9822 -12.45  L -13.4822 -9.85192  L -10.4512 -11.6019  L -11.9512 -14.2  L -6.32199 -17.45  L -4.82199 -14.8519  L -1.7909 -16.6019  L -3.2909 -19.2  L -6.15348e-15 -21.1  L 3.2909 -19.2  L 1.7909 -16.6019  L 4.82199 -14.8519  L 6.32199 -17.45  L 11.9512 -14.2  L 10.4512 -11.6019  L 13.4822 -9.85192  L 14.9822 -12.45  L 18.2731 -10.55  L 18.2731 -6.75  L 15.2731 -6.75  L 15.2731 -3.25  L 18.2731 -3.25  L 18.2731 3.25  L 15.2731 3.25  L 15.2731 6.75  L 18.2731 6.75  L 18.2731 10.55  L 14.9822 12.45  L 13.4822 9.85192  L 10.4512 11.6019  L 11.9512 14.2  L 6.32199 17.45  L 4.82199 14.8519  L 1.7909 16.6019  L 3.2909 19.2  L -1.2307e-14 21.1  z" fill="none" stroke="rgb(217, 95, 2)" /><path d="M -43.3013 19.2 L -41.8013 16.6019  L -44.8324 14.8519  L -46.3324 17.45  L -51.9615 14.2  L -50.4615 11.6019  L -53.4926 9.85192  L -54.9926 12.45  L -58.2835 10.55  L -58.2835 6.75  L -55.2835 6.75  L -55.2835 3.25  L -58.2835 3.25  L -58.2835 -3.25  L -55.2835 -3.25  L -55.2835 -6.75  L -58.2835 -6.75  L -58.2835 -10.55  L -54.9926 -12.45  L -53.4926 -9.85192  L -50.4615 -11.6019  L -51.9615 -14.2  L -46.3324 -17.45  L -44.8324 -14.8519  L -41.8013 -16.6019  L -43.3013 -19.2  L -40.0104 -21.1  L -36.7195 -19.2  L -38.2195 -16.6019  L -35.1884 -14.8519  L -33.6884 -17.45  L -28.0592 -14.2  L -29.5592 -11.6019  L -26.5281 -9.85192  L -25.0281 -12.45  L -21.7372 -10.55  L -21.7372 -6.75  L -24.7372 -6.75  L -24.7372 -3.25  L -21.7372 -3.25  L -21.7372 3.25  L -24.7372 3.25  L -24.7372 6.75  L -21.7372 6.75  L -21.7372 10.55  L -25.0281 12.45  L -26.5281 9.85192  L -29.5592 11.6019  L -28.0592 14.2  L -33.6884 17.45  L -35.1884 14.8519  L -38.2195 16.6019  L -36.7195 19.2  L -40.0104 21.1  z" fill="none" stroke="rgb(217, 95, 2)" /><path d="M -83.3116 19.2 L -81.8116 16.6019  L -84.8427 14.8519  L -86.3427 17.45  L -91.9719 14.2  L -90.4719 11.6019  L -93.503 9.85192  L -95.003 12.45  L -98.2939 10.55  L -98.2939 6.75  L -95.2939 6.75  L -95.2939 3.25  L -98.2939 3.25  L -98.2939 -3.25  L -95.2939 -3.25  L -95.2939 -6.75  L -98.2939 -6.75  L -98.2939 -10.55  L -95.003 -12.45  L -93.503 -9.85192  L -90.4719 -11.6019  L -91.9719 -14.2  L -86.3427 -17.45  L -84.8427 -14.8519  L -81.8116 -16.6019  L -83.3116 -19.2  L -80.0207 -21.1  L -76.7299 -19.2  L -78.2299 -16.6019  L -75.1988 -14.8519  L -73.6988 -17.45  L -68.0696 -14.2  L -69.5696 -11.6019  L -66.5385 -9.85192  L -65.0385 -12.45  L -61.7476 -10.55  L -61.7476 -6.75  L -64.7476 -6.75  L -64.7476 -3.25  L -61.7476 -3.25  L -61.7476 3.25  L -64.7476 3.25  L -64.7476 6.75  L -61.7476 6.75  L -61.7476 10.55  L -65.0385 12.45  L -66.5385 9.85192  L -69.5696 11.6019  L -68.0696 14.2  L -73.6988 17.45  L -75.1988 14.8519  L -78.2299 16.6019  L -76.7299 19.2  L -80.0207 21.1  z" fill="none" stroke="rgb(217, 95, 2)" /><path d="M -123.322 19.2 L -121.822 16.6019  L -124.853 14.8519  L -126.353 17.45  L -131.982 14.2  L -130.482 11.6019  L -133.513 9.85192  L -135.013 12.45  L -138.304 10.55  L -138.304 6.75  L -135.304 6.75  L -135.304 3.25  L -138.304 3.25  L -138.304 -3.25  L -135.304 -3.25  L -135.304 -6.75  L -138.304 -6.75  L -138.304 -10.55  L -135.013 -12.45  L -133.513 -9.85192  L -130.482 -11.6019  L -131.982 -14.2  L -126.353 -17.45  L -124.853 -14.8519  L -121.822 -16.6019  L -123.322 -19.2  L -120.031 -21.1  L -116.74 -19.2  L -118.24 -16.6019  L -115.209 -14.8519  L -113.709 -17.45  L -108.08 -14.2  L -109.58 -11.6019  L -106.549 -9.85192  L -105.049 -12.45  L -101.758 -10.55  L -101.758 -6.75  L -104.758 -6.75  L -104.758 -3.25  L -101.758 -3.25  L -101.758 3.25  L -104.758 3.25  L -104.758 6.75  L -101.758 6.75  L -101.758 10.55  L -105.049 12.45  L -106.549 9.85192  L -109.58 11.6019  L -108.08 14.2  L -113.709 17.45  L -115.209 14.8519  L -118.24 16.6019  L -116.74 19.2  L -120.031 21.1  z" fill="none" stroke="rgb(217, 95, 2)" /><path d="M 108.031 -0.325 L 108.031 0.325  L 132.031 0.325  L 132.031 -0.325  z" fill="none" stroke="rgb(27, 158, 119)" /><path d="M 68.0207 -0.325 L 68.0207 0.325  L 92.0207 0.325  L 92.0207 -0.325  z" fill="none" stroke="rgb(27, 158, 119)" /><path d="M 28.0104 -0.325 L 28.0104 0.325  L 52.0104 0.325  L 52.0104 -0.325  z" fill="none" stroke="rgb(27, 158, 119)" /><path d="M -12 -0.325 L -12 0.325  L 12 0.325  L 12 -0.325  z" fill="none" stroke="rgb(27, 158, 119)" /><path d="M -52.0104 -0.325 L -52.0104 0.325  L -28.0104 0.325  L -28.0104 -0.325  z" fill="none" stroke="rgb(27, 158, 119)" /><path d="M -92.0207 -0.325 L -92.0207 0.325  L -68.0207 0.325  L -68.0207 -0.325  z" fill="none" stroke="rgb(27, 158, 119)" /><path d="M -132.031 -0.325 L -132.031 0.325  L -108.031 0.325  L -108.031 -0.325  z" fill="none" stroke="rgb(27, 158, 119)" /><path d="M 96.735 -15.45 L 98.235 -18.0481  L 95.2039 -19.7981  L 93.7039 -17.2  L 88.0748 -20.45  L 89.5748 -23.0481  L 86.5437 -24.7981  L 85.0437 -22.2  L 81.7528 -24.1  L 81.7528 -27.9  L 84.7528 -27.9  L 84.7528 -31.4  L 81.7528 -31.4  L 81.7528 -37.9  L 84.7528 -37.9  L 84.7528 -41.4  L 81.7528 -41.4  L 81.7528 -45.2  L 85.0437 -47.1  L 86.5437 -44.5019  L 89.5748 -46.2519  L 88.0748 -48.85  L 93.7039 -52.1  L 95.2039 -49.5019  L 98.235 -51.2519  L 96.735 -53.85  L 100.026 -55.75  L 103.317 -53.85  L 101.817 -51.2519  L 104.848 -49.5019  L 106.348 -52.1  L 111.977 -48.85  L 110.477 -46.2519  L 113.508 -44.5019  L 115.008 -47.1  L 118.299 -45.2  L 118.299 -41.4  L 115.299 -41.4  L 115.299 -37.9  L 118.299 -37.9  L 118.299 -31.4  L 115.299 -31.4  L 115.299 -27.9  L 118.299 -27.9  L 118.299 -24.1  L 115.008 -22.2  L 113.508 -24.7981  L 110.477 -23.0481  L 111.977 -20.45  L 106.348 -17.2  L 104.848 -19.7981  L 101.817 -18.0481  L 103.317 -15.45  L 100.026 -13.55  z" fill="none" stroke="rgb(217, 95, 2)" /><path d="M 56.7247 -15.45 L 58.2247 -18.0481  L 55.1936 -19.7981  L 53.6936 -17.2  L 48.0644 -20.45  L 49.5644 -23.0481  L 46.5333 -24.7981  L 45.0333 -22.2  L 41.7424 -24.1  L 41.7424 -27.9  L 44.7424 -27.9  L 44.7424 -31.4  L 41.7424 -31.4  L 41.7424 -37.9  L 44.7424 -37.9  L 44.7424 -41.4  L 41.7424 -41.4  L 41.7424 -45.2  L 45.0333 -47.1  L 46.5333 -44.5019  L 49.5644 -46.2519  L 48.0644 -48.85  L 53.6936 -52.1  L 55.1936 -49.5019  L 58.2247 -51.2519  L 56.7247 -53.85  L 60.0156 -55.75  L 63.3065 -53.85  L 61.8065 -51.2519  L 64.8375 -49.5019  L 66.3375 -52.1  L 71.9667 -48.85  L 70.4667 -46.2519  L 73.4978 -44.5019  L 74.9978 -47.1  L 78.2887 -45.2  L 78.2887 -41.4  L 75.2887 -41.4  L 75.2887 -37.9  L 78.2887 -37.9  L 78.2887 -31.4  L 75.2887 -31.4  L 75.2887 -27.9  L 78.2887 -27.9  L 78.2887 -24.1  L 74.9978 -22.2  L 73.4978 -24.7981  L 70.4667 -23.0481  L 71.9667 -20.45  L 66.3375 -17.2  L 64.8375 -19.7981  L 61.8065 -18.0481  L 63.3065 -15.45  L 60.0156 -13.55  z" fill="none" stroke="rgb(217, 95, 2)" /><path d="M 16.7143 -15.45 L 18.2143 -18.0481  L 15.1832 -19.7981  L 13.6832 -17.2  L 8.05404 -20.45  L 9.55404 -23.0481  L 6.52295 -24.7981  L 5.02295 -22.2  L 1.73205 -24.1  L 1.73205 -27.9  L 4.73205 -27.9  L 4.73205 -31.4  L 1.73205 -31.4  L 1.73205 -37.9  L 4.73205 -37.9  L 4.73205 -41.4  L 1.73205 -41.4  L 1.73205 -45.2  L 5.02295 -47.1  L 6.52295 -44.5019  L 9.55404 -46.2519  L 8.05404 -48.85  L 13.6832 -52.1  L 15.1832 -49.5019  L 18.2143 -51.2519  L 16.7143 -53.85  L 20.0052 -55.75  L 23.2961 -53.85  L 21.7961 -51.2519  L 24.8272 -49.5019  L 26.3272 -52.1  L 31.9563 -48.85  L 30.4563 -46.2519  L 33.4874 -44.5019  L 34.9874 -47.1  L 38.2783 -45.2  L 38.2783 -41.4  L 35.2783 -41.4  L 35.2783 -37.9  L 38.2783 -37.9  L 38.2783 -31.4  L 35.2783 -31.4  L 35.2783 -27.9  L 38.2783 -27.9  L 38.2783 -24.1  L 34.9874 -22.2  L 33.4874 -24.7981  L 30.4563 -23.0481  L 31.9563 -20.45  L 26.3272 -17.2  L 24.8272 -19.7981  L 21.7961 -18.0481  L 23.2961 -15.45  L 20.0052 -13.55  z" fill="none" stroke="rgb(217, 95, 2)" /><path d="M -23.2961 -15.45 L -21.7961 -18.0481  L -24.8272 -19.7981  L -26.3272 -17.2  L -31.9563 -20.45  L -30.4563 -23.0481  L -33.4874 -24.7981  L -34.9874 -22.2  L -38.2783 -24.1  L -38.2783 -27.9  L -35.2783 -27.9  L -35.2783 -31.4  L -38.2783 -31.4  L -38.2783 -37.9  L -35.2783 -37.9  L -35.2783 -41.4  L -38.2783 -41.4  L -38.2783 -45.2  L -34.9874 -47.1  L -33.4874 -44.5019  L -30.4563 -46.2519  L -31.9563 -48.85  L -26.3272 -52.1  L -24.8272 -49.5019  L -21.7961 -51.2519  L -23.2961 -53.85  L -20.0052 -55.75  L -16.7143 -53.85  L -18.2143 -51.2519  L -15.1832 -49.5019  L -13.6832 -52.1  L -8.05404 -48.85  L -9.55404 -46.2519  L -6.52295 -44.5019  L -5.02295 -47.1  L -1.73205 -45.2  L -1.73205 -41.4  L -4.73205 -41.4  L -4.73205 -37.9  L -1.73205 -37.9  L -1.73205 -31.4  L -4.73205 -31.4  L -4.73205 -27.9  L -1.73205 -27.9  L -1.73205 -24.1  L -5.02295 -22.2  L -6.52295 -24.7981  L -9.55404 -23.0481  L -8.05404 -20.45  L -13.6832 -17.2  L -15.1832 -19.7981  L -18.2143 -18.0481  L -16.7143 -15.45  L -20.0052 -13.55  z" fill="none" stroke="rgb(217, 95, 2)" /><path d="M -63.3065 -15.45 L -61.8065 -18.0481  L -64.8375 -19.7981  L -66.3375 -17.2  L -71.9667 -20.45  L -70.4667 -23.0481  L -73.4978 -24.7981  L -74.9978 -22.2  L -78.2887 -24.1  L -78.2887 -27.9  L -75.2887 -27.9  L -75.2887 -31.4  L -78.2887 -31.4  L -78.2887 -37.9  L -75.2887 -37.9  L -75.2887 -41.4  L -78.2887 -41.4  L -78.2887 -45.2  L -74.9978 -47.1  L -73.4978 -44.5019  L -70.4667 -46.2519  L -71.9667 -48.85  L -66.3375 -52.1  L -64.8375 -49.5019  L -61.8065 -51.2519  L -63.3065 -53.85  L -60.0156 -55.75  L -56.7247 -53.85  L -58.2247 -51.2519  L -55.1936 -49.5019  L -53.6936 -52.1  L -48.0644 -48.85  L -49.5644 -46.2519  L -46.5333 -44.5019  L -45.0333 -47.1  L -41.7424 -45.2  L -41.7424 -41.4  L -44.7424 -41.4  L -44.7424 -37.9  L -41.7424 -37.9  L -41.7424 -31.4  L -44.7424 -31.4  L -44.7424 -27.9  L -41.7424 -27.9  L -41.7424 -24.1  L -45.0333 -22.2  L -46.5333 -24.7981  L -49.5644 -23.0481  L -48.0644 -20.45  L -53.6936 -17.2  L -55.1936 -19.7981  L -58.2247 -18.0481  L -56.7247 -15.45  L -60.0156 -13.55  z" fill="none" stroke="rgb(217, 95, 2)" /><path d="M -103.317 -15.45 L -101.817 -18.0481  L -104.848 -19.7981  L -106.348 -17.2  L -111.977 -20.45  L -110.477 -23.0481  L -113.508 -24.7981  L -115.008 -22.2  L -118.299 -24.1  L -118.299 -27.9  L -115.299 -27.9  L -115.299 -31.4  L -118.299 -31.4  L -118.299 -37.9  L -115.299 -37.9  L -115.299 -41.4  L -118.299 -41.4  L -118.299 -45.2  L -115.008 -47.1  L -113.508 -44.5019  L -110.477 -46.2519  L -111.977 -48.85  L -106.348 -52.1  L -104.848 -49.5019  L -101.817 -51.2519  L -103.317 -53.85  L -100.026 -55.75  L -96.735 -53.85  L -98.235 -51.2519  L -95.2039 -49.5019  L -93.7039 -52.1  L -88.0748 -48.85  L -89.5748 -46.2519  L -86.5437 -44.5019  L -85.0437 -47.1  L -81.7528 -45.2  L -81.7528 -41.4  L -84.7528 -41.4  L -84.7528 -37.9  L -81.7528 -37.9  L -81.7528 -31.4  L -84.7528 -31.4  L -84.7528 -27.9  L -81.7528 -27.9  L -81.7528 -24.1  L -85.0437 -22.2  L -86.5437 -24.7981  L -89.5748 -23.0481  L -88.0748 -20.45  L -93.7039 -17.2  L -95.2039 -19.7981  L -98.235 -18.0481  L -96.735 -15.45  L -100.026 -13.55  z" fill="none" stroke="rgb(217, 95, 2)" /><path d="M -112.026 -34.975 L -112.026 -34.325  L -88.0259 -34.325  L -88.0259 -34.975  z" fill="none" stroke="rgb(27, 158, 119)" /><path d="M 89.7961 -40.9315 L 89.4711 -40.3685  L 110.256 -28.3685  L 110.581 -28.9315  z" fill="none" stroke="rgb(27, 158, 119)" /><path d="M 49.7858 -40.9315 L 49.4608 -40.3685  L 70.2454 -28.3685  L 70.5704 -28.9315  z" fill="none" stroke="rgb(27, 158, 119)" /><path d="M 9.77538 -40.9315 L 9.45038 -40.3685  L 30.235 -28.3685  L 30.56 -28.9315  z" fill="none" stroke="rgb(27, 158, 119)" /><path d="M -30.235 -40.9315 L -30.56 -40.3685  L -9.77538 -28.3685  L -9.45038 -28.9315  z" fill="none" stroke="rgb(27, 158, 119)" /><path d="M -70.2454 -40.9315 L -70.5704 -40.3685  L -49.7858 -28.3685  L -49.4608 -28.9315  z" fill="none" stroke="rgb(27, 158, 119)" /><path d="M 76.7299 -50.1 L 78.2299 -52.6981  L 75.1988 -54.4481  L 73.6988 -51.85  L 68.0696 -55.1  L 69.5696 -57.6981  L 66.5385 -59.4481  L 65.0385 -56.85  L 61.7476 -58.75  L 61.7476 -62.55  L 64.7476 -62.55  L 64.7476 -66.05  L 61.7476 -66.05  L 61.7476 -72.55  L 64.7476 -72.55  L 64.7476 -76.05  L 61.7476 -76.05  L 61.7476 -79.85  L 65.0385 -81.75  L 66.5385 -79.1519  L 69.5696 -80.9019  L 68.0696 -83.5  L 73.6988 -86.75  L 75.1988 -84.1519  L 78.2299 -85.9019  L 76.7299 -88.5  L 80.0207 -90.4  L 83.3116 -88.5  L 81.8116 -85.9019  L 84.8427 -84.1519  L 86.3427 -86.75  L 91.9719 -83.5  L 90.4719 -80.9019  L 93.503 -79.1519  L 95.003 -81.75  L 98.2939 -79.85  L 98.2939 -76.05  L 95.2939 -76.05  L 95.2939 -72.55  L 98.2939 -72.55  L 98.2939 -66.05  L 95.2939 -66.05  L 95.2939 -62.55  L 98.2939 -62.55  L 98.2939 -58.75  L 95.003 -56.85  L 93.503 -59.4481  L 90.4719 -57.6981  L 91.9719 -55.1  L 86.3427 -51.85  L 84.8427 -54.4481  L 81.8116 -52.6981  L 83.3116 -50.1  L 80.0207 -48.2  z" fill="none" stroke="rgb(217, 95, 2)" /><path d="M 36.7195 -50.1 L 38.2195 -52.6981  L 35.1884 -54.4481  L 33.6884 -51.85  L 28.0592 -55.1  L 29.5592 -57.6981  L 26.5281 -59.4481  L 25.0281 -56.85  L 21.7372 -58.75  L 21.7372 -62.55  L 24.7372 -62.55  L 24.7372 -66.05  L 21.7372 -66.05  L 21.7372 -72.55  L 24.7372 -72.55  L 24.7372 -76.05  L 21.7372 -76.05  L 21.7372 -79.85  L 25.0281 -81.75  L 26.5281 -79.1519  L 29.5592 -80.9019  L 28.0592 -83.5  L 33.6884 -86.75  L 35.1884 -84.1519  L 38.2195 -85.9019  L 36.7195 -88.5  L 40.0104 -90.4  L 43.3013 -88.5  L 41.8013 -85.9019  L 44.8324 -84.1519  L 46.3324 -86.75  L 51.9615 -83.5  L 50.4615 -80.9019  L 53.4926 -79.1519  L 54.9926 -81.75  L 58.2835 -79.85  L 58.2835 -76.05  L 55.2835 -76.05  L 55.2835 -72.55  L 58.2835 -72.55  L 58.2835 -66.05  L 55.2835 -66.05  L 55.2835 -62.55  L 58.2835 -62.55  L 58.2835 -58.75  L 54.9926 -56.85  L 53.4926 -59.4481  L 50.4615 -57.6981  L 51.9615 -55.1  L 46.3324 -51.85  L 44.8324 -54.4481  L 41.8013 -52.6981  L 43.3013 -50.1  L 40.0104 -48.2  z" fill="none" stroke="rgb(217, 95, 2)" /><path d="M -3.2909 -50.1 L -1.7909 -52.6981  L -4.82199 -54.4481  L -6.32199 -51.85  L -11.9512 -55.1  L -10.4512 -57.6981  L -13.4822 -59.4481  L -14.9822 -56.85  L -18.2731 -58.75  L -18.2731 -62.55  L -15.2731 -62.55  L -15.2731 -66.05  L -18.2731 -66.05  L -18.2731 -72.55  L -15.2731 -72.55  L -15.2731 -76.05  L -18.2731 -76.05  L -18.2731 -79.85  L -14.9822 -81.75  L -13.4822 -79.1519  L -10.4512 -80.9019  L -11.9512 -83.5  L -6.32199 -86.75  L -4.82199 -84.1519  L -1.7909 -85.9019  L -3.2909 -88.5  L -0 -90.4  L 3.2909 -88.5  L 1.7909 -85.9019  L 4.82199 -84.1519  L 6.32199 -86.75  L 11.9512 -83.5  L 10.4512 -80.9019  L 13.4822 -79.1519  L 14.9822 -81.75  L 18.2731 -79.85  L 18.2731 -76.05  L 15.2731 -76.05  L 15.2731 -72.55  L 18.2731 -72.55  L 18.2731 -66.05  L 15.2731 -66.05  L 15.2731 -62.55  L 18.2731 -62.55  L 18.2731 -58.75  L 14.9822 -56.85  L 13.4822 -59.4481  L 10.4512 -57.6981  L 11.9512 -55.1  L 6.32199 -51.85  L 4.82199 -54.4481  L 1.7909 -52.6981  L 3.2909 -50.1  L -0 -48.2  z" fill="none" stroke="rgb(217, 95, 2)" /><path d="M -43.3013 -50.1 L -41.8013 -52.6981  L -44.8324 -54.4481  L -46.3324 -51.85  L -51.9615 -55.1  L -50.4615 -57.6981  L -53.4926 -59.4481  L -54.9926 -56.85  L -58.2835 -58.75  L -58.2835 -62.55  L -55.2835 -62.55  L -55.2835 -66.05  L -58.2835 -66.05  L -58.2835 -72.55  L -55.2835 -72.55  L -55.2835 -76.05  L -58.2835 -76.05  L -58.2835 -79.85  L -54.9926 -81.75  L -53.4926 -79.1519  L -50.4615 -80.9019  L -51.9615 -83.5  L -46.3324 -86.75  L -44.8324 -84.1519  L -41.8013 -85.9019  L -43.3013 -88.5  L -40.0104 -90.4  L -36.7195 -88.5  L -38.2195 -85.9019  L -35.1884 -84.1519  L -33.6884 -86.75  L -28.0592 -83.5  L -29.5592 -80.9019  L -26.5281 -79.1519  L -25.0281 -81.75  L -21.7372 -79.85  L -21.7372 -76.05  L -24.7372 -76.05  L -24.7372 -72.55  L -21.7372 -72.55  L -21.7372 -66.05  L -24.7372 -66.05  L -24.7372 -62.55  L -21.7372 -62.55  L -21.7372 -58.75  L -25.0281 -56.85  L -26.5281 -59.4481  L -29.5592 -57.6981  L -28.0592 -55.1  L -33.6884 -51.85  L -35.1884 -54.4481  L -38.2195 -52.6981  L -36.7195 -50.1  L -40.0104 -48.2  z" fill="none" stroke="rgb(217, 95, 2)" /><path d="M -83.3116 -50.1 L -81.8116 -52.6981  L -84.8427 -54.4481  L -86.3427 -51.85  L -91.9719 -55.1  L -90.4719 -57.6981  L -93.503 -59.4481  L -95.003 -56.85  L -98.2939 -58.75  L -98.2939 -62.55  L -95.2939 -62.55  L -95.2939 -66.05  L -98.2939 -66.05  L -98.2939 -72.55  L -95.2939 -72.55  L -95.2939 -76.05  L -98.2939 -76.05  L -98.2939 -79.85  L -95.003 -81.75  L -93.503 -79.1519  L -90.4719 -80.9019  L -91.9719 -83.5  L -86.3427 -86.75  L -84.8427 -84.1519  L -81.8116 -85.9019  L -83.3116 -88.5  L -80.0207 -90.4  L -76.7299 -88.5  L -78.2299 -85.9019  L -75.1988 -84.1519  L -73.6988 -86.75  L -68.0696 -83.5  L -69.5696 -80.9019  L -66.5385 -79.1519  L -65.0385 -81.75  L -61.7476 -79.85  L -61.7476 -76.05  L -64.7476 -76.05  L -64.7476 -72.55  L -61.7476 -72.55  L -61.7476 -66.05  L -64.7476 -66.05  L -64.7476 -62.55  L -61.7476 -62.55  L -61.7476 -58.75  L -65.0385 -56.85  L -66.5385 -59.4481  L -69.5696 -57.6981  L -68.0696 -55.1  L -73.6988 -51.85  L -75.1988 -54.4481  L -78.2299 -52.6981  L -76.7299 -50.1  L -80.0207 -48.2  z" fill="none" stroke="rgb(217, 95, 2)" /><path d="M 40.4067 -57.3409 L 40.5999 -57.3901  L 40.7872 -57.4583  L 40.9669 -57.5448  L 41.137 -57.6488  L 41.2959 -57.7692  L 41.4421 -57.9048  L 41.574 -58.0543  L 41.6904 -58.2162  L 41.7901 -58.3888  L 41.8721 -58.5706  L 41.9356 -58.7596  L 41.98 -58.9539  L 42.0048 -59.1518  L 42.0098 -59.3511  L 41.9949 -59.5499  L 41.9602 -59.7463  L 41.9062 -59.9382  L 41.8334 -60.1238  L 41.7424 -60.3012  L 41.6342 -60.4687  L 41.5099 -60.6246  L 41.3707 -60.7673  L 41.218 -60.8955  L 41.0532 -61.0078  L 40.8781 -61.1032  L 40.6944 -61.1806  L 40.5039 -61.2394  L 40.3085 -61.2789  L 40.1101 -61.2988  L 39.9107 -61.2988  L 39.7123 -61.2789  L 39.5169 -61.2394  L 39.3263 -61.1806  L 39.1426 -61.1032  L 38.9675 -61.0078  L 38.8028 -60.8955  L 38.65 -60.7673  L 38.5108 -60.6246  L 38.3865 -60.4687  L 38.2783 -60.3012  L 38.1874 -60.1238  L 38.1145 -59.9382  L 38.0605 -59.7463  L 38.0259 -59.5499  L 38.011 -59.3511  L 38.016 -59.1518  L 38.0408 -58.9539  L 38.0851 -58.7596  L 38.1486 -58.5706  L 38.2306 -58.3888  L 38.3303 -58.2162  L 38.4467 -58.0543  L 38.5786 -57.9048  L 38.7248 -57.7692  L 38.8837 -57.6488  L 39.0539 -57.5448  L 39.2335 -57.4583  L 39.4209 -57.3901  L 39.6141 -57.3409  L 39.8112 -57.3112  L 40.0104 -57.3012  L 40.2095 -57.3112  z" fill="none" stroke="rgb(27, 158, 119)" /><path d="M 0.396292 -57.3409 L 0.58951 -57.3901  L 0.77687 -57.4583  L 0.956508 -57.5448  L 1.12664 -57.6488  L 1.28558 -57.7692  L 1.43173 -57.9048  L 1.56366 -58.0543  L 1.68005 -58.2162  L 1.77974 -58.3888  L 1.86175 -58.5706  L 1.92525 -58.7596  L 1.96962 -58.9539  L 1.99441 -59.1518  L 1.99938 -59.3511  L 1.98448 -59.5499  L 1.94986 -59.7463  L 1.89585 -59.9382  L 1.82301 -60.1238  L 1.73205 -60.3012  L 1.62388 -60.4687  L 1.49956 -60.6246  L 1.36035 -60.7673  L 1.20761 -60.8955  L 1.04287 -61.0078  L 0.867767 -61.1032  L 0.68404 -61.1806  L 0.493515 -61.2394  L 0.298085 -61.2789  L 0.0996918 -61.2988  L -0.0996918 -61.2988  L -0.298085 -61.2789  L -0.493515 -61.2394  L -0.68404 -61.1806  L -0.867767 -61.1032  L -1.04287 -61.0078  L -1.20761 -60.8955  L -1.36035 -60.7673  L -1.49956 -60.6246  L -1.62388 -60.4687  L -1.73205 -60.3012  L -1.82301 -60.1238  L -1.89585 -59.9382  L -1.94986 -59.7463  L -1.98448 -59.5499  L -1.99938 -59.3511  L -1.99441 -59.1518  L -1.96962 -58.9539  L -1.92525 -58.7596  L -1.86175 -58.5706  L -1.77974 -58.3888  L -1.68005 -58.2162  L -1.56366 -58.0543  L -1.43173 -57.9048  L -1.28558 -57.7692  L -1.12664 -57.6488  L -0.956508 -57.5448  L -0.77687 -57.4583  L -0.58951 -57.3901  L -0.396292 -57.3409  L -0.199136 -57.3112  L 0 -57.3012  L 0.199136 -57.3112  z" fill="none" stroke="rgb(27, 158, 119)" /><path d="M -39.6141 -57.3409 L -39.4209 -57.3901  L -39.2335 -57.4583  L -39.0539 -57.5448  L -38.8837 -57.6488  L -38.7248 -57.7692  L -38.5786 -57.9048  L -38.4467 -58.0543  L -38.3303 -58.2162  L -38.2306 -58.3888  L -38.1486 -58.5706  L -38.0851 -58.7596  L -38.0408 -58.9539  L -38.016 -59.1518  L -38.011 -59.3511  L -38.0259 -59.5499  L -38.0605 -59.7463  L -38.1145 -59.9382  L -38.1874 -60.1238  L -38.2783 -60.3012  L -38.3865 -60.4687  L -38.5108 -60.6246  L -38.65 -60.7673  L -38.8028 -60.8955  L -38.9675 -61.0078  L -39.1426 -61.1032  L -39.3263 -61.1806  L -39.5169 -61.2394  L -39.7123 -61.2789  L -39.9107 -61.2988  L -40.1101 -61.2988  L -40.3085 -61.2789  L -40.5039 -61.2394  L -40.6944 -61.1806  L -40.8781 -61.1032  L -41.0532 -61.0078  L -41.218 -60.8955  L -41.3707 -60.7673  L -41.5099 -60.6246  L -41.6342 -60.4687  L -41.7424 -60.3012  L -41.8334 -60.1238  L -41.9062 -59.9382  L -41.9602 -59.7463  L -41.9949 -59.5499  L -42.0098 -59.3511  L -42.0048 -59.1518  L -41.98 -58.9539  L -41.9356 -58.7596  L -41.8721 -58.5706  L -41.7901 -58.3888  L -41.6904 -58.2162  L -41.574 -58.0543  L -41.4421 -57.9048  L -41.2959 -57.7692  L -41.137 -57.6488  L -40.9669 -57.5448  L -40.7872 -57.4583  L -40.5999 -57.3901  L -40.4067 -57.3409  L -40.2095 -57.3112  L -40.0104 -57.3012  L -39.8112 -57.3112  z" fill="none" stroke="rgb(27, 158, 119)" /><path d="M -79.6245 -57.3409 L -79.4312 -57.3901  L -79.2439 -57.4583  L -79.0642 -57.5448  L -78.8941 -57.6488  L -78.7352 -57.7692  L -78.589 -57.9048  L -78.4571 -58.0543  L -78.3407 -58.2162  L -78.241 -58.3888  L -78.159 -58.5706  L -78.0955 -58.7596  L -78.0511 -58.9539  L -78.0263 -59.1518  L -78.0214 -59.3511  L -78.0363 -59.5499  L -78.0709 -59.7463  L -78.1249 -59.9382  L -78.1977 -60.1238  L -78.2887 -60.3012  L -78.3969 -60.4687  L -78.5212 -60.6246  L -78.6604 -60.7673  L -78.8131 -60.8955  L -78.9779 -61.0078  L -79.153 -61.1032  L -79.3367 -61.1806  L -79.5272 -61.2394  L -79.7227 -61.2789  L -79.9211 -61.2988  L -80.1204 -61.2988  L -80.3188 -61.2789  L -80.5143 -61.2394  L -80.7048 -61.1806  L -80.8885 -61.1032  L -81.0636 -61.0078  L -81.2284 -60.8955  L -81.3811 -60.7673  L -81.5203 -60.6246  L -81.6446 -60.4687  L -81.7528 -60.3012  L -81.8438 -60.1238  L -81.9166 -59.9382  L -81.9706 -59.7463  L -82.0052 -59.5499  L -82.0201 -59.3511  L -82.0152 -59.1518  L -81.9904 -58.9539  L -81.946 -58.7596  L -81.8825 -58.5706  L -81.8005 -58.3888  L -81.7008 -58.2162  L -81.5844 -58.0543  L -81.4525 -57.9048  L -81.3063 -57.7692  L -81.1474 -57.6488  L -80.9773 -57.5448  L -80.7976 -57.4583  L -80.6103 -57.3901  L -80.417 -57.3409  L -80.2199 -57.3112  L -80.0207 -57.3012  L -79.8216 -57.3112  z" fill="none" stroke="rgb(27, 158, 119)" /><path d="M 80.4269 -67.2906 L 80.625 -67.3411  L 80.817 -67.411  L 81.0012 -67.4996  L 81.1756 -67.6062  L 81.3385 -67.7296  L 81.4883 -67.8686  L 81.6235 -68.0218  L 81.7428 -68.1878  L 81.845 -68.3648  L 81.929 -68.5511  L 81.9941 -68.7448  L 82.0396 -68.944  L 82.065 -69.1468  L 82.0701 -69.3511  L 82.0548 -69.5549  L 82.0193 -69.7562  L 81.964 -69.9529  L 81.8893 -70.1431  L 81.7961 -70.325  L 81.6852 -70.4967  L 81.5578 -70.6565  L 81.4151 -70.8028  L 81.2585 -70.9341  L 81.0897 -71.0492  L 80.9102 -71.147  L 80.7219 -71.2264  L 80.5266 -71.2866  L 80.3263 -71.3271  L 80.1229 -71.3475  L 79.9186 -71.3475  L 79.7152 -71.3271  L 79.5149 -71.2866  L 79.3196 -71.2264  L 79.1313 -71.147  L 78.9518 -71.0492  L 78.7829 -70.9341  L 78.6264 -70.8028  L 78.4837 -70.6565  L 78.3563 -70.4967  L 78.2454 -70.325  L 78.1522 -70.1431  L 78.0775 -69.9529  L 78.0221 -69.7562  L 77.9867 -69.5549  L 77.9714 -69.3511  L 77.9765 -69.1468  L 78.0019 -68.944  L 78.0474 -68.7448  L 78.1125 -68.5511  L 78.1965 -68.3648  L 78.2987 -68.1878  L 78.418 -68.0218  L 78.5532 -67.8686  L 78.703 -67.7296  L 78.8659 -67.6062  L 79.0403 -67.4996  L 79.2245 -67.411  L 79.4165 -67.3411  L 79.6145 -67.2906  L 79.8166 -67.2602  L 80.0207 -67.25  L 80.2249 -67.2602  z" fill="none" stroke="rgb(27, 158, 119)" /><path d="M 40.6147 -66.3105 L 40.9094 -66.3855  L 41.1951 -66.4895  L 41.469 -66.6214  L 41.7285 -66.78  L 41.9709 -66.9636  L 42.1938 -67.1704  L 42.395 -67.3984  L 42.5725 -67.6452  L 42.7245 -67.9086  L 42.8495 -68.1857  L 42.9464 -68.4739  L 43.014 -68.7704  L 43.0518 -69.0721  L 43.0594 -69.376  L 43.0367 -69.6792  L 42.9839 -69.9787  L 42.9016 -70.2714  L 42.7905 -70.5544  L 42.6518 -70.825  L 42.4868 -71.0804  L 42.2972 -71.3181  L 42.0849 -71.5358  L 41.852 -71.7313  L 41.6008 -71.9025  L 41.3337 -72.048  L 41.0535 -72.1661  L 40.763 -72.2557  L 40.465 -72.3159  L 40.1624 -72.3462  L 39.8583 -72.3462  L 39.5558 -72.3159  L 39.2578 -72.2557  L 38.9672 -72.1661  L 38.687 -72.048  L 38.42 -71.9025  L 38.1688 -71.7313  L 37.9358 -71.5358  L 37.7235 -71.3181  L 37.534 -71.0804  L 37.369 -70.825  L 37.2303 -70.5544  L 37.1192 -70.2714  L 37.0368 -69.9787  L 36.984 -69.6792  L 36.9613 -69.376  L 36.9689 -69.0721  L 37.0067 -68.7704  L 37.0744 -68.4739  L 37.1712 -68.1857  L 37.2963 -67.9086  L 37.4483 -67.6452  L 37.6258 -67.3984  L 37.827 -67.1704  L 38.0499 -66.9636  L 38.2922 -66.78  L 38.5517 -66.6214  L 38.8256 -66.4895  L 39.1114 -66.3855  L 39.406 -66.3105  L 39.7067 -66.2652  L 40.0104 -66.25  L 40.3141 -66.2652  z" fill="none" stroke="rgb(27, 158, 119)" /><path d="M 0.604346 -66.3105 L 0.899003 -66.3855  L 1.18473 -66.4895  L 1.45867 -66.6214  L 1.71813 -66.78  L 1.9605 -66.9636  L 2.18339 -67.1704  L 2.38459 -67.3984  L 2.56208 -67.6452  L 2.71411 -67.9086  L 2.83916 -68.1857  L 2.936 -68.4739  L 3.00366 -68.7704  L 3.04147 -69.0721  L 3.04905 -69.376  L 3.02633 -69.6792  L 2.97353 -69.9787  L 2.89118 -70.2714  L 2.78009 -70.5544  L 2.64138 -70.825  L 2.47641 -71.0804  L 2.28683 -71.3181  L 2.07453 -71.5358  L 1.8416 -71.7313  L 1.59038 -71.9025  L 1.32335 -72.048  L 1.04316 -72.1661  L 0.75261 -72.2557  L 0.454579 -72.3159  L 0.15203 -72.3462  L -0.15203 -72.3462  L -0.454579 -72.3159  L -0.75261 -72.2557  L -1.04316 -72.1661  L -1.32335 -72.048  L -1.59038 -71.9025  L -1.8416 -71.7313  L -2.07453 -71.5358  L -2.28683 -71.3181  L -2.47641 -71.0804  L -2.64138 -70.825  L -2.78009 -70.5544  L -2.89118 -70.2714  L -2.97353 -69.9787  L -3.02633 -69.6792  L -3.04905 -69.376  L -3.04147 -69.0721  L -3.00366 -68.7704  L -2.936 -68.4739  L -2.83916 -68.1857  L -2.71411 -67.9086  L -2.56208 -67.6452  L -2.38459 -67.3984  L -2.18339 -67.1704  L -1.9605 -66.9636  L -1.71813 -66.78  L -1.45867 -66.6214  L -1.18473 -66.4895  L -0.899003 -66.3855  L -0.604346 -66.3105  L -0.303682 -66.2652  L 0 -66.25  L 0.303682 -66.2652  z" fill="none" stroke="rgb(27, 158, 119)" /><path d="M -39.406 -66.3105 L -39.1114 -66.3855  L -38.8256 -66.4895  L -38.5517 -66.6214  L -38.2922 -66.78  L -38.0499 -66.9636  L -37.827 -67.1704  L -37.6258 -67.3984  L -37.4483 -67.6452  L -37.2963 -67.9086  L -37.1712 -68.1857  L -37.0744 -68.4739  L -37.0067 -68.7704  L -36.9689 -69.0721  L -36.9613 -69.376  L -36.984 -69.6792  L -37.0368 -69.9787  L -37.1192 -70.2714  L -37.2303 -70.5544  L -37.369 -70.825  L -37.534 -71.0804  L -37.7235 -71.3181  L -37.9358 -71.5358  L -38.1688 -71.7313  L -38.42 -71.9025  L -38.687 -72.048  L -38.9672 -72.1661  L -39.2578 -72.2557  L -39.5558 -72.3159  L -39.8583 -72.3462  L -40.1624 -72.3462  L -40.465 -72.3159  L -40.763 -72.2557  L -41.0535 -72.1661  L -41.3337 -72.048  L -41.6008 -71.9025  L -41.852 -71.7313  L -42.0849 -71.5358  L -42.2972 -71.3181  L -42.4868 -71.0804  L -42.6518 -70.825  L -42.7905 -70.5544  L -42.9016 -70.2714  L -42.9839 -69.9787  L -43.0367 -69.6792  L -43.0594 -69.376  L -43.0518 -69.0721  L -43.014 -68.7704  L -42.9464 -68.4739  L -42.8495 -68.1857  L -42.7245 -67.9086  L -42.5725 -67.6452  L -42.395 -67.3984  L -42.1938 -67.1704  L -41.9709 -66.9636  L -41.7285 -66.78  L -41.469 -66.6214  L -41.1951 -66.4895  L -40.9094 -66.3855  L -40.6147 -66.3105  L -40.3141 -66.2652  L -40.0104 -66.25  L -39.7067 -66.2652  z" fill="none" stroke="rgb(27, 158, 119)" /><path d="M -79.4164 -66.3105 L -79.1217 -66.3855  L -78.836 -66.4895  L -78.5621 -66.6214  L -78.3026 -66.78  L -78.0602 -66.9636  L -77.8374 -67.1704  L -77.6362 -67.3984  L -77.4587 -67.6452  L -77.3066 -67.9086  L -77.1816 -68.1857  L -77.0847 -68.4739  L -77.0171 -68.7704  L -76.9793 -69.0721  L -76.9717 -69.376  L -76.9944 -69.6792  L -77.0472 -69.9787  L -77.1296 -70.2714  L -77.2407 -70.5544  L -77.3794 -70.825  L -77.5443 -71.0804  L -77.7339 -71.3181  L -77.9462 -71.5358  L -78.1791 -71.7313  L -78.4304 -71.9025  L -78.6974 -72.048  L -78.9776 -72.1661  L -79.2681 -72.2557  L -79.5662 -72.3159  L -79.8687 -72.3462  L -80.1728 -72.3462  L -80.4753 -72.3159  L -80.7734 -72.2557  L -81.0639 -72.1661  L -81.3441 -72.048  L -81.6111 -71.9025  L -81.8624 -71.7313  L -82.0953 -71.5358  L -82.3076 -71.3181  L -82.4972 -71.0804  L -82.6621 -70.825  L -82.8008 -70.5544  L -82.9119 -70.2714  L -82.9943 -69.9787  L -83.0471 -69.6792  L -83.0698 -69.376  L -83.0622 -69.0721  L -83.0244 -68.7704  L -82.9568 -68.4739  L -82.8599 -68.1857  L -82.7349 -67.9086  L -82.5828 -67.6452  L -82.4053 -67.3984  L -82.2041 -67.1704  L -81.9812 -66.9636  L -81.7389 -66.78  L -81.4794 -66.6214  L -81.2055 -66.4895  L -80.9198 -66.3855  L -80.6251 -66.3105  L -80.3244 -66.2652  L -80.0207 -66.25  L -79.7171 -66.2652  z" fill="none" stroke="rgb(27, 158, 119)" /><path d="M 49.0669 -72.3409 L 49.2601 -72.3901  L 49.4475 -72.4583  L 49.6271 -72.5448  L 49.7973 -72.6488  L 49.9562 -72.7692  L 50.1024 -72.9048  L 50.2343 -73.0543  L 50.3507 -73.2162  L 50.4504 -73.3888  L 50.5324 -73.5706  L 50.5959 -73.7596  L 50.6402 -73.9539  L 50.665 -74.1518  L 50.67 -74.3511  L 50.6551 -74.5499  L 50.6205 -74.7463  L 50.5665 -74.9382  L 50.4936 -75.1238  L 50.4027 -75.3012  L 50.2945 -75.4687  L 50.1702 -75.6246  L 50.031 -75.7673  L 49.8782 -75.8955  L 49.7135 -76.0078  L 49.5384 -76.1032  L 49.3547 -76.1806  L 49.1641 -76.2394  L 48.9687 -76.2789  L 48.7703 -76.2988  L 48.5709 -76.2988  L 48.3725 -76.2789  L 48.1771 -76.2394  L 47.9866 -76.1806  L 47.8029 -76.1032  L 47.6278 -76.0078  L 47.463 -75.8955  L 47.3103 -75.7673  L 47.1711 -75.6246  L 47.0468 -75.4687  L 46.9386 -75.3012  L 46.8476 -75.1238  L 46.7748 -74.9382  L 46.7208 -74.7463  L 46.6861 -74.5499  L 46.6712 -74.3511  L 46.6762 -74.1518  L 46.701 -73.9539  L 46.7454 -73.7596  L 46.8089 -73.5706  L 46.8909 -73.3888  L 46.9906 -73.2162  L 47.107 -73.0543  L 47.2389 -72.9048  L 47.3851 -72.7692  L 47.544 -72.6488  L 47.7141 -72.5448  L 47.8938 -72.4583  L 48.0811 -72.3901  L 48.2743 -72.3409  L 48.4715 -72.3112  L 48.6706 -72.3012  L 48.8698 -72.3112  z" fill="none" stroke="rgb(27, 158, 119)" /><path d="M 31.7464 -72.3409 L 31.9396 -72.3901  L 32.127 -72.4583  L 32.3066 -72.5448  L 32.4768 -72.6488  L 32.6357 -72.7692  L 32.7819 -72.9048  L 32.9138 -73.0543  L 33.0302 -73.2162  L 33.1299 -73.3888  L 33.2119 -73.5706  L 33.2754 -73.7596  L 33.3197 -73.9539  L 33.3445 -74.1518  L 33.3495 -74.3511  L 33.3346 -74.5499  L 33.3 -74.7463  L 33.246 -74.9382  L 33.1731 -75.1238  L 33.0822 -75.3012  L 32.974 -75.4687  L 32.8497 -75.6246  L 32.7105 -75.7673  L 32.5577 -75.8955  L 32.393 -76.0078  L 32.2179 -76.1032  L 32.0342 -76.1806  L 31.8436 -76.2394  L 31.6482 -76.2789  L 31.4498 -76.2988  L 31.2504 -76.2988  L 31.052 -76.2789  L 30.8566 -76.2394  L 30.6661 -76.1806  L 30.4824 -76.1032  L 30.3072 -76.0078  L 30.1425 -75.8955  L 29.9898 -75.7673  L 29.8506 -75.6246  L 29.7262 -75.4687  L 29.6181 -75.3012  L 29.5271 -75.1238  L 29.4543 -74.9382  L 29.4003 -74.7463  L 29.3656 -74.5499  L 29.3507 -74.3511  L 29.3557 -74.1518  L 29.3805 -73.9539  L 29.4249 -73.7596  L 29.4884 -73.5706  L 29.5704 -73.3888  L 29.6701 -73.2162  L 29.7865 -73.0543  L 29.9184 -72.9048  L 30.0645 -72.7692  L 30.2235 -72.6488  L 30.3936 -72.5448  L 30.5733 -72.4583  L 30.7606 -72.3901  L 30.9538 -72.3409  L 31.151 -72.3112  L 31.3501 -72.3012  L 31.5493 -72.3112  z" fill="none" stroke="rgb(27, 158, 119)" /><path d="M 9.05655 -72.3409 L 9.24976 -72.3901  L 9.43712 -72.4583  L 9.61676 -72.5448  L 9.78689 -72.6488  L 9.94583 -72.7692  L 10.092 -72.9048  L 10.2239 -73.0543  L 10.3403 -73.2162  L 10.44 -73.3888  L 10.522 -73.5706  L 10.5855 -73.7596  L 10.6299 -73.9539  L 10.6547 -74.1518  L 10.6596 -74.3511  L 10.6447 -74.5499  L 10.6101 -74.7463  L 10.5561 -74.9382  L 10.4833 -75.1238  L 10.3923 -75.3012  L 10.2841 -75.4687  L 10.1598 -75.6246  L 10.0206 -75.7673  L 9.86786 -75.8955  L 9.70312 -76.0078  L 9.52802 -76.1032  L 9.34429 -76.1806  L 9.15377 -76.2394  L 8.95834 -76.2789  L 8.75995 -76.2988  L 8.56056 -76.2988  L 8.36217 -76.2789  L 8.16674 -76.2394  L 7.97621 -76.1806  L 7.79249 -76.1032  L 7.61738 -76.0078  L 7.45265 -75.8955  L 7.29991 -75.7673  L 7.16069 -75.6246  L 7.03638 -75.4687  L 6.9282 -75.3012  L 6.83724 -75.1238  L 6.7644 -74.9382  L 6.7104 -74.7463  L 6.67578 -74.5499  L 6.66088 -74.3511  L 6.66585 -74.1518  L 6.69064 -73.9539  L 6.73501 -73.7596  L 6.79851 -73.5706  L 6.88051 -73.3888  L 6.9802 -73.2162  L 7.09659 -73.0543  L 7.22852 -72.9048  L 7.37468 -72.7692  L 7.53361 -72.6488  L 7.70375 -72.5448  L 7.88338 -72.4583  L 8.07074 -72.3901  L 8.26396 -72.3409  L 8.46112 -72.3112  L 8.66025 -72.3012  L 8.85939 -72.3112  z" fill="none" stroke="rgb(27, 158, 119)" /><path d="M -8.26396 -72.3409 L -8.07074 -72.3901  L -7.88338 -72.4583  L -7.70375 -72.5448  L -7.53361 -72.6488  L -7.37468 -72.7692  L -7.22852 -72.9048  L -7.09659 -73.0543  L -6.9802 -73.2162  L -6.88051 -73.3888  L -6.79851 -73.5706  L -6.73501 -73.7596  L -6.69064 -73.9539  L -6.66585 -74.1518  L -6.66088 -74.3511  L -6.67578 -74.5499  L -6.7104 -74.7463  L -6.7644 -74.9382  L -6.83724 -75.1238  L -6.9282 -75.3012  L -7.03638 -75.4687  L -7.16069 -75.6246  L -7.29991 -75.7673  L -7.45265 -75.8955  L -7.61738 -76.0078  L -7.79249 -76.1032  L -7.97621 -76.1806  L -8.16674 -76.2394  L -8.36217 -76.2789  L -8.56056 -76.2988  L -8.75995 -76.2988  L -8.95834 -76.2789  L -9.15377 -76.2394  L -9.34429 -76.1806  L -9.52802 -76.1032  L -9.70312 -76.0078  L -9.86786 -75.8955  L -10.0206 -75.7673  L -10.1598 -75.6246  L -10.2841 -75.4687  L -10.3923 -75.3012  L -10.4833 -75.1238  L -10.5561 -74.9382  L -10.6101 -74.7463  L -10.6447 -74.5499  L -10.6596 -74.3511  L -10.6547 -74.1518  L -10.6299 -73.9539  L -10.5855 -73.7596  L -10.522 -73.5706  L -10.44 -73.3888  L -10.3403 -73.2162  L -10.2239 -73.0543  L -10.092 -72.9048  L -9.94583 -72.7692  L -9.78689 -72.6488  L -9.61676 -72.5448  L -9.43712 -72.4583  L -9.24976 -72.3901  L -9.05655 -72.3409  L -8.85939 -72.3112  L -8.66025 -72.3012  L -8.46112 -72.3112  z" fill="none" stroke="rgb(27, 158, 119)" /><path d="M -30.9538 -72.3409 L -30.7606 -72.3901  L -30.5733 -72.4583  L -30.3936 -72.5448  L -30.2235 -72.6488  L -30.0645 -72.7692  L -29.9184 -72.9048  L -29.7865 -73.0543  L -29.6701 -73.2162  L -29.5704 -73.3888  L -29.4884 -73.5706  L -29.4249 -73.7596  L -29.3805 -73.9539  L -29.3557 -74.1518  L -29.3507 -74.3511  L -29.3656 -74.5499  L -29.4003 -74.7463  L -29.4543 -74.9382  L -29.5271 -75.1238  L -29.6181 -75.3012  L -29.7262 -75.4687  L -29.8506 -75.6246  L -29.9898 -75.7673  L -30.1425 -75.8955  L -30.3072 -76.0078  L -30.4824 -76.1032  L -30.6661 -76.1806  L -30.8566 -76.2394  L -31.052 -76.2789  L -31.2504 -76.2988  L -31.4498 -76.2988  L -31.6482 -76.2789  L -31.8436 -76.2394  L -32.0342 -76.1806  L -32.2179 -76.1032  L -32.393 -76.0078  L -32.5577 -75.8955  L -32.7105 -75.7673  L -32.8497 -75.6246  L -32.974 -75.4687  L -33.0822 -75.3012  L -33.1731 -75.1238  L -33.246 -74.9382  L -33.3 -74.7463  L -33.3346 -74.5499  L -33.3495 -74.3511  L -33.3445 -74.1518  L -33.3197 -73.9539  L -33.2754 -73.7596  L -33.2119 -73.5706  L -33.1299 -73.3888  L -33.0302 -73.2162  L -32.9138 -73.0543  L -32.7819 -72.9048  L -32.6357 -72.7692  L -32.4768 -72.6488  L -32.3066 -72.5448  L -32.127 -72.4583  L -31.9396 -72.3901  L -31.7464 -72.3409  L -31.5493 -72.3112  L -31.3501 -72.3012  L -31.151 -72.3112  z" fill="none" stroke="rgb(27, 158, 119)" /><path d="M -48.2743 -72.3409 L -48.0811 -72.3901  L -47.8938 -72.4583  L -47.7141 -72.5448  L -47.544 -72.6488  L -47.3851 -72.7692  L -47.2389 -72.9048  L -47.107 -73.0543  L -46.9906 -73.2162  L -46.8909 -73.3888  L -46.8089 -73.5706  L -46.7454 -73.7596  L -46.701 -73.9539  L -46.6762 -74.1518  L -46.6712 -74.3511  L -46.6861 -74.5499  L -46.7208 -74.7463  L -46.7748 -74.9382  L -46.8476 -75.1238  L -46.9386 -75.3012  L -47.0468 -75.4687  L -47.1711 -75.6246  L -47.3103 -75.7673  L -47.463 -75.8955  L -47.6278 -76.0078  L -47.8029 -76.1032  L -47.9866 -76.1806  L -48.1771 -76.2394  L -48.3725 -76.2789  L -48.5709 -76.2988  L -48.7703 -76.2988  L -48.9687 -76.2789  L -49.1641 -76.2394  L -49.3547 -76.1806  L -49.5384 -76.1032  L -49.7135 -76.0078  L -49.8782 -75.8955  L -50.031 -75.7673  L -50.1702 -75.6246  L -50.2945 -75.4687  L -50.4027 -75.3012  L -50.4936 -75.1238  L -50.5665 -74.9382  L -50.6205 -74.7463  L -50.6551 -74.5499  L -50.67 -74.3511  L -50.665 -74.1518  L -50.6402 -73.9539  L -50.5959 -73.7596  L -50.5324 -73.5706  L -50.4504 -73.3888  L -50.3507 -73.2162  L -50.2343 -73.0543  L -50.1024 -72.9048  L -49.9562 -72.7692  L -49.7973 -72.6488  L -49.6271 -72.5448  L -49.4475 -72.4583  L -49.2601 -72.3901  L -49.0669 -72.3409  L -48.8698 -72.3112  L -48.6706 -72.3012  L -48.4715 -72.3112  z" fill="none" stroke="rgb(27, 158, 119)" /><path d="M -70.9642 -72.3409 L -70.771 -72.3901  L -70.5836 -72.4583  L -70.404 -72.5448  L -70.2339 -72.6488  L -70.0749 -72.7692  L -69.9288 -72.9048  L -69.7968 -73.0543  L -69.6804 -73.2162  L -69.5807 -73.3888  L -69.4987 -73.5706  L -69.4352 -73.7596  L -69.3909 -73.9539  L -69.3661 -74.1518  L -69.3611 -74.3511  L -69.376 -74.5499  L -69.4106 -74.7463  L -69.4646 -74.9382  L -69.5375 -75.1238  L -69.6284 -75.3012  L -69.7366 -75.4687  L -69.8609 -75.6246  L -70.0001 -75.7673  L -70.1529 -75.8955  L -70.3176 -76.0078  L -70.4927 -76.1032  L -70.6765 -76.1806  L -70.867 -76.2394  L -71.0624 -76.2789  L -71.2608 -76.2988  L -71.4602 -76.2988  L -71.6586 -76.2789  L -71.854 -76.2394  L -72.0445 -76.1806  L -72.2283 -76.1032  L -72.4034 -76.0078  L -72.5681 -75.8955  L -72.7208 -75.7673  L -72.8601 -75.6246  L -72.9844 -75.4687  L -73.0925 -75.3012  L -73.1835 -75.1238  L -73.2563 -74.9382  L -73.3103 -74.7463  L -73.345 -74.5499  L -73.3599 -74.3511  L -73.3549 -74.1518  L -73.3301 -73.9539  L -73.2857 -73.7596  L -73.2222 -73.5706  L -73.1402 -73.3888  L -73.0405 -73.2162  L -72.9242 -73.0543  L -72.7922 -72.9048  L -72.6461 -72.7692  L -72.4871 -72.6488  L -72.317 -72.5448  L -72.1374 -72.4583  L -71.95 -72.3901  L -71.7568 -72.3409  L -71.5596 -72.3112  L -71.3605 -72.3012  L -71.1614 -72.3112  z" fill="none" stroke="rgb(27, 158, 119)" /><path d="M -88.2847 -72.3409 L -88.0915 -72.3901  L -87.9041 -72.4583  L -87.7245 -72.5448  L -87.5544 -72.6488  L -87.3954 -72.7692  L -87.2493 -72.9048  L -87.1173 -73.0543  L -87.0009 -73.2162  L -86.9013 -73.3888  L -86.8193 -73.5706  L -86.7558 -73.7596  L -86.7114 -73.9539  L -86.6866 -74.1518  L -86.6816 -74.3511  L -86.6965 -74.5499  L -86.7311 -74.7463  L -86.7851 -74.9382  L -86.858 -75.1238  L -86.949 -75.3012  L -87.0571 -75.4687  L -87.1814 -75.6246  L -87.3207 -75.7673  L -87.4734 -75.8955  L -87.6381 -76.0078  L -87.8132 -76.1032  L -87.997 -76.1806  L -88.1875 -76.2394  L -88.3829 -76.2789  L -88.5813 -76.2988  L -88.7807 -76.2988  L -88.9791 -76.2789  L -89.1745 -76.2394  L -89.365 -76.1806  L -89.5488 -76.1032  L -89.7239 -76.0078  L -89.8886 -75.8955  L -90.0413 -75.7673  L -90.1806 -75.6246  L -90.3049 -75.4687  L -90.4131 -75.3012  L -90.504 -75.1238  L -90.5769 -74.9382  L -90.6309 -74.7463  L -90.6655 -74.5499  L -90.6804 -74.3511  L -90.6754 -74.1518  L -90.6506 -73.9539  L -90.6062 -73.7596  L -90.5427 -73.5706  L -90.4607 -73.3888  L -90.3611 -73.2162  L -90.2447 -73.0543  L -90.1127 -72.9048  L -89.9666 -72.7692  L -89.8076 -72.6488  L -89.6375 -72.5448  L -89.4579 -72.4583  L -89.2705 -72.3901  L -89.0773 -72.3409  L -88.8801 -72.3112  L -88.681 -72.3012  L -88.4819 -72.3112  z" fill="none" stroke="rgb(27, 158, 119)" /><path d="M 56.7247 -84.75 L 58.2247 -87.3481  L 55.1936 -89.0981  L 53.6936 -86.5  L 48.0644 -89.75  L 49.5644 -92.3481  L 46.5333 -94.0981  L 45.0333 -91.5  L 41.7424 -93.4  L 41.7424 -97.2  L 44.7424 -97.2  L 44.7424 -100.7  L 41.7424 -100.7  L 41.7424 -107.2  L 44.7424 -107.2  L 44.7424 -110.7  L 41.7424 -110.7  L 41.7424 -114.5  L 45.0333 -116.4  L 46.5333 -113.802  L 49.5644 -115.552  L 48.0644 -118.15  L 53.6936 -121.4  L 55.1936 -118.802  L 58.2247 -120.552  L 56.7247 -123.15  L 60.0156 -125.05  L 63.3065 -123.15  L 61.8065 -120.552  L 64.8375 -118.802  L 66.3375 -121.4  L 71.9667 -118.15  L 70.4667 -115.552  L 73.4978 -113.802  L 74.9978 -116.4  L 78.2887 -114.5  L 78.2887 -110.7  L 75.2887 -110.7  L 75.2887 -107.2  L 78.2887 -107.2  L 78.2887 -100.7  L 75.2887 -100.7  L 75.2887 -97.2  L 78.2887 -97.2  L 78.2887 -93.4  L 74.9978 -91.5  L 73.4978 -94.0981  L 70.4667 -92.3481  L 71.9667 -89.75  L 66.3375 -86.5  L 64.8375 -89.0981  L 61.8065 -87.3481  L 63.3065 -84.75  L 60.0156 -82.85  z" fill="none" stroke="rgb(217, 95, 2)" /><path d="M 16.7143 -84.75 L 18.2143 -87.3481  L 15.1832 -89.0981  L 13.6832 -86.5  L 8.05404 -89.75  L 9.55404 -92.3481  L 6.52295 -94.0981  L 5.02295 -91.5  L 1.73205 -93.4  L 1.73205 -97.2  L 4.73205 -97.2  L 4.73205 -100.7  L 1.73205 -100.7  L 1.73205 -107.2  L 4.73205 -107.2  L 4.73205 -110.7  L 1.73205 -110.7  L 1.73205 -114.5  L 5.02295 -116.4  L 6.52295 -113.802  L 9.55404 -115.552  L 8.05404 -118.15  L 13.6832 -121.4  L 15.1832 -118.802  L 18.2143 -120.552  L 16.7143 -123.15  L 20.0052 -125.05  L 23.2961 -123.15  L 21.7961 -120.552  L 24.8272 -118.802  L 26.3272 -121.4  L 31.9563 -118.15  L 30.4563 -115.552  L 33.4874 -113.802  L 34.9874 -116.4  L 38.2783 -114.5  L 38.2783 -110.7  L 35.2783 -110.7  L 35.2783 -107.2  L 38.2783 -107.2  L 38.2783 -100.7  L 35.2783 -100.7  L 35.2783 -97.2  L 38.2783 -97.2  L 38.2783 -93.4  L 34.9874 -91.5  L 33.4874 -94.0981  L 30.4563 -92.3481  L 31.9563 -89.75  L 26.3272 -86.5  L 24.8272 -89.0981  L 21.7961 -87.3481  L 23.2961 -84.75  L 20.0052 -82.85  z" fill="none" stroke="rgb(217, 95, 2)" /><path d="M -23.2961 -84.75 L -21.7961 -87.3481  L -24.8272 -89.0981  L -26.3272 -86.5  L -31.9563 -89.75  L -30.4563 -92.3481  L -33.4874 -94.0981  L -34.9874 -91.5  L -38.2783 -93.4  L -38.2783 -97.2  L -35.2783 -97.2  L -35.2783 -100.7  L -38.2783 -100.7  L -38.2783 -107.2  L -35.2783 -107.2  L -35.2783 -110.7  L -38.2783 -110.7  L -38.2783 -114.5  L -34.9874 -116.4  L -33.4874 -113.802  L -30.4563 -115.552  L -31.9563 -118.15  L -26.3272 -121.4  L -24.8272 -118.802  L -21.7961 -120.552  L -23.2961 -123.15  L -20.0052 -125.05  L -16.7143 -123.15  L -18.2143 -120.552  L -15.1832 -118.802  L -13.6832 -121.4  L -8.05404 -118.15  L -9.55404 -115.552  L -6.52295 -113.802  L -5.02295 -116.4  L -1.73205 -114.5  L -1.73205 -110.7  L -4.73205 -110.7  L -4.73205 -107.2  L -1.73205 -107.2  L -1.73205 -100.7  L -4.73205 -100.7  L -4.73205 -97.2  L -1.73205 -97.2  L -1.73205 -93.4  L -5.02295 -91.5  L -6.52295 -94.0981  L -9.55404 -92.3481  L -8.05404 -89.75  L -13.6832 -86.5  L -15.1832 -89.0981  L -18.2143 -87.3481  L -16.7143 -84.75  L -20.0052 -82.85  z" fill="none" stroke="rgb(217, 95, 2)" /><path d="M -63.3065 -84.75 L -61.8065 -87.3481  L -64.8375 -89.0981  L -66.3375 -86.5  L -71.9667 -89.75  L -70.4667 -92.3481  L -73.4978 -94.0981  L -74.9978 -91.5  L -78.2887 -93.4  L -78.2887 -97.2  L -75.2887 -97.2  L -75.2887 -100.7  L -78.2887 -100.7  L -78.2887 -107.2  L -75.2887 -107.2  L -75.2887 -110.7  L -78.2887 -110.7  L -78.2887 -114.5  L -74.9978 -116.4  L -73.4978 -113.802  L -70.4667 -115.552  L -71.9667 -118.15  L -66.3375 -121.4  L -64.8375 -118.802  L -61.8065 -120.552  L -63.3065 -123.15  L -60.0156 -125.05  L -56.7247 -123.15  L -58.2247 -120.552  L -55.1936 -118.802  L -53.6936 -121.4  L -48.0644 -118.15  L -49.5644 -115.552  L -46.5333 -113.802  L -45.0333 -116.4  L -41.7424 -114.5  L -41.7424 -110.7  L -44.7424 -110.7  L -44.7424 -107.2  L -41.7424 -107.2  L -41.7424 -100.7  L -44.7424 -100.7  L -44.7424 -97.2  L -41.7424 -97.2  L -41.7424 -93.4  L -45.0333 -91.5  L -46.5333 -94.0981  L -49.5644 -92.3481  L -48.0644 -89.75  L -53.6936 -86.5  L -55.1936 -89.0981  L -58.2247 -87.3481  L -56.7247 -84.75  L -60.0156 -82.85  z" fill="none" stroke="rgb(217, 95, 2)" /><path d="M -35.0802 -104.55 L -35.0802 -103.35  L -4.93019 -103.35  L -4.93019 -104.55  z" fill="none" stroke="rgb(27, 158, 119)" /><path d="M -75.0906 -104.55 L -75.0906 -103.35  L -44.9406 -103.35  L -44.9406 -104.55  z" fill="none" stroke="rgb(27, 158, 119)" /></g></svg>