<?xml version="1.0" encoding="utf-8" ?>
<svg baseProfile="full" height="287.19101615137754mm" version="1.1" viewBox="-2.0,-140.59550807568877,330.07261558388745,287.19101615137754" width="330.07261558388745mm" xmlns="http://www.w3.org/2000/svg" xmlns:ev="http://www.w3.org/2001/xml-events" xmlns:xlink="http://www.w3.org/1999/xlink"><defs /><g transform="translate(163.036, 3)"><path d="M 82.6118 128.103 L 87.9452 118.865  L 90.5433 120.365  L 95.9268 111.041  L 93.3287 109.541  L 98.6621 100.303  L 101.26 101.803  L 106.644 92.4788  L 104.046 90.9788  L 109.379 81.741  L 111.977 83.241  L 117.361 73.9166  L 114.762 72.4166  L 120.096 63.1789  L 122.694 64.6789  L 128.077 55.3545  L 125.479 53.8545  L 130.813 44.6167  L 133.411 46.1167  L 138.794 36.7923  L 136.196 35.2923  L 141.53 26.0545  L 144.128 27.5545  L 149.511 18.2301  L 146.913 16.7301  L 152.247 7.49232  L 154.845 8.99232  L 160.036 5.68434e-14  L 154.845 -8.99232  L 152.247 -7.49232  L 146.913 -16.7301  L 149.511 -18.2301  L 144.128 -27.5545  L 141.53 -26.0545  L 136.196 -35.2923  L 138.794 -36.7923  L 133.411 -46.1167  L 130.813 -44.6167  L 125.479 -53.8545  L 128.077 -55.3545  L 122.694 -64.6789  L 120.096 -63.1789  L 114.762 -72.4166  L 117.361 -73.9166  L 111.977 -83.241  L 109.379 -81.741  L 104.046 -90.9788  L 106.644 -92.4788  L 101.26 -101.803  L 98.6621 -100.303  L 93.3287 -109.541  L 95.9268 -111.041  L 90.5433 -120.365  L 87.9452 -118.865  L 82.6118 -128.103  L 85.2099 -129.603  L 80.0182 -138.596  L 69.6347 -138.596  L 69.6347 -135.596  L 58.9678 -135.596  L 58.9678 -138.596  L 48.201 -138.596  L 48.201 -135.596  L 37.5341 -135.596  L 37.5341 -138.596  L 26.7672 -138.596  L 26.7672 -135.596  L 16.1003 -135.596  L 16.1003 -138.596  L 5.33344 -138.596  L 5.33344 -135.596  L -5.33344 -135.596  L -5.33344 -138.596  L -16.1003 -138.596  L -16.1003 -135.596  L -26.7672 -135.596  L -26.7672 -138.596  L -37.5341 -138.596  L -37.5341 -135.596  L -48.201 -135.596  L -48.201 -138.596  L -58.9678 -138.596  L -58.9678 -135.596  L -69.6347 -135.596  L -69.6347 -138.596  L -80.0182 -138.596  L -85.2099 -129.603  L -82.6118 -128.103  L -87.9452 -118.865  L -90.5433 -120.365  L -95.9268 -111.041  L -93.3287 -109.541  L -98.6621 -100.303  L -101.26 -101.803  L -106.644 -92.4788  L -104.046 -90.9788  L -109.379 -81.741  L -111.977 -83.241  L -117.361 -73.9166  L -114.762 -72.4166  L -120.096 -63.1789  L -122.694 -64.6789  L -128.077 -55.3545  L -125.479 -53.8545  L -130.813 -44.6167  L -133.411 -46.1167  L -138.794 -36.7923  L -136.196 -35.2923  L -141.53 -26.0545  L -144.128 -27.5545  L -149.511 -18.2301  L -146.913 -16.7301  L -152.247 -7.49232  L -154.845 -8.99232  L -160.036 0  L -154.845 8.99232  L -152.247 7.49232  L -146.913 16.7301  L -149.511 18.2301  L -144.128 27.5545  L -141.53 26.0545  L -136.196 35.2923  L -138.794 36.7923  L -133.411 46.1167  L -130.813 44.6167  L -125.479 53.8545  L -128.077 55.3545  L -122.694 64.6789  L -120.096 63.1789  L -114.762 72.4166  L -117.361 73.9166  L -111.977 83.241  L -109.379 81.741  L -104.046 90.9788  L -106.644 92.4788  L -101.26 101.803  L -98.6621 100.303  L -93.3287 109.541  L -95.9268 111.041  L -90.5433 120.365  L -87.9452 118.865  L -82.6118 128.103  L -85.2099 129.603  L -80.0182 138.596  L -69.6347 138.596  L -69.6347 135.596  L -58.9678 135.596  L -58.9678 138.596  L -48.201 138.596  L -48.201 135.596  L -37.5341 135.596  L -37.5341 138.596  L -26.7672 138.596  L -26.7672 135.596  L -16.1003 135.596  L -16.1003 138.596  L -5.33344 138.596  L -5.33344 135.596  L 5.33344 135.596  L 5.33344 138.596  L 16.1003 138.596  L 16.1003 135.596  L 26.7672 135.596  L 26.7672 138.596  L 37.5341 138.596  L 37.5341 135.596  L 48.201 135.596  L 48.201 138.596  L 58.9678 138.596  L 58.9678 135.596  L 69.6347 135.596  L 69.6347 138.596  L 80.0182 138.596  L 85.2099 129.603  z" fill="none" stroke="rgb(27, 158, 119)" /><path d="M 40.0104 108.501 L 20.0052 123.035  L 0 108.501  L -20.0052 123.035  L -40.0104 108.501  L -60.0156 123.035  L -80.0829 108.455  L -72.4178 84.8649  L -47.6133 84.8649  L -40.0104 108.264  L -32.4075 84.8649  L -7.60292 84.8649  L -4.61739e-15 108.264  L 7.60292 84.8649  L 32.4075 84.8649  L 40.0104 108.264  L 47.6133 84.8649  L 72.4178 84.8649  L 80.0829 108.455  L 60.0156 123.035  z" fill="none" stroke="rgb(217, 95, 2)" /><path d="M 60.0156 73.8505 L 40.0104 88.3851  L 20.0052 73.8505  L -0 88.3851  L -20.0052 73.8505  L -40.0104 88.3851  L -60.0156 73.8505  L -80.0207 88.3851  L -100.088 73.8054  L -92.423 50.2149  L -67.6185 50.2149  L -60.0156 73.6142  L -52.4126 50.2149  L -27.6081 50.2149  L -20.0052 73.6142  L -12.4023 50.2149  L 12.4023 50.2149  L 20.0052 73.6142  L 27.6081 50.2149  L 52.4126 50.2149  L 60.0156 73.6142  L 67.6185 50.2149  L 92.423 50.2149  L 100.088 73.8054  L 80.0207 88.3851  z" fill="none" stroke="rgb(217, 95, 2)" /><path d="M 80.0207 39.2005 L 60.0156 53.7351  L 40.0104 39.2005  L 20.0052 53.7351  L 9.77978e-15 39.2005  L -20.0052 53.7351  L -40.0104 39.2005  L -60.0156 53.7351  L -80.0207 39.2005  L -100.026 53.7351  L -120.093 39.1554  L -112.428 15.5649  L -87.6237 15.5649  L -80.0207 38.9642  L -72.4178 15.5649  L -47.6133 15.5649  L -40.0104 38.9642  L -32.4075 15.5649  L -7.60292 15.5649  L 2.30869e-15 38.9642  L 7.60292 15.5649  L 32.4075 15.5649  L 40.0104 38.9642  L 47.6133 15.5649  L 72.4178 15.5649  L 80.0207 38.9642  L 87.6237 15.5649  L 112.428 15.5649  L 120.093 39.1554  L 100.026 53.7351  z" fill="none" stroke="rgb(217, 95, 2)" /><path d="M 100.026 4.55051 L 80.0207 19.0851  L 60.0156 4.55051  L 40.0104 19.0851  L 20.0052 4.55051  L -1.22247e-14 19.0851  L -20.0052 4.55051  L -40.0104 19.0851  L -60.0156 4.55051  L -80.0207 19.0851  L -100.026 4.55051  L -120.031 19.0851  L -140.098 4.50539  L -132.433 -19.0851  L -107.629 -19.0851  L -100.026 4.31425  L -92.423 -19.0851  L -67.6185 -19.0851  L -60.0156 4.31425  L -52.4126 -19.0851  L -27.6081 -19.0851  L -20.0052 4.31425  L -12.4023 -19.0851  L 12.4023 -19.0851  L 20.0052 4.31425  L 27.6081 -19.0851  L 52.4126 -19.0851  L 60.0156 4.31425  L 67.6185 -19.0851  L 92.423 -19.0851  L 100.026 4.31425  L 107.629 -19.0851  L 132.433 -19.0851  L 140.098 4.50539  L 120.031 19.0851  z" fill="none" stroke="rgb(217, 95, 2)" /><path d="M 80.0207 -30.0995 L 60.0156 -15.5649  L 40.0104 -30.0995  L 20.0052 -15.5649  L 7.33484e-15 -30.0995  L -20.0052 -15.5649  L -40.0104 -30.0995  L -60.0156 -15.5649  L -80.0207 -30.0995  L -100.026 -15.5649  L -120.093 -30.1446  L -112.428 -53.7351  L -87.6237 -53.7351  L -80.0207 -30.3358  L -72.4178 -53.7351  L -47.6133 -53.7351  L -40.0104 -30.3358  L -32.4075 -53.7351  L -7.60292 -53.7351  L 3.46304e-15 -30.3358  L 7.60292 -53.7351  L 32.4075 -53.7351  L 40.0104 -30.3358  L 47.6133 -53.7351  L 72.4178 -53.7351  L 80.0207 -30.3358  L 87.6237 -53.7351  L 112.428 -53.7351  L 120.093 -30.1446  L 100.026 -15.5649  z" fill="none" stroke="rgb(217, 95, 2)" /><path d="M 60.0156 -64.7495 L 40.0104 -50.2149  L 20.0052 -64.7495  L -0 -50.2149  L -20.0052 -64.7495  L -40.0104 -50.2149  L -60.0156 -64.7495  L -80.0207 -50.2149  L -100.088 -64.7946  L -92.423 -88.3851  L -67.6185 -88.3851  L -60.0156 -64.9858  L -52.4126 -88.3851  L -27.6081 -88.3851  L -20.0052 -64.9858  L -12.4023 -88.3851  L 12.4023 -88.3851  L 20.0052 -64.9858  L 27.6081 -88.3851  L 52.4126 -88.3851  L 60.0156 -64.9858  L 67.6185 -88.3851  L 92.423 -88.3851  L 100.088 -64.7946  L 80.0207 -50.2149  z" fill="none" stroke="rgb(217, 95, 2)" /><path d="M 40.0104 -99.3995 L 20.0052 -84.8649  L 0 -99.3995  L -20.0052 -84.8649  L -40.0104 -99.3995  L -60.0156 -84.8649  L -80.0829 -99.4446  L -72.4178 -123.035  L -47.6133 -123.035  L -40.0104 -99.6358  L -32.4075 -123.035  L -7.60292 -123.035  L -4.61739e-15 -99.6358  L 7.60292 -123.035  L 32.4075 -123.035  L 40.0104 -99.6358  L 47.6133 -123.035  L 72.4178 -123.035  L 80.0829 -99.4446  L 60.0156 -84.8649  z" fill="none" stroke="rgb(217, 95, 2)" /></g></svg>