<?xml version="1.0" encoding="utf-8" standalone="no"?>
        <!DOCTYPE svg PUBLIC "-//W3C//DTD SVG 1.1//EN" "http://www.w3.org/Graphics/SVG/1.1/DTD/svg11.dtd">
         <svg xmlns="http://www.w3.org/2000/svg" width="329.86mm" height="287.141mm" viewbox="0 0 329.86 287.141">
<path style="fill:none;stroke:rgb(217, 95, 2);stroke-width:1mm;" d="M 847.31657, 70.18775 L 778.58007, 109.87279 L 778.58007, 189.24287 L 847.31657, 228.92790 L 916.05308, 189.24287 L 916.05308, 109.87279 z " /><path style="fill:none;stroke:rgb(217, 95, 2);stroke-width:1mm;" d="M 696.75090, 70.18775 L 628.01439, 109.87279 L 628.01439, 189.24287 L 696.75090, 228.92790 L 765.48740, 189.24287 L 765.48740, 109.87279 z " /><path style="fill:none;stroke:rgb(217, 95, 2);stroke-width:1mm;" d="M 546.18522, 70.18775 L 477.44871, 109.87279 L 477.44871, 189.24287 L 546.18522, 228.92790 L 614.92172, 189.24287 L 614.92172, 109.87279 z " /><path style="fill:none;stroke:rgb(217, 95, 2);stroke-width:1mm;" d="M 395.61954, 70.18775 L 326.88304, 109.87279 L 326.88304, 189.24287 L 395.61954, 228.92790 L 464.35605, 189.24287 L 464.35605, 109.87279 z " /><path style="fill:none;stroke:rgb(217, 95, 2);stroke-width:1mm;" d="M 922.59941, 200.58145 L 853.86291, 240.26649 L 853.86291, 319.63657 L 922.59941, 359.32161 L 991.33592, 319.63657 L 991.33592, 240.26649 z " /><path style="fill:none;stroke:rgb(217, 95, 2);stroke-width:1mm;" d="M 772.03373, 200.58145 L 703.29723, 240.26649 L 703.29723, 319.63657 L 772.03373, 359.32161 L 840.77024, 319.63657 L 840.77024, 240.26649 z " /><path style="fill:none;stroke:rgb(217, 95, 2);stroke-width:1mm;" d="M 621.46806, 200.58145 L 552.73155, 240.26649 L 552.73155, 319.63657 L 621.46806, 359.32161 L 690.20456, 319.63657 L 690.20456, 240.26649 z " /><path style="fill:none;stroke:rgb(217, 95, 2);stroke-width:1mm;" d="M 470.90238, 200.58145 L 402.16588, 240.26649 L 402.16588, 319.63657 L 470.90238, 359.32161 L 539.63889, 319.63657 L 539.63889, 240.26649 z " /><path style="fill:none;stroke:rgb(217, 95, 2);stroke-width:1mm;" d="M 320.33670, 200.58145 L 251.60020, 240.26649 L 251.60020, 319.63657 L 320.33670, 359.32161 L 389.07321, 319.63657 L 389.07321, 240.26649 z " /><path style="fill:none;stroke:rgb(217, 95, 2);stroke-width:1mm;" d="M 997.88225, 330.97515 L 929.14574, 370.66019 L 929.14574, 450.03027 L 997.88225, 489.71531 L 1066.61875, 450.03027 L 1066.61875, 370.66019 z " /><path style="fill:none;stroke:rgb(217, 95, 2);stroke-width:1mm;" d="M 847.31657, 330.97515 L 778.58007, 370.66019 L 778.58007, 450.03027 L 847.31657, 489.71531 L 916.05308, 450.03027 L 916.05308, 370.66019 z " /><path style="fill:none;stroke:rgb(217, 95, 2);stroke-width:1mm;" d="M 696.75090, 330.97515 L 628.01439, 370.66019 L 628.01439, 450.03027 L 696.75090, 489.71531 L 765.48740, 450.03027 L 765.48740, 370.66019 z " /><path style="fill:none;stroke:rgb(217, 95, 2);stroke-width:1mm;" d="M 546.18522, 330.97515 L 477.44871, 370.66019 L 477.44871, 450.03027 L 546.18522, 489.71531 L 614.92172, 450.03027 L 614.92172, 370.66019 z " /><path style="fill:none;stroke:rgb(217, 95, 2);stroke-width:1mm;" d="M 395.61954, 330.97515 L 326.88304, 370.66019 L 326.88304, 450.03027 L 395.61954, 489.71531 L 464.35605, 450.03027 L 464.35605, 370.66019 z " /><path style="fill:none;stroke:rgb(217, 95, 2);stroke-width:1mm;" d="M 245.05387, 330.97515 L 176.31736, 370.66019 L 176.31736, 450.03027 L 245.05387, 489.71531 L 313.79037, 450.03027 L 313.79037, 370.66019 z " /><path style="fill:none;stroke:rgb(217, 95, 2);stroke-width:1mm;" d="M 1073.16509, 461.36885 L 1004.42858, 501.05389 L 1004.42858, 580.42397 L 1073.16509, 620.10901 L 1141.90159, 580.42397 L 1141.90159, 501.05389 z " /><path style="fill:none;stroke:rgb(217, 95, 2);stroke-width:1mm;" d="M 922.59941, 461.36885 L 853.86291, 501.05389 L 853.86291, 580.42397 L 922.59941, 620.10901 L 991.33592, 580.42397 L 991.33592, 501.05389 z " /><path style="fill:none;stroke:rgb(217, 95, 2);stroke-width:1mm;" d="M 772.03373, 461.36885 L 703.29723, 501.05389 L 703.29723, 580.42397 L 772.03373, 620.10901 L 840.77024, 580.42397 L 840.77024, 501.05389 z " /><path style="fill:none;stroke:rgb(217, 95, 2);stroke-width:1mm;" d="M 621.46806, 461.36885 L 552.73155, 501.05389 L 552.73155, 580.42397 L 621.46806, 620.10901 L 690.20456, 580.42397 L 690.20456, 501.05389 z " /><path style="fill:none;stroke:rgb(217, 95, 2);stroke-width:1mm;" d="M 470.90238, 461.36885 L 402.16588, 501.05389 L 402.16588, 580.42397 L 470.90238, 620.10901 L 539.63889, 580.42397 L 539.63889, 501.05389 z " /><path style="fill:none;stroke:rgb(217, 95, 2);stroke-width:1mm;" d="M 320.33670, 461.36885 L 251.60020, 501.05389 L 251.60020, 580.42397 L 320.33670, 620.10901 L 389.07321, 580.42397 L 389.07321, 501.05389 z " /><path style="fill:none;stroke:rgb(217, 95, 2);stroke-width:1mm;" d="M 169.77103, 461.36885 L 101.03452, 501.05389 L 101.03452, 580.42397 L 169.77103, 620.10901 L 238.50753, 580.42397 L 238.50753, 501.05389 z " /><path style="fill:none;stroke:rgb(217, 95, 2);stroke-width:1mm;" d="M 997.88225, 591.76255 L 929.14574, 631.44759 L 929.14574, 710.81767 L 997.88225, 750.50271 L 1066.61875, 710.81767 L 1066.61875, 631.44759 z " /><path style="fill:none;stroke:rgb(217, 95, 2);stroke-width:1mm;" d="M 847.31657, 591.76255 L 778.58007, 631.44759 L 778.58007, 710.81767 L 847.31657, 750.50271 L 916.05308, 710.81767 L 916.05308, 631.44759 z " /><path style="fill:none;stroke:rgb(217, 95, 2);stroke-width:1mm;" d="M 696.75090, 591.76255 L 628.01439, 631.44759 L 628.01439, 710.81767 L 696.75090, 750.50271 L 765.48740, 710.81767 L 765.48740, 631.44759 z " /><path style="fill:none;stroke:rgb(217, 95, 2);stroke-width:1mm;" d="M 546.18522, 591.76255 L 477.44871, 631.44759 L 477.44871, 710.81767 L 546.18522, 750.50271 L 614.92172, 710.81767 L 614.92172, 631.44759 z " /><path style="fill:none;stroke:rgb(217, 95, 2);stroke-width:1mm;" d="M 395.61954, 591.76255 L 326.88304, 631.44759 L 326.88304, 710.81767 L 395.61954, 750.50271 L 464.35605, 710.81767 L 464.35605, 631.44759 z " /><path style="fill:none;stroke:rgb(217, 95, 2);stroke-width:1mm;" d="M 245.05387, 591.76255 L 176.31736, 631.44759 L 176.31736, 710.81767 L 245.05387, 750.50271 L 313.79037, 710.81767 L 313.79037, 631.44759 z " /><path style="fill:none;stroke:rgb(217, 95, 2);stroke-width:1mm;" d="M 922.59941, 722.15625 L 853.86291, 761.84129 L 853.86291, 841.21137 L 922.59941, 880.89641 L 991.33592, 841.21137 L 991.33592, 761.84129 z " /><path style="fill:none;stroke:rgb(217, 95, 2);stroke-width:1mm;" d="M 772.03373, 722.15625 L 703.29723, 761.84129 L 703.29723, 841.21137 L 772.03373, 880.89641 L 840.77024, 841.21137 L 840.77024, 761.84129 z " /><path style="fill:none;stroke:rgb(217, 95, 2);stroke-width:1mm;" d="M 621.46806, 722.15625 L 552.73155, 761.84129 L 552.73155, 841.21137 L 621.46806, 880.89641 L 690.20456, 841.21137 L 690.20456, 761.84129 z " /><path style="fill:none;stroke:rgb(217, 95, 2);stroke-width:1mm;" d="M 470.90238, 722.15625 L 402.16588, 761.84129 L 402.16588, 841.21137 L 470.90238, 880.89641 L 539.63889, 841.21137 L 539.63889, 761.84129 z " /><path style="fill:none;stroke:rgb(217, 95, 2);stroke-width:1mm;" d="M 320.33670, 722.15625 L 251.60020, 761.84129 L 251.60020, 841.21137 L 320.33670, 880.89641 L 389.07321, 841.21137 L 389.07321, 761.84129 z " /><path style="fill:none;stroke:rgb(217, 95, 2);stroke-width:1mm;" d="M 847.31657, 852.54995 L 778.58007, 892.23499 L 778.58007, 971.60507 L 847.31657, 1011.29011 L 916.05308, 971.60507 L 916.05308, 892.23499 z " /><path style="fill:none;stroke:rgb(217, 95, 2);stroke-width:1mm;" d="M 696.75090, 852.54995 L 628.01439, 892.23499 L 628.01439, 971.60507 L 696.75090, 1011.29011 L 765.48740, 971.60507 L 765.48740, 892.23499 z " /><path style="fill:none;stroke:rgb(217, 95, 2);stroke-width:1mm;" d="M 546.18522, 852.54995 L 477.44871, 892.23499 L 477.44871, 971.60507 L 546.18522, 1011.29011 L 614.92172, 971.60507 L 614.92172, 892.23499 z " /><path style="fill:none;stroke:rgb(217, 95, 2);stroke-width:1mm;" d="M 395.61954, 852.54995 L 326.88304, 892.23499 L 326.88304, 971.60507 L 395.61954, 1011.29011 L 464.35605, 971.60507 L 464.35605, 892.23499 z " /><path style="fill:none;stroke:rgb(27, 158, 119);stroke-width:1mm;" d="M 922.75327, 18.89764 L 1224.03848, 540.73893 L 922.75327, 1062.58022 L 320.18285, 1062.58022 L 18.89764, 540.73893 L 320.18285, 18.89764 z " />
</svg>