<?xml version="1.0" encoding="utf-8" ?>
<svg baseProfile="full" height="307.19101615137754mm" version="1.1" viewBox="-176.58331317573624,-153.59550807568877,353.1666263514725,307.19101615137754" width="353.1666263514725mm" xmlns="http://www.w3.org/2000/svg" xmlns:ev="http://www.w3.org/2001/xml-events" xmlns:xlink="http://www.w3.org/1999/xlink"><defs /><g><path d="M 58.9428 138.596 L 58.9428 135.596  L 69.6597 135.596  L 69.6597 138.596  z" fill="none" stroke="rgb(217, 95, 2)" /><path d="M 37.5091 138.596 L 37.5091 135.596  L 48.226 135.596  L 48.226 138.596  z" fill="none" stroke="rgb(217, 95, 2)" /><path d="M 16.0753 138.596 L 16.0753 135.596  L 26.7922 135.596  L 26.7922 138.596  z" fill="none" stroke="rgb(217, 95, 2)" /><path d="M -5.35844 138.596 L -5.35844 135.596  L 5.35844 135.596  L 5.35844 138.596  z" fill="none" stroke="rgb(217, 95, 2)" /><path d="M -26.7922 138.596 L -26.7922 135.596  L -16.0753 135.596  L -16.0753 138.596  z" fill="none" stroke="rgb(217, 95, 2)" /><path d="M -48.226 138.596 L -48.226 135.596  L -37.5091 135.596  L -37.5091 138.596  z" fill="none" stroke="rgb(217, 95, 2)" /><path d="M -69.6597 138.596 L -69.6597 135.596  L -58.9428 135.596  L -58.9428 138.596  z" fill="none" stroke="rgb(217, 95, 2)" /><path d="M 82.5993 128.125 L 87.9577 118.844  L 90.5558 120.344  L 85.1974 129.625  z" fill="none" stroke="rgb(217, 95, 2)" /><path d="M -90.5558 120.344 L -87.9577 118.844  L -82.5993 128.125  L -85.1974 129.625  z" fill="none" stroke="rgb(217, 95, 2)" /><path d="M 93.3162 109.563 L 98.6746 100.282  L 101.273 101.782  L 95.9143 111.063  z" fill="none" stroke="rgb(217, 95, 2)" /><path d="M -101.273 101.782 L -98.6746 100.282  L -93.3162 109.563  L -95.9143 111.063  z" fill="none" stroke="rgb(217, 95, 2)" /><path d="M 59.4242 108.911 L 58.8411 108.806  L 58.2746 108.633  L 57.7324 108.394  L 57.2223 108.093  L 56.7514 107.733  L 56.3264 107.321  L 55.9531 106.861  L 55.6369 106.36  L 55.3821 105.825  L 55.1924 105.264  L 55.0704 104.684  L 55.0178 104.094  L 55.0353 103.502  L 55.1228 102.916  L 55.2789 102.344  L 55.5016 101.795  L 55.7876 101.276  L 56.1329 100.795  L 56.5328 100.358  L 56.9816 99.9713  L 57.4729 99.6404  L 57.9999 99.3699  L 58.5553 99.1636  L 59.1311 99.0245  L 59.7194 98.9544  L 60.3118 98.9544  L 60.9 99.0245  L 61.4758 99.1636  L 62.0312 99.3699  L 62.5582 99.6404  L 63.0496 99.9713  L 63.4983 100.358  L 63.8982 100.795  L 64.2435 101.276  L 64.5295 101.795  L 64.7522 102.344  L 64.9083 102.916  L 64.9958 103.502  L 65.0134 104.094  L 64.9608 104.684  L 64.8387 105.264  L 64.649 105.825  L 64.3942 106.36  L 64.078 106.861  L 63.7047 107.321  L 63.2797 107.733  L 62.8088 108.093  L 62.2987 108.394  L 61.7566 108.633  L 61.19 108.806  L 60.6069 108.911  L 60.0156 108.946  z" fill="none" stroke="rgb(217, 95, 2)" /><path d="M 19.4138 108.911 L 18.8308 108.806  L 18.2642 108.633  L 17.722 108.394  L 17.212 108.093  L 16.7411 107.733  L 16.316 107.321  L 15.9428 106.861  L 15.6265 106.36  L 15.3717 105.825  L 15.182 105.264  L 15.06 104.684  L 15.0074 104.094  L 15.0249 103.502  L 15.1124 102.916  L 15.2686 102.344  L 15.4912 101.795  L 15.7772 101.276  L 16.1226 100.795  L 16.5224 100.358  L 16.9712 99.9713  L 17.4625 99.6404  L 17.9896 99.3699  L 18.5449 99.1636  L 19.1207 99.0245  L 19.709 98.9544  L 20.3014 98.9544  L 20.8896 99.0245  L 21.4655 99.1636  L 22.0208 99.3699  L 22.5478 99.6404  L 23.0392 99.9713  L 23.4879 100.358  L 23.8878 100.795  L 24.2332 101.276  L 24.5192 101.795  L 24.7418 102.344  L 24.898 102.916  L 24.9854 103.502  L 25.003 104.094  L 24.9504 104.684  L 24.8284 105.264  L 24.6386 105.825  L 24.3839 106.36  L 24.0676 106.861  L 23.6944 107.321  L 23.2693 107.733  L 22.7984 108.093  L 22.2883 108.394  L 21.7462 108.633  L 21.1796 108.806  L 20.5966 108.911  L 20.0052 108.946  z" fill="none" stroke="rgb(217, 95, 2)" /><path d="M -20.5966 108.911 L -21.1796 108.806  L -21.7462 108.633  L -22.2883 108.394  L -22.7984 108.093  L -23.2693 107.733  L -23.6944 107.321  L -24.0676 106.861  L -24.3839 106.36  L -24.6386 105.825  L -24.8284 105.264  L -24.9504 104.684  L -25.003 104.094  L -24.9854 103.502  L -24.898 102.916  L -24.7418 102.344  L -24.5192 101.795  L -24.2332 101.276  L -23.8878 100.795  L -23.4879 100.358  L -23.0392 99.9713  L -22.5478 99.6404  L -22.0208 99.3699  L -21.4655 99.1636  L -20.8896 99.0245  L -20.3014 98.9544  L -19.709 98.9544  L -19.1207 99.0245  L -18.5449 99.1636  L -17.9896 99.3699  L -17.4625 99.6404  L -16.9712 99.9713  L -16.5224 100.358  L -16.1226 100.795  L -15.7772 101.276  L -15.4912 101.795  L -15.2686 102.344  L -15.1124 102.916  L -15.0249 103.502  L -15.0074 104.094  L -15.06 104.684  L -15.182 105.264  L -15.3717 105.825  L -15.6265 106.36  L -15.9428 106.861  L -16.316 107.321  L -16.7411 107.733  L -17.212 108.093  L -17.722 108.394  L -18.2642 108.633  L -18.8308 108.806  L -19.4138 108.911  L -20.0052 108.946  z" fill="none" stroke="rgb(217, 95, 2)" /><path d="M -60.6069 108.911 L -61.19 108.806  L -61.7566 108.633  L -62.2987 108.394  L -62.8088 108.093  L -63.2797 107.733  L -63.7047 107.321  L -64.078 106.861  L -64.3942 106.36  L -64.649 105.825  L -64.8387 105.264  L -64.9608 104.684  L -65.0134 104.094  L -64.9958 103.502  L -64.9083 102.916  L -64.7522 102.344  L -64.5295 101.795  L -64.2435 101.276  L -63.8982 100.795  L -63.4983 100.358  L -63.0496 99.9713  L -62.5582 99.6404  L -62.0312 99.3699  L -61.4758 99.1636  L -60.9 99.0245  L -60.3118 98.9544  L -59.7194 98.9544  L -59.1311 99.0245  L -58.5553 99.1636  L -57.9999 99.3699  L -57.4729 99.6404  L -56.9816 99.9713  L -56.5328 100.358  L -56.1329 100.795  L -55.7876 101.276  L -55.5016 101.795  L -55.2789 102.344  L -55.1228 102.916  L -55.0353 103.502  L -55.0178 104.094  L -55.0704 104.684  L -55.1924 105.264  L -55.3821 105.825  L -55.6369 106.36  L -55.9531 106.861  L -56.3264 107.321  L -56.7514 107.733  L -57.2223 108.093  L -57.7324 108.394  L -58.2746 108.633  L -58.8411 108.806  L -59.4242 108.911  L -60.0156 108.946  z" fill="none" stroke="rgb(217, 95, 2)" /><path d="M 104.033 91.0005 L 109.391 81.7194  L 111.99 83.2194  L 106.631 92.5005  z" fill="none" stroke="rgb(217, 95, 2)" /><path d="M -111.99 83.2194 L -109.391 81.7194  L -104.033 91.0005  L -106.631 92.5005  z" fill="none" stroke="rgb(217, 95, 2)" /><path d="M 79.4294 74.2605 L 78.8463 74.1557  L 78.2797 73.9827  L 77.7376 73.7439  L 77.2275 73.4426  L 76.7566 73.0832  L 76.3316 72.6705  L 75.9583 72.2105  L 75.6421 71.7096  L 75.3873 71.1747  L 75.1976 70.6135  L 75.0755 70.0338  L 75.0229 69.4438  L 75.0405 68.8516  L 75.128 68.2657  L 75.2841 67.6943  L 75.5068 67.1453  L 75.7928 66.6265  L 76.1381 66.1452  L 76.538 65.7081  L 76.9867 65.3213  L 77.4781 64.9904  L 78.0051 64.7199  L 78.5605 64.5136  L 79.1363 64.3745  L 79.7245 64.3044  L 80.317 64.3044  L 80.9052 64.3745  L 81.481 64.5136  L 82.0364 64.7199  L 82.5634 64.9904  L 83.0547 65.3213  L 83.5035 65.7081  L 83.9034 66.1452  L 84.2487 66.6265  L 84.5347 67.1453  L 84.7574 67.6943  L 84.9135 68.2657  L 85.001 68.8516  L 85.0186 69.4438  L 84.9659 70.0338  L 84.8439 70.6135  L 84.6542 71.1747  L 84.3994 71.7096  L 84.0832 72.2105  L 83.7099 72.6705  L 83.2849 73.0832  L 82.814 73.4426  L 82.3039 73.7439  L 81.7618 73.9827  L 81.1952 74.1557  L 80.6121 74.2605  L 80.0207 74.2956  z" fill="none" stroke="rgb(217, 95, 2)" /><path d="M 39.419 74.2605 L 38.8359 74.1557  L 38.2694 73.9827  L 37.7272 73.7439  L 37.2171 73.4426  L 36.7463 73.0832  L 36.3212 72.6705  L 35.9479 72.2105  L 35.6317 71.7096  L 35.3769 71.1747  L 35.1872 70.6135  L 35.0652 70.0338  L 35.0126 69.4438  L 35.0301 68.8516  L 35.1176 68.2657  L 35.2737 67.6943  L 35.4964 67.1453  L 35.7824 66.6265  L 36.1278 66.1452  L 36.5276 65.7081  L 36.9764 65.3213  L 37.4677 64.9904  L 37.9948 64.7199  L 38.5501 64.5136  L 39.1259 64.3745  L 39.7142 64.3044  L 40.3066 64.3044  L 40.8948 64.3745  L 41.4707 64.5136  L 42.026 64.7199  L 42.553 64.9904  L 43.0444 65.3213  L 43.4931 65.7081  L 43.893 66.1452  L 44.2384 66.6265  L 44.5244 67.1453  L 44.747 67.6943  L 44.9032 68.2657  L 44.9906 68.8516  L 45.0082 69.4438  L 44.9556 70.0338  L 44.8336 70.6135  L 44.6438 71.1747  L 44.389 71.7096  L 44.0728 72.2105  L 43.6995 72.6705  L 43.2745 73.0832  L 42.8036 73.4426  L 42.2935 73.7439  L 41.7514 73.9827  L 41.1848 74.1557  L 40.6017 74.2605  L 40.0104 74.2956  z" fill="none" stroke="rgb(217, 95, 2)" /><path d="M -0.591366 74.2605 L -1.17443 74.1557  L -1.74101 73.9827  L -2.28315 73.7439  L -2.79323 73.4426  L -3.26411 73.0832  L -3.68917 72.6705  L -4.06243 72.2105  L -4.37867 71.7096  L -4.63345 71.1747  L -4.82318 70.6135  L -4.9452 70.0338  L -4.9978 69.4438  L -4.98025 68.8516  L -4.89278 68.2657  L -4.73663 67.6943  L -4.51399 67.1453  L -4.22798 66.6265  L -3.88262 66.1452  L -3.48276 65.7081  L -3.034 65.3213  L -2.54266 64.9904  L -2.01562 64.7199  L -1.46028 64.5136  L -0.884451 64.3745  L -0.296203 64.3044  L 0.296203 64.3044  L 0.884451 64.3745  L 1.46028 64.5136  L 2.01562 64.7199  L 2.54266 64.9904  L 3.034 65.3213  L 3.48276 65.7081  L 3.88262 66.1452  L 4.22798 66.6265  L 4.51399 67.1453  L 4.73663 67.6943  L 4.89278 68.2657  L 4.98025 68.8516  L 4.9978 69.4438  L 4.9452 70.0338  L 4.82318 70.6135  L 4.63345 71.1747  L 4.37867 71.7096  L 4.06243 72.2105  L 3.68917 72.6705  L 3.26411 73.0832  L 2.79323 73.4426  L 2.28315 73.7439  L 1.74101 73.9827  L 1.17443 74.1557  L 0.591366 74.2605  L -0 74.2956  z" fill="none" stroke="rgb(217, 95, 2)" /><path d="M -40.6017 74.2605 L -41.1848 74.1557  L -41.7514 73.9827  L -42.2935 73.7439  L -42.8036 73.4426  L -43.2745 73.0832  L -43.6995 72.6705  L -44.0728 72.2105  L -44.389 71.7096  L -44.6438 71.1747  L -44.8336 70.6135  L -44.9556 70.0338  L -45.0082 69.4438  L -44.9906 68.8516  L -44.9032 68.2657  L -44.747 67.6943  L -44.5244 67.1453  L -44.2384 66.6265  L -43.893 66.1452  L -43.4931 65.7081  L -43.0444 65.3213  L -42.553 64.9904  L -42.026 64.7199  L -41.4707 64.5136  L -40.8948 64.3745  L -40.3066 64.3044  L -39.7142 64.3044  L -39.1259 64.3745  L -38.5501 64.5136  L -37.9948 64.7199  L -37.4677 64.9904  L -36.9764 65.3213  L -36.5276 65.7081  L -36.1278 66.1452  L -35.7824 66.6265  L -35.4964 67.1453  L -35.2737 67.6943  L -35.1176 68.2657  L -35.0301 68.8516  L -35.0126 69.4438  L -35.0652 70.0338  L -35.1872 70.6135  L -35.3769 71.1747  L -35.6317 71.7096  L -35.9479 72.2105  L -36.3212 72.6705  L -36.7463 73.0832  L -37.2171 73.4426  L -37.7272 73.7439  L -38.2694 73.9827  L -38.8359 74.1557  L -39.419 74.2605  L -40.0104 74.2956  z" fill="none" stroke="rgb(217, 95, 2)" /><path d="M -80.6121 74.2605 L -81.1952 74.1557  L -81.7618 73.9827  L -82.3039 73.7439  L -82.814 73.4426  L -83.2849 73.0832  L -83.7099 72.6705  L -84.0832 72.2105  L -84.3994 71.7096  L -84.6542 71.1747  L -84.8439 70.6135  L -84.9659 70.0338  L -85.0186 69.4438  L -85.001 68.8516  L -84.9135 68.2657  L -84.7574 67.6943  L -84.5347 67.1453  L -84.2487 66.6265  L -83.9034 66.1452  L -83.5035 65.7081  L -83.0547 65.3213  L -82.5634 64.9904  L -82.0364 64.7199  L -81.481 64.5136  L -80.9052 64.3745  L -80.317 64.3044  L -79.7245 64.3044  L -79.1363 64.3745  L -78.5605 64.5136  L -78.0051 64.7199  L -77.4781 64.9904  L -76.9867 65.3213  L -76.538 65.7081  L -76.1381 66.1452  L -75.7928 66.6265  L -75.5068 67.1453  L -75.2841 67.6943  L -75.128 68.2657  L -75.0405 68.8516  L -75.0229 69.4438  L -75.0755 70.0338  L -75.1976 70.6135  L -75.3873 71.1747  L -75.6421 71.7096  L -75.9583 72.2105  L -76.3316 72.6705  L -76.7566 73.0832  L -77.2275 73.4426  L -77.7376 73.7439  L -78.2797 73.9827  L -78.8463 74.1557  L -79.4294 74.2605  L -80.0207 74.2956  z" fill="none" stroke="rgb(217, 95, 2)" /><path d="M 114.75 72.4383 L 120.108 63.1572  L 122.706 64.6572  L 117.348 73.9383  z" fill="none" stroke="rgb(217, 95, 2)" /><path d="M -122.706 64.6572 L -120.108 63.1572  L -114.75 72.4383  L -117.348 73.9383  z" fill="none" stroke="rgb(217, 95, 2)" /><path d="M 125.467 53.8761 L 130.825 44.595  L 133.423 46.095  L 128.065 55.3761  z" fill="none" stroke="rgb(217, 95, 2)" /><path d="M -133.423 46.095 L -130.825 44.595  L -125.467 53.8761  L -128.065 55.3761  z" fill="none" stroke="rgb(217, 95, 2)" /><path d="M 99.4346 39.6105 L 98.8515 39.5057  L 98.2849 39.3327  L 97.7428 39.0939  L 97.2327 38.7926  L 96.7618 38.4332  L 96.3368 38.0205  L 95.9635 37.5605  L 95.6473 37.0596  L 95.3925 36.5247  L 95.2028 35.9635  L 95.0807 35.3838  L 95.0281 34.7938  L 95.0457 34.2016  L 95.1332 33.6157  L 95.2893 33.0443  L 95.5119 32.4953  L 95.798 31.9765  L 96.1433 31.4952  L 96.5432 31.0581  L 96.9919 30.6713  L 97.4833 30.3404  L 98.0103 30.0699  L 98.5657 29.8636  L 99.1415 29.7245  L 99.7297 29.6544  L 100.322 29.6544  L 100.91 29.7245  L 101.486 29.8636  L 102.042 30.0699  L 102.569 30.3404  L 103.06 30.6713  L 103.509 31.0581  L 103.909 31.4952  L 104.254 31.9765  L 104.54 32.4953  L 104.763 33.0443  L 104.919 33.6157  L 105.006 34.2016  L 105.024 34.7938  L 104.971 35.3838  L 104.849 35.9635  L 104.659 36.5247  L 104.405 37.0596  L 104.088 37.5605  L 103.715 38.0205  L 103.29 38.4332  L 102.819 38.7926  L 102.309 39.0939  L 101.767 39.3327  L 101.2 39.5057  L 100.617 39.6105  L 100.026 39.6456  z" fill="none" stroke="rgb(217, 95, 2)" /><path d="M 59.4242 39.6105 L 58.8411 39.5057  L 58.2746 39.3327  L 57.7324 39.0939  L 57.2223 38.7926  L 56.7514 38.4332  L 56.3264 38.0205  L 55.9531 37.5605  L 55.6369 37.0596  L 55.3821 36.5247  L 55.1924 35.9635  L 55.0704 35.3838  L 55.0178 34.7938  L 55.0353 34.2016  L 55.1228 33.6157  L 55.2789 33.0443  L 55.5016 32.4953  L 55.7876 31.9765  L 56.1329 31.4952  L 56.5328 31.0581  L 56.9816 30.6713  L 57.4729 30.3404  L 57.9999 30.0699  L 58.5553 29.8636  L 59.1311 29.7245  L 59.7194 29.6544  L 60.3118 29.6544  L 60.9 29.7245  L 61.4758 29.8636  L 62.0312 30.0699  L 62.5582 30.3404  L 63.0496 30.6713  L 63.4983 31.0581  L 63.8982 31.4952  L 64.2435 31.9765  L 64.5295 32.4953  L 64.7522 33.0443  L 64.9083 33.6157  L 64.9958 34.2016  L 65.0134 34.7938  L 64.9608 35.3838  L 64.8387 35.9635  L 64.649 36.5247  L 64.3942 37.0596  L 64.078 37.5605  L 63.7047 38.0205  L 63.2797 38.4332  L 62.8088 38.7926  L 62.2987 39.0939  L 61.7566 39.3327  L 61.19 39.5057  L 60.6069 39.6105  L 60.0156 39.6456  z" fill="none" stroke="rgb(217, 95, 2)" /><path d="M 19.4138 39.6105 L 18.8308 39.5057  L 18.2642 39.3327  L 17.722 39.0939  L 17.212 38.7926  L 16.7411 38.4332  L 16.316 38.0205  L 15.9428 37.5605  L 15.6265 37.0596  L 15.3717 36.5247  L 15.182 35.9635  L 15.06 35.3838  L 15.0074 34.7938  L 15.0249 34.2016  L 15.1124 33.6157  L 15.2686 33.0443  L 15.4912 32.4953  L 15.7772 31.9765  L 16.1226 31.4952  L 16.5224 31.0581  L 16.9712 30.6713  L 17.4625 30.3404  L 17.9896 30.0699  L 18.5449 29.8636  L 19.1207 29.7245  L 19.709 29.6544  L 20.3014 29.6544  L 20.8896 29.7245  L 21.4655 29.8636  L 22.0208 30.0699  L 22.5478 30.3404  L 23.0392 30.6713  L 23.4879 31.0581  L 23.8878 31.4952  L 24.2332 31.9765  L 24.5192 32.4953  L 24.7418 33.0443  L 24.898 33.6157  L 24.9854 34.2016  L 25.003 34.7938  L 24.9504 35.3838  L 24.8284 35.9635  L 24.6386 36.5247  L 24.3839 37.0596  L 24.0676 37.5605  L 23.6944 38.0205  L 23.2693 38.4332  L 22.7984 38.7926  L 22.2883 39.0939  L 21.7462 39.3327  L 21.1796 39.5057  L 20.5966 39.6105  L 20.0052 39.6456  z" fill="none" stroke="rgb(217, 95, 2)" /><path d="M -20.5966 39.6105 L -21.1796 39.5057  L -21.7462 39.3327  L -22.2883 39.0939  L -22.7984 38.7926  L -23.2693 38.4332  L -23.6944 38.0205  L -24.0676 37.5605  L -24.3839 37.0596  L -24.6386 36.5247  L -24.8284 35.9635  L -24.9504 35.3838  L -25.003 34.7938  L -24.9854 34.2016  L -24.898 33.6157  L -24.7418 33.0443  L -24.5192 32.4953  L -24.2332 31.9765  L -23.8878 31.4952  L -23.4879 31.0581  L -23.0392 30.6713  L -22.5478 30.3404  L -22.0208 30.0699  L -21.4655 29.8636  L -20.8896 29.7245  L -20.3014 29.6544  L -19.709 29.6544  L -19.1207 29.7245  L -18.5449 29.8636  L -17.9896 30.0699  L -17.4625 30.3404  L -16.9712 30.6713  L -16.5224 31.0581  L -16.1226 31.4952  L -15.7772 31.9765  L -15.4912 32.4953  L -15.2686 33.0443  L -15.1124 33.6157  L -15.0249 34.2016  L -15.0074 34.7938  L -15.06 35.3838  L -15.182 35.9635  L -15.3717 36.5247  L -15.6265 37.0596  L -15.9428 37.5605  L -16.316 38.0205  L -16.7411 38.4332  L -17.212 38.7926  L -17.722 39.0939  L -18.2642 39.3327  L -18.8308 39.5057  L -19.4138 39.6105  L -20.0052 39.6456  z" fill="none" stroke="rgb(217, 95, 2)" /><path d="M -60.6069 39.6105 L -61.19 39.5057  L -61.7566 39.3327  L -62.2987 39.0939  L -62.8088 38.7926  L -63.2797 38.4332  L -63.7047 38.0205  L -64.078 37.5605  L -64.3942 37.0596  L -64.649 36.5247  L -64.8387 35.9635  L -64.9608 35.3838  L -65.0134 34.7938  L -64.9958 34.2016  L -64.9083 33.6157  L -64.7522 33.0443  L -64.5295 32.4953  L -64.2435 31.9765  L -63.8982 31.4952  L -63.4983 31.0581  L -63.0496 30.6713  L -62.5582 30.3404  L -62.0312 30.0699  L -61.4758 29.8636  L -60.9 29.7245  L -60.3118 29.6544  L -59.7194 29.6544  L -59.1311 29.7245  L -58.5553 29.8636  L -57.9999 30.0699  L -57.4729 30.3404  L -56.9816 30.6713  L -56.5328 31.0581  L -56.1329 31.4952  L -55.7876 31.9765  L -55.5016 32.4953  L -55.2789 33.0443  L -55.1228 33.6157  L -55.0353 34.2016  L -55.0178 34.7938  L -55.0704 35.3838  L -55.1924 35.9635  L -55.3821 36.5247  L -55.6369 37.0596  L -55.9531 37.5605  L -56.3264 38.0205  L -56.7514 38.4332  L -57.2223 38.7926  L -57.7324 39.0939  L -58.2746 39.3327  L -58.8411 39.5057  L -59.4242 39.6105  L -60.0156 39.6456  z" fill="none" stroke="rgb(217, 95, 2)" /><path d="M -100.617 39.6105 L -101.2 39.5057  L -101.767 39.3327  L -102.309 39.0939  L -102.819 38.7926  L -103.29 38.4332  L -103.715 38.0205  L -104.088 37.5605  L -104.405 37.0596  L -104.659 36.5247  L -104.849 35.9635  L -104.971 35.3838  L -105.024 34.7938  L -105.006 34.2016  L -104.919 33.6157  L -104.763 33.0443  L -104.54 32.4953  L -104.254 31.9765  L -103.909 31.4952  L -103.509 31.0581  L -103.06 30.6713  L -102.569 30.3404  L -102.042 30.0699  L -101.486 29.8636  L -100.91 29.7245  L -100.322 29.6544  L -99.7297 29.6544  L -99.1415 29.7245  L -98.5657 29.8636  L -98.0103 30.0699  L -97.4833 30.3404  L -96.9919 30.6713  L -96.5432 31.0581  L -96.1433 31.4952  L -95.798 31.9765  L -95.5119 32.4953  L -95.2893 33.0443  L -95.1332 33.6157  L -95.0457 34.2016  L -95.0281 34.7938  L -95.0807 35.3838  L -95.2028 35.9635  L -95.3925 36.5247  L -95.6473 37.0596  L -95.9635 37.5605  L -96.3368 38.0205  L -96.7618 38.4332  L -97.2327 38.7926  L -97.7428 39.0939  L -98.2849 39.3327  L -98.8515 39.5057  L -99.4346 39.6105  L -100.026 39.6456  z" fill="none" stroke="rgb(217, 95, 2)" /><path d="M 136.184 35.3139 L 141.542 26.0329  L 144.14 27.5329  L 138.782 36.8139  z" fill="none" stroke="rgb(217, 95, 2)" /><path d="M -144.14 27.5329 L -141.542 26.0329  L -136.184 35.3139  L -138.782 36.8139  z" fill="none" stroke="rgb(217, 95, 2)" /><path d="M 146.901 16.7518 L 152.259 7.47067  L 154.857 8.97067  L 149.499 18.2518  z" fill="none" stroke="rgb(217, 95, 2)" /><path d="M -154.857 8.97067 L -152.259 7.47067  L -146.901 16.7518  L -149.499 18.2518  z" fill="none" stroke="rgb(217, 95, 2)" /><path d="M 119.44 4.96051 L 118.857 4.85572  L 118.29 4.68271  L 117.748 4.44389  L 117.238 4.14264  L 116.767 3.78317  L 116.342 3.37052  L 115.969 2.91051  L 115.652 2.40957  L 115.398 1.87475  L 115.208 1.31355  L 115.086 0.733842  L 115.033 0.143776  L 115.051 -0.44837  L 115.138 -1.03428  L 115.294 -1.60574  L 115.517 -2.15472  L 115.803 -2.67351  L 116.149 -3.15483  L 116.548 -3.59193  L 116.997 -3.97866  L 117.488 -4.30961  L 118.016 -4.58012  L 118.571 -4.7864  L 119.147 -4.92554  L 119.735 -4.99561  L 120.327 -4.99561  L 120.916 -4.92554  L 121.491 -4.7864  L 122.047 -4.58012  L 122.574 -4.30961  L 123.065 -3.97866  L 123.514 -3.59193  L 123.914 -3.15483  L 124.259 -2.67351  L 124.545 -2.15472  L 124.768 -1.60574  L 124.924 -1.03428  L 125.011 -0.44837  L 125.029 0.143776  L 124.976 0.733842  L 124.854 1.31355  L 124.665 1.87475  L 124.41 2.40957  L 124.094 2.91051  L 123.72 3.37052  L 123.295 3.78317  L 122.824 4.14264  L 122.314 4.44389  L 121.772 4.68271  L 121.206 4.85572  L 120.622 4.96051  L 120.031 4.99561  z" fill="none" stroke="rgb(217, 95, 2)" /><path d="M 79.4294 4.96051 L 78.8463 4.85572  L 78.2797 4.68271  L 77.7376 4.44389  L 77.2275 4.14264  L 76.7566 3.78317  L 76.3316 3.37052  L 75.9583 2.91051  L 75.6421 2.40957  L 75.3873 1.87475  L 75.1976 1.31355  L 75.0755 0.733842  L 75.0229 0.143776  L 75.0405 -0.44837  L 75.128 -1.03428  L 75.2841 -1.60574  L 75.5068 -2.15472  L 75.7928 -2.67351  L 76.1381 -3.15483  L 76.538 -3.59193  L 76.9867 -3.97866  L 77.4781 -4.30961  L 78.0051 -4.58012  L 78.5605 -4.7864  L 79.1363 -4.92554  L 79.7245 -4.99561  L 80.317 -4.99561  L 80.9052 -4.92554  L 81.481 -4.7864  L 82.0364 -4.58012  L 82.5634 -4.30961  L 83.0547 -3.97866  L 83.5035 -3.59193  L 83.9034 -3.15483  L 84.2487 -2.67351  L 84.5347 -2.15472  L 84.7574 -1.60574  L 84.9135 -1.03428  L 85.001 -0.44837  L 85.0186 0.143776  L 84.9659 0.733842  L 84.8439 1.31355  L 84.6542 1.87475  L 84.3994 2.40957  L 84.0832 2.91051  L 83.7099 3.37052  L 83.2849 3.78317  L 82.814 4.14264  L 82.3039 4.44389  L 81.7618 4.68271  L 81.1952 4.85572  L 80.6121 4.96051  L 80.0207 4.99561  z" fill="none" stroke="rgb(217, 95, 2)" /><path d="M 39.419 4.96051 L 38.8359 4.85572  L 38.2694 4.68271  L 37.7272 4.44389  L 37.2171 4.14264  L 36.7463 3.78317  L 36.3212 3.37052  L 35.9479 2.91051  L 35.6317 2.40957  L 35.3769 1.87475  L 35.1872 1.31355  L 35.0652 0.733842  L 35.0126 0.143776  L 35.0301 -0.44837  L 35.1176 -1.03428  L 35.2737 -1.60574  L 35.4964 -2.15472  L 35.7824 -2.67351  L 36.1278 -3.15483  L 36.5276 -3.59193  L 36.9764 -3.97866  L 37.4677 -4.30961  L 37.9948 -4.58012  L 38.5501 -4.7864  L 39.1259 -4.92554  L 39.7142 -4.99561  L 40.3066 -4.99561  L 40.8948 -4.92554  L 41.4707 -4.7864  L 42.026 -4.58012  L 42.553 -4.30961  L 43.0444 -3.97866  L 43.4931 -3.59193  L 43.893 -3.15483  L 44.2384 -2.67351  L 44.5244 -2.15472  L 44.747 -1.60574  L 44.9032 -1.03428  L 44.9906 -0.44837  L 45.0082 0.143776  L 44.9556 0.733842  L 44.8336 1.31355  L 44.6438 1.87475  L 44.389 2.40957  L 44.0728 2.91051  L 43.6995 3.37052  L 43.2745 3.78317  L 42.8036 4.14264  L 42.2935 4.44389  L 41.7514 4.68271  L 41.1848 4.85572  L 40.6017 4.96051  L 40.0104 4.99561  z" fill="none" stroke="rgb(217, 95, 2)" /><path d="M -0.591366 4.96051 L -1.17443 4.85572  L -1.74101 4.68271  L -2.28315 4.44389  L -2.79323 4.14264  L -3.26411 3.78317  L -3.68917 3.37052  L -4.06243 2.91051  L -4.37867 2.40957  L -4.63345 1.87475  L -4.82318 1.31355  L -4.9452 0.733842  L -4.9978 0.143776  L -4.98025 -0.44837  L -4.89278 -1.03428  L -4.73663 -1.60574  L -4.51399 -2.15472  L -4.22798 -2.67351  L -3.88262 -3.15483  L -3.48276 -3.59193  L -3.034 -3.97866  L -2.54266 -4.30961  L -2.01562 -4.58012  L -1.46028 -4.7864  L -0.884451 -4.92554  L -0.296203 -4.99561  L 0.296203 -4.99561  L 0.884451 -4.92554  L 1.46028 -4.7864  L 2.01562 -4.58012  L 2.54266 -4.30961  L 3.034 -3.97866  L 3.48276 -3.59193  L 3.88262 -3.15483  L 4.22798 -2.67351  L 4.51399 -2.15472  L 4.73663 -1.60574  L 4.89278 -1.03428  L 4.98025 -0.44837  L 4.9978 0.143776  L 4.9452 0.733842  L 4.82318 1.31355  L 4.63345 1.87475  L 4.37867 2.40957  L 4.06243 2.91051  L 3.68917 3.37052  L 3.26411 3.78317  L 2.79323 4.14264  L 2.28315 4.44389  L 1.74101 4.68271  L 1.17443 4.85572  L 0.591366 4.96051  L -1.49664e-14 4.99561  z" fill="none" stroke="rgb(217, 95, 2)" /><path d="M -40.6017 4.96051 L -41.1848 4.85572  L -41.7514 4.68271  L -42.2935 4.44389  L -42.8036 4.14264  L -43.2745 3.78317  L -43.6995 3.37052  L -44.0728 2.91051  L -44.389 2.40957  L -44.6438 1.87475  L -44.8336 1.31355  L -44.9556 0.733842  L -45.0082 0.143776  L -44.9906 -0.44837  L -44.9032 -1.03428  L -44.747 -1.60574  L -44.5244 -2.15472  L -44.2384 -2.67351  L -43.893 -3.15483  L -43.4931 -3.59193  L -43.0444 -3.97866  L -42.553 -4.30961  L -42.026 -4.58012  L -41.4707 -4.7864  L -40.8948 -4.92554  L -40.3066 -4.99561  L -39.7142 -4.99561  L -39.1259 -4.92554  L -38.5501 -4.7864  L -37.9948 -4.58012  L -37.4677 -4.30961  L -36.9764 -3.97866  L -36.5276 -3.59193  L -36.1278 -3.15483  L -35.7824 -2.67351  L -35.4964 -2.15472  L -35.2737 -1.60574  L -35.1176 -1.03428  L -35.0301 -0.44837  L -35.0126 0.143776  L -35.0652 0.733842  L -35.1872 1.31355  L -35.3769 1.87475  L -35.6317 2.40957  L -35.9479 2.91051  L -36.3212 3.37052  L -36.7463 3.78317  L -37.2171 4.14264  L -37.7272 4.44389  L -38.2694 4.68271  L -38.8359 4.85572  L -39.419 4.96051  L -40.0104 4.99561  z" fill="none" stroke="rgb(217, 95, 2)" /><path d="M -80.6121 4.96051 L -81.1952 4.85572  L -81.7618 4.68271  L -82.3039 4.44389  L -82.814 4.14264  L -83.2849 3.78317  L -83.7099 3.37052  L -84.0832 2.91051  L -84.3994 2.40957  L -84.6542 1.87475  L -84.8439 1.31355  L -84.9659 0.733842  L -85.0186 0.143776  L -85.001 -0.44837  L -84.9135 -1.03428  L -84.7574 -1.60574  L -84.5347 -2.15472  L -84.2487 -2.67351  L -83.9034 -3.15483  L -83.5035 -3.59193  L -83.0547 -3.97866  L -82.5634 -4.30961  L -82.0364 -4.58012  L -81.481 -4.7864  L -80.9052 -4.92554  L -80.317 -4.99561  L -79.7245 -4.99561  L -79.1363 -4.92554  L -78.5605 -4.7864  L -78.0051 -4.58012  L -77.4781 -4.30961  L -76.9867 -3.97866  L -76.538 -3.59193  L -76.1381 -3.15483  L -75.7928 -2.67351  L -75.5068 -2.15472  L -75.2841 -1.60574  L -75.128 -1.03428  L -75.0405 -0.44837  L -75.0229 0.143776  L -75.0755 0.733842  L -75.1976 1.31355  L -75.3873 1.87475  L -75.6421 2.40957  L -75.9583 2.91051  L -76.3316 3.37052  L -76.7566 3.78317  L -77.2275 4.14264  L -77.7376 4.44389  L -78.2797 4.68271  L -78.8463 4.85572  L -79.4294 4.96051  L -80.0207 4.99561  z" fill="none" stroke="rgb(217, 95, 2)" /><path d="M -120.622 4.96051 L -121.206 4.85572  L -121.772 4.68271  L -122.314 4.44389  L -122.824 4.14264  L -123.295 3.78317  L -123.72 3.37052  L -124.094 2.91051  L -124.41 2.40957  L -124.665 1.87475  L -124.854 1.31355  L -124.976 0.733842  L -125.029 0.143776  L -125.011 -0.44837  L -124.924 -1.03428  L -124.768 -1.60574  L -124.545 -2.15472  L -124.259 -2.67351  L -123.914 -3.15483  L -123.514 -3.59193  L -123.065 -3.97866  L -122.574 -4.30961  L -122.047 -4.58012  L -121.491 -4.7864  L -120.916 -4.92554  L -120.327 -4.99561  L -119.735 -4.99561  L -119.147 -4.92554  L -118.571 -4.7864  L -118.016 -4.58012  L -117.488 -4.30961  L -116.997 -3.97866  L -116.548 -3.59193  L -116.149 -3.15483  L -115.803 -2.67351  L -115.517 -2.15472  L -115.294 -1.60574  L -115.138 -1.03428  L -115.051 -0.44837  L -115.033 0.143776  L -115.086 0.733842  L -115.208 1.31355  L -115.398 1.87475  L -115.652 2.40957  L -115.969 2.91051  L -116.342 3.37052  L -116.767 3.78317  L -117.238 4.14264  L -117.748 4.44389  L -118.29 4.68271  L -118.857 4.85572  L -119.44 4.96051  L -120.031 4.99561  z" fill="none" stroke="rgb(217, 95, 2)" /><path d="M 146.901 -16.7518 L 149.499 -18.2518  L 154.857 -8.97067  L 152.259 -7.47067  z" fill="none" stroke="rgb(217, 95, 2)" /><path d="M -154.857 -8.97067 L -149.499 -18.2518  L -146.901 -16.7518  L -152.259 -7.47067  z" fill="none" stroke="rgb(217, 95, 2)" /><path d="M 136.184 -35.3139 L 138.782 -36.8139  L 144.14 -27.5329  L 141.542 -26.0329  z" fill="none" stroke="rgb(217, 95, 2)" /><path d="M -144.14 -27.5329 L -138.782 -36.8139  L -136.184 -35.3139  L -141.542 -26.0329  z" fill="none" stroke="rgb(217, 95, 2)" /><path d="M 99.4346 -29.6895 L 98.8515 -29.7943  L 98.2849 -29.9673  L 97.7428 -30.2061  L 97.2327 -30.5074  L 96.7618 -30.8668  L 96.3368 -31.2795  L 95.9635 -31.7395  L 95.6473 -32.2404  L 95.3925 -32.7753  L 95.2028 -33.3365  L 95.0807 -33.9162  L 95.0281 -34.5062  L 95.0457 -35.0984  L 95.1332 -35.6843  L 95.2893 -36.2557  L 95.5119 -36.8047  L 95.798 -37.3235  L 96.1433 -37.8048  L 96.5432 -38.2419  L 96.9919 -38.6287  L 97.4833 -38.9596  L 98.0103 -39.2301  L 98.5657 -39.4364  L 99.1415 -39.5755  L 99.7297 -39.6456  L 100.322 -39.6456  L 100.91 -39.5755  L 101.486 -39.4364  L 102.042 -39.2301  L 102.569 -38.9596  L 103.06 -38.6287  L 103.509 -38.2419  L 103.909 -37.8048  L 104.254 -37.3235  L 104.54 -36.8047  L 104.763 -36.2557  L 104.919 -35.6843  L 105.006 -35.0984  L 105.024 -34.5062  L 104.971 -33.9162  L 104.849 -33.3365  L 104.659 -32.7753  L 104.405 -32.2404  L 104.088 -31.7395  L 103.715 -31.2795  L 103.29 -30.8668  L 102.819 -30.5074  L 102.309 -30.2061  L 101.767 -29.9673  L 101.2 -29.7943  L 100.617 -29.6895  L 100.026 -29.6544  z" fill="none" stroke="rgb(217, 95, 2)" /><path d="M 59.4242 -29.6895 L 58.8411 -29.7943  L 58.2746 -29.9673  L 57.7324 -30.2061  L 57.2223 -30.5074  L 56.7514 -30.8668  L 56.3264 -31.2795  L 55.9531 -31.7395  L 55.6369 -32.2404  L 55.3821 -32.7753  L 55.1924 -33.3365  L 55.0704 -33.9162  L 55.0178 -34.5062  L 55.0353 -35.0984  L 55.1228 -35.6843  L 55.2789 -36.2557  L 55.5016 -36.8047  L 55.7876 -37.3235  L 56.1329 -37.8048  L 56.5328 -38.2419  L 56.9816 -38.6287  L 57.4729 -38.9596  L 57.9999 -39.2301  L 58.5553 -39.4364  L 59.1311 -39.5755  L 59.7194 -39.6456  L 60.3118 -39.6456  L 60.9 -39.5755  L 61.4758 -39.4364  L 62.0312 -39.2301  L 62.5582 -38.9596  L 63.0496 -38.6287  L 63.4983 -38.2419  L 63.8982 -37.8048  L 64.2435 -37.3235  L 64.5295 -36.8047  L 64.7522 -36.2557  L 64.9083 -35.6843  L 64.9958 -35.0984  L 65.0134 -34.5062  L 64.9608 -33.9162  L 64.8387 -33.3365  L 64.649 -32.7753  L 64.3942 -32.2404  L 64.078 -31.7395  L 63.7047 -31.2795  L 63.2797 -30.8668  L 62.8088 -30.5074  L 62.2987 -30.2061  L 61.7566 -29.9673  L 61.19 -29.7943  L 60.6069 -29.6895  L 60.0156 -29.6544  z" fill="none" stroke="rgb(217, 95, 2)" /><path d="M 19.4138 -29.6895 L 18.8308 -29.7943  L 18.2642 -29.9673  L 17.722 -30.2061  L 17.212 -30.5074  L 16.7411 -30.8668  L 16.316 -31.2795  L 15.9428 -31.7395  L 15.6265 -32.2404  L 15.3717 -32.7753  L 15.182 -33.3365  L 15.06 -33.9162  L 15.0074 -34.5062  L 15.0249 -35.0984  L 15.1124 -35.6843  L 15.2686 -36.2557  L 15.4912 -36.8047  L 15.7772 -37.3235  L 16.1226 -37.8048  L 16.5224 -38.2419  L 16.9712 -38.6287  L 17.4625 -38.9596  L 17.9896 -39.2301  L 18.5449 -39.4364  L 19.1207 -39.5755  L 19.709 -39.6456  L 20.3014 -39.6456  L 20.8896 -39.5755  L 21.4655 -39.4364  L 22.0208 -39.2301  L 22.5478 -38.9596  L 23.0392 -38.6287  L 23.4879 -38.2419  L 23.8878 -37.8048  L 24.2332 -37.3235  L 24.5192 -36.8047  L 24.7418 -36.2557  L 24.898 -35.6843  L 24.9854 -35.0984  L 25.003 -34.5062  L 24.9504 -33.9162  L 24.8284 -33.3365  L 24.6386 -32.7753  L 24.3839 -32.2404  L 24.0676 -31.7395  L 23.6944 -31.2795  L 23.2693 -30.8668  L 22.7984 -30.5074  L 22.2883 -30.2061  L 21.7462 -29.9673  L 21.1796 -29.7943  L 20.5966 -29.6895  L 20.0052 -29.6544  z" fill="none" stroke="rgb(217, 95, 2)" /><path d="M -20.5966 -29.6895 L -21.1796 -29.7943  L -21.7462 -29.9673  L -22.2883 -30.2061  L -22.7984 -30.5074  L -23.2693 -30.8668  L -23.6944 -31.2795  L -24.0676 -31.7395  L -24.3839 -32.2404  L -24.6386 -32.7753  L -24.8284 -33.3365  L -24.9504 -33.9162  L -25.003 -34.5062  L -24.9854 -35.0984  L -24.898 -35.6843  L -24.7418 -36.2557  L -24.5192 -36.8047  L -24.2332 -37.3235  L -23.8878 -37.8048  L -23.4879 -38.2419  L -23.0392 -38.6287  L -22.5478 -38.9596  L -22.0208 -39.2301  L -21.4655 -39.4364  L -20.8896 -39.5755  L -20.3014 -39.6456  L -19.709 -39.6456  L -19.1207 -39.5755  L -18.5449 -39.4364  L -17.9896 -39.2301  L -17.4625 -38.9596  L -16.9712 -38.6287  L -16.5224 -38.2419  L -16.1226 -37.8048  L -15.7772 -37.3235  L -15.4912 -36.8047  L -15.2686 -36.2557  L -15.1124 -35.6843  L -15.0249 -35.0984  L -15.0074 -34.5062  L -15.06 -33.9162  L -15.182 -33.3365  L -15.3717 -32.7753  L -15.6265 -32.2404  L -15.9428 -31.7395  L -16.316 -31.2795  L -16.7411 -30.8668  L -17.212 -30.5074  L -17.722 -30.2061  L -18.2642 -29.9673  L -18.8308 -29.7943  L -19.4138 -29.6895  L -20.0052 -29.6544  z" fill="none" stroke="rgb(217, 95, 2)" /><path d="M -60.6069 -29.6895 L -61.19 -29.7943  L -61.7566 -29.9673  L -62.2987 -30.2061  L -62.8088 -30.5074  L -63.2797 -30.8668  L -63.7047 -31.2795  L -64.078 -31.7395  L -64.3942 -32.2404  L -64.649 -32.7753  L -64.8387 -33.3365  L -64.9608 -33.9162  L -65.0134 -34.5062  L -64.9958 -35.0984  L -64.9083 -35.6843  L -64.7522 -36.2557  L -64.5295 -36.8047  L -64.2435 -37.3235  L -63.8982 -37.8048  L -63.4983 -38.2419  L -63.0496 -38.6287  L -62.5582 -38.9596  L -62.0312 -39.2301  L -61.4758 -39.4364  L -60.9 -39.5755  L -60.3118 -39.6456  L -59.7194 -39.6456  L -59.1311 -39.5755  L -58.5553 -39.4364  L -57.9999 -39.2301  L -57.4729 -38.9596  L -56.9816 -38.6287  L -56.5328 -38.2419  L -56.1329 -37.8048  L -55.7876 -37.3235  L -55.5016 -36.8047  L -55.2789 -36.2557  L -55.1228 -35.6843  L -55.0353 -35.0984  L -55.0178 -34.5062  L -55.0704 -33.9162  L -55.1924 -33.3365  L -55.3821 -32.7753  L -55.6369 -32.2404  L -55.9531 -31.7395  L -56.3264 -31.2795  L -56.7514 -30.8668  L -57.2223 -30.5074  L -57.7324 -30.2061  L -58.2746 -29.9673  L -58.8411 -29.7943  L -59.4242 -29.6895  L -60.0156 -29.6544  z" fill="none" stroke="rgb(217, 95, 2)" /><path d="M -100.617 -29.6895 L -101.2 -29.7943  L -101.767 -29.9673  L -102.309 -30.2061  L -102.819 -30.5074  L -103.29 -30.8668  L -103.715 -31.2795  L -104.088 -31.7395  L -104.405 -32.2404  L -104.659 -32.7753  L -104.849 -33.3365  L -104.971 -33.9162  L -105.024 -34.5062  L -105.006 -35.0984  L -104.919 -35.6843  L -104.763 -36.2557  L -104.54 -36.8047  L -104.254 -37.3235  L -103.909 -37.8048  L -103.509 -38.2419  L -103.06 -38.6287  L -102.569 -38.9596  L -102.042 -39.2301  L -101.486 -39.4364  L -100.91 -39.5755  L -100.322 -39.6456  L -99.7297 -39.6456  L -99.1415 -39.5755  L -98.5657 -39.4364  L -98.0103 -39.2301  L -97.4833 -38.9596  L -96.9919 -38.6287  L -96.5432 -38.2419  L -96.1433 -37.8048  L -95.798 -37.3235  L -95.5119 -36.8047  L -95.2893 -36.2557  L -95.1332 -35.6843  L -95.0457 -35.0984  L -95.0281 -34.5062  L -95.0807 -33.9162  L -95.2028 -33.3365  L -95.3925 -32.7753  L -95.6473 -32.2404  L -95.9635 -31.7395  L -96.3368 -31.2795  L -96.7618 -30.8668  L -97.2327 -30.5074  L -97.7428 -30.2061  L -98.2849 -29.9673  L -98.8515 -29.7943  L -99.4346 -29.6895  L -100.026 -29.6544  z" fill="none" stroke="rgb(217, 95, 2)" /><path d="M 125.467 -53.8761 L 128.065 -55.3761  L 133.423 -46.095  L 130.825 -44.595  z" fill="none" stroke="rgb(217, 95, 2)" /><path d="M -133.423 -46.095 L -128.065 -55.3761  L -125.467 -53.8761  L -130.825 -44.595  z" fill="none" stroke="rgb(217, 95, 2)" /><path d="M 114.75 -72.4383 L 117.348 -73.9383  L 122.706 -64.6572  L 120.108 -63.1572  z" fill="none" stroke="rgb(217, 95, 2)" /><path d="M -122.706 -64.6572 L -117.348 -73.9383  L -114.75 -72.4383  L -120.108 -63.1572  z" fill="none" stroke="rgb(217, 95, 2)" /><path d="M 79.4294 -64.3395 L 78.8463 -64.4443  L 78.2797 -64.6173  L 77.7376 -64.8561  L 77.2275 -65.1574  L 76.7566 -65.5168  L 76.3316 -65.9295  L 75.9583 -66.3895  L 75.6421 -66.8904  L 75.3873 -67.4253  L 75.1976 -67.9865  L 75.0755 -68.5662  L 75.0229 -69.1562  L 75.0405 -69.7484  L 75.128 -70.3343  L 75.2841 -70.9057  L 75.5068 -71.4547  L 75.7928 -71.9735  L 76.1381 -72.4548  L 76.538 -72.8919  L 76.9867 -73.2787  L 77.4781 -73.6096  L 78.0051 -73.8801  L 78.5605 -74.0864  L 79.1363 -74.2255  L 79.7245 -74.2956  L 80.317 -74.2956  L 80.9052 -74.2255  L 81.481 -74.0864  L 82.0364 -73.8801  L 82.5634 -73.6096  L 83.0547 -73.2787  L 83.5035 -72.8919  L 83.9034 -72.4548  L 84.2487 -71.9735  L 84.5347 -71.4547  L 84.7574 -70.9057  L 84.9135 -70.3343  L 85.001 -69.7484  L 85.0186 -69.1562  L 84.9659 -68.5662  L 84.8439 -67.9865  L 84.6542 -67.4253  L 84.3994 -66.8904  L 84.0832 -66.3895  L 83.7099 -65.9295  L 83.2849 -65.5168  L 82.814 -65.1574  L 82.3039 -64.8561  L 81.7618 -64.6173  L 81.1952 -64.4443  L 80.6121 -64.3395  L 80.0207 -64.3044  z" fill="none" stroke="rgb(217, 95, 2)" /><path d="M 39.419 -64.3395 L 38.8359 -64.4443  L 38.2694 -64.6173  L 37.7272 -64.8561  L 37.2171 -65.1574  L 36.7463 -65.5168  L 36.3212 -65.9295  L 35.9479 -66.3895  L 35.6317 -66.8904  L 35.3769 -67.4253  L 35.1872 -67.9865  L 35.0652 -68.5662  L 35.0126 -69.1562  L 35.0301 -69.7484  L 35.1176 -70.3343  L 35.2737 -70.9057  L 35.4964 -71.4547  L 35.7824 -71.9735  L 36.1278 -72.4548  L 36.5276 -72.8919  L 36.9764 -73.2787  L 37.4677 -73.6096  L 37.9948 -73.8801  L 38.5501 -74.0864  L 39.1259 -74.2255  L 39.7142 -74.2956  L 40.3066 -74.2956  L 40.8948 -74.2255  L 41.4707 -74.0864  L 42.026 -73.8801  L 42.553 -73.6096  L 43.0444 -73.2787  L 43.4931 -72.8919  L 43.893 -72.4548  L 44.2384 -71.9735  L 44.5244 -71.4547  L 44.747 -70.9057  L 44.9032 -70.3343  L 44.9906 -69.7484  L 45.0082 -69.1562  L 44.9556 -68.5662  L 44.8336 -67.9865  L 44.6438 -67.4253  L 44.389 -66.8904  L 44.0728 -66.3895  L 43.6995 -65.9295  L 43.2745 -65.5168  L 42.8036 -65.1574  L 42.2935 -64.8561  L 41.7514 -64.6173  L 41.1848 -64.4443  L 40.6017 -64.3395  L 40.0104 -64.3044  z" fill="none" stroke="rgb(217, 95, 2)" /><path d="M -0.591366 -64.3395 L -1.17443 -64.4443  L -1.74101 -64.6173  L -2.28315 -64.8561  L -2.79323 -65.1574  L -3.26411 -65.5168  L -3.68917 -65.9295  L -4.06243 -66.3895  L -4.37867 -66.8904  L -4.63345 -67.4253  L -4.82318 -67.9865  L -4.9452 -68.5662  L -4.9978 -69.1562  L -4.98025 -69.7484  L -4.89278 -70.3343  L -4.73663 -70.9057  L -4.51399 -71.4547  L -4.22798 -71.9735  L -3.88262 -72.4548  L -3.48276 -72.8919  L -3.034 -73.2787  L -2.54266 -73.6096  L -2.01562 -73.8801  L -1.46028 -74.0864  L -0.884451 -74.2255  L -0.296203 -74.2956  L 0.296203 -74.2956  L 0.884451 -74.2255  L 1.46028 -74.0864  L 2.01562 -73.8801  L 2.54266 -73.6096  L 3.034 -73.2787  L 3.48276 -72.8919  L 3.88262 -72.4548  L 4.22798 -71.9735  L 4.51399 -71.4547  L 4.73663 -70.9057  L 4.89278 -70.3343  L 4.98025 -69.7484  L 4.9978 -69.1562  L 4.9452 -68.5662  L 4.82318 -67.9865  L 4.63345 -67.4253  L 4.37867 -66.8904  L 4.06243 -66.3895  L 3.68917 -65.9295  L 3.26411 -65.5168  L 2.79323 -65.1574  L 2.28315 -64.8561  L 1.74101 -64.6173  L 1.17443 -64.4443  L 0.591366 -64.3395  L -0 -64.3044  z" fill="none" stroke="rgb(217, 95, 2)" /><path d="M -40.6017 -64.3395 L -41.1848 -64.4443  L -41.7514 -64.6173  L -42.2935 -64.8561  L -42.8036 -65.1574  L -43.2745 -65.5168  L -43.6995 -65.9295  L -44.0728 -66.3895  L -44.389 -66.8904  L -44.6438 -67.4253  L -44.8336 -67.9865  L -44.9556 -68.5662  L -45.0082 -69.1562  L -44.9906 -69.7484  L -44.9032 -70.3343  L -44.747 -70.9057  L -44.5244 -71.4547  L -44.2384 -71.9735  L -43.893 -72.4548  L -43.4931 -72.8919  L -43.0444 -73.2787  L -42.553 -73.6096  L -42.026 -73.8801  L -41.4707 -74.0864  L -40.8948 -74.2255  L -40.3066 -74.2956  L -39.7142 -74.2956  L -39.1259 -74.2255  L -38.5501 -74.0864  L -37.9948 -73.8801  L -37.4677 -73.6096  L -36.9764 -73.2787  L -36.5276 -72.8919  L -36.1278 -72.4548  L -35.7824 -71.9735  L -35.4964 -71.4547  L -35.2737 -70.9057  L -35.1176 -70.3343  L -35.0301 -69.7484  L -35.0126 -69.1562  L -35.0652 -68.5662  L -35.1872 -67.9865  L -35.3769 -67.4253  L -35.6317 -66.8904  L -35.9479 -66.3895  L -36.3212 -65.9295  L -36.7463 -65.5168  L -37.2171 -65.1574  L -37.7272 -64.8561  L -38.2694 -64.6173  L -38.8359 -64.4443  L -39.419 -64.3395  L -40.0104 -64.3044  z" fill="none" stroke="rgb(217, 95, 2)" /><path d="M -80.6121 -64.3395 L -81.1952 -64.4443  L -81.7618 -64.6173  L -82.3039 -64.8561  L -82.814 -65.1574  L -83.2849 -65.5168  L -83.7099 -65.9295  L -84.0832 -66.3895  L -84.3994 -66.8904  L -84.6542 -67.4253  L -84.8439 -67.9865  L -84.9659 -68.5662  L -85.0186 -69.1562  L -85.001 -69.7484  L -84.9135 -70.3343  L -84.7574 -70.9057  L -84.5347 -71.4547  L -84.2487 -71.9735  L -83.9034 -72.4548  L -83.5035 -72.8919  L -83.0547 -73.2787  L -82.5634 -73.6096  L -82.0364 -73.8801  L -81.481 -74.0864  L -80.9052 -74.2255  L -80.317 -74.2956  L -79.7245 -74.2956  L -79.1363 -74.2255  L -78.5605 -74.0864  L -78.0051 -73.8801  L -77.4781 -73.6096  L -76.9867 -73.2787  L -76.538 -72.8919  L -76.1381 -72.4548  L -75.7928 -71.9735  L -75.5068 -71.4547  L -75.2841 -70.9057  L -75.128 -70.3343  L -75.0405 -69.7484  L -75.0229 -69.1562  L -75.0755 -68.5662  L -75.1976 -67.9865  L -75.3873 -67.4253  L -75.6421 -66.8904  L -75.9583 -66.3895  L -76.3316 -65.9295  L -76.7566 -65.5168  L -77.2275 -65.1574  L -77.7376 -64.8561  L -78.2797 -64.6173  L -78.8463 -64.4443  L -79.4294 -64.3395  L -80.0207 -64.3044  z" fill="none" stroke="rgb(217, 95, 2)" /><path d="M 104.033 -91.0005 L 106.631 -92.5005  L 111.99 -83.2194  L 109.391 -81.7194  z" fill="none" stroke="rgb(217, 95, 2)" /><path d="M -111.99 -83.2194 L -106.631 -92.5005  L -104.033 -91.0005  L -109.391 -81.7194  z" fill="none" stroke="rgb(217, 95, 2)" /><path d="M 59.4242 -98.9895 L 58.8411 -99.0943  L 58.2746 -99.2673  L 57.7324 -99.5061  L 57.2223 -99.8074  L 56.7514 -100.167  L 56.3264 -100.579  L 55.9531 -101.039  L 55.6369 -101.54  L 55.3821 -102.075  L 55.1924 -102.636  L 55.0704 -103.216  L 55.0178 -103.806  L 55.0353 -104.398  L 55.1228 -104.984  L 55.2789 -105.556  L 55.5016 -106.105  L 55.7876 -106.624  L 56.1329 -107.105  L 56.5328 -107.542  L 56.9816 -107.929  L 57.4729 -108.26  L 57.9999 -108.53  L 58.5553 -108.736  L 59.1311 -108.876  L 59.7194 -108.946  L 60.3118 -108.946  L 60.9 -108.876  L 61.4758 -108.736  L 62.0312 -108.53  L 62.5582 -108.26  L 63.0496 -107.929  L 63.4983 -107.542  L 63.8982 -107.105  L 64.2435 -106.624  L 64.5295 -106.105  L 64.7522 -105.556  L 64.9083 -104.984  L 64.9958 -104.398  L 65.0134 -103.806  L 64.9608 -103.216  L 64.8387 -102.636  L 64.649 -102.075  L 64.3942 -101.54  L 64.078 -101.039  L 63.7047 -100.579  L 63.2797 -100.167  L 62.8088 -99.8074  L 62.2987 -99.5061  L 61.7566 -99.2673  L 61.19 -99.0943  L 60.6069 -98.9895  L 60.0156 -98.9544  z" fill="none" stroke="rgb(217, 95, 2)" /><path d="M 19.4138 -98.9895 L 18.8308 -99.0943  L 18.2642 -99.2673  L 17.722 -99.5061  L 17.212 -99.8074  L 16.7411 -100.167  L 16.316 -100.579  L 15.9428 -101.039  L 15.6265 -101.54  L 15.3717 -102.075  L 15.182 -102.636  L 15.06 -103.216  L 15.0074 -103.806  L 15.0249 -104.398  L 15.1124 -104.984  L 15.2686 -105.556  L 15.4912 -106.105  L 15.7772 -106.624  L 16.1226 -107.105  L 16.5224 -107.542  L 16.9712 -107.929  L 17.4625 -108.26  L 17.9896 -108.53  L 18.5449 -108.736  L 19.1207 -108.876  L 19.709 -108.946  L 20.3014 -108.946  L 20.8896 -108.876  L 21.4655 -108.736  L 22.0208 -108.53  L 22.5478 -108.26  L 23.0392 -107.929  L 23.4879 -107.542  L 23.8878 -107.105  L 24.2332 -106.624  L 24.5192 -106.105  L 24.7418 -105.556  L 24.898 -104.984  L 24.9854 -104.398  L 25.003 -103.806  L 24.9504 -103.216  L 24.8284 -102.636  L 24.6386 -102.075  L 24.3839 -101.54  L 24.0676 -101.039  L 23.6944 -100.579  L 23.2693 -100.167  L 22.7984 -99.8074  L 22.2883 -99.5061  L 21.7462 -99.2673  L 21.1796 -99.0943  L 20.5966 -98.9895  L 20.0052 -98.9544  z" fill="none" stroke="rgb(217, 95, 2)" /><path d="M -20.5966 -98.9895 L -21.1796 -99.0943  L -21.7462 -99.2673  L -22.2883 -99.5061  L -22.7984 -99.8074  L -23.2693 -100.167  L -23.6944 -100.579  L -24.0676 -101.039  L -24.3839 -101.54  L -24.6386 -102.075  L -24.8284 -102.636  L -24.9504 -103.216  L -25.003 -103.806  L -24.9854 -104.398  L -24.898 -104.984  L -24.7418 -105.556  L -24.5192 -106.105  L -24.2332 -106.624  L -23.8878 -107.105  L -23.4879 -107.542  L -23.0392 -107.929  L -22.5478 -108.26  L -22.0208 -108.53  L -21.4655 -108.736  L -20.8896 -108.876  L -20.3014 -108.946  L -19.709 -108.946  L -19.1207 -108.876  L -18.5449 -108.736  L -17.9896 -108.53  L -17.4625 -108.26  L -16.9712 -107.929  L -16.5224 -107.542  L -16.1226 -107.105  L -15.7772 -106.624  L -15.4912 -106.105  L -15.2686 -105.556  L -15.1124 -104.984  L -15.0249 -104.398  L -15.0074 -103.806  L -15.06 -103.216  L -15.182 -102.636  L -15.3717 -102.075  L -15.6265 -101.54  L -15.9428 -101.039  L -16.316 -100.579  L -16.7411 -100.167  L -17.212 -99.8074  L -17.722 -99.5061  L -18.2642 -99.2673  L -18.8308 -99.0943  L -19.4138 -98.9895  L -20.0052 -98.9544  z" fill="none" stroke="rgb(217, 95, 2)" /><path d="M -60.6069 -98.9895 L -61.19 -99.0943  L -61.7566 -99.2673  L -62.2987 -99.5061  L -62.8088 -99.8074  L -63.2797 -100.167  L -63.7047 -100.579  L -64.078 -101.039  L -64.3942 -101.54  L -64.649 -102.075  L -64.8387 -102.636  L -64.9608 -103.216  L -65.0134 -103.806  L -64.9958 -104.398  L -64.9083 -104.984  L -64.7522 -105.556  L -64.5295 -106.105  L -64.2435 -106.624  L -63.8982 -107.105  L -63.4983 -107.542  L -63.0496 -107.929  L -62.5582 -108.26  L -62.0312 -108.53  L -61.4758 -108.736  L -60.9 -108.876  L -60.3118 -108.946  L -59.7194 -108.946  L -59.1311 -108.876  L -58.5553 -108.736  L -57.9999 -108.53  L -57.4729 -108.26  L -56.9816 -107.929  L -56.5328 -107.542  L -56.1329 -107.105  L -55.7876 -106.624  L -55.5016 -106.105  L -55.2789 -105.556  L -55.1228 -104.984  L -55.0353 -104.398  L -55.0178 -103.806  L -55.0704 -103.216  L -55.1924 -102.636  L -55.3821 -102.075  L -55.6369 -101.54  L -55.9531 -101.039  L -56.3264 -100.579  L -56.7514 -100.167  L -57.2223 -99.8074  L -57.7324 -99.5061  L -58.2746 -99.2673  L -58.8411 -99.0943  L -59.4242 -98.9895  L -60.0156 -98.9544  z" fill="none" stroke="rgb(217, 95, 2)" /><path d="M 93.3162 -109.563 L 95.9143 -111.063  L 101.273 -101.782  L 98.6746 -100.282  z" fill="none" stroke="rgb(217, 95, 2)" /><path d="M -101.273 -101.782 L -95.9143 -111.063  L -93.3162 -109.563  L -98.6746 -100.282  z" fill="none" stroke="rgb(217, 95, 2)" /><path d="M 82.5993 -128.125 L 85.1974 -129.625  L 90.5558 -120.344  L 87.9577 -118.844  z" fill="none" stroke="rgb(217, 95, 2)" /><path d="M -90.5558 -120.344 L -85.1974 -129.625  L -82.5993 -128.125  L -87.9577 -118.844  z" fill="none" stroke="rgb(217, 95, 2)" /><path d="M 37.5091 -135.596 L 37.5091 -138.596  L 48.226 -138.596  L 48.226 -135.596  z" fill="none" stroke="rgb(217, 95, 2)" /><path d="M 16.0753 -135.596 L 16.0753 -138.596  L 26.7922 -138.596  L 26.7922 -135.596  z" fill="none" stroke="rgb(217, 95, 2)" /><path d="M -5.35844 -135.596 L -5.35844 -138.596  L 5.35844 -138.596  L 5.35844 -135.596  z" fill="none" stroke="rgb(217, 95, 2)" /><path d="M -26.7922 -135.596 L -26.7922 -138.596  L -16.0753 -138.596  L -16.0753 -135.596  z" fill="none" stroke="rgb(217, 95, 2)" /><path d="M 58.9428 -138.596 L 69.6597 -138.596  L 69.6597 -135.596  L 58.9428 -135.596  z" fill="none" stroke="rgb(217, 95, 2)" /><path d="M -48.226 -135.596 L -48.226 -138.596  L -37.5091 -138.596  L -37.5091 -135.596  z" fill="none" stroke="rgb(217, 95, 2)" /><path d="M -69.6597 -135.596 L -69.6597 -138.596  L -58.9428 -138.596  L -58.9428 -135.596  z" fill="none" stroke="rgb(217, 95, 2)" /><path d="M 85.7917 -148.596 L -85.7917 -148.596  L -171.583 -5.68434e-14  L -85.7917 148.596  L 85.7917 148.596  L 171.583 0  z" fill="none" stroke="rgb(27, 158, 119)" /></g></svg>