<?xml version="1.0" encoding="utf-8" ?>
<svg baseProfile="full" height="327.19101615137754mm" version="1.1" viewBox="-188.13031855952875,-163.59550807568877,376.2606371190575,327.19101615137754" width="376.2606371190575mm" xmlns="http://www.w3.org/2000/svg" xmlns:ev="http://www.w3.org/2001/xml-events" xmlns:xlink="http://www.w3.org/1999/xlink"><defs /><g><path d="M 58.9428 138.596 L 58.9428 135.596  L 69.6597 135.596  L 69.6597 138.596  z" fill="none" stroke="rgb(217, 95, 2)" /><path d="M 37.5091 138.596 L 37.5091 135.596  L 48.226 135.596  L 48.226 138.596  z" fill="none" stroke="rgb(217, 95, 2)" /><path d="M 16.0753 138.596 L 16.0753 135.596  L 26.7922 135.596  L 26.7922 138.596  z" fill="none" stroke="rgb(217, 95, 2)" /><path d="M -5.35844 138.596 L -5.35844 135.596  L 5.35844 135.596  L 5.35844 138.596  z" fill="none" stroke="rgb(217, 95, 2)" /><path d="M -26.7922 138.596 L -26.7922 135.596  L -16.0753 135.596  L -16.0753 138.596  z" fill="none" stroke="rgb(217, 95, 2)" /><path d="M -48.226 138.596 L -48.226 135.596  L -37.5091 135.596  L -37.5091 138.596  z" fill="none" stroke="rgb(217, 95, 2)" /><path d="M -69.6597 138.596 L -69.6597 135.596  L -58.9428 135.596  L -58.9428 138.596  z" fill="none" stroke="rgb(217, 95, 2)" /><path d="M 82.5993 128.125 L 87.9577 118.844  L 90.5558 120.344  L 85.1974 129.625  z" fill="none" stroke="rgb(217, 95, 2)" /><path d="M -90.5558 120.344 L -87.9577 118.844  L -82.5993 128.125  L -85.1974 129.625  z" fill="none" stroke="rgb(217, 95, 2)" /><path d="M 93.3162 109.563 L 98.6746 100.282  L 101.273 101.782  L 95.9143 111.063  z" fill="none" stroke="rgb(217, 95, 2)" /><path d="M -101.273 101.782 L -98.6746 100.282  L -93.3162 109.563  L -95.9143 111.063  z" fill="none" stroke="rgb(217, 95, 2)" /><path d="M 104.033 91.0005 L 109.391 81.7194  L 111.99 83.2194  L 106.631 92.5005  z" fill="none" stroke="rgb(217, 95, 2)" /><path d="M -111.99 83.2194 L -109.391 81.7194  L -104.033 91.0005  L -106.631 92.5005  z" fill="none" stroke="rgb(217, 95, 2)" /><path d="M 114.75 72.4383 L 120.108 63.1572  L 122.706 64.6572  L 117.348 73.9383  z" fill="none" stroke="rgb(217, 95, 2)" /><path d="M -122.706 64.6572 L -120.108 63.1572  L -114.75 72.4383  L -117.348 73.9383  z" fill="none" stroke="rgb(217, 95, 2)" /><path d="M 125.467 53.8761 L 130.825 44.595  L 133.423 46.095  L 128.065 55.3761  z" fill="none" stroke="rgb(217, 95, 2)" /><path d="M -133.423 46.095 L -130.825 44.595  L -125.467 53.8761  L -128.065 55.3761  z" fill="none" stroke="rgb(217, 95, 2)" /><path d="M 136.184 35.3139 L 141.542 26.0329  L 144.14 27.5329  L 138.782 36.8139  z" fill="none" stroke="rgb(217, 95, 2)" /><path d="M -144.14 27.5329 L -141.542 26.0329  L -136.184 35.3139  L -138.782 36.8139  z" fill="none" stroke="rgb(217, 95, 2)" /><path d="M 146.901 16.7518 L 152.259 7.47067  L 154.857 8.97067  L 149.499 18.2518  z" fill="none" stroke="rgb(217, 95, 2)" /><path d="M -154.857 8.97067 L -152.259 7.47067  L -146.901 16.7518  L -149.499 18.2518  z" fill="none" stroke="rgb(217, 95, 2)" /><path d="M 146.901 -16.7518 L 149.499 -18.2518  L 154.857 -8.97067  L 152.259 -7.47067  z" fill="none" stroke="rgb(217, 95, 2)" /><path d="M -154.857 -8.97067 L -149.499 -18.2518  L -146.901 -16.7518  L -152.259 -7.47067  z" fill="none" stroke="rgb(217, 95, 2)" /><path d="M 136.184 -35.3139 L 138.782 -36.8139  L 144.14 -27.5329  L 141.542 -26.0329  z" fill="none" stroke="rgb(217, 95, 2)" /><path d="M -144.14 -27.5329 L -138.782 -36.8139  L -136.184 -35.3139  L -141.542 -26.0329  z" fill="none" stroke="rgb(217, 95, 2)" /><path d="M 125.467 -53.8761 L 128.065 -55.3761  L 133.423 -46.095  L 130.825 -44.595  z" fill="none" stroke="rgb(217, 95, 2)" /><path d="M -133.423 -46.095 L -128.065 -55.3761  L -125.467 -53.8761  L -130.825 -44.595  z" fill="none" stroke="rgb(217, 95, 2)" /><path d="M 114.75 -72.4383 L 117.348 -73.9383  L 122.706 -64.6572  L 120.108 -63.1572  z" fill="none" stroke="rgb(217, 95, 2)" /><path d="M -122.706 -64.6572 L -117.348 -73.9383  L -114.75 -72.4383  L -120.108 -63.1572  z" fill="none" stroke="rgb(217, 95, 2)" /><path d="M 104.033 -91.0005 L 106.631 -92.5005  L 111.99 -83.2194  L 109.391 -81.7194  z" fill="none" stroke="rgb(217, 95, 2)" /><path d="M -111.99 -83.2194 L -106.631 -92.5005  L -104.033 -91.0005  L -109.391 -81.7194  z" fill="none" stroke="rgb(217, 95, 2)" /><path d="M 93.3162 -109.563 L 95.9143 -111.063  L 101.273 -101.782  L 98.6746 -100.282  z" fill="none" stroke="rgb(217, 95, 2)" /><path d="M -101.273 -101.782 L -95.9143 -111.063  L -93.3162 -109.563  L -98.6746 -100.282  z" fill="none" stroke="rgb(217, 95, 2)" /><path d="M 82.5993 -128.125 L 85.1974 -129.625  L 90.5558 -120.344  L 87.9577 -118.844  z" fill="none" stroke="rgb(217, 95, 2)" /><path d="M -90.5558 -120.344 L -85.1974 -129.625  L -82.5993 -128.125  L -87.9577 -118.844  z" fill="none" stroke="rgb(217, 95, 2)" /><path d="M 37.5091 -135.596 L 37.5091 -138.596  L 48.226 -138.596  L 48.226 -135.596  z" fill="none" stroke="rgb(217, 95, 2)" /><path d="M 16.0753 -135.596 L 16.0753 -138.596  L 26.7922 -138.596  L 26.7922 -135.596  z" fill="none" stroke="rgb(217, 95, 2)" /><path d="M -5.35844 -135.596 L -5.35844 -138.596  L 5.35844 -138.596  L 5.35844 -135.596  z" fill="none" stroke="rgb(217, 95, 2)" /><path d="M -26.7922 -135.596 L -26.7922 -138.596  L -16.0753 -138.596  L -16.0753 -135.596  z" fill="none" stroke="rgb(217, 95, 2)" /><path d="M 58.9428 -138.596 L 69.6597 -138.596  L 69.6597 -135.596  L 58.9428 -135.596  z" fill="none" stroke="rgb(217, 95, 2)" /><path d="M -48.226 -135.596 L -48.226 -138.596  L -37.5091 -138.596  L -37.5091 -135.596  z" fill="none" stroke="rgb(217, 95, 2)" /><path d="M -69.6597 -135.596 L -69.6597 -138.596  L -58.9428 -138.596  L -58.9428 -135.596  z" fill="none" stroke="rgb(217, 95, 2)" /><path d="M 91.5652 -158.596 L -91.5652 -158.596  L -183.13 0  L -91.5652 158.596  L 91.5652 158.596  L 183.13 5.68434e-14  z" fill="none" stroke="rgb(27, 158, 119)" /><text style="font-size:6;font-family:'Ubuntu'line-height:1;" text-anchor="middle" x="0" y="155.59550807568874"><tspan>LaserLabyrinth v0.2</tspan><tspan dx="2" style="font-size:3;">by Fablab Karlsruhe</tspan></text></g></svg>