<?xml version="1.0" encoding="utf-8" standalone="no"?>
        <!DOCTYPE svg PUBLIC "-//W3C//DTD SVG 1.1//EN" "http://www.w3.org/Graphics/SVG/1.1/DTD/svg11.dtd">
         <svg xmlns="http://www.w3.org/2000/svg" width="329.86mm" height="287.141mm" viewbox="0 0 329.86 287.141">
<path style="fill:none;stroke:rgb(217, 95, 2);stroke-width:1mm;" d="M 847.317, 70.1877 L 778.58, 109.873 L 778.58, 189.243 L 847.317, 228.928 L 916.053, 189.243 L 916.053, 109.873 z " /><path style="fill:none;stroke:rgb(217, 95, 2);stroke-width:1mm;" d="M 696.751, 70.1877 L 628.014, 109.873 L 628.014, 189.243 L 696.751, 228.928 L 765.487, 189.243 L 765.487, 109.873 z " /><path style="fill:none;stroke:rgb(217, 95, 2);stroke-width:1mm;" d="M 546.185, 70.1877 L 477.449, 109.873 L 477.449, 189.243 L 546.185, 228.928 L 614.922, 189.243 L 614.922, 109.873 z " /><path style="fill:none;stroke:rgb(217, 95, 2);stroke-width:1mm;" d="M 395.62, 70.1877 L 326.883, 109.873 L 326.883, 189.243 L 395.62, 228.928 L 464.356, 189.243 L 464.356, 109.873 z " /><path style="fill:none;stroke:rgb(217, 95, 2);stroke-width:1mm;" d="M 922.599, 200.581 L 853.863, 240.266 L 853.863, 319.637 L 922.599, 359.322 L 991.336, 319.637 L 991.336, 240.266 z " /><path style="fill:none;stroke:rgb(217, 95, 2);stroke-width:1mm;" d="M 772.034, 200.581 L 703.297, 240.266 L 703.297, 319.637 L 772.034, 359.322 L 840.77, 319.637 L 840.77, 240.266 z " /><path style="fill:none;stroke:rgb(217, 95, 2);stroke-width:1mm;" d="M 621.468, 200.581 L 552.732, 240.266 L 552.732, 319.637 L 621.468, 359.322 L 690.205, 319.637 L 690.205, 240.266 z " /><path style="fill:none;stroke:rgb(217, 95, 2);stroke-width:1mm;" d="M 470.902, 200.581 L 402.166, 240.266 L 402.166, 319.637 L 470.902, 359.322 L 539.639, 319.637 L 539.639, 240.266 z " /><path style="fill:none;stroke:rgb(217, 95, 2);stroke-width:1mm;" d="M 320.337, 200.581 L 251.6, 240.266 L 251.6, 319.637 L 320.337, 359.322 L 389.073, 319.637 L 389.073, 240.266 z " /><path style="fill:none;stroke:rgb(217, 95, 2);stroke-width:1mm;" d="M 997.882, 330.975 L 929.146, 370.66 L 929.146, 450.03 L 997.882, 489.715 L 1066.62, 450.03 L 1066.62, 370.66 z " /><path style="fill:none;stroke:rgb(217, 95, 2);stroke-width:1mm;" d="M 847.317, 330.975 L 778.58, 370.66 L 778.58, 450.03 L 847.317, 489.715 L 916.053, 450.03 L 916.053, 370.66 z " /><path style="fill:none;stroke:rgb(217, 95, 2);stroke-width:1mm;" d="M 696.751, 330.975 L 628.014, 370.66 L 628.014, 450.03 L 696.751, 489.715 L 765.487, 450.03 L 765.487, 370.66 z " /><path style="fill:none;stroke:rgb(217, 95, 2);stroke-width:1mm;" d="M 546.185, 330.975 L 477.449, 370.66 L 477.449, 450.03 L 546.185, 489.715 L 614.922, 450.03 L 614.922, 370.66 z " /><path style="fill:none;stroke:rgb(217, 95, 2);stroke-width:1mm;" d="M 395.62, 330.975 L 326.883, 370.66 L 326.883, 450.03 L 395.62, 489.715 L 464.356, 450.03 L 464.356, 370.66 z " /><path style="fill:none;stroke:rgb(217, 95, 2);stroke-width:1mm;" d="M 245.054, 330.975 L 176.317, 370.66 L 176.317, 450.03 L 245.054, 489.715 L 313.79, 450.03 L 313.79, 370.66 z " /><path style="fill:none;stroke:rgb(217, 95, 2);stroke-width:1mm;" d="M 1073.17, 461.369 L 1004.43, 501.054 L 1004.43, 580.424 L 1073.17, 620.109 L 1141.9, 580.424 L 1141.9, 501.054 z " /><path style="fill:none;stroke:rgb(217, 95, 2);stroke-width:1mm;" d="M 922.599, 461.369 L 853.863, 501.054 L 853.863, 580.424 L 922.599, 620.109 L 991.336, 580.424 L 991.336, 501.054 z " /><path style="fill:none;stroke:rgb(217, 95, 2);stroke-width:1mm;" d="M 772.034, 461.369 L 703.297, 501.054 L 703.297, 580.424 L 772.034, 620.109 L 840.77, 580.424 L 840.77, 501.054 z " /><path style="fill:none;stroke:rgb(217, 95, 2);stroke-width:1mm;" d="M 621.468, 461.369 L 552.732, 501.054 L 552.732, 580.424 L 621.468, 620.109 L 690.205, 580.424 L 690.205, 501.054 z " /><path style="fill:none;stroke:rgb(217, 95, 2);stroke-width:1mm;" d="M 470.902, 461.369 L 402.166, 501.054 L 402.166, 580.424 L 470.902, 620.109 L 539.639, 580.424 L 539.639, 501.054 z " /><path style="fill:none;stroke:rgb(217, 95, 2);stroke-width:1mm;" d="M 320.337, 461.369 L 251.6, 501.054 L 251.6, 580.424 L 320.337, 620.109 L 389.073, 580.424 L 389.073, 501.054 z " /><path style="fill:none;stroke:rgb(217, 95, 2);stroke-width:1mm;" d="M 169.771, 461.369 L 101.035, 501.054 L 101.035, 580.424 L 169.771, 620.109 L 238.508, 580.424 L 238.508, 501.054 z " /><path style="fill:none;stroke:rgb(217, 95, 2);stroke-width:1mm;" d="M 997.882, 591.763 L 929.146, 631.448 L 929.146, 710.818 L 997.882, 750.503 L 1066.62, 710.818 L 1066.62, 631.448 z " /><path style="fill:none;stroke:rgb(217, 95, 2);stroke-width:1mm;" d="M 847.317, 591.763 L 778.58, 631.448 L 778.58, 710.818 L 847.317, 750.503 L 916.053, 710.818 L 916.053, 631.448 z " /><path style="fill:none;stroke:rgb(217, 95, 2);stroke-width:1mm;" d="M 696.751, 591.763 L 628.014, 631.448 L 628.014, 710.818 L 696.751, 750.503 L 765.487, 710.818 L 765.487, 631.448 z " /><path style="fill:none;stroke:rgb(217, 95, 2);stroke-width:1mm;" d="M 546.185, 591.763 L 477.449, 631.448 L 477.449, 710.818 L 546.185, 750.503 L 614.922, 710.818 L 614.922, 631.448 z " /><path style="fill:none;stroke:rgb(217, 95, 2);stroke-width:1mm;" d="M 395.62, 591.763 L 326.883, 631.448 L 326.883, 710.818 L 395.62, 750.503 L 464.356, 710.818 L 464.356, 631.448 z " /><path style="fill:none;stroke:rgb(217, 95, 2);stroke-width:1mm;" d="M 245.054, 591.763 L 176.317, 631.448 L 176.317, 710.818 L 245.054, 750.503 L 313.79, 710.818 L 313.79, 631.448 z " /><path style="fill:none;stroke:rgb(217, 95, 2);stroke-width:1mm;" d="M 922.599, 722.156 L 853.863, 761.841 L 853.863, 841.211 L 922.599, 880.896 L 991.336, 841.211 L 991.336, 761.841 z " /><path style="fill:none;stroke:rgb(217, 95, 2);stroke-width:1mm;" d="M 772.034, 722.156 L 703.297, 761.841 L 703.297, 841.211 L 772.034, 880.896 L 840.77, 841.211 L 840.77, 761.841 z " /><path style="fill:none;stroke:rgb(217, 95, 2);stroke-width:1mm;" d="M 621.468, 722.156 L 552.732, 761.841 L 552.732, 841.211 L 621.468, 880.896 L 690.205, 841.211 L 690.205, 761.841 z " /><path style="fill:none;stroke:rgb(217, 95, 2);stroke-width:1mm;" d="M 470.902, 722.156 L 402.166, 761.841 L 402.166, 841.211 L 470.902, 880.896 L 539.639, 841.211 L 539.639, 761.841 z " /><path style="fill:none;stroke:rgb(217, 95, 2);stroke-width:1mm;" d="M 320.337, 722.156 L 251.6, 761.841 L 251.6, 841.211 L 320.337, 880.896 L 389.073, 841.211 L 389.073, 761.841 z " /><path style="fill:none;stroke:rgb(217, 95, 2);stroke-width:1mm;" d="M 847.317, 852.55 L 778.58, 892.235 L 778.58, 971.605 L 847.317, 1011.29 L 916.053, 971.605 L 916.053, 892.235 z " /><path style="fill:none;stroke:rgb(217, 95, 2);stroke-width:1mm;" d="M 696.751, 852.55 L 628.014, 892.235 L 628.014, 971.605 L 696.751, 1011.29 L 765.487, 971.605 L 765.487, 892.235 z " /><path style="fill:none;stroke:rgb(217, 95, 2);stroke-width:1mm;" d="M 546.185, 852.55 L 477.449, 892.235 L 477.449, 971.605 L 546.185, 1011.29 L 614.922, 971.605 L 614.922, 892.235 z " /><path style="fill:none;stroke:rgb(217, 95, 2);stroke-width:1mm;" d="M 395.62, 852.55 L 326.883, 892.235 L 326.883, 971.605 L 395.62, 1011.29 L 464.356, 971.605 L 464.356, 892.235 z " /><path style="fill:none;stroke:rgb(27, 158, 119);stroke-width:1mm;" d="M 922.753, 18.8976 L 1224.04, 540.739 L 922.753, 1062.58 L 320.183, 1062.58 L 18.8976, 540.739 L 320.183, 18.8976 z " />
</svg>