<?xml version="1.0" encoding="utf-8" ?>
<svg baseProfile="full" height="310.78203230275517mm" version="1.1" viewBox="-176.43009000929464,3.0,358.8601800185893,310.78203230275517" width="358.8601800185893mm" xmlns="http://www.w3.org/2000/svg" xmlns:ev="http://www.w3.org/2001/xml-events" xmlns:xlink="http://www.w3.org/1999/xlink"><defs /><g transform="translate(3, 158.391)"><path d="M 58.7047 134.071 L 69.3783 134.071  L 69.3783 138.071  L 58.7047 138.071  z" fill="none" stroke="rgb(217, 95, 2)" /><path d="M 16.0104 134.071 L 26.6839 134.071  L 26.6839 138.071  L 16.0104 138.071  z" fill="none" stroke="rgb(217, 95, 2)" /><path d="M -5.33679 138.071 L -5.33679 134.071  L 5.33679 134.071  L 5.33679 138.071  z" fill="none" stroke="rgb(217, 95, 2)" /><path d="M -26.6839 138.071 L -26.6839 134.071  L -16.0104 134.071  L -16.0104 138.071  z" fill="none" stroke="rgb(217, 95, 2)" /><path d="M 37.3575 138.071 L 37.3575 134.071  L 48.0311 134.071  L 48.0311 138.071  z" fill="none" stroke="rgb(217, 95, 2)" /><path d="M -69.3783 138.071 L -69.3783 134.071  L -58.7047 134.071  L -58.7047 138.071  z" fill="none" stroke="rgb(217, 95, 2)" /><path d="M -48.0311 138.071 L -48.0311 134.071  L -37.3575 134.071  L -37.3575 138.071  z" fill="none" stroke="rgb(217, 95, 2)" /><path d="M 81.4193 127.119 L 86.7561 117.875  L 90.2202 119.875  L 84.8834 129.119  z" fill="none" stroke="rgb(217, 95, 2)" /><path d="M -90.2202 119.875 L -86.7561 117.875  L -81.4193 127.119  L -84.8834 129.119  z" fill="none" stroke="rgb(217, 95, 2)" /><path d="M -100.894 101.388 L -97.4297 99.3878  L -92.0929 108.631  L -95.557 110.631  z" fill="none" stroke="rgb(217, 95, 2)" /><path d="M 92.0929 108.631 L 97.4297 99.3878  L 100.894 101.388  L 95.557 110.631  z" fill="none" stroke="rgb(217, 95, 2)" /><path d="M 102.766 90.1442 L 108.103 80.9006  L 111.567 82.9006  L 106.231 92.1442  z" fill="none" stroke="rgb(217, 95, 2)" /><path d="M -111.567 82.9006 L -108.103 80.9006  L -102.766 90.1442  L -106.231 92.1442  z" fill="none" stroke="rgb(217, 95, 2)" /><path d="M 113.44 71.657 L 118.777 62.4135  L 122.241 64.4135  L 116.904 73.657  z" fill="none" stroke="rgb(217, 95, 2)" /><path d="M -122.241 64.4135 L -118.777 62.4135  L -113.44 71.657  L -116.904 73.657  z" fill="none" stroke="rgb(217, 95, 2)" /><path d="M 124.114 53.1699 L 129.45 43.9263  L 132.915 45.9263  L 127.578 55.1699  z" fill="none" stroke="rgb(217, 95, 2)" /><path d="M -132.915 45.9263 L -129.45 43.9263  L -124.114 53.1699  L -127.578 55.1699  z" fill="none" stroke="rgb(217, 95, 2)" /><path d="M 134.787 34.6827 L 140.124 25.4391  L 143.588 27.4391  L 138.251 36.6827  z" fill="none" stroke="rgb(217, 95, 2)" /><path d="M -143.588 27.4391 L -140.124 25.4391  L -134.787 34.6827  L -138.251 36.6827  z" fill="none" stroke="rgb(217, 95, 2)" /><path d="M 145.461 16.1955 L 150.798 6.95192  L 154.262 8.95192  L 148.925 18.1955  z" fill="none" stroke="rgb(217, 95, 2)" /><path d="M -154.262 8.95192 L -150.798 6.95192  L -145.461 16.1955  L -148.925 18.1955  z" fill="none" stroke="rgb(217, 95, 2)" /><path d="M 145.461 -16.1955 L 148.925 -18.1955  L 154.262 -8.95192  L 150.798 -6.95192  z" fill="none" stroke="rgb(217, 95, 2)" /><path d="M -154.262 -8.95192 L -148.925 -18.1955  L -145.461 -16.1955  L -150.798 -6.95192  z" fill="none" stroke="rgb(217, 95, 2)" /><path d="M -143.588 -27.4391 L -138.251 -36.6827  L -134.787 -34.6827  L -140.124 -25.4391  z" fill="none" stroke="rgb(217, 95, 2)" /><path d="M 134.787 -34.6827 L 138.251 -36.6827  L 143.588 -27.4391  L 140.124 -25.4391  z" fill="none" stroke="rgb(217, 95, 2)" /><path d="M 124.114 -53.1699 L 127.578 -55.1699  L 132.915 -45.9263  L 129.45 -43.9263  z" fill="none" stroke="rgb(217, 95, 2)" /><path d="M -132.915 -45.9263 L -127.578 -55.1699  L -124.114 -53.1699  L -129.45 -43.9263  z" fill="none" stroke="rgb(217, 95, 2)" /><path d="M 113.44 -71.657 L 116.904 -73.657  L 122.241 -64.4135  L 118.777 -62.4135  z" fill="none" stroke="rgb(217, 95, 2)" /><path d="M -122.241 -64.4135 L -116.904 -73.657  L -113.44 -71.657  L -118.777 -62.4135  z" fill="none" stroke="rgb(217, 95, 2)" /><path d="M 102.766 -90.1442 L 106.231 -92.1442  L 111.567 -82.9006  L 108.103 -80.9006  z" fill="none" stroke="rgb(217, 95, 2)" /><path d="M -111.567 -82.9006 L -106.231 -92.1442  L -102.766 -90.1442  L -108.103 -80.9006  z" fill="none" stroke="rgb(217, 95, 2)" /><path d="M 92.0929 -108.631 L 95.557 -110.631  L 100.894 -101.388  L 97.4297 -99.3878  z" fill="none" stroke="rgb(217, 95, 2)" /><path d="M -100.894 -101.388 L -95.557 -110.631  L -92.0929 -108.631  L -97.4297 -99.3878  z" fill="none" stroke="rgb(217, 95, 2)" /><path d="M 81.4193 -127.119 L 84.8834 -129.119  L 90.2202 -119.875  L 86.7561 -117.875  z" fill="none" stroke="rgb(217, 95, 2)" /><path d="M -90.2202 -119.875 L -84.8834 -129.119  L -81.4193 -127.119  L -86.7561 -117.875  z" fill="none" stroke="rgb(217, 95, 2)" /><path d="M 58.7047 -138.071 L 69.3783 -138.071  L 69.3783 -134.071  L 58.7047 -134.071  z" fill="none" stroke="rgb(217, 95, 2)" /><path d="M 16.0104 -138.071 L 26.6839 -138.071  L 26.6839 -134.071  L 16.0104 -134.071  z" fill="none" stroke="rgb(217, 95, 2)" /><path d="M -5.33679 -134.071 L -5.33679 -138.071  L 5.33679 -138.071  L 5.33679 -134.071  z" fill="none" stroke="rgb(217, 95, 2)" /><path d="M -26.6839 -134.071 L -26.6839 -138.071  L -16.0104 -138.071  L -16.0104 -134.071  z" fill="none" stroke="rgb(217, 95, 2)" /><path d="M 37.3575 -134.071 L 37.3575 -138.071  L 48.0311 -138.071  L 48.0311 -134.071  z" fill="none" stroke="rgb(217, 95, 2)" /><path d="M -69.3783 -134.071 L -69.3783 -138.071  L -58.7047 -138.071  L -58.7047 -134.071  z" fill="none" stroke="rgb(217, 95, 2)" /><path d="M -48.0311 -138.071 L -37.3575 -138.071  L -37.3575 -134.071  L -48.0311 -134.071  z" fill="none" stroke="rgb(217, 95, 2)" /><path d="M 89.715 -155.391 L -89.715 -155.391  L -179.43 0  L -89.715 155.391  L 89.715 155.391  L 179.43 0  z" fill="none" stroke="rgb(27, 158, 119)" /><text style="font-size:6;font-family:'Arial'" text-anchor="middle" x="0" y="153.39101615137756">LaserLabyrinth v0.2 ♥ Fablab Ka</text></g></svg>