<?xml version="1.0" encoding="utf-8" ?>
<svg baseProfile="full" height="293.6615242270664mm" version="1.1" viewBox="-166.54556006313254,3.0,339.09112012626514,293.6615242270664" width="339.09112012626514mm" xmlns="http://www.w3.org/2000/svg" xmlns:ev="http://www.w3.org/2001/xml-events" xmlns:xlink="http://www.w3.org/1999/xlink"><defs /><g><path d="M 61.8047 284.001 L 72.2783 284.001  L 72.2783 287.801  L 61.8047 287.801  z" fill="none" stroke="rgb(217, 95, 2)" /><path d="M 19.1104 284.001 L 29.5839 284.001  L 29.5839 287.801  L 19.1104 287.801  z" fill="none" stroke="rgb(217, 95, 2)" /><path d="M -2.23679 287.801 L -2.23679 284.001  L 8.23679 284.001  L 8.23679 287.801  z" fill="none" stroke="rgb(217, 95, 2)" /><path d="M -23.5839 287.801 L -23.5839 284.001  L -13.1104 284.001  L -13.1104 287.801  z" fill="none" stroke="rgb(217, 95, 2)" /><path d="M 40.4575 287.801 L 40.4575 284.001  L 50.9311 284.001  L 50.9311 287.801  z" fill="none" stroke="rgb(217, 95, 2)" /><path d="M -66.2783 287.801 L -66.2783 284.001  L -55.8047 284.001  L -55.8047 287.801  z" fill="none" stroke="rgb(217, 95, 2)" /><path d="M -44.9311 287.801 L -44.9311 284.001  L -34.4575 284.001  L -34.4575 287.801  z" fill="none" stroke="rgb(217, 95, 2)" /><path d="M 84.5559 276.913 L 89.7927 267.842  L 93.0836 269.742  L 87.8468 278.813  z" fill="none" stroke="rgb(217, 95, 2)" /><path d="M -87.0836 269.742 L -83.7927 267.842  L -78.5559 276.913  L -81.8468 278.813  z" fill="none" stroke="rgb(217, 95, 2)" /><path d="M -97.7572 251.255 L -94.4663 249.355  L -89.2295 258.426  L -92.5204 260.326  z" fill="none" stroke="rgb(217, 95, 2)" /><path d="M 95.2295 258.426 L 100.466 249.355  L 103.757 251.255  L 98.5204 260.326  z" fill="none" stroke="rgb(217, 95, 2)" /><path d="M 62.1869 258.197 L 61.6258 258.099  L 61.0799 257.935  L 60.5567 257.709  L 60.0633 257.425  L 59.6062 257.084  L 59.1917 256.693  L 58.8255 256.257  L 58.5124 255.781  L 58.2566 255.271  L 58.0618 254.736  L 57.9304 254.182  L 57.8642 253.616  L 57.8642 253.046  L 57.9304 252.48  L 58.0618 251.925  L 58.2566 251.39  L 58.5124 250.881  L 58.8255 250.405  L 59.1917 249.968  L 59.6062 249.577  L 60.0633 249.237  L 60.5567 248.952  L 61.0799 248.726  L 61.6258 248.563  L 62.1869 248.464  L 62.7558 248.431  L 63.3246 248.464  L 63.8857 248.563  L 64.4316 248.726  L 64.9548 248.952  L 65.4483 249.237  L 65.9053 249.577  L 66.3198 249.968  L 66.686 250.405  L 66.9991 250.881  L 67.2549 251.39  L 67.4497 251.925  L 67.5811 252.48  L 67.6473 253.046  L 67.6473 253.616  L 67.5811 254.182  L 67.4497 254.736  L 67.2549 255.271  L 66.9991 255.781  L 66.686 256.257  L 66.3198 256.693  L 65.9053 257.084  L 65.4483 257.425  L 64.9548 257.709  L 64.4316 257.935  L 63.8857 258.099  L 63.3246 258.197  L 62.7558 258.231  z" fill="none" stroke="rgb(217, 95, 2)" /><path d="M 22.3497 258.197 L 21.7886 258.099  L 21.2427 257.935  L 20.7195 257.709  L 20.2261 257.425  L 19.769 257.084  L 19.3546 256.693  L 18.9883 256.257  L 18.6752 255.781  L 18.4195 255.271  L 18.2246 254.736  L 18.0932 254.182  L 18.027 253.616  L 18.027 253.046  L 18.0932 252.48  L 18.2246 251.925  L 18.4195 251.39  L 18.6752 250.881  L 18.9883 250.405  L 19.3546 249.968  L 19.769 249.577  L 20.2261 249.237  L 20.7195 248.952  L 21.2427 248.726  L 21.7886 248.563  L 22.3497 248.464  L 22.9186 248.431  L 23.4874 248.464  L 24.0486 248.563  L 24.5944 248.726  L 25.1176 248.952  L 25.6111 249.237  L 26.0681 249.577  L 26.4826 249.968  L 26.8489 250.405  L 27.162 250.881  L 27.4177 251.39  L 27.6126 251.925  L 27.744 252.48  L 27.8101 253.046  L 27.8101 253.616  L 27.744 254.182  L 27.6126 254.736  L 27.4177 255.271  L 27.162 255.781  L 26.8489 256.257  L 26.4826 256.693  L 26.0681 257.084  L 25.6111 257.425  L 25.1176 257.709  L 24.5944 257.935  L 24.0486 258.099  L 23.4874 258.197  L 22.9186 258.231  z" fill="none" stroke="rgb(217, 95, 2)" /><path d="M -17.4874 258.197 L -18.0486 258.099  L -18.5944 257.935  L -19.1176 257.709  L -19.6111 257.425  L -20.0681 257.084  L -20.4826 256.693  L -20.8489 256.257  L -21.162 255.781  L -21.4177 255.271  L -21.6126 254.736  L -21.744 254.182  L -21.8101 253.616  L -21.8101 253.046  L -21.744 252.48  L -21.6126 251.925  L -21.4177 251.39  L -21.162 250.881  L -20.8489 250.405  L -20.4826 249.968  L -20.0681 249.577  L -19.6111 249.237  L -19.1176 248.952  L -18.5944 248.726  L -18.0486 248.563  L -17.4874 248.464  L -16.9186 248.431  L -16.3497 248.464  L -15.7886 248.563  L -15.2427 248.726  L -14.7195 248.952  L -14.2261 249.237  L -13.769 249.577  L -13.3546 249.968  L -12.9883 250.405  L -12.6752 250.881  L -12.4195 251.39  L -12.2246 251.925  L -12.0932 252.48  L -12.027 253.046  L -12.027 253.616  L -12.0932 254.182  L -12.2246 254.736  L -12.4195 255.271  L -12.6752 255.781  L -12.9883 256.257  L -13.3546 256.693  L -13.769 257.084  L -14.2261 257.425  L -14.7195 257.709  L -15.2427 257.935  L -15.7886 258.099  L -16.3497 258.197  L -16.9186 258.231  z" fill="none" stroke="rgb(217, 95, 2)" /><path d="M -57.3246 258.197 L -57.8857 258.099  L -58.4316 257.935  L -58.9548 257.709  L -59.4483 257.425  L -59.9053 257.084  L -60.3198 256.693  L -60.686 256.257  L -60.9991 255.781  L -61.2549 255.271  L -61.4497 254.736  L -61.5811 254.182  L -61.6473 253.616  L -61.6473 253.046  L -61.5811 252.48  L -61.4497 251.925  L -61.2549 251.39  L -60.9991 250.881  L -60.686 250.405  L -60.3198 249.968  L -59.9053 249.577  L -59.4483 249.237  L -58.9548 248.952  L -58.4316 248.726  L -57.8857 248.563  L -57.3246 248.464  L -56.7558 248.431  L -56.1869 248.464  L -55.6258 248.563  L -55.0799 248.726  L -54.5567 248.952  L -54.0633 249.237  L -53.6062 249.577  L -53.1917 249.968  L -52.8255 250.405  L -52.5124 250.881  L -52.2566 251.39  L -52.0618 251.925  L -51.9304 252.48  L -51.8642 253.046  L -51.8642 253.616  L -51.9304 254.182  L -52.0618 254.736  L -52.2566 255.271  L -52.5124 255.781  L -52.8255 256.257  L -53.1917 256.693  L -53.6062 257.084  L -54.0633 257.425  L -54.5567 257.709  L -55.0799 257.935  L -55.6258 258.099  L -56.1869 258.197  L -56.7558 258.231  z" fill="none" stroke="rgb(217, 95, 2)" /><path d="M 105.903 239.938 L 111.14 230.868  L 114.431 232.768  L 109.194 241.838  z" fill="none" stroke="rgb(217, 95, 2)" /><path d="M -108.431 232.768 L -105.14 230.868  L -99.9031 239.938  L -103.194 241.838  z" fill="none" stroke="rgb(217, 95, 2)" /><path d="M 82.1055 223.697 L 81.5444 223.599  L 80.9985 223.435  L 80.4753 223.209  L 79.9818 222.925  L 79.5248 222.584  L 79.1103 222.193  L 78.7441 221.757  L 78.431 221.281  L 78.1752 220.771  L 77.9804 220.236  L 77.8489 219.682  L 77.7828 219.116  L 77.7828 218.546  L 77.8489 217.98  L 77.9804 217.425  L 78.1752 216.89  L 78.431 216.381  L 78.7441 215.905  L 79.1103 215.468  L 79.5248 215.077  L 79.9818 214.737  L 80.4753 214.452  L 80.9985 214.226  L 81.5444 214.063  L 82.1055 213.964  L 82.6743 213.931  L 83.2432 213.964  L 83.8043 214.063  L 84.3502 214.226  L 84.8734 214.452  L 85.3668 214.737  L 85.8239 215.077  L 86.2383 215.468  L 86.6046 215.905  L 86.9177 216.381  L 87.1734 216.89  L 87.3683 217.425  L 87.4997 217.98  L 87.5659 218.546  L 87.5659 219.116  L 87.4997 219.682  L 87.3683 220.236  L 87.1734 220.771  L 86.9177 221.281  L 86.6046 221.757  L 86.2383 222.193  L 85.8239 222.584  L 85.3668 222.925  L 84.8734 223.209  L 84.3502 223.435  L 83.8043 223.599  L 83.2432 223.697  L 82.6743 223.731  z" fill="none" stroke="rgb(217, 95, 2)" /><path d="M 42.2683 223.697 L 41.7072 223.599  L 41.1613 223.435  L 40.6381 223.209  L 40.1447 222.925  L 39.6876 222.584  L 39.2732 222.193  L 38.9069 221.757  L 38.5938 221.281  L 38.3381 220.771  L 38.1432 220.236  L 38.0118 219.682  L 37.9456 219.116  L 37.9456 218.546  L 38.0118 217.98  L 38.1432 217.425  L 38.3381 216.89  L 38.5938 216.381  L 38.9069 215.905  L 39.2732 215.468  L 39.6876 215.077  L 40.1447 214.737  L 40.6381 214.452  L 41.1613 214.226  L 41.7072 214.063  L 42.2683 213.964  L 42.8372 213.931  L 43.406 213.964  L 43.9671 214.063  L 44.513 214.226  L 45.0362 214.452  L 45.5297 214.737  L 45.9867 215.077  L 46.4012 215.468  L 46.7674 215.905  L 47.0805 216.381  L 47.3363 216.89  L 47.5312 217.425  L 47.6626 217.98  L 47.7287 218.546  L 47.7287 219.116  L 47.6626 219.682  L 47.5312 220.236  L 47.3363 220.771  L 47.0805 221.281  L 46.7674 221.757  L 46.4012 222.193  L 45.9867 222.584  L 45.5297 222.925  L 45.0362 223.209  L 44.513 223.435  L 43.9671 223.599  L 43.406 223.697  L 42.8372 223.731  z" fill="none" stroke="rgb(217, 95, 2)" /><path d="M 2.43116 223.697 L 1.87002 223.599  L 1.32416 223.435  L 0.80096 223.209  L 0.307499 222.925  L -0.14955 222.584  L -0.564008 222.193  L -0.930268 221.757  L -1.24338 221.281  L -1.4991 220.771  L -1.69399 220.236  L -1.82539 219.682  L -1.89154 219.116  L -1.89154 218.546  L -1.82539 217.98  L -1.69399 217.425  L -1.4991 216.89  L -1.24338 216.381  L -0.930268 215.905  L -0.564008 215.468  L -0.14955 215.077  L 0.307499 214.737  L 0.80096 214.452  L 1.32416 214.226  L 1.87002 214.063  L 2.43116 213.964  L 3 213.931  L 3.56884 213.964  L 4.12998 214.063  L 4.67584 214.226  L 5.19904 214.452  L 5.6925 214.737  L 6.14955 215.077  L 6.56401 215.468  L 6.93027 215.905  L 7.24338 216.381  L 7.4991 216.89  L 7.69399 217.425  L 7.82539 217.98  L 7.89154 218.546  L 7.89154 219.116  L 7.82539 219.682  L 7.69399 220.236  L 7.4991 220.771  L 7.24338 221.281  L 6.93027 221.757  L 6.56401 222.193  L 6.14955 222.584  L 5.6925 222.925  L 5.19904 223.209  L 4.67584 223.435  L 4.12998 223.599  L 3.56884 223.697  L 3 223.731  z" fill="none" stroke="rgb(217, 95, 2)" /><path d="M -37.406 223.697 L -37.9671 223.599  L -38.513 223.435  L -39.0362 223.209  L -39.5297 222.925  L -39.9867 222.584  L -40.4012 222.193  L -40.7674 221.757  L -41.0805 221.281  L -41.3363 220.771  L -41.5312 220.236  L -41.6626 219.682  L -41.7287 219.116  L -41.7287 218.546  L -41.6626 217.98  L -41.5312 217.425  L -41.3363 216.89  L -41.0805 216.381  L -40.7674 215.905  L -40.4012 215.468  L -39.9867 215.077  L -39.5297 214.737  L -39.0362 214.452  L -38.513 214.226  L -37.9671 214.063  L -37.406 213.964  L -36.8372 213.931  L -36.2683 213.964  L -35.7072 214.063  L -35.1613 214.226  L -34.6381 214.452  L -34.1447 214.737  L -33.6876 215.077  L -33.2732 215.468  L -32.9069 215.905  L -32.5938 216.381  L -32.3381 216.89  L -32.1432 217.425  L -32.0118 217.98  L -31.9456 218.546  L -31.9456 219.116  L -32.0118 219.682  L -32.1432 220.236  L -32.3381 220.771  L -32.5938 221.281  L -32.9069 221.757  L -33.2732 222.193  L -33.6876 222.584  L -34.1447 222.925  L -34.6381 223.209  L -35.1613 223.435  L -35.7072 223.599  L -36.2683 223.697  L -36.8372 223.731  z" fill="none" stroke="rgb(217, 95, 2)" /><path d="M -77.2432 223.697 L -77.8043 223.599  L -78.3502 223.435  L -78.8734 223.209  L -79.3668 222.925  L -79.8239 222.584  L -80.2383 222.193  L -80.6046 221.757  L -80.9177 221.281  L -81.1734 220.771  L -81.3683 220.236  L -81.4997 219.682  L -81.5659 219.116  L -81.5659 218.546  L -81.4997 217.98  L -81.3683 217.425  L -81.1734 216.89  L -80.9177 216.381  L -80.6046 215.905  L -80.2383 215.468  L -79.8239 215.077  L -79.3668 214.737  L -78.8734 214.452  L -78.3502 214.226  L -77.8043 214.063  L -77.2432 213.964  L -76.6743 213.931  L -76.1055 213.964  L -75.5444 214.063  L -74.9985 214.226  L -74.4753 214.452  L -73.9818 214.737  L -73.5248 215.077  L -73.1103 215.468  L -72.7441 215.905  L -72.431 216.381  L -72.1752 216.89  L -71.9804 217.425  L -71.8489 217.98  L -71.7828 218.546  L -71.7828 219.116  L -71.8489 219.682  L -71.9804 220.236  L -72.1752 220.771  L -72.431 221.281  L -72.7441 221.757  L -73.1103 222.193  L -73.5248 222.584  L -73.9818 222.925  L -74.4753 223.209  L -74.9985 223.435  L -75.5444 223.599  L -76.1055 223.697  L -76.6743 223.731  z" fill="none" stroke="rgb(217, 95, 2)" /><path d="M 116.577 221.451 L 121.813 212.381  L 125.104 214.281  L 119.868 223.351  z" fill="none" stroke="rgb(217, 95, 2)" /><path d="M -119.104 214.281 L -115.813 212.381  L -110.577 221.451  L -113.868 223.351  z" fill="none" stroke="rgb(217, 95, 2)" /><path d="M 127.25 202.964 L 132.487 193.894  L 135.778 195.794  L 130.541 204.864  z" fill="none" stroke="rgb(217, 95, 2)" /><path d="M -129.778 195.794 L -126.487 193.894  L -121.25 202.964  L -124.541 204.864  z" fill="none" stroke="rgb(217, 95, 2)" /><path d="M 102.024 189.197 L 101.463 189.099  L 100.917 188.935  L 100.394 188.709  L 99.9004 188.425  L 99.4434 188.084  L 99.0289 187.693  L 98.6627 187.257  L 98.3495 186.781  L 98.0938 186.271  L 97.8989 185.736  L 97.7675 185.182  L 97.7014 184.616  L 97.7014 184.046  L 97.7675 183.48  L 97.8989 182.925  L 98.0938 182.39  L 98.3495 181.881  L 98.6627 181.405  L 99.0289 180.968  L 99.4434 180.577  L 99.9004 180.237  L 100.394 179.952  L 100.917 179.726  L 101.463 179.563  L 102.024 179.464  L 102.593 179.431  L 103.162 179.464  L 103.723 179.563  L 104.269 179.726  L 104.792 179.952  L 105.285 180.237  L 105.742 180.577  L 106.157 180.968  L 106.523 181.405  L 106.836 181.881  L 107.092 182.39  L 107.287 182.925  L 107.418 183.48  L 107.484 184.046  L 107.484 184.616  L 107.418 185.182  L 107.287 185.736  L 107.092 186.271  L 106.836 186.781  L 106.523 187.257  L 106.157 187.693  L 105.742 188.084  L 105.285 188.425  L 104.792 188.709  L 104.269 188.935  L 103.723 189.099  L 103.162 189.197  L 102.593 189.231  z" fill="none" stroke="rgb(217, 95, 2)" /><path d="M 62.1869 189.197 L 61.6258 189.099  L 61.0799 188.935  L 60.5567 188.709  L 60.0633 188.425  L 59.6062 188.084  L 59.1917 187.693  L 58.8255 187.257  L 58.5124 186.781  L 58.2566 186.271  L 58.0618 185.736  L 57.9304 185.182  L 57.8642 184.616  L 57.8642 184.046  L 57.9304 183.48  L 58.0618 182.925  L 58.2566 182.39  L 58.5124 181.881  L 58.8255 181.405  L 59.1917 180.968  L 59.6062 180.577  L 60.0633 180.237  L 60.5567 179.952  L 61.0799 179.726  L 61.6258 179.563  L 62.1869 179.464  L 62.7558 179.431  L 63.3246 179.464  L 63.8857 179.563  L 64.4316 179.726  L 64.9548 179.952  L 65.4483 180.237  L 65.9053 180.577  L 66.3198 180.968  L 66.686 181.405  L 66.9991 181.881  L 67.2549 182.39  L 67.4497 182.925  L 67.5811 183.48  L 67.6473 184.046  L 67.6473 184.616  L 67.5811 185.182  L 67.4497 185.736  L 67.2549 186.271  L 66.9991 186.781  L 66.686 187.257  L 66.3198 187.693  L 65.9053 188.084  L 65.4483 188.425  L 64.9548 188.709  L 64.4316 188.935  L 63.8857 189.099  L 63.3246 189.197  L 62.7558 189.231  z" fill="none" stroke="rgb(217, 95, 2)" /><path d="M 22.3497 189.197 L 21.7886 189.099  L 21.2427 188.935  L 20.7195 188.709  L 20.2261 188.425  L 19.769 188.084  L 19.3546 187.693  L 18.9883 187.257  L 18.6752 186.781  L 18.4195 186.271  L 18.2246 185.736  L 18.0932 185.182  L 18.027 184.616  L 18.027 184.046  L 18.0932 183.48  L 18.2246 182.925  L 18.4195 182.39  L 18.6752 181.881  L 18.9883 181.405  L 19.3546 180.968  L 19.769 180.577  L 20.2261 180.237  L 20.7195 179.952  L 21.2427 179.726  L 21.7886 179.563  L 22.3497 179.464  L 22.9186 179.431  L 23.4874 179.464  L 24.0486 179.563  L 24.5944 179.726  L 25.1176 179.952  L 25.6111 180.237  L 26.0681 180.577  L 26.4826 180.968  L 26.8489 181.405  L 27.162 181.881  L 27.4177 182.39  L 27.6126 182.925  L 27.744 183.48  L 27.8101 184.046  L 27.8101 184.616  L 27.744 185.182  L 27.6126 185.736  L 27.4177 186.271  L 27.162 186.781  L 26.8489 187.257  L 26.4826 187.693  L 26.0681 188.084  L 25.6111 188.425  L 25.1176 188.709  L 24.5944 188.935  L 24.0486 189.099  L 23.4874 189.197  L 22.9186 189.231  z" fill="none" stroke="rgb(217, 95, 2)" /><path d="M -17.4874 189.197 L -18.0486 189.099  L -18.5944 188.935  L -19.1176 188.709  L -19.6111 188.425  L -20.0681 188.084  L -20.4826 187.693  L -20.8489 187.257  L -21.162 186.781  L -21.4177 186.271  L -21.6126 185.736  L -21.744 185.182  L -21.8101 184.616  L -21.8101 184.046  L -21.744 183.48  L -21.6126 182.925  L -21.4177 182.39  L -21.162 181.881  L -20.8489 181.405  L -20.4826 180.968  L -20.0681 180.577  L -19.6111 180.237  L -19.1176 179.952  L -18.5944 179.726  L -18.0486 179.563  L -17.4874 179.464  L -16.9186 179.431  L -16.3497 179.464  L -15.7886 179.563  L -15.2427 179.726  L -14.7195 179.952  L -14.2261 180.237  L -13.769 180.577  L -13.3546 180.968  L -12.9883 181.405  L -12.6752 181.881  L -12.4195 182.39  L -12.2246 182.925  L -12.0932 183.48  L -12.027 184.046  L -12.027 184.616  L -12.0932 185.182  L -12.2246 185.736  L -12.4195 186.271  L -12.6752 186.781  L -12.9883 187.257  L -13.3546 187.693  L -13.769 188.084  L -14.2261 188.425  L -14.7195 188.709  L -15.2427 188.935  L -15.7886 189.099  L -16.3497 189.197  L -16.9186 189.231  z" fill="none" stroke="rgb(217, 95, 2)" /><path d="M -57.3246 189.197 L -57.8857 189.099  L -58.4316 188.935  L -58.9548 188.709  L -59.4483 188.425  L -59.9053 188.084  L -60.3198 187.693  L -60.686 187.257  L -60.9991 186.781  L -61.2549 186.271  L -61.4497 185.736  L -61.5811 185.182  L -61.6473 184.616  L -61.6473 184.046  L -61.5811 183.48  L -61.4497 182.925  L -61.2549 182.39  L -60.9991 181.881  L -60.686 181.405  L -60.3198 180.968  L -59.9053 180.577  L -59.4483 180.237  L -58.9548 179.952  L -58.4316 179.726  L -57.8857 179.563  L -57.3246 179.464  L -56.7558 179.431  L -56.1869 179.464  L -55.6258 179.563  L -55.0799 179.726  L -54.5567 179.952  L -54.0633 180.237  L -53.6062 180.577  L -53.1917 180.968  L -52.8255 181.405  L -52.5124 181.881  L -52.2566 182.39  L -52.0618 182.925  L -51.9304 183.48  L -51.8642 184.046  L -51.8642 184.616  L -51.9304 185.182  L -52.0618 185.736  L -52.2566 186.271  L -52.5124 186.781  L -52.8255 187.257  L -53.1917 187.693  L -53.6062 188.084  L -54.0633 188.425  L -54.5567 188.709  L -55.0799 188.935  L -55.6258 189.099  L -56.1869 189.197  L -56.7558 189.231  z" fill="none" stroke="rgb(217, 95, 2)" /><path d="M -97.1618 189.197 L -97.7229 189.099  L -98.2688 188.935  L -98.792 188.709  L -99.2854 188.425  L -99.7425 188.084  L -100.157 187.693  L -100.523 187.257  L -100.836 186.781  L -101.092 186.271  L -101.287 185.736  L -101.418 185.182  L -101.484 184.616  L -101.484 184.046  L -101.418 183.48  L -101.287 182.925  L -101.092 182.39  L -100.836 181.881  L -100.523 181.405  L -100.157 180.968  L -99.7425 180.577  L -99.2854 180.237  L -98.792 179.952  L -98.2688 179.726  L -97.7229 179.563  L -97.1618 179.464  L -96.5929 179.431  L -96.0241 179.464  L -95.4629 179.563  L -94.9171 179.726  L -94.3939 179.952  L -93.9004 180.237  L -93.4434 180.577  L -93.0289 180.968  L -92.6627 181.405  L -92.3495 181.881  L -92.0938 182.39  L -91.8989 182.925  L -91.7675 183.48  L -91.7014 184.046  L -91.7014 184.616  L -91.7675 185.182  L -91.8989 185.736  L -92.0938 186.271  L -92.3495 186.781  L -92.6627 187.257  L -93.0289 187.693  L -93.4434 188.084  L -93.9004 188.425  L -94.3939 188.709  L -94.9171 188.935  L -95.4629 189.099  L -96.0241 189.197  L -96.5929 189.231  z" fill="none" stroke="rgb(217, 95, 2)" /><path d="M 137.924 184.477 L 143.161 175.406  L 146.452 177.306  L 141.215 186.377  z" fill="none" stroke="rgb(217, 95, 2)" /><path d="M -140.452 177.306 L -137.161 175.406  L -131.924 184.477  L -135.215 186.377  z" fill="none" stroke="rgb(217, 95, 2)" /><path d="M 148.597 165.99 L 153.834 156.919  L 157.125 158.819  L 151.888 167.89  z" fill="none" stroke="rgb(217, 95, 2)" /><path d="M -151.125 158.819 L -147.834 156.919  L -142.597 165.99  L -145.888 167.89  z" fill="none" stroke="rgb(217, 95, 2)" /><path d="M 121.943 154.697 L 121.382 154.599  L 120.836 154.435  L 120.312 154.209  L 119.819 153.925  L 119.362 153.584  L 118.947 153.193  L 118.581 152.757  L 118.268 152.281  L 118.012 151.771  L 117.818 151.236  L 117.686 150.682  L 117.62 150.116  L 117.62 149.546  L 117.686 148.98  L 117.818 148.425  L 118.012 147.89  L 118.268 147.381  L 118.581 146.905  L 118.947 146.468  L 119.362 146.077  L 119.819 145.737  L 120.312 145.452  L 120.836 145.226  L 121.382 145.063  L 121.943 144.964  L 122.512 144.931  L 123.08 144.964  L 123.641 145.063  L 124.187 145.226  L 124.711 145.452  L 125.204 145.737  L 125.661 146.077  L 126.076 146.468  L 126.442 146.905  L 126.755 147.381  L 127.011 147.89  L 127.205 148.425  L 127.337 148.98  L 127.403 149.546  L 127.403 150.116  L 127.337 150.682  L 127.205 151.236  L 127.011 151.771  L 126.755 152.281  L 126.442 152.757  L 126.076 153.193  L 125.661 153.584  L 125.204 153.925  L 124.711 154.209  L 124.187 154.435  L 123.641 154.599  L 123.08 154.697  L 122.512 154.731  z" fill="none" stroke="rgb(217, 95, 2)" /><path d="M 82.1055 154.697 L 81.5444 154.599  L 80.9985 154.435  L 80.4753 154.209  L 79.9818 153.925  L 79.5248 153.584  L 79.1103 153.193  L 78.7441 152.757  L 78.431 152.281  L 78.1752 151.771  L 77.9804 151.236  L 77.8489 150.682  L 77.7828 150.116  L 77.7828 149.546  L 77.8489 148.98  L 77.9804 148.425  L 78.1752 147.89  L 78.431 147.381  L 78.7441 146.905  L 79.1103 146.468  L 79.5248 146.077  L 79.9818 145.737  L 80.4753 145.452  L 80.9985 145.226  L 81.5444 145.063  L 82.1055 144.964  L 82.6743 144.931  L 83.2432 144.964  L 83.8043 145.063  L 84.3502 145.226  L 84.8734 145.452  L 85.3668 145.737  L 85.8239 146.077  L 86.2383 146.468  L 86.6046 146.905  L 86.9177 147.381  L 87.1734 147.89  L 87.3683 148.425  L 87.4997 148.98  L 87.5659 149.546  L 87.5659 150.116  L 87.4997 150.682  L 87.3683 151.236  L 87.1734 151.771  L 86.9177 152.281  L 86.6046 152.757  L 86.2383 153.193  L 85.8239 153.584  L 85.3668 153.925  L 84.8734 154.209  L 84.3502 154.435  L 83.8043 154.599  L 83.2432 154.697  L 82.6743 154.731  z" fill="none" stroke="rgb(217, 95, 2)" /><path d="M 42.2683 154.697 L 41.7072 154.599  L 41.1613 154.435  L 40.6381 154.209  L 40.1447 153.925  L 39.6876 153.584  L 39.2732 153.193  L 38.9069 152.757  L 38.5938 152.281  L 38.3381 151.771  L 38.1432 151.236  L 38.0118 150.682  L 37.9456 150.116  L 37.9456 149.546  L 38.0118 148.98  L 38.1432 148.425  L 38.3381 147.89  L 38.5938 147.381  L 38.9069 146.905  L 39.2732 146.468  L 39.6876 146.077  L 40.1447 145.737  L 40.6381 145.452  L 41.1613 145.226  L 41.7072 145.063  L 42.2683 144.964  L 42.8372 144.931  L 43.406 144.964  L 43.9671 145.063  L 44.513 145.226  L 45.0362 145.452  L 45.5297 145.737  L 45.9867 146.077  L 46.4012 146.468  L 46.7674 146.905  L 47.0805 147.381  L 47.3363 147.89  L 47.5312 148.425  L 47.6626 148.98  L 47.7287 149.546  L 47.7287 150.116  L 47.6626 150.682  L 47.5312 151.236  L 47.3363 151.771  L 47.0805 152.281  L 46.7674 152.757  L 46.4012 153.193  L 45.9867 153.584  L 45.5297 153.925  L 45.0362 154.209  L 44.513 154.435  L 43.9671 154.599  L 43.406 154.697  L 42.8372 154.731  z" fill="none" stroke="rgb(217, 95, 2)" /><path d="M 2.43116 154.697 L 1.87002 154.599  L 1.32416 154.435  L 0.80096 154.209  L 0.307499 153.925  L -0.14955 153.584  L -0.564008 153.193  L -0.930268 152.757  L -1.24338 152.281  L -1.4991 151.771  L -1.69399 151.236  L -1.82539 150.682  L -1.89154 150.116  L -1.89154 149.546  L -1.82539 148.98  L -1.69399 148.425  L -1.4991 147.89  L -1.24338 147.381  L -0.930268 146.905  L -0.564008 146.468  L -0.14955 146.077  L 0.307499 145.737  L 0.80096 145.452  L 1.32416 145.226  L 1.87002 145.063  L 2.43116 144.964  L 3 144.931  L 3.56884 144.964  L 4.12998 145.063  L 4.67584 145.226  L 5.19904 145.452  L 5.6925 145.737  L 6.14955 146.077  L 6.56401 146.468  L 6.93027 146.905  L 7.24338 147.381  L 7.4991 147.89  L 7.69399 148.425  L 7.82539 148.98  L 7.89154 149.546  L 7.89154 150.116  L 7.82539 150.682  L 7.69399 151.236  L 7.4991 151.771  L 7.24338 152.281  L 6.93027 152.757  L 6.56401 153.193  L 6.14955 153.584  L 5.6925 153.925  L 5.19904 154.209  L 4.67584 154.435  L 4.12998 154.599  L 3.56884 154.697  L 3 154.731  z" fill="none" stroke="rgb(217, 95, 2)" /><path d="M -37.406 154.697 L -37.9671 154.599  L -38.513 154.435  L -39.0362 154.209  L -39.5297 153.925  L -39.9867 153.584  L -40.4012 153.193  L -40.7674 152.757  L -41.0805 152.281  L -41.3363 151.771  L -41.5312 151.236  L -41.6626 150.682  L -41.7287 150.116  L -41.7287 149.546  L -41.6626 148.98  L -41.5312 148.425  L -41.3363 147.89  L -41.0805 147.381  L -40.7674 146.905  L -40.4012 146.468  L -39.9867 146.077  L -39.5297 145.737  L -39.0362 145.452  L -38.513 145.226  L -37.9671 145.063  L -37.406 144.964  L -36.8372 144.931  L -36.2683 144.964  L -35.7072 145.063  L -35.1613 145.226  L -34.6381 145.452  L -34.1447 145.737  L -33.6876 146.077  L -33.2732 146.468  L -32.9069 146.905  L -32.5938 147.381  L -32.3381 147.89  L -32.1432 148.425  L -32.0118 148.98  L -31.9456 149.546  L -31.9456 150.116  L -32.0118 150.682  L -32.1432 151.236  L -32.3381 151.771  L -32.5938 152.281  L -32.9069 152.757  L -33.2732 153.193  L -33.6876 153.584  L -34.1447 153.925  L -34.6381 154.209  L -35.1613 154.435  L -35.7072 154.599  L -36.2683 154.697  L -36.8372 154.731  z" fill="none" stroke="rgb(217, 95, 2)" /><path d="M -77.2432 154.697 L -77.8043 154.599  L -78.3502 154.435  L -78.8734 154.209  L -79.3668 153.925  L -79.8239 153.584  L -80.2383 153.193  L -80.6046 152.757  L -80.9177 152.281  L -81.1734 151.771  L -81.3683 151.236  L -81.4997 150.682  L -81.5659 150.116  L -81.5659 149.546  L -81.4997 148.98  L -81.3683 148.425  L -81.1734 147.89  L -80.9177 147.381  L -80.6046 146.905  L -80.2383 146.468  L -79.8239 146.077  L -79.3668 145.737  L -78.8734 145.452  L -78.3502 145.226  L -77.8043 145.063  L -77.2432 144.964  L -76.6743 144.931  L -76.1055 144.964  L -75.5444 145.063  L -74.9985 145.226  L -74.4753 145.452  L -73.9818 145.737  L -73.5248 146.077  L -73.1103 146.468  L -72.7441 146.905  L -72.431 147.381  L -72.1752 147.89  L -71.9804 148.425  L -71.8489 148.98  L -71.7828 149.546  L -71.7828 150.116  L -71.8489 150.682  L -71.9804 151.236  L -72.1752 151.771  L -72.431 152.281  L -72.7441 152.757  L -73.1103 153.193  L -73.5248 153.584  L -73.9818 153.925  L -74.4753 154.209  L -74.9985 154.435  L -75.5444 154.599  L -76.1055 154.697  L -76.6743 154.731  z" fill="none" stroke="rgb(217, 95, 2)" /><path d="M -117.08 154.697 L -117.641 154.599  L -118.187 154.435  L -118.711 154.209  L -119.204 153.925  L -119.661 153.584  L -120.076 153.193  L -120.442 152.757  L -120.755 152.281  L -121.011 151.771  L -121.205 151.236  L -121.337 150.682  L -121.403 150.116  L -121.403 149.546  L -121.337 148.98  L -121.205 148.425  L -121.011 147.89  L -120.755 147.381  L -120.442 146.905  L -120.076 146.468  L -119.661 146.077  L -119.204 145.737  L -118.711 145.452  L -118.187 145.226  L -117.641 145.063  L -117.08 144.964  L -116.512 144.931  L -115.943 144.964  L -115.382 145.063  L -114.836 145.226  L -114.312 145.452  L -113.819 145.737  L -113.362 146.077  L -112.947 146.468  L -112.581 146.905  L -112.268 147.381  L -112.012 147.89  L -111.818 148.425  L -111.686 148.98  L -111.62 149.546  L -111.62 150.116  L -111.686 150.682  L -111.818 151.236  L -112.012 151.771  L -112.268 152.281  L -112.581 152.757  L -112.947 153.193  L -113.362 153.584  L -113.819 153.925  L -114.312 154.209  L -114.836 154.435  L -115.382 154.599  L -115.943 154.697  L -116.512 154.731  z" fill="none" stroke="rgb(217, 95, 2)" /><path d="M 148.597 133.672 L 151.888 131.772  L 157.125 140.842  L 153.834 142.742  z" fill="none" stroke="rgb(217, 95, 2)" /><path d="M -151.125 140.842 L -145.888 131.772  L -142.597 133.672  L -147.834 142.742  z" fill="none" stroke="rgb(217, 95, 2)" /><path d="M -140.452 122.355 L -135.215 113.285  L -131.924 115.185  L -137.161 124.255  z" fill="none" stroke="rgb(217, 95, 2)" /><path d="M 137.924 115.185 L 141.215 113.285  L 146.452 122.355  L 143.161 124.255  z" fill="none" stroke="rgb(217, 95, 2)" /><path d="M 102.024 120.197 L 101.463 120.099  L 100.917 119.935  L 100.394 119.709  L 99.9004 119.425  L 99.4434 119.084  L 99.0289 118.693  L 98.6627 118.257  L 98.3495 117.781  L 98.0938 117.271  L 97.8989 116.736  L 97.7675 116.182  L 97.7014 115.616  L 97.7014 115.046  L 97.7675 114.48  L 97.8989 113.925  L 98.0938 113.39  L 98.3495 112.881  L 98.6627 112.405  L 99.0289 111.968  L 99.4434 111.577  L 99.9004 111.237  L 100.394 110.952  L 100.917 110.726  L 101.463 110.563  L 102.024 110.464  L 102.593 110.431  L 103.162 110.464  L 103.723 110.563  L 104.269 110.726  L 104.792 110.952  L 105.285 111.237  L 105.742 111.577  L 106.157 111.968  L 106.523 112.405  L 106.836 112.881  L 107.092 113.39  L 107.287 113.925  L 107.418 114.48  L 107.484 115.046  L 107.484 115.616  L 107.418 116.182  L 107.287 116.736  L 107.092 117.271  L 106.836 117.781  L 106.523 118.257  L 106.157 118.693  L 105.742 119.084  L 105.285 119.425  L 104.792 119.709  L 104.269 119.935  L 103.723 120.099  L 103.162 120.197  L 102.593 120.231  z" fill="none" stroke="rgb(217, 95, 2)" /><path d="M 62.1869 120.197 L 61.6258 120.099  L 61.0799 119.935  L 60.5567 119.709  L 60.0633 119.425  L 59.6062 119.084  L 59.1917 118.693  L 58.8255 118.257  L 58.5124 117.781  L 58.2566 117.271  L 58.0618 116.736  L 57.9304 116.182  L 57.8642 115.616  L 57.8642 115.046  L 57.9304 114.48  L 58.0618 113.925  L 58.2566 113.39  L 58.5124 112.881  L 58.8255 112.405  L 59.1917 111.968  L 59.6062 111.577  L 60.0633 111.237  L 60.5567 110.952  L 61.0799 110.726  L 61.6258 110.563  L 62.1869 110.464  L 62.7558 110.431  L 63.3246 110.464  L 63.8857 110.563  L 64.4316 110.726  L 64.9548 110.952  L 65.4483 111.237  L 65.9053 111.577  L 66.3198 111.968  L 66.686 112.405  L 66.9991 112.881  L 67.2549 113.39  L 67.4497 113.925  L 67.5811 114.48  L 67.6473 115.046  L 67.6473 115.616  L 67.5811 116.182  L 67.4497 116.736  L 67.2549 117.271  L 66.9991 117.781  L 66.686 118.257  L 66.3198 118.693  L 65.9053 119.084  L 65.4483 119.425  L 64.9548 119.709  L 64.4316 119.935  L 63.8857 120.099  L 63.3246 120.197  L 62.7558 120.231  z" fill="none" stroke="rgb(217, 95, 2)" /><path d="M 22.3497 120.197 L 21.7886 120.099  L 21.2427 119.935  L 20.7195 119.709  L 20.2261 119.425  L 19.769 119.084  L 19.3546 118.693  L 18.9883 118.257  L 18.6752 117.781  L 18.4195 117.271  L 18.2246 116.736  L 18.0932 116.182  L 18.027 115.616  L 18.027 115.046  L 18.0932 114.48  L 18.2246 113.925  L 18.4195 113.39  L 18.6752 112.881  L 18.9883 112.405  L 19.3546 111.968  L 19.769 111.577  L 20.2261 111.237  L 20.7195 110.952  L 21.2427 110.726  L 21.7886 110.563  L 22.3497 110.464  L 22.9186 110.431  L 23.4874 110.464  L 24.0486 110.563  L 24.5944 110.726  L 25.1176 110.952  L 25.6111 111.237  L 26.0681 111.577  L 26.4826 111.968  L 26.8489 112.405  L 27.162 112.881  L 27.4177 113.39  L 27.6126 113.925  L 27.744 114.48  L 27.8101 115.046  L 27.8101 115.616  L 27.744 116.182  L 27.6126 116.736  L 27.4177 117.271  L 27.162 117.781  L 26.8489 118.257  L 26.4826 118.693  L 26.0681 119.084  L 25.6111 119.425  L 25.1176 119.709  L 24.5944 119.935  L 24.0486 120.099  L 23.4874 120.197  L 22.9186 120.231  z" fill="none" stroke="rgb(217, 95, 2)" /><path d="M -17.4874 120.197 L -18.0486 120.099  L -18.5944 119.935  L -19.1176 119.709  L -19.6111 119.425  L -20.0681 119.084  L -20.4826 118.693  L -20.8489 118.257  L -21.162 117.781  L -21.4177 117.271  L -21.6126 116.736  L -21.744 116.182  L -21.8101 115.616  L -21.8101 115.046  L -21.744 114.48  L -21.6126 113.925  L -21.4177 113.39  L -21.162 112.881  L -20.8489 112.405  L -20.4826 111.968  L -20.0681 111.577  L -19.6111 111.237  L -19.1176 110.952  L -18.5944 110.726  L -18.0486 110.563  L -17.4874 110.464  L -16.9186 110.431  L -16.3497 110.464  L -15.7886 110.563  L -15.2427 110.726  L -14.7195 110.952  L -14.2261 111.237  L -13.769 111.577  L -13.3546 111.968  L -12.9883 112.405  L -12.6752 112.881  L -12.4195 113.39  L -12.2246 113.925  L -12.0932 114.48  L -12.027 115.046  L -12.027 115.616  L -12.0932 116.182  L -12.2246 116.736  L -12.4195 117.271  L -12.6752 117.781  L -12.9883 118.257  L -13.3546 118.693  L -13.769 119.084  L -14.2261 119.425  L -14.7195 119.709  L -15.2427 119.935  L -15.7886 120.099  L -16.3497 120.197  L -16.9186 120.231  z" fill="none" stroke="rgb(217, 95, 2)" /><path d="M -57.3246 120.197 L -57.8857 120.099  L -58.4316 119.935  L -58.9548 119.709  L -59.4483 119.425  L -59.9053 119.084  L -60.3198 118.693  L -60.686 118.257  L -60.9991 117.781  L -61.2549 117.271  L -61.4497 116.736  L -61.5811 116.182  L -61.6473 115.616  L -61.6473 115.046  L -61.5811 114.48  L -61.4497 113.925  L -61.2549 113.39  L -60.9991 112.881  L -60.686 112.405  L -60.3198 111.968  L -59.9053 111.577  L -59.4483 111.237  L -58.9548 110.952  L -58.4316 110.726  L -57.8857 110.563  L -57.3246 110.464  L -56.7558 110.431  L -56.1869 110.464  L -55.6258 110.563  L -55.0799 110.726  L -54.5567 110.952  L -54.0633 111.237  L -53.6062 111.577  L -53.1917 111.968  L -52.8255 112.405  L -52.5124 112.881  L -52.2566 113.39  L -52.0618 113.925  L -51.9304 114.48  L -51.8642 115.046  L -51.8642 115.616  L -51.9304 116.182  L -52.0618 116.736  L -52.2566 117.271  L -52.5124 117.781  L -52.8255 118.257  L -53.1917 118.693  L -53.6062 119.084  L -54.0633 119.425  L -54.5567 119.709  L -55.0799 119.935  L -55.6258 120.099  L -56.1869 120.197  L -56.7558 120.231  z" fill="none" stroke="rgb(217, 95, 2)" /><path d="M -97.1618 120.197 L -97.7229 120.099  L -98.2688 119.935  L -98.792 119.709  L -99.2854 119.425  L -99.7425 119.084  L -100.157 118.693  L -100.523 118.257  L -100.836 117.781  L -101.092 117.271  L -101.287 116.736  L -101.418 116.182  L -101.484 115.616  L -101.484 115.046  L -101.418 114.48  L -101.287 113.925  L -101.092 113.39  L -100.836 112.881  L -100.523 112.405  L -100.157 111.968  L -99.7425 111.577  L -99.2854 111.237  L -98.792 110.952  L -98.2688 110.726  L -97.7229 110.563  L -97.1618 110.464  L -96.5929 110.431  L -96.0241 110.464  L -95.4629 110.563  L -94.9171 110.726  L -94.3939 110.952  L -93.9004 111.237  L -93.4434 111.577  L -93.0289 111.968  L -92.6627 112.405  L -92.3495 112.881  L -92.0938 113.39  L -91.8989 113.925  L -91.7675 114.48  L -91.7014 115.046  L -91.7014 115.616  L -91.7675 116.182  L -91.8989 116.736  L -92.0938 117.271  L -92.3495 117.781  L -92.6627 118.257  L -93.0289 118.693  L -93.4434 119.084  L -93.9004 119.425  L -94.3939 119.709  L -94.9171 119.935  L -95.4629 120.099  L -96.0241 120.197  L -96.5929 120.231  z" fill="none" stroke="rgb(217, 95, 2)" /><path d="M 127.25 96.6975 L 130.541 94.7975  L 135.778 103.868  L 132.487 105.768  z" fill="none" stroke="rgb(217, 95, 2)" /><path d="M -129.778 103.868 L -124.541 94.7975  L -121.25 96.6975  L -126.487 105.768  z" fill="none" stroke="rgb(217, 95, 2)" /><path d="M 116.577 78.2103 L 119.868 76.3103  L 125.104 85.3807  L 121.813 87.2807  z" fill="none" stroke="rgb(217, 95, 2)" /><path d="M -119.104 85.3807 L -113.868 76.3103  L -110.577 78.2103  L -115.813 87.2807  z" fill="none" stroke="rgb(217, 95, 2)" /><path d="M 82.1055 85.6975 L 81.5444 85.5985  L 80.9985 85.4351  L 80.4753 85.2094  L 79.9818 84.9245  L 79.5248 84.5843  L 79.1103 84.1932  L 78.7441 83.7567  L 78.431 83.2807  L 78.1752 82.7715  L 77.9804 82.236  L 77.8489 81.6816  L 77.7828 81.1157  L 77.7828 80.5459  L 77.8489 79.9799  L 77.9804 79.4255  L 78.1752 78.89  L 78.431 78.3808  L 78.7441 77.9048  L 79.1103 77.4683  L 79.5248 77.0773  L 79.9818 76.737  L 80.4753 76.4521  L 80.9985 76.2264  L 81.5444 76.063  L 82.1055 75.9641  L 82.6743 75.9309  L 83.2432 75.9641  L 83.8043 76.063  L 84.3502 76.2264  L 84.8734 76.4521  L 85.3668 76.737  L 85.8239 77.0773  L 86.2383 77.4683  L 86.6046 77.9048  L 86.9177 78.3808  L 87.1734 78.89  L 87.3683 79.4255  L 87.4997 79.9799  L 87.5659 80.5459  L 87.5659 81.1157  L 87.4997 81.6816  L 87.3683 82.236  L 87.1734 82.7715  L 86.9177 83.2807  L 86.6046 83.7567  L 86.2383 84.1932  L 85.8239 84.5843  L 85.3668 84.9245  L 84.8734 85.2094  L 84.3502 85.4351  L 83.8043 85.5985  L 83.2432 85.6975  L 82.6743 85.7306  z" fill="none" stroke="rgb(217, 95, 2)" /><path d="M 42.2683 85.6975 L 41.7072 85.5985  L 41.1613 85.4351  L 40.6381 85.2094  L 40.1447 84.9245  L 39.6876 84.5843  L 39.2732 84.1932  L 38.9069 83.7567  L 38.5938 83.2807  L 38.3381 82.7715  L 38.1432 82.236  L 38.0118 81.6816  L 37.9456 81.1157  L 37.9456 80.5459  L 38.0118 79.9799  L 38.1432 79.4255  L 38.3381 78.89  L 38.5938 78.3808  L 38.9069 77.9048  L 39.2732 77.4683  L 39.6876 77.0773  L 40.1447 76.737  L 40.6381 76.4521  L 41.1613 76.2264  L 41.7072 76.063  L 42.2683 75.9641  L 42.8372 75.9309  L 43.406 75.9641  L 43.9671 76.063  L 44.513 76.2264  L 45.0362 76.4521  L 45.5297 76.737  L 45.9867 77.0773  L 46.4012 77.4683  L 46.7674 77.9048  L 47.0805 78.3808  L 47.3363 78.89  L 47.5312 79.4255  L 47.6626 79.9799  L 47.7287 80.5459  L 47.7287 81.1157  L 47.6626 81.6816  L 47.5312 82.236  L 47.3363 82.7715  L 47.0805 83.2807  L 46.7674 83.7567  L 46.4012 84.1932  L 45.9867 84.5843  L 45.5297 84.9245  L 45.0362 85.2094  L 44.513 85.4351  L 43.9671 85.5985  L 43.406 85.6975  L 42.8372 85.7306  z" fill="none" stroke="rgb(217, 95, 2)" /><path d="M 2.43116 85.6975 L 1.87002 85.5985  L 1.32416 85.4351  L 0.80096 85.2094  L 0.307499 84.9245  L -0.14955 84.5843  L -0.564008 84.1932  L -0.930268 83.7567  L -1.24338 83.2807  L -1.4991 82.7715  L -1.69399 82.236  L -1.82539 81.6816  L -1.89154 81.1157  L -1.89154 80.5459  L -1.82539 79.9799  L -1.69399 79.4255  L -1.4991 78.89  L -1.24338 78.3808  L -0.930268 77.9048  L -0.564008 77.4683  L -0.14955 77.0773  L 0.307499 76.737  L 0.80096 76.4521  L 1.32416 76.2264  L 1.87002 76.063  L 2.43116 75.9641  L 3 75.9309  L 3.56884 75.9641  L 4.12998 76.063  L 4.67584 76.2264  L 5.19904 76.4521  L 5.6925 76.737  L 6.14955 77.0773  L 6.56401 77.4683  L 6.93027 77.9048  L 7.24338 78.3808  L 7.4991 78.89  L 7.69399 79.4255  L 7.82539 79.9799  L 7.89154 80.5459  L 7.89154 81.1157  L 7.82539 81.6816  L 7.69399 82.236  L 7.4991 82.7715  L 7.24338 83.2807  L 6.93027 83.7567  L 6.56401 84.1932  L 6.14955 84.5843  L 5.6925 84.9245  L 5.19904 85.2094  L 4.67584 85.4351  L 4.12998 85.5985  L 3.56884 85.6975  L 3 85.7306  z" fill="none" stroke="rgb(217, 95, 2)" /><path d="M -37.406 85.6975 L -37.9671 85.5985  L -38.513 85.4351  L -39.0362 85.2094  L -39.5297 84.9245  L -39.9867 84.5843  L -40.4012 84.1932  L -40.7674 83.7567  L -41.0805 83.2807  L -41.3363 82.7715  L -41.5312 82.236  L -41.6626 81.6816  L -41.7287 81.1157  L -41.7287 80.5459  L -41.6626 79.9799  L -41.5312 79.4255  L -41.3363 78.89  L -41.0805 78.3808  L -40.7674 77.9048  L -40.4012 77.4683  L -39.9867 77.0773  L -39.5297 76.737  L -39.0362 76.4521  L -38.513 76.2264  L -37.9671 76.063  L -37.406 75.9641  L -36.8372 75.9309  L -36.2683 75.9641  L -35.7072 76.063  L -35.1613 76.2264  L -34.6381 76.4521  L -34.1447 76.737  L -33.6876 77.0773  L -33.2732 77.4683  L -32.9069 77.9048  L -32.5938 78.3808  L -32.3381 78.89  L -32.1432 79.4255  L -32.0118 79.9799  L -31.9456 80.5459  L -31.9456 81.1157  L -32.0118 81.6816  L -32.1432 82.236  L -32.3381 82.7715  L -32.5938 83.2807  L -32.9069 83.7567  L -33.2732 84.1932  L -33.6876 84.5843  L -34.1447 84.9245  L -34.6381 85.2094  L -35.1613 85.4351  L -35.7072 85.5985  L -36.2683 85.6975  L -36.8372 85.7306  z" fill="none" stroke="rgb(217, 95, 2)" /><path d="M -77.2432 85.6975 L -77.8043 85.5985  L -78.3502 85.4351  L -78.8734 85.2094  L -79.3668 84.9245  L -79.8239 84.5843  L -80.2383 84.1932  L -80.6046 83.7567  L -80.9177 83.2807  L -81.1734 82.7715  L -81.3683 82.236  L -81.4997 81.6816  L -81.5659 81.1157  L -81.5659 80.5459  L -81.4997 79.9799  L -81.3683 79.4255  L -81.1734 78.89  L -80.9177 78.3808  L -80.6046 77.9048  L -80.2383 77.4683  L -79.8239 77.0773  L -79.3668 76.737  L -78.8734 76.4521  L -78.3502 76.2264  L -77.8043 76.063  L -77.2432 75.9641  L -76.6743 75.9309  L -76.1055 75.9641  L -75.5444 76.063  L -74.9985 76.2264  L -74.4753 76.4521  L -73.9818 76.737  L -73.5248 77.0773  L -73.1103 77.4683  L -72.7441 77.9048  L -72.431 78.3808  L -72.1752 78.89  L -71.9804 79.4255  L -71.8489 79.9799  L -71.7828 80.5459  L -71.7828 81.1157  L -71.8489 81.6816  L -71.9804 82.236  L -72.1752 82.7715  L -72.431 83.2807  L -72.7441 83.7567  L -73.1103 84.1932  L -73.5248 84.5843  L -73.9818 84.9245  L -74.4753 85.2094  L -74.9985 85.4351  L -75.5444 85.5985  L -76.1055 85.6975  L -76.6743 85.7306  z" fill="none" stroke="rgb(217, 95, 2)" /><path d="M 105.903 59.7231 L 109.194 57.8231  L 114.431 66.8935  L 111.14 68.7935  z" fill="none" stroke="rgb(217, 95, 2)" /><path d="M -108.431 66.8935 L -103.194 57.8231  L -99.9031 59.7231  L -105.14 68.7935  z" fill="none" stroke="rgb(217, 95, 2)" /><path d="M 62.1869 51.1975 L 61.6258 51.0985  L 61.0799 50.9351  L 60.5567 50.7094  L 60.0633 50.4245  L 59.6062 50.0843  L 59.1917 49.6932  L 58.8255 49.2567  L 58.5124 48.7807  L 58.2566 48.2715  L 58.0618 47.736  L 57.9304 47.1816  L 57.8642 46.6157  L 57.8642 46.0459  L 57.9304 45.4799  L 58.0618 44.9255  L 58.2566 44.39  L 58.5124 43.8808  L 58.8255 43.4048  L 59.1917 42.9683  L 59.6062 42.5773  L 60.0633 42.237  L 60.5567 41.9521  L 61.0799 41.7264  L 61.6258 41.563  L 62.1869 41.4641  L 62.7558 41.4309  L 63.3246 41.4641  L 63.8857 41.563  L 64.4316 41.7264  L 64.9548 41.9521  L 65.4483 42.237  L 65.9053 42.5773  L 66.3198 42.9683  L 66.686 43.4048  L 66.9991 43.8808  L 67.2549 44.39  L 67.4497 44.9255  L 67.5811 45.4799  L 67.6473 46.0459  L 67.6473 46.6157  L 67.5811 47.1816  L 67.4497 47.736  L 67.2549 48.2715  L 66.9991 48.7807  L 66.686 49.2567  L 66.3198 49.6932  L 65.9053 50.0843  L 65.4483 50.4245  L 64.9548 50.7094  L 64.4316 50.9351  L 63.8857 51.0985  L 63.3246 51.1975  L 62.7558 51.2306  z" fill="none" stroke="rgb(217, 95, 2)" /><path d="M 22.3497 51.1975 L 21.7886 51.0985  L 21.2427 50.9351  L 20.7195 50.7094  L 20.2261 50.4245  L 19.769 50.0843  L 19.3546 49.6932  L 18.9883 49.2567  L 18.6752 48.7807  L 18.4195 48.2715  L 18.2246 47.736  L 18.0932 47.1816  L 18.027 46.6157  L 18.027 46.0459  L 18.0932 45.4799  L 18.2246 44.9255  L 18.4195 44.39  L 18.6752 43.8808  L 18.9883 43.4048  L 19.3546 42.9683  L 19.769 42.5773  L 20.2261 42.237  L 20.7195 41.9521  L 21.2427 41.7264  L 21.7886 41.563  L 22.3497 41.4641  L 22.9186 41.4309  L 23.4874 41.4641  L 24.0486 41.563  L 24.5944 41.7264  L 25.1176 41.9521  L 25.6111 42.237  L 26.0681 42.5773  L 26.4826 42.9683  L 26.8489 43.4048  L 27.162 43.8808  L 27.4177 44.39  L 27.6126 44.9255  L 27.744 45.4799  L 27.8101 46.0459  L 27.8101 46.6157  L 27.744 47.1816  L 27.6126 47.736  L 27.4177 48.2715  L 27.162 48.7807  L 26.8489 49.2567  L 26.4826 49.6932  L 26.0681 50.0843  L 25.6111 50.4245  L 25.1176 50.7094  L 24.5944 50.9351  L 24.0486 51.0985  L 23.4874 51.1975  L 22.9186 51.2306  z" fill="none" stroke="rgb(217, 95, 2)" /><path d="M -17.4874 51.1975 L -18.0486 51.0985  L -18.5944 50.9351  L -19.1176 50.7094  L -19.6111 50.4245  L -20.0681 50.0843  L -20.4826 49.6932  L -20.8489 49.2567  L -21.162 48.7807  L -21.4177 48.2715  L -21.6126 47.736  L -21.744 47.1816  L -21.8101 46.6157  L -21.8101 46.0459  L -21.744 45.4799  L -21.6126 44.9255  L -21.4177 44.39  L -21.162 43.8808  L -20.8489 43.4048  L -20.4826 42.9683  L -20.0681 42.5773  L -19.6111 42.237  L -19.1176 41.9521  L -18.5944 41.7264  L -18.0486 41.563  L -17.4874 41.4641  L -16.9186 41.4309  L -16.3497 41.4641  L -15.7886 41.563  L -15.2427 41.7264  L -14.7195 41.9521  L -14.2261 42.237  L -13.769 42.5773  L -13.3546 42.9683  L -12.9883 43.4048  L -12.6752 43.8808  L -12.4195 44.39  L -12.2246 44.9255  L -12.0932 45.4799  L -12.027 46.0459  L -12.027 46.6157  L -12.0932 47.1816  L -12.2246 47.736  L -12.4195 48.2715  L -12.6752 48.7807  L -12.9883 49.2567  L -13.3546 49.6932  L -13.769 50.0843  L -14.2261 50.4245  L -14.7195 50.7094  L -15.2427 50.9351  L -15.7886 51.0985  L -16.3497 51.1975  L -16.9186 51.2306  z" fill="none" stroke="rgb(217, 95, 2)" /><path d="M -57.3246 51.1975 L -57.8857 51.0985  L -58.4316 50.9351  L -58.9548 50.7094  L -59.4483 50.4245  L -59.9053 50.0843  L -60.3198 49.6932  L -60.686 49.2567  L -60.9991 48.7807  L -61.2549 48.2715  L -61.4497 47.736  L -61.5811 47.1816  L -61.6473 46.6157  L -61.6473 46.0459  L -61.5811 45.4799  L -61.4497 44.9255  L -61.2549 44.39  L -60.9991 43.8808  L -60.686 43.4048  L -60.3198 42.9683  L -59.9053 42.5773  L -59.4483 42.237  L -58.9548 41.9521  L -58.4316 41.7264  L -57.8857 41.563  L -57.3246 41.4641  L -56.7558 41.4309  L -56.1869 41.4641  L -55.6258 41.563  L -55.0799 41.7264  L -54.5567 41.9521  L -54.0633 42.237  L -53.6062 42.5773  L -53.1917 42.9683  L -52.8255 43.4048  L -52.5124 43.8808  L -52.2566 44.39  L -52.0618 44.9255  L -51.9304 45.4799  L -51.8642 46.0459  L -51.8642 46.6157  L -51.9304 47.1816  L -52.0618 47.736  L -52.2566 48.2715  L -52.5124 48.7807  L -52.8255 49.2567  L -53.1917 49.6932  L -53.6062 50.0843  L -54.0633 50.4245  L -54.5567 50.7094  L -55.0799 50.9351  L -55.6258 51.0985  L -56.1869 51.1975  L -56.7558 51.2306  z" fill="none" stroke="rgb(217, 95, 2)" /><path d="M 95.2295 41.236 L 98.5204 39.336  L 103.757 48.4063  L 100.466 50.3063  z" fill="none" stroke="rgb(217, 95, 2)" /><path d="M -97.7572 48.4063 L -92.5204 39.336  L -89.2295 41.236  L -94.4663 50.3063  z" fill="none" stroke="rgb(217, 95, 2)" /><path d="M 84.5559 22.7488 L 87.8468 20.8488  L 93.0836 29.9192  L 89.7927 31.8192  z" fill="none" stroke="rgb(217, 95, 2)" /><path d="M -87.0836 29.9192 L -81.8468 20.8488  L -78.5559 22.7488  L -83.7927 31.8192  z" fill="none" stroke="rgb(217, 95, 2)" /><path d="M 61.8047 11.8603 L 72.2783 11.8603  L 72.2783 15.6603  L 61.8047 15.6603  z" fill="none" stroke="rgb(217, 95, 2)" /><path d="M 19.1104 11.8603 L 29.5839 11.8603  L 29.5839 15.6603  L 19.1104 15.6603  z" fill="none" stroke="rgb(217, 95, 2)" /><path d="M -2.23679 15.6603 L -2.23679 11.8603  L 8.23679 11.8603  L 8.23679 15.6603  z" fill="none" stroke="rgb(217, 95, 2)" /><path d="M -23.5839 15.6603 L -23.5839 11.8603  L -13.1104 11.8603  L -13.1104 15.6603  z" fill="none" stroke="rgb(217, 95, 2)" /><path d="M 40.4575 15.6603 L 40.4575 11.8603  L 50.9311 11.8603  L 50.9311 15.6603  z" fill="none" stroke="rgb(217, 95, 2)" /><path d="M -66.2783 15.6603 L -66.2783 11.8603  L -55.8047 11.8603  L -55.8047 15.6603  z" fill="none" stroke="rgb(217, 95, 2)" /><path d="M -44.9311 11.8603 L -34.4575 11.8603  L -34.4575 15.6603  L -44.9311 15.6603  z" fill="none" stroke="rgb(217, 95, 2)" /><path d="M 87.7728 3 L -81.7728 3  L -166.546 149.831  L -81.7728 296.662  L 87.7728 296.662  L 172.546 149.831  z" fill="none" stroke="rgb(27, 158, 119)" /></g></svg>