<?xml version="1.0" encoding="utf-8" ?>
<svg baseProfile="full" height="287.19101615137754mm" version="1.1" viewBox="-165.03630779194376,-143.59550807568877,330.0726155838875,287.19101615137754" width="330.0726155838875mm" xmlns="http://www.w3.org/2000/svg" xmlns:ev="http://www.w3.org/2001/xml-events" xmlns:xlink="http://www.w3.org/1999/xlink"><defs /><g><path d="M 82.5993 128.125 L 87.9577 118.844  L 90.5558 120.344  L 95.9143 111.063  L 93.3162 109.563  L 98.6746 100.282  L 101.273 101.782  L 106.631 92.5005  L 104.033 91.0005  L 109.391 81.7194  L 111.99 83.2194  L 117.348 73.9383  L 114.75 72.4383  L 120.108 63.1572  L 122.706 64.6572  L 128.065 55.3761  L 125.467 53.8761  L 130.825 44.595  L 133.423 46.095  L 138.782 36.8139  L 136.184 35.3139  L 141.542 26.0329  L 144.14 27.5329  L 149.499 18.2518  L 146.901 16.7518  L 152.259 7.47067  L 154.857 8.97067  L 160.036 0  L 154.857 -8.97067  L 152.259 -7.47067  L 146.901 -16.7518  L 149.499 -18.2518  L 144.14 -27.5329  L 141.542 -26.0329  L 136.184 -35.3139  L 138.782 -36.8139  L 133.423 -46.095  L 130.825 -44.595  L 125.467 -53.8761  L 128.065 -55.3761  L 122.706 -64.6572  L 120.108 -63.1572  L 114.75 -72.4383  L 117.348 -73.9383  L 111.99 -83.2194  L 109.391 -81.7194  L 104.033 -91.0005  L 106.631 -92.5005  L 101.273 -101.782  L 98.6746 -100.282  L 93.3162 -109.563  L 95.9143 -111.063  L 90.5558 -120.344  L 87.9577 -118.844  L 82.5993 -128.125  L 85.1974 -129.625  L 80.0182 -138.596  L 69.6597 -138.596  L 69.6597 -135.596  L 58.9428 -135.596  L 58.9428 -138.596  L 48.226 -138.596  L 48.226 -135.596  L 37.5091 -135.596  L 37.5091 -138.596  L 26.7922 -138.596  L 26.7922 -135.596  L 16.0753 -135.596  L 16.0753 -138.596  L 5.35844 -138.596  L 5.35844 -135.596  L -5.35844 -135.596  L -5.35844 -138.596  L -16.0753 -138.596  L -16.0753 -135.596  L -26.7922 -135.596  L -26.7922 -138.596  L -37.5091 -138.596  L -37.5091 -135.596  L -48.226 -135.596  L -48.226 -138.596  L -58.9428 -138.596  L -58.9428 -135.596  L -69.6597 -135.596  L -69.6597 -138.596  L -80.0182 -138.596  L -85.1974 -129.625  L -82.5993 -128.125  L -87.9577 -118.844  L -90.5558 -120.344  L -95.9143 -111.063  L -93.3162 -109.563  L -98.6746 -100.282  L -101.273 -101.782  L -106.631 -92.5005  L -104.033 -91.0005  L -109.391 -81.7194  L -111.99 -83.2194  L -117.348 -73.9383  L -114.75 -72.4383  L -120.108 -63.1572  L -122.706 -64.6572  L -128.065 -55.3761  L -125.467 -53.8761  L -130.825 -44.595  L -133.423 -46.095  L -138.782 -36.8139  L -136.184 -35.3139  L -141.542 -26.0329  L -144.14 -27.5329  L -149.499 -18.2518  L -146.901 -16.7518  L -152.259 -7.47067  L -154.857 -8.97067  L -160.036 0  L -154.857 8.97067  L -152.259 7.47067  L -146.901 16.7518  L -149.499 18.2518  L -144.14 27.5329  L -141.542 26.0329  L -136.184 35.3139  L -138.782 36.8139  L -133.423 46.095  L -130.825 44.595  L -125.467 53.8761  L -128.065 55.3761  L -122.706 64.6572  L -120.108 63.1572  L -114.75 72.4383  L -117.348 73.9383  L -111.99 83.2194  L -109.391 81.7194  L -104.033 91.0005  L -106.631 92.5005  L -101.273 101.782  L -98.6746 100.282  L -93.3162 109.563  L -95.9143 111.063  L -90.5558 120.344  L -87.9577 118.844  L -82.5993 128.125  L -85.1974 129.625  L -80.0182 138.596  L -69.6597 138.596  L -69.6597 135.596  L -58.9428 135.596  L -58.9428 138.596  L -48.226 138.596  L -48.226 135.596  L -37.5091 135.596  L -37.5091 138.596  L -26.7922 138.596  L -26.7922 135.596  L -16.0753 135.596  L -16.0753 138.596  L -5.35844 138.596  L -5.35844 135.596  L 5.35844 135.596  L 5.35844 138.596  L 16.0753 138.596  L 16.0753 135.596  L 26.7922 135.596  L 26.7922 138.596  L 37.5091 138.596  L 37.5091 135.596  L 48.226 135.596  L 48.226 138.596  L 58.9428 138.596  L 58.9428 135.596  L 69.6597 135.596  L 69.6597 138.596  L 80.0182 138.596  L 85.1974 129.625  z" fill="none" stroke="rgb(27, 158, 119)" /><path d="M 41.7424 114.5 L 41.7424 93.4  L 60.0156 82.85  L 78.2887 93.4  L 78.2887 114.5  L 60.0156 125.05  z" fill="none" stroke="rgb(217, 95, 2)" /><path d="M 1.73205 114.5 L 1.73205 93.4  L 20.0052 82.85  L 38.2783 93.4  L 38.2783 114.5  L 20.0052 125.05  z" fill="none" stroke="rgb(217, 95, 2)" /><path d="M -38.2783 114.5 L -38.2783 93.4  L -20.0052 82.85  L -1.73205 93.4  L -1.73205 114.5  L -20.0052 125.05  z" fill="none" stroke="rgb(217, 95, 2)" /><path d="M -78.2887 114.5 L -78.2887 93.4  L -60.0156 82.85  L -41.7424 93.4  L -41.7424 114.5  L -60.0156 125.05  z" fill="none" stroke="rgb(217, 95, 2)" /><path d="M 61.7476 79.85 L 61.7476 58.75  L 80.0207 48.2  L 98.2939 58.75  L 98.2939 79.85  L 80.0207 90.4  z" fill="none" stroke="rgb(217, 95, 2)" /><path d="M 21.7372 79.85 L 21.7372 58.75  L 40.0104 48.2  L 58.2835 58.75  L 58.2835 79.85  L 40.0104 90.4  z" fill="none" stroke="rgb(217, 95, 2)" /><path d="M -18.2731 79.85 L -18.2731 58.75  L 6.15348e-15 48.2  L 18.2731 58.75  L 18.2731 79.85  L -0 90.4  z" fill="none" stroke="rgb(217, 95, 2)" /><path d="M -58.2835 79.85 L -58.2835 58.75  L -40.0104 48.2  L -21.7372 58.75  L -21.7372 79.85  L -40.0104 90.4  z" fill="none" stroke="rgb(217, 95, 2)" /><path d="M -98.2939 79.85 L -98.2939 58.75  L -80.0207 48.2  L -61.7476 58.75  L -61.7476 79.85  L -80.0207 90.4  z" fill="none" stroke="rgb(217, 95, 2)" /><path d="M 81.7528 45.2 L 81.7528 24.1  L 100.026 13.55  L 118.299 24.1  L 118.299 45.2  L 100.026 55.75  z" fill="none" stroke="rgb(217, 95, 2)" /><path d="M 41.7424 45.2 L 41.7424 24.1  L 60.0156 13.55  L 78.2887 24.1  L 78.2887 45.2  L 60.0156 55.75  z" fill="none" stroke="rgb(217, 95, 2)" /><path d="M 1.73205 45.2 L 1.73205 24.1  L 20.0052 13.55  L 38.2783 24.1  L 38.2783 45.2  L 20.0052 55.75  z" fill="none" stroke="rgb(217, 95, 2)" /><path d="M -38.2783 45.2 L -38.2783 24.1  L -20.0052 13.55  L -1.73205 24.1  L -1.73205 45.2  L -20.0052 55.75  z" fill="none" stroke="rgb(217, 95, 2)" /><path d="M -78.2887 45.2 L -78.2887 24.1  L -60.0156 13.55  L -41.7424 24.1  L -41.7424 45.2  L -60.0156 55.75  z" fill="none" stroke="rgb(217, 95, 2)" /><path d="M -118.299 45.2 L -118.299 24.1  L -100.026 13.55  L -81.7528 24.1  L -81.7528 45.2  L -100.026 55.75  z" fill="none" stroke="rgb(217, 95, 2)" /><path d="M 101.758 10.55 L 101.758 -10.55  L 120.031 -21.1  L 138.304 -10.55  L 138.304 10.55  L 120.031 21.1  z" fill="none" stroke="rgb(217, 95, 2)" /><path d="M 61.7476 10.55 L 61.7476 -10.55  L 80.0207 -21.1  L 98.2939 -10.55  L 98.2939 10.55  L 80.0207 21.1  z" fill="none" stroke="rgb(217, 95, 2)" /><path d="M 21.7372 10.55 L 21.7372 -10.55  L 40.0104 -21.1  L 58.2835 -10.55  L 58.2835 10.55  L 40.0104 21.1  z" fill="none" stroke="rgb(217, 95, 2)" /><path d="M -18.2731 10.55 L -18.2731 -10.55  L -6.15348e-15 -21.1  L 18.2731 -10.55  L 18.2731 10.55  L -1.2307e-14 21.1  z" fill="none" stroke="rgb(217, 95, 2)" /><path d="M -58.2835 10.55 L -58.2835 -10.55  L -40.0104 -21.1  L -21.7372 -10.55  L -21.7372 10.55  L -40.0104 21.1  z" fill="none" stroke="rgb(217, 95, 2)" /><path d="M -98.2939 10.55 L -98.2939 -10.55  L -80.0207 -21.1  L -61.7476 -10.55  L -61.7476 10.55  L -80.0207 21.1  z" fill="none" stroke="rgb(217, 95, 2)" /><path d="M -138.304 10.55 L -138.304 -10.55  L -120.031 -21.1  L -101.758 -10.55  L -101.758 10.55  L -120.031 21.1  z" fill="none" stroke="rgb(217, 95, 2)" /><path d="M 81.7528 -24.1 L 81.7528 -45.2  L 100.026 -55.75  L 118.299 -45.2  L 118.299 -24.1  L 100.026 -13.55  z" fill="none" stroke="rgb(217, 95, 2)" /><path d="M 41.7424 -24.1 L 41.7424 -45.2  L 60.0156 -55.75  L 78.2887 -45.2  L 78.2887 -24.1  L 60.0156 -13.55  z" fill="none" stroke="rgb(217, 95, 2)" /><path d="M 1.73205 -24.1 L 1.73205 -45.2  L 20.0052 -55.75  L 38.2783 -45.2  L 38.2783 -24.1  L 20.0052 -13.55  z" fill="none" stroke="rgb(217, 95, 2)" /><path d="M -38.2783 -24.1 L -38.2783 -45.2  L -20.0052 -55.75  L -1.73205 -45.2  L -1.73205 -24.1  L -20.0052 -13.55  z" fill="none" stroke="rgb(217, 95, 2)" /><path d="M -78.2887 -24.1 L -78.2887 -45.2  L -60.0156 -55.75  L -41.7424 -45.2  L -41.7424 -24.1  L -60.0156 -13.55  z" fill="none" stroke="rgb(217, 95, 2)" /><path d="M -118.299 -24.1 L -118.299 -45.2  L -100.026 -55.75  L -81.7528 -45.2  L -81.7528 -24.1  L -100.026 -13.55  z" fill="none" stroke="rgb(217, 95, 2)" /><path d="M 61.7476 -58.75 L 61.7476 -79.85  L 80.0207 -90.4  L 98.2939 -79.85  L 98.2939 -58.75  L 80.0207 -48.2  z" fill="none" stroke="rgb(217, 95, 2)" /><path d="M 21.7372 -58.75 L 21.7372 -79.85  L 40.0104 -90.4  L 58.2835 -79.85  L 58.2835 -58.75  L 40.0104 -48.2  z" fill="none" stroke="rgb(217, 95, 2)" /><path d="M -18.2731 -58.75 L -18.2731 -79.85  L -0 -90.4  L 18.2731 -79.85  L 18.2731 -58.75  L -0 -48.2  z" fill="none" stroke="rgb(217, 95, 2)" /><path d="M -58.2835 -58.75 L -58.2835 -79.85  L -40.0104 -90.4  L -21.7372 -79.85  L -21.7372 -58.75  L -40.0104 -48.2  z" fill="none" stroke="rgb(217, 95, 2)" /><path d="M -98.2939 -58.75 L -98.2939 -79.85  L -80.0207 -90.4  L -61.7476 -79.85  L -61.7476 -58.75  L -80.0207 -48.2  z" fill="none" stroke="rgb(217, 95, 2)" /><path d="M 41.7424 -93.4 L 41.7424 -114.5  L 60.0156 -125.05  L 78.2887 -114.5  L 78.2887 -93.4  L 60.0156 -82.85  z" fill="none" stroke="rgb(217, 95, 2)" /><path d="M 1.73205 -93.4 L 1.73205 -114.5  L 20.0052 -125.05  L 38.2783 -114.5  L 38.2783 -93.4  L 20.0052 -82.85  z" fill="none" stroke="rgb(217, 95, 2)" /><path d="M -38.2783 -93.4 L -38.2783 -114.5  L -20.0052 -125.05  L -1.73205 -114.5  L -1.73205 -93.4  L -20.0052 -82.85  z" fill="none" stroke="rgb(217, 95, 2)" /><path d="M -78.2887 -93.4 L -78.2887 -114.5  L -60.0156 -125.05  L -41.7424 -114.5  L -41.7424 -93.4  L -60.0156 -82.85  z" fill="none" stroke="rgb(217, 95, 2)" /></g></svg>