<?xml version="1.0" encoding="utf-8" ?>
<svg baseProfile="full" height="276.3410161513776mm" version="1.1" viewBox="-156.54556006313257,3.0,319.09112012626514,276.3410161513776" width="319.09112012626514mm" xmlns="http://www.w3.org/2000/svg" xmlns:ev="http://www.w3.org/2001/xml-events" xmlns:xlink="http://www.w3.org/1999/xlink"><defs /><g><path d="M 84.5559 268.252 L 89.7927 259.182  L 93.2568 261.182  L 98.6936 251.765  L 95.2295 249.765  L 100.466 240.695  L 103.93 242.695  L 109.367 233.278  L 105.903 231.278  L 111.14 222.208  L 114.604 224.208  L 120.041 214.791  L 116.577 212.791  L 121.813 203.721  L 125.278 205.721  L 130.714 196.304  L 127.25 194.304  L 132.487 185.233  L 135.951 187.233  L 141.388 177.817  L 137.924 175.817  L 143.161 166.746  L 146.625 168.746  L 152.062 159.329  L 148.597 157.329  L 153.834 148.259  L 157.298 150.259  L 162.546 141.171  L 157.298 132.082  L 153.834 134.082  L 148.597 125.012  L 152.062 123.012  L 146.625 113.595  L 143.161 115.595  L 137.924 106.524  L 141.388 104.524  L 135.951 95.1076  L 132.487 97.1076  L 127.25 88.0372  L 130.714 86.0372  L 125.278 76.6204  L 121.813 78.6204  L 116.577 69.5501  L 120.041 67.5501  L 114.604 58.1333  L 111.14 60.1333  L 105.903 51.0629  L 109.367 49.0629  L 103.93 39.6461  L 100.466 41.6461  L 95.2295 32.5757  L 98.6936 30.5757  L 93.2568 21.1589  L 89.7927 23.1589  L 84.5559 14.0885  L 88.02 12.0885  L 82.7728 3  L 72.2783 3  L 72.2783 7  L 61.8047 7  L 61.8047 3  L 50.9311 3  L 50.9311 7  L 40.4575 7  L 40.4575 3  L 29.5839 3  L 29.5839 7  L 19.1104 7  L 19.1104 3  L 8.23679 3  L 8.23679 7  L -2.23679 7  L -2.23679 3  L -13.1104 3  L -13.1104 7  L -23.5839 7  L -23.5839 3  L -34.4575 3  L -34.4575 7  L -44.9311 7  L -44.9311 3  L -55.8047 3  L -55.8047 7  L -66.2783 7  L -66.2783 3  L -76.7728 3  L -82.02 12.0885  L -78.5559 14.0885  L -83.7927 23.1589  L -87.2568 21.1589  L -92.6936 30.5757  L -89.2295 32.5757  L -94.4663 41.6461  L -97.9304 39.6461  L -103.367 49.0629  L -99.9031 51.0629  L -105.14 60.1333  L -108.604 58.1333  L -114.041 67.5501  L -110.577 69.5501  L -115.813 78.6204  L -119.278 76.6204  L -124.714 86.0372  L -121.25 88.0372  L -126.487 97.1076  L -129.951 95.1076  L -135.388 104.524  L -131.924 106.524  L -137.161 115.595  L -140.625 113.595  L -146.062 123.012  L -142.597 125.012  L -147.834 134.082  L -151.298 132.082  L -156.546 141.171  L -151.298 150.259  L -147.834 148.259  L -142.597 157.329  L -146.062 159.329  L -140.625 168.746  L -137.161 166.746  L -131.924 175.817  L -135.388 177.817  L -129.951 187.233  L -126.487 185.233  L -121.25 194.304  L -124.714 196.304  L -119.278 205.721  L -115.813 203.721  L -110.577 212.791  L -114.041 214.791  L -108.604 224.208  L -105.14 222.208  L -99.9031 231.278  L -103.367 233.278  L -97.9304 242.695  L -94.4663 240.695  L -89.2295 249.765  L -92.6936 251.765  L -87.2568 261.182  L -83.7927 259.182  L -78.5559 268.252  L -82.02 270.252  L -76.7728 279.341  L -66.2783 279.341  L -66.2783 275.341  L -55.8047 275.341  L -55.8047 279.341  L -44.9311 279.341  L -44.9311 275.341  L -34.4575 275.341  L -34.4575 279.341  L -23.5839 279.341  L -23.5839 275.341  L -13.1104 275.341  L -13.1104 279.341  L -2.23679 279.341  L -2.23679 275.341  L 8.23679 275.341  L 8.23679 279.341  L 19.1104 279.341  L 19.1104 275.341  L 29.5839 275.341  L 29.5839 279.341  L 40.4575 279.341  L 40.4575 275.341  L 50.9311 275.341  L 50.9311 279.341  L 61.8047 279.341  L 61.8047 275.341  L 72.2783 275.341  L 72.2783 279.341  L 82.7728 279.341  L 88.02 270.252  z" fill="none" stroke="rgb(27, 158, 119)" /><path d="M 44.6692 255.113 L 44.6692 234.228  L 62.7558 223.786  L 80.8423 234.228  L 80.8423 255.113  L 62.7558 265.555  z" fill="none" stroke="rgb(217, 95, 2)" /><path d="M 4.83205 255.113 L 4.83205 234.228  L 22.9186 223.786  L 41.0051 234.228  L 41.0051 255.113  L 22.9186 265.555  z" fill="none" stroke="rgb(217, 95, 2)" /><path d="M -35.0051 255.113 L -35.0051 234.228  L -16.9186 223.786  L 1.16795 234.228  L 1.16795 255.113  L -16.9186 265.555  z" fill="none" stroke="rgb(217, 95, 2)" /><path d="M -74.8423 255.113 L -74.8423 234.228  L -56.7558 223.786  L -38.6692 234.228  L -38.6692 255.113  L -56.7558 265.555  z" fill="none" stroke="rgb(217, 95, 2)" /><path d="M 64.5878 220.613 L 64.5878 199.728  L 82.6743 189.286  L 100.761 199.728  L 100.761 220.613  L 82.6743 231.055  z" fill="none" stroke="rgb(217, 95, 2)" /><path d="M 24.7506 220.613 L 24.7506 199.728  L 42.8372 189.286  L 60.9237 199.728  L 60.9237 220.613  L 42.8372 231.055  z" fill="none" stroke="rgb(217, 95, 2)" /><path d="M -15.0865 220.613 L -15.0865 199.728  L 3 189.286  L 21.0865 199.728  L 21.0865 220.613  L 3 231.055  z" fill="none" stroke="rgb(217, 95, 2)" /><path d="M -54.9237 220.613 L -54.9237 199.728  L -36.8372 189.286  L -18.7506 199.728  L -18.7506 220.613  L -36.8372 231.055  z" fill="none" stroke="rgb(217, 95, 2)" /><path d="M -94.7609 220.613 L -94.7609 199.728  L -76.6743 189.286  L -58.5878 199.728  L -58.5878 220.613  L -76.6743 231.055  z" fill="none" stroke="rgb(217, 95, 2)" /><path d="M 84.5064 186.113 L 84.5064 165.228  L 102.593 154.786  L 120.679 165.228  L 120.679 186.113  L 102.593 196.555  z" fill="none" stroke="rgb(217, 95, 2)" /><path d="M 44.6692 186.113 L 44.6692 165.228  L 62.7558 154.786  L 80.8423 165.228  L 80.8423 186.113  L 62.7558 196.555  z" fill="none" stroke="rgb(217, 95, 2)" /><path d="M 4.83205 186.113 L 4.83205 165.228  L 22.9186 154.786  L 41.0051 165.228  L 41.0051 186.113  L 22.9186 196.555  z" fill="none" stroke="rgb(217, 95, 2)" /><path d="M -35.0051 186.113 L -35.0051 165.228  L -16.9186 154.786  L 1.16795 165.228  L 1.16795 186.113  L -16.9186 196.555  z" fill="none" stroke="rgb(217, 95, 2)" /><path d="M -74.8423 186.113 L -74.8423 165.228  L -56.7558 154.786  L -38.6692 165.228  L -38.6692 186.113  L -56.7558 196.555  z" fill="none" stroke="rgb(217, 95, 2)" /><path d="M -114.679 186.113 L -114.679 165.228  L -96.5929 154.786  L -78.5064 165.228  L -78.5064 186.113  L -96.5929 196.555  z" fill="none" stroke="rgb(217, 95, 2)" /><path d="M 104.425 151.613 L 104.425 130.728  L 122.512 120.286  L 140.598 130.728  L 140.598 151.613  L 122.512 162.055  z" fill="none" stroke="rgb(217, 95, 2)" /><path d="M 64.5878 151.613 L 64.5878 130.728  L 82.6743 120.286  L 100.761 130.728  L 100.761 151.613  L 82.6743 162.055  z" fill="none" stroke="rgb(217, 95, 2)" /><path d="M 24.7506 151.613 L 24.7506 130.728  L 42.8372 120.286  L 60.9237 130.728  L 60.9237 151.613  L 42.8372 162.055  z" fill="none" stroke="rgb(217, 95, 2)" /><path d="M -15.0865 151.613 L -15.0865 130.728  L 3 120.286  L 21.0865 130.728  L 21.0865 151.613  L 3 162.055  z" fill="none" stroke="rgb(217, 95, 2)" /><path d="M -54.9237 151.613 L -54.9237 130.728  L -36.8372 120.286  L -18.7506 130.728  L -18.7506 151.613  L -36.8372 162.055  z" fill="none" stroke="rgb(217, 95, 2)" /><path d="M -94.7609 151.613 L -94.7609 130.728  L -76.6743 120.286  L -58.5878 130.728  L -58.5878 151.613  L -76.6743 162.055  z" fill="none" stroke="rgb(217, 95, 2)" /><path d="M -134.598 151.613 L -134.598 130.728  L -116.512 120.286  L -98.425 130.728  L -98.425 151.613  L -116.512 162.055  z" fill="none" stroke="rgb(217, 95, 2)" /><path d="M 84.5064 117.113 L 84.5064 96.2282  L 102.593 85.786  L 120.679 96.2282  L 120.679 117.113  L 102.593 127.555  z" fill="none" stroke="rgb(217, 95, 2)" /><path d="M 44.6692 117.113 L 44.6692 96.2282  L 62.7558 85.786  L 80.8423 96.2282  L 80.8423 117.113  L 62.7558 127.555  z" fill="none" stroke="rgb(217, 95, 2)" /><path d="M 4.83205 117.113 L 4.83205 96.2282  L 22.9186 85.786  L 41.0051 96.2282  L 41.0051 117.113  L 22.9186 127.555  z" fill="none" stroke="rgb(217, 95, 2)" /><path d="M -35.0051 117.113 L -35.0051 96.2282  L -16.9186 85.786  L 1.16795 96.2282  L 1.16795 117.113  L -16.9186 127.555  z" fill="none" stroke="rgb(217, 95, 2)" /><path d="M -74.8423 117.113 L -74.8423 96.2282  L -56.7558 85.786  L -38.6692 96.2282  L -38.6692 117.113  L -56.7558 127.555  z" fill="none" stroke="rgb(217, 95, 2)" /><path d="M -114.679 117.113 L -114.679 96.2282  L -96.5929 85.786  L -78.5064 96.2282  L -78.5064 117.113  L -96.5929 127.555  z" fill="none" stroke="rgb(217, 95, 2)" /><path d="M 64.5878 82.6128 L 64.5878 61.7282  L 82.6743 51.286  L 100.761 61.7282  L 100.761 82.6128  L 82.6743 93.055  z" fill="none" stroke="rgb(217, 95, 2)" /><path d="M 24.7506 82.6128 L 24.7506 61.7282  L 42.8372 51.286  L 60.9237 61.7282  L 60.9237 82.6128  L 42.8372 93.055  z" fill="none" stroke="rgb(217, 95, 2)" /><path d="M -15.0865 82.6128 L -15.0865 61.7282  L 3 51.286  L 21.0865 61.7282  L 21.0865 82.6128  L 3 93.055  z" fill="none" stroke="rgb(217, 95, 2)" /><path d="M -54.9237 82.6128 L -54.9237 61.7282  L -36.8372 51.286  L -18.7506 61.7282  L -18.7506 82.6128  L -36.8372 93.055  z" fill="none" stroke="rgb(217, 95, 2)" /><path d="M -94.7609 82.6128 L -94.7609 61.7282  L -76.6743 51.286  L -58.5878 61.7282  L -58.5878 82.6128  L -76.6743 93.055  z" fill="none" stroke="rgb(217, 95, 2)" /><path d="M 44.6692 48.1128 L 44.6692 27.2282  L 62.7558 16.786  L 80.8423 27.2282  L 80.8423 48.1128  L 62.7558 58.555  z" fill="none" stroke="rgb(217, 95, 2)" /><path d="M 4.83205 48.1128 L 4.83205 27.2282  L 22.9186 16.786  L 41.0051 27.2282  L 41.0051 48.1128  L 22.9186 58.555  z" fill="none" stroke="rgb(217, 95, 2)" /><path d="M -35.0051 48.1128 L -35.0051 27.2282  L -16.9186 16.786  L 1.16795 27.2282  L 1.16795 48.1128  L -16.9186 58.555  z" fill="none" stroke="rgb(217, 95, 2)" /><path d="M -74.8423 48.1128 L -74.8423 27.2282  L -56.7558 16.786  L -38.6692 27.2282  L -38.6692 48.1128  L -56.7558 58.555  z" fill="none" stroke="rgb(217, 95, 2)" /></g></svg>