<?xml version="1.0" encoding="utf-8" standalone="no"?>
        <!DOCTYPE svg PUBLIC "-//W3C//DTD SVG 1.1//EN" "http://www.w3.org/Graphics/SVG/1.1/DTD/svg11.dtd">
         <svg xmlns="http://www.w3.org/2000/svg" width="317.736mm" height="276.641mm" viewbox="0 0 317.736 276.641">
<path style="fill:none;stroke:rgb(217, 95, 2);stroke-width:1mm;" d="M 814.585, 71.1326 L 749.122, 108.928 L 749.122, 184.518 L 814.585, 222.314 L 880.048, 184.518 L 880.048, 108.928 z " /><path style="fill:none;stroke:rgb(217, 95, 2);stroke-width:1mm;" d="M 670.566, 71.1326 L 605.102, 108.928 L 605.102, 184.518 L 670.566, 222.314 L 736.029, 184.518 L 736.029, 108.928 z " /><path style="fill:none;stroke:rgb(217, 95, 2);stroke-width:1mm;" d="M 526.546, 71.1326 L 461.083, 108.928 L 461.083, 184.518 L 526.546, 222.314 L 592.01, 184.518 L 592.01, 108.928 z " /><path style="fill:none;stroke:rgb(217, 95, 2);stroke-width:1mm;" d="M 382.527, 71.1326 L 317.064, 108.928 L 317.064, 184.518 L 382.527, 222.314 L 447.99, 184.518 L 447.99, 108.928 z " /><path style="fill:none;stroke:rgb(217, 95, 2);stroke-width:1mm;" d="M 886.595, 195.857 L 821.131, 233.652 L 821.131, 309.243 L 886.595, 347.038 L 952.058, 309.243 L 952.058, 233.652 z " /><path style="fill:none;stroke:rgb(217, 95, 2);stroke-width:1mm;" d="M 742.575, 195.857 L 677.112, 233.652 L 677.112, 309.243 L 742.575, 347.038 L 808.039, 309.243 L 808.039, 233.652 z " /><path style="fill:none;stroke:rgb(217, 95, 2);stroke-width:1mm;" d="M 598.556, 195.857 L 533.093, 233.652 L 533.093, 309.243 L 598.556, 347.038 L 664.019, 309.243 L 664.019, 233.652 z " /><path style="fill:none;stroke:rgb(217, 95, 2);stroke-width:1mm;" d="M 454.537, 195.857 L 389.073, 233.652 L 389.073, 309.243 L 454.537, 347.038 L 520, 309.243 L 520, 233.652 z " /><path style="fill:none;stroke:rgb(217, 95, 2);stroke-width:1mm;" d="M 310.517, 195.857 L 245.054, 233.652 L 245.054, 309.243 L 310.517, 347.038 L 375.981, 309.243 L 375.981, 233.652 z " /><path style="fill:none;stroke:rgb(217, 95, 2);stroke-width:1mm;" d="M 958.604, 320.581 L 893.141, 358.377 L 893.141, 433.967 L 958.604, 471.763 L 1024.07, 433.967 L 1024.07, 358.377 z " /><path style="fill:none;stroke:rgb(217, 95, 2);stroke-width:1mm;" d="M 814.585, 320.581 L 749.122, 358.377 L 749.122, 433.967 L 814.585, 471.763 L 880.048, 433.967 L 880.048, 358.377 z " /><path style="fill:none;stroke:rgb(217, 95, 2);stroke-width:1mm;" d="M 670.566, 320.581 L 605.102, 358.377 L 605.102, 433.967 L 670.566, 471.763 L 736.029, 433.967 L 736.029, 358.377 z " /><path style="fill:none;stroke:rgb(217, 95, 2);stroke-width:1mm;" d="M 526.546, 320.581 L 461.083, 358.377 L 461.083, 433.967 L 526.546, 471.763 L 592.01, 433.967 L 592.01, 358.377 z " /><path style="fill:none;stroke:rgb(217, 95, 2);stroke-width:1mm;" d="M 382.527, 320.581 L 317.064, 358.377 L 317.064, 433.967 L 382.527, 471.763 L 447.99, 433.967 L 447.99, 358.377 z " /><path style="fill:none;stroke:rgb(217, 95, 2);stroke-width:1mm;" d="M 238.508, 320.581 L 173.044, 358.377 L 173.044, 433.967 L 238.508, 471.763 L 303.971, 433.967 L 303.971, 358.377 z " /><path style="fill:none;stroke:rgb(217, 95, 2);stroke-width:1mm;" d="M 1030.61, 445.306 L 965.151, 483.101 L 965.151, 558.692 L 1030.61, 596.487 L 1096.08, 558.692 L 1096.08, 483.101 z " /><path style="fill:none;stroke:rgb(217, 95, 2);stroke-width:1mm;" d="M 886.595, 445.306 L 821.131, 483.101 L 821.131, 558.692 L 886.595, 596.487 L 952.058, 558.692 L 952.058, 483.101 z " /><path style="fill:none;stroke:rgb(217, 95, 2);stroke-width:1mm;" d="M 742.575, 445.306 L 677.112, 483.101 L 677.112, 558.692 L 742.575, 596.487 L 808.039, 558.692 L 808.039, 483.101 z " /><path style="fill:none;stroke:rgb(217, 95, 2);stroke-width:1mm;" d="M 598.556, 445.306 L 533.093, 483.101 L 533.093, 558.692 L 598.556, 596.487 L 664.019, 558.692 L 664.019, 483.101 z " /><path style="fill:none;stroke:rgb(217, 95, 2);stroke-width:1mm;" d="M 454.537, 445.306 L 389.073, 483.101 L 389.073, 558.692 L 454.537, 596.487 L 520, 558.692 L 520, 483.101 z " /><path style="fill:none;stroke:rgb(217, 95, 2);stroke-width:1mm;" d="M 310.517, 445.306 L 245.054, 483.101 L 245.054, 558.692 L 310.517, 596.487 L 375.981, 558.692 L 375.981, 483.101 z " /><path style="fill:none;stroke:rgb(217, 95, 2);stroke-width:1mm;" d="M 166.498, 445.306 L 101.035, 483.101 L 101.035, 558.692 L 166.498, 596.487 L 231.961, 558.692 L 231.961, 483.101 z " /><path style="fill:none;stroke:rgb(217, 95, 2);stroke-width:1mm;" d="M 958.604, 570.03 L 893.141, 607.826 L 893.141, 683.416 L 958.604, 721.211 L 1024.07, 683.416 L 1024.07, 607.826 z " /><path style="fill:none;stroke:rgb(217, 95, 2);stroke-width:1mm;" d="M 814.585, 570.03 L 749.122, 607.826 L 749.122, 683.416 L 814.585, 721.211 L 880.048, 683.416 L 880.048, 607.826 z " /><path style="fill:none;stroke:rgb(217, 95, 2);stroke-width:1mm;" d="M 670.566, 570.03 L 605.102, 607.826 L 605.102, 683.416 L 670.566, 721.211 L 736.029, 683.416 L 736.029, 607.826 z " /><path style="fill:none;stroke:rgb(217, 95, 2);stroke-width:1mm;" d="M 526.546, 570.03 L 461.083, 607.826 L 461.083, 683.416 L 526.546, 721.211 L 592.01, 683.416 L 592.01, 607.826 z " /><path style="fill:none;stroke:rgb(217, 95, 2);stroke-width:1mm;" d="M 382.527, 570.03 L 317.064, 607.826 L 317.064, 683.416 L 382.527, 721.211 L 447.99, 683.416 L 447.99, 607.826 z " /><path style="fill:none;stroke:rgb(217, 95, 2);stroke-width:1mm;" d="M 238.508, 570.03 L 173.044, 607.826 L 173.044, 683.416 L 238.508, 721.211 L 303.971, 683.416 L 303.971, 607.826 z " /><path style="fill:none;stroke:rgb(217, 95, 2);stroke-width:1mm;" d="M 886.595, 694.755 L 821.131, 732.55 L 821.131, 808.141 L 886.595, 845.936 L 952.058, 808.141 L 952.058, 732.55 z " /><path style="fill:none;stroke:rgb(217, 95, 2);stroke-width:1mm;" d="M 742.575, 694.755 L 677.112, 732.55 L 677.112, 808.141 L 742.575, 845.936 L 808.039, 808.141 L 808.039, 732.55 z " /><path style="fill:none;stroke:rgb(217, 95, 2);stroke-width:1mm;" d="M 598.556, 694.755 L 533.093, 732.55 L 533.093, 808.141 L 598.556, 845.936 L 664.019, 808.141 L 664.019, 732.55 z " /><path style="fill:none;stroke:rgb(217, 95, 2);stroke-width:1mm;" d="M 454.537, 694.755 L 389.073, 732.55 L 389.073, 808.141 L 454.537, 845.936 L 520, 808.141 L 520, 732.55 z " /><path style="fill:none;stroke:rgb(217, 95, 2);stroke-width:1mm;" d="M 310.517, 694.755 L 245.054, 732.55 L 245.054, 808.141 L 310.517, 845.936 L 375.981, 808.141 L 375.981, 732.55 z " /><path style="fill:none;stroke:rgb(217, 95, 2);stroke-width:1mm;" d="M 814.585, 819.479 L 749.122, 857.274 L 749.122, 932.865 L 814.585, 970.66 L 880.048, 932.865 L 880.048, 857.274 z " /><path style="fill:none;stroke:rgb(217, 95, 2);stroke-width:1mm;" d="M 670.566, 819.479 L 605.102, 857.274 L 605.102, 932.865 L 670.566, 970.66 L 736.029, 932.865 L 736.029, 857.274 z " /><path style="fill:none;stroke:rgb(217, 95, 2);stroke-width:1mm;" d="M 526.546, 819.479 L 461.083, 857.274 L 461.083, 932.865 L 526.546, 970.66 L 592.01, 932.865 L 592.01, 857.274 z " /><path style="fill:none;stroke:rgb(217, 95, 2);stroke-width:1mm;" d="M 382.527, 819.479 L 317.064, 857.274 L 317.064, 932.865 L 382.527, 970.66 L 447.99, 932.865 L 447.99, 857.274 z " /><path style="fill:none;stroke:rgb(27, 158, 119);stroke-width:1mm;" d="M 888.385, 18.8976 L 1178.21, 520.896 L 888.385, 1022.9 L 308.727, 1022.9 L 18.8976, 520.896 L 308.727, 18.8976 z " />
</svg>