<?xml version="1.0" encoding="utf-8" ?>
<svg baseProfile="full" height="310.78203230275517mm" version="1.1" viewBox="-176.43009000929464,3.0,358.8601800185893,310.78203230275517" width="358.8601800185893mm" xmlns="http://www.w3.org/2000/svg" xmlns:ev="http://www.w3.org/2001/xml-events" xmlns:xlink="http://www.w3.org/1999/xlink"><defs /><g><path d="M 61.7047 292.462 L 72.3783 292.462  L 72.3783 296.462  L 61.7047 296.462  z" fill="none" stroke="rgb(217, 95, 2)" /><path d="M 19.0104 292.462 L 29.6839 292.462  L 29.6839 296.462  L 19.0104 296.462  z" fill="none" stroke="rgb(217, 95, 2)" /><path d="M -2.33679 296.462 L -2.33679 292.462  L 8.33679 292.462  L 8.33679 296.462  z" fill="none" stroke="rgb(217, 95, 2)" /><path d="M -23.6839 296.462 L -23.6839 292.462  L -13.0104 292.462  L -13.0104 296.462  z" fill="none" stroke="rgb(217, 95, 2)" /><path d="M 40.3575 296.462 L 40.3575 292.462  L 51.0311 292.462  L 51.0311 296.462  z" fill="none" stroke="rgb(217, 95, 2)" /><path d="M -66.3783 296.462 L -66.3783 292.462  L -55.7047 292.462  L -55.7047 296.462  z" fill="none" stroke="rgb(217, 95, 2)" /><path d="M -45.0311 296.462 L -45.0311 292.462  L -34.3575 292.462  L -34.3575 296.462  z" fill="none" stroke="rgb(217, 95, 2)" /><path d="M 84.4193 285.51 L 89.7561 276.266  L 93.2202 278.266  L 87.8834 287.51  z" fill="none" stroke="rgb(217, 95, 2)" /><path d="M -87.2202 278.266 L -83.7561 276.266  L -78.4193 285.51  L -81.8834 287.51  z" fill="none" stroke="rgb(217, 95, 2)" /><path d="M -97.8938 259.779 L -94.4297 257.779  L -89.0929 267.022  L -92.557 269.022  z" fill="none" stroke="rgb(217, 95, 2)" /><path d="M 95.0929 267.022 L 100.43 257.779  L 103.894 259.779  L 98.557 269.022  z" fill="none" stroke="rgb(217, 95, 2)" /><path d="M 105.766 248.535 L 111.103 239.292  L 114.567 241.292  L 109.231 250.535  z" fill="none" stroke="rgb(217, 95, 2)" /><path d="M -108.567 241.292 L -105.103 239.292  L -99.7665 248.535  L -103.231 250.535  z" fill="none" stroke="rgb(217, 95, 2)" /><path d="M 116.44 230.048 L 121.777 220.804  L 125.241 222.804  L 119.904 232.048  z" fill="none" stroke="rgb(217, 95, 2)" /><path d="M -119.241 222.804 L -115.777 220.804  L -110.44 230.048  L -113.904 232.048  z" fill="none" stroke="rgb(217, 95, 2)" /><path d="M 127.114 211.561 L 132.45 202.317  L 135.915 204.317  L 130.578 213.561  z" fill="none" stroke="rgb(217, 95, 2)" /><path d="M -129.915 204.317 L -126.45 202.317  L -121.114 211.561  L -124.578 213.561  z" fill="none" stroke="rgb(217, 95, 2)" /><path d="M 137.787 193.074 L 143.124 183.83  L 146.588 185.83  L 141.251 195.074  z" fill="none" stroke="rgb(217, 95, 2)" /><path d="M -140.588 185.83 L -137.124 183.83  L -131.787 193.074  L -135.251 195.074  z" fill="none" stroke="rgb(217, 95, 2)" /><path d="M 148.461 174.587 L 153.798 165.343  L 157.262 167.343  L 151.925 176.587  z" fill="none" stroke="rgb(217, 95, 2)" /><path d="M -151.262 167.343 L -147.798 165.343  L -142.461 174.587  L -145.925 176.587  z" fill="none" stroke="rgb(217, 95, 2)" /><path d="M 148.461 142.196 L 151.925 140.196  L 157.262 149.439  L 153.798 151.439  z" fill="none" stroke="rgb(217, 95, 2)" /><path d="M -151.262 149.439 L -145.925 140.196  L -142.461 142.196  L -147.798 151.439  z" fill="none" stroke="rgb(217, 95, 2)" /><path d="M -140.588 130.952 L -135.251 121.708  L -131.787 123.708  L -137.124 132.952  z" fill="none" stroke="rgb(217, 95, 2)" /><path d="M 137.787 123.708 L 141.251 121.708  L 146.588 130.952  L 143.124 132.952  z" fill="none" stroke="rgb(217, 95, 2)" /><path d="M 127.114 105.221 L 130.578 103.221  L 135.915 112.465  L 132.45 114.465  z" fill="none" stroke="rgb(217, 95, 2)" /><path d="M -129.915 112.465 L -124.578 103.221  L -121.114 105.221  L -126.45 114.465  z" fill="none" stroke="rgb(217, 95, 2)" /><path d="M 116.44 86.734 L 119.904 84.734  L 125.241 93.9776  L 121.777 95.9776  z" fill="none" stroke="rgb(217, 95, 2)" /><path d="M -119.241 93.9776 L -113.904 84.734  L -110.44 86.734  L -115.777 95.9776  z" fill="none" stroke="rgb(217, 95, 2)" /><path d="M 105.766 68.2468 L 109.231 66.2468  L 114.567 75.4904  L 111.103 77.4904  z" fill="none" stroke="rgb(217, 95, 2)" /><path d="M -108.567 75.4904 L -103.231 66.2468  L -99.7665 68.2468  L -105.103 77.4904  z" fill="none" stroke="rgb(217, 95, 2)" /><path d="M 95.0929 49.7596 L 98.557 47.7596  L 103.894 57.0032  L 100.43 59.0032  z" fill="none" stroke="rgb(217, 95, 2)" /><path d="M -97.8938 57.0032 L -92.557 47.7596  L -89.0929 49.7596  L -94.4297 59.0032  z" fill="none" stroke="rgb(217, 95, 2)" /><path d="M 84.4193 31.2724 L 87.8834 29.2724  L 93.2202 38.516  L 89.7561 40.516  z" fill="none" stroke="rgb(217, 95, 2)" /><path d="M -87.2202 38.516 L -81.8834 29.2724  L -78.4193 31.2724  L -83.7561 40.516  z" fill="none" stroke="rgb(217, 95, 2)" /><path d="M 61.7047 20.3205 L 72.3783 20.3205  L 72.3783 24.3205  L 61.7047 24.3205  z" fill="none" stroke="rgb(217, 95, 2)" /><path d="M 19.0104 20.3205 L 29.6839 20.3205  L 29.6839 24.3205  L 19.0104 24.3205  z" fill="none" stroke="rgb(217, 95, 2)" /><path d="M -2.33679 24.3205 L -2.33679 20.3205  L 8.33679 20.3205  L 8.33679 24.3205  z" fill="none" stroke="rgb(217, 95, 2)" /><path d="M -23.6839 24.3205 L -23.6839 20.3205  L -13.0104 20.3205  L -13.0104 24.3205  z" fill="none" stroke="rgb(217, 95, 2)" /><path d="M 40.3575 24.3205 L 40.3575 20.3205  L 51.0311 20.3205  L 51.0311 24.3205  z" fill="none" stroke="rgb(217, 95, 2)" /><path d="M -66.3783 24.3205 L -66.3783 20.3205  L -55.7047 20.3205  L -55.7047 24.3205  z" fill="none" stroke="rgb(217, 95, 2)" /><path d="M -45.0311 20.3205 L -34.3575 20.3205  L -34.3575 24.3205  L -45.0311 24.3205  z" fill="none" stroke="rgb(217, 95, 2)" /><path d="M 92.715 3 L -86.715 3  L -176.43 158.391  L -86.715 313.782  L 92.715 313.782  L 182.43 158.391  z" fill="none" stroke="rgb(27, 158, 119)" /></g></svg>