<?xml version="1.0" encoding="utf-8" ?>
<svg baseProfile="full" height="327.19101615137754mm" version="1.1" viewBox="-2.0,-160.59550807568877,376.2606371190575,327.19101615137754" width="376.2606371190575mm" xmlns="http://www.w3.org/2000/svg" xmlns:ev="http://www.w3.org/2001/xml-events" xmlns:xlink="http://www.w3.org/1999/xlink"><defs /><g transform="translate(186.13, 3)"><path d="M 58.9678 138.596 L 58.9678 135.596  L 69.6347 135.596  L 69.6347 138.596  z" fill="none" stroke="rgb(217, 95, 2)" /><path d="M 37.5341 138.596 L 37.5341 135.596  L 48.201 135.596  L 48.201 138.596  z" fill="none" stroke="rgb(217, 95, 2)" /><path d="M 16.1003 138.596 L 16.1003 135.596  L 26.7672 135.596  L 26.7672 138.596  z" fill="none" stroke="rgb(217, 95, 2)" /><path d="M -5.33344 138.596 L -5.33344 135.596  L 5.33344 135.596  L 5.33344 138.596  z" fill="none" stroke="rgb(217, 95, 2)" /><path d="M -26.7672 138.596 L -26.7672 135.596  L -16.1003 135.596  L -16.1003 138.596  z" fill="none" stroke="rgb(217, 95, 2)" /><path d="M -48.201 138.596 L -48.201 135.596  L -37.5341 135.596  L -37.5341 138.596  z" fill="none" stroke="rgb(217, 95, 2)" /><path d="M -69.6347 138.596 L -69.6347 135.596  L -58.9678 135.596  L -58.9678 138.596  z" fill="none" stroke="rgb(217, 95, 2)" /><path d="M -90.5433 120.365 L -87.9452 118.865  L -82.6118 128.103  L -85.2099 129.603  z" fill="none" stroke="rgb(217, 95, 2)" /><path d="M 82.6118 128.103 L 87.9452 118.865  L 90.5433 120.365  L 85.2099 129.603  z" fill="none" stroke="rgb(217, 95, 2)" /><path d="M -101.26 101.803 L -98.6621 100.303  L -93.3287 109.541  L -95.9268 111.041  z" fill="none" stroke="rgb(217, 95, 2)" /><path d="M 93.3287 109.541 L 98.6621 100.303  L 101.26 101.803  L 95.9268 111.041  z" fill="none" stroke="rgb(217, 95, 2)" /><path d="M 104.046 90.9788 L 109.379 81.741  L 111.977 83.241  L 106.644 92.4788  z" fill="none" stroke="rgb(217, 95, 2)" /><path d="M -111.977 83.241 L -109.379 81.741  L -104.046 90.9788  L -106.644 92.4788  z" fill="none" stroke="rgb(217, 95, 2)" /><path d="M 114.762 72.4166 L 120.096 63.1789  L 122.694 64.6789  L 117.361 73.9166  z" fill="none" stroke="rgb(217, 95, 2)" /><path d="M -122.694 64.6789 L -120.096 63.1789  L -114.762 72.4166  L -117.361 73.9166  z" fill="none" stroke="rgb(217, 95, 2)" /><path d="M 125.479 53.8545 L 130.813 44.6167  L 133.411 46.1167  L 128.077 55.3545  z" fill="none" stroke="rgb(217, 95, 2)" /><path d="M -133.411 46.1167 L -130.813 44.6167  L -125.479 53.8545  L -128.077 55.3545  z" fill="none" stroke="rgb(217, 95, 2)" /><path d="M 136.196 35.2923 L 141.53 26.0545  L 144.128 27.5545  L 138.794 36.7923  z" fill="none" stroke="rgb(217, 95, 2)" /><path d="M -144.128 27.5545 L -141.53 26.0545  L -136.196 35.2923  L -138.794 36.7923  z" fill="none" stroke="rgb(217, 95, 2)" /><path d="M 146.913 16.7301 L 152.247 7.49232  L 154.845 8.99232  L 149.511 18.2301  z" fill="none" stroke="rgb(217, 95, 2)" /><path d="M -154.845 8.99232 L -152.247 7.49232  L -146.913 16.7301  L -149.511 18.2301  z" fill="none" stroke="rgb(217, 95, 2)" /><path d="M 146.913 -16.7301 L 149.511 -18.2301  L 154.845 -8.99232  L 152.247 -7.49232  z" fill="none" stroke="rgb(217, 95, 2)" /><path d="M -154.845 -8.99232 L -149.511 -18.2301  L -146.913 -16.7301  L -152.247 -7.49232  z" fill="none" stroke="rgb(217, 95, 2)" /><path d="M 136.196 -35.2923 L 138.794 -36.7923  L 144.128 -27.5545  L 141.53 -26.0545  z" fill="none" stroke="rgb(217, 95, 2)" /><path d="M -144.128 -27.5545 L -138.794 -36.7923  L -136.196 -35.2923  L -141.53 -26.0545  z" fill="none" stroke="rgb(217, 95, 2)" /><path d="M 125.479 -53.8545 L 128.077 -55.3545  L 133.411 -46.1167  L 130.813 -44.6167  z" fill="none" stroke="rgb(217, 95, 2)" /><path d="M -133.411 -46.1167 L -128.077 -55.3545  L -125.479 -53.8545  L -130.813 -44.6167  z" fill="none" stroke="rgb(217, 95, 2)" /><path d="M 114.762 -72.4166 L 117.361 -73.9166  L 122.694 -64.6789  L 120.096 -63.1789  z" fill="none" stroke="rgb(217, 95, 2)" /><path d="M -122.694 -64.6789 L -117.361 -73.9166  L -114.762 -72.4166  L -120.096 -63.1789  z" fill="none" stroke="rgb(217, 95, 2)" /><path d="M 104.046 -90.9788 L 106.644 -92.4788  L 111.977 -83.241  L 109.379 -81.741  z" fill="none" stroke="rgb(217, 95, 2)" /><path d="M -111.977 -83.241 L -106.644 -92.4788  L -104.046 -90.9788  L -109.379 -81.741  z" fill="none" stroke="rgb(217, 95, 2)" /><path d="M 93.3287 -109.541 L 95.9268 -111.041  L 101.26 -101.803  L 98.6621 -100.303  z" fill="none" stroke="rgb(217, 95, 2)" /><path d="M -101.26 -101.803 L -95.9268 -111.041  L -93.3287 -109.541  L -98.6621 -100.303  z" fill="none" stroke="rgb(217, 95, 2)" /><path d="M 82.6118 -128.103 L 85.2099 -129.603  L 90.5433 -120.365  L 87.9452 -118.865  z" fill="none" stroke="rgb(217, 95, 2)" /><path d="M -90.5433 -120.365 L -85.2099 -129.603  L -82.6118 -128.103  L -87.9452 -118.865  z" fill="none" stroke="rgb(217, 95, 2)" /><path d="M 37.5341 -135.596 L 37.5341 -138.596  L 48.201 -138.596  L 48.201 -135.596  z" fill="none" stroke="rgb(217, 95, 2)" /><path d="M -48.201 -135.596 L -48.201 -138.596  L -37.5341 -138.596  L -37.5341 -135.596  z" fill="none" stroke="rgb(217, 95, 2)" /><path d="M 16.1003 -135.596 L 16.1003 -138.596  L 26.7672 -138.596  L 26.7672 -135.596  z" fill="none" stroke="rgb(217, 95, 2)" /><path d="M -5.33344 -135.596 L -5.33344 -138.596  L 5.33344 -138.596  L 5.33344 -135.596  z" fill="none" stroke="rgb(217, 95, 2)" /><path d="M -26.7672 -135.596 L -26.7672 -138.596  L -16.1003 -138.596  L -16.1003 -135.596  z" fill="none" stroke="rgb(217, 95, 2)" /><path d="M 58.9678 -135.596 L 58.9678 -138.596  L 69.6347 -138.596  L 69.6347 -135.596  z" fill="none" stroke="rgb(217, 95, 2)" /><path d="M -69.6347 -138.596 L -58.9678 -138.596  L -58.9678 -135.596  L -69.6347 -135.596  z" fill="none" stroke="rgb(217, 95, 2)" /><path d="M 38.5 -151.596 L 38.5 -155.596  L 41.5 -155.596  L 41.5 -151.596  z" fill="none" stroke="rgb(217, 95, 2)" /><path d="M -41.5 -151.596 L -41.5 -155.596  L -38.5 -155.596  L -38.5 -151.596  z" fill="none" stroke="rgb(217, 95, 2)" /><path d="M 91.5652 -158.596 L -91.5652 -158.596  L -183.13 0  L -91.5652 158.596  L 91.5652 158.596  L 183.13 5.68434e-14  z" fill="none" stroke="rgb(27, 158, 119)" /><text style="font-size:6;font-family:'Ubuntu'line-height:1;" text-anchor="middle" x="0" y="155.59550807568874"><tspan>LaserLabyrinth v0.2</tspan><tspan dx="2" style="font-size:3;">by Fablab Karlsruhe</tspan></text></g></svg>