<?xml version="1.0" encoding="utf-8" ?>
<svg baseProfile="full" height="276.1410161513776mm" version="1.1" viewBox="-156.43009000929464,3.0,318.8601800185893,276.1410161513776" width="318.8601800185893mm" xmlns="http://www.w3.org/2000/svg" xmlns:ev="http://www.w3.org/2001/xml-events" xmlns:xlink="http://www.w3.org/1999/xlink"><defs /><path d="M 87.8834 270.189 L 84.4193 268.189  L 89.7561 258.946  L 93.2202 260.946  L 98.557 251.702  L 95.0929 249.702  L 100.43 240.458  L 103.894 242.458  L 109.231 233.215  L 105.766 231.215  L 111.103 221.971  L 114.567 223.971  L 119.904 214.728  L 116.44 212.728  L 121.777 203.484  L 125.241 205.484  L 130.578 196.24  L 127.114 194.24  L 132.45 184.997  L 135.915 186.997  L 141.251 177.753  L 137.787 175.753  L 143.124 166.51  L 146.588 168.51  L 151.925 159.266  L 148.461 157.266  L 153.798 148.022  L 157.262 150.022  L 162.43 141.071  L 157.262 132.119  L 153.798 134.119  L 148.461 124.875  L 151.925 122.875  L 146.588 113.631  L 143.124 115.631  L 137.787 106.388  L 141.251 104.388  L 135.915 95.1442  L 132.45 97.1442  L 127.114 87.9006  L 130.578 85.9006  L 125.241 76.657  L 121.777 78.657  L 116.44 69.4135  L 119.904 67.4135  L 114.567 58.1699  L 111.103 60.1699  L 105.766 50.9263  L 109.231 48.9263  L 103.894 39.6827  L 100.43 41.6827  L 95.0929 32.4391  L 98.557 30.4391  L 93.2202 21.1955  L 89.7561 23.1955  L 84.4193 13.9519  L 87.8834 11.9519  L 82.715 3  L 72.3783 3  L 72.3783 7  L 61.7047 7  L 61.7047 3  L 51.0311 3  L 51.0311 7  L 40.3575 7  L 40.3575 3  L 29.6839 3  L 29.6839 7  L 19.0104 7  L 19.0104 3  L 8.33679 3  L 8.33679 7  L -2.33679 7  L -2.33679 3  L -13.0104 3  L -13.0104 7  L -23.6839 7  L -23.6839 3  L -34.3575 3  L -34.3575 7  L -45.0311 7  L -45.0311 3  L -55.7047 3  L -55.7047 7  L -66.3783 7  L -66.3783 3  L -76.715 3  L -81.8834 11.9519  L -78.4193 13.9519  L -83.7561 23.1955  L -87.2202 21.1955  L -92.557 30.4391  L -89.0929 32.4391  L -94.4297 41.6827  L -97.8938 39.6827  L -103.231 48.9263  L -99.7665 50.9263  L -105.103 60.1699  L -108.567 58.1699  L -113.904 67.4135  L -110.44 69.4135  L -115.777 78.657  L -119.241 76.657  L -124.578 85.9006  L -121.114 87.9006  L -126.45 97.1442  L -129.915 95.1442  L -135.251 104.388  L -131.787 106.388  L -137.124 115.631  L -140.588 113.631  L -145.925 122.875  L -142.461 124.875  L -147.798 134.119  L -151.262 132.119  L -156.43 141.071  L -151.262 150.022  L -147.798 148.022  L -142.461 157.266  L -145.925 159.266  L -140.588 168.51  L -137.124 166.51  L -131.787 175.753  L -135.251 177.753  L -129.915 186.997  L -126.45 184.997  L -121.114 194.24  L -124.578 196.24  L -119.241 205.484  L -115.777 203.484  L -110.44 212.728  L -113.904 214.728  L -108.567 223.971  L -105.103 221.971  L -99.7665 231.215  L -103.231 233.215  L -97.8938 242.458  L -94.4297 240.458  L -89.0929 249.702  L -92.557 251.702  L -87.2202 260.946  L -83.7561 258.946  L -78.4193 268.189  L -81.8834 270.189  L -76.715 279.141  L -66.3783 279.141  L -66.3783 275.141  L -55.7047 275.141  L -55.7047 279.141  L -45.0311 279.141  L -45.0311 275.141  L -34.3575 275.141  L -34.3575 279.141  L -23.6839 279.141  L -23.6839 275.141  L -13.0104 275.141  L -13.0104 279.141  L -2.33679 279.141  L -2.33679 275.141  L 8.33679 275.141  L 8.33679 279.141  L 19.0104 279.141  L 19.0104 275.141  L 29.6839 275.141  L 29.6839 279.141  L 40.3575 279.141  L 40.3575 275.141  L 51.0311 275.141  L 51.0311 279.141  L 61.7047 279.141  L 61.7047 275.141  L 72.3783 275.141  L 72.3783 279.141  L 82.715 279.141  z" fill="none" stroke="rgb(27, 158, 119)" /></svg>