<?xml version="1.0" encoding="utf-8" ?>
<svg baseProfile="full" height="164.23094010767585mm" version="1.1" viewBox="-3.099999999999993,-3.1154700538379316,144.10381056766582,164.23094010767585" width="144.10381056766582mm" xmlns="http://www.w3.org/2000/svg" xmlns:ev="http://www.w3.org/2001/xml-events" xmlns:xlink="http://www.w3.org/1999/xlink"><defs /><g><path d="M 27.2777 46.5573 L 30.1139 44.9198  L 31.6139 47.5179  L 37.438 44.1554  L 35.938 41.5573  L 38.7742 39.9198  L 40.2742 42.5179  L 45.4013 39.5577  L 45.4013 33.6375  L 42.4013 33.6375  L 42.4013 30.3625  L 45.4013 30.3625  L 45.4013 23.6375  L 42.4013 23.6375  L 42.4013 20.3625  L 45.4013 20.3625  L 45.4013 14.4423  L 40.2742 11.4821  L 38.7742 14.0802  L 35.938 12.4427  L 37.438 9.84465  L 31.6139 6.48215  L 30.1139 9.08022  L 27.2777 7.44272  L 28.7777 4.84465  L 23.6506 1.88453  L 18.5236 4.84465  L 20.0236 7.44272  L 17.1873 9.08022  L 15.6873 6.48215  L 9.86331 9.84465  L 11.3633 12.4427  L 8.52707 14.0802  L 7.02707 11.4821  L 1.9 14.4423  L 1.9 20.3625  L 4.9 20.3625  L 4.9 23.6375  L 1.9 23.6375  L 1.9 30.3625  L 4.9 30.3625  L 4.9 33.6375  L 1.9 33.6375  L 1.9 39.5577  L 7.02707 42.5179  L 8.52707 39.9198  L 11.3633 41.5573  L 9.86331 44.1554  L 15.6873 47.5179  L 17.1873 44.9198  L 20.0236 46.5573  L 18.5236 49.1554  L 23.6506 52.1155  L 28.7777 49.1554  z" fill="none" stroke="rgb(27, 158, 119)" /></g><g><path d="M 72.579 46.5573 L 75.4152 44.9198  L 76.9152 47.5179  L 82.7392 44.1554  L 81.2392 41.5573  L 84.0755 39.9198  L 85.5755 42.5179  L 90.7025 39.5577  L 90.7025 33.6375  L 87.7025 33.6375  L 87.7025 30.3625  L 90.7025 30.3625  L 90.7025 23.6375  L 87.7025 23.6375  L 87.7025 20.3625  L 90.7025 20.3625  L 90.7025 14.4423  L 85.5755 11.4821  L 84.0755 14.0802  L 81.2392 12.4427  L 82.7392 9.84465  L 76.9152 6.48215  L 75.4152 9.08022  L 72.579 7.44272  L 74.079 4.84465  L 68.9519 1.88453  L 63.8248 4.84465  L 65.3248 7.44272  L 62.4886 9.08022  L 60.9886 6.48215  L 55.1646 9.84465  L 56.6646 12.4427  L 53.8283 14.0802  L 52.3283 11.4821  L 47.2013 14.4423  L 47.2013 20.3625  L 50.2013 20.3625  L 50.2013 23.6375  L 47.2013 23.6375  L 47.2013 30.3625  L 50.2013 30.3625  L 50.2013 33.6375  L 47.2013 33.6375  L 47.2013 39.5577  L 52.3283 42.5179  L 53.8283 39.9198  L 56.6646 41.5573  L 55.1646 44.1554  L 60.9886 47.5179  L 62.4886 44.9198  L 65.3248 46.5573  L 63.8248 49.1554  L 68.9519 52.1155  L 74.079 49.1554  z" fill="none" stroke="rgb(27, 158, 119)" /></g><g><path d="M 117.88 46.5573 L 120.716 44.9198  L 122.216 47.5179  L 128.041 44.1554  L 126.541 41.5573  L 129.377 39.9198  L 130.877 42.5179  L 136.004 39.5577  L 136.004 33.6375  L 133.004 33.6375  L 133.004 30.3625  L 136.004 30.3625  L 136.004 23.6375  L 133.004 23.6375  L 133.004 20.3625  L 136.004 20.3625  L 136.004 14.4423  L 130.877 11.4821  L 129.377 14.0802  L 126.541 12.4427  L 128.041 9.84465  L 122.216 6.48215  L 120.716 9.08022  L 117.88 7.44272  L 119.38 4.84465  L 114.253 1.88453  L 109.126 4.84465  L 110.626 7.44272  L 107.79 9.08022  L 106.29 6.48215  L 100.466 9.84465  L 101.966 12.4427  L 99.1296 14.0802  L 97.6296 11.4821  L 92.5025 14.4423  L 92.5025 20.3625  L 95.5025 20.3625  L 95.5025 23.6375  L 92.5025 23.6375  L 92.5025 30.3625  L 95.5025 30.3625  L 95.5025 33.6375  L 92.5025 33.6375  L 92.5025 39.5577  L 97.6296 42.5179  L 99.1296 39.9198  L 101.966 41.5573  L 100.466 44.1554  L 106.29 47.5179  L 107.79 44.9198  L 110.626 46.5573  L 109.126 49.1554  L 114.253 52.1155  L 119.38 49.1554  z" fill="none" stroke="rgb(27, 158, 119)" /><path d="M 104.353 28.9 L 104.353 25.1  L 124.153 25.1  L 124.153 28.9  z" fill="none" stroke="rgb(217, 95, 2)" /></g><g><path d="M 27.2777 98.5573 L 30.1139 96.9198  L 31.6139 99.5179  L 37.438 96.1554  L 35.938 93.5573  L 38.7742 91.9198  L 40.2742 94.5179  L 45.4013 91.5577  L 45.4013 85.6375  L 42.4013 85.6375  L 42.4013 82.3625  L 45.4013 82.3625  L 45.4013 75.6375  L 42.4013 75.6375  L 42.4013 72.3625  L 45.4013 72.3625  L 45.4013 66.4423  L 40.2742 63.4821  L 38.7742 66.0802  L 35.938 64.4427  L 37.438 61.8446  L 31.6139 58.4821  L 30.1139 61.0802  L 27.2777 59.4427  L 28.7777 56.8446  L 23.6506 53.8845  L 18.5236 56.8446  L 20.0236 59.4427  L 17.1873 61.0802  L 15.6873 58.4821  L 9.86331 61.8446  L 11.3633 64.4427  L 8.52707 66.0802  L 7.02707 63.4821  L 1.9 66.4423  L 1.9 72.3625  L 4.9 72.3625  L 4.9 75.6375  L 1.9 75.6375  L 1.9 82.3625  L 4.9 82.3625  L 4.9 85.6375  L 1.9 85.6375  L 1.9 91.5577  L 7.02707 94.5179  L 8.52707 91.9198  L 11.3633 93.5573  L 9.86331 96.1554  L 15.6873 99.5179  L 17.1873 96.9198  L 20.0236 98.5573  L 18.5236 101.155  L 23.6506 104.115  L 28.7777 101.155  z" fill="none" stroke="rgb(27, 158, 119)" /><path d="M 23.3569 81.9352 L 23.0661 81.8914  L 22.7811 81.8188  L 22.5048 81.7182  L 22.2398 81.5906  L 21.9889 81.4373  L 21.7545 81.2597  L 21.5389 81.0597  L 21.3443 80.8392  L 21.1727 80.6004  L 21.0256 80.3458  L 20.9047 80.0777  L 20.811 79.7989  L 20.7456 79.5122  L 20.709 79.2204  L 20.7017 78.9265  L 20.7237 78.6332  L 20.7747 78.3436  L 20.8544 78.0605  L 20.9618 77.7868  L 21.096 77.5251  L 21.2555 77.278  L 21.4389 77.0481  L 21.6442 76.8376  L 21.8695 76.6486  L 22.1125 76.4829  L 22.3707 76.3423  L 22.6417 76.228  L 22.9227 76.1413  L 23.211 76.0831  L 23.5036 76.0538  L 23.7977 76.0538  L 24.0903 76.0831  L 24.3785 76.1413  L 24.6596 76.228  L 24.9305 76.3423  L 25.1888 76.4829  L 25.4318 76.6486  L 25.6571 76.8376  L 25.8624 77.0481  L 26.0458 77.278  L 26.2053 77.5251  L 26.3395 77.7868  L 26.4469 78.0605  L 26.5266 78.3436  L 26.5776 78.6332  L 26.5996 78.9265  L 26.5923 79.2204  L 26.5557 79.5122  L 26.4903 79.7989  L 26.3966 80.0777  L 26.2756 80.3458  L 26.1286 80.6004  L 25.9569 80.8392  L 25.7624 81.0597  L 25.5468 81.2597  L 25.3124 81.4373  L 25.0614 81.5906  L 24.7965 81.7182  L 24.5201 81.8188  L 24.2351 81.8914  L 23.9443 81.9352  L 23.6506 81.9499  z" fill="none" stroke="rgb(217, 95, 2)" /></g><g><path d="M 72.579 98.5573 L 75.4152 96.9198  L 76.9152 99.5179  L 82.7392 96.1554  L 81.2392 93.5573  L 84.0755 91.9198  L 85.5755 94.5179  L 90.7025 91.5577  L 90.7025 85.6375  L 87.7025 85.6375  L 87.7025 82.3625  L 90.7025 82.3625  L 90.7025 75.6375  L 87.7025 75.6375  L 87.7025 72.3625  L 90.7025 72.3625  L 90.7025 66.4423  L 85.5755 63.4821  L 84.0755 66.0802  L 81.2392 64.4427  L 82.7392 61.8446  L 76.9152 58.4821  L 75.4152 61.0802  L 72.579 59.4427  L 74.079 56.8446  L 68.9519 53.8845  L 63.8248 56.8446  L 65.3248 59.4427  L 62.4886 61.0802  L 60.9886 58.4821  L 55.1646 61.8446  L 56.6646 64.4427  L 53.8283 66.0802  L 52.3283 63.4821  L 47.2013 66.4423  L 47.2013 72.3625  L 50.2013 72.3625  L 50.2013 75.6375  L 47.2013 75.6375  L 47.2013 82.3625  L 50.2013 82.3625  L 50.2013 85.6375  L 47.2013 85.6375  L 47.2013 91.5577  L 52.3283 94.5179  L 53.8283 91.9198  L 56.6646 93.5573  L 55.1646 96.1554  L 60.9886 99.5179  L 62.4886 96.9198  L 65.3248 98.5573  L 63.8248 101.155  L 68.9519 104.115  L 74.079 101.155  z" fill="none" stroke="rgb(27, 158, 119)" /><path d="M 61.0519 78.9 L 61.0519 78.55  L 76.8519 78.55  L 76.8519 78.9  z" fill="none" stroke="rgb(217, 95, 2)" /></g><g><path d="M 117.88 98.5573 L 120.716 96.9198  L 122.216 99.5179  L 128.041 96.1554  L 126.541 93.5573  L 129.377 91.9198  L 130.877 94.5179  L 136.004 91.5577  L 136.004 85.6375  L 133.004 85.6375  L 133.004 82.3625  L 136.004 82.3625  L 136.004 75.6375  L 133.004 75.6375  L 133.004 72.3625  L 136.004 72.3625  L 136.004 66.4423  L 130.877 63.4821  L 129.377 66.0802  L 126.541 64.4427  L 128.041 61.8446  L 122.216 58.4821  L 120.716 61.0802  L 117.88 59.4427  L 119.38 56.8446  L 114.253 53.8845  L 109.126 56.8446  L 110.626 59.4427  L 107.79 61.0802  L 106.29 58.4821  L 100.466 61.8446  L 101.966 64.4427  L 99.1296 66.0802  L 97.6296 63.4821  L 92.5025 66.4423  L 92.5025 72.3625  L 95.5025 72.3625  L 95.5025 75.6375  L 92.5025 75.6375  L 92.5025 82.3625  L 95.5025 82.3625  L 95.5025 85.6375  L 92.5025 85.6375  L 92.5025 91.5577  L 97.6296 94.5179  L 99.1296 91.9198  L 101.966 93.5573  L 100.466 96.1554  L 106.29 99.5179  L 107.79 96.9198  L 110.626 98.5573  L 109.126 101.155  L 114.253 104.115  L 119.38 101.155  z" fill="none" stroke="rgb(27, 158, 119)" /><path d="M 107.187 75.4397 L 107.362 75.1366  L 121.045 83.0366  L 120.87 83.3397  z" fill="none" stroke="rgb(217, 95, 2)" /></g><g><path d="M 27.2777 150.557 L 30.1139 148.92  L 31.6139 151.518  L 37.438 148.155  L 35.938 145.557  L 38.7742 143.92  L 40.2742 146.518  L 45.4013 143.558  L 45.4013 137.638  L 42.4013 137.638  L 42.4013 134.363  L 45.4013 134.363  L 45.4013 127.638  L 42.4013 127.638  L 42.4013 124.362  L 45.4013 124.362  L 45.4013 118.442  L 40.2742 115.482  L 38.7742 118.08  L 35.938 116.443  L 37.438 113.845  L 31.6139 110.482  L 30.1139 113.08  L 27.2777 111.443  L 28.7777 108.845  L 23.6506 105.885  L 18.5236 108.845  L 20.0236 111.443  L 17.1873 113.08  L 15.6873 110.482  L 9.86331 113.845  L 11.3633 116.443  L 8.52707 118.08  L 7.02707 115.482  L 1.9 118.442  L 1.9 124.362  L 4.9 124.362  L 4.9 127.637  L 1.9 127.637  L 1.9 134.362  L 4.9 134.362  L 4.9 137.637  L 1.9 137.637  L 1.9 143.558  L 7.02707 146.518  L 8.52707 143.92  L 11.3633 145.557  L 9.86331 148.155  L 15.6873 151.518  L 17.1873 148.92  L 20.0236 150.557  L 18.5236 153.155  L 23.6506 156.115  L 28.7777 153.155  z" fill="none" stroke="rgb(27, 158, 119)" /><path d="M 8.75064 130.9 L 8.75064 129.9  L 38.5506 129.9  L 38.5506 130.9  z" fill="none" stroke="rgb(217, 95, 2)" /></g><g><path d="M 72.579 150.557 L 75.4152 148.92  L 76.9152 151.518  L 82.7392 148.155  L 81.2392 145.557  L 84.0755 143.92  L 85.5755 146.518  L 90.7025 143.558  L 90.7025 137.638  L 87.7025 137.638  L 87.7025 134.363  L 90.7025 134.363  L 90.7025 127.638  L 87.7025 127.638  L 87.7025 124.362  L 90.7025 124.362  L 90.7025 118.442  L 85.5755 115.482  L 84.0755 118.08  L 81.2392 116.443  L 82.7392 113.845  L 76.9152 110.482  L 75.4152 113.08  L 72.579 111.443  L 74.079 108.845  L 68.9519 105.885  L 63.8248 108.845  L 65.3248 111.443  L 62.4886 113.08  L 60.9886 110.482  L 55.1646 113.845  L 56.6646 116.443  L 53.8283 118.08  L 52.3283 115.482  L 47.2013 118.442  L 47.2013 124.362  L 50.2013 124.362  L 50.2013 127.637  L 47.2013 127.637  L 47.2013 134.362  L 50.2013 134.362  L 50.2013 137.637  L 47.2013 137.637  L 47.2013 143.558  L 52.3283 146.518  L 53.8283 143.92  L 56.6646 145.557  L 55.1646 148.155  L 60.9886 151.518  L 62.4886 148.92  L 65.3248 150.557  L 63.8248 153.155  L 68.9519 156.115  L 74.079 153.155  z" fill="none" stroke="rgb(27, 158, 119)" /><path d="M 55.4981 124.503 L 55.9981 123.637  L 81.8057 138.537  L 81.3057 139.403  z" fill="none" stroke="rgb(217, 95, 2)" /></g><g><path d="M 117.88 150.557 L 120.716 148.92  L 122.216 151.518  L 128.041 148.155  L 126.541 145.557  L 129.377 143.92  L 130.877 146.518  L 136.004 143.558  L 136.004 137.638  L 133.004 137.638  L 133.004 134.363  L 136.004 134.363  L 136.004 127.638  L 133.004 127.638  L 133.004 124.362  L 136.004 124.362  L 136.004 118.442  L 130.877 115.482  L 129.377 118.08  L 126.541 116.443  L 128.041 113.845  L 122.216 110.482  L 120.716 113.08  L 117.88 111.443  L 119.38 108.845  L 114.253 105.885  L 109.126 108.845  L 110.626 111.443  L 107.79 113.08  L 106.29 110.482  L 100.466 113.845  L 101.966 116.443  L 99.1296 118.08  L 97.6296 115.482  L 92.5025 118.442  L 92.5025 124.362  L 95.5025 124.362  L 95.5025 127.637  L 92.5025 127.637  L 92.5025 134.362  L 95.5025 134.362  L 95.5025 137.637  L 92.5025 137.637  L 92.5025 143.558  L 97.6296 146.518  L 99.1296 143.92  L 101.966 145.557  L 100.466 148.155  L 106.29 151.518  L 107.79 148.92  L 110.626 150.557  L 109.126 153.155  L 114.253 156.115  L 119.38 153.155  z" fill="none" stroke="rgb(27, 158, 119)" /><path d="M 112.803 132.45 L 112.803 129.55  L 115.703 129.55  L 115.703 132.45  z" fill="none" stroke="rgb(217, 95, 2)" /></g></svg>