<?xml version="1.0" encoding="utf-8" ?>
<svg baseProfile="full" height="102.34359353944895mm" version="1.1" viewBox="-3.1,-3.0999999999999983,66.2,102.34359353944895" width="66.2mm" xmlns="http://www.w3.org/2000/svg" xmlns:ev="http://www.w3.org/2001/xml-events" xmlns:xlink="http://www.w3.org/1999/xlink"><defs /><g><path d="M 4.9 23.6359 L 55.1 23.6359  L 55.1 19.6179  L 58.1 19.6179  L 58.1 15.9179  L 55.1 15.9179  L 55.1 9.61795  L 58.1 9.61795  L 58.1 5.91795  L 55.1 5.91795  L 55.1 1.9  L 4.9 1.9  L 4.9 5.91795  L 1.9 5.91795  L 1.9 9.61795  L 4.9 9.61795  L 4.9 15.9179  L 1.9 15.9179  L 1.9 19.6179  L 4.9 19.6179  z" fill="none" stroke="rgb(27, 158, 119)" /></g><g><path d="M 4.9 47.1718 L 55.1 47.1718  L 55.1 43.1538  L 58.1 43.1538  L 58.1 39.4538  L 55.1 39.4538  L 55.1 33.1538  L 58.1 33.1538  L 58.1 29.4538  L 55.1 29.4538  L 55.1 25.4359  L 4.9 25.4359  L 4.9 29.4538  L 1.9 29.4538  L 1.9 33.1538  L 4.9 33.1538  L 4.9 39.4538  L 1.9 39.4538  L 1.9 43.1538  L 4.9 43.1538  z" fill="none" stroke="rgb(27, 158, 119)" /><path d="M 27.1501 35.7182 L 27.3263 35.1565  L 27.612 34.6418  L 27.9955 34.1951  L 28.461 33.8347  L 28.9895 33.5755  L 29.5594 33.4279  L 30.1474 33.3981  L 30.7293 33.4872  L 31.2813 33.6917  L 31.7809 34.0031  L 32.2076 34.4087  L 32.5439 34.8919  L 32.7761 35.4329  L 32.8946 36.0095  L 32.8946 36.5982  L 32.7761 37.1748  L 32.5439 37.7158  L 32.2076 38.199  L 31.7809 38.6046  L 31.2813 38.916  L 30.7293 39.1205  L 30.1474 39.2096  L 29.5594 39.1798  L 28.9895 39.0322  L 28.461 38.773  L 27.9955 38.4126  L 27.612 37.9659  L 27.3263 37.4512  L 27.1501 36.8895  L 27.0905 36.3038  z" fill="none" stroke="rgb(217, 95, 2)" /></g><g><path d="M 4.9 70.7077 L 39.1 70.7077  L 39.1 66.6897  L 42.1 66.6897  L 42.1 62.9897  L 39.1 62.9897  L 39.1 56.6897  L 42.1 56.6897  L 42.1 52.9897  L 39.1 52.9897  L 39.1 48.9718  L 4.9 48.9718  L 4.9 52.9897  L 1.9 52.9897  L 1.9 56.6897  L 4.9 56.6897  L 4.9 62.9897  L 1.9 62.9897  L 1.9 66.6897  L 4.9 66.6897  z" fill="none" stroke="rgb(27, 158, 119)" /></g><g><path d="M 4.9 94.2436 L 39.1 94.2436  L 39.1 90.2256  L 42.1 90.2256  L 42.1 86.5256  L 39.1 86.5256  L 39.1 80.2256  L 42.1 80.2256  L 42.1 76.5256  L 39.1 76.5256  L 39.1 72.5077  L 4.9 72.5077  L 4.9 76.5256  L 1.9 76.5256  L 1.9 80.2256  L 4.9 80.2256  L 4.9 86.5256  L 1.9 86.5256  L 1.9 90.2256  L 4.9 90.2256  z" fill="none" stroke="rgb(27, 158, 119)" /><path d="M 11.1578 82.79 L 11.334 82.2283  L 11.6197 81.7135  L 12.0032 81.2669  L 12.4687 80.9065  L 12.9972 80.6473  L 13.5671 80.4997  L 14.1551 80.4699  L 14.737 80.559  L 15.289 80.7635  L 15.7886 81.0749  L 16.2153 81.4805  L 16.5516 81.9637  L 16.7838 82.5047  L 16.9023 83.0813  L 16.9023 83.67  L 16.7838 84.2466  L 16.5516 84.7876  L 16.2153 85.2708  L 15.7886 85.6764  L 15.289 85.9878  L 14.737 86.1922  L 14.1551 86.2814  L 13.5671 86.2516  L 12.9972 86.104  L 12.4687 85.8448  L 12.0032 85.4844  L 11.6197 85.0377  L 11.334 84.523  L 11.1578 83.9613  L 11.0982 83.3756  z" fill="none" stroke="rgb(217, 95, 2)" /></g></svg>