<?xml version="1.0" encoding="utf-8" ?>
<svg baseProfile="full" height="48.47179676972449mm" version="1.1" viewBox="-2.0,-10.86794919243112,125.4,48.47179676972449" width="125.4mm" xmlns="http://www.w3.org/2000/svg" xmlns:ev="http://www.w3.org/2001/xml-events" xmlns:xlink="http://www.w3.org/1999/xlink"><defs /><g transform="translate(31.1, 3)"><path d="M -25.1 8.86795 L 25.1 8.86795  L 25.1 6.825  L 28.1 6.825  L 28.1 3.175  L 25.1 3.175  L 25.1 -3.175  L 28.1 -3.175  L 28.1 -6.825  L 25.1 -6.825  L 25.1 -8.86795  L -25.1 -8.86795  L -25.1 -6.825  L -28.1 -6.825  L -28.1 -3.175  L -25.1 -3.175  L -25.1 3.175  L -28.1 3.175  L -28.1 6.825  L -25.1 6.825  z" fill="none" stroke="rgb(27, 158, 119)" /></g><g transform="translate(90.3, 3)"><path d="M -25.1 8.86795 L 25.1 8.86795  L 25.1 6.825  L 28.1 6.825  L 28.1 3.175  L 25.1 3.175  L 25.1 -3.175  L 28.1 -3.175  L 28.1 -6.825  L 25.1 -6.825  L 25.1 -8.86795  L -25.1 -8.86795  L -25.1 -6.825  L -28.1 -6.825  L -28.1 -3.175  L -25.1 -3.175  L -25.1 3.175  L -28.1 3.175  L -28.1 6.825  L -25.1 6.825  z" fill="none" stroke="rgb(27, 158, 119)" /><path d="M -2.99908 -0.0739122 L -2.99635 -0.147779  L -2.9918 -0.221557  L -2.98543 -0.2952  L -2.97725 -0.368664  L -2.96727 -0.441904  L -2.95548 -0.514876  L -2.9419 -0.587535  L -2.92653 -0.659837  L -2.90938 -0.731739  L -2.89047 -0.803197  L -2.86981 -0.874167  L -2.8474 -0.944606  L -2.82326 -1.01447  L -2.79741 -1.08372  L -2.76986 -1.15231  L -2.74063 -1.22021  L -2.70973 -1.28736  L -2.67719 -1.35373  L -2.64303 -1.41928  L -2.60726 -1.48396  L -2.56991 -1.54775  L -2.531 -1.6106  L -2.49055 -1.67246  L -2.44858 -1.73332  L -2.40514 -1.79312  L -2.36023 -1.85183  L -2.31389 -1.90942  L -2.26614 -1.96585  L -2.21702 -2.02108  L -2.16655 -2.07509  L -2.11477 -2.12784  L -2.0617 -2.1793  L -2.00739 -2.22943  L -1.95185 -2.27821  L -1.89513 -2.32561  L -1.83726 -2.37159  L -1.77827 -2.41614  L -1.7182 -2.45922  L -1.65709 -2.5008  L -1.59497 -2.54087  L -1.53189 -2.57939  L -1.46788 -2.61635  L -1.40297 -2.65172  L -1.33721 -2.68548  L -1.27064 -2.71761  L -1.2033 -2.74809  L -1.13523 -2.77691  L -1.06647 -2.80403  L -0.997062 -2.82946  L -0.927049 -2.85316  L -0.856473 -2.87514  L -0.785377 -2.89536  L -0.713804 -2.91384  L -0.641798 -2.93054  L -0.569402 -2.94546  L -0.49666 -2.95859  L -0.423617 -2.96993  L -0.350317 -2.97947  L -0.276804 -2.98719  L -0.203123 -2.99311  L -0.129319 -2.9972  L -0.0554366 -2.99948  L 0.0184798 -2.99994  L 0.0923849 -2.99857  L 0.166234 -2.99538  L 0.239982 -2.99038  L 0.313585 -2.98356  L 0.386997 -2.97493  L 0.460174 -2.96449  L 0.533072 -2.95225  L 0.605646 -2.93822  L 0.677852 -2.92241  L 0.749647 -2.90482  L 0.820987 -2.88547  L 0.891828 -2.86437  L 0.962128 -2.84152  L 1.03184 -2.81696  L 1.10093 -2.79068  L 1.16935 -2.76271  L 1.23707 -2.73306  L 1.30403 -2.70175  L 1.37019 -2.66881  L 1.43553 -2.63424  L 1.5 -2.59807  L 1.56355 -2.56032  L 1.62616 -2.52103  L 1.68777 -2.4802  L 1.74837 -2.43786  L 1.8079 -2.39405  L 1.86633 -2.34878  L 1.92364 -2.30208  L 1.97977 -2.25399  L 2.0347 -2.20453  L 2.0884 -2.15373  L 2.14083 -2.10162  L 2.19195 -2.04824  L 2.24175 -1.99362  L 2.29019 -1.93778  L 2.33724 -1.88077  L 2.38286 -1.82261  L 2.42704 -1.76335  L 2.46975 -1.70302  L 2.51096 -1.64165  L 2.55064 -1.57929  L 2.58878 -1.51597  L 2.62534 -1.45173  L 2.66031 -1.38661  L 2.69367 -1.32064  L 2.72539 -1.25388  L 2.75545 -1.18635  L 2.78385 -1.1181  L 2.81055 -1.04918  L 2.83554 -0.979614  L 2.85882 -0.909456  L 2.88036 -0.838746  L 2.90015 -0.767526  L 2.91818 -0.695841  L 2.93444 -0.623733  L 2.94891 -0.551247  L 2.9616 -0.478426  L 2.97249 -0.405315  L 2.98157 -0.331957  L 2.98884 -0.258398  L 2.9943 -0.184682  L 2.99794 -0.110854  L 2.99976 -0.0369589  L 2.99976 0.0369589  L 2.99794 0.110854  L 2.9943 0.184682  L 2.98884 0.258398  L 2.98157 0.331957  L 2.97249 0.405315  L 2.9616 0.478426  L 2.94891 0.551247  L 2.93444 0.623733  L 2.91818 0.695841  L 2.90015 0.767526  L 2.88036 0.838746  L 2.85882 0.909456  L 2.83554 0.979614  L 2.81055 1.04918  L 2.78385 1.1181  L 2.75545 1.18635  L 2.72539 1.25388  L 2.69367 1.32064  L 2.66031 1.38661  L 2.62534 1.45173  L 2.58878 1.51597  L 2.55064 1.57929  L 2.51096 1.64165  L 2.46975 1.70302  L 2.42704 1.76335  L 2.38286 1.82261  L 2.33724 1.88077  L 2.29019 1.93778  L 2.24175 1.99362  L 2.19195 2.04824  L 2.14083 2.10162  L 2.0884 2.15373  L 2.0347 2.20453  L 1.97977 2.25399  L 1.92364 2.30208  L 1.86633 2.34878  L 1.8079 2.39405  L 1.74837 2.43786  L 1.68777 2.4802  L 1.62616 2.52103  L 1.56355 2.56032  L 1.5 2.59807  L 1.43553 2.63424  L 1.37019 2.66881  L 1.30403 2.70175  L 1.23707 2.73306  L 1.16935 2.76271  L 1.10093 2.79068  L 1.03184 2.81696  L 0.962128 2.84152  L 0.891828 2.86437  L 0.820987 2.88547  L 0.749647 2.90482  L 0.677852 2.92241  L 0.605646 2.93822  L 0.533072 2.95225  L 0.460174 2.96449  L 0.386997 2.97493  L 0.313585 2.98356  L 0.239982 2.99038  L 0.166234 2.99538  L 0.0923849 2.99857  L 0.0184798 2.99994  L -0.0554366 2.99948  L -0.129319 2.9972  L -0.203123 2.99311  L -0.276804 2.98719  L -0.350317 2.97947  L -0.423617 2.96993  L -0.49666 2.95859  L -0.569402 2.94546  L -0.641798 2.93054  L -0.713804 2.91384  L -0.785377 2.89536  L -0.856473 2.87514  L -0.927049 2.85316  L -0.997062 2.82946  L -1.06647 2.80403  L -1.13523 2.77691  L -1.2033 2.74809  L -1.27064 2.71761  L -1.33721 2.68548  L -1.40297 2.65172  L -1.46788 2.61635  L -1.53189 2.57939  L -1.59497 2.54087  L -1.65709 2.5008  L -1.7182 2.45922  L -1.77827 2.41614  L -1.83726 2.37159  L -1.89513 2.32561  L -1.95185 2.27821  L -2.00739 2.22943  L -2.0617 2.1793  L -2.11477 2.12784  L -2.16655 2.07509  L -2.21702 2.02108  L -2.26614 1.96585  L -2.31389 1.90942  L -2.36023 1.85183  L -2.40514 1.79312  L -2.44858 1.73332  L -2.49055 1.67246  L -2.531 1.6106  L -2.56991 1.54775  L -2.60726 1.48396  L -2.64303 1.41928  L -2.67719 1.35373  L -2.70973 1.28736  L -2.74063 1.22021  L -2.76986 1.15231  L -2.79741 1.08372  L -2.82326 1.01447  L -2.8474 0.944606  L -2.86981 0.874167  L -2.89047 0.803197  L -2.90938 0.731739  L -2.92653 0.659837  L -2.9419 0.587535  L -2.95548 0.514876  L -2.96727 0.441904  L -2.97725 0.368664  L -2.98543 0.2952  L -2.9918 0.221557  L -2.99635 0.147779  L -2.99908 0.0739122  L -2.99999 0  z" fill="none" stroke="rgb(217, 95, 2)" /></g><g transform="translate(23.1, 23.7359)"><path d="M -17.1 8.86795 L 17.1 8.86795  L 17.1 6.825  L 20.1 6.825  L 20.1 3.175  L 17.1 3.175  L 17.1 -3.175  L 20.1 -3.175  L 20.1 -6.825  L 17.1 -6.825  L 17.1 -8.86795  L -17.1 -8.86795  L -17.1 -6.825  L -20.1 -6.825  L -20.1 -3.175  L -17.1 -3.175  L -17.1 3.175  L -20.1 3.175  L -20.1 6.825  L -17.1 6.825  z" fill="none" stroke="rgb(27, 158, 119)" /></g><g transform="translate(66.3, 23.7359)"><path d="M -17.1 8.86795 L 17.1 8.86795  L 17.1 6.825  L 20.1 6.825  L 20.1 3.175  L 17.1 3.175  L 17.1 -3.175  L 20.1 -3.175  L 20.1 -6.825  L 17.1 -6.825  L 17.1 -8.86795  L -17.1 -8.86795  L -17.1 -6.825  L -20.1 -6.825  L -20.1 -3.175  L -17.1 -3.175  L -17.1 3.175  L -20.1 3.175  L -20.1 6.825  L -17.1 6.825  z" fill="none" stroke="rgb(27, 158, 119)" /><path d="M -10.999 -0.0739122 L -10.9962 -0.147779  L -10.9917 -0.221557  L -10.9853 -0.2952  L -10.9771 -0.368664  L -10.9671 -0.441904  L -10.9554 -0.514876  L -10.9418 -0.587535  L -10.9264 -0.659837  L -10.9093 -0.731739  L -10.8904 -0.803197  L -10.8697 -0.874167  L -10.8473 -0.944606  L -10.8231 -1.01447  L -10.7973 -1.08372  L -10.7697 -1.15231  L -10.7405 -1.22021  L -10.7096 -1.28736  L -10.6771 -1.35373  L -10.6429 -1.41928  L -10.6071 -1.48396  L -10.5698 -1.54775  L -10.5309 -1.6106  L -10.4904 -1.67246  L -10.4485 -1.73332  L -10.405 -1.79312  L -10.3601 -1.85183  L -10.3138 -1.90942  L -10.266 -1.96585  L -10.2169 -2.02108  L -10.1664 -2.07509  L -10.1147 -2.12784  L -10.0616 -2.1793  L -10.0073 -2.22943  L -9.95173 -2.27821  L -9.89501 -2.32561  L -9.83714 -2.37159  L -9.77815 -2.41614  L -9.71808 -2.45922  L -9.65697 -2.5008  L -9.59486 -2.54087  L -9.53177 -2.57939  L -9.46776 -2.61635  L -9.40285 -2.65172  L -9.33709 -2.68548  L -9.27052 -2.71761  L -9.20318 -2.74809  L -9.13511 -2.77691  L -9.06635 -2.80403  L -8.99694 -2.82946  L -8.92693 -2.85316  L -8.85635 -2.87514  L -8.78526 -2.89536  L -8.71369 -2.91384  L -8.64168 -2.93054  L -8.56928 -2.94546  L -8.49654 -2.95859  L -8.4235 -2.96993  L -8.3502 -2.97947  L -8.27669 -2.98719  L -8.20301 -2.99311  L -8.1292 -2.9972  L -8.05532 -2.99948  L -7.9814 -2.99994  L -7.9075 -2.99857  L -7.83365 -2.99538  L -7.7599 -2.99038  L -7.6863 -2.98356  L -7.61289 -2.97493  L -7.53971 -2.96449  L -7.46681 -2.95225  L -7.39424 -2.93822  L -7.32203 -2.92241  L -7.25024 -2.90482  L -7.1789 -2.88547  L -7.10805 -2.86437  L -7.03775 -2.84152  L -6.96804 -2.81696  L -6.89895 -2.79068  L -6.83053 -2.76271  L -6.76282 -2.73306  L -6.69586 -2.70175  L -6.62969 -2.66881  L -6.56435 -2.63424  L -6.49989 -2.59807  L -6.43633 -2.56032  L -6.37373 -2.52103  L -6.31211 -2.4802  L -6.25151 -2.43786  L -6.19198 -2.39405  L -6.13355 -2.34878  L -6.07625 -2.30208  L -6.02011 -2.25399  L -5.96518 -2.20453  L -5.91149 -2.15373  L -5.85906 -2.10162  L -5.80793 -2.04824  L -5.75813 -1.99362  L -5.70969 -1.93778  L -5.66265 -1.88077  L -5.61702 -1.82261  L -5.57284 -1.76335  L -5.53013 -1.70302  L -5.48892 -1.64165  L -5.44924 -1.57929  L -5.4111 -1.51597  L -5.37454 -1.45173  L -5.33957 -1.38661  L -5.30621 -1.32064  L -5.27449 -1.25388  L -5.24443 -1.18635  L -5.21604 -1.1181  L -5.18933 -1.04918  L -5.16434 -0.979614  L -5.14106 -0.909456  L -5.11952 -0.838746  L -5.09973 -0.767526  L -5.0817 -0.695841  L -5.06545 -0.623733  L -5.05097 -0.551247  L -5.03828 -0.478426  L -5.0274 -0.405315  L -5.01831 -0.331957  L -5.01104 -0.258398  L -5.00558 -0.184682  L -5.00194 -0.110854  L -5.00012 -0.0369589  L -5.00012 0.0369589  L -5.00194 0.110854  L -5.00558 0.184682  L -5.01104 0.258398  L -5.01831 0.331957  L -5.0274 0.405315  L -5.03828 0.478426  L -5.05097 0.551247  L -5.06545 0.623733  L -5.0817 0.695841  L -5.09973 0.767526  L -5.11952 0.838746  L -5.14106 0.909456  L -5.16434 0.979614  L -5.18933 1.04918  L -5.21604 1.1181  L -5.24443 1.18635  L -5.27449 1.25388  L -5.30621 1.32064  L -5.33957 1.38661  L -5.37454 1.45173  L -5.4111 1.51597  L -5.44924 1.57929  L -5.48892 1.64165  L -5.53013 1.70302  L -5.57284 1.76335  L -5.61702 1.82261  L -5.66265 1.88077  L -5.70969 1.93778  L -5.75813 1.99362  L -5.80793 2.04824  L -5.85906 2.10162  L -5.91149 2.15373  L -5.96518 2.20453  L -6.02011 2.25399  L -6.07625 2.30208  L -6.13355 2.34878  L -6.19198 2.39405  L -6.25151 2.43786  L -6.31211 2.4802  L -6.37373 2.52103  L -6.43633 2.56032  L -6.49989 2.59807  L -6.56435 2.63424  L -6.62969 2.66881  L -6.69586 2.70175  L -6.76282 2.73306  L -6.83053 2.76271  L -6.89895 2.79068  L -6.96804 2.81696  L -7.03775 2.84152  L -7.10805 2.86437  L -7.1789 2.88547  L -7.25024 2.90482  L -7.32203 2.92241  L -7.39424 2.93822  L -7.46681 2.95225  L -7.53971 2.96449  L -7.61289 2.97493  L -7.6863 2.98356  L -7.7599 2.99038  L -7.83365 2.99538  L -7.9075 2.99857  L -7.9814 2.99994  L -8.05532 2.99948  L -8.1292 2.9972  L -8.20301 2.99311  L -8.27669 2.98719  L -8.3502 2.97947  L -8.4235 2.96993  L -8.49654 2.95859  L -8.56928 2.94546  L -8.64168 2.93054  L -8.71369 2.91384  L -8.78526 2.89536  L -8.85635 2.87514  L -8.92693 2.85316  L -8.99694 2.82946  L -9.06635 2.80403  L -9.13511 2.77691  L -9.20318 2.74809  L -9.27052 2.71761  L -9.33709 2.68548  L -9.40285 2.65172  L -9.46776 2.61635  L -9.53177 2.57939  L -9.59486 2.54087  L -9.65697 2.5008  L -9.71808 2.45922  L -9.77815 2.41614  L -9.83714 2.37159  L -9.89501 2.32561  L -9.95173 2.27821  L -10.0073 2.22943  L -10.0616 2.1793  L -10.1147 2.12784  L -10.1664 2.07509  L -10.2169 2.02108  L -10.266 1.96585  L -10.3138 1.90942  L -10.3601 1.85183  L -10.405 1.79312  L -10.4485 1.73332  L -10.4904 1.67246  L -10.5309 1.6106  L -10.5698 1.54775  L -10.6071 1.48396  L -10.6429 1.41928  L -10.6771 1.35373  L -10.7096 1.28736  L -10.7405 1.22021  L -10.7697 1.15231  L -10.7973 1.08372  L -10.8231 1.01447  L -10.8473 0.944606  L -10.8697 0.874167  L -10.8904 0.803197  L -10.9093 0.731739  L -10.9264 0.659837  L -10.9418 0.587535  L -10.9554 0.514876  L -10.9671 0.441904  L -10.9771 0.368664  L -10.9853 0.2952  L -10.9917 0.221557  L -10.9962 0.147779  L -10.999 0.0739122  L -10.9999 0  z" fill="none" stroke="rgb(217, 95, 2)" /></g></svg>