<?xml version="1.0" encoding="utf-8" ?>
<svg baseProfile="full" height="327.3910161513775mm" version="1.1" viewBox="-2.0,-160.69550807568876,1046.1926993774453,327.3910161513775" width="1046.1926993774453mm" xmlns="http://www.w3.org/2000/svg" xmlns:ev="http://www.w3.org/2001/xml-events" xmlns:xlink="http://www.w3.org/1999/xlink"><defs /><g transform="translate(186.246, 3)"><path d="M 59.0428 138.496 L 59.0428 135.696  L 69.5597 135.696  L 69.5597 138.496  z" fill="none" stroke="rgb(217, 95, 2)" /><path d="M 37.6091 138.496 L 37.6091 135.696  L 48.126 135.696  L 48.126 138.496  z" fill="none" stroke="rgb(217, 95, 2)" /><path d="M 16.1753 138.496 L 16.1753 135.696  L 26.6922 135.696  L 26.6922 138.496  z" fill="none" stroke="rgb(217, 95, 2)" /><path d="M -5.25844 138.496 L -5.25844 135.696  L 5.25844 135.696  L 5.25844 138.496  z" fill="none" stroke="rgb(217, 95, 2)" /><path d="M -26.6922 138.496 L -26.6922 135.696  L -16.1753 135.696  L -16.1753 138.496  z" fill="none" stroke="rgb(217, 95, 2)" /><path d="M -48.126 138.496 L -48.126 135.696  L -37.6091 135.696  L -37.6091 138.496  z" fill="none" stroke="rgb(217, 95, 2)" /><path d="M -69.5597 138.496 L -69.5597 135.696  L -59.0428 135.696  L -59.0428 138.496  z" fill="none" stroke="rgb(217, 95, 2)" /><path d="M 82.7359 128.088 L 87.9943 118.98  L 90.4192 120.38  L 85.1608 129.488  z" fill="none" stroke="rgb(217, 95, 2)" /><path d="M -90.4192 120.38 L -87.9943 118.98  L -82.7359 128.088  L -85.1608 129.488  z" fill="none" stroke="rgb(217, 95, 2)" /><path d="M 93.4528 109.526 L 98.7112 100.418  L 101.136 101.818  L 95.8777 110.926  z" fill="none" stroke="rgb(217, 95, 2)" /><path d="M -101.136 101.818 L -98.7112 100.418  L -93.4528 109.526  L -95.8777 110.926  z" fill="none" stroke="rgb(217, 95, 2)" /><path d="M 104.17 90.9639 L 109.428 81.856  L 111.853 83.256  L 106.595 92.3639  z" fill="none" stroke="rgb(217, 95, 2)" /><path d="M -111.853 83.256 L -109.428 81.856  L -104.17 90.9639  L -106.595 92.3639  z" fill="none" stroke="rgb(217, 95, 2)" /><path d="M 114.887 72.4017 L 120.145 63.2938  L 122.57 64.6938  L 117.311 73.8017  z" fill="none" stroke="rgb(217, 95, 2)" /><path d="M -122.57 64.6938 L -120.145 63.2938  L -114.887 72.4017  L -117.311 73.8017  z" fill="none" stroke="rgb(217, 95, 2)" /><path d="M 125.603 53.8395 L 130.862 44.7316  L 133.287 46.1316  L 128.028 55.2395  z" fill="none" stroke="rgb(217, 95, 2)" /><path d="M -133.287 46.1316 L -130.862 44.7316  L -125.603 53.8395  L -128.028 55.2395  z" fill="none" stroke="rgb(217, 95, 2)" /><path d="M 136.32 35.2773 L 141.579 26.1695  L 144.004 27.5695  L 138.745 36.6773  z" fill="none" stroke="rgb(217, 95, 2)" /><path d="M -144.004 27.5695 L -141.579 26.1695  L -136.32 35.2773  L -138.745 36.6773  z" fill="none" stroke="rgb(217, 95, 2)" /><path d="M 147.037 16.7152 L 152.296 7.60727  L 154.72 9.00727  L 149.462 18.1152  z" fill="none" stroke="rgb(217, 95, 2)" /><path d="M -154.72 9.00727 L -152.296 7.60727  L -147.037 16.7152  L -149.462 18.1152  z" fill="none" stroke="rgb(217, 95, 2)" /><path d="M 147.037 -16.7152 L 149.462 -18.1152  L 154.72 -9.00727  L 152.296 -7.60727  z" fill="none" stroke="rgb(217, 95, 2)" /><path d="M -154.72 -9.00727 L -149.462 -18.1152  L -147.037 -16.7152  L -152.296 -7.60727  z" fill="none" stroke="rgb(217, 95, 2)" /><path d="M 136.32 -35.2773 L 138.745 -36.6773  L 144.004 -27.5695  L 141.579 -26.1695  z" fill="none" stroke="rgb(217, 95, 2)" /><path d="M -144.004 -27.5695 L -138.745 -36.6773  L -136.32 -35.2773  L -141.579 -26.1695  z" fill="none" stroke="rgb(217, 95, 2)" /><path d="M 125.603 -53.8395 L 128.028 -55.2395  L 133.287 -46.1316  L 130.862 -44.7316  z" fill="none" stroke="rgb(217, 95, 2)" /><path d="M -133.287 -46.1316 L -128.028 -55.2395  L -125.603 -53.8395  L -130.862 -44.7316  z" fill="none" stroke="rgb(217, 95, 2)" /><path d="M 114.887 -72.4017 L 117.311 -73.8017  L 122.57 -64.6938  L 120.145 -63.2938  z" fill="none" stroke="rgb(217, 95, 2)" /><path d="M -122.57 -64.6938 L -117.311 -73.8017  L -114.887 -72.4017  L -120.145 -63.2938  z" fill="none" stroke="rgb(217, 95, 2)" /><path d="M 104.17 -90.9639 L 106.595 -92.3639  L 111.853 -83.256  L 109.428 -81.856  z" fill="none" stroke="rgb(217, 95, 2)" /><path d="M -111.853 -83.256 L -106.595 -92.3639  L -104.17 -90.9639  L -109.428 -81.856  z" fill="none" stroke="rgb(217, 95, 2)" /><path d="M 93.4528 -109.526 L 95.8777 -110.926  L 101.136 -101.818  L 98.7112 -100.418  z" fill="none" stroke="rgb(217, 95, 2)" /><path d="M -101.136 -101.818 L -95.8777 -110.926  L -93.4528 -109.526  L -98.7112 -100.418  z" fill="none" stroke="rgb(217, 95, 2)" /><path d="M 82.7359 -128.088 L 85.1608 -129.488  L 90.4192 -120.38  L 87.9943 -118.98  z" fill="none" stroke="rgb(217, 95, 2)" /><path d="M -90.4192 -120.38 L -85.1608 -129.488  L -82.7359 -128.088  L -87.9943 -118.98  z" fill="none" stroke="rgb(217, 95, 2)" /><path d="M 37.6091 -135.696 L 37.6091 -138.496  L 48.126 -138.496  L 48.126 -135.696  z" fill="none" stroke="rgb(217, 95, 2)" /><path d="M 16.1753 -135.696 L 16.1753 -138.496  L 26.6922 -138.496  L 26.6922 -135.696  z" fill="none" stroke="rgb(217, 95, 2)" /><path d="M -5.25844 -135.696 L -5.25844 -138.496  L 5.25844 -138.496  L 5.25844 -135.696  z" fill="none" stroke="rgb(217, 95, 2)" /><path d="M -26.6922 -135.696 L -26.6922 -138.496  L -16.1753 -138.496  L -16.1753 -135.696  z" fill="none" stroke="rgb(217, 95, 2)" /><path d="M 59.0428 -138.496 L 69.5597 -138.496  L 69.5597 -135.696  L 59.0428 -135.696  z" fill="none" stroke="rgb(217, 95, 2)" /><path d="M -48.126 -135.696 L -48.126 -138.496  L -37.6091 -138.496  L -37.6091 -135.696  z" fill="none" stroke="rgb(217, 95, 2)" /><path d="M -69.5597 -135.696 L -69.5597 -138.496  L -59.0428 -138.496  L -59.0428 -135.696  z" fill="none" stroke="rgb(217, 95, 2)" /><path d="M 38.6 -151.696 L 38.6 -155.496  L 41.4 -155.496  L 41.4 -151.696  z" fill="none" stroke="rgb(217, 95, 2)" /><path d="M -41.4 -151.696 L -41.4 -155.496  L -38.6 -155.496  L -38.6 -151.696  z" fill="none" stroke="rgb(217, 95, 2)" /><path d="M 91.6229 -158.696 L -91.6229 -158.696  L -183.246 0  L -91.6229 158.696  L 91.6229 158.696  L 183.246 0  z" fill="none" stroke="rgb(27, 158, 119)" /><text style="font-size:6;font-family:'Ubuntu'line-height:1;" text-anchor="middle" x="0" y="155.59550807568874"><tspan>LaserLabyrinth v0.2</tspan><tspan dx="2" style="font-size:3;">by Fablab Karlsruhe</tspan></text></g><g transform="translate(544.19, 3)"><path d="M 59.0428 138.496 L 59.0428 135.696  L 69.5597 135.696  L 69.5597 138.496  z" fill="none" stroke="rgb(217, 95, 2)" /><path d="M 37.6091 138.496 L 37.6091 135.696  L 48.126 135.696  L 48.126 138.496  z" fill="none" stroke="rgb(217, 95, 2)" /><path d="M 16.1753 138.496 L 16.1753 135.696  L 26.6922 135.696  L 26.6922 138.496  z" fill="none" stroke="rgb(217, 95, 2)" /><path d="M -5.25844 138.496 L -5.25844 135.696  L 5.25844 135.696  L 5.25844 138.496  z" fill="none" stroke="rgb(217, 95, 2)" /><path d="M -26.6922 138.496 L -26.6922 135.696  L -16.1753 135.696  L -16.1753 138.496  z" fill="none" stroke="rgb(217, 95, 2)" /><path d="M -48.126 138.496 L -48.126 135.696  L -37.6091 135.696  L -37.6091 138.496  z" fill="none" stroke="rgb(217, 95, 2)" /><path d="M -69.5597 138.496 L -69.5597 135.696  L -59.0428 135.696  L -59.0428 138.496  z" fill="none" stroke="rgb(217, 95, 2)" /><path d="M 82.7359 128.088 L 87.9943 118.98  L 90.4192 120.38  L 85.1608 129.488  z" fill="none" stroke="rgb(217, 95, 2)" /><path d="M -90.4192 120.38 L -87.9943 118.98  L -82.7359 128.088  L -85.1608 129.488  z" fill="none" stroke="rgb(217, 95, 2)" /><path d="M 93.4528 109.526 L 98.7112 100.418  L 101.136 101.818  L 95.8777 110.926  z" fill="none" stroke="rgb(217, 95, 2)" /><path d="M -101.136 101.818 L -98.7112 100.418  L -93.4528 109.526  L -95.8777 110.926  z" fill="none" stroke="rgb(217, 95, 2)" /><path d="M 59.436 108.811 L 58.8647 108.708  L 58.3094 108.539  L 57.7782 108.305  L 57.2783 108.01  L 56.8168 107.657  L 56.4003 107.253  L 56.0345 106.802  L 55.7246 106.311  L 55.4749 105.787  L 55.289 105.237  L 55.1694 104.669  L 55.1179 104.091  L 55.1351 103.511  L 55.2208 102.936  L 55.3738 102.376  L 55.592 101.838  L 55.8723 101.33  L 56.2107 100.858  L 56.6026 100.43  L 57.0423 100.051  L 57.5238 99.7266  L 58.0403 99.4616  L 58.5845 99.2594  L 59.1488 99.1231  L 59.7253 99.0544  L 60.3058 99.0544  L 60.8823 99.1231  L 61.4466 99.2594  L 61.9908 99.4616  L 62.5073 99.7266  L 62.9888 100.051  L 63.4285 100.43  L 63.8204 100.858  L 64.1588 101.33  L 64.4391 101.838  L 64.6573 102.376  L 64.8103 102.936  L 64.896 103.511  L 64.9132 104.091  L 64.8617 104.669  L 64.7421 105.237  L 64.5562 105.787  L 64.3065 106.311  L 63.9966 106.802  L 63.6308 107.253  L 63.2143 107.657  L 62.7528 108.01  L 62.253 108.305  L 61.7217 108.539  L 61.1665 108.708  L 60.5951 108.811  L 60.0156 108.845  z" fill="none" stroke="rgb(217, 95, 2)" /><path d="M 19.4257 108.811 L 18.8543 108.708  L 18.2991 108.539  L 17.7678 108.305  L 17.2679 108.01  L 16.8065 107.657  L 16.3899 107.253  L 16.0241 106.802  L 15.7142 106.311  L 15.4646 105.787  L 15.2786 105.237  L 15.1591 104.669  L 15.1075 104.091  L 15.1247 103.511  L 15.2104 102.936  L 15.3635 102.376  L 15.5816 101.838  L 15.8619 101.33  L 16.2004 100.858  L 16.5922 100.43  L 17.032 100.051  L 17.5135 99.7266  L 18.03 99.4616  L 18.5742 99.2594  L 19.1385 99.1231  L 19.7149 99.0544  L 20.2955 99.0544  L 20.8719 99.1231  L 21.4362 99.2594  L 21.9804 99.4616  L 22.4969 99.7266  L 22.9784 100.051  L 23.4182 100.43  L 23.81 100.858  L 24.1485 101.33  L 24.4287 101.838  L 24.6469 102.376  L 24.7999 102.936  L 24.8857 103.511  L 24.9029 104.091  L 24.8513 104.669  L 24.7317 105.237  L 24.5458 105.787  L 24.2961 106.311  L 23.9862 106.802  L 23.6204 107.253  L 23.2039 107.657  L 22.7425 108.01  L 22.2426 108.305  L 21.7113 108.539  L 21.1561 108.708  L 20.5847 108.811  L 20.0052 108.845  z" fill="none" stroke="rgb(217, 95, 2)" /><path d="M -20.5847 108.811 L -21.1561 108.708  L -21.7113 108.539  L -22.2426 108.305  L -22.7425 108.01  L -23.2039 107.657  L -23.6204 107.253  L -23.9862 106.802  L -24.2961 106.311  L -24.5458 105.787  L -24.7317 105.237  L -24.8513 104.669  L -24.9029 104.091  L -24.8857 103.511  L -24.7999 102.936  L -24.6469 102.376  L -24.4287 101.838  L -24.1485 101.33  L -23.81 100.858  L -23.4182 100.43  L -22.9784 100.051  L -22.4969 99.7266  L -21.9804 99.4616  L -21.4362 99.2594  L -20.8719 99.1231  L -20.2955 99.0544  L -19.7149 99.0544  L -19.1385 99.1231  L -18.5742 99.2594  L -18.03 99.4616  L -17.5135 99.7266  L -17.032 100.051  L -16.5922 100.43  L -16.2004 100.858  L -15.8619 101.33  L -15.5816 101.838  L -15.3635 102.376  L -15.2104 102.936  L -15.1247 103.511  L -15.1075 104.091  L -15.1591 104.669  L -15.2786 105.237  L -15.4646 105.787  L -15.7142 106.311  L -16.0241 106.802  L -16.3899 107.253  L -16.8065 107.657  L -17.2679 108.01  L -17.7678 108.305  L -18.2991 108.539  L -18.8543 108.708  L -19.4257 108.811  L -20.0052 108.845  z" fill="none" stroke="rgb(217, 95, 2)" /><path d="M -60.5951 108.811 L -61.1665 108.708  L -61.7217 108.539  L -62.253 108.305  L -62.7528 108.01  L -63.2143 107.657  L -63.6308 107.253  L -63.9966 106.802  L -64.3065 106.311  L -64.5562 105.787  L -64.7421 105.237  L -64.8617 104.669  L -64.9132 104.091  L -64.896 103.511  L -64.8103 102.936  L -64.6573 102.376  L -64.4391 101.838  L -64.1588 101.33  L -63.8204 100.858  L -63.4285 100.43  L -62.9888 100.051  L -62.5073 99.7266  L -61.9908 99.4616  L -61.4466 99.2594  L -60.8823 99.1231  L -60.3058 99.0544  L -59.7253 99.0544  L -59.1488 99.1231  L -58.5845 99.2594  L -58.0403 99.4616  L -57.5238 99.7266  L -57.0423 100.051  L -56.6026 100.43  L -56.2107 100.858  L -55.8723 101.33  L -55.592 101.838  L -55.3738 102.376  L -55.2208 102.936  L -55.1351 103.511  L -55.1179 104.091  L -55.1694 104.669  L -55.289 105.237  L -55.4749 105.787  L -55.7246 106.311  L -56.0345 106.802  L -56.4003 107.253  L -56.8168 107.657  L -57.2783 108.01  L -57.7782 108.305  L -58.3094 108.539  L -58.8647 108.708  L -59.436 108.811  L -60.0156 108.845  z" fill="none" stroke="rgb(217, 95, 2)" /><path d="M 104.17 90.9639 L 109.428 81.856  L 111.853 83.256  L 106.595 92.3639  z" fill="none" stroke="rgb(217, 95, 2)" /><path d="M -111.853 83.256 L -109.428 81.856  L -104.17 90.9639  L -106.595 92.3639  z" fill="none" stroke="rgb(217, 95, 2)" /><path d="M 79.4412 74.161 L 78.8698 74.0584  L 78.3146 73.8888  L 77.7833 73.6548  L 77.2835 73.3596  L 76.822 73.0073  L 76.4055 72.6029  L 76.0397 72.1521  L 75.7298 71.6612  L 75.4801 71.1371  L 75.2942 70.5871  L 75.1746 70.0191  L 75.1231 69.4408  L 75.1403 68.8605  L 75.226 68.2864  L 75.379 67.7263  L 75.5972 67.1884  L 75.8775 66.68  L 76.2159 66.2083  L 76.6078 65.78  L 77.0475 65.401  L 77.529 65.0766  L 78.0455 64.8116  L 78.5897 64.6094  L 79.154 64.4731  L 79.7305 64.4044  L 80.311 64.4044  L 80.8875 64.4731  L 81.4518 64.6094  L 81.996 64.8116  L 82.5125 65.0766  L 82.994 65.401  L 83.4337 65.78  L 83.8256 66.2083  L 84.164 66.68  L 84.4443 67.1884  L 84.6625 67.7263  L 84.8155 68.2864  L 84.9012 68.8605  L 84.9184 69.4408  L 84.8669 70.0191  L 84.7473 70.5871  L 84.5614 71.1371  L 84.3117 71.6612  L 84.0018 72.1521  L 83.636 72.6029  L 83.2195 73.0073  L 82.758 73.3596  L 82.2582 73.6548  L 81.7269 73.8888  L 81.1716 74.0584  L 80.6003 74.161  L 80.0207 74.1954  z" fill="none" stroke="rgb(217, 95, 2)" /><path d="M 39.4309 74.161 L 38.8595 74.0584  L 38.3042 73.8888  L 37.773 73.6548  L 37.2731 73.3596  L 36.8117 73.0073  L 36.3951 72.6029  L 36.0293 72.1521  L 35.7194 71.6612  L 35.4698 71.1371  L 35.2838 70.5871  L 35.1643 70.0191  L 35.1127 69.4408  L 35.1299 68.8605  L 35.2156 68.2864  L 35.3686 67.7263  L 35.5868 67.1884  L 35.8671 66.68  L 36.2055 66.2083  L 36.5974 65.78  L 37.0372 65.401  L 37.5187 65.0766  L 38.0351 64.8116  L 38.5793 64.6094  L 39.1436 64.4731  L 39.7201 64.4044  L 40.3006 64.4044  L 40.8771 64.4731  L 41.4414 64.6094  L 41.9856 64.8116  L 42.5021 65.0766  L 42.9836 65.401  L 43.4234 65.78  L 43.8152 66.2083  L 44.1536 66.68  L 44.4339 67.1884  L 44.6521 67.7263  L 44.8051 68.2864  L 44.8908 68.8605  L 44.908 69.4408  L 44.8565 70.0191  L 44.7369 70.5871  L 44.551 71.1371  L 44.3013 71.6612  L 43.9914 72.1521  L 43.6256 72.6029  L 43.2091 73.0073  L 42.7476 73.3596  L 42.2478 73.6548  L 41.7165 73.8888  L 41.1613 74.0584  L 40.5899 74.161  L 40.0104 74.1954  z" fill="none" stroke="rgb(217, 95, 2)" /><path d="M -0.579518 74.161 L -1.1509 74.0584  L -1.70613 73.8888  L -2.2374 73.6548  L -2.73727 73.3596  L -3.19871 73.0073  L -3.61525 72.6029  L -3.98104 72.1521  L -4.29095 71.6612  L -4.54062 71.1371  L -4.72654 70.5871  L -4.84612 70.0191  L -4.89767 69.4408  L -4.88047 68.8605  L -4.79475 68.2864  L -4.64173 67.7263  L -4.42355 67.1884  L -4.14327 66.68  L -3.80483 66.2083  L -3.41298 65.78  L -2.97321 65.401  L -2.49171 65.0766  L -1.97523 64.8116  L -1.43103 64.6094  L -0.866731 64.4731  L -0.290269 64.4044  L 0.290269 64.4044  L 0.866731 64.4731  L 1.43103 64.6094  L 1.97523 64.8116  L 2.49171 65.0766  L 2.97321 65.401  L 3.41298 65.78  L 3.80483 66.2083  L 4.14327 66.68  L 4.42355 67.1884  L 4.64173 67.7263  L 4.79475 68.2864  L 4.88047 68.8605  L 4.89767 69.4408  L 4.84612 70.0191  L 4.72654 70.5871  L 4.54062 71.1371  L 4.29095 71.6612  L 3.98104 72.1521  L 3.61525 72.6029  L 3.19871 73.0073  L 2.73727 73.3596  L 2.2374 73.6548  L 1.70613 73.8888  L 1.1509 74.0584  L 0.579518 74.161  L -0 74.1954  z" fill="none" stroke="rgb(217, 95, 2)" /><path d="M -40.5899 74.161 L -41.1613 74.0584  L -41.7165 73.8888  L -42.2478 73.6548  L -42.7476 73.3596  L -43.2091 73.0073  L -43.6256 72.6029  L -43.9914 72.1521  L -44.3013 71.6612  L -44.551 71.1371  L -44.7369 70.5871  L -44.8565 70.0191  L -44.908 69.4408  L -44.8908 68.8605  L -44.8051 68.2864  L -44.6521 67.7263  L -44.4339 67.1884  L -44.1536 66.68  L -43.8152 66.2083  L -43.4234 65.78  L -42.9836 65.401  L -42.5021 65.0766  L -41.9856 64.8116  L -41.4414 64.6094  L -40.8771 64.4731  L -40.3006 64.4044  L -39.7201 64.4044  L -39.1436 64.4731  L -38.5793 64.6094  L -38.0351 64.8116  L -37.5187 65.0766  L -37.0372 65.401  L -36.5974 65.78  L -36.2055 66.2083  L -35.8671 66.68  L -35.5868 67.1884  L -35.3686 67.7263  L -35.2156 68.2864  L -35.1299 68.8605  L -35.1127 69.4408  L -35.1643 70.0191  L -35.2838 70.5871  L -35.4698 71.1371  L -35.7194 71.6612  L -36.0293 72.1521  L -36.3951 72.6029  L -36.8117 73.0073  L -37.2731 73.3596  L -37.773 73.6548  L -38.3042 73.8888  L -38.8595 74.0584  L -39.4309 74.161  L -40.0104 74.1954  z" fill="none" stroke="rgb(217, 95, 2)" /><path d="M -80.6003 74.161 L -81.1716 74.0584  L -81.7269 73.8888  L -82.2582 73.6548  L -82.758 73.3596  L -83.2195 73.0073  L -83.636 72.6029  L -84.0018 72.1521  L -84.3117 71.6612  L -84.5614 71.1371  L -84.7473 70.5871  L -84.8669 70.0191  L -84.9184 69.4408  L -84.9012 68.8605  L -84.8155 68.2864  L -84.6625 67.7263  L -84.4443 67.1884  L -84.164 66.68  L -83.8256 66.2083  L -83.4337 65.78  L -82.994 65.401  L -82.5125 65.0766  L -81.996 64.8116  L -81.4518 64.6094  L -80.8875 64.4731  L -80.311 64.4044  L -79.7305 64.4044  L -79.154 64.4731  L -78.5897 64.6094  L -78.0455 64.8116  L -77.529 65.0766  L -77.0475 65.401  L -76.6078 65.78  L -76.2159 66.2083  L -75.8775 66.68  L -75.5972 67.1884  L -75.379 67.7263  L -75.226 68.2864  L -75.1403 68.8605  L -75.1231 69.4408  L -75.1746 70.0191  L -75.2942 70.5871  L -75.4801 71.1371  L -75.7298 71.6612  L -76.0397 72.1521  L -76.4055 72.6029  L -76.822 73.0073  L -77.2835 73.3596  L -77.7833 73.6548  L -78.3146 73.8888  L -78.8698 74.0584  L -79.4412 74.161  L -80.0207 74.1954  z" fill="none" stroke="rgb(217, 95, 2)" /><path d="M 114.887 72.4017 L 120.145 63.2938  L 122.57 64.6938  L 117.311 73.8017  z" fill="none" stroke="rgb(217, 95, 2)" /><path d="M -122.57 64.6938 L -120.145 63.2938  L -114.887 72.4017  L -117.311 73.8017  z" fill="none" stroke="rgb(217, 95, 2)" /><path d="M 125.603 53.8395 L 130.862 44.7316  L 133.287 46.1316  L 128.028 55.2395  z" fill="none" stroke="rgb(217, 95, 2)" /><path d="M -133.287 46.1316 L -130.862 44.7316  L -125.603 53.8395  L -128.028 55.2395  z" fill="none" stroke="rgb(217, 95, 2)" /><path d="M 99.4464 39.511 L 98.875 39.4084  L 98.3198 39.2388  L 97.7885 39.0048  L 97.2887 38.7096  L 96.8272 38.3573  L 96.4107 37.9529  L 96.0449 37.5021  L 95.735 37.0112  L 95.4853 36.4871  L 95.2994 35.9371  L 95.1798 35.3691  L 95.1283 34.7908  L 95.1455 34.2105  L 95.2312 33.6364  L 95.3842 33.0763  L 95.6024 32.5384  L 95.8827 32.03  L 96.2211 31.5583  L 96.613 31.13  L 97.0527 30.751  L 97.5342 30.4266  L 98.0507 30.1616  L 98.5949 29.9594  L 99.1592 29.8231  L 99.7357 29.7544  L 100.316 29.7544  L 100.893 29.8231  L 101.457 29.9594  L 102.001 30.1616  L 102.518 30.4266  L 102.999 30.751  L 103.439 31.13  L 103.831 31.5583  L 104.169 32.03  L 104.449 32.5384  L 104.668 33.0763  L 104.821 33.6364  L 104.906 34.2105  L 104.924 34.7908  L 104.872 35.3691  L 104.752 35.9371  L 104.567 36.4871  L 104.317 37.0112  L 104.007 37.5021  L 103.641 37.9529  L 103.225 38.3573  L 102.763 38.7096  L 102.263 39.0048  L 101.732 39.2388  L 101.177 39.4084  L 100.605 39.511  L 100.026 39.5454  z" fill="none" stroke="rgb(217, 95, 2)" /><path d="M 59.436 39.511 L 58.8647 39.4084  L 58.3094 39.2388  L 57.7782 39.0048  L 57.2783 38.7096  L 56.8168 38.3573  L 56.4003 37.9529  L 56.0345 37.5021  L 55.7246 37.0112  L 55.4749 36.4871  L 55.289 35.9371  L 55.1694 35.3691  L 55.1179 34.7908  L 55.1351 34.2105  L 55.2208 33.6364  L 55.3738 33.0763  L 55.592 32.5384  L 55.8723 32.03  L 56.2107 31.5583  L 56.6026 31.13  L 57.0423 30.751  L 57.5238 30.4266  L 58.0403 30.1616  L 58.5845 29.9594  L 59.1488 29.8231  L 59.7253 29.7544  L 60.3058 29.7544  L 60.8823 29.8231  L 61.4466 29.9594  L 61.9908 30.1616  L 62.5073 30.4266  L 62.9888 30.751  L 63.4285 31.13  L 63.8204 31.5583  L 64.1588 32.03  L 64.4391 32.5384  L 64.6573 33.0763  L 64.8103 33.6364  L 64.896 34.2105  L 64.9132 34.7908  L 64.8617 35.3691  L 64.7421 35.9371  L 64.5562 36.4871  L 64.3065 37.0112  L 63.9966 37.5021  L 63.6308 37.9529  L 63.2143 38.3573  L 62.7528 38.7096  L 62.253 39.0048  L 61.7217 39.2388  L 61.1665 39.4084  L 60.5951 39.511  L 60.0156 39.5454  z" fill="none" stroke="rgb(217, 95, 2)" /><path d="M 19.4257 39.511 L 18.8543 39.4084  L 18.2991 39.2388  L 17.7678 39.0048  L 17.2679 38.7096  L 16.8065 38.3573  L 16.3899 37.9529  L 16.0241 37.5021  L 15.7142 37.0112  L 15.4646 36.4871  L 15.2786 35.9371  L 15.1591 35.3691  L 15.1075 34.7908  L 15.1247 34.2105  L 15.2104 33.6364  L 15.3635 33.0763  L 15.5816 32.5384  L 15.8619 32.03  L 16.2004 31.5583  L 16.5922 31.13  L 17.032 30.751  L 17.5135 30.4266  L 18.03 30.1616  L 18.5742 29.9594  L 19.1385 29.8231  L 19.7149 29.7544  L 20.2955 29.7544  L 20.8719 29.8231  L 21.4362 29.9594  L 21.9804 30.1616  L 22.4969 30.4266  L 22.9784 30.751  L 23.4182 31.13  L 23.81 31.5583  L 24.1485 32.03  L 24.4287 32.5384  L 24.6469 33.0763  L 24.7999 33.6364  L 24.8857 34.2105  L 24.9029 34.7908  L 24.8513 35.3691  L 24.7317 35.9371  L 24.5458 36.4871  L 24.2961 37.0112  L 23.9862 37.5021  L 23.6204 37.9529  L 23.2039 38.3573  L 22.7425 38.7096  L 22.2426 39.0048  L 21.7113 39.2388  L 21.1561 39.4084  L 20.5847 39.511  L 20.0052 39.5454  z" fill="none" stroke="rgb(217, 95, 2)" /><path d="M -20.5847 39.511 L -21.1561 39.4084  L -21.7113 39.2388  L -22.2426 39.0048  L -22.7425 38.7096  L -23.2039 38.3573  L -23.6204 37.9529  L -23.9862 37.5021  L -24.2961 37.0112  L -24.5458 36.4871  L -24.7317 35.9371  L -24.8513 35.3691  L -24.9029 34.7908  L -24.8857 34.2105  L -24.7999 33.6364  L -24.6469 33.0763  L -24.4287 32.5384  L -24.1485 32.03  L -23.81 31.5583  L -23.4182 31.13  L -22.9784 30.751  L -22.4969 30.4266  L -21.9804 30.1616  L -21.4362 29.9594  L -20.8719 29.8231  L -20.2955 29.7544  L -19.7149 29.7544  L -19.1385 29.8231  L -18.5742 29.9594  L -18.03 30.1616  L -17.5135 30.4266  L -17.032 30.751  L -16.5922 31.13  L -16.2004 31.5583  L -15.8619 32.03  L -15.5816 32.5384  L -15.3635 33.0763  L -15.2104 33.6364  L -15.1247 34.2105  L -15.1075 34.7908  L -15.1591 35.3691  L -15.2786 35.9371  L -15.4646 36.4871  L -15.7142 37.0112  L -16.0241 37.5021  L -16.3899 37.9529  L -16.8065 38.3573  L -17.2679 38.7096  L -17.7678 39.0048  L -18.2991 39.2388  L -18.8543 39.4084  L -19.4257 39.511  L -20.0052 39.5454  z" fill="none" stroke="rgb(217, 95, 2)" /><path d="M -60.5951 39.511 L -61.1665 39.4084  L -61.7217 39.2388  L -62.253 39.0048  L -62.7528 38.7096  L -63.2143 38.3573  L -63.6308 37.9529  L -63.9966 37.5021  L -64.3065 37.0112  L -64.5562 36.4871  L -64.7421 35.9371  L -64.8617 35.3691  L -64.9132 34.7908  L -64.896 34.2105  L -64.8103 33.6364  L -64.6573 33.0763  L -64.4391 32.5384  L -64.1588 32.03  L -63.8204 31.5583  L -63.4285 31.13  L -62.9888 30.751  L -62.5073 30.4266  L -61.9908 30.1616  L -61.4466 29.9594  L -60.8823 29.8231  L -60.3058 29.7544  L -59.7253 29.7544  L -59.1488 29.8231  L -58.5845 29.9594  L -58.0403 30.1616  L -57.5238 30.4266  L -57.0423 30.751  L -56.6026 31.13  L -56.2107 31.5583  L -55.8723 32.03  L -55.592 32.5384  L -55.3738 33.0763  L -55.2208 33.6364  L -55.1351 34.2105  L -55.1179 34.7908  L -55.1694 35.3691  L -55.289 35.9371  L -55.4749 36.4871  L -55.7246 37.0112  L -56.0345 37.5021  L -56.4003 37.9529  L -56.8168 38.3573  L -57.2783 38.7096  L -57.7782 39.0048  L -58.3094 39.2388  L -58.8647 39.4084  L -59.436 39.511  L -60.0156 39.5454  z" fill="none" stroke="rgb(217, 95, 2)" /><path d="M -100.605 39.511 L -101.177 39.4084  L -101.732 39.2388  L -102.263 39.0048  L -102.763 38.7096  L -103.225 38.3573  L -103.641 37.9529  L -104.007 37.5021  L -104.317 37.0112  L -104.567 36.4871  L -104.752 35.9371  L -104.872 35.3691  L -104.924 34.7908  L -104.906 34.2105  L -104.821 33.6364  L -104.668 33.0763  L -104.449 32.5384  L -104.169 32.03  L -103.831 31.5583  L -103.439 31.13  L -102.999 30.751  L -102.518 30.4266  L -102.001 30.1616  L -101.457 29.9594  L -100.893 29.8231  L -100.316 29.7544  L -99.7357 29.7544  L -99.1592 29.8231  L -98.5949 29.9594  L -98.0507 30.1616  L -97.5342 30.4266  L -97.0527 30.751  L -96.613 31.13  L -96.2211 31.5583  L -95.8827 32.03  L -95.6024 32.5384  L -95.3842 33.0763  L -95.2312 33.6364  L -95.1455 34.2105  L -95.1283 34.7908  L -95.1798 35.3691  L -95.2994 35.9371  L -95.4853 36.4871  L -95.735 37.0112  L -96.0449 37.5021  L -96.4107 37.9529  L -96.8272 38.3573  L -97.2887 38.7096  L -97.7885 39.0048  L -98.3198 39.2388  L -98.875 39.4084  L -99.4464 39.511  L -100.026 39.5454  z" fill="none" stroke="rgb(217, 95, 2)" /><path d="M 136.32 35.2773 L 141.579 26.1695  L 144.004 27.5695  L 138.745 36.6773  z" fill="none" stroke="rgb(217, 95, 2)" /><path d="M -144.004 27.5695 L -141.579 26.1695  L -136.32 35.2773  L -138.745 36.6773  z" fill="none" stroke="rgb(217, 95, 2)" /><path d="M 147.037 16.7152 L 152.296 7.60727  L 154.72 9.00727  L 149.462 18.1152  z" fill="none" stroke="rgb(217, 95, 2)" /><path d="M -154.72 9.00727 L -152.296 7.60727  L -147.037 16.7152  L -149.462 18.1152  z" fill="none" stroke="rgb(217, 95, 2)" /><path d="M 119.452 4.86104 L 118.88 4.75835  L 118.325 4.5888  L 117.794 4.35477  L 117.294 4.05955  L 116.832 3.70728  L 116.416 3.30291  L 116.05 2.85211  L 115.74 2.36121  L 115.491 1.8371  L 115.305 1.28714  L 115.185 0.719052  L 115.133 0.140807  L 115.151 -0.439475  L 115.236 -1.01365  L 115.389 -1.57366  L 115.608 -2.11163  L 115.888 -2.62003  L 116.226 -3.09171  L 116.618 -3.52005  L 117.058 -3.89904  L 117.539 -4.22335  L 118.056 -4.48844  L 118.6 -4.69059  L 119.164 -4.82695  L 119.741 -4.89561  L 120.321 -4.89561  L 120.898 -4.82695  L 121.462 -4.69059  L 122.006 -4.48844  L 122.523 -4.22335  L 123.004 -3.89904  L 123.444 -3.52005  L 123.836 -3.09171  L 124.174 -2.62003  L 124.455 -2.11163  L 124.673 -1.57366  L 124.826 -1.01365  L 124.912 -0.439475  L 124.929 0.140807  L 124.877 0.719052  L 124.758 1.28714  L 124.572 1.8371  L 124.322 2.36121  L 124.012 2.85211  L 123.646 3.30291  L 123.23 3.70728  L 122.768 4.05955  L 122.269 4.35477  L 121.737 4.5888  L 121.182 4.75835  L 120.611 4.86104  L 120.031 4.89543  z" fill="none" stroke="rgb(217, 95, 2)" /><path d="M 79.4412 4.86104 L 78.8698 4.75835  L 78.3146 4.5888  L 77.7833 4.35477  L 77.2835 4.05955  L 76.822 3.70728  L 76.4055 3.30291  L 76.0397 2.85211  L 75.7298 2.36121  L 75.4801 1.8371  L 75.2942 1.28714  L 75.1746 0.719052  L 75.1231 0.140807  L 75.1403 -0.439475  L 75.226 -1.01365  L 75.379 -1.57366  L 75.5972 -2.11163  L 75.8775 -2.62003  L 76.2159 -3.09171  L 76.6078 -3.52005  L 77.0475 -3.89904  L 77.529 -4.22335  L 78.0455 -4.48844  L 78.5897 -4.69059  L 79.154 -4.82695  L 79.7305 -4.89561  L 80.311 -4.89561  L 80.8875 -4.82695  L 81.4518 -4.69059  L 81.996 -4.48844  L 82.5125 -4.22335  L 82.994 -3.89904  L 83.4337 -3.52005  L 83.8256 -3.09171  L 84.164 -2.62003  L 84.4443 -2.11163  L 84.6625 -1.57366  L 84.8155 -1.01365  L 84.9012 -0.439475  L 84.9184 0.140807  L 84.8669 0.719052  L 84.7473 1.28714  L 84.5614 1.8371  L 84.3117 2.36121  L 84.0018 2.85211  L 83.636 3.30291  L 83.2195 3.70728  L 82.758 4.05955  L 82.2582 4.35477  L 81.7269 4.5888  L 81.1716 4.75835  L 80.6003 4.86104  L 80.0207 4.89543  z" fill="none" stroke="rgb(217, 95, 2)" /><path d="M 39.4309 4.86104 L 38.8595 4.75835  L 38.3042 4.5888  L 37.773 4.35477  L 37.2731 4.05955  L 36.8117 3.70728  L 36.3951 3.30291  L 36.0293 2.85211  L 35.7194 2.36121  L 35.4698 1.8371  L 35.2838 1.28714  L 35.1643 0.719052  L 35.1127 0.140807  L 35.1299 -0.439475  L 35.2156 -1.01365  L 35.3686 -1.57366  L 35.5868 -2.11163  L 35.8671 -2.62003  L 36.2055 -3.09171  L 36.5974 -3.52005  L 37.0372 -3.89904  L 37.5187 -4.22335  L 38.0351 -4.48844  L 38.5793 -4.69059  L 39.1436 -4.82695  L 39.7201 -4.89561  L 40.3006 -4.89561  L 40.8771 -4.82695  L 41.4414 -4.69059  L 41.9856 -4.48844  L 42.5021 -4.22335  L 42.9836 -3.89904  L 43.4234 -3.52005  L 43.8152 -3.09171  L 44.1536 -2.62003  L 44.4339 -2.11163  L 44.6521 -1.57366  L 44.8051 -1.01365  L 44.8908 -0.439475  L 44.908 0.140807  L 44.8565 0.719052  L 44.7369 1.28714  L 44.551 1.8371  L 44.3013 2.36121  L 43.9914 2.85211  L 43.6256 3.30291  L 43.2091 3.70728  L 42.7476 4.05955  L 42.2478 4.35477  L 41.7165 4.5888  L 41.1613 4.75835  L 40.5899 4.86104  L 40.0104 4.89543  z" fill="none" stroke="rgb(217, 95, 2)" /><path d="M -0.579518 4.86104 L -1.1509 4.75835  L -1.70613 4.5888  L -2.2374 4.35477  L -2.73727 4.05955  L -3.19871 3.70728  L -3.61525 3.30291  L -3.98104 2.85211  L -4.29095 2.36121  L -4.54062 1.8371  L -4.72654 1.28714  L -4.84612 0.719052  L -4.89767 0.140807  L -4.88047 -0.439475  L -4.79475 -1.01365  L -4.64173 -1.57366  L -4.42355 -2.11163  L -4.14327 -2.62003  L -3.80483 -3.09171  L -3.41298 -3.52005  L -2.97321 -3.89904  L -2.49171 -4.22335  L -1.97523 -4.48844  L -1.43103 -4.69059  L -0.866731 -4.82695  L -0.290269 -4.89561  L 0.290269 -4.89561  L 0.866731 -4.82695  L 1.43103 -4.69059  L 1.97523 -4.48844  L 2.49171 -4.22335  L 2.97321 -3.89904  L 3.41298 -3.52005  L 3.80483 -3.09171  L 4.14327 -2.62003  L 4.42355 -2.11163  L 4.64173 -1.57366  L 4.79475 -1.01365  L 4.88047 -0.439475  L 4.89767 0.140807  L 4.84612 0.719052  L 4.72654 1.28714  L 4.54062 1.8371  L 4.29095 2.36121  L 3.98104 2.85211  L 3.61525 3.30291  L 3.19871 3.70728  L 2.73727 4.05955  L 2.2374 4.35477  L 1.70613 4.5888  L 1.1509 4.75835  L 0.579518 4.86104  L -1.49664e-14 4.89543  z" fill="none" stroke="rgb(217, 95, 2)" /><path d="M -40.5899 4.86104 L -41.1613 4.75835  L -41.7165 4.5888  L -42.2478 4.35477  L -42.7476 4.05955  L -43.2091 3.70728  L -43.6256 3.30291  L -43.9914 2.85211  L -44.3013 2.36121  L -44.551 1.8371  L -44.7369 1.28714  L -44.8565 0.719052  L -44.908 0.140807  L -44.8908 -0.439475  L -44.8051 -1.01365  L -44.6521 -1.57366  L -44.4339 -2.11163  L -44.1536 -2.62003  L -43.8152 -3.09171  L -43.4234 -3.52005  L -42.9836 -3.89904  L -42.5021 -4.22335  L -41.9856 -4.48844  L -41.4414 -4.69059  L -40.8771 -4.82695  L -40.3006 -4.89561  L -39.7201 -4.89561  L -39.1436 -4.82695  L -38.5793 -4.69059  L -38.0351 -4.48844  L -37.5187 -4.22335  L -37.0372 -3.89904  L -36.5974 -3.52005  L -36.2055 -3.09171  L -35.8671 -2.62003  L -35.5868 -2.11163  L -35.3686 -1.57366  L -35.2156 -1.01365  L -35.1299 -0.439475  L -35.1127 0.140807  L -35.1643 0.719052  L -35.2838 1.28714  L -35.4698 1.8371  L -35.7194 2.36121  L -36.0293 2.85211  L -36.3951 3.30291  L -36.8117 3.70728  L -37.2731 4.05955  L -37.773 4.35477  L -38.3042 4.5888  L -38.8595 4.75835  L -39.4309 4.86104  L -40.0104 4.89543  z" fill="none" stroke="rgb(217, 95, 2)" /><path d="M -80.6003 4.86104 L -81.1716 4.75835  L -81.7269 4.5888  L -82.2582 4.35477  L -82.758 4.05955  L -83.2195 3.70728  L -83.636 3.30291  L -84.0018 2.85211  L -84.3117 2.36121  L -84.5614 1.8371  L -84.7473 1.28714  L -84.8669 0.719052  L -84.9184 0.140807  L -84.9012 -0.439475  L -84.8155 -1.01365  L -84.6625 -1.57366  L -84.4443 -2.11163  L -84.164 -2.62003  L -83.8256 -3.09171  L -83.4337 -3.52005  L -82.994 -3.89904  L -82.5125 -4.22335  L -81.996 -4.48844  L -81.4518 -4.69059  L -80.8875 -4.82695  L -80.311 -4.89561  L -79.7305 -4.89561  L -79.154 -4.82695  L -78.5897 -4.69059  L -78.0455 -4.48844  L -77.529 -4.22335  L -77.0475 -3.89904  L -76.6078 -3.52005  L -76.2159 -3.09171  L -75.8775 -2.62003  L -75.5972 -2.11163  L -75.379 -1.57366  L -75.226 -1.01365  L -75.1403 -0.439475  L -75.1231 0.140807  L -75.1746 0.719052  L -75.2942 1.28714  L -75.4801 1.8371  L -75.7298 2.36121  L -76.0397 2.85211  L -76.4055 3.30291  L -76.822 3.70728  L -77.2835 4.05955  L -77.7833 4.35477  L -78.3146 4.5888  L -78.8698 4.75835  L -79.4412 4.86104  L -80.0207 4.89543  z" fill="none" stroke="rgb(217, 95, 2)" /><path d="M -120.611 4.86104 L -121.182 4.75835  L -121.737 4.5888  L -122.269 4.35477  L -122.768 4.05955  L -123.23 3.70728  L -123.646 3.30291  L -124.012 2.85211  L -124.322 2.36121  L -124.572 1.8371  L -124.758 1.28714  L -124.877 0.719052  L -124.929 0.140807  L -124.912 -0.439475  L -124.826 -1.01365  L -124.673 -1.57366  L -124.455 -2.11163  L -124.174 -2.62003  L -123.836 -3.09171  L -123.444 -3.52005  L -123.004 -3.89904  L -122.523 -4.22335  L -122.006 -4.48844  L -121.462 -4.69059  L -120.898 -4.82695  L -120.321 -4.89561  L -119.741 -4.89561  L -119.164 -4.82695  L -118.6 -4.69059  L -118.056 -4.48844  L -117.539 -4.22335  L -117.058 -3.89904  L -116.618 -3.52005  L -116.226 -3.09171  L -115.888 -2.62003  L -115.608 -2.11163  L -115.389 -1.57366  L -115.236 -1.01365  L -115.151 -0.439475  L -115.133 0.140807  L -115.185 0.719052  L -115.305 1.28714  L -115.491 1.8371  L -115.74 2.36121  L -116.05 2.85211  L -116.416 3.30291  L -116.832 3.70728  L -117.294 4.05955  L -117.794 4.35477  L -118.325 4.5888  L -118.88 4.75835  L -119.452 4.86104  L -120.031 4.89543  z" fill="none" stroke="rgb(217, 95, 2)" /><path d="M 147.037 -16.7152 L 149.462 -18.1152  L 154.72 -9.00727  L 152.296 -7.60727  z" fill="none" stroke="rgb(217, 95, 2)" /><path d="M -154.72 -9.00727 L -149.462 -18.1152  L -147.037 -16.7152  L -152.296 -7.60727  z" fill="none" stroke="rgb(217, 95, 2)" /><path d="M 136.32 -35.2773 L 138.745 -36.6773  L 144.004 -27.5695  L 141.579 -26.1695  z" fill="none" stroke="rgb(217, 95, 2)" /><path d="M -144.004 -27.5695 L -138.745 -36.6773  L -136.32 -35.2773  L -141.579 -26.1695  z" fill="none" stroke="rgb(217, 95, 2)" /><path d="M 99.4464 -29.789 L 98.875 -29.8916  L 98.3198 -30.0612  L 97.7885 -30.2952  L 97.2887 -30.5904  L 96.8272 -30.9427  L 96.4107 -31.3471  L 96.0449 -31.7979  L 95.735 -32.2888  L 95.4853 -32.8129  L 95.2994 -33.3629  L 95.1798 -33.9309  L 95.1283 -34.5092  L 95.1455 -35.0895  L 95.2312 -35.6636  L 95.3842 -36.2237  L 95.6024 -36.7616  L 95.8827 -37.27  L 96.2211 -37.7417  L 96.613 -38.17  L 97.0527 -38.549  L 97.5342 -38.8734  L 98.0507 -39.1384  L 98.5949 -39.3406  L 99.1592 -39.4769  L 99.7357 -39.5456  L 100.316 -39.5456  L 100.893 -39.4769  L 101.457 -39.3406  L 102.001 -39.1384  L 102.518 -38.8734  L 102.999 -38.549  L 103.439 -38.17  L 103.831 -37.7417  L 104.169 -37.27  L 104.449 -36.7616  L 104.668 -36.2237  L 104.821 -35.6636  L 104.906 -35.0895  L 104.924 -34.5092  L 104.872 -33.9309  L 104.752 -33.3629  L 104.567 -32.8129  L 104.317 -32.2888  L 104.007 -31.7979  L 103.641 -31.3471  L 103.225 -30.9427  L 102.763 -30.5904  L 102.263 -30.2952  L 101.732 -30.0612  L 101.177 -29.8916  L 100.605 -29.789  L 100.026 -29.7546  z" fill="none" stroke="rgb(217, 95, 2)" /><path d="M 59.436 -29.789 L 58.8647 -29.8916  L 58.3094 -30.0612  L 57.7782 -30.2952  L 57.2783 -30.5904  L 56.8168 -30.9427  L 56.4003 -31.3471  L 56.0345 -31.7979  L 55.7246 -32.2888  L 55.4749 -32.8129  L 55.289 -33.3629  L 55.1694 -33.9309  L 55.1179 -34.5092  L 55.1351 -35.0895  L 55.2208 -35.6636  L 55.3738 -36.2237  L 55.592 -36.7616  L 55.8723 -37.27  L 56.2107 -37.7417  L 56.6026 -38.17  L 57.0423 -38.549  L 57.5238 -38.8734  L 58.0403 -39.1384  L 58.5845 -39.3406  L 59.1488 -39.4769  L 59.7253 -39.5456  L 60.3058 -39.5456  L 60.8823 -39.4769  L 61.4466 -39.3406  L 61.9908 -39.1384  L 62.5073 -38.8734  L 62.9888 -38.549  L 63.4285 -38.17  L 63.8204 -37.7417  L 64.1588 -37.27  L 64.4391 -36.7616  L 64.6573 -36.2237  L 64.8103 -35.6636  L 64.896 -35.0895  L 64.9132 -34.5092  L 64.8617 -33.9309  L 64.7421 -33.3629  L 64.5562 -32.8129  L 64.3065 -32.2888  L 63.9966 -31.7979  L 63.6308 -31.3471  L 63.2143 -30.9427  L 62.7528 -30.5904  L 62.253 -30.2952  L 61.7217 -30.0612  L 61.1665 -29.8916  L 60.5951 -29.789  L 60.0156 -29.7546  z" fill="none" stroke="rgb(217, 95, 2)" /><path d="M 19.4257 -29.789 L 18.8543 -29.8916  L 18.2991 -30.0612  L 17.7678 -30.2952  L 17.2679 -30.5904  L 16.8065 -30.9427  L 16.3899 -31.3471  L 16.0241 -31.7979  L 15.7142 -32.2888  L 15.4646 -32.8129  L 15.2786 -33.3629  L 15.1591 -33.9309  L 15.1075 -34.5092  L 15.1247 -35.0895  L 15.2104 -35.6636  L 15.3635 -36.2237  L 15.5816 -36.7616  L 15.8619 -37.27  L 16.2004 -37.7417  L 16.5922 -38.17  L 17.032 -38.549  L 17.5135 -38.8734  L 18.03 -39.1384  L 18.5742 -39.3406  L 19.1385 -39.4769  L 19.7149 -39.5456  L 20.2955 -39.5456  L 20.8719 -39.4769  L 21.4362 -39.3406  L 21.9804 -39.1384  L 22.4969 -38.8734  L 22.9784 -38.549  L 23.4182 -38.17  L 23.81 -37.7417  L 24.1485 -37.27  L 24.4287 -36.7616  L 24.6469 -36.2237  L 24.7999 -35.6636  L 24.8857 -35.0895  L 24.9029 -34.5092  L 24.8513 -33.9309  L 24.7317 -33.3629  L 24.5458 -32.8129  L 24.2961 -32.2888  L 23.9862 -31.7979  L 23.6204 -31.3471  L 23.2039 -30.9427  L 22.7425 -30.5904  L 22.2426 -30.2952  L 21.7113 -30.0612  L 21.1561 -29.8916  L 20.5847 -29.789  L 20.0052 -29.7546  z" fill="none" stroke="rgb(217, 95, 2)" /><path d="M -20.5847 -29.789 L -21.1561 -29.8916  L -21.7113 -30.0612  L -22.2426 -30.2952  L -22.7425 -30.5904  L -23.2039 -30.9427  L -23.6204 -31.3471  L -23.9862 -31.7979  L -24.2961 -32.2888  L -24.5458 -32.8129  L -24.7317 -33.3629  L -24.8513 -33.9309  L -24.9029 -34.5092  L -24.8857 -35.0895  L -24.7999 -35.6636  L -24.6469 -36.2237  L -24.4287 -36.7616  L -24.1485 -37.27  L -23.81 -37.7417  L -23.4182 -38.17  L -22.9784 -38.549  L -22.4969 -38.8734  L -21.9804 -39.1384  L -21.4362 -39.3406  L -20.8719 -39.4769  L -20.2955 -39.5456  L -19.7149 -39.5456  L -19.1385 -39.4769  L -18.5742 -39.3406  L -18.03 -39.1384  L -17.5135 -38.8734  L -17.032 -38.549  L -16.5922 -38.17  L -16.2004 -37.7417  L -15.8619 -37.27  L -15.5816 -36.7616  L -15.3635 -36.2237  L -15.2104 -35.6636  L -15.1247 -35.0895  L -15.1075 -34.5092  L -15.1591 -33.9309  L -15.2786 -33.3629  L -15.4646 -32.8129  L -15.7142 -32.2888  L -16.0241 -31.7979  L -16.3899 -31.3471  L -16.8065 -30.9427  L -17.2679 -30.5904  L -17.7678 -30.2952  L -18.2991 -30.0612  L -18.8543 -29.8916  L -19.4257 -29.789  L -20.0052 -29.7546  z" fill="none" stroke="rgb(217, 95, 2)" /><path d="M -60.5951 -29.789 L -61.1665 -29.8916  L -61.7217 -30.0612  L -62.253 -30.2952  L -62.7528 -30.5904  L -63.2143 -30.9427  L -63.6308 -31.3471  L -63.9966 -31.7979  L -64.3065 -32.2888  L -64.5562 -32.8129  L -64.7421 -33.3629  L -64.8617 -33.9309  L -64.9132 -34.5092  L -64.896 -35.0895  L -64.8103 -35.6636  L -64.6573 -36.2237  L -64.4391 -36.7616  L -64.1588 -37.27  L -63.8204 -37.7417  L -63.4285 -38.17  L -62.9888 -38.549  L -62.5073 -38.8734  L -61.9908 -39.1384  L -61.4466 -39.3406  L -60.8823 -39.4769  L -60.3058 -39.5456  L -59.7253 -39.5456  L -59.1488 -39.4769  L -58.5845 -39.3406  L -58.0403 -39.1384  L -57.5238 -38.8734  L -57.0423 -38.549  L -56.6026 -38.17  L -56.2107 -37.7417  L -55.8723 -37.27  L -55.592 -36.7616  L -55.3738 -36.2237  L -55.2208 -35.6636  L -55.1351 -35.0895  L -55.1179 -34.5092  L -55.1694 -33.9309  L -55.289 -33.3629  L -55.4749 -32.8129  L -55.7246 -32.2888  L -56.0345 -31.7979  L -56.4003 -31.3471  L -56.8168 -30.9427  L -57.2783 -30.5904  L -57.7782 -30.2952  L -58.3094 -30.0612  L -58.8647 -29.8916  L -59.436 -29.789  L -60.0156 -29.7546  z" fill="none" stroke="rgb(217, 95, 2)" /><path d="M -100.605 -29.789 L -101.177 -29.8916  L -101.732 -30.0612  L -102.263 -30.2952  L -102.763 -30.5904  L -103.225 -30.9427  L -103.641 -31.3471  L -104.007 -31.7979  L -104.317 -32.2888  L -104.567 -32.8129  L -104.752 -33.3629  L -104.872 -33.9309  L -104.924 -34.5092  L -104.906 -35.0895  L -104.821 -35.6636  L -104.668 -36.2237  L -104.449 -36.7616  L -104.169 -37.27  L -103.831 -37.7417  L -103.439 -38.17  L -102.999 -38.549  L -102.518 -38.8734  L -102.001 -39.1384  L -101.457 -39.3406  L -100.893 -39.4769  L -100.316 -39.5456  L -99.7357 -39.5456  L -99.1592 -39.4769  L -98.5949 -39.3406  L -98.0507 -39.1384  L -97.5342 -38.8734  L -97.0527 -38.549  L -96.613 -38.17  L -96.2211 -37.7417  L -95.8827 -37.27  L -95.6024 -36.7616  L -95.3842 -36.2237  L -95.2312 -35.6636  L -95.1455 -35.0895  L -95.1283 -34.5092  L -95.1798 -33.9309  L -95.2994 -33.3629  L -95.4853 -32.8129  L -95.735 -32.2888  L -96.0449 -31.7979  L -96.4107 -31.3471  L -96.8272 -30.9427  L -97.2887 -30.5904  L -97.7885 -30.2952  L -98.3198 -30.0612  L -98.875 -29.8916  L -99.4464 -29.789  L -100.026 -29.7546  z" fill="none" stroke="rgb(217, 95, 2)" /><path d="M 125.603 -53.8395 L 128.028 -55.2395  L 133.287 -46.1316  L 130.862 -44.7316  z" fill="none" stroke="rgb(217, 95, 2)" /><path d="M -133.287 -46.1316 L -128.028 -55.2395  L -125.603 -53.8395  L -130.862 -44.7316  z" fill="none" stroke="rgb(217, 95, 2)" /><path d="M 114.887 -72.4017 L 117.311 -73.8017  L 122.57 -64.6938  L 120.145 -63.2938  z" fill="none" stroke="rgb(217, 95, 2)" /><path d="M -122.57 -64.6938 L -117.311 -73.8017  L -114.887 -72.4017  L -120.145 -63.2938  z" fill="none" stroke="rgb(217, 95, 2)" /><path d="M 79.4412 -64.439 L 78.8698 -64.5416  L 78.3146 -64.7112  L 77.7833 -64.9452  L 77.2835 -65.2404  L 76.822 -65.5927  L 76.4055 -65.9971  L 76.0397 -66.4479  L 75.7298 -66.9388  L 75.4801 -67.4629  L 75.2942 -68.0129  L 75.1746 -68.5809  L 75.1231 -69.1592  L 75.1403 -69.7395  L 75.226 -70.3136  L 75.379 -70.8737  L 75.5972 -71.4116  L 75.8775 -71.92  L 76.2159 -72.3917  L 76.6078 -72.82  L 77.0475 -73.199  L 77.529 -73.5234  L 78.0455 -73.7884  L 78.5897 -73.9906  L 79.154 -74.1269  L 79.7305 -74.1956  L 80.311 -74.1956  L 80.8875 -74.1269  L 81.4518 -73.9906  L 81.996 -73.7884  L 82.5125 -73.5234  L 82.994 -73.199  L 83.4337 -72.82  L 83.8256 -72.3917  L 84.164 -71.92  L 84.4443 -71.4116  L 84.6625 -70.8737  L 84.8155 -70.3136  L 84.9012 -69.7395  L 84.9184 -69.1592  L 84.8669 -68.5809  L 84.7473 -68.0129  L 84.5614 -67.4629  L 84.3117 -66.9388  L 84.0018 -66.4479  L 83.636 -65.9971  L 83.2195 -65.5927  L 82.758 -65.2404  L 82.2582 -64.9452  L 81.7269 -64.7112  L 81.1716 -64.5416  L 80.6003 -64.439  L 80.0207 -64.4046  z" fill="none" stroke="rgb(217, 95, 2)" /><path d="M 39.4309 -64.439 L 38.8595 -64.5416  L 38.3042 -64.7112  L 37.773 -64.9452  L 37.2731 -65.2404  L 36.8117 -65.5927  L 36.3951 -65.9971  L 36.0293 -66.4479  L 35.7194 -66.9388  L 35.4698 -67.4629  L 35.2838 -68.0129  L 35.1643 -68.5809  L 35.1127 -69.1592  L 35.1299 -69.7395  L 35.2156 -70.3136  L 35.3686 -70.8737  L 35.5868 -71.4116  L 35.8671 -71.92  L 36.2055 -72.3917  L 36.5974 -72.82  L 37.0372 -73.199  L 37.5187 -73.5234  L 38.0351 -73.7884  L 38.5793 -73.9906  L 39.1436 -74.1269  L 39.7201 -74.1956  L 40.3006 -74.1956  L 40.8771 -74.1269  L 41.4414 -73.9906  L 41.9856 -73.7884  L 42.5021 -73.5234  L 42.9836 -73.199  L 43.4234 -72.82  L 43.8152 -72.3917  L 44.1536 -71.92  L 44.4339 -71.4116  L 44.6521 -70.8737  L 44.8051 -70.3136  L 44.8908 -69.7395  L 44.908 -69.1592  L 44.8565 -68.5809  L 44.7369 -68.0129  L 44.551 -67.4629  L 44.3013 -66.9388  L 43.9914 -66.4479  L 43.6256 -65.9971  L 43.2091 -65.5927  L 42.7476 -65.2404  L 42.2478 -64.9452  L 41.7165 -64.7112  L 41.1613 -64.5416  L 40.5899 -64.439  L 40.0104 -64.4046  z" fill="none" stroke="rgb(217, 95, 2)" /><path d="M -0.579518 -64.439 L -1.1509 -64.5416  L -1.70613 -64.7112  L -2.2374 -64.9452  L -2.73727 -65.2404  L -3.19871 -65.5927  L -3.61525 -65.9971  L -3.98104 -66.4479  L -4.29095 -66.9388  L -4.54062 -67.4629  L -4.72654 -68.0129  L -4.84612 -68.5809  L -4.89767 -69.1592  L -4.88047 -69.7395  L -4.79475 -70.3136  L -4.64173 -70.8737  L -4.42355 -71.4116  L -4.14327 -71.92  L -3.80483 -72.3917  L -3.41298 -72.82  L -2.97321 -73.199  L -2.49171 -73.5234  L -1.97523 -73.7884  L -1.43103 -73.9906  L -0.866731 -74.1269  L -0.290269 -74.1956  L 0.290269 -74.1956  L 0.866731 -74.1269  L 1.43103 -73.9906  L 1.97523 -73.7884  L 2.49171 -73.5234  L 2.97321 -73.199  L 3.41298 -72.82  L 3.80483 -72.3917  L 4.14327 -71.92  L 4.42355 -71.4116  L 4.64173 -70.8737  L 4.79475 -70.3136  L 4.88047 -69.7395  L 4.89767 -69.1592  L 4.84612 -68.5809  L 4.72654 -68.0129  L 4.54062 -67.4629  L 4.29095 -66.9388  L 3.98104 -66.4479  L 3.61525 -65.9971  L 3.19871 -65.5927  L 2.73727 -65.2404  L 2.2374 -64.9452  L 1.70613 -64.7112  L 1.1509 -64.5416  L 0.579518 -64.439  L -0 -64.4046  z" fill="none" stroke="rgb(217, 95, 2)" /><path d="M -40.5899 -64.439 L -41.1613 -64.5416  L -41.7165 -64.7112  L -42.2478 -64.9452  L -42.7476 -65.2404  L -43.2091 -65.5927  L -43.6256 -65.9971  L -43.9914 -66.4479  L -44.3013 -66.9388  L -44.551 -67.4629  L -44.7369 -68.0129  L -44.8565 -68.5809  L -44.908 -69.1592  L -44.8908 -69.7395  L -44.8051 -70.3136  L -44.6521 -70.8737  L -44.4339 -71.4116  L -44.1536 -71.92  L -43.8152 -72.3917  L -43.4234 -72.82  L -42.9836 -73.199  L -42.5021 -73.5234  L -41.9856 -73.7884  L -41.4414 -73.9906  L -40.8771 -74.1269  L -40.3006 -74.1956  L -39.7201 -74.1956  L -39.1436 -74.1269  L -38.5793 -73.9906  L -38.0351 -73.7884  L -37.5187 -73.5234  L -37.0372 -73.199  L -36.5974 -72.82  L -36.2055 -72.3917  L -35.8671 -71.92  L -35.5868 -71.4116  L -35.3686 -70.8737  L -35.2156 -70.3136  L -35.1299 -69.7395  L -35.1127 -69.1592  L -35.1643 -68.5809  L -35.2838 -68.0129  L -35.4698 -67.4629  L -35.7194 -66.9388  L -36.0293 -66.4479  L -36.3951 -65.9971  L -36.8117 -65.5927  L -37.2731 -65.2404  L -37.773 -64.9452  L -38.3042 -64.7112  L -38.8595 -64.5416  L -39.4309 -64.439  L -40.0104 -64.4046  z" fill="none" stroke="rgb(217, 95, 2)" /><path d="M -80.6003 -64.439 L -81.1716 -64.5416  L -81.7269 -64.7112  L -82.2582 -64.9452  L -82.758 -65.2404  L -83.2195 -65.5927  L -83.636 -65.9971  L -84.0018 -66.4479  L -84.3117 -66.9388  L -84.5614 -67.4629  L -84.7473 -68.0129  L -84.8669 -68.5809  L -84.9184 -69.1592  L -84.9012 -69.7395  L -84.8155 -70.3136  L -84.6625 -70.8737  L -84.4443 -71.4116  L -84.164 -71.92  L -83.8256 -72.3917  L -83.4337 -72.82  L -82.994 -73.199  L -82.5125 -73.5234  L -81.996 -73.7884  L -81.4518 -73.9906  L -80.8875 -74.1269  L -80.311 -74.1956  L -79.7305 -74.1956  L -79.154 -74.1269  L -78.5897 -73.9906  L -78.0455 -73.7884  L -77.529 -73.5234  L -77.0475 -73.199  L -76.6078 -72.82  L -76.2159 -72.3917  L -75.8775 -71.92  L -75.5972 -71.4116  L -75.379 -70.8737  L -75.226 -70.3136  L -75.1403 -69.7395  L -75.1231 -69.1592  L -75.1746 -68.5809  L -75.2942 -68.0129  L -75.4801 -67.4629  L -75.7298 -66.9388  L -76.0397 -66.4479  L -76.4055 -65.9971  L -76.822 -65.5927  L -77.2835 -65.2404  L -77.7833 -64.9452  L -78.3146 -64.7112  L -78.8698 -64.5416  L -79.4412 -64.439  L -80.0207 -64.4046  z" fill="none" stroke="rgb(217, 95, 2)" /><path d="M 104.17 -90.9639 L 106.595 -92.3639  L 111.853 -83.256  L 109.428 -81.856  z" fill="none" stroke="rgb(217, 95, 2)" /><path d="M -111.853 -83.256 L -106.595 -92.3639  L -104.17 -90.9639  L -109.428 -81.856  z" fill="none" stroke="rgb(217, 95, 2)" /><path d="M 59.436 -99.089 L 58.8647 -99.1916  L 58.3094 -99.3612  L 57.7782 -99.5952  L 57.2783 -99.8904  L 56.8168 -100.243  L 56.4003 -100.647  L 56.0345 -101.098  L 55.7246 -101.589  L 55.4749 -102.113  L 55.289 -102.663  L 55.1694 -103.231  L 55.1179 -103.809  L 55.1351 -104.389  L 55.2208 -104.964  L 55.3738 -105.524  L 55.592 -106.062  L 55.8723 -106.57  L 56.2107 -107.042  L 56.6026 -107.47  L 57.0423 -107.849  L 57.5238 -108.173  L 58.0403 -108.438  L 58.5845 -108.641  L 59.1488 -108.777  L 59.7253 -108.846  L 60.3058 -108.846  L 60.8823 -108.777  L 61.4466 -108.641  L 61.9908 -108.438  L 62.5073 -108.173  L 62.9888 -107.849  L 63.4285 -107.47  L 63.8204 -107.042  L 64.1588 -106.57  L 64.4391 -106.062  L 64.6573 -105.524  L 64.8103 -104.964  L 64.896 -104.389  L 64.9132 -103.809  L 64.8617 -103.231  L 64.7421 -102.663  L 64.5562 -102.113  L 64.3065 -101.589  L 63.9966 -101.098  L 63.6308 -100.647  L 63.2143 -100.243  L 62.7528 -99.8904  L 62.253 -99.5952  L 61.7217 -99.3612  L 61.1665 -99.1916  L 60.5951 -99.089  L 60.0156 -99.0546  z" fill="none" stroke="rgb(217, 95, 2)" /><path d="M 19.4257 -99.089 L 18.8543 -99.1916  L 18.2991 -99.3612  L 17.7678 -99.5952  L 17.2679 -99.8904  L 16.8065 -100.243  L 16.3899 -100.647  L 16.0241 -101.098  L 15.7142 -101.589  L 15.4646 -102.113  L 15.2786 -102.663  L 15.1591 -103.231  L 15.1075 -103.809  L 15.1247 -104.389  L 15.2104 -104.964  L 15.3635 -105.524  L 15.5816 -106.062  L 15.8619 -106.57  L 16.2004 -107.042  L 16.5922 -107.47  L 17.032 -107.849  L 17.5135 -108.173  L 18.03 -108.438  L 18.5742 -108.641  L 19.1385 -108.777  L 19.7149 -108.846  L 20.2955 -108.846  L 20.8719 -108.777  L 21.4362 -108.641  L 21.9804 -108.438  L 22.4969 -108.173  L 22.9784 -107.849  L 23.4182 -107.47  L 23.81 -107.042  L 24.1485 -106.57  L 24.4287 -106.062  L 24.6469 -105.524  L 24.7999 -104.964  L 24.8857 -104.389  L 24.9029 -103.809  L 24.8513 -103.231  L 24.7317 -102.663  L 24.5458 -102.113  L 24.2961 -101.589  L 23.9862 -101.098  L 23.6204 -100.647  L 23.2039 -100.243  L 22.7425 -99.8904  L 22.2426 -99.5952  L 21.7113 -99.3612  L 21.1561 -99.1916  L 20.5847 -99.089  L 20.0052 -99.0546  z" fill="none" stroke="rgb(217, 95, 2)" /><path d="M -20.5847 -99.089 L -21.1561 -99.1916  L -21.7113 -99.3612  L -22.2426 -99.5952  L -22.7425 -99.8904  L -23.2039 -100.243  L -23.6204 -100.647  L -23.9862 -101.098  L -24.2961 -101.589  L -24.5458 -102.113  L -24.7317 -102.663  L -24.8513 -103.231  L -24.9029 -103.809  L -24.8857 -104.389  L -24.7999 -104.964  L -24.6469 -105.524  L -24.4287 -106.062  L -24.1485 -106.57  L -23.81 -107.042  L -23.4182 -107.47  L -22.9784 -107.849  L -22.4969 -108.173  L -21.9804 -108.438  L -21.4362 -108.641  L -20.8719 -108.777  L -20.2955 -108.846  L -19.7149 -108.846  L -19.1385 -108.777  L -18.5742 -108.641  L -18.03 -108.438  L -17.5135 -108.173  L -17.032 -107.849  L -16.5922 -107.47  L -16.2004 -107.042  L -15.8619 -106.57  L -15.5816 -106.062  L -15.3635 -105.524  L -15.2104 -104.964  L -15.1247 -104.389  L -15.1075 -103.809  L -15.1591 -103.231  L -15.2786 -102.663  L -15.4646 -102.113  L -15.7142 -101.589  L -16.0241 -101.098  L -16.3899 -100.647  L -16.8065 -100.243  L -17.2679 -99.8904  L -17.7678 -99.5952  L -18.2991 -99.3612  L -18.8543 -99.1916  L -19.4257 -99.089  L -20.0052 -99.0546  z" fill="none" stroke="rgb(217, 95, 2)" /><path d="M -60.5951 -99.089 L -61.1665 -99.1916  L -61.7217 -99.3612  L -62.253 -99.5952  L -62.7528 -99.8904  L -63.2143 -100.243  L -63.6308 -100.647  L -63.9966 -101.098  L -64.3065 -101.589  L -64.5562 -102.113  L -64.7421 -102.663  L -64.8617 -103.231  L -64.9132 -103.809  L -64.896 -104.389  L -64.8103 -104.964  L -64.6573 -105.524  L -64.4391 -106.062  L -64.1588 -106.57  L -63.8204 -107.042  L -63.4285 -107.47  L -62.9888 -107.849  L -62.5073 -108.173  L -61.9908 -108.438  L -61.4466 -108.641  L -60.8823 -108.777  L -60.3058 -108.846  L -59.7253 -108.846  L -59.1488 -108.777  L -58.5845 -108.641  L -58.0403 -108.438  L -57.5238 -108.173  L -57.0423 -107.849  L -56.6026 -107.47  L -56.2107 -107.042  L -55.8723 -106.57  L -55.592 -106.062  L -55.3738 -105.524  L -55.2208 -104.964  L -55.1351 -104.389  L -55.1179 -103.809  L -55.1694 -103.231  L -55.289 -102.663  L -55.4749 -102.113  L -55.7246 -101.589  L -56.0345 -101.098  L -56.4003 -100.647  L -56.8168 -100.243  L -57.2783 -99.8904  L -57.7782 -99.5952  L -58.3094 -99.3612  L -58.8647 -99.1916  L -59.436 -99.089  L -60.0156 -99.0546  z" fill="none" stroke="rgb(217, 95, 2)" /><path d="M 93.4528 -109.526 L 95.8777 -110.926  L 101.136 -101.818  L 98.7112 -100.418  z" fill="none" stroke="rgb(217, 95, 2)" /><path d="M -101.136 -101.818 L -95.8777 -110.926  L -93.4528 -109.526  L -98.7112 -100.418  z" fill="none" stroke="rgb(217, 95, 2)" /><path d="M 82.7359 -128.088 L 85.1608 -129.488  L 90.4192 -120.38  L 87.9943 -118.98  z" fill="none" stroke="rgb(217, 95, 2)" /><path d="M -90.4192 -120.38 L -85.1608 -129.488  L -82.7359 -128.088  L -87.9943 -118.98  z" fill="none" stroke="rgb(217, 95, 2)" /><path d="M 37.6091 -135.696 L 37.6091 -138.496  L 48.126 -138.496  L 48.126 -135.696  z" fill="none" stroke="rgb(217, 95, 2)" /><path d="M 16.1753 -135.696 L 16.1753 -138.496  L 26.6922 -138.496  L 26.6922 -135.696  z" fill="none" stroke="rgb(217, 95, 2)" /><path d="M -5.25844 -135.696 L -5.25844 -138.496  L 5.25844 -138.496  L 5.25844 -135.696  z" fill="none" stroke="rgb(217, 95, 2)" /><path d="M -26.6922 -135.696 L -26.6922 -138.496  L -16.1753 -138.496  L -16.1753 -135.696  z" fill="none" stroke="rgb(217, 95, 2)" /><path d="M 59.0428 -138.496 L 69.5597 -138.496  L 69.5597 -135.696  L 59.0428 -135.696  z" fill="none" stroke="rgb(217, 95, 2)" /><path d="M -48.126 -135.696 L -48.126 -138.496  L -37.6091 -138.496  L -37.6091 -135.696  z" fill="none" stroke="rgb(217, 95, 2)" /><path d="M -69.5597 -135.696 L -69.5597 -138.496  L -59.0428 -138.496  L -59.0428 -135.696  z" fill="none" stroke="rgb(217, 95, 2)" /><path d="M 38.6 -141.696 L 38.6 -145.496  L 41.4 -145.496  L 41.4 -141.696  z" fill="none" stroke="rgb(217, 95, 2)" /><path d="M -41.4 -141.696 L -41.4 -145.496  L -38.6 -145.496  L -38.6 -141.696  z" fill="none" stroke="rgb(217, 95, 2)" /><path d="M 85.8494 -148.696 L -85.8494 -148.696  L -171.699 -5.68434e-14  L -85.8494 148.696  L 85.8494 148.696  L 171.699 -5.68434e-14  z" fill="none" stroke="rgb(27, 158, 119)" /></g><g transform="translate(879.041, 3)"><path d="M 82.7359 128.088 L 87.9943 118.98  L 90.5924 120.48  L 96.0509 111.026  L 93.4528 109.526  L 98.7112 100.418  L 101.309 101.918  L 106.768 92.4639  L 104.17 90.9639  L 109.428 81.856  L 112.026 83.356  L 117.485 73.9017  L 114.887 72.4017  L 120.145 63.2938  L 122.743 64.7938  L 128.201 55.3395  L 125.603 53.8395  L 130.862 44.7316  L 133.46 46.2316  L 138.918 36.7773  L 136.32 35.2773  L 141.579 26.1695  L 144.177 27.6695  L 149.635 18.2152  L 147.037 16.7152  L 152.296 7.60727  L 154.894 9.10727  L 160.152 5.68434e-14  L 154.894 -9.10727  L 152.296 -7.60727  L 147.037 -16.7152  L 149.635 -18.2152  L 144.177 -27.6695  L 141.579 -26.1695  L 136.32 -35.2773  L 138.918 -36.7773  L 133.46 -46.2316  L 130.862 -44.7316  L 125.603 -53.8395  L 128.201 -55.3395  L 122.743 -64.7938  L 120.145 -63.2938  L 114.887 -72.4017  L 117.485 -73.9017  L 112.026 -83.356  L 109.428 -81.856  L 104.17 -90.9639  L 106.768 -92.4639  L 101.309 -101.918  L 98.7112 -100.418  L 93.4528 -109.526  L 96.0509 -111.026  L 90.5924 -120.48  L 87.9943 -118.98  L 82.7359 -128.088  L 85.334 -129.588  L 80.0759 -138.696  L 69.5597 -138.696  L 69.5597 -135.696  L 59.0428 -135.696  L 59.0428 -138.696  L 48.126 -138.696  L 48.126 -135.696  L 37.6091 -135.696  L 37.6091 -138.696  L 26.6922 -138.696  L 26.6922 -135.696  L 16.1753 -135.696  L 16.1753 -138.696  L 5.25844 -138.696  L 5.25844 -135.696  L -5.25844 -135.696  L -5.25844 -138.696  L -16.1753 -138.696  L -16.1753 -135.696  L -26.6922 -135.696  L -26.6922 -138.696  L -37.6091 -138.696  L -37.6091 -135.696  L -48.126 -135.696  L -48.126 -138.696  L -59.0428 -138.696  L -59.0428 -135.696  L -69.5597 -135.696  L -69.5597 -138.696  L -80.0759 -138.696  L -85.334 -129.588  L -82.7359 -128.088  L -87.9943 -118.98  L -90.5924 -120.48  L -96.0509 -111.026  L -93.4528 -109.526  L -98.7112 -100.418  L -101.309 -101.918  L -106.768 -92.4639  L -104.17 -90.9639  L -109.428 -81.856  L -112.026 -83.356  L -117.485 -73.9017  L -114.887 -72.4017  L -120.145 -63.2938  L -122.743 -64.7938  L -128.201 -55.3395  L -125.603 -53.8395  L -130.862 -44.7316  L -133.46 -46.2316  L -138.918 -36.7773  L -136.32 -35.2773  L -141.579 -26.1695  L -144.177 -27.6695  L -149.635 -18.2152  L -147.037 -16.7152  L -152.296 -7.60727  L -154.894 -9.10727  L -160.152 -1.13687e-13  L -154.894 9.10727  L -152.296 7.60727  L -147.037 16.7152  L -149.635 18.2152  L -144.177 27.6695  L -141.579 26.1695  L -136.32 35.2773  L -138.918 36.7773  L -133.46 46.2316  L -130.862 44.7316  L -125.603 53.8395  L -128.201 55.3395  L -122.743 64.7938  L -120.145 63.2938  L -114.887 72.4017  L -117.485 73.9017  L -112.026 83.356  L -109.428 81.856  L -104.17 90.9639  L -106.768 92.4639  L -101.309 101.918  L -98.7112 100.418  L -93.4528 109.526  L -96.0509 111.026  L -90.5924 120.48  L -87.9943 118.98  L -82.7359 128.088  L -85.334 129.588  L -80.0759 138.696  L -69.5597 138.696  L -69.5597 135.696  L -59.0428 135.696  L -59.0428 138.696  L -48.126 138.696  L -48.126 135.696  L -37.6091 135.696  L -37.6091 138.696  L -26.6922 138.696  L -26.6922 135.696  L -16.1753 135.696  L -16.1753 138.696  L -5.25844 138.696  L -5.25844 135.696  L 5.25844 135.696  L 5.25844 138.696  L 16.1753 138.696  L 16.1753 135.696  L 26.6922 135.696  L 26.6922 138.696  L 37.6091 138.696  L 37.6091 135.696  L 48.126 135.696  L 48.126 138.696  L 59.0428 138.696  L 59.0428 135.696  L 69.5597 135.696  L 69.5597 138.696  L 80.0759 138.696  L 85.334 129.588  z" fill="none" stroke="rgb(27, 158, 119)" /><path d="M 40.0104 108.377 L 20.0052 122.912  L 0 108.377  L -20.0052 122.912  L -40.0104 108.377  L -60.0156 122.912  L -79.9653 108.417  L -72.3452 84.9649  L -47.6859 84.9649  L -40.0104 108.588  L -32.3348 84.9649  L -7.67557 84.9649  L -4.61739e-15 108.588  L 7.67557 84.9649  L 32.3348 84.9649  L 40.0104 108.588  L 47.6859 84.9649  L 72.3452 84.9649  L 79.9653 108.417  L 60.0156 122.912  z" fill="none" stroke="rgb(217, 95, 2)" /><path d="M 60.0156 73.7269 L 40.0104 88.2615  L 20.0052 73.7269  L -0 88.2615  L -20.0052 73.7269  L -40.0104 88.2615  L -60.0156 73.7269  L -80.0207 88.2615  L -99.9705 73.7672  L -92.3504 50.3149  L -67.6911 50.3149  L -60.0156 73.9379  L -52.34 50.3149  L -27.6808 50.3149  L -20.0052 73.9379  L -12.3296 50.3149  L 12.3296 50.3149  L 20.0052 73.9379  L 27.6808 50.3149  L 52.34 50.3149  L 60.0156 73.9379  L 67.6911 50.3149  L 92.3504 50.3149  L 99.9705 73.7672  L 80.0207 88.2615  z" fill="none" stroke="rgb(217, 95, 2)" /><path d="M 80.0207 39.0769 L 60.0156 53.6115  L 40.0104 39.0769  L 20.0052 53.6115  L 4.88989e-15 39.0769  L -20.0052 53.6115  L -40.0104 39.0769  L -60.0156 53.6115  L -80.0207 39.0769  L -100.026 53.6115  L -119.976 39.1172  L -112.356 15.6649  L -87.6963 15.6649  L -80.0207 39.2879  L -72.3452 15.6649  L -47.6859 15.6649  L -40.0104 39.2879  L -32.3348 15.6649  L -7.67557 15.6649  L 3.46304e-15 39.2879  L 7.67557 15.6649  L 32.3348 15.6649  L 40.0104 39.2879  L 47.6859 15.6649  L 72.3452 15.6649  L 80.0207 39.2879  L 87.6963 15.6649  L 112.356 15.6649  L 119.976 39.1172  L 100.026 53.6115  z" fill="none" stroke="rgb(217, 95, 2)" /><path d="M 100.026 4.4269 L 80.0207 18.9615  L 60.0156 4.4269  L 40.0104 18.9615  L 20.0052 4.4269  L -1.46697e-14 18.9615  L -20.0052 4.4269  L -40.0104 18.9615  L -60.0156 4.4269  L -80.0207 18.9615  L -100.026 4.4269  L -120.031 18.9615  L -139.981 4.46719  L -132.361 -18.9851  L -107.702 -18.9851  L -100.026 4.63785  L -92.3504 -18.9851  L -67.6911 -18.9851  L -60.0156 4.63785  L -52.34 -18.9851  L -27.6808 -18.9851  L -20.0052 4.63785  L -12.3296 -18.9851  L 12.3296 -18.9851  L 20.0052 4.63785  L 27.6808 -18.9851  L 52.34 -18.9851  L 60.0156 4.63785  L 67.6911 -18.9851  L 92.3504 -18.9851  L 100.026 4.63785  L 107.702 -18.9851  L 132.361 -18.9851  L 139.981 4.46719  L 120.031 18.9615  z" fill="none" stroke="rgb(217, 95, 2)" /><path d="M 80.0207 -30.2231 L 60.0156 -15.6885  L 40.0104 -30.2231  L 20.0052 -15.6885  L 7.33484e-15 -30.2231  L -20.0052 -15.6885  L -40.0104 -30.2231  L -60.0156 -15.6885  L -80.0207 -30.2231  L -100.026 -15.6885  L -119.976 -30.1828  L -112.356 -53.6351  L -87.6963 -53.6351  L -80.0207 -30.0121  L -72.3452 -53.6351  L -47.6859 -53.6351  L -40.0104 -30.0121  L -32.3348 -53.6351  L -7.67557 -53.6351  L 3.46304e-15 -30.0121  L 7.67557 -53.6351  L 32.3348 -53.6351  L 40.0104 -30.0121  L 47.6859 -53.6351  L 72.3452 -53.6351  L 80.0207 -30.0121  L 87.6963 -53.6351  L 112.356 -53.6351  L 119.976 -30.1828  L 100.026 -15.6885  z" fill="none" stroke="rgb(217, 95, 2)" /><path d="M 60.0156 -64.8731 L 40.0104 -50.3385  L 20.0052 -64.8731  L 9.77978e-15 -50.3385  L -20.0052 -64.8731  L -40.0104 -50.3385  L -60.0156 -64.8731  L -80.0207 -50.3385  L -99.9705 -64.8328  L -92.3504 -88.2851  L -67.6911 -88.2851  L -60.0156 -64.6621  L -52.34 -88.2851  L -27.6808 -88.2851  L -20.0052 -64.6621  L -12.3296 -88.2851  L 12.3296 -88.2851  L 20.0052 -64.6621  L 27.6808 -88.2851  L 52.34 -88.2851  L 60.0156 -64.6621  L 67.6911 -88.2851  L 92.3504 -88.2851  L 99.9705 -64.8328  L 80.0207 -50.3385  z" fill="none" stroke="rgb(217, 95, 2)" /><path d="M 40.0104 -99.5231 L 20.0052 -84.9885  L 0 -99.5231  L -20.0052 -84.9885  L -40.0104 -99.5231  L -60.0156 -84.9885  L -79.9653 -99.4828  L -72.3452 -122.935  L -47.6859 -122.935  L -40.0104 -99.3121  L -32.3348 -122.935  L -7.67557 -122.935  L -4.61739e-15 -99.3121  L 7.67557 -122.935  L 32.3348 -122.935  L 40.0104 -99.3121  L 47.6859 -122.935  L 72.3452 -122.935  L 79.9653 -99.4828  L 60.0156 -84.9885  z" fill="none" stroke="rgb(217, 95, 2)" /></g></svg>