<?xml version="1.0" encoding="utf-8" ?>
<svg baseProfile="full" height="346.801270189222mm" version="1.1" viewBox="-199.45230400715516,-173.400635094611,398.90460801431027,346.801270189222" width="398.90460801431027mm" xmlns="http://www.w3.org/2000/svg" xmlns:ev="http://www.w3.org/2001/xml-events" xmlns:xlink="http://www.w3.org/1999/xlink"><defs /><g><path d="M 27.9186 156.071 L 39.086 156.071  L 39.086 159.071  L 27.9186 159.071  z" fill="none" stroke="rgb(217, 95, 2)" /><path d="M 5.58371 159.071 L 5.58371 156.071  L 16.7511 156.071  L 16.7511 159.071  z" fill="none" stroke="rgb(217, 95, 2)" /><path d="M -16.7511 159.071 L -16.7511 156.071  L -5.58371 156.071  L -5.58371 159.071  z" fill="none" stroke="rgb(217, 95, 2)" /><path d="M -39.086 156.071 L -27.9186 156.071  L -27.9186 159.071  L -39.086 159.071  z" fill="none" stroke="rgb(217, 95, 2)" /><path d="M 50.2534 156.071 L 61.4208 156.071  L 61.4208 159.071  L 50.2534 159.071  z" fill="none" stroke="rgb(217, 95, 2)" /><path d="M -61.4208 159.071 L -61.4208 156.071  L -50.2534 156.071  L -50.2534 159.071  z" fill="none" stroke="rgb(217, 95, 2)" /><path d="M 72.5883 156.071 L 83.7557 156.071  L 83.7557 159.071  L 72.5883 159.071  z" fill="none" stroke="rgb(217, 95, 2)" /><path d="M -83.7557 159.071 L -83.7557 156.071  L -72.5883 156.071  L -72.5883 159.071  z" fill="none" stroke="rgb(217, 95, 2)" /><path d="M 93.2832 150.57 L 98.8669 140.899  L 101.465 142.399  L 95.8813 152.07  z" fill="none" stroke="rgb(217, 95, 2)" /><path d="M -101.465 142.399 L -98.8669 140.899  L -93.2832 150.57  L -95.8813 152.07  z" fill="none" stroke="rgb(217, 95, 2)" /><path d="M 104.451 131.227 L 110.034 121.556  L 112.632 123.056  L 107.049 132.727  z" fill="none" stroke="rgb(217, 95, 2)" /><path d="M -112.632 123.056 L -110.034 121.556  L -104.451 131.227  L -107.049 132.727  z" fill="none" stroke="rgb(217, 95, 2)" /><path d="M 69.3331 123.857 L 68.6064 123.464  L 68.0468 122.856  L 67.7149 122.099  L 67.6466 121.276  L 67.8495 120.475  L 68.3014 119.783  L 68.9534 119.275  L 69.7349 119.007  L 70.5612 119.007  L 71.3427 119.275  L 71.9947 119.783  L 72.4466 120.475  L 72.6495 121.276  L 72.5813 122.099  L 72.2493 122.856  L 71.6897 123.464  L 70.9631 123.857  L 70.1481 123.993  z" fill="none" stroke="rgb(217, 95, 2)" /><path d="M 22.5677 123.857 L 21.841 123.464  L 21.2814 122.856  L 20.9495 122.099  L 20.8813 121.276  L 21.0841 120.475  L 21.536 119.783  L 22.1881 119.275  L 22.9696 119.007  L 23.7958 119.007  L 24.5773 119.275  L 25.2294 119.783  L 25.6813 120.475  L 25.8841 121.276  L 25.8159 122.099  L 25.484 122.856  L 24.9244 123.464  L 24.1977 123.857  L 23.3827 123.993  z" fill="none" stroke="rgb(217, 95, 2)" /><path d="M -24.1977 123.857 L -24.9244 123.464  L -25.484 122.856  L -25.8159 122.099  L -25.8841 121.276  L -25.6813 120.475  L -25.2294 119.783  L -24.5773 119.275  L -23.7958 119.007  L -22.9696 119.007  L -22.1881 119.275  L -21.536 119.783  L -21.0841 120.475  L -20.8813 121.276  L -20.9495 122.099  L -21.2814 122.856  L -21.841 123.464  L -22.5677 123.857  L -23.3827 123.993  z" fill="none" stroke="rgb(217, 95, 2)" /><path d="M -70.9631 123.857 L -71.6897 123.464  L -72.2493 122.856  L -72.5813 122.099  L -72.6495 121.276  L -72.4466 120.475  L -71.9947 119.783  L -71.3427 119.275  L -70.5612 119.007  L -69.7349 119.007  L -68.9534 119.275  L -68.3014 119.783  L -67.8495 120.475  L -67.6466 121.276  L -67.7149 122.099  L -68.0468 122.856  L -68.6064 123.464  L -69.3331 123.857  L -70.1481 123.993  z" fill="none" stroke="rgb(217, 95, 2)" /><path d="M 115.618 111.885 L 121.202 102.213  L 123.8 103.713  L 118.216 113.385  z" fill="none" stroke="rgb(217, 95, 2)" /><path d="M -123.8 103.713 L -121.202 102.213  L -115.618 111.885  L -118.216 113.385  z" fill="none" stroke="rgb(217, 95, 2)" /><path d="M 126.785 92.5422 L 132.369 82.8709  L 134.967 84.3709  L 129.384 94.0422  z" fill="none" stroke="rgb(217, 95, 2)" /><path d="M -134.967 84.3709 L -132.369 82.8709  L -126.785 92.5422  L -129.384 94.0422  z" fill="none" stroke="rgb(217, 95, 2)" /><path d="M 92.7157 83.3569 L 91.9891 82.9636  L 91.4295 82.3557  L 91.0975 81.5991  L 91.0293 80.7756  L 91.2322 79.9746  L 91.6841 79.2829  L 92.3361 78.7754  L 93.1176 78.5071  L 93.9439 78.5071  L 94.7254 78.7754  L 95.3774 79.2829  L 95.8293 79.9746  L 96.0322 80.7756  L 95.9639 81.5991  L 95.632 82.3557  L 95.0724 82.9636  L 94.3457 83.3569  L 93.5307 83.4929  z" fill="none" stroke="rgb(217, 95, 2)" /><path d="M 45.9504 83.3569 L 45.2237 82.9636  L 44.6641 82.3557  L 44.3322 81.5991  L 44.2639 80.7756  L 44.4668 79.9746  L 44.9187 79.2829  L 45.5707 78.7754  L 46.3522 78.5071  L 47.1785 78.5071  L 47.96 78.7754  L 48.612 79.2829  L 49.064 79.9746  L 49.2668 80.7756  L 49.1986 81.5991  L 48.8667 82.3557  L 48.307 82.9636  L 47.5804 83.3569  L 46.7654 83.4929  z" fill="none" stroke="rgb(217, 95, 2)" /><path d="M -0.814996 83.3569 L -1.54167 82.9636  L -2.10129 82.3557  L -2.43319 81.5991  L -2.50143 80.7756  L -2.29859 79.9746  L -1.84667 79.2829  L -1.19463 78.7754  L -0.413132 78.5071  L 0.413132 78.5071  L 1.19463 78.7754  L 1.84667 79.2829  L 2.29859 79.9746  L 2.50143 80.7756  L 2.43319 81.5991  L 2.10129 82.3557  L 1.54167 82.9636  L 0.814996 83.3569  L -0 83.4929  z" fill="none" stroke="rgb(217, 95, 2)" /><path d="M -47.5804 83.3569 L -48.307 82.9636  L -48.8667 82.3557  L -49.1986 81.5991  L -49.2668 80.7756  L -49.064 79.9746  L -48.612 79.2829  L -47.96 78.7754  L -47.1785 78.5071  L -46.3522 78.5071  L -45.5707 78.7754  L -44.9187 79.2829  L -44.4668 79.9746  L -44.2639 80.7756  L -44.3322 81.5991  L -44.6641 82.3557  L -45.2237 82.9636  L -45.9504 83.3569  L -46.7654 83.4929  z" fill="none" stroke="rgb(217, 95, 2)" /><path d="M -94.3457 83.3569 L -95.0724 82.9636  L -95.632 82.3557  L -95.9639 81.5991  L -96.0322 80.7756  L -95.8293 79.9746  L -95.3774 79.2829  L -94.7254 78.7754  L -93.9439 78.5071  L -93.1176 78.5071  L -92.3361 78.7754  L -91.6841 79.2829  L -91.2322 79.9746  L -91.0293 80.7756  L -91.0975 81.5991  L -91.4295 82.3557  L -91.9891 82.9636  L -92.7157 83.3569  L -93.5307 83.4929  z" fill="none" stroke="rgb(217, 95, 2)" /><path d="M 137.953 73.1996 L 143.537 63.5283  L 146.135 65.0283  L 140.551 74.6996  z" fill="none" stroke="rgb(217, 95, 2)" /><path d="M -146.135 65.0283 L -143.537 63.5283  L -137.953 73.1996  L -140.551 74.6996  z" fill="none" stroke="rgb(217, 95, 2)" /><path d="M 149.12 53.8571 L 154.704 44.1858  L 157.302 45.6858  L 151.718 55.3571  z" fill="none" stroke="rgb(217, 95, 2)" /><path d="M -157.302 45.6858 L -154.704 44.1858  L -149.12 53.8571  L -151.718 55.3571  z" fill="none" stroke="rgb(217, 95, 2)" /><path d="M 116.098 42.8569 L 115.372 42.4636  L 114.812 41.8557  L 114.48 41.0991  L 114.412 40.2756  L 114.615 39.4746  L 115.067 38.7829  L 115.719 38.2754  L 116.5 38.0071  L 117.327 38.0071  L 118.108 38.2754  L 118.76 38.7829  L 119.212 39.4746  L 119.415 40.2756  L 119.347 41.0991  L 119.015 41.8557  L 118.455 42.4636  L 117.728 42.8569  L 116.913 42.9929  z" fill="none" stroke="rgb(217, 95, 2)" /><path d="M 69.3331 42.8569 L 68.6064 42.4636  L 68.0468 41.8557  L 67.7149 41.0991  L 67.6466 40.2756  L 67.8495 39.4746  L 68.3014 38.7829  L 68.9534 38.2754  L 69.7349 38.0071  L 70.5612 38.0071  L 71.3427 38.2754  L 71.9947 38.7829  L 72.4466 39.4746  L 72.6495 40.2756  L 72.5813 41.0991  L 72.2493 41.8557  L 71.6897 42.4636  L 70.9631 42.8569  L 70.1481 42.9929  z" fill="none" stroke="rgb(217, 95, 2)" /><path d="M 22.5677 42.8569 L 21.841 42.4636  L 21.2814 41.8557  L 20.9495 41.0991  L 20.8813 40.2756  L 21.0841 39.4746  L 21.536 38.7829  L 22.1881 38.2754  L 22.9696 38.0071  L 23.7958 38.0071  L 24.5773 38.2754  L 25.2294 38.7829  L 25.6813 39.4746  L 25.8841 40.2756  L 25.8159 41.0991  L 25.484 41.8557  L 24.9244 42.4636  L 24.1977 42.8569  L 23.3827 42.9929  z" fill="none" stroke="rgb(217, 95, 2)" /><path d="M -24.1977 42.8569 L -24.9244 42.4636  L -25.484 41.8557  L -25.8159 41.0991  L -25.8841 40.2756  L -25.6813 39.4746  L -25.2294 38.7829  L -24.5773 38.2754  L -23.7958 38.0071  L -22.9696 38.0071  L -22.1881 38.2754  L -21.536 38.7829  L -21.0841 39.4746  L -20.8813 40.2756  L -20.9495 41.0991  L -21.2814 41.8557  L -21.841 42.4636  L -22.5677 42.8569  L -23.3827 42.9929  z" fill="none" stroke="rgb(217, 95, 2)" /><path d="M -70.9631 42.8569 L -71.6897 42.4636  L -72.2493 41.8557  L -72.5813 41.0991  L -72.6495 40.2756  L -72.4466 39.4746  L -71.9947 38.7829  L -71.3427 38.2754  L -70.5612 38.0071  L -69.7349 38.0071  L -68.9534 38.2754  L -68.3014 38.7829  L -67.8495 39.4746  L -67.6466 40.2756  L -67.7149 41.0991  L -68.0468 41.8557  L -68.6064 42.4636  L -69.3331 42.8569  L -70.1481 42.9929  z" fill="none" stroke="rgb(217, 95, 2)" /><path d="M -117.728 42.8569 L -118.455 42.4636  L -119.015 41.8557  L -119.347 41.0991  L -119.415 40.2756  L -119.212 39.4746  L -118.76 38.7829  L -118.108 38.2754  L -117.327 38.0071  L -116.5 38.0071  L -115.719 38.2754  L -115.067 38.7829  L -114.615 39.4746  L -114.412 40.2756  L -114.48 41.0991  L -114.812 41.8557  L -115.372 42.4636  L -116.098 42.8569  L -116.913 42.9929  z" fill="none" stroke="rgb(217, 95, 2)" /><path d="M 160.288 34.5145 L 165.871 24.8432  L 168.47 26.3432  L 162.886 36.0145  z" fill="none" stroke="rgb(217, 95, 2)" /><path d="M -168.47 26.3432 L -165.871 24.8432  L -160.288 34.5145  L -162.886 36.0145  z" fill="none" stroke="rgb(217, 95, 2)" /><path d="M 171.455 15.172 L 177.039 5.5007  L 179.637 7.0007  L 174.053 16.672  z" fill="none" stroke="rgb(217, 95, 2)" /><path d="M -179.637 7.0007 L -177.039 5.5007  L -171.455 15.172  L -174.053 16.672  z" fill="none" stroke="rgb(217, 95, 2)" /><path d="M 139.481 2.35688 L 138.754 1.96363  L 138.195 1.35572  L 137.863 0.599052  L 137.795 -0.224391  L 137.998 -1.02537  L 138.449 -1.71709  L 139.101 -2.2246  L 139.883 -2.49288  L 140.709 -2.49288  L 141.491 -2.2246  L 142.143 -1.71709  L 142.595 -1.02537  L 142.798 -0.224391  L 142.729 0.599052  L 142.397 1.35572  L 141.838 1.96363  L 141.111 2.35688  L 140.296 2.49288  z" fill="none" stroke="rgb(217, 95, 2)" /><path d="M 92.7157 2.35688 L 91.9891 1.96363  L 91.4295 1.35572  L 91.0975 0.599052  L 91.0293 -0.224391  L 91.2322 -1.02537  L 91.6841 -1.71709  L 92.3361 -2.2246  L 93.1176 -2.49288  L 93.9439 -2.49288  L 94.7254 -2.2246  L 95.3774 -1.71709  L 95.8293 -1.02537  L 96.0322 -0.224391  L 95.9639 0.599052  L 95.632 1.35572  L 95.0724 1.96363  L 94.3457 2.35688  L 93.5307 2.49288  z" fill="none" stroke="rgb(217, 95, 2)" /><path d="M 45.9504 2.35688 L 45.2237 1.96363  L 44.6641 1.35572  L 44.3322 0.599052  L 44.2639 -0.224391  L 44.4668 -1.02537  L 44.9187 -1.71709  L 45.5707 -2.2246  L 46.3522 -2.49288  L 47.1785 -2.49288  L 47.96 -2.2246  L 48.612 -1.71709  L 49.064 -1.02537  L 49.2668 -0.224391  L 49.1986 0.599052  L 48.8667 1.35572  L 48.307 1.96363  L 47.5804 2.35688  L 46.7654 2.49288  z" fill="none" stroke="rgb(217, 95, 2)" /><path d="M -0.814996 2.35688 L -1.54167 1.96363  L -2.10129 1.35572  L -2.43319 0.599052  L -2.50143 -0.224391  L -2.29859 -1.02537  L -1.84667 -1.71709  L -1.19463 -2.2246  L -0.413132 -2.49288  L 0.413132 -2.49288  L 1.19463 -2.2246  L 1.84667 -1.71709  L 2.29859 -1.02537  L 2.50143 -0.224391  L 2.43319 0.599052  L 2.10129 1.35572  L 1.54167 1.96363  L 0.814996 2.35688  L -0 2.49288  z" fill="none" stroke="rgb(217, 95, 2)" /><path d="M -47.5804 2.35688 L -48.307 1.96363  L -48.8667 1.35572  L -49.1986 0.599052  L -49.2668 -0.224391  L -49.064 -1.02537  L -48.612 -1.71709  L -47.96 -2.2246  L -47.1785 -2.49288  L -46.3522 -2.49288  L -45.5707 -2.2246  L -44.9187 -1.71709  L -44.4668 -1.02537  L -44.2639 -0.224391  L -44.3322 0.599052  L -44.6641 1.35572  L -45.2237 1.96363  L -45.9504 2.35688  L -46.7654 2.49288  z" fill="none" stroke="rgb(217, 95, 2)" /><path d="M -94.3457 2.35688 L -95.0724 1.96363  L -95.632 1.35572  L -95.9639 0.599052  L -96.0322 -0.224391  L -95.8293 -1.02537  L -95.3774 -1.71709  L -94.7254 -2.2246  L -93.9439 -2.49288  L -93.1176 -2.49288  L -92.3361 -2.2246  L -91.6841 -1.71709  L -91.2322 -1.02537  L -91.0293 -0.224391  L -91.0975 0.599052  L -91.4295 1.35572  L -91.9891 1.96363  L -92.7157 2.35688  L -93.5307 2.49288  z" fill="none" stroke="rgb(217, 95, 2)" /><path d="M -141.111 2.35688 L -141.838 1.96363  L -142.397 1.35572  L -142.729 0.599052  L -142.798 -0.224391  L -142.595 -1.02537  L -142.143 -1.71709  L -141.491 -2.2246  L -140.709 -2.49288  L -139.883 -2.49288  L -139.101 -2.2246  L -138.449 -1.71709  L -137.998 -1.02537  L -137.795 -0.224391  L -137.863 0.599052  L -138.195 1.35572  L -138.754 1.96363  L -139.481 2.35688  L -140.296 2.49288  z" fill="none" stroke="rgb(217, 95, 2)" /><path d="M 171.455 -15.172 L 174.053 -16.672  L 179.637 -7.0007  L 177.039 -5.5007  z" fill="none" stroke="rgb(217, 95, 2)" /><path d="M -179.637 -7.0007 L -174.053 -16.672  L -171.455 -15.172  L -177.039 -5.5007  z" fill="none" stroke="rgb(217, 95, 2)" /><path d="M 160.288 -34.5145 L 162.886 -36.0145  L 168.47 -26.3432  L 165.871 -24.8432  z" fill="none" stroke="rgb(217, 95, 2)" /><path d="M -168.47 -26.3432 L -162.886 -36.0145  L -160.288 -34.5145  L -165.871 -24.8432  z" fill="none" stroke="rgb(217, 95, 2)" /><path d="M 116.098 -38.1431 L 115.372 -38.5364  L 114.812 -39.1443  L 114.48 -39.9009  L 114.412 -40.7244  L 114.615 -41.5254  L 115.067 -42.2171  L 115.719 -42.7246  L 116.5 -42.9929  L 117.327 -42.9929  L 118.108 -42.7246  L 118.76 -42.2171  L 119.212 -41.5254  L 119.415 -40.7244  L 119.347 -39.9009  L 119.015 -39.1443  L 118.455 -38.5364  L 117.728 -38.1431  L 116.913 -38.0071  z" fill="none" stroke="rgb(217, 95, 2)" /><path d="M 69.3331 -38.1431 L 68.6064 -38.5364  L 68.0468 -39.1443  L 67.7149 -39.9009  L 67.6466 -40.7244  L 67.8495 -41.5254  L 68.3014 -42.2171  L 68.9534 -42.7246  L 69.7349 -42.9929  L 70.5612 -42.9929  L 71.3427 -42.7246  L 71.9947 -42.2171  L 72.4466 -41.5254  L 72.6495 -40.7244  L 72.5813 -39.9009  L 72.2493 -39.1443  L 71.6897 -38.5364  L 70.9631 -38.1431  L 70.1481 -38.0071  z" fill="none" stroke="rgb(217, 95, 2)" /><path d="M 22.5677 -38.1431 L 21.841 -38.5364  L 21.2814 -39.1443  L 20.9495 -39.9009  L 20.8813 -40.7244  L 21.0841 -41.5254  L 21.536 -42.2171  L 22.1881 -42.7246  L 22.9696 -42.9929  L 23.7958 -42.9929  L 24.5773 -42.7246  L 25.2294 -42.2171  L 25.6813 -41.5254  L 25.8841 -40.7244  L 25.8159 -39.9009  L 25.484 -39.1443  L 24.9244 -38.5364  L 24.1977 -38.1431  L 23.3827 -38.0071  z" fill="none" stroke="rgb(217, 95, 2)" /><path d="M -24.1977 -38.1431 L -24.9244 -38.5364  L -25.484 -39.1443  L -25.8159 -39.9009  L -25.8841 -40.7244  L -25.6813 -41.5254  L -25.2294 -42.2171  L -24.5773 -42.7246  L -23.7958 -42.9929  L -22.9696 -42.9929  L -22.1881 -42.7246  L -21.536 -42.2171  L -21.0841 -41.5254  L -20.8813 -40.7244  L -20.9495 -39.9009  L -21.2814 -39.1443  L -21.841 -38.5364  L -22.5677 -38.1431  L -23.3827 -38.0071  z" fill="none" stroke="rgb(217, 95, 2)" /><path d="M -70.9631 -38.1431 L -71.6897 -38.5364  L -72.2493 -39.1443  L -72.5813 -39.9009  L -72.6495 -40.7244  L -72.4466 -41.5254  L -71.9947 -42.2171  L -71.3427 -42.7246  L -70.5612 -42.9929  L -69.7349 -42.9929  L -68.9534 -42.7246  L -68.3014 -42.2171  L -67.8495 -41.5254  L -67.6466 -40.7244  L -67.7149 -39.9009  L -68.0468 -39.1443  L -68.6064 -38.5364  L -69.3331 -38.1431  L -70.1481 -38.0071  z" fill="none" stroke="rgb(217, 95, 2)" /><path d="M -117.728 -38.1431 L -118.455 -38.5364  L -119.015 -39.1443  L -119.347 -39.9009  L -119.415 -40.7244  L -119.212 -41.5254  L -118.76 -42.2171  L -118.108 -42.7246  L -117.327 -42.9929  L -116.5 -42.9929  L -115.719 -42.7246  L -115.067 -42.2171  L -114.615 -41.5254  L -114.412 -40.7244  L -114.48 -39.9009  L -114.812 -39.1443  L -115.372 -38.5364  L -116.098 -38.1431  L -116.913 -38.0071  z" fill="none" stroke="rgb(217, 95, 2)" /><path d="M 149.12 -53.8571 L 151.718 -55.3571  L 157.302 -45.6858  L 154.704 -44.1858  z" fill="none" stroke="rgb(217, 95, 2)" /><path d="M -157.302 -45.6858 L -151.718 -55.3571  L -149.12 -53.8571  L -154.704 -44.1858  z" fill="none" stroke="rgb(217, 95, 2)" /><path d="M 137.953 -73.1996 L 140.551 -74.6996  L 146.135 -65.0283  L 143.537 -63.5283  z" fill="none" stroke="rgb(217, 95, 2)" /><path d="M -146.135 -65.0283 L -140.551 -74.6996  L -137.953 -73.1996  L -143.537 -63.5283  z" fill="none" stroke="rgb(217, 95, 2)" /><path d="M 92.7157 -78.6431 L 91.9891 -79.0364  L 91.4295 -79.6443  L 91.0975 -80.4009  L 91.0293 -81.2244  L 91.2322 -82.0254  L 91.6841 -82.7171  L 92.3361 -83.2246  L 93.1176 -83.4929  L 93.9439 -83.4929  L 94.7254 -83.2246  L 95.3774 -82.7171  L 95.8293 -82.0254  L 96.0322 -81.2244  L 95.9639 -80.4009  L 95.632 -79.6443  L 95.0724 -79.0364  L 94.3457 -78.6431  L 93.5307 -78.5071  z" fill="none" stroke="rgb(217, 95, 2)" /><path d="M 45.9504 -78.6431 L 45.2237 -79.0364  L 44.6641 -79.6443  L 44.3322 -80.4009  L 44.2639 -81.2244  L 44.4668 -82.0254  L 44.9187 -82.7171  L 45.5707 -83.2246  L 46.3522 -83.4929  L 47.1785 -83.4929  L 47.96 -83.2246  L 48.612 -82.7171  L 49.064 -82.0254  L 49.2668 -81.2244  L 49.1986 -80.4009  L 48.8667 -79.6443  L 48.307 -79.0364  L 47.5804 -78.6431  L 46.7654 -78.5071  z" fill="none" stroke="rgb(217, 95, 2)" /><path d="M -0.814996 -78.6431 L -1.54167 -79.0364  L -2.10129 -79.6443  L -2.43319 -80.4009  L -2.50143 -81.2244  L -2.29859 -82.0254  L -1.84667 -82.7171  L -1.19463 -83.2246  L -0.413132 -83.4929  L 0.413132 -83.4929  L 1.19463 -83.2246  L 1.84667 -82.7171  L 2.29859 -82.0254  L 2.50143 -81.2244  L 2.43319 -80.4009  L 2.10129 -79.6443  L 1.54167 -79.0364  L 0.814996 -78.6431  L -0 -78.5071  z" fill="none" stroke="rgb(217, 95, 2)" /><path d="M -47.5804 -78.6431 L -48.307 -79.0364  L -48.8667 -79.6443  L -49.1986 -80.4009  L -49.2668 -81.2244  L -49.064 -82.0254  L -48.612 -82.7171  L -47.96 -83.2246  L -47.1785 -83.4929  L -46.3522 -83.4929  L -45.5707 -83.2246  L -44.9187 -82.7171  L -44.4668 -82.0254  L -44.2639 -81.2244  L -44.3322 -80.4009  L -44.6641 -79.6443  L -45.2237 -79.0364  L -45.9504 -78.6431  L -46.7654 -78.5071  z" fill="none" stroke="rgb(217, 95, 2)" /><path d="M -94.3457 -78.6431 L -95.0724 -79.0364  L -95.632 -79.6443  L -95.9639 -80.4009  L -96.0322 -81.2244  L -95.8293 -82.0254  L -95.3774 -82.7171  L -94.7254 -83.2246  L -93.9439 -83.4929  L -93.1176 -83.4929  L -92.3361 -83.2246  L -91.6841 -82.7171  L -91.2322 -82.0254  L -91.0293 -81.2244  L -91.0975 -80.4009  L -91.4295 -79.6443  L -91.9891 -79.0364  L -92.7157 -78.6431  L -93.5307 -78.5071  z" fill="none" stroke="rgb(217, 95, 2)" /><path d="M 126.785 -92.5422 L 129.384 -94.0422  L 134.967 -84.3709  L 132.369 -82.8709  z" fill="none" stroke="rgb(217, 95, 2)" /><path d="M -134.967 -84.3709 L -129.384 -94.0422  L -126.785 -92.5422  L -132.369 -82.8709  z" fill="none" stroke="rgb(217, 95, 2)" /><path d="M 115.618 -111.885 L 118.216 -113.385  L 123.8 -103.713  L 121.202 -102.213  z" fill="none" stroke="rgb(217, 95, 2)" /><path d="M -123.8 -103.713 L -118.216 -113.385  L -115.618 -111.885  L -121.202 -102.213  z" fill="none" stroke="rgb(217, 95, 2)" /><path d="M 69.3331 -119.143 L 68.6064 -119.536  L 68.0468 -120.144  L 67.7149 -120.901  L 67.6466 -121.724  L 67.8495 -122.525  L 68.3014 -123.217  L 68.9534 -123.725  L 69.7349 -123.993  L 70.5612 -123.993  L 71.3427 -123.725  L 71.9947 -123.217  L 72.4466 -122.525  L 72.6495 -121.724  L 72.5813 -120.901  L 72.2493 -120.144  L 71.6897 -119.536  L 70.9631 -119.143  L 70.1481 -119.007  z" fill="none" stroke="rgb(217, 95, 2)" /><path d="M 22.5677 -119.143 L 21.841 -119.536  L 21.2814 -120.144  L 20.9495 -120.901  L 20.8813 -121.724  L 21.0841 -122.525  L 21.536 -123.217  L 22.1881 -123.725  L 22.9696 -123.993  L 23.7958 -123.993  L 24.5773 -123.725  L 25.2294 -123.217  L 25.6813 -122.525  L 25.8841 -121.724  L 25.8159 -120.901  L 25.484 -120.144  L 24.9244 -119.536  L 24.1977 -119.143  L 23.3827 -119.007  z" fill="none" stroke="rgb(217, 95, 2)" /><path d="M -24.1977 -119.143 L -24.9244 -119.536  L -25.484 -120.144  L -25.8159 -120.901  L -25.8841 -121.724  L -25.6813 -122.525  L -25.2294 -123.217  L -24.5773 -123.725  L -23.7958 -123.993  L -22.9696 -123.993  L -22.1881 -123.725  L -21.536 -123.217  L -21.0841 -122.525  L -20.8813 -121.724  L -20.9495 -120.901  L -21.2814 -120.144  L -21.841 -119.536  L -22.5677 -119.143  L -23.3827 -119.007  z" fill="none" stroke="rgb(217, 95, 2)" /><path d="M -70.9631 -119.143 L -71.6897 -119.536  L -72.2493 -120.144  L -72.5813 -120.901  L -72.6495 -121.724  L -72.4466 -122.525  L -71.9947 -123.217  L -71.3427 -123.725  L -70.5612 -123.993  L -69.7349 -123.993  L -68.9534 -123.725  L -68.3014 -123.217  L -67.8495 -122.525  L -67.6466 -121.724  L -67.7149 -120.901  L -68.0468 -120.144  L -68.6064 -119.536  L -69.3331 -119.143  L -70.1481 -119.007  z" fill="none" stroke="rgb(217, 95, 2)" /><path d="M 104.451 -131.227 L 107.049 -132.727  L 112.632 -123.056  L 110.034 -121.556  z" fill="none" stroke="rgb(217, 95, 2)" /><path d="M -112.632 -123.056 L -107.049 -132.727  L -104.451 -131.227  L -110.034 -121.556  z" fill="none" stroke="rgb(217, 95, 2)" /><path d="M 93.2832 -150.57 L 95.8813 -152.07  L 101.465 -142.399  L 98.8669 -140.899  z" fill="none" stroke="rgb(217, 95, 2)" /><path d="M -101.465 -142.399 L -95.8813 -152.07  L -93.2832 -150.57  L -98.8669 -140.899  z" fill="none" stroke="rgb(217, 95, 2)" /><path d="M 5.58371 -156.071 L 5.58371 -159.071  L 16.7511 -159.071  L 16.7511 -156.071  z" fill="none" stroke="rgb(217, 95, 2)" /><path d="M -16.7511 -156.071 L -16.7511 -159.071  L -5.58371 -159.071  L -5.58371 -156.071  z" fill="none" stroke="rgb(217, 95, 2)" /><path d="M 27.9186 -156.071 L 27.9186 -159.071  L 39.086 -159.071  L 39.086 -156.071  z" fill="none" stroke="rgb(217, 95, 2)" /><path d="M -39.086 -156.071 L -39.086 -159.071  L -27.9186 -159.071  L -27.9186 -156.071  z" fill="none" stroke="rgb(217, 95, 2)" /><path d="M 50.2534 -159.071 L 61.4208 -159.071  L 61.4208 -156.071  L 50.2534 -156.071  z" fill="none" stroke="rgb(217, 95, 2)" /><path d="M -61.4208 -156.071 L -61.4208 -159.071  L -50.2534 -159.071  L -50.2534 -156.071  z" fill="none" stroke="rgb(217, 95, 2)" /><path d="M 72.5883 -159.071 L 83.7557 -159.071  L 83.7557 -156.071  L 72.5883 -156.071  z" fill="none" stroke="rgb(217, 95, 2)" /><path d="M -83.7557 -156.071 L -83.7557 -159.071  L -72.5883 -159.071  L -72.5883 -156.071  z" fill="none" stroke="rgb(217, 95, 2)" /><path d="M 97.2262 -168.401 L -97.2262 -168.401  L -194.452 -5.68434e-14  L -97.2262 168.401  L 97.2262 168.401  L 194.452 5.68434e-14  z" fill="none" stroke="rgb(27, 158, 119)" /></g></svg>