<?xml version="1.0" encoding="utf-8" ?>
<svg baseProfile="full" height="346.801270189222mm" version="1.1" viewBox="-199.45230400715516,-173.400635094611,398.90460801431027,346.801270189222" width="398.90460801431027mm" xmlns="http://www.w3.org/2000/svg" xmlns:ev="http://www.w3.org/2001/xml-events" xmlns:xlink="http://www.w3.org/1999/xlink"><defs /><g><path d="M 73.6277 141.027 L 76.6588 139.277  L 78.1588 141.875  L 75.1277 143.625  z" fill="none" stroke="rgb(217, 95, 2)" /><path d="M 62.1373 141.875 L 63.6373 139.277  L 66.6684 141.027  L 65.1684 143.625  z" fill="none" stroke="rgb(217, 95, 2)" /><path d="M 26.8623 141.027 L 29.8934 139.277  L 31.3934 141.875  L 28.3623 143.625  z" fill="none" stroke="rgb(217, 95, 2)" /><path d="M 15.372 141.875 L 16.872 139.277  L 19.903 141.027  L 18.403 143.625  z" fill="none" stroke="rgb(217, 95, 2)" /><path d="M -19.903 141.027 L -16.872 139.277  L -15.372 141.875  L -18.403 143.625  z" fill="none" stroke="rgb(217, 95, 2)" /><path d="M -31.3934 141.875 L -29.8934 139.277  L -26.8623 141.027  L -28.3623 143.625  z" fill="none" stroke="rgb(217, 95, 2)" /><path d="M -66.6684 141.027 L -63.6373 139.277  L -62.1373 141.875  L -65.1684 143.625  z" fill="none" stroke="rgb(217, 95, 2)" /><path d="M -78.1588 141.875 L -76.6588 139.277  L -73.6277 141.027  L -75.1277 143.625  z" fill="none" stroke="rgb(217, 95, 2)" /><path d="M 82.288 136.027 L 85.319 134.277  L 86.819 136.875  L 83.788 138.625  z" fill="none" stroke="rgb(217, 95, 2)" /><path d="M 53.4771 136.875 L 54.9771 134.277  L 58.0082 136.027  L 56.5082 138.625  z" fill="none" stroke="rgb(217, 95, 2)" /><path d="M 35.5226 136.027 L 38.5537 134.277  L 40.0537 136.875  L 37.0226 138.625  z" fill="none" stroke="rgb(217, 95, 2)" /><path d="M 6.7117 136.875 L 8.2117 134.277  L 11.2428 136.027  L 9.74279 138.625  z" fill="none" stroke="rgb(217, 95, 2)" /><path d="M -11.2428 136.027 L -8.2117 134.277  L -6.7117 136.875  L -9.74279 138.625  z" fill="none" stroke="rgb(217, 95, 2)" /><path d="M -40.0537 136.875 L -38.5537 134.277  L -35.5226 136.027  L -37.0226 138.625  z" fill="none" stroke="rgb(217, 95, 2)" /><path d="M -58.0082 136.027 L -54.9771 134.277  L -53.4771 136.875  L -56.5082 138.625  z" fill="none" stroke="rgb(217, 95, 2)" /><path d="M -86.819 136.875 L -85.319 134.277  L -82.288 136.027  L -83.788 138.625  z" fill="none" stroke="rgb(217, 95, 2)" /><path d="M 88.7987 128.25 L 88.7987 124.75  L 91.7987 124.75  L 91.7987 128.25  z" fill="none" stroke="rgb(217, 95, 2)" /><path d="M 42.0333 128.25 L 42.0333 124.75  L 45.0333 124.75  L 45.0333 128.25  z" fill="none" stroke="rgb(217, 95, 2)" /><path d="M -4.73205 128.25 L -4.73205 124.75  L -1.73205 124.75  L -1.73205 128.25  z" fill="none" stroke="rgb(217, 95, 2)" /><path d="M -51.4974 128.25 L -51.4974 124.75  L -48.4974 124.75  L -48.4974 128.25  z" fill="none" stroke="rgb(217, 95, 2)" /><path d="M 48.4974 128.25 L 48.4974 124.75  L 51.4974 124.75  L 51.4974 128.25  z" fill="none" stroke="rgb(217, 95, 2)" /><path d="M 1.73205 128.25 L 1.73205 124.75  L 4.73205 124.75  L 4.73205 128.25  z" fill="none" stroke="rgb(217, 95, 2)" /><path d="M -45.0333 128.25 L -45.0333 124.75  L -42.0333 124.75  L -42.0333 128.25  z" fill="none" stroke="rgb(217, 95, 2)" /><path d="M -91.7987 128.25 L -91.7987 124.75  L -88.7987 124.75  L -88.7987 128.25  z" fill="none" stroke="rgb(217, 95, 2)" /><path d="M 88.7987 118.25 L 88.7987 114.75  L 91.7987 114.75  L 91.7987 118.25  z" fill="none" stroke="rgb(217, 95, 2)" /><path d="M 42.0333 118.25 L 42.0333 114.75  L 45.0333 114.75  L 45.0333 118.25  z" fill="none" stroke="rgb(217, 95, 2)" /><path d="M -4.73205 118.25 L -4.73205 114.75  L -1.73205 114.75  L -1.73205 118.25  z" fill="none" stroke="rgb(217, 95, 2)" /><path d="M -51.4974 118.25 L -51.4974 114.75  L -48.4974 114.75  L -48.4974 118.25  z" fill="none" stroke="rgb(217, 95, 2)" /><path d="M 48.4974 118.25 L 48.4974 114.75  L 51.4974 114.75  L 51.4974 118.25  z" fill="none" stroke="rgb(217, 95, 2)" /><path d="M 1.73205 118.25 L 1.73205 114.75  L 4.73205 114.75  L 4.73205 118.25  z" fill="none" stroke="rgb(217, 95, 2)" /><path d="M -45.0333 118.25 L -45.0333 114.75  L -42.0333 114.75  L -42.0333 118.25  z" fill="none" stroke="rgb(217, 95, 2)" /><path d="M -91.7987 118.25 L -91.7987 114.75  L -88.7987 114.75  L -88.7987 118.25  z" fill="none" stroke="rgb(217, 95, 2)" /><path d="M 82.288 106.973 L 83.788 104.375  L 86.819 106.125  L 85.319 108.723  z" fill="none" stroke="rgb(217, 95, 2)" /><path d="M 35.5226 106.973 L 37.0226 104.375  L 40.0537 106.125  L 38.5537 108.723  z" fill="none" stroke="rgb(217, 95, 2)" /><path d="M -11.2428 106.973 L -9.74279 104.375  L -6.7117 106.125  L -8.2117 108.723  z" fill="none" stroke="rgb(217, 95, 2)" /><path d="M -58.0082 106.973 L -56.5082 104.375  L -53.4771 106.125  L -54.9771 108.723  z" fill="none" stroke="rgb(217, 95, 2)" /><path d="M 53.4771 106.125 L 56.5082 104.375  L 58.0082 106.973  L 54.9771 108.723  z" fill="none" stroke="rgb(217, 95, 2)" /><path d="M 6.7117 106.125 L 9.74279 104.375  L 11.2428 106.973  L 8.2117 108.723  z" fill="none" stroke="rgb(217, 95, 2)" /><path d="M -40.0537 106.125 L -37.0226 104.375  L -35.5226 106.973  L -38.5537 108.723  z" fill="none" stroke="rgb(217, 95, 2)" /><path d="M -86.819 106.125 L -83.788 104.375  L -82.288 106.973  L -85.319 108.723  z" fill="none" stroke="rgb(217, 95, 2)" /><path d="M 73.6277 101.973 L 75.1277 99.375  L 78.1588 101.125  L 76.6588 103.723  z" fill="none" stroke="rgb(217, 95, 2)" /><path d="M 62.1373 101.125 L 65.1684 99.375  L 66.6684 101.973  L 63.6373 103.723  z" fill="none" stroke="rgb(217, 95, 2)" /><path d="M 26.8623 101.973 L 28.3623 99.375  L 31.3934 101.125  L 29.8934 103.723  z" fill="none" stroke="rgb(217, 95, 2)" /><path d="M 15.372 101.125 L 18.403 99.375  L 19.903 101.973  L 16.872 103.723  z" fill="none" stroke="rgb(217, 95, 2)" /><path d="M -19.903 101.973 L -18.403 99.375  L -15.372 101.125  L -16.872 103.723  z" fill="none" stroke="rgb(217, 95, 2)" /><path d="M -31.3934 101.125 L -28.3623 99.375  L -26.8623 101.973  L -29.8934 103.723  z" fill="none" stroke="rgb(217, 95, 2)" /><path d="M -66.6684 101.973 L -65.1684 99.375  L -62.1373 101.125  L -63.6373 103.723  z" fill="none" stroke="rgb(217, 95, 2)" /><path d="M -78.1588 101.125 L -75.1277 99.375  L -73.6277 101.973  L -76.6588 103.723  z" fill="none" stroke="rgb(217, 95, 2)" /><path d="M 97.0104 100.527 L 100.041 98.7769  L 101.541 101.375  L 98.5104 103.125  z" fill="none" stroke="rgb(217, 95, 2)" /><path d="M 85.52 101.375 L 87.02 98.7769  L 90.0511 100.527  L 88.5511 103.125  z" fill="none" stroke="rgb(217, 95, 2)" /><path d="M 50.245 100.527 L 53.2761 98.7769  L 54.7761 101.375  L 51.745 103.125  z" fill="none" stroke="rgb(217, 95, 2)" /><path d="M 38.7546 101.375 L 40.2546 98.7769  L 43.2857 100.527  L 41.7857 103.125  z" fill="none" stroke="rgb(217, 95, 2)" /><path d="M 3.47965 100.527 L 6.51073 98.7769  L 8.01073 101.375  L 4.97965 103.125  z" fill="none" stroke="rgb(217, 95, 2)" /><path d="M -8.01073 101.375 L -6.51073 98.7769  L -3.47965 100.527  L -4.97965 103.125  z" fill="none" stroke="rgb(217, 95, 2)" /><path d="M -43.2857 100.527 L -40.2546 98.7769  L -38.7546 101.375  L -41.7857 103.125  z" fill="none" stroke="rgb(217, 95, 2)" /><path d="M -54.7761 101.375 L -53.2761 98.7769  L -50.245 100.527  L -51.745 103.125  z" fill="none" stroke="rgb(217, 95, 2)" /><path d="M -90.0511 100.527 L -87.02 98.7769  L -85.52 101.375  L -88.5511 103.125  z" fill="none" stroke="rgb(217, 95, 2)" /><path d="M -101.541 101.375 L -100.041 98.7769  L -97.0104 100.527  L -98.5104 103.125  z" fill="none" stroke="rgb(217, 95, 2)" /><path d="M 105.671 95.5269 L 108.702 93.7769  L 110.202 96.375  L 107.171 98.125  z" fill="none" stroke="rgb(217, 95, 2)" /><path d="M 76.8598 96.375 L 78.3598 93.7769  L 81.3908 95.5269  L 79.8908 98.125  z" fill="none" stroke="rgb(217, 95, 2)" /><path d="M 58.9053 95.5269 L 61.9364 93.7769  L 63.4364 96.375  L 60.4053 98.125  z" fill="none" stroke="rgb(217, 95, 2)" /><path d="M 30.0944 96.375 L 31.5944 93.7769  L 34.6255 95.5269  L 33.1255 98.125  z" fill="none" stroke="rgb(217, 95, 2)" /><path d="M 12.1399 95.5269 L 15.171 93.7769  L 16.671 96.375  L 13.6399 98.125  z" fill="none" stroke="rgb(217, 95, 2)" /><path d="M -16.671 96.375 L -15.171 93.7769  L -12.1399 95.5269  L -13.6399 98.125  z" fill="none" stroke="rgb(217, 95, 2)" /><path d="M -34.6255 95.5269 L -31.5944 93.7769  L -30.0944 96.375  L -33.1255 98.125  z" fill="none" stroke="rgb(217, 95, 2)" /><path d="M -63.4364 96.375 L -61.9364 93.7769  L -58.9053 95.5269  L -60.4053 98.125  z" fill="none" stroke="rgb(217, 95, 2)" /><path d="M -81.3908 95.5269 L -78.3598 93.7769  L -76.8598 96.375  L -79.8908 98.125  z" fill="none" stroke="rgb(217, 95, 2)" /><path d="M -110.202 96.375 L -108.702 93.7769  L -105.671 95.5269  L -107.171 98.125  z" fill="none" stroke="rgb(217, 95, 2)" /><path d="M 112.181 87.75 L 112.181 84.25  L 115.181 84.25  L 115.181 87.75  z" fill="none" stroke="rgb(217, 95, 2)" /><path d="M 65.416 87.75 L 65.416 84.25  L 68.416 84.25  L 68.416 87.75  z" fill="none" stroke="rgb(217, 95, 2)" /><path d="M 18.6506 87.75 L 18.6506 84.25  L 21.6506 84.25  L 21.6506 87.75  z" fill="none" stroke="rgb(217, 95, 2)" /><path d="M -28.1147 87.75 L -28.1147 84.25  L -25.1147 84.25  L -25.1147 87.75  z" fill="none" stroke="rgb(217, 95, 2)" /><path d="M -74.8801 87.75 L -74.8801 84.25  L -71.8801 84.25  L -71.8801 87.75  z" fill="none" stroke="rgb(217, 95, 2)" /><path d="M 71.8801 87.75 L 71.8801 84.25  L 74.8801 84.25  L 74.8801 87.75  z" fill="none" stroke="rgb(217, 95, 2)" /><path d="M 25.1147 87.75 L 25.1147 84.25  L 28.1147 84.25  L 28.1147 87.75  z" fill="none" stroke="rgb(217, 95, 2)" /><path d="M -21.6506 87.75 L -21.6506 84.25  L -18.6506 84.25  L -18.6506 87.75  z" fill="none" stroke="rgb(217, 95, 2)" /><path d="M -68.416 87.75 L -68.416 84.25  L -65.416 84.25  L -65.416 87.75  z" fill="none" stroke="rgb(217, 95, 2)" /><path d="M -115.181 87.75 L -115.181 84.25  L -112.181 84.25  L -112.181 87.75  z" fill="none" stroke="rgb(217, 95, 2)" /><path d="M 112.181 77.75 L 112.181 74.25  L 115.181 74.25  L 115.181 77.75  z" fill="none" stroke="rgb(217, 95, 2)" /><path d="M 65.416 77.75 L 65.416 74.25  L 68.416 74.25  L 68.416 77.75  z" fill="none" stroke="rgb(217, 95, 2)" /><path d="M 18.6506 77.75 L 18.6506 74.25  L 21.6506 74.25  L 21.6506 77.75  z" fill="none" stroke="rgb(217, 95, 2)" /><path d="M -28.1147 77.75 L -28.1147 74.25  L -25.1147 74.25  L -25.1147 77.75  z" fill="none" stroke="rgb(217, 95, 2)" /><path d="M -74.8801 77.75 L -74.8801 74.25  L -71.8801 74.25  L -71.8801 77.75  z" fill="none" stroke="rgb(217, 95, 2)" /><path d="M 71.8801 77.75 L 71.8801 74.25  L 74.8801 74.25  L 74.8801 77.75  z" fill="none" stroke="rgb(217, 95, 2)" /><path d="M 25.1147 77.75 L 25.1147 74.25  L 28.1147 74.25  L 28.1147 77.75  z" fill="none" stroke="rgb(217, 95, 2)" /><path d="M -21.6506 77.75 L -21.6506 74.25  L -18.6506 74.25  L -18.6506 77.75  z" fill="none" stroke="rgb(217, 95, 2)" /><path d="M -68.416 77.75 L -68.416 74.25  L -65.416 74.25  L -65.416 77.75  z" fill="none" stroke="rgb(217, 95, 2)" /><path d="M -115.181 77.75 L -115.181 74.25  L -112.181 74.25  L -112.181 77.75  z" fill="none" stroke="rgb(217, 95, 2)" /><path d="M 105.671 66.4731 L 107.171 63.875  L 110.202 65.625  L 108.702 68.2231  z" fill="none" stroke="rgb(217, 95, 2)" /><path d="M 58.9053 66.4731 L 60.4053 63.875  L 63.4364 65.625  L 61.9364 68.2231  z" fill="none" stroke="rgb(217, 95, 2)" /><path d="M 12.1399 66.4731 L 13.6399 63.875  L 16.671 65.625  L 15.171 68.2231  z" fill="none" stroke="rgb(217, 95, 2)" /><path d="M -34.6255 66.4731 L -33.1255 63.875  L -30.0944 65.625  L -31.5944 68.2231  z" fill="none" stroke="rgb(217, 95, 2)" /><path d="M -81.3908 66.4731 L -79.8908 63.875  L -76.8598 65.625  L -78.3598 68.2231  z" fill="none" stroke="rgb(217, 95, 2)" /><path d="M 76.8598 65.625 L 79.8908 63.875  L 81.3908 66.4731  L 78.3598 68.2231  z" fill="none" stroke="rgb(217, 95, 2)" /><path d="M 30.0944 65.625 L 33.1255 63.875  L 34.6255 66.4731  L 31.5944 68.2231  z" fill="none" stroke="rgb(217, 95, 2)" /><path d="M -16.671 65.625 L -13.6399 63.875  L -12.1399 66.4731  L -15.171 68.2231  z" fill="none" stroke="rgb(217, 95, 2)" /><path d="M -63.4364 65.625 L -60.4053 63.875  L -58.9053 66.4731  L -61.9364 68.2231  z" fill="none" stroke="rgb(217, 95, 2)" /><path d="M -110.202 65.625 L -107.171 63.875  L -105.671 66.4731  L -108.702 68.2231  z" fill="none" stroke="rgb(217, 95, 2)" /><path d="M 97.0104 61.4731 L 98.5104 58.875  L 101.541 60.625  L 100.041 63.2231  z" fill="none" stroke="rgb(217, 95, 2)" /><path d="M 50.245 61.4731 L 51.745 58.875  L 54.7761 60.625  L 53.2761 63.2231  z" fill="none" stroke="rgb(217, 95, 2)" /><path d="M 3.47965 61.4731 L 4.97965 58.875  L 8.01073 60.625  L 6.51073 63.2231  z" fill="none" stroke="rgb(217, 95, 2)" /><path d="M -43.2857 61.4731 L -41.7857 58.875  L -38.7546 60.625  L -40.2546 63.2231  z" fill="none" stroke="rgb(217, 95, 2)" /><path d="M -90.0511 61.4731 L -88.5511 58.875  L -85.52 60.625  L -87.02 63.2231  z" fill="none" stroke="rgb(217, 95, 2)" /><path d="M 85.52 60.625 L 88.5511 58.875  L 90.0511 61.4731  L 87.02 63.2231  z" fill="none" stroke="rgb(217, 95, 2)" /><path d="M 38.7546 60.625 L 41.7857 58.875  L 43.2857 61.4731  L 40.2546 63.2231  z" fill="none" stroke="rgb(217, 95, 2)" /><path d="M -8.01073 60.625 L -4.97965 58.875  L -3.47965 61.4731  L -6.51073 63.2231  z" fill="none" stroke="rgb(217, 95, 2)" /><path d="M -54.7761 60.625 L -51.745 58.875  L -50.245 61.4731  L -53.2761 63.2231  z" fill="none" stroke="rgb(217, 95, 2)" /><path d="M -101.541 60.625 L -98.5104 58.875  L -97.0104 61.4731  L -100.041 63.2231  z" fill="none" stroke="rgb(217, 95, 2)" /><path d="M 120.393 60.0269 L 123.424 58.2769  L 124.924 60.875  L 121.893 62.625  z" fill="none" stroke="rgb(217, 95, 2)" /><path d="M 108.903 60.875 L 110.403 58.2769  L 113.434 60.0269  L 111.934 62.625  z" fill="none" stroke="rgb(217, 95, 2)" /><path d="M 73.6277 60.0269 L 76.6588 58.2769  L 78.1588 60.875  L 75.1277 62.625  z" fill="none" stroke="rgb(217, 95, 2)" /><path d="M 62.1373 60.875 L 63.6373 58.2769  L 66.6684 60.0269  L 65.1684 62.625  z" fill="none" stroke="rgb(217, 95, 2)" /><path d="M 26.8623 60.0269 L 29.8934 58.2769  L 31.3934 60.875  L 28.3623 62.625  z" fill="none" stroke="rgb(217, 95, 2)" /><path d="M 15.372 60.875 L 16.872 58.2769  L 19.903 60.0269  L 18.403 62.625  z" fill="none" stroke="rgb(217, 95, 2)" /><path d="M -19.903 60.0269 L -16.872 58.2769  L -15.372 60.875  L -18.403 62.625  z" fill="none" stroke="rgb(217, 95, 2)" /><path d="M -31.3934 60.875 L -29.8934 58.2769  L -26.8623 60.0269  L -28.3623 62.625  z" fill="none" stroke="rgb(217, 95, 2)" /><path d="M -66.6684 60.0269 L -63.6373 58.2769  L -62.1373 60.875  L -65.1684 62.625  z" fill="none" stroke="rgb(217, 95, 2)" /><path d="M -78.1588 60.875 L -76.6588 58.2769  L -73.6277 60.0269  L -75.1277 62.625  z" fill="none" stroke="rgb(217, 95, 2)" /><path d="M -113.434 60.0269 L -110.403 58.2769  L -108.903 60.875  L -111.934 62.625  z" fill="none" stroke="rgb(217, 95, 2)" /><path d="M -124.924 60.875 L -123.424 58.2769  L -120.393 60.0269  L -121.893 62.625  z" fill="none" stroke="rgb(217, 95, 2)" /><path d="M 129.053 55.0269 L 132.084 53.2769  L 133.584 55.875  L 130.553 57.625  z" fill="none" stroke="rgb(217, 95, 2)" /><path d="M 82.288 55.0269 L 85.319 53.2769  L 86.819 55.875  L 83.788 57.625  z" fill="none" stroke="rgb(217, 95, 2)" /><path d="M 35.5226 55.0269 L 38.5537 53.2769  L 40.0537 55.875  L 37.0226 57.625  z" fill="none" stroke="rgb(217, 95, 2)" /><path d="M -11.2428 55.0269 L -8.2117 53.2769  L -6.7117 55.875  L -9.74279 57.625  z" fill="none" stroke="rgb(217, 95, 2)" /><path d="M -58.0082 55.0269 L -54.9771 53.2769  L -53.4771 55.875  L -56.5082 57.625  z" fill="none" stroke="rgb(217, 95, 2)" /><path d="M -104.774 55.0269 L -101.742 53.2769  L -100.242 55.875  L -103.274 57.625  z" fill="none" stroke="rgb(217, 95, 2)" /><path d="M 100.242 55.875 L 101.742 53.2769  L 104.774 55.0269  L 103.274 57.625  z" fill="none" stroke="rgb(217, 95, 2)" /><path d="M 53.4771 55.875 L 54.9771 53.2769  L 58.0082 55.0269  L 56.5082 57.625  z" fill="none" stroke="rgb(217, 95, 2)" /><path d="M 6.7117 55.875 L 8.2117 53.2769  L 11.2428 55.0269  L 9.74279 57.625  z" fill="none" stroke="rgb(217, 95, 2)" /><path d="M -40.0537 55.875 L -38.5537 53.2769  L -35.5226 55.0269  L -37.0226 57.625  z" fill="none" stroke="rgb(217, 95, 2)" /><path d="M -86.819 55.875 L -85.319 53.2769  L -82.288 55.0269  L -83.788 57.625  z" fill="none" stroke="rgb(217, 95, 2)" /><path d="M -133.584 55.875 L -132.084 53.2769  L -129.053 55.0269  L -130.553 57.625  z" fill="none" stroke="rgb(217, 95, 2)" /><path d="M 135.564 47.25 L 135.564 43.75  L 138.564 43.75  L 138.564 47.25  z" fill="none" stroke="rgb(217, 95, 2)" /><path d="M 88.7987 47.25 L 88.7987 43.75  L 91.7987 43.75  L 91.7987 47.25  z" fill="none" stroke="rgb(217, 95, 2)" /><path d="M 42.0333 47.25 L 42.0333 43.75  L 45.0333 43.75  L 45.0333 47.25  z" fill="none" stroke="rgb(217, 95, 2)" /><path d="M -4.73205 47.25 L -4.73205 43.75  L -1.73205 43.75  L -1.73205 47.25  z" fill="none" stroke="rgb(217, 95, 2)" /><path d="M -51.4974 47.25 L -51.4974 43.75  L -48.4974 43.75  L -48.4974 47.25  z" fill="none" stroke="rgb(217, 95, 2)" /><path d="M -98.2628 47.25 L -98.2628 43.75  L -95.2628 43.75  L -95.2628 47.25  z" fill="none" stroke="rgb(217, 95, 2)" /><path d="M 95.2628 47.25 L 95.2628 43.75  L 98.2628 43.75  L 98.2628 47.25  z" fill="none" stroke="rgb(217, 95, 2)" /><path d="M 48.4974 47.25 L 48.4974 43.75  L 51.4974 43.75  L 51.4974 47.25  z" fill="none" stroke="rgb(217, 95, 2)" /><path d="M 1.73205 47.25 L 1.73205 43.75  L 4.73205 43.75  L 4.73205 47.25  z" fill="none" stroke="rgb(217, 95, 2)" /><path d="M -45.0333 47.25 L -45.0333 43.75  L -42.0333 43.75  L -42.0333 47.25  z" fill="none" stroke="rgb(217, 95, 2)" /><path d="M -91.7987 47.25 L -91.7987 43.75  L -88.7987 43.75  L -88.7987 47.25  z" fill="none" stroke="rgb(217, 95, 2)" /><path d="M -138.564 47.25 L -138.564 43.75  L -135.564 43.75  L -135.564 47.25  z" fill="none" stroke="rgb(217, 95, 2)" /><path d="M 135.564 37.25 L 135.564 33.75  L 138.564 33.75  L 138.564 37.25  z" fill="none" stroke="rgb(217, 95, 2)" /><path d="M 88.7987 37.25 L 88.7987 33.75  L 91.7987 33.75  L 91.7987 37.25  z" fill="none" stroke="rgb(217, 95, 2)" /><path d="M 42.0333 37.25 L 42.0333 33.75  L 45.0333 33.75  L 45.0333 37.25  z" fill="none" stroke="rgb(217, 95, 2)" /><path d="M -4.73205 37.25 L -4.73205 33.75  L -1.73205 33.75  L -1.73205 37.25  z" fill="none" stroke="rgb(217, 95, 2)" /><path d="M -51.4974 37.25 L -51.4974 33.75  L -48.4974 33.75  L -48.4974 37.25  z" fill="none" stroke="rgb(217, 95, 2)" /><path d="M -98.2628 37.25 L -98.2628 33.75  L -95.2628 33.75  L -95.2628 37.25  z" fill="none" stroke="rgb(217, 95, 2)" /><path d="M 95.2628 37.25 L 95.2628 33.75  L 98.2628 33.75  L 98.2628 37.25  z" fill="none" stroke="rgb(217, 95, 2)" /><path d="M 48.4974 37.25 L 48.4974 33.75  L 51.4974 33.75  L 51.4974 37.25  z" fill="none" stroke="rgb(217, 95, 2)" /><path d="M 1.73205 37.25 L 1.73205 33.75  L 4.73205 33.75  L 4.73205 37.25  z" fill="none" stroke="rgb(217, 95, 2)" /><path d="M -45.0333 37.25 L -45.0333 33.75  L -42.0333 33.75  L -42.0333 37.25  z" fill="none" stroke="rgb(217, 95, 2)" /><path d="M -91.7987 37.25 L -91.7987 33.75  L -88.7987 33.75  L -88.7987 37.25  z" fill="none" stroke="rgb(217, 95, 2)" /><path d="M -138.564 37.25 L -138.564 33.75  L -135.564 33.75  L -135.564 37.25  z" fill="none" stroke="rgb(217, 95, 2)" /><path d="M 129.053 25.9731 L 130.553 23.375  L 133.584 25.125  L 132.084 27.7231  z" fill="none" stroke="rgb(217, 95, 2)" /><path d="M 82.288 25.9731 L 83.788 23.375  L 86.819 25.125  L 85.319 27.7231  z" fill="none" stroke="rgb(217, 95, 2)" /><path d="M 35.5226 25.9731 L 37.0226 23.375  L 40.0537 25.125  L 38.5537 27.7231  z" fill="none" stroke="rgb(217, 95, 2)" /><path d="M -11.2428 25.9731 L -9.74279 23.375  L -6.7117 25.125  L -8.2117 27.7231  z" fill="none" stroke="rgb(217, 95, 2)" /><path d="M -58.0082 25.9731 L -56.5082 23.375  L -53.4771 25.125  L -54.9771 27.7231  z" fill="none" stroke="rgb(217, 95, 2)" /><path d="M -104.774 25.9731 L -103.274 23.375  L -100.242 25.125  L -101.742 27.7231  z" fill="none" stroke="rgb(217, 95, 2)" /><path d="M 100.242 25.125 L 103.274 23.375  L 104.774 25.9731  L 101.742 27.7231  z" fill="none" stroke="rgb(217, 95, 2)" /><path d="M 53.4771 25.125 L 56.5082 23.375  L 58.0082 25.9731  L 54.9771 27.7231  z" fill="none" stroke="rgb(217, 95, 2)" /><path d="M 6.7117 25.125 L 9.74279 23.375  L 11.2428 25.9731  L 8.2117 27.7231  z" fill="none" stroke="rgb(217, 95, 2)" /><path d="M -40.0537 25.125 L -37.0226 23.375  L -35.5226 25.9731  L -38.5537 27.7231  z" fill="none" stroke="rgb(217, 95, 2)" /><path d="M -86.819 25.125 L -83.788 23.375  L -82.288 25.9731  L -85.319 27.7231  z" fill="none" stroke="rgb(217, 95, 2)" /><path d="M -133.584 25.125 L -130.553 23.375  L -129.053 25.9731  L -132.084 27.7231  z" fill="none" stroke="rgb(217, 95, 2)" /><path d="M 120.393 20.9731 L 121.893 18.375  L 124.924 20.125  L 123.424 22.7231  z" fill="none" stroke="rgb(217, 95, 2)" /><path d="M 73.6277 20.9731 L 75.1277 18.375  L 78.1588 20.125  L 76.6588 22.7231  z" fill="none" stroke="rgb(217, 95, 2)" /><path d="M 26.8623 20.9731 L 28.3623 18.375  L 31.3934 20.125  L 29.8934 22.7231  z" fill="none" stroke="rgb(217, 95, 2)" /><path d="M -19.903 20.9731 L -18.403 18.375  L -15.372 20.125  L -16.872 22.7231  z" fill="none" stroke="rgb(217, 95, 2)" /><path d="M -66.6684 20.9731 L -65.1684 18.375  L -62.1373 20.125  L -63.6373 22.7231  z" fill="none" stroke="rgb(217, 95, 2)" /><path d="M -113.434 20.9731 L -111.934 18.375  L -108.903 20.125  L -110.403 22.7231  z" fill="none" stroke="rgb(217, 95, 2)" /><path d="M 108.903 20.125 L 111.934 18.375  L 113.434 20.9731  L 110.403 22.7231  z" fill="none" stroke="rgb(217, 95, 2)" /><path d="M 62.1373 20.125 L 65.1684 18.375  L 66.6684 20.9731  L 63.6373 22.7231  z" fill="none" stroke="rgb(217, 95, 2)" /><path d="M 15.372 20.125 L 18.403 18.375  L 19.903 20.9731  L 16.872 22.7231  z" fill="none" stroke="rgb(217, 95, 2)" /><path d="M -31.3934 20.125 L -28.3623 18.375  L -26.8623 20.9731  L -29.8934 22.7231  z" fill="none" stroke="rgb(217, 95, 2)" /><path d="M -78.1588 20.125 L -75.1277 18.375  L -73.6277 20.9731  L -76.6588 22.7231  z" fill="none" stroke="rgb(217, 95, 2)" /><path d="M -124.924 20.125 L -121.893 18.375  L -120.393 20.9731  L -123.424 22.7231  z" fill="none" stroke="rgb(217, 95, 2)" /><path d="M 143.776 19.5269 L 146.807 17.7769  L 148.307 20.375  L 145.276 22.125  z" fill="none" stroke="rgb(217, 95, 2)" /><path d="M 97.0104 19.5269 L 100.041 17.7769  L 101.541 20.375  L 98.5104 22.125  z" fill="none" stroke="rgb(217, 95, 2)" /><path d="M 50.245 19.5269 L 53.2761 17.7769  L 54.7761 20.375  L 51.745 22.125  z" fill="none" stroke="rgb(217, 95, 2)" /><path d="M 3.47965 19.5269 L 6.51073 17.7769  L 8.01073 20.375  L 4.97965 22.125  z" fill="none" stroke="rgb(217, 95, 2)" /><path d="M -43.2857 19.5269 L -40.2546 17.7769  L -38.7546 20.375  L -41.7857 22.125  z" fill="none" stroke="rgb(217, 95, 2)" /><path d="M -90.0511 19.5269 L -87.02 17.7769  L -85.52 20.375  L -88.5511 22.125  z" fill="none" stroke="rgb(217, 95, 2)" /><path d="M -136.816 19.5269 L -133.785 17.7769  L -132.285 20.375  L -135.316 22.125  z" fill="none" stroke="rgb(217, 95, 2)" /><path d="M 132.285 20.375 L 133.785 17.7769  L 136.816 19.5269  L 135.316 22.125  z" fill="none" stroke="rgb(217, 95, 2)" /><path d="M 85.52 20.375 L 87.02 17.7769  L 90.0511 19.5269  L 88.5511 22.125  z" fill="none" stroke="rgb(217, 95, 2)" /><path d="M 38.7546 20.375 L 40.2546 17.7769  L 43.2857 19.5269  L 41.7857 22.125  z" fill="none" stroke="rgb(217, 95, 2)" /><path d="M -8.01073 20.375 L -6.51073 17.7769  L -3.47965 19.5269  L -4.97965 22.125  z" fill="none" stroke="rgb(217, 95, 2)" /><path d="M -54.7761 20.375 L -53.2761 17.7769  L -50.245 19.5269  L -51.745 22.125  z" fill="none" stroke="rgb(217, 95, 2)" /><path d="M -101.541 20.375 L -100.041 17.7769  L -97.0104 19.5269  L -98.5104 22.125  z" fill="none" stroke="rgb(217, 95, 2)" /><path d="M -148.307 20.375 L -146.807 17.7769  L -143.776 19.5269  L -145.276 22.125  z" fill="none" stroke="rgb(217, 95, 2)" /><path d="M 152.436 14.5269 L 155.467 12.7769  L 156.967 15.375  L 153.936 17.125  z" fill="none" stroke="rgb(217, 95, 2)" /><path d="M 105.671 14.5269 L 108.702 12.7769  L 110.202 15.375  L 107.171 17.125  z" fill="none" stroke="rgb(217, 95, 2)" /><path d="M 58.9053 14.5269 L 61.9364 12.7769  L 63.4364 15.375  L 60.4053 17.125  z" fill="none" stroke="rgb(217, 95, 2)" /><path d="M 12.1399 14.5269 L 15.171 12.7769  L 16.671 15.375  L 13.6399 17.125  z" fill="none" stroke="rgb(217, 95, 2)" /><path d="M -34.6255 14.5269 L -31.5944 12.7769  L -30.0944 15.375  L -33.1255 17.125  z" fill="none" stroke="rgb(217, 95, 2)" /><path d="M -81.3908 14.5269 L -78.3598 12.7769  L -76.8598 15.375  L -79.8908 17.125  z" fill="none" stroke="rgb(217, 95, 2)" /><path d="M -128.156 14.5269 L -125.125 12.7769  L -123.625 15.375  L -126.656 17.125  z" fill="none" stroke="rgb(217, 95, 2)" /><path d="M 123.625 15.375 L 125.125 12.7769  L 128.156 14.5269  L 126.656 17.125  z" fill="none" stroke="rgb(217, 95, 2)" /><path d="M 76.8598 15.375 L 78.3598 12.7769  L 81.3908 14.5269  L 79.8908 17.125  z" fill="none" stroke="rgb(217, 95, 2)" /><path d="M 30.0944 15.375 L 31.5944 12.7769  L 34.6255 14.5269  L 33.1255 17.125  z" fill="none" stroke="rgb(217, 95, 2)" /><path d="M -16.671 15.375 L -15.171 12.7769  L -12.1399 14.5269  L -13.6399 17.125  z" fill="none" stroke="rgb(217, 95, 2)" /><path d="M -63.4364 15.375 L -61.9364 12.7769  L -58.9053 14.5269  L -60.4053 17.125  z" fill="none" stroke="rgb(217, 95, 2)" /><path d="M -110.202 15.375 L -108.702 12.7769  L -105.671 14.5269  L -107.171 17.125  z" fill="none" stroke="rgb(217, 95, 2)" /><path d="M -156.967 15.375 L -155.467 12.7769  L -152.436 14.5269  L -153.936 17.125  z" fill="none" stroke="rgb(217, 95, 2)" /><path d="M 158.947 6.75 L 158.947 3.25  L 161.947 3.25  L 161.947 6.75  z" fill="none" stroke="rgb(217, 95, 2)" /><path d="M 112.181 6.75 L 112.181 3.25  L 115.181 3.25  L 115.181 6.75  z" fill="none" stroke="rgb(217, 95, 2)" /><path d="M 65.416 6.75 L 65.416 3.25  L 68.416 3.25  L 68.416 6.75  z" fill="none" stroke="rgb(217, 95, 2)" /><path d="M 18.6506 6.75 L 18.6506 3.25  L 21.6506 3.25  L 21.6506 6.75  z" fill="none" stroke="rgb(217, 95, 2)" /><path d="M -28.1147 6.75 L -28.1147 3.25  L -25.1147 3.25  L -25.1147 6.75  z" fill="none" stroke="rgb(217, 95, 2)" /><path d="M -74.8801 6.75 L -74.8801 3.25  L -71.8801 3.25  L -71.8801 6.75  z" fill="none" stroke="rgb(217, 95, 2)" /><path d="M -121.645 6.75 L -121.645 3.25  L -118.645 3.25  L -118.645 6.75  z" fill="none" stroke="rgb(217, 95, 2)" /><path d="M 118.645 6.75 L 118.645 3.25  L 121.645 3.25  L 121.645 6.75  z" fill="none" stroke="rgb(217, 95, 2)" /><path d="M 71.8801 6.75 L 71.8801 3.25  L 74.8801 3.25  L 74.8801 6.75  z" fill="none" stroke="rgb(217, 95, 2)" /><path d="M 25.1147 6.75 L 25.1147 3.25  L 28.1147 3.25  L 28.1147 6.75  z" fill="none" stroke="rgb(217, 95, 2)" /><path d="M -21.6506 6.75 L -21.6506 3.25  L -18.6506 3.25  L -18.6506 6.75  z" fill="none" stroke="rgb(217, 95, 2)" /><path d="M -68.416 6.75 L -68.416 3.25  L -65.416 3.25  L -65.416 6.75  z" fill="none" stroke="rgb(217, 95, 2)" /><path d="M -115.181 6.75 L -115.181 3.25  L -112.181 3.25  L -112.181 6.75  z" fill="none" stroke="rgb(217, 95, 2)" /><path d="M -161.947 6.75 L -161.947 3.25  L -158.947 3.25  L -158.947 6.75  z" fill="none" stroke="rgb(217, 95, 2)" /><path d="M 158.947 -3.25 L 158.947 -6.75  L 161.947 -6.75  L 161.947 -3.25  z" fill="none" stroke="rgb(217, 95, 2)" /><path d="M 112.181 -3.25 L 112.181 -6.75  L 115.181 -6.75  L 115.181 -3.25  z" fill="none" stroke="rgb(217, 95, 2)" /><path d="M 65.416 -3.25 L 65.416 -6.75  L 68.416 -6.75  L 68.416 -3.25  z" fill="none" stroke="rgb(217, 95, 2)" /><path d="M 18.6506 -3.25 L 18.6506 -6.75  L 21.6506 -6.75  L 21.6506 -3.25  z" fill="none" stroke="rgb(217, 95, 2)" /><path d="M -28.1147 -3.25 L -28.1147 -6.75  L -25.1147 -6.75  L -25.1147 -3.25  z" fill="none" stroke="rgb(217, 95, 2)" /><path d="M -74.8801 -3.25 L -74.8801 -6.75  L -71.8801 -6.75  L -71.8801 -3.25  z" fill="none" stroke="rgb(217, 95, 2)" /><path d="M -121.645 -3.25 L -121.645 -6.75  L -118.645 -6.75  L -118.645 -3.25  z" fill="none" stroke="rgb(217, 95, 2)" /><path d="M 118.645 -3.25 L 118.645 -6.75  L 121.645 -6.75  L 121.645 -3.25  z" fill="none" stroke="rgb(217, 95, 2)" /><path d="M 71.8801 -3.25 L 71.8801 -6.75  L 74.8801 -6.75  L 74.8801 -3.25  z" fill="none" stroke="rgb(217, 95, 2)" /><path d="M 25.1147 -3.25 L 25.1147 -6.75  L 28.1147 -6.75  L 28.1147 -3.25  z" fill="none" stroke="rgb(217, 95, 2)" /><path d="M -21.6506 -3.25 L -21.6506 -6.75  L -18.6506 -6.75  L -18.6506 -3.25  z" fill="none" stroke="rgb(217, 95, 2)" /><path d="M -68.416 -3.25 L -68.416 -6.75  L -65.416 -6.75  L -65.416 -3.25  z" fill="none" stroke="rgb(217, 95, 2)" /><path d="M -115.181 -3.25 L -115.181 -6.75  L -112.181 -6.75  L -112.181 -3.25  z" fill="none" stroke="rgb(217, 95, 2)" /><path d="M -161.947 -3.25 L -161.947 -6.75  L -158.947 -6.75  L -158.947 -3.25  z" fill="none" stroke="rgb(217, 95, 2)" /><path d="M 152.436 -14.5269 L 153.936 -17.125  L 156.967 -15.375  L 155.467 -12.7769  z" fill="none" stroke="rgb(217, 95, 2)" /><path d="M 105.671 -14.5269 L 107.171 -17.125  L 110.202 -15.375  L 108.702 -12.7769  z" fill="none" stroke="rgb(217, 95, 2)" /><path d="M 58.9053 -14.5269 L 60.4053 -17.125  L 63.4364 -15.375  L 61.9364 -12.7769  z" fill="none" stroke="rgb(217, 95, 2)" /><path d="M 12.1399 -14.5269 L 13.6399 -17.125  L 16.671 -15.375  L 15.171 -12.7769  z" fill="none" stroke="rgb(217, 95, 2)" /><path d="M -34.6255 -14.5269 L -33.1255 -17.125  L -30.0944 -15.375  L -31.5944 -12.7769  z" fill="none" stroke="rgb(217, 95, 2)" /><path d="M -81.3908 -14.5269 L -79.8908 -17.125  L -76.8598 -15.375  L -78.3598 -12.7769  z" fill="none" stroke="rgb(217, 95, 2)" /><path d="M -128.156 -14.5269 L -126.656 -17.125  L -123.625 -15.375  L -125.125 -12.7769  z" fill="none" stroke="rgb(217, 95, 2)" /><path d="M 123.625 -15.375 L 126.656 -17.125  L 128.156 -14.5269  L 125.125 -12.7769  z" fill="none" stroke="rgb(217, 95, 2)" /><path d="M 76.8598 -15.375 L 79.8908 -17.125  L 81.3908 -14.5269  L 78.3598 -12.7769  z" fill="none" stroke="rgb(217, 95, 2)" /><path d="M 30.0944 -15.375 L 33.1255 -17.125  L 34.6255 -14.5269  L 31.5944 -12.7769  z" fill="none" stroke="rgb(217, 95, 2)" /><path d="M -16.671 -15.375 L -13.6399 -17.125  L -12.1399 -14.5269  L -15.171 -12.7769  z" fill="none" stroke="rgb(217, 95, 2)" /><path d="M -63.4364 -15.375 L -60.4053 -17.125  L -58.9053 -14.5269  L -61.9364 -12.7769  z" fill="none" stroke="rgb(217, 95, 2)" /><path d="M -110.202 -15.375 L -107.171 -17.125  L -105.671 -14.5269  L -108.702 -12.7769  z" fill="none" stroke="rgb(217, 95, 2)" /><path d="M -156.967 -15.375 L -153.936 -17.125  L -152.436 -14.5269  L -155.467 -12.7769  z" fill="none" stroke="rgb(217, 95, 2)" /><path d="M 143.776 -19.5269 L 145.276 -22.125  L 148.307 -20.375  L 146.807 -17.7769  z" fill="none" stroke="rgb(217, 95, 2)" /><path d="M 97.0104 -19.5269 L 98.5104 -22.125  L 101.541 -20.375  L 100.041 -17.7769  z" fill="none" stroke="rgb(217, 95, 2)" /><path d="M 50.245 -19.5269 L 51.745 -22.125  L 54.7761 -20.375  L 53.2761 -17.7769  z" fill="none" stroke="rgb(217, 95, 2)" /><path d="M 3.47965 -19.5269 L 4.97965 -22.125  L 8.01073 -20.375  L 6.51073 -17.7769  z" fill="none" stroke="rgb(217, 95, 2)" /><path d="M -43.2857 -19.5269 L -41.7857 -22.125  L -38.7546 -20.375  L -40.2546 -17.7769  z" fill="none" stroke="rgb(217, 95, 2)" /><path d="M -90.0511 -19.5269 L -88.5511 -22.125  L -85.52 -20.375  L -87.02 -17.7769  z" fill="none" stroke="rgb(217, 95, 2)" /><path d="M -136.816 -19.5269 L -135.316 -22.125  L -132.285 -20.375  L -133.785 -17.7769  z" fill="none" stroke="rgb(217, 95, 2)" /><path d="M 132.285 -20.375 L 135.316 -22.125  L 136.816 -19.5269  L 133.785 -17.7769  z" fill="none" stroke="rgb(217, 95, 2)" /><path d="M 85.52 -20.375 L 88.5511 -22.125  L 90.0511 -19.5269  L 87.02 -17.7769  z" fill="none" stroke="rgb(217, 95, 2)" /><path d="M 38.7546 -20.375 L 41.7857 -22.125  L 43.2857 -19.5269  L 40.2546 -17.7769  z" fill="none" stroke="rgb(217, 95, 2)" /><path d="M -8.01073 -20.375 L -4.97965 -22.125  L -3.47965 -19.5269  L -6.51073 -17.7769  z" fill="none" stroke="rgb(217, 95, 2)" /><path d="M -54.7761 -20.375 L -51.745 -22.125  L -50.245 -19.5269  L -53.2761 -17.7769  z" fill="none" stroke="rgb(217, 95, 2)" /><path d="M -101.541 -20.375 L -98.5104 -22.125  L -97.0104 -19.5269  L -100.041 -17.7769  z" fill="none" stroke="rgb(217, 95, 2)" /><path d="M -148.307 -20.375 L -145.276 -22.125  L -143.776 -19.5269  L -146.807 -17.7769  z" fill="none" stroke="rgb(217, 95, 2)" /><path d="M 120.393 -20.9731 L 123.424 -22.7231  L 124.924 -20.125  L 121.893 -18.375  z" fill="none" stroke="rgb(217, 95, 2)" /><path d="M 73.6277 -20.9731 L 76.6588 -22.7231  L 78.1588 -20.125  L 75.1277 -18.375  z" fill="none" stroke="rgb(217, 95, 2)" /><path d="M 26.8623 -20.9731 L 29.8934 -22.7231  L 31.3934 -20.125  L 28.3623 -18.375  z" fill="none" stroke="rgb(217, 95, 2)" /><path d="M -19.903 -20.9731 L -16.872 -22.7231  L -15.372 -20.125  L -18.403 -18.375  z" fill="none" stroke="rgb(217, 95, 2)" /><path d="M -66.6684 -20.9731 L -63.6373 -22.7231  L -62.1373 -20.125  L -65.1684 -18.375  z" fill="none" stroke="rgb(217, 95, 2)" /><path d="M -113.434 -20.9731 L -110.403 -22.7231  L -108.903 -20.125  L -111.934 -18.375  z" fill="none" stroke="rgb(217, 95, 2)" /><path d="M 108.903 -20.125 L 110.403 -22.7231  L 113.434 -20.9731  L 111.934 -18.375  z" fill="none" stroke="rgb(217, 95, 2)" /><path d="M 62.1373 -20.125 L 63.6373 -22.7231  L 66.6684 -20.9731  L 65.1684 -18.375  z" fill="none" stroke="rgb(217, 95, 2)" /><path d="M 15.372 -20.125 L 16.872 -22.7231  L 19.903 -20.9731  L 18.403 -18.375  z" fill="none" stroke="rgb(217, 95, 2)" /><path d="M -31.3934 -20.125 L -29.8934 -22.7231  L -26.8623 -20.9731  L -28.3623 -18.375  z" fill="none" stroke="rgb(217, 95, 2)" /><path d="M -78.1588 -20.125 L -76.6588 -22.7231  L -73.6277 -20.9731  L -75.1277 -18.375  z" fill="none" stroke="rgb(217, 95, 2)" /><path d="M -124.924 -20.125 L -123.424 -22.7231  L -120.393 -20.9731  L -121.893 -18.375  z" fill="none" stroke="rgb(217, 95, 2)" /><path d="M 129.053 -25.9731 L 132.084 -27.7231  L 133.584 -25.125  L 130.553 -23.375  z" fill="none" stroke="rgb(217, 95, 2)" /><path d="M 82.288 -25.9731 L 85.319 -27.7231  L 86.819 -25.125  L 83.788 -23.375  z" fill="none" stroke="rgb(217, 95, 2)" /><path d="M 35.5226 -25.9731 L 38.5537 -27.7231  L 40.0537 -25.125  L 37.0226 -23.375  z" fill="none" stroke="rgb(217, 95, 2)" /><path d="M -11.2428 -25.9731 L -8.2117 -27.7231  L -6.7117 -25.125  L -9.74279 -23.375  z" fill="none" stroke="rgb(217, 95, 2)" /><path d="M -58.0082 -25.9731 L -54.9771 -27.7231  L -53.4771 -25.125  L -56.5082 -23.375  z" fill="none" stroke="rgb(217, 95, 2)" /><path d="M -104.774 -25.9731 L -101.742 -27.7231  L -100.242 -25.125  L -103.274 -23.375  z" fill="none" stroke="rgb(217, 95, 2)" /><path d="M 100.242 -25.125 L 101.742 -27.7231  L 104.774 -25.9731  L 103.274 -23.375  z" fill="none" stroke="rgb(217, 95, 2)" /><path d="M 53.4771 -25.125 L 54.9771 -27.7231  L 58.0082 -25.9731  L 56.5082 -23.375  z" fill="none" stroke="rgb(217, 95, 2)" /><path d="M 6.7117 -25.125 L 8.2117 -27.7231  L 11.2428 -25.9731  L 9.74279 -23.375  z" fill="none" stroke="rgb(217, 95, 2)" /><path d="M -40.0537 -25.125 L -38.5537 -27.7231  L -35.5226 -25.9731  L -37.0226 -23.375  z" fill="none" stroke="rgb(217, 95, 2)" /><path d="M -86.819 -25.125 L -85.319 -27.7231  L -82.288 -25.9731  L -83.788 -23.375  z" fill="none" stroke="rgb(217, 95, 2)" /><path d="M -133.584 -25.125 L -132.084 -27.7231  L -129.053 -25.9731  L -130.553 -23.375  z" fill="none" stroke="rgb(217, 95, 2)" /><path d="M 135.564 -33.75 L 135.564 -37.25  L 138.564 -37.25  L 138.564 -33.75  z" fill="none" stroke="rgb(217, 95, 2)" /><path d="M 88.7987 -33.75 L 88.7987 -37.25  L 91.7987 -37.25  L 91.7987 -33.75  z" fill="none" stroke="rgb(217, 95, 2)" /><path d="M 42.0333 -33.75 L 42.0333 -37.25  L 45.0333 -37.25  L 45.0333 -33.75  z" fill="none" stroke="rgb(217, 95, 2)" /><path d="M -4.73205 -33.75 L -4.73205 -37.25  L -1.73205 -37.25  L -1.73205 -33.75  z" fill="none" stroke="rgb(217, 95, 2)" /><path d="M -51.4974 -33.75 L -51.4974 -37.25  L -48.4974 -37.25  L -48.4974 -33.75  z" fill="none" stroke="rgb(217, 95, 2)" /><path d="M -98.2628 -33.75 L -98.2628 -37.25  L -95.2628 -37.25  L -95.2628 -33.75  z" fill="none" stroke="rgb(217, 95, 2)" /><path d="M 95.2628 -33.75 L 95.2628 -37.25  L 98.2628 -37.25  L 98.2628 -33.75  z" fill="none" stroke="rgb(217, 95, 2)" /><path d="M 48.4974 -33.75 L 48.4974 -37.25  L 51.4974 -37.25  L 51.4974 -33.75  z" fill="none" stroke="rgb(217, 95, 2)" /><path d="M 1.73205 -33.75 L 1.73205 -37.25  L 4.73205 -37.25  L 4.73205 -33.75  z" fill="none" stroke="rgb(217, 95, 2)" /><path d="M -45.0333 -33.75 L -45.0333 -37.25  L -42.0333 -37.25  L -42.0333 -33.75  z" fill="none" stroke="rgb(217, 95, 2)" /><path d="M -91.7987 -33.75 L -91.7987 -37.25  L -88.7987 -37.25  L -88.7987 -33.75  z" fill="none" stroke="rgb(217, 95, 2)" /><path d="M -138.564 -33.75 L -138.564 -37.25  L -135.564 -37.25  L -135.564 -33.75  z" fill="none" stroke="rgb(217, 95, 2)" /><path d="M 135.564 -43.75 L 135.564 -47.25  L 138.564 -47.25  L 138.564 -43.75  z" fill="none" stroke="rgb(217, 95, 2)" /><path d="M 88.7987 -43.75 L 88.7987 -47.25  L 91.7987 -47.25  L 91.7987 -43.75  z" fill="none" stroke="rgb(217, 95, 2)" /><path d="M 42.0333 -43.75 L 42.0333 -47.25  L 45.0333 -47.25  L 45.0333 -43.75  z" fill="none" stroke="rgb(217, 95, 2)" /><path d="M -4.73205 -43.75 L -4.73205 -47.25  L -1.73205 -47.25  L -1.73205 -43.75  z" fill="none" stroke="rgb(217, 95, 2)" /><path d="M -51.4974 -43.75 L -51.4974 -47.25  L -48.4974 -47.25  L -48.4974 -43.75  z" fill="none" stroke="rgb(217, 95, 2)" /><path d="M -98.2628 -43.75 L -98.2628 -47.25  L -95.2628 -47.25  L -95.2628 -43.75  z" fill="none" stroke="rgb(217, 95, 2)" /><path d="M 95.2628 -43.75 L 95.2628 -47.25  L 98.2628 -47.25  L 98.2628 -43.75  z" fill="none" stroke="rgb(217, 95, 2)" /><path d="M 48.4974 -43.75 L 48.4974 -47.25  L 51.4974 -47.25  L 51.4974 -43.75  z" fill="none" stroke="rgb(217, 95, 2)" /><path d="M 1.73205 -43.75 L 1.73205 -47.25  L 4.73205 -47.25  L 4.73205 -43.75  z" fill="none" stroke="rgb(217, 95, 2)" /><path d="M -45.0333 -43.75 L -45.0333 -47.25  L -42.0333 -47.25  L -42.0333 -43.75  z" fill="none" stroke="rgb(217, 95, 2)" /><path d="M -91.7987 -43.75 L -91.7987 -47.25  L -88.7987 -47.25  L -88.7987 -43.75  z" fill="none" stroke="rgb(217, 95, 2)" /><path d="M -138.564 -43.75 L -138.564 -47.25  L -135.564 -47.25  L -135.564 -43.75  z" fill="none" stroke="rgb(217, 95, 2)" /><path d="M 129.053 -55.0269 L 130.553 -57.625  L 133.584 -55.875  L 132.084 -53.2769  z" fill="none" stroke="rgb(217, 95, 2)" /><path d="M 82.288 -55.0269 L 83.788 -57.625  L 86.819 -55.875  L 85.319 -53.2769  z" fill="none" stroke="rgb(217, 95, 2)" /><path d="M 35.5226 -55.0269 L 37.0226 -57.625  L 40.0537 -55.875  L 38.5537 -53.2769  z" fill="none" stroke="rgb(217, 95, 2)" /><path d="M -11.2428 -55.0269 L -9.74279 -57.625  L -6.7117 -55.875  L -8.2117 -53.2769  z" fill="none" stroke="rgb(217, 95, 2)" /><path d="M -58.0082 -55.0269 L -56.5082 -57.625  L -53.4771 -55.875  L -54.9771 -53.2769  z" fill="none" stroke="rgb(217, 95, 2)" /><path d="M -104.774 -55.0269 L -103.274 -57.625  L -100.242 -55.875  L -101.742 -53.2769  z" fill="none" stroke="rgb(217, 95, 2)" /><path d="M 100.242 -55.875 L 103.274 -57.625  L 104.774 -55.0269  L 101.742 -53.2769  z" fill="none" stroke="rgb(217, 95, 2)" /><path d="M 53.4771 -55.875 L 56.5082 -57.625  L 58.0082 -55.0269  L 54.9771 -53.2769  z" fill="none" stroke="rgb(217, 95, 2)" /><path d="M 6.7117 -55.875 L 9.74279 -57.625  L 11.2428 -55.0269  L 8.2117 -53.2769  z" fill="none" stroke="rgb(217, 95, 2)" /><path d="M -40.0537 -55.875 L -37.0226 -57.625  L -35.5226 -55.0269  L -38.5537 -53.2769  z" fill="none" stroke="rgb(217, 95, 2)" /><path d="M -86.819 -55.875 L -83.788 -57.625  L -82.288 -55.0269  L -85.319 -53.2769  z" fill="none" stroke="rgb(217, 95, 2)" /><path d="M -133.584 -55.875 L -130.553 -57.625  L -129.053 -55.0269  L -132.084 -53.2769  z" fill="none" stroke="rgb(217, 95, 2)" /><path d="M 120.393 -60.0269 L 121.893 -62.625  L 124.924 -60.875  L 123.424 -58.2769  z" fill="none" stroke="rgb(217, 95, 2)" /><path d="M 73.6277 -60.0269 L 75.1277 -62.625  L 78.1588 -60.875  L 76.6588 -58.2769  z" fill="none" stroke="rgb(217, 95, 2)" /><path d="M 26.8623 -60.0269 L 28.3623 -62.625  L 31.3934 -60.875  L 29.8934 -58.2769  z" fill="none" stroke="rgb(217, 95, 2)" /><path d="M -19.903 -60.0269 L -18.403 -62.625  L -15.372 -60.875  L -16.872 -58.2769  z" fill="none" stroke="rgb(217, 95, 2)" /><path d="M -66.6684 -60.0269 L -65.1684 -62.625  L -62.1373 -60.875  L -63.6373 -58.2769  z" fill="none" stroke="rgb(217, 95, 2)" /><path d="M -113.434 -60.0269 L -111.934 -62.625  L -108.903 -60.875  L -110.403 -58.2769  z" fill="none" stroke="rgb(217, 95, 2)" /><path d="M 108.903 -60.875 L 111.934 -62.625  L 113.434 -60.0269  L 110.403 -58.2769  z" fill="none" stroke="rgb(217, 95, 2)" /><path d="M 62.1373 -60.875 L 65.1684 -62.625  L 66.6684 -60.0269  L 63.6373 -58.2769  z" fill="none" stroke="rgb(217, 95, 2)" /><path d="M 15.372 -60.875 L 18.403 -62.625  L 19.903 -60.0269  L 16.872 -58.2769  z" fill="none" stroke="rgb(217, 95, 2)" /><path d="M -31.3934 -60.875 L -28.3623 -62.625  L -26.8623 -60.0269  L -29.8934 -58.2769  z" fill="none" stroke="rgb(217, 95, 2)" /><path d="M -78.1588 -60.875 L -75.1277 -62.625  L -73.6277 -60.0269  L -76.6588 -58.2769  z" fill="none" stroke="rgb(217, 95, 2)" /><path d="M -124.924 -60.875 L -121.893 -62.625  L -120.393 -60.0269  L -123.424 -58.2769  z" fill="none" stroke="rgb(217, 95, 2)" /><path d="M 97.0104 -61.4731 L 100.041 -63.2231  L 101.541 -60.625  L 98.5104 -58.875  z" fill="none" stroke="rgb(217, 95, 2)" /><path d="M 85.52 -60.625 L 87.02 -63.2231  L 90.0511 -61.4731  L 88.5511 -58.875  z" fill="none" stroke="rgb(217, 95, 2)" /><path d="M 50.245 -61.4731 L 53.2761 -63.2231  L 54.7761 -60.625  L 51.745 -58.875  z" fill="none" stroke="rgb(217, 95, 2)" /><path d="M 38.7546 -60.625 L 40.2546 -63.2231  L 43.2857 -61.4731  L 41.7857 -58.875  z" fill="none" stroke="rgb(217, 95, 2)" /><path d="M 3.47965 -61.4731 L 6.51073 -63.2231  L 8.01073 -60.625  L 4.97965 -58.875  z" fill="none" stroke="rgb(217, 95, 2)" /><path d="M -8.01073 -60.625 L -6.51073 -63.2231  L -3.47965 -61.4731  L -4.97965 -58.875  z" fill="none" stroke="rgb(217, 95, 2)" /><path d="M -43.2857 -61.4731 L -40.2546 -63.2231  L -38.7546 -60.625  L -41.7857 -58.875  z" fill="none" stroke="rgb(217, 95, 2)" /><path d="M -54.7761 -60.625 L -53.2761 -63.2231  L -50.245 -61.4731  L -51.745 -58.875  z" fill="none" stroke="rgb(217, 95, 2)" /><path d="M -90.0511 -61.4731 L -87.02 -63.2231  L -85.52 -60.625  L -88.5511 -58.875  z" fill="none" stroke="rgb(217, 95, 2)" /><path d="M -101.541 -60.625 L -100.041 -63.2231  L -97.0104 -61.4731  L -98.5104 -58.875  z" fill="none" stroke="rgb(217, 95, 2)" /><path d="M 105.671 -66.4731 L 108.702 -68.2231  L 110.202 -65.625  L 107.171 -63.875  z" fill="none" stroke="rgb(217, 95, 2)" /><path d="M 76.8598 -65.625 L 78.3598 -68.2231  L 81.3908 -66.4731  L 79.8908 -63.875  z" fill="none" stroke="rgb(217, 95, 2)" /><path d="M 58.9053 -66.4731 L 61.9364 -68.2231  L 63.4364 -65.625  L 60.4053 -63.875  z" fill="none" stroke="rgb(217, 95, 2)" /><path d="M 30.0944 -65.625 L 31.5944 -68.2231  L 34.6255 -66.4731  L 33.1255 -63.875  z" fill="none" stroke="rgb(217, 95, 2)" /><path d="M 12.1399 -66.4731 L 15.171 -68.2231  L 16.671 -65.625  L 13.6399 -63.875  z" fill="none" stroke="rgb(217, 95, 2)" /><path d="M -16.671 -65.625 L -15.171 -68.2231  L -12.1399 -66.4731  L -13.6399 -63.875  z" fill="none" stroke="rgb(217, 95, 2)" /><path d="M -34.6255 -66.4731 L -31.5944 -68.2231  L -30.0944 -65.625  L -33.1255 -63.875  z" fill="none" stroke="rgb(217, 95, 2)" /><path d="M -63.4364 -65.625 L -61.9364 -68.2231  L -58.9053 -66.4731  L -60.4053 -63.875  z" fill="none" stroke="rgb(217, 95, 2)" /><path d="M -81.3908 -66.4731 L -78.3598 -68.2231  L -76.8598 -65.625  L -79.8908 -63.875  z" fill="none" stroke="rgb(217, 95, 2)" /><path d="M -110.202 -65.625 L -108.702 -68.2231  L -105.671 -66.4731  L -107.171 -63.875  z" fill="none" stroke="rgb(217, 95, 2)" /><path d="M 112.181 -74.25 L 112.181 -77.75  L 115.181 -77.75  L 115.181 -74.25  z" fill="none" stroke="rgb(217, 95, 2)" /><path d="M 65.416 -74.25 L 65.416 -77.75  L 68.416 -77.75  L 68.416 -74.25  z" fill="none" stroke="rgb(217, 95, 2)" /><path d="M 18.6506 -74.25 L 18.6506 -77.75  L 21.6506 -77.75  L 21.6506 -74.25  z" fill="none" stroke="rgb(217, 95, 2)" /><path d="M -28.1147 -74.25 L -28.1147 -77.75  L -25.1147 -77.75  L -25.1147 -74.25  z" fill="none" stroke="rgb(217, 95, 2)" /><path d="M -74.8801 -74.25 L -74.8801 -77.75  L -71.8801 -77.75  L -71.8801 -74.25  z" fill="none" stroke="rgb(217, 95, 2)" /><path d="M 71.8801 -74.25 L 71.8801 -77.75  L 74.8801 -77.75  L 74.8801 -74.25  z" fill="none" stroke="rgb(217, 95, 2)" /><path d="M 25.1147 -74.25 L 25.1147 -77.75  L 28.1147 -77.75  L 28.1147 -74.25  z" fill="none" stroke="rgb(217, 95, 2)" /><path d="M -21.6506 -74.25 L -21.6506 -77.75  L -18.6506 -77.75  L -18.6506 -74.25  z" fill="none" stroke="rgb(217, 95, 2)" /><path d="M -68.416 -74.25 L -68.416 -77.75  L -65.416 -77.75  L -65.416 -74.25  z" fill="none" stroke="rgb(217, 95, 2)" /><path d="M -115.181 -74.25 L -115.181 -77.75  L -112.181 -77.75  L -112.181 -74.25  z" fill="none" stroke="rgb(217, 95, 2)" /><path d="M 112.181 -84.25 L 112.181 -87.75  L 115.181 -87.75  L 115.181 -84.25  z" fill="none" stroke="rgb(217, 95, 2)" /><path d="M 65.416 -84.25 L 65.416 -87.75  L 68.416 -87.75  L 68.416 -84.25  z" fill="none" stroke="rgb(217, 95, 2)" /><path d="M 18.6506 -84.25 L 18.6506 -87.75  L 21.6506 -87.75  L 21.6506 -84.25  z" fill="none" stroke="rgb(217, 95, 2)" /><path d="M -28.1147 -84.25 L -28.1147 -87.75  L -25.1147 -87.75  L -25.1147 -84.25  z" fill="none" stroke="rgb(217, 95, 2)" /><path d="M -74.8801 -84.25 L -74.8801 -87.75  L -71.8801 -87.75  L -71.8801 -84.25  z" fill="none" stroke="rgb(217, 95, 2)" /><path d="M 71.8801 -84.25 L 71.8801 -87.75  L 74.8801 -87.75  L 74.8801 -84.25  z" fill="none" stroke="rgb(217, 95, 2)" /><path d="M 25.1147 -84.25 L 25.1147 -87.75  L 28.1147 -87.75  L 28.1147 -84.25  z" fill="none" stroke="rgb(217, 95, 2)" /><path d="M -21.6506 -84.25 L -21.6506 -87.75  L -18.6506 -87.75  L -18.6506 -84.25  z" fill="none" stroke="rgb(217, 95, 2)" /><path d="M -68.416 -84.25 L -68.416 -87.75  L -65.416 -87.75  L -65.416 -84.25  z" fill="none" stroke="rgb(217, 95, 2)" /><path d="M -115.181 -84.25 L -115.181 -87.75  L -112.181 -87.75  L -112.181 -84.25  z" fill="none" stroke="rgb(217, 95, 2)" /><path d="M 105.671 -95.5269 L 107.171 -98.125  L 110.202 -96.375  L 108.702 -93.7769  z" fill="none" stroke="rgb(217, 95, 2)" /><path d="M 58.9053 -95.5269 L 60.4053 -98.125  L 63.4364 -96.375  L 61.9364 -93.7769  z" fill="none" stroke="rgb(217, 95, 2)" /><path d="M 12.1399 -95.5269 L 13.6399 -98.125  L 16.671 -96.375  L 15.171 -93.7769  z" fill="none" stroke="rgb(217, 95, 2)" /><path d="M -34.6255 -95.5269 L -33.1255 -98.125  L -30.0944 -96.375  L -31.5944 -93.7769  z" fill="none" stroke="rgb(217, 95, 2)" /><path d="M -81.3908 -95.5269 L -79.8908 -98.125  L -76.8598 -96.375  L -78.3598 -93.7769  z" fill="none" stroke="rgb(217, 95, 2)" /><path d="M 76.8598 -96.375 L 79.8908 -98.125  L 81.3908 -95.5269  L 78.3598 -93.7769  z" fill="none" stroke="rgb(217, 95, 2)" /><path d="M 30.0944 -96.375 L 33.1255 -98.125  L 34.6255 -95.5269  L 31.5944 -93.7769  z" fill="none" stroke="rgb(217, 95, 2)" /><path d="M -16.671 -96.375 L -13.6399 -98.125  L -12.1399 -95.5269  L -15.171 -93.7769  z" fill="none" stroke="rgb(217, 95, 2)" /><path d="M -63.4364 -96.375 L -60.4053 -98.125  L -58.9053 -95.5269  L -61.9364 -93.7769  z" fill="none" stroke="rgb(217, 95, 2)" /><path d="M -110.202 -96.375 L -107.171 -98.125  L -105.671 -95.5269  L -108.702 -93.7769  z" fill="none" stroke="rgb(217, 95, 2)" /><path d="M 97.0104 -100.527 L 98.5104 -103.125  L 101.541 -101.375  L 100.041 -98.7769  z" fill="none" stroke="rgb(217, 95, 2)" /><path d="M 85.52 -101.375 L 88.5511 -103.125  L 90.0511 -100.527  L 87.02 -98.7769  z" fill="none" stroke="rgb(217, 95, 2)" /><path d="M 50.245 -100.527 L 51.745 -103.125  L 54.7761 -101.375  L 53.2761 -98.7769  z" fill="none" stroke="rgb(217, 95, 2)" /><path d="M 38.7546 -101.375 L 41.7857 -103.125  L 43.2857 -100.527  L 40.2546 -98.7769  z" fill="none" stroke="rgb(217, 95, 2)" /><path d="M 3.47965 -100.527 L 4.97965 -103.125  L 8.01073 -101.375  L 6.51073 -98.7769  z" fill="none" stroke="rgb(217, 95, 2)" /><path d="M -8.01073 -101.375 L -4.97965 -103.125  L -3.47965 -100.527  L -6.51073 -98.7769  z" fill="none" stroke="rgb(217, 95, 2)" /><path d="M -43.2857 -100.527 L -41.7857 -103.125  L -38.7546 -101.375  L -40.2546 -98.7769  z" fill="none" stroke="rgb(217, 95, 2)" /><path d="M -54.7761 -101.375 L -51.745 -103.125  L -50.245 -100.527  L -53.2761 -98.7769  z" fill="none" stroke="rgb(217, 95, 2)" /><path d="M -90.0511 -100.527 L -88.5511 -103.125  L -85.52 -101.375  L -87.02 -98.7769  z" fill="none" stroke="rgb(217, 95, 2)" /><path d="M -101.541 -101.375 L -98.5104 -103.125  L -97.0104 -100.527  L -100.041 -98.7769  z" fill="none" stroke="rgb(217, 95, 2)" /><path d="M 73.6277 -101.973 L 76.6588 -103.723  L 78.1588 -101.125  L 75.1277 -99.375  z" fill="none" stroke="rgb(217, 95, 2)" /><path d="M 62.1373 -101.125 L 63.6373 -103.723  L 66.6684 -101.973  L 65.1684 -99.375  z" fill="none" stroke="rgb(217, 95, 2)" /><path d="M 26.8623 -101.973 L 29.8934 -103.723  L 31.3934 -101.125  L 28.3623 -99.375  z" fill="none" stroke="rgb(217, 95, 2)" /><path d="M 15.372 -101.125 L 16.872 -103.723  L 19.903 -101.973  L 18.403 -99.375  z" fill="none" stroke="rgb(217, 95, 2)" /><path d="M -19.903 -101.973 L -16.872 -103.723  L -15.372 -101.125  L -18.403 -99.375  z" fill="none" stroke="rgb(217, 95, 2)" /><path d="M -31.3934 -101.125 L -29.8934 -103.723  L -26.8623 -101.973  L -28.3623 -99.375  z" fill="none" stroke="rgb(217, 95, 2)" /><path d="M -66.6684 -101.973 L -63.6373 -103.723  L -62.1373 -101.125  L -65.1684 -99.375  z" fill="none" stroke="rgb(217, 95, 2)" /><path d="M -78.1588 -101.125 L -76.6588 -103.723  L -73.6277 -101.973  L -75.1277 -99.375  z" fill="none" stroke="rgb(217, 95, 2)" /><path d="M 82.288 -106.973 L 85.319 -108.723  L 86.819 -106.125  L 83.788 -104.375  z" fill="none" stroke="rgb(217, 95, 2)" /><path d="M 53.4771 -106.125 L 54.9771 -108.723  L 58.0082 -106.973  L 56.5082 -104.375  z" fill="none" stroke="rgb(217, 95, 2)" /><path d="M 35.5226 -106.973 L 38.5537 -108.723  L 40.0537 -106.125  L 37.0226 -104.375  z" fill="none" stroke="rgb(217, 95, 2)" /><path d="M 6.7117 -106.125 L 8.2117 -108.723  L 11.2428 -106.973  L 9.74279 -104.375  z" fill="none" stroke="rgb(217, 95, 2)" /><path d="M -11.2428 -106.973 L -8.2117 -108.723  L -6.7117 -106.125  L -9.74279 -104.375  z" fill="none" stroke="rgb(217, 95, 2)" /><path d="M -40.0537 -106.125 L -38.5537 -108.723  L -35.5226 -106.973  L -37.0226 -104.375  z" fill="none" stroke="rgb(217, 95, 2)" /><path d="M -58.0082 -106.973 L -54.9771 -108.723  L -53.4771 -106.125  L -56.5082 -104.375  z" fill="none" stroke="rgb(217, 95, 2)" /><path d="M -86.819 -106.125 L -85.319 -108.723  L -82.288 -106.973  L -83.788 -104.375  z" fill="none" stroke="rgb(217, 95, 2)" /><path d="M 88.7987 -114.75 L 88.7987 -118.25  L 91.7987 -118.25  L 91.7987 -114.75  z" fill="none" stroke="rgb(217, 95, 2)" /><path d="M 42.0333 -114.75 L 42.0333 -118.25  L 45.0333 -118.25  L 45.0333 -114.75  z" fill="none" stroke="rgb(217, 95, 2)" /><path d="M -4.73205 -114.75 L -4.73205 -118.25  L -1.73205 -118.25  L -1.73205 -114.75  z" fill="none" stroke="rgb(217, 95, 2)" /><path d="M -51.4974 -114.75 L -51.4974 -118.25  L -48.4974 -118.25  L -48.4974 -114.75  z" fill="none" stroke="rgb(217, 95, 2)" /><path d="M 48.4974 -114.75 L 48.4974 -118.25  L 51.4974 -118.25  L 51.4974 -114.75  z" fill="none" stroke="rgb(217, 95, 2)" /><path d="M 1.73205 -114.75 L 1.73205 -118.25  L 4.73205 -118.25  L 4.73205 -114.75  z" fill="none" stroke="rgb(217, 95, 2)" /><path d="M -45.0333 -114.75 L -45.0333 -118.25  L -42.0333 -118.25  L -42.0333 -114.75  z" fill="none" stroke="rgb(217, 95, 2)" /><path d="M -91.7987 -114.75 L -91.7987 -118.25  L -88.7987 -118.25  L -88.7987 -114.75  z" fill="none" stroke="rgb(217, 95, 2)" /><path d="M 88.7987 -124.75 L 88.7987 -128.25  L 91.7987 -128.25  L 91.7987 -124.75  z" fill="none" stroke="rgb(217, 95, 2)" /><path d="M 48.4974 -124.75 L 48.4974 -128.25  L 51.4974 -128.25  L 51.4974 -124.75  z" fill="none" stroke="rgb(217, 95, 2)" /><path d="M 42.0333 -124.75 L 42.0333 -128.25  L 45.0333 -128.25  L 45.0333 -124.75  z" fill="none" stroke="rgb(217, 95, 2)" /><path d="M 1.73205 -124.75 L 1.73205 -128.25  L 4.73205 -128.25  L 4.73205 -124.75  z" fill="none" stroke="rgb(217, 95, 2)" /><path d="M -4.73205 -124.75 L -4.73205 -128.25  L -1.73205 -128.25  L -1.73205 -124.75  z" fill="none" stroke="rgb(217, 95, 2)" /><path d="M -45.0333 -124.75 L -45.0333 -128.25  L -42.0333 -128.25  L -42.0333 -124.75  z" fill="none" stroke="rgb(217, 95, 2)" /><path d="M -51.4974 -124.75 L -51.4974 -128.25  L -48.4974 -128.25  L -48.4974 -124.75  z" fill="none" stroke="rgb(217, 95, 2)" /><path d="M -91.7987 -124.75 L -91.7987 -128.25  L -88.7987 -128.25  L -88.7987 -124.75  z" fill="none" stroke="rgb(217, 95, 2)" /><path d="M 82.288 -136.027 L 83.788 -138.625  L 86.819 -136.875  L 85.319 -134.277  z" fill="none" stroke="rgb(217, 95, 2)" /><path d="M 53.4771 -136.875 L 56.5082 -138.625  L 58.0082 -136.027  L 54.9771 -134.277  z" fill="none" stroke="rgb(217, 95, 2)" /><path d="M 35.5226 -136.027 L 37.0226 -138.625  L 40.0537 -136.875  L 38.5537 -134.277  z" fill="none" stroke="rgb(217, 95, 2)" /><path d="M 6.7117 -136.875 L 9.74279 -138.625  L 11.2428 -136.027  L 8.2117 -134.277  z" fill="none" stroke="rgb(217, 95, 2)" /><path d="M -11.2428 -136.027 L -9.74279 -138.625  L -6.7117 -136.875  L -8.2117 -134.277  z" fill="none" stroke="rgb(217, 95, 2)" /><path d="M -40.0537 -136.875 L -37.0226 -138.625  L -35.5226 -136.027  L -38.5537 -134.277  z" fill="none" stroke="rgb(217, 95, 2)" /><path d="M -58.0082 -136.027 L -56.5082 -138.625  L -53.4771 -136.875  L -54.9771 -134.277  z" fill="none" stroke="rgb(217, 95, 2)" /><path d="M -86.819 -136.875 L -83.788 -138.625  L -82.288 -136.027  L -85.319 -134.277  z" fill="none" stroke="rgb(217, 95, 2)" /><path d="M 73.6277 -141.027 L 75.1277 -143.625  L 78.1588 -141.875  L 76.6588 -139.277  z" fill="none" stroke="rgb(217, 95, 2)" /><path d="M 62.1373 -141.875 L 65.1684 -143.625  L 66.6684 -141.027  L 63.6373 -139.277  z" fill="none" stroke="rgb(217, 95, 2)" /><path d="M 26.8623 -141.027 L 28.3623 -143.625  L 31.3934 -141.875  L 29.8934 -139.277  z" fill="none" stroke="rgb(217, 95, 2)" /><path d="M 15.372 -141.875 L 18.403 -143.625  L 19.903 -141.027  L 16.872 -139.277  z" fill="none" stroke="rgb(217, 95, 2)" /><path d="M -19.903 -141.027 L -18.403 -143.625  L -15.372 -141.875  L -16.872 -139.277  z" fill="none" stroke="rgb(217, 95, 2)" /><path d="M -31.3934 -141.875 L -28.3623 -143.625  L -26.8623 -141.027  L -29.8934 -139.277  z" fill="none" stroke="rgb(217, 95, 2)" /><path d="M -66.6684 -141.027 L -65.1684 -143.625  L -62.1373 -141.875  L -63.6373 -139.277  z" fill="none" stroke="rgb(217, 95, 2)" /><path d="M -78.1588 -141.875 L -75.1277 -143.625  L -73.6277 -141.027  L -76.6588 -139.277  z" fill="none" stroke="rgb(217, 95, 2)" /><path d="M 97.2262 -168.401 L -97.2262 -168.401  L -194.452 -5.68434e-14  L -97.2262 168.401  L 97.2262 168.401  L 194.452 5.68434e-14  z" fill="none" stroke="rgb(27, 158, 119)" /></g></svg>