<?xml version="1.0" encoding="utf-8" ?>
<svg baseProfile="full" height="99.2mm" version="1.1" viewBox="-2.0,-51.1,166.67220617680593,99.2" width="166.67220617680593mm" xmlns="http://www.w3.org/2000/svg" xmlns:ev="http://www.w3.org/2001/xml-events" xmlns:xlink="http://www.w3.org/1999/xlink"><defs /><g transform="translate(81.3361, 3)"><path d="M 69.7347 -40.1 L 69.7347 -49.1  L 58.8678 -49.1  L 58.8678 -40.1  L 48.301 -40.1  L 48.301 -49.1  L 37.4341 -49.1  L 37.4341 -40.1  L 26.8672 -40.1  L 26.8672 -49.1  L 16.0003 -49.1  L 16.0003 -40.1  L 5.43344 -40.1  L 5.43344 -49.1  L -5.43344 -49.1  L -5.43344 -40.1  L -16.0003 -40.1  L -16.0003 -49.1  L -26.8672 -49.1  L -26.8672 -40.1  L -37.4341 -40.1  L -37.4341 -49.1  L -48.301 -49.1  L -48.301 -40.1  L -58.8678 -40.1  L -58.8678 -49.1  L -69.7347 -49.1  L -69.7347 -40.1  L -78.3361 -40.1  L -78.3361 40.1  L 78.3361 40.1  L 78.3361 -40.1  z" fill="none" stroke="rgb(27, 158, 119)" /></g></svg>