<?xml version="1.0" encoding="utf-8" ?>
<svg baseProfile="full" height="99.2mm" version="1.1" viewBox="-2.0,-51.1,166.67220617680593,99.2" width="166.67220617680593mm" xmlns="http://www.w3.org/2000/svg" xmlns:ev="http://www.w3.org/2001/xml-events" xmlns:xlink="http://www.w3.org/1999/xlink"><defs /><g transform="translate(81.3361, 3)"><path d="M 69.7597 -40.1 L 69.7597 -49.1  L 58.8428 -49.1  L 58.8428 -40.1  L 48.326 -40.1  L 48.326 -49.1  L 37.4091 -49.1  L 37.4091 -40.1  L 26.8922 -40.1  L 26.8922 -49.1  L 15.9753 -49.1  L 15.9753 -40.1  L 5.45844 -40.1  L 5.45844 -49.1  L -5.45844 -49.1  L -5.45844 -40.1  L -15.9753 -40.1  L -15.9753 -49.1  L -26.8922 -49.1  L -26.8922 -40.1  L -37.4091 -40.1  L -37.4091 -49.1  L -48.326 -49.1  L -48.326 -40.1  L -58.8428 -40.1  L -58.8428 -49.1  L -69.7597 -49.1  L -69.7597 -40.1  L -78.3361 -40.1  L -78.3361 40.1  L 78.3361 40.1  L 78.3361 -40.1  z" fill="none" stroke="rgb(27, 158, 119)" /></g></svg>