<?xml version="1.0" encoding="utf-8" ?>
<svg baseProfile="full" height="92.2mm" version="1.1" viewBox="-74.5056439278888,-3.0,155.0112878557776,92.2" width="155.0112878557776mm" xmlns="http://www.w3.org/2000/svg" xmlns:ev="http://www.w3.org/2001/xml-events" xmlns:xlink="http://www.w3.org/1999/xlink"><defs /><path d="M 72.4783 9 L 72.4783 -3  L 61.6047 -3  L 61.6047 9  L 51.1311 9  L 51.1311 -3  L 40.2575 -3  L 40.2575 9  L 29.7839 9  L 29.7839 -3  L 18.9104 -3  L 18.9104 9  L 8.43679 9  L 8.43679 -3  L -2.43679 -3  L -2.43679 9  L -12.9104 9  L -12.9104 -3  L -23.7839 -3  L -23.7839 9  L -34.2575 9  L -34.2575 -3  L -45.1311 -3  L -45.1311 9  L -55.6047 9  L -55.6047 -3  L -66.4783 -3  L -66.4783 9  L -74.5056 9  L -74.5056 89.2  L 80.5056 89.2  L 80.5056 9  z" fill="none" stroke="rgb(27, 158, 119)" /></svg>