<?xml version="1.0" encoding="utf-8" ?>
<svg baseProfile="full" height="92.2mm" version="1.1" viewBox="-74.4556439278888,-3.0,154.9112878557776,92.2" width="154.9112878557776mm" xmlns="http://www.w3.org/2000/svg" xmlns:ev="http://www.w3.org/2001/xml-events" xmlns:xlink="http://www.w3.org/1999/xlink"><defs /><g transform="translate(3, 49.1)"><path d="M 69.4783 -40.1 L 69.4783 -52.1  L 58.6047 -52.1  L 58.6047 -40.1  L 48.1311 -40.1  L 48.1311 -52.1  L 37.2575 -52.1  L 37.2575 -40.1  L 26.7839 -40.1  L 26.7839 -52.1  L 15.9104 -52.1  L 15.9104 -40.1  L 5.43679 -40.1  L 5.43679 -52.1  L -5.43679 -52.1  L -5.43679 -40.1  L -15.9104 -40.1  L -15.9104 -52.1  L -26.7839 -52.1  L -26.7839 -40.1  L -37.2575 -40.1  L -37.2575 -52.1  L -48.1311 -52.1  L -48.1311 -40.1  L -58.6047 -40.1  L -58.6047 -52.1  L -69.4783 -52.1  L -69.4783 -40.1  L -77.4556 -40.1  L -77.4556 40.1  L 77.4556 40.1  L 77.4556 -40.1  z" fill="none" stroke="rgb(27, 158, 119)" /></g></svg>