<?xml version="1.0" encoding="utf-8" ?>
<svg baseProfile="full" height="66.2mm" version="1.1" viewBox="-97.70734985006055,-36.1,195.4146997001211,66.2" width="195.4146997001211mm" xmlns="http://www.w3.org/2000/svg" xmlns:ev="http://www.w3.org/2001/xml-events" xmlns:xlink="http://www.w3.org/1999/xlink"><defs /><g><path d="M 83.8507 -25.1 L 83.8507 -31.1  L 72.4933 -31.1  L 72.4933 -25.1  L 61.5158 -25.1  L 61.5158 -31.1  L 50.1584 -31.1  L 50.1584 -25.1  L 39.181 -25.1  L 39.181 -31.1  L 27.8236 -31.1  L 27.8236 -25.1  L 16.8461 -25.1  L 16.8461 -31.1  L 5.48871 -31.1  L 5.48871 -25.1  L -5.48871 -25.1  L -5.48871 -31.1  L -16.8461 -31.1  L -16.8461 -25.1  L -27.8236 -25.1  L -27.8236 -31.1  L -39.181 -31.1  L -39.181 -25.1  L -50.1584 -25.1  L -50.1584 -31.1  L -61.5158 -31.1  L -61.5158 -25.1  L -72.4933 -25.1  L -72.4933 -31.1  L -83.8507 -31.1  L -83.8507 -25.1  L -92.7073 -25.1  L -92.7073 25.1  L -21.6511 25.1  L -21.6511 22.1  L -10.6837 22.1  L -10.6837 25.1  L 10.6837 25.1  L 10.6837 22.1  L 21.6511 22.1  L 21.6511 25.1  L 92.7073 25.1  L 92.7073 -25.1  z" fill="none" stroke="rgb(27, 158, 119)" /></g></svg>