<?xml version="1.0" encoding="utf-8" ?>
<svg baseProfile="full" height="36.746272039703314mm" version="1.1" viewBox="-2.0999999999999996,3.0,10.2,36.746272039703314" width="10.2mm" xmlns="http://www.w3.org/2000/svg" xmlns:ev="http://www.w3.org/2001/xml-events" xmlns:xlink="http://www.w3.org/1999/xlink"><defs /><path d="M 2.81378 33.2639 L 2.62935 33.2365  L 2.44849 33.1912  L 2.27295 33.1284  L 2.1044 33.0487  L 1.94448 32.9528  L 1.79473 32.8418  L 1.65658 32.7166  L 1.53137 32.5784  L 1.42031 32.4287  L 1.32446 32.2687  L 1.24474 32.1002  L 1.18193 31.9246  L 1.13663 31.7438  L 1.10927 31.5594  L 1.10012 31.3731  L 1.10927 31.1869  L 1.13663 31.0025  L 1.18193 30.8216  L 1.24474 30.6461  L 1.32446 30.4775  L 1.42031 30.3176  L 1.53137 30.1679  L 1.65658 30.0297  L 1.79473 29.9045  L 1.94448 29.7934  L 2.1044 29.6976  L 2.27295 29.6179  L 2.44849 29.5551  L 2.62935 29.5098  L 2.81378 29.4824  L 3 29.4733  L 3.18622 29.4824  L 3.37065 29.5098  L 3.55151 29.5551  L 3.72705 29.6179  L 3.8956 29.6976  L 4.05552 29.7934  L 4.20527 29.9045  L 4.34342 30.0297  L 4.46863 30.1679  L 4.57969 30.3176  L 4.67554 30.4775  L 4.75526 30.6461  L 4.81807 30.8216  L 4.86337 31.0025  L 4.89073 31.1869  L 4.89988 31.3731  L 4.89073 31.5594  L 4.86337 31.7438  L 4.81807 31.9246  L 4.75526 32.1002  L 4.67554 32.2687  L 4.57969 32.4287  L 4.46863 32.5784  L 4.34342 32.7166  L 4.20527 32.8418  L 4.05552 32.9528  L 3.8956 33.0487  L 3.72705 33.1284  L 3.55151 33.1912  L 3.37065 33.2365  L 3.18622 33.2639  L 3 33.273  z" fill="none" stroke="blue" /><path d="M 2.81378 23.2639 L 2.62935 23.2365  L 2.44849 23.1912  L 2.27295 23.1284  L 2.1044 23.0487  L 1.94448 22.9528  L 1.79473 22.8418  L 1.65658 22.7166  L 1.53137 22.5784  L 1.42031 22.4287  L 1.32446 22.2687  L 1.24474 22.1002  L 1.18193 21.9246  L 1.13663 21.7438  L 1.10927 21.5594  L 1.10012 21.3731  L 1.10927 21.1869  L 1.13663 21.0025  L 1.18193 20.8216  L 1.24474 20.6461  L 1.32446 20.4775  L 1.42031 20.3176  L 1.53137 20.1679  L 1.65658 20.0297  L 1.79473 19.9045  L 1.94448 19.7934  L 2.1044 19.6976  L 2.27295 19.6179  L 2.44849 19.5551  L 2.62935 19.5098  L 2.81378 19.4824  L 3 19.4733  L 3.18622 19.4824  L 3.37065 19.5098  L 3.55151 19.5551  L 3.72705 19.6179  L 3.8956 19.6976  L 4.05552 19.7934  L 4.20527 19.9045  L 4.34342 20.0297  L 4.46863 20.1679  L 4.57969 20.3176  L 4.67554 20.4775  L 4.75526 20.6461  L 4.81807 20.8216  L 4.86337 21.0025  L 4.89073 21.1869  L 4.89988 21.3731  L 4.89073 21.5594  L 4.86337 21.7438  L 4.81807 21.9246  L 4.75526 22.1002  L 4.67554 22.2687  L 4.57969 22.4287  L 4.46863 22.5784  L 4.34342 22.7166  L 4.20527 22.8418  L 4.05552 22.9528  L 3.8956 23.0487  L 3.72705 23.1284  L 3.55151 23.1912  L 3.37065 23.2365  L 3.18622 23.2639  L 3 23.273  z" fill="none" stroke="blue" /><path d="M -2.1 3 L -2.1 39.7463  L 8.1 39.7463  L 8.1 3  z" fill="none" stroke="blue" /></svg>