<?xml version="1.0" encoding="utf-8" ?>
<svg baseProfile="full" height="36.57306695894643mm" version="1.1" viewBox="-2.0999999999999996,3.0,10.2,36.57306695894643" width="10.2mm" xmlns="http://www.w3.org/2000/svg" xmlns:ev="http://www.w3.org/2001/xml-events" xmlns:xlink="http://www.w3.org/1999/xlink"><defs /><g><path d="M 2.81378 33.1773 L 2.62935 33.1499  L 2.44849 33.1046  L 2.27295 33.0418  L 2.1044 32.9621  L 1.94448 32.8662  L 1.79473 32.7552  L 1.65658 32.63  L 1.53137 32.4918  L 1.42031 32.342  L 1.32446 32.1821  L 1.24474 32.0136  L 1.18193 31.838  L 1.13663 31.6572  L 1.10927 31.4728  L 1.10012 31.2865  L 1.10927 31.1003  L 1.13663 30.9159  L 1.18193 30.735  L 1.24474 30.5595  L 1.32446 30.3909  L 1.42031 30.231  L 1.53137 30.0813  L 1.65658 29.9431  L 1.79473 29.8179  L 1.94448 29.7068  L 2.1044 29.611  L 2.27295 29.5313  L 2.44849 29.4685  L 2.62935 29.4232  L 2.81378 29.3958  L 3 29.3867  L 3.18622 29.3958  L 3.37065 29.4232  L 3.55151 29.4685  L 3.72705 29.5313  L 3.8956 29.611  L 4.05552 29.7068  L 4.20527 29.8179  L 4.34342 29.9431  L 4.46863 30.0813  L 4.57969 30.231  L 4.67554 30.3909  L 4.75526 30.5595  L 4.81807 30.735  L 4.86337 30.9159  L 4.89073 31.1003  L 4.89988 31.2865  L 4.89073 31.4728  L 4.86337 31.6572  L 4.81807 31.838  L 4.75526 32.0136  L 4.67554 32.1821  L 4.57969 32.342  L 4.46863 32.4918  L 4.34342 32.63  L 4.20527 32.7552  L 4.05552 32.8662  L 3.8956 32.9621  L 3.72705 33.0418  L 3.55151 33.1046  L 3.37065 33.1499  L 3.18622 33.1773  L 3 33.1864  z" fill="none" stroke="rgb(217, 95, 2)" /><path d="M 2.81378 23.1773 L 2.62935 23.1499  L 2.44849 23.1046  L 2.27295 23.0418  L 2.1044 22.9621  L 1.94448 22.8662  L 1.79473 22.7552  L 1.65658 22.63  L 1.53137 22.4918  L 1.42031 22.342  L 1.32446 22.1821  L 1.24474 22.0136  L 1.18193 21.838  L 1.13663 21.6572  L 1.10927 21.4728  L 1.10012 21.2865  L 1.10927 21.1003  L 1.13663 20.9159  L 1.18193 20.735  L 1.24474 20.5595  L 1.32446 20.3909  L 1.42031 20.231  L 1.53137 20.0813  L 1.65658 19.9431  L 1.79473 19.8179  L 1.94448 19.7068  L 2.1044 19.611  L 2.27295 19.5313  L 2.44849 19.4685  L 2.62935 19.4232  L 2.81378 19.3958  L 3 19.3867  L 3.18622 19.3958  L 3.37065 19.4232  L 3.55151 19.4685  L 3.72705 19.5313  L 3.8956 19.611  L 4.05552 19.7068  L 4.20527 19.8179  L 4.34342 19.9431  L 4.46863 20.0813  L 4.57969 20.231  L 4.67554 20.3909  L 4.75526 20.5595  L 4.81807 20.735  L 4.86337 20.9159  L 4.89073 21.1003  L 4.89988 21.2865  L 4.89073 21.4728  L 4.86337 21.6572  L 4.81807 21.838  L 4.75526 22.0136  L 4.67554 22.1821  L 4.57969 22.342  L 4.46863 22.4918  L 4.34342 22.63  L 4.20527 22.7552  L 4.05552 22.8662  L 3.8956 22.9621  L 3.72705 23.0418  L 3.55151 23.1046  L 3.37065 23.1499  L 3.18622 23.1773  L 3 23.1864  z" fill="none" stroke="rgb(217, 95, 2)" /><path d="M -2.1 3 L -2.1 39.5731  L 8.1 39.5731  L 8.1 3  z" fill="none" stroke="rgb(27, 158, 119)" /></g></svg>