<?xml version="1.0" encoding="utf-8" ?>
<svg baseProfile="full" height="36.57306695894643mm" version="1.1" viewBox="-2.0999999999999996,3.0,10.2,36.57306695894643" width="10.2mm" xmlns="http://www.w3.org/2000/svg" xmlns:ev="http://www.w3.org/2001/xml-events" xmlns:xlink="http://www.w3.org/1999/xlink"><defs /><g transform="translate(3, 21.2865)"><path d="M -0.186221 11.8907 L -0.370648 11.8634  L -0.551506 11.8181  L -0.727052 11.7553  L -0.895597 11.6755  L -1.05552 11.5797  L -1.20527 11.4686  L -1.34342 11.3434  L -1.46863 11.2053  L -1.57969 11.0555  L -1.67554 10.8956  L -1.75526 10.7271  L -1.81807 10.5515  L -1.86337 10.3706  L -1.89073 10.1862  L -1.89988 10  L -1.89073 9.81378  L -1.86337 9.62935  L -1.81807 9.44849  L -1.75526 9.27295  L -1.67554 9.1044  L -1.57969 8.94448  L -1.46863 8.79473  L -1.34342 8.65658  L -1.20527 8.53137  L -1.05552 8.42031  L -0.895597 8.32446  L -0.727052 8.24474  L -0.551506 8.18193  L -0.370648 8.13663  L -0.186221 8.10927  L -0 8.10012  L 0.186221 8.10927  L 0.370648 8.13663  L 0.551506 8.18193  L 0.727052 8.24474  L 0.895597 8.32446  L 1.05552 8.42031  L 1.20527 8.53137  L 1.34342 8.65658  L 1.46863 8.79473  L 1.57969 8.94448  L 1.67554 9.1044  L 1.75526 9.27295  L 1.81807 9.44849  L 1.86337 9.62935  L 1.89073 9.81378  L 1.89988 10  L 1.89073 10.1862  L 1.86337 10.3706  L 1.81807 10.5515  L 1.75526 10.7271  L 1.67554 10.8956  L 1.57969 11.0555  L 1.46863 11.2053  L 1.34342 11.3434  L 1.20527 11.4686  L 1.05552 11.5797  L 0.895597 11.6755  L 0.727052 11.7553  L 0.551506 11.8181  L 0.370648 11.8634  L 0.186221 11.8907  L -0 11.8999  z" fill="none" stroke="rgb(217, 95, 2)" /><path d="M -0.186221 1.89073 L -0.370648 1.86337  L -0.551506 1.81807  L -0.727052 1.75526  L -0.895597 1.67554  L -1.05552 1.57969  L -1.20527 1.46863  L -1.34342 1.34342  L -1.46863 1.20527  L -1.57969 1.05552  L -1.67554 0.895597  L -1.75526 0.727052  L -1.81807 0.551506  L -1.86337 0.370648  L -1.89073 0.186221  L -1.89988 0  L -1.89073 -0.186221  L -1.86337 -0.370648  L -1.81807 -0.551506  L -1.75526 -0.727052  L -1.67554 -0.895597  L -1.57969 -1.05552  L -1.46863 -1.20527  L -1.34342 -1.34342  L -1.20527 -1.46863  L -1.05552 -1.57969  L -0.895597 -1.67554  L -0.727052 -1.75526  L -0.551506 -1.81807  L -0.370648 -1.86337  L -0.186221 -1.89073  L -0 -1.89988  L 0.186221 -1.89073  L 0.370648 -1.86337  L 0.551506 -1.81807  L 0.727052 -1.75526  L 0.895597 -1.67554  L 1.05552 -1.57969  L 1.20527 -1.46863  L 1.34342 -1.34342  L 1.46863 -1.20527  L 1.57969 -1.05552  L 1.67554 -0.895597  L 1.75526 -0.727052  L 1.81807 -0.551506  L 1.86337 -0.370648  L 1.89073 -0.186221  L 1.89988 0  L 1.89073 0.186221  L 1.86337 0.370648  L 1.81807 0.551506  L 1.75526 0.727052  L 1.67554 0.895597  L 1.57969 1.05552  L 1.46863 1.20527  L 1.34342 1.34342  L 1.20527 1.46863  L 1.05552 1.57969  L 0.895597 1.67554  L 0.727052 1.75526  L 0.551506 1.81807  L 0.370648 1.86337  L 0.186221 1.89073  L -0 1.89988  z" fill="none" stroke="rgb(217, 95, 2)" /><path d="M -5.1 -18.2865 L -5.1 18.2865  L 5.1 18.2865  L 5.1 -18.2865  z" fill="none" stroke="rgb(27, 158, 119)" /></g></svg>