<?xml version="1.0" encoding="utf-8" ?>
<svg baseProfile="full" height="296.32376043070343mm" version="1.1" viewBox="-15.286533479473214,3.0,57.20896534380867,296.32376043070343" width="57.20896534380867mm" xmlns="http://www.w3.org/2000/svg" xmlns:ev="http://www.w3.org/2001/xml-events" xmlns:xlink="http://www.w3.org/1999/xlink"><defs /><g transform="translate(3, 24.1155)"><path d="M 1.8842 16.5635 L 4.74208 14.9135  L 6.24208 17.5116  L 12.0445 14.1616  L 10.5445 11.5635  L 13.4023 9.91353  L 14.9023 12.5116  L 18.2865 10.5577  L 18.2865 6.65  L 15.2865 6.65  L 15.2865 3.35  L 18.2865 3.35  L 18.2865 -3.35  L 15.2865 -3.35  L 15.2865 -6.65  L 18.2865 -6.65  L 18.2865 -10.5577  L 14.9023 -12.5116  L 13.4023 -9.91353  L 10.5445 -11.5635  L 12.0445 -14.1616  L 6.24208 -17.5116  L 4.74208 -14.9135  L 1.8842 -16.5635  L 3.3842 -19.1616  L 3.07674e-15 -21.1155  L -3.3842 -19.1616  L -1.8842 -16.5635  L -4.74208 -14.9135  L -6.24208 -17.5116  L -12.0445 -14.1616  L -10.5445 -11.5635  L -13.4023 -9.91353  L -14.9023 -12.5116  L -18.2865 -10.5577  L -18.2865 -6.65  L -15.2865 -6.65  L -15.2865 -3.35  L -18.2865 -3.35  L -18.2865 3.35  L -15.2865 3.35  L -15.2865 6.65  L -18.2865 6.65  L -18.2865 10.5577  L -14.9023 12.5116  L -13.4023 9.91353  L -10.5445 11.5635  L -12.0445 14.1616  L -6.24208 17.5116  L -4.74208 14.9135  L -1.8842 16.5635  L -3.3842 19.1616  L 0 21.1155  L 3.3842 19.1616  z" fill="none" stroke="rgb(27, 158, 119)" /><path d="M -13.2187 -7.05449 L -12.7187 -7.92051  L 13.2187 7.05449  L 12.7187 7.92051  z" fill="none" stroke="rgb(217, 95, 2)" /></g><g transform="translate(3, 69.3464)"><path d="M 1.8842 16.5635 L 4.74208 14.9135  L 6.24208 17.5116  L 12.0445 14.1616  L 10.5445 11.5635  L 13.4023 9.91353  L 14.9023 12.5116  L 18.2865 10.5577  L 18.2865 6.65  L 15.2865 6.65  L 15.2865 3.35  L 18.2865 3.35  L 18.2865 -3.35  L 15.2865 -3.35  L 15.2865 -6.65  L 18.2865 -6.65  L 18.2865 -10.5577  L 14.9023 -12.5116  L 13.4023 -9.91353  L 10.5445 -11.5635  L 12.0445 -14.1616  L 6.24208 -17.5116  L 4.74208 -14.9135  L 1.8842 -16.5635  L 3.3842 -19.1616  L 3.07674e-15 -21.1155  L -3.3842 -19.1616  L -1.8842 -16.5635  L -4.74208 -14.9135  L -6.24208 -17.5116  L -12.0445 -14.1616  L -10.5445 -11.5635  L -13.4023 -9.91353  L -14.9023 -12.5116  L -18.2865 -10.5577  L -18.2865 -6.65  L -15.2865 -6.65  L -15.2865 -3.35  L -18.2865 -3.35  L -18.2865 3.35  L -15.2865 3.35  L -15.2865 6.65  L -18.2865 6.65  L -18.2865 10.5577  L -14.9023 12.5116  L -13.4023 9.91353  L -10.5445 11.5635  L -12.0445 14.1616  L -6.24208 17.5116  L -4.74208 14.9135  L -1.8842 16.5635  L -3.3842 19.1616  L 0 21.1155  L 3.3842 19.1616  z" fill="none" stroke="rgb(27, 158, 119)" /><path d="M -13.2187 -7.05449 L -12.7187 -7.92051  L 13.2187 7.05449  L 12.7187 7.92051  z" fill="none" stroke="rgb(217, 95, 2)" /></g><g transform="translate(3, 114.577)"><path d="M 1.8842 16.5635 L 4.74208 14.9135  L 6.24208 17.5116  L 12.0445 14.1616  L 10.5445 11.5635  L 13.4023 9.91353  L 14.9023 12.5116  L 18.2865 10.5577  L 18.2865 6.65  L 15.2865 6.65  L 15.2865 3.35  L 18.2865 3.35  L 18.2865 -3.35  L 15.2865 -3.35  L 15.2865 -6.65  L 18.2865 -6.65  L 18.2865 -10.5577  L 14.9023 -12.5116  L 13.4023 -9.91353  L 10.5445 -11.5635  L 12.0445 -14.1616  L 6.24208 -17.5116  L 4.74208 -14.9135  L 1.8842 -16.5635  L 3.3842 -19.1616  L 3.07674e-15 -21.1155  L -3.3842 -19.1616  L -1.8842 -16.5635  L -4.74208 -14.9135  L -6.24208 -17.5116  L -12.0445 -14.1616  L -10.5445 -11.5635  L -13.4023 -9.91353  L -14.9023 -12.5116  L -18.2865 -10.5577  L -18.2865 -6.65  L -15.2865 -6.65  L -15.2865 -3.35  L -18.2865 -3.35  L -18.2865 3.35  L -15.2865 3.35  L -15.2865 6.65  L -18.2865 6.65  L -18.2865 10.5577  L -14.9023 12.5116  L -13.4023 9.91353  L -10.5445 11.5635  L -12.0445 14.1616  L -6.24208 17.5116  L -4.74208 14.9135  L -1.8842 16.5635  L -3.3842 19.1616  L 0 21.1155  L 3.3842 19.1616  z" fill="none" stroke="rgb(27, 158, 119)" /><path d="M -14.975 0.5 L -14.975 -0.5  L 14.975 -0.5  L 14.975 0.5  z" fill="none" stroke="rgb(217, 95, 2)" /></g><g transform="translate(3, 159.808)"><path d="M 1.8842 16.5635 L 4.74208 14.9135  L 6.24208 17.5116  L 12.0445 14.1616  L 10.5445 11.5635  L 13.4023 9.91353  L 14.9023 12.5116  L 18.2865 10.5577  L 18.2865 6.65  L 15.2865 6.65  L 15.2865 3.35  L 18.2865 3.35  L 18.2865 -3.35  L 15.2865 -3.35  L 15.2865 -6.65  L 18.2865 -6.65  L 18.2865 -10.5577  L 14.9023 -12.5116  L 13.4023 -9.91353  L 10.5445 -11.5635  L 12.0445 -14.1616  L 6.24208 -17.5116  L 4.74208 -14.9135  L 1.8842 -16.5635  L 3.3842 -19.1616  L 3.07674e-15 -21.1155  L -3.3842 -19.1616  L -1.8842 -16.5635  L -4.74208 -14.9135  L -6.24208 -17.5116  L -12.0445 -14.1616  L -10.5445 -11.5635  L -13.4023 -9.91353  L -14.9023 -12.5116  L -18.2865 -10.5577  L -18.2865 -6.65  L -15.2865 -6.65  L -15.2865 -3.35  L -18.2865 -3.35  L -18.2865 3.35  L -15.2865 3.35  L -15.2865 6.65  L -18.2865 6.65  L -18.2865 10.5577  L -14.9023 12.5116  L -13.4023 9.91353  L -10.5445 11.5635  L -12.0445 14.1616  L -6.24208 17.5116  L -4.74208 14.9135  L -1.8842 16.5635  L -3.3842 19.1616  L 0 21.1155  L 3.3842 19.1616  z" fill="none" stroke="rgb(27, 158, 119)" /><path d="M -14.975 0.5 L -14.975 -0.5  L 14.975 -0.5  L 14.975 0.5  z" fill="none" stroke="rgb(217, 95, 2)" /></g><g transform="translate(3, 212.024)"><path d="M 8.81795 25.1 L 8.81795 -25.1  L 6.825 -25.1  L 6.825 -28.1  L 3.175 -28.1  L 3.175 -25.1  L -3.175 -25.1  L -3.175 -28.1  L -6.825 -28.1  L -6.825 -25.1  L -8.81795 -25.1  L -8.81795 25.1  L -6.825 25.1  L -6.825 28.1  L -3.175 28.1  L -3.175 25.1  L 3.175 25.1  L 3.175 28.1  L 6.825 28.1  L 6.825 25.1  z" fill="none" stroke="rgb(27, 158, 119)" /><path d="M -0.0736235 2.99909 L -0.147203 2.99638  L -0.220693 2.99186  L -0.294051 2.98555  L -0.367231 2.97743  L -0.44019 2.96752  L -0.512884 2.95583  L -0.585269 2.94235  L -0.657302 2.9271  L -0.728939 2.91009  L -0.800136 2.89132  L -0.870852 2.87081  L -0.941043 2.84858  L -1.01067 2.82463  L -1.07968 2.79897  L -1.14805 2.77163  L -1.21572 2.74262  L -1.28266 2.71196  L -1.34883 2.67967  L -1.41419 2.64576  L -1.47869 2.61025  L -1.5423 2.57318  L -1.60499 2.53455  L -1.66671 2.4944  L -1.72742 2.45275  L -1.78709 2.40962  L -1.84569 2.36503  L -1.90318 2.31903  L -1.95951 2.27162  L -2.01467 2.22285  L -2.06862 2.17274  L -2.12132 2.12132  L -2.17274 2.06862  L -2.22285 2.01467  L -2.27162 1.95951  L -2.31903 1.90318  L -2.36503 1.84569  L -2.40962 1.78709  L -2.45275 1.72742  L -2.4944 1.66671  L -2.53455 1.60499  L -2.57318 1.5423  L -2.61025 1.47869  L -2.64576 1.41419  L -2.67967 1.34883  L -2.71196 1.28266  L -2.74262 1.21572  L -2.77163 1.14805  L -2.79897 1.07968  L -2.82463 1.01067  L -2.84858 0.941043  L -2.87081 0.870852  L -2.89132 0.800136  L -2.91009 0.728939  L -2.9271 0.657302  L -2.94235 0.585269  L -2.95583 0.512884  L -2.96752 0.44019  L -2.97743 0.367231  L -2.98555 0.294051  L -2.99186 0.220693  L -2.99638 0.147203  L -2.99909 0.0736235  L -2.99999 0  L -2.99909 -0.0736235  L -2.99638 -0.147203  L -2.99186 -0.220693  L -2.98555 -0.294051  L -2.97743 -0.367231  L -2.96752 -0.44019  L -2.95583 -0.512884  L -2.94235 -0.585269  L -2.9271 -0.657302  L -2.91009 -0.728939  L -2.89132 -0.800136  L -2.87081 -0.870852  L -2.84858 -0.941043  L -2.82463 -1.01067  L -2.79897 -1.07968  L -2.77163 -1.14805  L -2.74262 -1.21572  L -2.71196 -1.28266  L -2.67967 -1.34883  L -2.64576 -1.41419  L -2.61025 -1.47869  L -2.57318 -1.5423  L -2.53455 -1.60499  L -2.4944 -1.66671  L -2.45275 -1.72742  L -2.40962 -1.78709  L -2.36503 -1.84569  L -2.31903 -1.90318  L -2.27162 -1.95951  L -2.22285 -2.01467  L -2.17274 -2.06862  L -2.12132 -2.12132  L -2.06862 -2.17274  L -2.01467 -2.22285  L -1.95951 -2.27162  L -1.90318 -2.31903  L -1.84569 -2.36503  L -1.78709 -2.40962  L -1.72742 -2.45275  L -1.66671 -2.4944  L -1.60499 -2.53455  L -1.5423 -2.57318  L -1.47869 -2.61025  L -1.41419 -2.64576  L -1.34883 -2.67967  L -1.28266 -2.71196  L -1.21572 -2.74262  L -1.14805 -2.77163  L -1.07968 -2.79897  L -1.01067 -2.82463  L -0.941043 -2.84858  L -0.870852 -2.87081  L -0.800136 -2.89132  L -0.728939 -2.91009  L -0.657302 -2.9271  L -0.585269 -2.94235  L -0.512884 -2.95583  L -0.44019 -2.96752  L -0.367231 -2.97743  L -0.294051 -2.98555  L -0.220693 -2.99186  L -0.147203 -2.99638  L -0.0736235 -2.99909  L -0 -2.99999  L 0.0736235 -2.99909  L 0.147203 -2.99638  L 0.220693 -2.99186  L 0.294051 -2.98555  L 0.367231 -2.97743  L 0.44019 -2.96752  L 0.512884 -2.95583  L 0.585269 -2.94235  L 0.657302 -2.9271  L 0.728939 -2.91009  L 0.800136 -2.89132  L 0.870852 -2.87081  L 0.941043 -2.84858  L 1.01067 -2.82463  L 1.07968 -2.79897  L 1.14805 -2.77163  L 1.21572 -2.74262  L 1.28266 -2.71196  L 1.34883 -2.67967  L 1.41419 -2.64576  L 1.47869 -2.61025  L 1.5423 -2.57318  L 1.60499 -2.53455  L 1.66671 -2.4944  L 1.72742 -2.45275  L 1.78709 -2.40962  L 1.84569 -2.36503  L 1.90318 -2.31903  L 1.95951 -2.27162  L 2.01467 -2.22285  L 2.06862 -2.17274  L 2.12132 -2.12132  L 2.17274 -2.06862  L 2.22285 -2.01467  L 2.27162 -1.95951  L 2.31903 -1.90318  L 2.36503 -1.84569  L 2.40962 -1.78709  L 2.45275 -1.72742  L 2.4944 -1.66671  L 2.53455 -1.60499  L 2.57318 -1.5423  L 2.61025 -1.47869  L 2.64576 -1.41419  L 2.67967 -1.34883  L 2.71196 -1.28266  L 2.74262 -1.21572  L 2.77163 -1.14805  L 2.79897 -1.07968  L 2.82463 -1.01067  L 2.84858 -0.941043  L 2.87081 -0.870852  L 2.89132 -0.800136  L 2.91009 -0.728939  L 2.9271 -0.657302  L 2.94235 -0.585269  L 2.95583 -0.512884  L 2.96752 -0.44019  L 2.97743 -0.367231  L 2.98555 -0.294051  L 2.99186 -0.220693  L 2.99638 -0.147203  L 2.99909 -0.0736235  L 2.99999 -2.84217e-14  L 2.99909 0.0736235  L 2.99638 0.147203  L 2.99186 0.220693  L 2.98555 0.294051  L 2.97743 0.367231  L 2.96752 0.44019  L 2.95583 0.512884  L 2.94235 0.585269  L 2.9271 0.657302  L 2.91009 0.728939  L 2.89132 0.800136  L 2.87081 0.870852  L 2.84858 0.941043  L 2.82463 1.01067  L 2.79897 1.07968  L 2.77163 1.14805  L 2.74262 1.21572  L 2.71196 1.28266  L 2.67967 1.34883  L 2.64576 1.41419  L 2.61025 1.47869  L 2.57318 1.5423  L 2.53455 1.60499  L 2.4944 1.66671  L 2.45275 1.72742  L 2.40962 1.78709  L 2.36503 1.84569  L 2.31903 1.90318  L 2.27162 1.95951  L 2.22285 2.01467  L 2.17274 2.06862  L 2.12132 2.12132  L 2.06862 2.17274  L 2.01467 2.22285  L 1.95951 2.27162  L 1.90318 2.31903  L 1.84569 2.36503  L 1.78709 2.40962  L 1.72742 2.45275  L 1.66671 2.4944  L 1.60499 2.53455  L 1.5423 2.57318  L 1.47869 2.61025  L 1.41419 2.64576  L 1.34883 2.67967  L 1.28266 2.71196  L 1.21572 2.74262  L 1.14805 2.77163  L 1.07968 2.79897  L 1.01067 2.82463  L 0.941043 2.84858  L 0.870852 2.87081  L 0.800136 2.89132  L 0.728939 2.91009  L 0.657302 2.9271  L 0.585269 2.94235  L 0.512884 2.95583  L 0.44019 2.96752  L 0.367231 2.97743  L 0.294051 2.98555  L 0.220693 2.99186  L 0.147203 2.99638  L 0.0736235 2.99909  L -0 2.99999  z" fill="none" stroke="rgb(217, 95, 2)" /></g><g transform="translate(3, 271.224)"><path d="M 8.81795 25.1 L 8.81795 -25.1  L 6.825 -25.1  L 6.825 -28.1  L 3.175 -28.1  L 3.175 -25.1  L -3.175 -25.1  L -3.175 -28.1  L -6.825 -28.1  L -6.825 -25.1  L -8.81795 -25.1  L -8.81795 25.1  L -6.825 25.1  L -6.825 28.1  L -3.175 28.1  L -3.175 25.1  L 3.175 25.1  L 3.175 28.1  L 6.825 28.1  L 6.825 25.1  z" fill="none" stroke="rgb(27, 158, 119)" /><path d="M -0.0736235 2.99909 L -0.147203 2.99638  L -0.220693 2.99186  L -0.294051 2.98555  L -0.367231 2.97743  L -0.44019 2.96752  L -0.512884 2.95583  L -0.585269 2.94235  L -0.657302 2.9271  L -0.728939 2.91009  L -0.800136 2.89132  L -0.870852 2.87081  L -0.941043 2.84858  L -1.01067 2.82463  L -1.07968 2.79897  L -1.14805 2.77163  L -1.21572 2.74262  L -1.28266 2.71196  L -1.34883 2.67967  L -1.41419 2.64576  L -1.47869 2.61025  L -1.5423 2.57318  L -1.60499 2.53455  L -1.66671 2.4944  L -1.72742 2.45275  L -1.78709 2.40962  L -1.84569 2.36503  L -1.90318 2.31903  L -1.95951 2.27162  L -2.01467 2.22285  L -2.06862 2.17274  L -2.12132 2.12132  L -2.17274 2.06862  L -2.22285 2.01467  L -2.27162 1.95951  L -2.31903 1.90318  L -2.36503 1.84569  L -2.40962 1.78709  L -2.45275 1.72742  L -2.4944 1.66671  L -2.53455 1.60499  L -2.57318 1.5423  L -2.61025 1.47869  L -2.64576 1.41419  L -2.67967 1.34883  L -2.71196 1.28266  L -2.74262 1.21572  L -2.77163 1.14805  L -2.79897 1.07968  L -2.82463 1.01067  L -2.84858 0.941043  L -2.87081 0.870852  L -2.89132 0.800136  L -2.91009 0.728939  L -2.9271 0.657302  L -2.94235 0.585269  L -2.95583 0.512884  L -2.96752 0.44019  L -2.97743 0.367231  L -2.98555 0.294051  L -2.99186 0.220693  L -2.99638 0.147203  L -2.99909 0.0736235  L -2.99999 0  L -2.99909 -0.0736235  L -2.99638 -0.147203  L -2.99186 -0.220693  L -2.98555 -0.294051  L -2.97743 -0.367231  L -2.96752 -0.44019  L -2.95583 -0.512884  L -2.94235 -0.585269  L -2.9271 -0.657302  L -2.91009 -0.728939  L -2.89132 -0.800136  L -2.87081 -0.870852  L -2.84858 -0.941043  L -2.82463 -1.01067  L -2.79897 -1.07968  L -2.77163 -1.14805  L -2.74262 -1.21572  L -2.71196 -1.28266  L -2.67967 -1.34883  L -2.64576 -1.41419  L -2.61025 -1.47869  L -2.57318 -1.5423  L -2.53455 -1.60499  L -2.4944 -1.66671  L -2.45275 -1.72742  L -2.40962 -1.78709  L -2.36503 -1.84569  L -2.31903 -1.90318  L -2.27162 -1.95951  L -2.22285 -2.01467  L -2.17274 -2.06862  L -2.12132 -2.12132  L -2.06862 -2.17274  L -2.01467 -2.22285  L -1.95951 -2.27162  L -1.90318 -2.31903  L -1.84569 -2.36503  L -1.78709 -2.40962  L -1.72742 -2.45275  L -1.66671 -2.4944  L -1.60499 -2.53455  L -1.5423 -2.57318  L -1.47869 -2.61025  L -1.41419 -2.64576  L -1.34883 -2.67967  L -1.28266 -2.71196  L -1.21572 -2.74262  L -1.14805 -2.77163  L -1.07968 -2.79897  L -1.01067 -2.82463  L -0.941043 -2.84858  L -0.870852 -2.87081  L -0.800136 -2.89132  L -0.728939 -2.91009  L -0.657302 -2.9271  L -0.585269 -2.94235  L -0.512884 -2.95583  L -0.44019 -2.96752  L -0.367231 -2.97743  L -0.294051 -2.98555  L -0.220693 -2.99186  L -0.147203 -2.99638  L -0.0736235 -2.99909  L -0 -2.99999  L 0.0736235 -2.99909  L 0.147203 -2.99638  L 0.220693 -2.99186  L 0.294051 -2.98555  L 0.367231 -2.97743  L 0.44019 -2.96752  L 0.512884 -2.95583  L 0.585269 -2.94235  L 0.657302 -2.9271  L 0.728939 -2.91009  L 0.800136 -2.89132  L 0.870852 -2.87081  L 0.941043 -2.84858  L 1.01067 -2.82463  L 1.07968 -2.79897  L 1.14805 -2.77163  L 1.21572 -2.74262  L 1.28266 -2.71196  L 1.34883 -2.67967  L 1.41419 -2.64576  L 1.47869 -2.61025  L 1.5423 -2.57318  L 1.60499 -2.53455  L 1.66671 -2.4944  L 1.72742 -2.45275  L 1.78709 -2.40962  L 1.84569 -2.36503  L 1.90318 -2.31903  L 1.95951 -2.27162  L 2.01467 -2.22285  L 2.06862 -2.17274  L 2.12132 -2.12132  L 2.17274 -2.06862  L 2.22285 -2.01467  L 2.27162 -1.95951  L 2.31903 -1.90318  L 2.36503 -1.84569  L 2.40962 -1.78709  L 2.45275 -1.72742  L 2.4944 -1.66671  L 2.53455 -1.60499  L 2.57318 -1.5423  L 2.61025 -1.47869  L 2.64576 -1.41419  L 2.67967 -1.34883  L 2.71196 -1.28266  L 2.74262 -1.21572  L 2.77163 -1.14805  L 2.79897 -1.07968  L 2.82463 -1.01067  L 2.84858 -0.941043  L 2.87081 -0.870852  L 2.89132 -0.800136  L 2.91009 -0.728939  L 2.9271 -0.657302  L 2.94235 -0.585269  L 2.95583 -0.512884  L 2.96752 -0.44019  L 2.97743 -0.367231  L 2.98555 -0.294051  L 2.99186 -0.220693  L 2.99638 -0.147203  L 2.99909 -0.0736235  L 2.99999 -2.84217e-14  L 2.99909 0.0736235  L 2.99638 0.147203  L 2.99186 0.220693  L 2.98555 0.294051  L 2.97743 0.367231  L 2.96752 0.44019  L 2.95583 0.512884  L 2.94235 0.585269  L 2.9271 0.657302  L 2.91009 0.728939  L 2.89132 0.800136  L 2.87081 0.870852  L 2.84858 0.941043  L 2.82463 1.01067  L 2.79897 1.07968  L 2.77163 1.14805  L 2.74262 1.21572  L 2.71196 1.28266  L 2.67967 1.34883  L 2.64576 1.41419  L 2.61025 1.47869  L 2.57318 1.5423  L 2.53455 1.60499  L 2.4944 1.66671  L 2.45275 1.72742  L 2.40962 1.78709  L 2.36503 1.84569  L 2.31903 1.90318  L 2.27162 1.95951  L 2.22285 2.01467  L 2.17274 2.06862  L 2.12132 2.12132  L 2.06862 2.17274  L 2.01467 2.22285  L 1.95951 2.27162  L 1.90318 2.31903  L 1.84569 2.36503  L 1.78709 2.40962  L 1.72742 2.45275  L 1.66671 2.4944  L 1.60499 2.53455  L 1.5423 2.57318  L 1.47869 2.61025  L 1.41419 2.64576  L 1.34883 2.67967  L 1.28266 2.71196  L 1.21572 2.74262  L 1.14805 2.77163  L 1.07968 2.79897  L 1.01067 2.82463  L 0.941043 2.84858  L 0.870852 2.87081  L 0.800136 2.89132  L 0.728939 2.91009  L 0.657302 2.9271  L 0.585269 2.94235  L 0.512884 2.95583  L 0.44019 2.96752  L 0.367231 2.97743  L 0.294051 2.98555  L 0.220693 2.99186  L 0.147203 2.99638  L 0.0736235 2.99909  L -0 2.99999  z" fill="none" stroke="rgb(217, 95, 2)" /></g><g transform="translate(33.1045, 31.1)"><path d="M 8.81795 25.1 L 8.81795 -25.1  L 6.825 -25.1  L 6.825 -28.1  L 3.175 -28.1  L 3.175 -25.1  L -3.175 -25.1  L -3.175 -28.1  L -6.825 -28.1  L -6.825 -25.1  L -8.81795 -25.1  L -8.81795 25.1  L -6.825 25.1  L -6.825 28.1  L -3.175 28.1  L -3.175 25.1  L 3.175 25.1  L 3.175 28.1  L 6.825 28.1  L 6.825 25.1  z" fill="none" stroke="rgb(27, 158, 119)" /><path d="M -0.0736235 2.99909 L -0.147203 2.99638  L -0.220693 2.99186  L -0.294051 2.98555  L -0.367231 2.97743  L -0.44019 2.96752  L -0.512884 2.95583  L -0.585269 2.94235  L -0.657302 2.9271  L -0.728939 2.91009  L -0.800136 2.89132  L -0.870852 2.87081  L -0.941043 2.84858  L -1.01067 2.82463  L -1.07968 2.79897  L -1.14805 2.77163  L -1.21572 2.74262  L -1.28266 2.71196  L -1.34883 2.67967  L -1.41419 2.64576  L -1.47869 2.61025  L -1.5423 2.57318  L -1.60499 2.53455  L -1.66671 2.4944  L -1.72742 2.45275  L -1.78709 2.40962  L -1.84569 2.36503  L -1.90318 2.31903  L -1.95951 2.27162  L -2.01467 2.22285  L -2.06862 2.17274  L -2.12132 2.12132  L -2.17274 2.06862  L -2.22285 2.01467  L -2.27162 1.95951  L -2.31903 1.90318  L -2.36503 1.84569  L -2.40962 1.78709  L -2.45275 1.72742  L -2.4944 1.66671  L -2.53455 1.60499  L -2.57318 1.5423  L -2.61025 1.47869  L -2.64576 1.41419  L -2.67967 1.34883  L -2.71196 1.28266  L -2.74262 1.21572  L -2.77163 1.14805  L -2.79897 1.07968  L -2.82463 1.01067  L -2.84858 0.941043  L -2.87081 0.870852  L -2.89132 0.800136  L -2.91009 0.728939  L -2.9271 0.657302  L -2.94235 0.585269  L -2.95583 0.512884  L -2.96752 0.44019  L -2.97743 0.367231  L -2.98555 0.294051  L -2.99186 0.220693  L -2.99638 0.147203  L -2.99909 0.0736235  L -2.99999 0  L -2.99909 -0.0736235  L -2.99638 -0.147203  L -2.99186 -0.220693  L -2.98555 -0.294051  L -2.97743 -0.367231  L -2.96752 -0.44019  L -2.95583 -0.512884  L -2.94235 -0.585269  L -2.9271 -0.657302  L -2.91009 -0.728939  L -2.89132 -0.800136  L -2.87081 -0.870852  L -2.84858 -0.941043  L -2.82463 -1.01067  L -2.79897 -1.07968  L -2.77163 -1.14805  L -2.74262 -1.21572  L -2.71196 -1.28266  L -2.67967 -1.34883  L -2.64576 -1.41419  L -2.61025 -1.47869  L -2.57318 -1.5423  L -2.53455 -1.60499  L -2.4944 -1.66671  L -2.45275 -1.72742  L -2.40962 -1.78709  L -2.36503 -1.84569  L -2.31903 -1.90318  L -2.27162 -1.95951  L -2.22285 -2.01467  L -2.17274 -2.06862  L -2.12132 -2.12132  L -2.06862 -2.17274  L -2.01467 -2.22285  L -1.95951 -2.27162  L -1.90318 -2.31903  L -1.84569 -2.36503  L -1.78709 -2.40962  L -1.72742 -2.45275  L -1.66671 -2.4944  L -1.60499 -2.53455  L -1.5423 -2.57318  L -1.47869 -2.61025  L -1.41419 -2.64576  L -1.34883 -2.67967  L -1.28266 -2.71196  L -1.21572 -2.74262  L -1.14805 -2.77163  L -1.07968 -2.79897  L -1.01067 -2.82463  L -0.941043 -2.84858  L -0.870852 -2.87081  L -0.800136 -2.89132  L -0.728939 -2.91009  L -0.657302 -2.9271  L -0.585269 -2.94235  L -0.512884 -2.95583  L -0.44019 -2.96752  L -0.367231 -2.97743  L -0.294051 -2.98555  L -0.220693 -2.99186  L -0.147203 -2.99638  L -0.0736235 -2.99909  L -0 -2.99999  L 0.0736235 -2.99909  L 0.147203 -2.99638  L 0.220693 -2.99186  L 0.294051 -2.98555  L 0.367231 -2.97743  L 0.44019 -2.96752  L 0.512884 -2.95583  L 0.585269 -2.94235  L 0.657302 -2.9271  L 0.728939 -2.91009  L 0.800136 -2.89132  L 0.870852 -2.87081  L 0.941043 -2.84858  L 1.01067 -2.82463  L 1.07968 -2.79897  L 1.14805 -2.77163  L 1.21572 -2.74262  L 1.28266 -2.71196  L 1.34883 -2.67967  L 1.41419 -2.64576  L 1.47869 -2.61025  L 1.5423 -2.57318  L 1.60499 -2.53455  L 1.66671 -2.4944  L 1.72742 -2.45275  L 1.78709 -2.40962  L 1.84569 -2.36503  L 1.90318 -2.31903  L 1.95951 -2.27162  L 2.01467 -2.22285  L 2.06862 -2.17274  L 2.12132 -2.12132  L 2.17274 -2.06862  L 2.22285 -2.01467  L 2.27162 -1.95951  L 2.31903 -1.90318  L 2.36503 -1.84569  L 2.40962 -1.78709  L 2.45275 -1.72742  L 2.4944 -1.66671  L 2.53455 -1.60499  L 2.57318 -1.5423  L 2.61025 -1.47869  L 2.64576 -1.41419  L 2.67967 -1.34883  L 2.71196 -1.28266  L 2.74262 -1.21572  L 2.77163 -1.14805  L 2.79897 -1.07968  L 2.82463 -1.01067  L 2.84858 -0.941043  L 2.87081 -0.870852  L 2.89132 -0.800136  L 2.91009 -0.728939  L 2.9271 -0.657302  L 2.94235 -0.585269  L 2.95583 -0.512884  L 2.96752 -0.44019  L 2.97743 -0.367231  L 2.98555 -0.294051  L 2.99186 -0.220693  L 2.99638 -0.147203  L 2.99909 -0.0736235  L 2.99999 -2.84217e-14  L 2.99909 0.0736235  L 2.99638 0.147203  L 2.99186 0.220693  L 2.98555 0.294051  L 2.97743 0.367231  L 2.96752 0.44019  L 2.95583 0.512884  L 2.94235 0.585269  L 2.9271 0.657302  L 2.91009 0.728939  L 2.89132 0.800136  L 2.87081 0.870852  L 2.84858 0.941043  L 2.82463 1.01067  L 2.79897 1.07968  L 2.77163 1.14805  L 2.74262 1.21572  L 2.71196 1.28266  L 2.67967 1.34883  L 2.64576 1.41419  L 2.61025 1.47869  L 2.57318 1.5423  L 2.53455 1.60499  L 2.4944 1.66671  L 2.45275 1.72742  L 2.40962 1.78709  L 2.36503 1.84569  L 2.31903 1.90318  L 2.27162 1.95951  L 2.22285 2.01467  L 2.17274 2.06862  L 2.12132 2.12132  L 2.06862 2.17274  L 2.01467 2.22285  L 1.95951 2.27162  L 1.90318 2.31903  L 1.84569 2.36503  L 1.78709 2.40962  L 1.72742 2.45275  L 1.66671 2.4944  L 1.60499 2.53455  L 1.5423 2.57318  L 1.47869 2.61025  L 1.41419 2.64576  L 1.34883 2.67967  L 1.28266 2.71196  L 1.21572 2.74262  L 1.14805 2.77163  L 1.07968 2.79897  L 1.01067 2.82463  L 0.941043 2.84858  L 0.870852 2.87081  L 0.800136 2.89132  L 0.728939 2.91009  L 0.657302 2.9271  L 0.585269 2.94235  L 0.512884 2.95583  L 0.44019 2.96752  L 0.367231 2.97743  L 0.294051 2.98555  L 0.220693 2.99186  L 0.147203 2.99638  L 0.0736235 2.99909  L -0 2.99999  z" fill="none" stroke="rgb(217, 95, 2)" /></g><g transform="translate(33.1045, 90.3)"><path d="M 8.81795 25.1 L 8.81795 -25.1  L 6.825 -25.1  L 6.825 -28.1  L 3.175 -28.1  L 3.175 -25.1  L -3.175 -25.1  L -3.175 -28.1  L -6.825 -28.1  L -6.825 -25.1  L -8.81795 -25.1  L -8.81795 25.1  L -6.825 25.1  L -6.825 28.1  L -3.175 28.1  L -3.175 25.1  L 3.175 25.1  L 3.175 28.1  L 6.825 28.1  L 6.825 25.1  z" fill="none" stroke="rgb(27, 158, 119)" /><path d="M -0.0736235 2.99909 L -0.147203 2.99638  L -0.220693 2.99186  L -0.294051 2.98555  L -0.367231 2.97743  L -0.44019 2.96752  L -0.512884 2.95583  L -0.585269 2.94235  L -0.657302 2.9271  L -0.728939 2.91009  L -0.800136 2.89132  L -0.870852 2.87081  L -0.941043 2.84858  L -1.01067 2.82463  L -1.07968 2.79897  L -1.14805 2.77163  L -1.21572 2.74262  L -1.28266 2.71196  L -1.34883 2.67967  L -1.41419 2.64576  L -1.47869 2.61025  L -1.5423 2.57318  L -1.60499 2.53455  L -1.66671 2.4944  L -1.72742 2.45275  L -1.78709 2.40962  L -1.84569 2.36503  L -1.90318 2.31903  L -1.95951 2.27162  L -2.01467 2.22285  L -2.06862 2.17274  L -2.12132 2.12132  L -2.17274 2.06862  L -2.22285 2.01467  L -2.27162 1.95951  L -2.31903 1.90318  L -2.36503 1.84569  L -2.40962 1.78709  L -2.45275 1.72742  L -2.4944 1.66671  L -2.53455 1.60499  L -2.57318 1.5423  L -2.61025 1.47869  L -2.64576 1.41419  L -2.67967 1.34883  L -2.71196 1.28266  L -2.74262 1.21572  L -2.77163 1.14805  L -2.79897 1.07968  L -2.82463 1.01067  L -2.84858 0.941043  L -2.87081 0.870852  L -2.89132 0.800136  L -2.91009 0.728939  L -2.9271 0.657302  L -2.94235 0.585269  L -2.95583 0.512884  L -2.96752 0.44019  L -2.97743 0.367231  L -2.98555 0.294051  L -2.99186 0.220693  L -2.99638 0.147203  L -2.99909 0.0736235  L -2.99999 0  L -2.99909 -0.0736235  L -2.99638 -0.147203  L -2.99186 -0.220693  L -2.98555 -0.294051  L -2.97743 -0.367231  L -2.96752 -0.44019  L -2.95583 -0.512884  L -2.94235 -0.585269  L -2.9271 -0.657302  L -2.91009 -0.728939  L -2.89132 -0.800136  L -2.87081 -0.870852  L -2.84858 -0.941043  L -2.82463 -1.01067  L -2.79897 -1.07968  L -2.77163 -1.14805  L -2.74262 -1.21572  L -2.71196 -1.28266  L -2.67967 -1.34883  L -2.64576 -1.41419  L -2.61025 -1.47869  L -2.57318 -1.5423  L -2.53455 -1.60499  L -2.4944 -1.66671  L -2.45275 -1.72742  L -2.40962 -1.78709  L -2.36503 -1.84569  L -2.31903 -1.90318  L -2.27162 -1.95951  L -2.22285 -2.01467  L -2.17274 -2.06862  L -2.12132 -2.12132  L -2.06862 -2.17274  L -2.01467 -2.22285  L -1.95951 -2.27162  L -1.90318 -2.31903  L -1.84569 -2.36503  L -1.78709 -2.40962  L -1.72742 -2.45275  L -1.66671 -2.4944  L -1.60499 -2.53455  L -1.5423 -2.57318  L -1.47869 -2.61025  L -1.41419 -2.64576  L -1.34883 -2.67967  L -1.28266 -2.71196  L -1.21572 -2.74262  L -1.14805 -2.77163  L -1.07968 -2.79897  L -1.01067 -2.82463  L -0.941043 -2.84858  L -0.870852 -2.87081  L -0.800136 -2.89132  L -0.728939 -2.91009  L -0.657302 -2.9271  L -0.585269 -2.94235  L -0.512884 -2.95583  L -0.44019 -2.96752  L -0.367231 -2.97743  L -0.294051 -2.98555  L -0.220693 -2.99186  L -0.147203 -2.99638  L -0.0736235 -2.99909  L -0 -2.99999  L 0.0736235 -2.99909  L 0.147203 -2.99638  L 0.220693 -2.99186  L 0.294051 -2.98555  L 0.367231 -2.97743  L 0.44019 -2.96752  L 0.512884 -2.95583  L 0.585269 -2.94235  L 0.657302 -2.9271  L 0.728939 -2.91009  L 0.800136 -2.89132  L 0.870852 -2.87081  L 0.941043 -2.84858  L 1.01067 -2.82463  L 1.07968 -2.79897  L 1.14805 -2.77163  L 1.21572 -2.74262  L 1.28266 -2.71196  L 1.34883 -2.67967  L 1.41419 -2.64576  L 1.47869 -2.61025  L 1.5423 -2.57318  L 1.60499 -2.53455  L 1.66671 -2.4944  L 1.72742 -2.45275  L 1.78709 -2.40962  L 1.84569 -2.36503  L 1.90318 -2.31903  L 1.95951 -2.27162  L 2.01467 -2.22285  L 2.06862 -2.17274  L 2.12132 -2.12132  L 2.17274 -2.06862  L 2.22285 -2.01467  L 2.27162 -1.95951  L 2.31903 -1.90318  L 2.36503 -1.84569  L 2.40962 -1.78709  L 2.45275 -1.72742  L 2.4944 -1.66671  L 2.53455 -1.60499  L 2.57318 -1.5423  L 2.61025 -1.47869  L 2.64576 -1.41419  L 2.67967 -1.34883  L 2.71196 -1.28266  L 2.74262 -1.21572  L 2.77163 -1.14805  L 2.79897 -1.07968  L 2.82463 -1.01067  L 2.84858 -0.941043  L 2.87081 -0.870852  L 2.89132 -0.800136  L 2.91009 -0.728939  L 2.9271 -0.657302  L 2.94235 -0.585269  L 2.95583 -0.512884  L 2.96752 -0.44019  L 2.97743 -0.367231  L 2.98555 -0.294051  L 2.99186 -0.220693  L 2.99638 -0.147203  L 2.99909 -0.0736235  L 2.99999 -2.84217e-14  L 2.99909 0.0736235  L 2.99638 0.147203  L 2.99186 0.220693  L 2.98555 0.294051  L 2.97743 0.367231  L 2.96752 0.44019  L 2.95583 0.512884  L 2.94235 0.585269  L 2.9271 0.657302  L 2.91009 0.728939  L 2.89132 0.800136  L 2.87081 0.870852  L 2.84858 0.941043  L 2.82463 1.01067  L 2.79897 1.07968  L 2.77163 1.14805  L 2.74262 1.21572  L 2.71196 1.28266  L 2.67967 1.34883  L 2.64576 1.41419  L 2.61025 1.47869  L 2.57318 1.5423  L 2.53455 1.60499  L 2.4944 1.66671  L 2.45275 1.72742  L 2.40962 1.78709  L 2.36503 1.84569  L 2.31903 1.90318  L 2.27162 1.95951  L 2.22285 2.01467  L 2.17274 2.06862  L 2.12132 2.12132  L 2.06862 2.17274  L 2.01467 2.22285  L 1.95951 2.27162  L 1.90318 2.31903  L 1.84569 2.36503  L 1.78709 2.40962  L 1.72742 2.45275  L 1.66671 2.4944  L 1.60499 2.53455  L 1.5423 2.57318  L 1.47869 2.61025  L 1.41419 2.64576  L 1.34883 2.67967  L 1.28266 2.71196  L 1.21572 2.74262  L 1.14805 2.77163  L 1.07968 2.79897  L 1.01067 2.82463  L 0.941043 2.84858  L 0.870852 2.87081  L 0.800136 2.89132  L 0.728939 2.91009  L 0.657302 2.9271  L 0.585269 2.94235  L 0.512884 2.95583  L 0.44019 2.96752  L 0.367231 2.97743  L 0.294051 2.98555  L 0.220693 2.99186  L 0.147203 2.99638  L 0.0736235 2.99909  L -0 2.99999  z" fill="none" stroke="rgb(217, 95, 2)" /></g><g transform="translate(33.1045, 149.5)"><path d="M 8.81795 25.1 L 8.81795 -25.1  L 6.825 -25.1  L 6.825 -28.1  L 3.175 -28.1  L 3.175 -25.1  L -3.175 -25.1  L -3.175 -28.1  L -6.825 -28.1  L -6.825 -25.1  L -8.81795 -25.1  L -8.81795 25.1  L -6.825 25.1  L -6.825 28.1  L -3.175 28.1  L -3.175 25.1  L 3.175 25.1  L 3.175 28.1  L 6.825 28.1  L 6.825 25.1  z" fill="none" stroke="rgb(27, 158, 119)" /></g><g transform="translate(33.1045, 208.7)"><path d="M 8.81795 25.1 L 8.81795 -25.1  L 6.825 -25.1  L 6.825 -28.1  L 3.175 -28.1  L 3.175 -25.1  L -3.175 -25.1  L -3.175 -28.1  L -6.825 -28.1  L -6.825 -25.1  L -8.81795 -25.1  L -8.81795 25.1  L -6.825 25.1  L -6.825 28.1  L -3.175 28.1  L -3.175 25.1  L 3.175 25.1  L 3.175 28.1  L 6.825 28.1  L 6.825 25.1  z" fill="none" stroke="rgb(27, 158, 119)" /></g></svg>