<?xml version="1.0" encoding="utf-8" ?>
<svg baseProfile="full" height="120.89282032302754mm" version="1.1" viewBox="-15.286533479473214,3.0,36.57306695894643,120.89282032302754" width="36.57306695894643mm" xmlns="http://www.w3.org/2000/svg" xmlns:ev="http://www.w3.org/2001/xml-events" xmlns:xlink="http://www.w3.org/1999/xlink"><defs /><g><path d="M 4.8842 40.679 L 7.74208 39.029  L 9.24208 41.6271  L 15.0445 38.2771  L 13.5445 35.679  L 16.4023 34.029  L 17.9023 36.6271  L 21.2865 34.6732  L 21.2865 30.7655  L 18.2865 30.7655  L 18.2865 27.4655  L 21.2865 27.4655  L 21.2865 20.7655  L 18.2865 20.7655  L 18.2865 17.4655  L 21.2865 17.4655  L 21.2865 13.5577  L 17.9023 11.6039  L 16.4023 14.2019  L 13.5445 12.5519  L 15.0445 9.95387  L 9.24208 6.60387  L 7.74208 9.20194  L 4.8842 7.55194  L 6.3842 4.95387  L 3 3  L -0.384198 4.95387  L 1.1158 7.55194  L -1.74208 9.20194  L -3.24208 6.60387  L -9.04445 9.95387  L -7.54445 12.5519  L -10.4023 14.2019  L -11.9023 11.6039  L -15.2865 13.5577  L -15.2865 17.4655  L -12.2865 17.4655  L -12.2865 20.7655  L -15.2865 20.7655  L -15.2865 27.4655  L -12.2865 27.4655  L -12.2865 30.7655  L -15.2865 30.7655  L -15.2865 34.6732  L -11.9023 36.6271  L -10.4023 34.029  L -7.54445 35.679  L -9.04445 38.2771  L -3.24208 41.6271  L -1.74208 39.029  L 1.1158 40.679  L -0.384198 43.2771  L 3 45.2309  L 6.3842 43.2771  z" fill="none" stroke="rgb(27, 158, 119)" /><path d="M 1.55 25.5655 L 1.55 22.6655  L 4.45 22.6655  L 4.45 25.5655  z" fill="none" stroke="rgb(217, 95, 2)" /></g><g><path d="M 1.55 64.7964 L 1.55 61.8964  L 4.45 61.8964  L 4.45 64.7964  z" fill="none" stroke="rgb(217, 95, 2)" /><path d="M 16.0904 55.7887 L 3 48.2309  L -10.0904 55.7887  L -10.0904 70.9041  L 3 78.4619  L 16.0904 70.9041  z" fill="none" stroke="rgb(27, 158, 119)" /></g><g><path d="M 1.55 95.0274 L 1.55 92.1274  L 4.45 92.1274  L 4.45 95.0274  z" fill="none" stroke="rgb(217, 95, 2)" /><path d="M 13.4923 87.5196 L 3 81.4619  L -7.4923 87.5196  L -7.4923 99.6351  L 3 105.693  L 13.4923 99.6351  z" fill="none" stroke="rgb(27, 158, 119)" /></g><g><path d="M 1.4 123.893 L 4.6 123.893  L 4.6 108.693  L 1.4 108.693  z" fill="none" stroke="rgb(27, 158, 119)" /></g></svg>