<?xml version="1.0" encoding="utf-8" ?>
<svg baseProfile="full" height="52.43094010767585mm" version="1.1" viewBox="-2.0,-23.215470053837926,106.45805400557678,52.43094010767585" width="106.45805400557678mm" xmlns="http://www.w3.org/2000/svg" xmlns:ev="http://www.w3.org/2001/xml-events" xmlns:xlink="http://www.w3.org/1999/xlink"><defs /><g transform="translate(21.3731, 3)"><path d="M 1.9275 16.6385 L 4.78538 14.9885  L 6.28538 17.5866  L 12.0878 14.2366  L 10.5878 11.6385  L 13.4456 9.98853  L 14.9456 12.5866  L 18.3731 10.6077  L 18.3731 6.65  L 15.3731 6.65  L 15.3731 3.35  L 18.3731 3.35  L 18.3731 -3.35  L 15.3731 -3.35  L 15.3731 -6.65  L 18.3731 -6.65  L 18.3731 -10.6077  L 14.9456 -12.5866  L 13.4456 -9.98853  L 10.5878 -11.6385  L 12.0878 -14.2366  L 6.28538 -17.5866  L 4.78538 -14.9885  L 1.9275 -16.6385  L 3.4275 -19.2366  L 0 -21.2155  L -3.4275 -19.2366  L -1.9275 -16.6385  L -4.78538 -14.9885  L -6.28538 -17.5866  L -12.0878 -14.2366  L -10.5878 -11.6385  L -13.4456 -9.98853  L -14.9456 -12.5866  L -18.3731 -10.6077  L -18.3731 -6.65  L -15.3731 -6.65  L -15.3731 -3.35  L -18.3731 -3.35  L -18.3731 3.35  L -15.3731 3.35  L -15.3731 6.65  L -18.3731 6.65  L -18.3731 10.6077  L -14.9456 12.5866  L -13.4456 9.98853  L -10.5878 11.6385  L -12.0878 14.2366  L -6.28538 17.5866  L -4.78538 14.9885  L -1.9275 16.6385  L -3.4275 19.2366  L 0 21.2155  L 3.4275 19.2366  z" fill="none" stroke="rgb(27, 158, 119)" /><path d="M -1.45 1.45 L -1.45 -1.45  L 1.45 -1.45  L 1.45 1.45  z" fill="none" stroke="rgb(217, 95, 2)" /></g><g transform="translate(55.9233, 3)"><path d="M -1.45 1.45 L -1.45 -1.45  L 1.45 -1.45  L 1.45 1.45  z" fill="none" stroke="rgb(217, 95, 2)" /><path d="M 13.177 -7.60774 L 4.61511e-15 -15.2155  L -13.177 -7.60774  L -13.177 7.60774  L -1.53837e-15 15.2155  L 13.177 7.60774  z" fill="none" stroke="rgb(27, 158, 119)" /></g><g transform="translate(82.6791, 3)"><path d="M -1.45 1.45 L -1.45 -1.45  L 1.45 -1.45  L 1.45 1.45  z" fill="none" stroke="rgb(217, 95, 2)" /><path d="M 10.5789 -6.10774 L 1.53837e-15 -12.2155  L -10.5789 -6.10774  L -10.5789 6.10774  L 0 12.2155  L 10.5789 6.10774  z" fill="none" stroke="rgb(27, 158, 119)" /></g><g transform="translate(97.8581, 3)"><path d="M -1.6 7.6 L 1.6 7.6  L 1.6 -7.6  L -1.6 -7.6  z" fill="none" stroke="rgb(27, 158, 119)" /></g></svg>