<?xml version="1.0" encoding="utf-8" ?>
<svg baseProfile="full" height="120.89282032302754mm" version="1.1" viewBox="-15.286533479473214,3.0,36.57306695894643,120.89282032302754" width="36.57306695894643mm" xmlns="http://www.w3.org/2000/svg" xmlns:ev="http://www.w3.org/2001/xml-events" xmlns:xlink="http://www.w3.org/1999/xlink"><defs /><g transform="translate(3, 24.1155)"><path d="M 1.8842 16.5635 L 4.74208 14.9135  L 6.24208 17.5116  L 12.0445 14.1616  L 10.5445 11.5635  L 13.4023 9.91353  L 14.9023 12.5116  L 18.2865 10.5577  L 18.2865 6.65  L 15.2865 6.65  L 15.2865 3.35  L 18.2865 3.35  L 18.2865 -3.35  L 15.2865 -3.35  L 15.2865 -6.65  L 18.2865 -6.65  L 18.2865 -10.5577  L 14.9023 -12.5116  L 13.4023 -9.91353  L 10.5445 -11.5635  L 12.0445 -14.1616  L 6.24208 -17.5116  L 4.74208 -14.9135  L 1.8842 -16.5635  L 3.3842 -19.1616  L 3.07674e-15 -21.1155  L -3.3842 -19.1616  L -1.8842 -16.5635  L -4.74208 -14.9135  L -6.24208 -17.5116  L -12.0445 -14.1616  L -10.5445 -11.5635  L -13.4023 -9.91353  L -14.9023 -12.5116  L -18.2865 -10.5577  L -18.2865 -6.65  L -15.2865 -6.65  L -15.2865 -3.35  L -18.2865 -3.35  L -18.2865 3.35  L -15.2865 3.35  L -15.2865 6.65  L -18.2865 6.65  L -18.2865 10.5577  L -14.9023 12.5116  L -13.4023 9.91353  L -10.5445 11.5635  L -12.0445 14.1616  L -6.24208 17.5116  L -4.74208 14.9135  L -1.8842 16.5635  L -3.3842 19.1616  L 0 21.1155  L 3.3842 19.1616  z" fill="none" stroke="rgb(27, 158, 119)" /><path d="M -1.45 1.45 L -1.45 -1.45  L 1.45 -1.45  L 1.45 1.45  z" fill="none" stroke="rgb(217, 95, 2)" /></g><g transform="translate(3, 63.3464)"><path d="M -1.45 1.45 L -1.45 -1.45  L 1.45 -1.45  L 1.45 1.45  z" fill="none" stroke="rgb(217, 95, 2)" /><path d="M 13.0904 -7.55774 L 3.07674e-15 -15.1155  L -13.0904 -7.55774  L -13.0904 7.55774  L -1.53837e-15 15.1155  L 13.0904 7.55774  z" fill="none" stroke="rgb(27, 158, 119)" /></g><g transform="translate(3, 93.5774)"><path d="M -1.45 1.45 L -1.45 -1.45  L 1.45 -1.45  L 1.45 1.45  z" fill="none" stroke="rgb(217, 95, 2)" /><path d="M 10.4923 -6.05774 L 1.53837e-15 -12.1155  L -10.4923 -6.05774  L -10.4923 6.05774  L 0 12.1155  L 10.4923 6.05774  z" fill="none" stroke="rgb(27, 158, 119)" /></g><g transform="translate(3, 116.293)"><path d="M -1.6 7.6 L 1.6 7.6  L 1.6 -7.6  L -1.6 -7.6  z" fill="none" stroke="rgb(27, 158, 119)" /></g></svg>