<?xml version="1.0" encoding="utf-8" ?>
<svg baseProfile="full" height="56.2mm" version="1.1" viewBox="-5.867949192431119,3.0,17.73589838486224,56.2" width="17.73589838486224mm" xmlns="http://www.w3.org/2000/svg" xmlns:ev="http://www.w3.org/2001/xml-events" xmlns:xlink="http://www.w3.org/1999/xlink"><defs /><path d="M 2.90429 34.9988 L 2.80864 34.9953  L 2.7131 34.9894  L 2.61773 34.9812  L 2.5226 34.9707  L 2.42775 34.9578  L 2.33325 34.9426  L 2.23915 34.9251  L 2.14551 34.9052  L 2.05238 34.8831  L 1.95982 34.8587  L 1.86789 34.8321  L 1.77664 34.8032  L 1.68613 34.772  L 1.59641 34.7387  L 1.50754 34.7031  L 1.41956 34.6654  L 1.33254 34.6256  L 1.24652 34.5836  L 1.16156 34.5395  L 1.0777 34.4933  L 0.995003 34.4451  L 0.913513 34.3949  L 0.83328 34.3427  L 0.754352 34.2886  L 0.676777 34.2325  L 0.600601 34.1745  L 0.525871 34.1147  L 0.452631 34.0531  L 0.380925 33.9897  L 0.310797 33.9246  L 0.242289 33.8577  L 0.175442 33.7892  L 0.110296 33.7191  L 0.0468912 33.6474  L -0.0147349 33.5741  L -0.0745451 33.4994  L -0.132503 33.4232  L -0.188575 33.3456  L -0.242725 33.2667  L -0.294923 33.1865  L -0.345135 33.105  L -0.393333 33.0223  L -0.439486 32.9384  L -0.483568 32.8535  L -0.525551 32.7675  L -0.565411 32.6804  L -0.603123 32.5925  L -0.638665 32.5036  L -0.672015 32.4139  L -0.703153 32.3234  L -0.73206 32.2321  L -0.758719 32.1402  L -0.783115 32.0476  L -0.805231 31.9545  L -0.825055 31.8609  L -0.842575 31.7668  L -0.857781 31.6722  L -0.870663 31.5774  L -0.881213 31.4823  L -0.889425 31.3869  L -0.895295 31.2914  L -0.898818 31.1957  L -0.899992 31.1  L -0.898818 31.0043  L -0.895295 30.9086  L -0.889425 30.8131  L -0.881213 30.7177  L -0.870663 30.6226  L -0.857781 30.5278  L -0.842575 30.4332  L -0.825055 30.3391  L -0.805231 30.2455  L -0.783115 30.1524  L -0.758719 30.0598  L -0.73206 29.9679  L -0.703153 29.8766  L -0.672015 29.7861  L -0.638665 29.6964  L -0.603123 29.6075  L -0.565411 29.5196  L -0.525551 29.4325  L -0.483568 29.3465  L -0.439486 29.2616  L -0.393333 29.1777  L -0.345135 29.095  L -0.294923 29.0135  L -0.242725 28.9333  L -0.188575 28.8544  L -0.132503 28.7768  L -0.0745451 28.7006  L -0.0147349 28.6259  L 0.0468912 28.5526  L 0.110296 28.4809  L 0.175442 28.4108  L 0.242289 28.3423  L 0.310797 28.2754  L 0.380925 28.2103  L 0.452631 28.1469  L 0.525871 28.0853  L 0.600601 28.0255  L 0.676777 27.9675  L 0.754352 27.9114  L 0.83328 27.8573  L 0.913513 27.8051  L 0.995003 27.7549  L 1.0777 27.7067  L 1.16156 27.6605  L 1.24652 27.6164  L 1.33254 27.5744  L 1.41956 27.5346  L 1.50754 27.4969  L 1.59641 27.4613  L 1.68613 27.428  L 1.77664 27.3968  L 1.86789 27.3679  L 1.95982 27.3413  L 2.05238 27.3169  L 2.14551 27.2948  L 2.23915 27.2749  L 2.33325 27.2574  L 2.42775 27.2422  L 2.5226 27.2293  L 2.61773 27.2188  L 2.7131 27.2106  L 2.80864 27.2047  L 2.90429 27.2012  L 3 27.2  L 3.09571 27.2012  L 3.19136 27.2047  L 3.2869 27.2106  L 3.38227 27.2188  L 3.4774 27.2293  L 3.57225 27.2422  L 3.66675 27.2574  L 3.76085 27.2749  L 3.85449 27.2948  L 3.94762 27.3169  L 4.04018 27.3413  L 4.13211 27.3679  L 4.22336 27.3968  L 4.31387 27.428  L 4.40359 27.4613  L 4.49246 27.4969  L 4.58044 27.5346  L 4.66746 27.5744  L 4.75348 27.6164  L 4.83844 27.6605  L 4.9223 27.7067  L 5.005 27.7549  L 5.08649 27.8051  L 5.16672 27.8573  L 5.24565 27.9114  L 5.32322 27.9675  L 5.3994 28.0255  L 5.47413 28.0853  L 5.54737 28.1469  L 5.61907 28.2103  L 5.6892 28.2754  L 5.75771 28.3423  L 5.82456 28.4108  L 5.8897 28.4809  L 5.95311 28.5526  L 6.01473 28.6259  L 6.07455 28.7006  L 6.1325 28.7768  L 6.18857 28.8544  L 6.24273 28.9333  L 6.29492 29.0135  L 6.34514 29.095  L 6.39333 29.1777  L 6.43949 29.2616  L 6.48357 29.3465  L 6.52555 29.4325  L 6.56541 29.5196  L 6.60312 29.6075  L 6.63866 29.6964  L 6.67201 29.7861  L 6.70315 29.8766  L 6.73206 29.9679  L 6.75872 30.0598  L 6.78311 30.1524  L 6.80523 30.2455  L 6.82506 30.3391  L 6.84258 30.4332  L 6.85778 30.5278  L 6.87066 30.6226  L 6.88121 30.7177  L 6.88943 30.8131  L 6.89529 30.9086  L 6.89882 31.0043  L 6.89999 31.1  L 6.89882 31.1957  L 6.89529 31.2914  L 6.88943 31.3869  L 6.88121 31.4823  L 6.87066 31.5774  L 6.85778 31.6722  L 6.84258 31.7668  L 6.82506 31.8609  L 6.80523 31.9545  L 6.78311 32.0476  L 6.75872 32.1402  L 6.73206 32.2321  L 6.70315 32.3234  L 6.67201 32.4139  L 6.63866 32.5036  L 6.60312 32.5925  L 6.56541 32.6804  L 6.52555 32.7675  L 6.48357 32.8535  L 6.43949 32.9384  L 6.39333 33.0223  L 6.34514 33.105  L 6.29492 33.1865  L 6.24273 33.2667  L 6.18857 33.3456  L 6.1325 33.4232  L 6.07455 33.4994  L 6.01473 33.5741  L 5.95311 33.6474  L 5.8897 33.7191  L 5.82456 33.7892  L 5.75771 33.8577  L 5.6892 33.9246  L 5.61907 33.9897  L 5.54737 34.0531  L 5.47413 34.1147  L 5.3994 34.1745  L 5.32322 34.2325  L 5.24565 34.2886  L 5.16672 34.3427  L 5.08649 34.3949  L 5.005 34.4451  L 4.9223 34.4933  L 4.83844 34.5395  L 4.75348 34.5836  L 4.66746 34.6256  L 4.58044 34.6654  L 4.49246 34.7031  L 4.40359 34.7387  L 4.31387 34.772  L 4.22336 34.8032  L 4.13211 34.8321  L 4.04018 34.8587  L 3.94762 34.8831  L 3.85449 34.9052  L 3.76085 34.9251  L 3.66675 34.9426  L 3.57225 34.9578  L 3.4774 34.9707  L 3.38227 34.9812  L 3.2869 34.9894  L 3.19136 34.9953  L 3.09571 34.9988  L 3 35  z" fill="none" stroke="blue" /><path d="M -1.925 14.525 L -1.925 11.675  L 7.925 11.675  L 7.925 14.525  z" fill="none" stroke="blue" /><path d="M 11.8679 56.2 L 11.8679 6  L 7.48397 6  L 7.48397 3  L -1.48397 3  L -1.48397 6  L -5.86795 6  L -5.86795 56.2  L -1.48397 56.2  L -1.48397 59.2  L 7.48397 59.2  L 7.48397 56.2  z" fill="none" stroke="blue" /></svg>