<?xml version="1.0" encoding="utf-8" ?>
<svg baseProfile="full" height="56.2mm" version="1.1" viewBox="-5.81794919243112,3.0,17.63589838486224,56.2" width="17.63589838486224mm" xmlns="http://www.w3.org/2000/svg" xmlns:ev="http://www.w3.org/2001/xml-events" xmlns:xlink="http://www.w3.org/1999/xlink"><defs /><g transform="translate(3, 31.1)"><path d="M 8.81795 25.1 L 8.81795 -25.1  L 6.825 -25.1  L 6.825 -28.1  L 3.175 -28.1  L 3.175 -25.1  L -3.175 -25.1  L -3.175 -28.1  L -6.825 -28.1  L -6.825 -25.1  L -8.81795 -25.1  L -8.81795 25.1  L -6.825 25.1  L -6.825 28.1  L -3.175 28.1  L -3.175 25.1  L 3.175 25.1  L 3.175 28.1  L 6.825 28.1  L 6.825 25.1  z" fill="none" stroke="rgb(27, 158, 119)" /><path d="M -0.0711694 2.89912 L -0.142296 2.8965  L -0.213337 2.89213  L -0.284249 2.88603  L -0.35499 2.87818  L -0.425517 2.8686  L -0.495788 2.8573  L -0.56576 2.84427  L -0.635392 2.82953  L -0.704641 2.81308  L -0.773465 2.79494  L -0.841823 2.77512  L -0.909675 2.75362  L -0.976978 2.73047  L -1.04369 2.70567  L -1.10978 2.67924  L -1.1752 2.6512  L -1.23991 2.62156  L -1.30387 2.59034  L -1.36705 2.55757  L -1.4294 2.52325  L -1.49089 2.48741  L -1.55149 2.45007  L -1.61115 2.41126  L -1.66984 2.37099  L -1.72752 2.3293  L -1.78417 2.2862  L -1.83974 2.24172  L -1.8942 2.1959  L -1.94752 2.14875  L -1.99966 2.10031  L -2.0506 2.0506  L -2.10031 1.99966  L -2.14875 1.94752  L -2.1959 1.8942  L -2.24172 1.83974  L -2.2862 1.78417  L -2.3293 1.72752  L -2.37099 1.66984  L -2.41126 1.61115  L -2.45007 1.55149  L -2.48741 1.49089  L -2.52325 1.4294  L -2.55757 1.36705  L -2.59034 1.30387  L -2.62156 1.23991  L -2.6512 1.1752  L -2.67924 1.10978  L -2.70567 1.04369  L -2.73047 0.976978  L -2.75362 0.909675  L -2.77512 0.841823  L -2.79494 0.773465  L -2.81308 0.704641  L -2.82953 0.635392  L -2.84427 0.56576  L -2.8573 0.495788  L -2.8686 0.425517  L -2.87818 0.35499  L -2.88603 0.284249  L -2.89213 0.213337  L -2.8965 0.142296  L -2.89912 0.0711694  L -2.89999 -2.84217e-14  L -2.89912 -0.0711694  L -2.8965 -0.142296  L -2.89213 -0.213337  L -2.88603 -0.284249  L -2.87818 -0.35499  L -2.8686 -0.425517  L -2.8573 -0.495788  L -2.84427 -0.56576  L -2.82953 -0.635392  L -2.81308 -0.704641  L -2.79494 -0.773465  L -2.77512 -0.841823  L -2.75362 -0.909675  L -2.73047 -0.976978  L -2.70567 -1.04369  L -2.67924 -1.10978  L -2.6512 -1.1752  L -2.62156 -1.23991  L -2.59034 -1.30387  L -2.55757 -1.36705  L -2.52325 -1.4294  L -2.48741 -1.49089  L -2.45007 -1.55149  L -2.41126 -1.61115  L -2.37099 -1.66984  L -2.3293 -1.72752  L -2.2862 -1.78417  L -2.24172 -1.83974  L -2.1959 -1.8942  L -2.14875 -1.94752  L -2.10031 -1.99966  L -2.0506 -2.0506  L -1.99966 -2.10031  L -1.94752 -2.14875  L -1.8942 -2.1959  L -1.83974 -2.24172  L -1.78417 -2.2862  L -1.72752 -2.3293  L -1.66984 -2.37099  L -1.61115 -2.41126  L -1.55149 -2.45007  L -1.49089 -2.48741  L -1.4294 -2.52325  L -1.36705 -2.55757  L -1.30387 -2.59034  L -1.23991 -2.62156  L -1.1752 -2.6512  L -1.10978 -2.67924  L -1.04369 -2.70567  L -0.976978 -2.73047  L -0.909675 -2.75362  L -0.841823 -2.77512  L -0.773465 -2.79494  L -0.704641 -2.81308  L -0.635392 -2.82953  L -0.56576 -2.84427  L -0.495788 -2.8573  L -0.425517 -2.8686  L -0.35499 -2.87818  L -0.284249 -2.88603  L -0.213337 -2.89213  L -0.142296 -2.8965  L -0.0711694 -2.89912  L -0 -2.89999  L 0.0711694 -2.89912  L 0.142296 -2.8965  L 0.213337 -2.89213  L 0.284249 -2.88603  L 0.35499 -2.87818  L 0.425517 -2.8686  L 0.495788 -2.8573  L 0.56576 -2.84427  L 0.635392 -2.82953  L 0.704641 -2.81308  L 0.773465 -2.79494  L 0.841823 -2.77512  L 0.909675 -2.75362  L 0.976978 -2.73047  L 1.04369 -2.70567  L 1.10978 -2.67924  L 1.1752 -2.6512  L 1.23991 -2.62156  L 1.30387 -2.59034  L 1.36705 -2.55757  L 1.4294 -2.52325  L 1.49089 -2.48741  L 1.55149 -2.45007  L 1.61115 -2.41126  L 1.66984 -2.37099  L 1.72752 -2.3293  L 1.78417 -2.2862  L 1.83974 -2.24172  L 1.8942 -2.1959  L 1.94752 -2.14875  L 1.99966 -2.10031  L 2.0506 -2.0506  L 2.10031 -1.99966  L 2.14875 -1.94752  L 2.1959 -1.8942  L 2.24172 -1.83974  L 2.2862 -1.78417  L 2.3293 -1.72752  L 2.37099 -1.66984  L 2.41126 -1.61115  L 2.45007 -1.55149  L 2.48741 -1.49089  L 2.52325 -1.4294  L 2.55757 -1.36705  L 2.59034 -1.30387  L 2.62156 -1.23991  L 2.6512 -1.1752  L 2.67924 -1.10978  L 2.70567 -1.04369  L 2.73047 -0.976978  L 2.75362 -0.909675  L 2.77512 -0.841823  L 2.79494 -0.773465  L 2.81308 -0.704641  L 2.82953 -0.635392  L 2.84427 -0.56576  L 2.8573 -0.495788  L 2.8686 -0.425517  L 2.87818 -0.35499  L 2.88603 -0.284249  L 2.89213 -0.213337  L 2.8965 -0.142296  L 2.89912 -0.0711694  L 2.89999 -2.84217e-14  L 2.89912 0.0711694  L 2.8965 0.142296  L 2.89213 0.213337  L 2.88603 0.284249  L 2.87818 0.35499  L 2.8686 0.425517  L 2.8573 0.495788  L 2.84427 0.56576  L 2.82953 0.635392  L 2.81308 0.704641  L 2.79494 0.773465  L 2.77512 0.841823  L 2.75362 0.909675  L 2.73047 0.976978  L 2.70567 1.04369  L 2.67924 1.10978  L 2.6512 1.1752  L 2.62156 1.23991  L 2.59034 1.30387  L 2.55757 1.36705  L 2.52325 1.4294  L 2.48741 1.49089  L 2.45007 1.55149  L 2.41126 1.61115  L 2.37099 1.66984  L 2.3293 1.72752  L 2.2862 1.78417  L 2.24172 1.83974  L 2.1959 1.8942  L 2.14875 1.94752  L 2.10031 1.99966  L 2.0506 2.0506  L 1.99966 2.10031  L 1.94752 2.14875  L 1.8942 2.1959  L 1.83974 2.24172  L 1.78417 2.2862  L 1.72752 2.3293  L 1.66984 2.37099  L 1.61115 2.41126  L 1.55149 2.45007  L 1.49089 2.48741  L 1.4294 2.52325  L 1.36705 2.55757  L 1.30387 2.59034  L 1.23991 2.62156  L 1.1752 2.6512  L 1.10978 2.67924  L 1.04369 2.70567  L 0.976978 2.73047  L 0.909675 2.75362  L 0.841823 2.77512  L 0.773465 2.79494  L 0.704641 2.81308  L 0.635392 2.82953  L 0.56576 2.84427  L 0.495788 2.8573  L 0.425517 2.8686  L 0.35499 2.87818  L 0.284249 2.88603  L 0.213337 2.89213  L 0.142296 2.8965  L 0.0711694 2.89912  L -0 2.89999  z" fill="none" stroke="rgb(217, 95, 2)" /></g></svg>