<?xml version="1.0" encoding="utf-8" ?>
<svg baseProfile="full" height="66.2mm" version="1.1" viewBox="-2.0,-30.1,27.73589838486224,66.2" width="27.73589838486224mm" xmlns="http://www.w3.org/2000/svg" xmlns:ev="http://www.w3.org/2001/xml-events" xmlns:xlink="http://www.w3.org/1999/xlink"><defs /><g transform="translate(11.8679, 3)"><path d="M 8.86795 25.1 L 8.86795 -25.1  L 6.825 -25.1  L 6.825 -28.1  L 3.175 -28.1  L 3.175 -25.1  L -3.175 -25.1  L -3.175 -28.1  L -6.825 -28.1  L -6.825 -25.1  L -8.86795 -25.1  L -8.86795 25.1  L -6.825 25.1  L -6.825 28.1  L -3.175 28.1  L -3.175 25.1  L 3.175 25.1  L 3.175 28.1  L 6.825 28.1  L 6.825 25.1  z" fill="none" stroke="rgb(27, 158, 119)" /><path d="M -0.0739122 2.99908 L -0.147779 2.99635  L -0.221557 2.9918  L -0.2952 2.98543  L -0.368664 2.97725  L -0.441904 2.96727  L -0.514876 2.95548  L -0.587535 2.9419  L -0.659837 2.92653  L -0.731739 2.90938  L -0.803197 2.89047  L -0.874167 2.86981  L -0.944606 2.8474  L -1.01447 2.82326  L -1.08372 2.79741  L -1.15231 2.76986  L -1.22021 2.74063  L -1.28736 2.70973  L -1.35373 2.67719  L -1.41928 2.64303  L -1.48396 2.60726  L -1.54775 2.56991  L -1.6106 2.531  L -1.67246 2.49055  L -1.73332 2.44858  L -1.79312 2.40514  L -1.85183 2.36023  L -1.90942 2.31389  L -1.96585 2.26614  L -2.02108 2.21702  L -2.07509 2.16655  L -2.12784 2.11477  L -2.1793 2.0617  L -2.22943 2.00739  L -2.27821 1.95185  L -2.32561 1.89513  L -2.37159 1.83726  L -2.41614 1.77827  L -2.45922 1.7182  L -2.5008 1.65709  L -2.54087 1.59497  L -2.57939 1.53189  L -2.61635 1.46788  L -2.65172 1.40297  L -2.68548 1.33721  L -2.71761 1.27064  L -2.74809 1.2033  L -2.77691 1.13523  L -2.80403 1.06647  L -2.82946 0.997062  L -2.85316 0.927049  L -2.87514 0.856473  L -2.89536 0.785377  L -2.91384 0.713804  L -2.93054 0.641798  L -2.94546 0.569402  L -2.95859 0.49666  L -2.96993 0.423617  L -2.97947 0.350317  L -2.98719 0.276804  L -2.99311 0.203123  L -2.9972 0.129319  L -2.99948 0.0554366  L -2.99994 -0.0184798  L -2.99857 -0.0923849  L -2.99538 -0.166234  L -2.99038 -0.239982  L -2.98356 -0.313585  L -2.97493 -0.386997  L -2.96449 -0.460174  L -2.95225 -0.533072  L -2.93822 -0.605646  L -2.92241 -0.677852  L -2.90482 -0.749647  L -2.88547 -0.820987  L -2.86437 -0.891828  L -2.84152 -0.962128  L -2.81696 -1.03184  L -2.79068 -1.10093  L -2.76271 -1.16935  L -2.73306 -1.23707  L -2.70175 -1.30403  L -2.66881 -1.37019  L -2.63424 -1.43553  L -2.59807 -1.5  L -2.56032 -1.56355  L -2.52103 -1.62616  L -2.4802 -1.68777  L -2.43786 -1.74837  L -2.39405 -1.8079  L -2.34878 -1.86633  L -2.30208 -1.92364  L -2.25399 -1.97977  L -2.20453 -2.0347  L -2.15373 -2.0884  L -2.10162 -2.14083  L -2.04824 -2.19195  L -1.99362 -2.24175  L -1.93778 -2.29019  L -1.88077 -2.33724  L -1.82261 -2.38286  L -1.76335 -2.42704  L -1.70302 -2.46975  L -1.64165 -2.51096  L -1.57929 -2.55064  L -1.51597 -2.58878  L -1.45173 -2.62534  L -1.38661 -2.66031  L -1.32064 -2.69367  L -1.25388 -2.72539  L -1.18635 -2.75545  L -1.1181 -2.78385  L -1.04918 -2.81055  L -0.979614 -2.83554  L -0.909456 -2.85882  L -0.838746 -2.88036  L -0.767526 -2.90015  L -0.695841 -2.91818  L -0.623733 -2.93444  L -0.551247 -2.94891  L -0.478426 -2.9616  L -0.405315 -2.97249  L -0.331957 -2.98157  L -0.258398 -2.98884  L -0.184682 -2.9943  L -0.110854 -2.99794  L -0.0369589 -2.99976  L 0.0369589 -2.99976  L 0.110854 -2.99794  L 0.184682 -2.9943  L 0.258398 -2.98884  L 0.331957 -2.98157  L 0.405315 -2.97249  L 0.478426 -2.9616  L 0.551247 -2.94891  L 0.623733 -2.93444  L 0.695841 -2.91818  L 0.767526 -2.90015  L 0.838746 -2.88036  L 0.909456 -2.85882  L 0.979614 -2.83554  L 1.04918 -2.81055  L 1.1181 -2.78385  L 1.18635 -2.75545  L 1.25388 -2.72539  L 1.32064 -2.69367  L 1.38661 -2.66031  L 1.45173 -2.62534  L 1.51597 -2.58878  L 1.57929 -2.55064  L 1.64165 -2.51096  L 1.70302 -2.46975  L 1.76335 -2.42704  L 1.82261 -2.38286  L 1.88077 -2.33724  L 1.93778 -2.29019  L 1.99362 -2.24175  L 2.04824 -2.19195  L 2.10162 -2.14083  L 2.15373 -2.0884  L 2.20453 -2.0347  L 2.25399 -1.97977  L 2.30208 -1.92364  L 2.34878 -1.86633  L 2.39405 -1.8079  L 2.43786 -1.74837  L 2.4802 -1.68777  L 2.52103 -1.62616  L 2.56032 -1.56355  L 2.59807 -1.5  L 2.63424 -1.43553  L 2.66881 -1.37019  L 2.70175 -1.30403  L 2.73306 -1.23707  L 2.76271 -1.16935  L 2.79068 -1.10093  L 2.81696 -1.03184  L 2.84152 -0.962128  L 2.86437 -0.891828  L 2.88547 -0.820987  L 2.90482 -0.749647  L 2.92241 -0.677852  L 2.93822 -0.605646  L 2.95225 -0.533072  L 2.96449 -0.460174  L 2.97493 -0.386997  L 2.98356 -0.313585  L 2.99038 -0.239982  L 2.99538 -0.166234  L 2.99857 -0.0923849  L 2.99994 -0.0184798  L 2.99948 0.0554366  L 2.9972 0.129319  L 2.99311 0.203123  L 2.98719 0.276804  L 2.97947 0.350317  L 2.96993 0.423617  L 2.95859 0.49666  L 2.94546 0.569402  L 2.93054 0.641798  L 2.91384 0.713804  L 2.89536 0.785377  L 2.87514 0.856473  L 2.85316 0.927049  L 2.82946 0.997062  L 2.80403 1.06647  L 2.77691 1.13523  L 2.74809 1.2033  L 2.71761 1.27064  L 2.68548 1.33721  L 2.65172 1.40297  L 2.61635 1.46788  L 2.57939 1.53189  L 2.54087 1.59497  L 2.5008 1.65709  L 2.45922 1.7182  L 2.41614 1.77827  L 2.37159 1.83726  L 2.32561 1.89513  L 2.27821 1.95185  L 2.22943 2.00739  L 2.1793 2.0617  L 2.12784 2.11477  L 2.07509 2.16655  L 2.02108 2.21702  L 1.96585 2.26614  L 1.90942 2.31389  L 1.85183 2.36023  L 1.79312 2.40514  L 1.73332 2.44858  L 1.67246 2.49055  L 1.6106 2.531  L 1.54775 2.56991  L 1.48396 2.60726  L 1.41928 2.64303  L 1.35373 2.67719  L 1.28736 2.70973  L 1.22021 2.74063  L 1.15231 2.76986  L 1.08372 2.79741  L 1.01447 2.82326  L 0.944606 2.8474  L 0.874167 2.86981  L 0.803197 2.89047  L 0.731739 2.90938  L 0.659837 2.92653  L 0.587535 2.9419  L 0.514876 2.95548  L 0.441904 2.96727  L 0.368664 2.97725  L 0.2952 2.98543  L 0.221557 2.9918  L 0.147779 2.99635  L 0.0739122 2.99908  L -0 2.99999  z" fill="none" stroke="rgb(217, 95, 2)" /></g></svg>