<?xml version="1.0" encoding="utf-8" ?>
<svg baseProfile="full" height="66.2mm" version="1.1" viewBox="-2.0,-30.1,27.73589838486224,66.2" width="27.73589838486224mm" xmlns="http://www.w3.org/2000/svg" xmlns:ev="http://www.w3.org/2001/xml-events" xmlns:xlink="http://www.w3.org/1999/xlink"><defs /><g transform="translate(11.8679, 3)"><path d="M 8.86795 25.1 L 8.86795 -25.1  L 6.825 -25.1  L 6.825 -28.1  L 3.175 -28.1  L 3.175 -25.1  L -3.175 -25.1  L -3.175 -28.1  L -6.825 -28.1  L -6.825 -25.1  L -8.86795 -25.1  L -8.86795 25.1  L -6.825 25.1  L -6.825 28.1  L -3.175 28.1  L -3.175 25.1  L 3.175 25.1  L 3.175 28.1  L 6.825 28.1  L 6.825 25.1  z" fill="none" stroke="rgb(27, 158, 119)" /><path d="M -0.0739122 10.999 L -0.147779 10.9962  L -0.221557 10.9917  L -0.2952 10.9853  L -0.368664 10.9771  L -0.441904 10.9671  L -0.514876 10.9554  L -0.587535 10.9418  L -0.659837 10.9264  L -0.731739 10.9093  L -0.803197 10.8904  L -0.874167 10.8697  L -0.944606 10.8473  L -1.01447 10.8231  L -1.08372 10.7973  L -1.15231 10.7697  L -1.22021 10.7405  L -1.28736 10.7096  L -1.35373 10.6771  L -1.41928 10.6429  L -1.48396 10.6071  L -1.54775 10.5698  L -1.6106 10.5309  L -1.67246 10.4904  L -1.73332 10.4485  L -1.79312 10.405  L -1.85183 10.3601  L -1.90942 10.3138  L -1.96585 10.266  L -2.02108 10.2169  L -2.07509 10.1664  L -2.12784 10.1147  L -2.1793 10.0616  L -2.22943 10.0073  L -2.27821 9.95173  L -2.32561 9.89501  L -2.37159 9.83714  L -2.41614 9.77815  L -2.45922 9.71808  L -2.5008 9.65697  L -2.54087 9.59486  L -2.57939 9.53177  L -2.61635 9.46776  L -2.65172 9.40285  L -2.68548 9.33709  L -2.71761 9.27052  L -2.74809 9.20318  L -2.77691 9.13511  L -2.80403 9.06635  L -2.82946 8.99694  L -2.85316 8.92693  L -2.87514 8.85635  L -2.89536 8.78526  L -2.91384 8.71369  L -2.93054 8.64168  L -2.94546 8.56928  L -2.95859 8.49654  L -2.96993 8.4235  L -2.97947 8.3502  L -2.98719 8.27669  L -2.99311 8.20301  L -2.9972 8.1292  L -2.99948 8.05532  L -2.99994 7.9814  L -2.99857 7.9075  L -2.99538 7.83365  L -2.99038 7.7599  L -2.98356 7.6863  L -2.97493 7.61289  L -2.96449 7.53971  L -2.95225 7.46681  L -2.93822 7.39424  L -2.92241 7.32203  L -2.90482 7.25024  L -2.88547 7.1789  L -2.86437 7.10805  L -2.84152 7.03775  L -2.81696 6.96804  L -2.79068 6.89895  L -2.76271 6.83053  L -2.73306 6.76282  L -2.70175 6.69586  L -2.66881 6.62969  L -2.63424 6.56435  L -2.59807 6.49989  L -2.56032 6.43633  L -2.52103 6.37373  L -2.4802 6.31211  L -2.43786 6.25151  L -2.39405 6.19198  L -2.34878 6.13355  L -2.30208 6.07625  L -2.25399 6.02011  L -2.20453 5.96518  L -2.15373 5.91149  L -2.10162 5.85906  L -2.04824 5.80793  L -1.99362 5.75813  L -1.93778 5.70969  L -1.88077 5.66265  L -1.82261 5.61702  L -1.76335 5.57284  L -1.70302 5.53013  L -1.64165 5.48892  L -1.57929 5.44924  L -1.51597 5.4111  L -1.45173 5.37454  L -1.38661 5.33957  L -1.32064 5.30621  L -1.25388 5.27449  L -1.18635 5.24443  L -1.1181 5.21604  L -1.04918 5.18933  L -0.979614 5.16434  L -0.909456 5.14106  L -0.838746 5.11952  L -0.767526 5.09973  L -0.695841 5.0817  L -0.623733 5.06545  L -0.551247 5.05097  L -0.478426 5.03828  L -0.405315 5.0274  L -0.331957 5.01831  L -0.258398 5.01104  L -0.184682 5.00558  L -0.110854 5.00194  L -0.0369589 5.00012  L 0.0369589 5.00012  L 0.110854 5.00194  L 0.184682 5.00558  L 0.258398 5.01104  L 0.331957 5.01831  L 0.405315 5.0274  L 0.478426 5.03828  L 0.551247 5.05097  L 0.623733 5.06545  L 0.695841 5.0817  L 0.767526 5.09973  L 0.838746 5.11952  L 0.909456 5.14106  L 0.979614 5.16434  L 1.04918 5.18933  L 1.1181 5.21604  L 1.18635 5.24443  L 1.25388 5.27449  L 1.32064 5.30621  L 1.38661 5.33957  L 1.45173 5.37454  L 1.51597 5.4111  L 1.57929 5.44924  L 1.64165 5.48892  L 1.70302 5.53013  L 1.76335 5.57284  L 1.82261 5.61702  L 1.88077 5.66265  L 1.93778 5.70969  L 1.99362 5.75813  L 2.04824 5.80793  L 2.10162 5.85906  L 2.15373 5.91149  L 2.20453 5.96518  L 2.25399 6.02011  L 2.30208 6.07625  L 2.34878 6.13355  L 2.39405 6.19198  L 2.43786 6.25151  L 2.4802 6.31211  L 2.52103 6.37373  L 2.56032 6.43633  L 2.59807 6.49989  L 2.63424 6.56435  L 2.66881 6.62969  L 2.70175 6.69586  L 2.73306 6.76282  L 2.76271 6.83053  L 2.79068 6.89895  L 2.81696 6.96804  L 2.84152 7.03775  L 2.86437 7.10805  L 2.88547 7.1789  L 2.90482 7.25024  L 2.92241 7.32203  L 2.93822 7.39424  L 2.95225 7.46681  L 2.96449 7.53971  L 2.97493 7.61289  L 2.98356 7.6863  L 2.99038 7.7599  L 2.99538 7.83365  L 2.99857 7.9075  L 2.99994 7.9814  L 2.99948 8.05532  L 2.9972 8.1292  L 2.99311 8.20301  L 2.98719 8.27669  L 2.97947 8.3502  L 2.96993 8.4235  L 2.95859 8.49654  L 2.94546 8.56928  L 2.93054 8.64168  L 2.91384 8.71369  L 2.89536 8.78526  L 2.87514 8.85635  L 2.85316 8.92693  L 2.82946 8.99694  L 2.80403 9.06635  L 2.77691 9.13511  L 2.74809 9.20318  L 2.71761 9.27052  L 2.68548 9.33709  L 2.65172 9.40285  L 2.61635 9.46776  L 2.57939 9.53177  L 2.54087 9.59486  L 2.5008 9.65697  L 2.45922 9.71808  L 2.41614 9.77815  L 2.37159 9.83714  L 2.32561 9.89501  L 2.27821 9.95173  L 2.22943 10.0073  L 2.1793 10.0616  L 2.12784 10.1147  L 2.07509 10.1664  L 2.02108 10.2169  L 1.96585 10.266  L 1.90942 10.3138  L 1.85183 10.3601  L 1.79312 10.405  L 1.73332 10.4485  L 1.67246 10.4904  L 1.6106 10.5309  L 1.54775 10.5698  L 1.48396 10.6071  L 1.41928 10.6429  L 1.35373 10.6771  L 1.28736 10.7096  L 1.22021 10.7405  L 1.15231 10.7697  L 1.08372 10.7973  L 1.01447 10.8231  L 0.944606 10.8473  L 0.874167 10.8697  L 0.803197 10.8904  L 0.731739 10.9093  L 0.659837 10.9264  L 0.587535 10.9418  L 0.514876 10.9554  L 0.441904 10.9671  L 0.368664 10.9771  L 0.2952 10.9853  L 0.221557 10.9917  L 0.147779 10.9962  L 0.0739122 10.999  L -0 10.9999  z" fill="none" stroke="rgb(217, 95, 2)" /><path d="M -4.925 -16.575 L -4.925 -19.425  L 4.925 -19.425  L 4.925 -16.575  z" fill="none" stroke="rgb(217, 95, 2)" /></g></svg>