<?xml version="1.0" encoding="utf-8" ?>
<svg baseProfile="full" height="66.2mm" version="1.1" viewBox="-15.867949192431121,-33.1,31.735898384862242,66.2" width="31.735898384862242mm" xmlns="http://www.w3.org/2000/svg" xmlns:ev="http://www.w3.org/2001/xml-events" xmlns:xlink="http://www.w3.org/1999/xlink"><defs /><g><path d="M 10.8679 25.1 L 10.8679 -25.1  L 6.85 -25.1  L 6.85 -28.1  L 3.15 -28.1  L 3.15 -25.1  L -3.15 -25.1  L -3.15 -28.1  L -6.85 -28.1  L -6.85 -25.1  L -10.8679 -25.1  L -10.8679 25.1  L -6.85 25.1  L -6.85 28.1  L -3.15 28.1  L -3.15 25.1  L 3.15 25.1  L 3.15 28.1  L 6.85 28.1  L 6.85 25.1  z" fill="none" stroke="rgb(27, 158, 119)" /><path d="M -1.4 9.90772 L -1.4 2.53347  L -1.6621 2.388  L -2.10877 2.00454  L -2.46912 1.53901  L -2.72838 1.01048  L -2.87593 0.440577  L -2.90575 -0.147363  L -2.81661 -0.72927  L -2.61215 -1.28132  L -2.30075 -1.78091  L -1.89516 -2.20759  L -1.41198 -2.5439  L -0.870992 -2.77605  L -0.294348 -2.89456  L 0.294348 -2.89456  L 0.870992 -2.77605  L 1.41198 -2.5439  L 1.89516 -2.20759  L 2.30075 -1.78091  L 2.61215 -1.28132  L 2.81661 -0.72927  L 2.90575 -0.147363  L 2.87593 0.440577  L 2.72838 1.01048  L 2.46912 1.53901  L 2.10877 2.00454  L 1.6621 2.388  L 1.4 2.53347  L 1.4 9.90772  z" fill="none" stroke="rgb(217, 95, 2)" /></g></svg>