<?xml version="1.0" encoding="utf-8" ?>
<svg baseProfile="full" height="53.50127018922194mm" version="1.1" viewBox="-10.1,-26.75063509461097,20.2,53.50127018922194" width="20.2mm" xmlns="http://www.w3.org/2000/svg" xmlns:ev="http://www.w3.org/2001/xml-events" xmlns:xlink="http://www.w3.org/1999/xlink"><defs /><g><path d="M -0.189167 11.8892 L -0.376453 11.861  L -0.559998 11.8142  L -0.737978 11.7494  L -0.908623 11.6673  L -1.07024 11.5685  L -1.22122 11.4541  L -1.36006 11.3253  L -1.48538 11.1833  L -1.59594 11.0295  L -1.69065 10.8655  L -1.76854 10.6929  L -1.82887 10.5133  L -1.87101 10.3287  L -1.89456 10.1407  L -1.89929 9.95139  L -1.88513 9.76252  L -1.85224 9.57599  L -1.80094 9.39367  L -1.73175 9.21736  L -1.64534 9.04882  L -1.54258 8.88972  L -1.42449 8.74164  L -1.29224 8.60605  L -1.14715 8.4843  L -0.990662 8.37761  L -0.824325 8.28703  L -0.649796 8.21346  L -0.468808 8.15763  L -0.283162 8.1201  L -0.094701 8.10124  L 0.094701 8.10124  L 0.283162 8.1201  L 0.468808 8.15763  L 0.649796 8.21346  L 0.824325 8.28703  L 0.990662 8.37761  L 1.14715 8.4843  L 1.29224 8.60605  L 1.42449 8.74164  L 1.54258 8.88972  L 1.64534 9.04882  L 1.73175 9.21736  L 1.80094 9.39367  L 1.85224 9.57599  L 1.88513 9.76252  L 1.89929 9.95139  L 1.89456 10.1407  L 1.87101 10.3287  L 1.82887 10.5133  L 1.76854 10.6929  L 1.69065 10.8655  L 1.59594 11.0295  L 1.48538 11.1833  L 1.36006 11.3253  L 1.22122 11.4541  L 1.07024 11.5685  L 0.908623 11.6673  L 0.737978 11.7494  L 0.559998 11.8142  L 0.376453 11.861  L 0.189167 11.8892  L -0 11.8986  z" fill="none" stroke="rgb(217, 95, 2)" /><path d="M -0.189167 1.89043 L -0.376453 1.86221  L -0.559998 1.81547  L -0.737978 1.75069  L -0.908623 1.66851  L -1.07024 1.56975  L -1.22122 1.45539  L -1.36006 1.32656  L -1.48538 1.18455  L -1.59594 1.03077  L -1.69065 0.866743  L -1.76854 0.694102  L -1.82887 0.514563  L -1.87101 0.32991  L -1.89456 0.141978  L -1.89929 -0.0473652  L -1.88513 -0.236238  L -1.85224 -0.422762  L -1.80094 -0.605085  L -1.73175 -0.781394  L -1.64534 -0.949938  L -1.54258 -1.10904  L -1.42449 -1.25712  L -1.29224 -1.39271  L -1.14715 -1.51445  L -0.990662 -1.62115  L -0.824325 -1.71173  L -0.649796 -1.7853  L -0.468808 -1.84113  L -0.283162 -1.87866  L -0.094701 -1.89751  L 0.094701 -1.89751  L 0.283162 -1.87866  L 0.468808 -1.84113  L 0.649796 -1.7853  L 0.824325 -1.71173  L 0.990662 -1.62115  L 1.14715 -1.51445  L 1.29224 -1.39271  L 1.42449 -1.25712  L 1.54258 -1.10904  L 1.64534 -0.949938  L 1.73175 -0.781394  L 1.80094 -0.605085  L 1.85224 -0.422762  L 1.88513 -0.236238  L 1.89929 -0.0473652  L 1.89456 0.141978  L 1.87101 0.32991  L 1.82887 0.514563  L 1.76854 0.694102  L 1.69065 0.866743  L 1.59594 1.03077  L 1.48538 1.18455  L 1.36006 1.32656  L 1.22122 1.45539  L 1.07024 1.56975  L 0.908623 1.66851  L 0.737978 1.75069  L 0.559998 1.81547  L 0.376453 1.86221  L 0.189167 1.89043  L -0 1.89988  z" fill="none" stroke="rgb(217, 95, 2)" /><path d="M -5.1 -21.7506 L -5.1 21.7506  L 5.1 21.7506  L 5.1 -21.7506  z" fill="none" stroke="rgb(27, 158, 119)" /></g></svg>