<?xml version="1.0" encoding="utf-8" ?>
<svg baseProfile="full" height="50.2mm" version="1.1" viewBox="-15.867949192431121,-25.1,31.735898384862242,50.2" width="31.735898384862242mm" xmlns="http://www.w3.org/2000/svg" xmlns:ev="http://www.w3.org/2001/xml-events" xmlns:xlink="http://www.w3.org/1999/xlink"><defs /><g><path d="M 10.8679 17.1 L 10.8679 -17.1  L 6.85 -17.1  L 6.85 -20.1  L 3.15 -20.1  L 3.15 -17.1  L -3.15 -17.1  L -3.15 -20.1  L -6.85 -20.1  L -6.85 -17.1  L -10.8679 -17.1  L -10.8679 17.1  L -6.85 17.1  L -6.85 20.1  L -3.15 20.1  L -3.15 17.1  L 3.15 17.1  L 3.15 20.1  L 6.85 20.1  L 6.85 17.1  z" fill="none" stroke="rgb(27, 158, 119)" /><path d="M -0.585675 10.8422 L -1.14737 10.666  L -1.6621 10.3803  L -2.10877 9.99682  L -2.46912 9.53129  L -2.72838 9.00276  L -2.87593 8.43286  L -2.90575 7.84492  L -2.81661 7.26301  L -2.61215 6.71096  L -2.30075 6.21137  L -1.89516 5.78468  L -1.41198 5.44838  L -0.870992 5.21623  L -0.294348 5.09772  L 0.294348 5.09772  L 0.870992 5.21623  L 1.41198 5.44838  L 1.89516 5.78468  L 2.30075 6.21137  L 2.61215 6.71096  L 2.81661 7.26301  L 2.90575 7.84492  L 2.87593 8.43286  L 2.72838 9.00276  L 2.46912 9.53129  L 2.10877 9.99682  L 1.6621 10.3803  L 1.14737 10.666  L 0.585675 10.8422  L -0 10.9018  z" fill="none" stroke="rgb(217, 95, 2)" /></g></svg>