solid OpenSCAD_Model
  facet normal 0.866025 0.5 0
    outer loop
      vertex 21 0 4
      vertex 10.5 18.1865 -4
      vertex 10.5 18.1865 4
    endloop
  endfacet
  facet normal 0.866025 0.5 0
    outer loop
      vertex 10.5 18.1865 -4
      vertex 21 0 4
      vertex 21 0 -4
    endloop
  endfacet
  facet normal -0.866025 0.5 0
    outer loop
      vertex -21 0 -4
      vertex -10.5 18.1865 4
      vertex -10.5 18.1865 -4
    endloop
  endfacet
  facet normal -0.866025 0.5 0
    outer loop
      vertex -10.5 18.1865 4
      vertex -21 0 -4
      vertex -21 0 4
    endloop
  endfacet
  facet normal 0 1 -0
    outer loop
      vertex 10.5 18.1865 -4
      vertex -10.5 18.1865 4
      vertex 10.5 18.1865 4
    endloop
  endfacet
  facet normal 0 1 0
    outer loop
      vertex -10.5 18.1865 4
      vertex 10.5 18.1865 -4
      vertex -10.5 18.1865 -4
    endloop
  endfacet
  facet normal -0 0 1
    outer loop
      vertex 3 15.75 4
      vertex 21 0 4
      vertex 10.5 18.1865 4
    endloop
  endfacet
  facet normal 0 0 1
    outer loop
      vertex 3 -15.75 4
      vertex 21 0 4
      vertex 3 15.75 4
    endloop
  endfacet
  facet normal 0 0 1
    outer loop
      vertex 10.5 18.1865 4
      vertex -3 15.75 4
      vertex 3 15.75 4
    endloop
  endfacet
  facet normal 0 0 1
    outer loop
      vertex -21 0 4
      vertex -3 15.75 4
      vertex -10.5 18.1865 4
    endloop
  endfacet
  facet normal -0 0 1
    outer loop
      vertex -10.5 18.1865 4
      vertex -3 15.75 4
      vertex 10.5 18.1865 4
    endloop
  endfacet
  facet normal 0 0 1
    outer loop
      vertex 21 0 4
      vertex 3 -15.75 4
      vertex 10.5 -18.1865 4
    endloop
  endfacet
  facet normal -0 0 1
    outer loop
      vertex -3 -15.75 4
      vertex 10.5 -18.1865 4
      vertex 3 -15.75 4
    endloop
  endfacet
  facet normal 0 0 1
    outer loop
      vertex -3 -15.75 4
      vertex -10.5 -18.1865 4
      vertex 10.5 -18.1865 4
    endloop
  endfacet
  facet normal 0 0 1
    outer loop
      vertex -3 15.75 4
      vertex -21 0 4
      vertex -3 -15.75 4
    endloop
  endfacet
  facet normal 0 0 1
    outer loop
      vertex -3 -15.75 4
      vertex -21 0 4
      vertex -10.5 -18.1865 4
    endloop
  endfacet
  facet normal 0.866025 -0.5 0
    outer loop
      vertex 10.5 -18.1865 4
      vertex 21 0 -4
      vertex 21 0 4
    endloop
  endfacet
  facet normal 0.866025 -0.5 0
    outer loop
      vertex 21 0 -4
      vertex 10.5 -18.1865 4
      vertex 10.5 -18.1865 -4
    endloop
  endfacet
  facet normal 0 0 -1
    outer loop
      vertex 10.5 -18.1865 -4
      vertex 10.5 18.1865 -4
      vertex 21 0 -4
    endloop
  endfacet
  facet normal 0 0 -1
    outer loop
      vertex 10.5 -18.1865 -4
      vertex -10.5 18.1865 -4
      vertex 10.5 18.1865 -4
    endloop
  endfacet
  facet normal 0 0 -1
    outer loop
      vertex -10.5 -18.1865 -4
      vertex -10.5 18.1865 -4
      vertex 10.5 -18.1865 -4
    endloop
  endfacet
  facet normal 0 0 -1
    outer loop
      vertex -10.5 18.1865 -4
      vertex -10.5 -18.1865 -4
      vertex -21 0 -4
    endloop
  endfacet
  facet normal 0 -1 0
    outer loop
      vertex -10.5 -18.1865 -4
      vertex 10.5 -18.1865 4
      vertex -10.5 -18.1865 4
    endloop
  endfacet
  facet normal 0 -1 -0
    outer loop
      vertex 10.5 -18.1865 4
      vertex -10.5 -18.1865 -4
      vertex 10.5 -18.1865 -4
    endloop
  endfacet
  facet normal -0.866025 -0.5 0
    outer loop
      vertex -10.5 -18.1865 -4
      vertex -21 0 4
      vertex -21 0 -4
    endloop
  endfacet
  facet normal -0.866025 -0.5 0
    outer loop
      vertex -21 0 4
      vertex -10.5 -18.1865 -4
      vertex -10.5 -18.1865 4
    endloop
  endfacet
  facet normal 0 -1 0
    outer loop
      vertex -3 15.75 0
      vertex 3 15.75 4
      vertex -3 15.75 4
    endloop
  endfacet
  facet normal 0 -1 -0
    outer loop
      vertex 3 15.75 4
      vertex -3 15.75 0
      vertex 3 15.75 0
    endloop
  endfacet
  facet normal 0 1 -0
    outer loop
      vertex 3 -15.75 0
      vertex -3 -15.75 4
      vertex 3 -15.75 4
    endloop
  endfacet
  facet normal 0 1 0
    outer loop
      vertex -3 -15.75 4
      vertex 3 -15.75 0
      vertex -3 -15.75 0
    endloop
  endfacet
  facet normal -0 0 1
    outer loop
      vertex -3 15.75 0
      vertex 3 -15.75 0
      vertex 3 15.75 0
    endloop
  endfacet
  facet normal 0 0 1
    outer loop
      vertex 3 -15.75 0
      vertex -3 15.75 0
      vertex -3 -15.75 0
    endloop
  endfacet
  facet normal -1 3.02754e-08 0
    outer loop
      vertex 3 -15.75 0
      vertex 3 15.75 4
      vertex 3 15.75 0
    endloop
  endfacet
  facet normal -1 3.02754e-08 0
    outer loop
      vertex 3 15.75 4
      vertex 3 -15.75 0
      vertex 3 -15.75 4
    endloop
  endfacet
  facet normal 1 -3.02754e-08 0
    outer loop
      vertex -3 -15.75 4
      vertex -3 15.75 0
      vertex -3 15.75 4
    endloop
  endfacet
  facet normal 1 -3.02754e-08 0
    outer loop
      vertex -3 15.75 0
      vertex -3 -15.75 4
      vertex -3 -15.75 0
    endloop
  endfacet
endsolid OpenSCAD_Model
