solid OpenSCAD_Model
  facet normal -1 0 0
    outer loop
      vertex -24.5 -26 -2.05
      vertex -24.5 26 2.05
      vertex -24.5 26 -2.05
    endloop
  endfacet
  facet normal -1 -0 0
    outer loop
      vertex -24.5 26 2.05
      vertex -24.5 -26 -2.05
      vertex -24.5 -26 2.05
    endloop
  endfacet
  facet normal 0 0 1
    outer loop
      vertex 24.5 26 2.05
      vertex 22.5 24 2.05
      vertex 24.5 -26 2.05
    endloop
  endfacet
  facet normal 0 0 1
    outer loop
      vertex 24.5 26 2.05
      vertex -22.5 24 2.05
      vertex 22.5 24 2.05
    endloop
  endfacet
  facet normal 0 0 1
    outer loop
      vertex -22.5 24 2.05
      vertex -24.5 26 2.05
      vertex -22.5 -24 2.05
    endloop
  endfacet
  facet normal -0 0 1
    outer loop
      vertex -24.5 26 2.05
      vertex -22.5 24 2.05
      vertex 24.5 26 2.05
    endloop
  endfacet
  facet normal -0 0 1
    outer loop
      vertex 22.5 -24 2.05
      vertex 24.5 -26 2.05
      vertex 22.5 24 2.05
    endloop
  endfacet
  facet normal 0 0 1
    outer loop
      vertex 22.5 -24 2.05
      vertex 15.75 -26 2.05
      vertex 24.5 -26 2.05
    endloop
  endfacet
  facet normal 0 0 1
    outer loop
      vertex 15.75 -26 2.05
      vertex -15.75 -26 2.05
      vertex 15.75 -32 2.05
    endloop
  endfacet
  facet normal 0 0 1
    outer loop
      vertex 22.5 -24 2.05
      vertex -15.75 -26 2.05
      vertex 15.75 -26 2.05
    endloop
  endfacet
  facet normal -0 0 1
    outer loop
      vertex -22.5 -24 2.05
      vertex -15.75 -26 2.05
      vertex 22.5 -24 2.05
    endloop
  endfacet
  facet normal 0 0 1
    outer loop
      vertex -22.5 -24 2.05
      vertex -24.5 -26 2.05
      vertex -15.75 -26 2.05
    endloop
  endfacet
  facet normal 0 0 1
    outer loop
      vertex -24.5 -26 2.05
      vertex -22.5 -24 2.05
      vertex -24.5 26 2.05
    endloop
  endfacet
  facet normal 0 0 1
    outer loop
      vertex 15.75 -32 2.05
      vertex -15.75 -26 2.05
      vertex -15.75 -32 2.05
    endloop
  endfacet
  facet normal 1 -0 0
    outer loop
      vertex 24.5 -26 2.05
      vertex 24.5 26 -2.05
      vertex 24.5 26 2.05
    endloop
  endfacet
  facet normal 1 0 0
    outer loop
      vertex 24.5 26 -2.05
      vertex 24.5 -26 2.05
      vertex 24.5 -26 -2.05
    endloop
  endfacet
  facet normal 0 1 -0
    outer loop
      vertex 24.5 26 -2.05
      vertex -24.5 26 2.05
      vertex 24.5 26 2.05
    endloop
  endfacet
  facet normal 0 1 0
    outer loop
      vertex -24.5 26 2.05
      vertex 24.5 26 -2.05
      vertex -24.5 26 -2.05
    endloop
  endfacet
  facet normal 0 0 -1
    outer loop
      vertex 15.75 -32 -2.05
      vertex -15.75 -32 -2.05
      vertex 15.75 -26 -2.05
    endloop
  endfacet
  facet normal 0 0 -1
    outer loop
      vertex 15.75 -26 -2.05
      vertex 24.5 26 -2.05
      vertex 24.5 -26 -2.05
    endloop
  endfacet
  facet normal 0 0 -1
    outer loop
      vertex -15.75 -26 -2.05
      vertex 15.75 -26 -2.05
      vertex -15.75 -32 -2.05
    endloop
  endfacet
  facet normal 0 0 -1
    outer loop
      vertex 15.75 -26 -2.05
      vertex -15.75 -26 -2.05
      vertex 24.5 26 -2.05
    endloop
  endfacet
  facet normal 0 0 -1
    outer loop
      vertex -24.5 26 -2.05
      vertex -15.75 -26 -2.05
      vertex -24.5 -26 -2.05
    endloop
  endfacet
  facet normal 0 0 -1
    outer loop
      vertex -15.75 -26 -2.05
      vertex -24.5 26 -2.05
      vertex 24.5 26 -2.05
    endloop
  endfacet
  facet normal 0 -1 0
    outer loop
      vertex -24.5 -26 -2.05
      vertex -15.75 -26 2.05
      vertex -24.5 -26 2.05
    endloop
  endfacet
  facet normal 0 -1 -0
    outer loop
      vertex -15.75 -26 2.05
      vertex -24.5 -26 -2.05
      vertex -15.75 -26 -2.05
    endloop
  endfacet
  facet normal 0 -1 0
    outer loop
      vertex 15.75 -26 -2.05
      vertex 24.5 -26 2.05
      vertex 15.75 -26 2.05
    endloop
  endfacet
  facet normal 0 -1 -0
    outer loop
      vertex 24.5 -26 2.05
      vertex 15.75 -26 -2.05
      vertex 24.5 -26 -2.05
    endloop
  endfacet
  facet normal 1 -0 0
    outer loop
      vertex -22.5 -24 2.05
      vertex -22.5 24 -0.0499992
      vertex -22.5 24 2.05
    endloop
  endfacet
  facet normal 1 0 0
    outer loop
      vertex -22.5 24 -0.0499992
      vertex -22.5 -24 2.05
      vertex -22.5 -24 -0.0499992
    endloop
  endfacet
  facet normal -1 0 0
    outer loop
      vertex 22.5 -24 -0.0499992
      vertex 22.5 24 2.05
      vertex 22.5 24 -0.0499992
    endloop
  endfacet
  facet normal -1 -0 0
    outer loop
      vertex 22.5 24 2.05
      vertex 22.5 -24 -0.0499992
      vertex 22.5 -24 2.05
    endloop
  endfacet
  facet normal -0 0 1
    outer loop
      vertex -22.5 24 -0.0499992
      vertex 22.5 -24 -0.0499992
      vertex 22.5 24 -0.0499992
    endloop
  endfacet
  facet normal 0 0 1
    outer loop
      vertex 22.5 -24 -0.0499992
      vertex -22.5 24 -0.0499992
      vertex -22.5 -24 -0.0499992
    endloop
  endfacet
  facet normal 0 1 -0
    outer loop
      vertex 22.5 -24 -0.0499992
      vertex -22.5 -24 2.05
      vertex 22.5 -24 2.05
    endloop
  endfacet
  facet normal 0 1 0
    outer loop
      vertex -22.5 -24 2.05
      vertex 22.5 -24 -0.0499992
      vertex -22.5 -24 -0.0499992
    endloop
  endfacet
  facet normal 0 -1 0
    outer loop
      vertex -22.5 24 -0.0499992
      vertex 22.5 24 2.05
      vertex -22.5 24 2.05
    endloop
  endfacet
  facet normal 0 -1 -0
    outer loop
      vertex 22.5 24 2.05
      vertex -22.5 24 -0.0499992
      vertex 22.5 24 -0.0499992
    endloop
  endfacet
  facet normal -1 0 0
    outer loop
      vertex -15.75 -32 -2.05
      vertex -15.75 -26 2.05
      vertex -15.75 -26 -2.05
    endloop
  endfacet
  facet normal -1 -0 0
    outer loop
      vertex -15.75 -26 2.05
      vertex -15.75 -32 -2.05
      vertex -15.75 -32 2.05
    endloop
  endfacet
  facet normal 1 -0 0
    outer loop
      vertex 15.75 -32 2.05
      vertex 15.75 -26 -2.05
      vertex 15.75 -26 2.05
    endloop
  endfacet
  facet normal 1 0 0
    outer loop
      vertex 15.75 -26 -2.05
      vertex 15.75 -32 2.05
      vertex 15.75 -32 -2.05
    endloop
  endfacet
  facet normal 0 -1 0
    outer loop
      vertex -15.75 -32 -2.05
      vertex 15.75 -32 2.05
      vertex -15.75 -32 2.05
    endloop
  endfacet
  facet normal 0 -1 -0
    outer loop
      vertex 15.75 -32 2.05
      vertex -15.75 -32 -2.05
      vertex 15.75 -32 -2.05
    endloop
  endfacet
endsolid OpenSCAD_Model
