solid OpenSCAD_Model
  facet normal 0.866025 0.5 0
    outer loop
      vertex 21 0 4
      vertex 10.5 18.1865 -4
      vertex 10.5 18.1865 4
    endloop
  endfacet
  facet normal 0.866025 0.5 0
    outer loop
      vertex 10.5 18.1865 -4
      vertex 21 0 4
      vertex 21 0 -4
    endloop
  endfacet
  facet normal -0.866025 0.5 0
    outer loop
      vertex -21 0 -4
      vertex -10.5 18.1865 4
      vertex -10.5 18.1865 -4
    endloop
  endfacet
  facet normal -0.866025 0.5 0
    outer loop
      vertex -10.5 18.1865 4
      vertex -21 0 -4
      vertex -21 0 4
    endloop
  endfacet
  facet normal 0 1 -0
    outer loop
      vertex 10.5 18.1865 -4
      vertex -10.5 18.1865 4
      vertex 10.5 18.1865 4
    endloop
  endfacet
  facet normal 0 1 0
    outer loop
      vertex -10.5 18.1865 4
      vertex 10.5 18.1865 -4
      vertex -10.5 18.1865 -4
    endloop
  endfacet
  facet normal 0.866025 -0.5 0
    outer loop
      vertex 10.5 -18.1865 4
      vertex 21 0 -4
      vertex 21 0 4
    endloop
  endfacet
  facet normal 0.866025 -0.5 0
    outer loop
      vertex 21 0 -4
      vertex 10.5 -18.1865 4
      vertex 10.5 -18.1865 -4
    endloop
  endfacet
  facet normal 0 0 -1
    outer loop
      vertex 10.5 -18.1865 -4
      vertex 10.5 18.1865 -4
      vertex 21 0 -4
    endloop
  endfacet
  facet normal 0 0 -1
    outer loop
      vertex 10.5 -18.1865 -4
      vertex -10.5 18.1865 -4
      vertex 10.5 18.1865 -4
    endloop
  endfacet
  facet normal 0 0 -1
    outer loop
      vertex -10.5 -18.1865 -4
      vertex -10.5 18.1865 -4
      vertex 10.5 -18.1865 -4
    endloop
  endfacet
  facet normal 0 0 -1
    outer loop
      vertex -10.5 18.1865 -4
      vertex -10.5 -18.1865 -4
      vertex -21 0 -4
    endloop
  endfacet
  facet normal 0 -1 0
    outer loop
      vertex -10.5 -18.1865 -4
      vertex 10.5 -18.1865 4
      vertex -10.5 -18.1865 4
    endloop
  endfacet
  facet normal 0 -1 -0
    outer loop
      vertex 10.5 -18.1865 4
      vertex -10.5 -18.1865 -4
      vertex 10.5 -18.1865 -4
    endloop
  endfacet
  facet normal -0.866025 -0.5 0
    outer loop
      vertex -10.5 -18.1865 -4
      vertex -21 0 4
      vertex -21 0 -4
    endloop
  endfacet
  facet normal -0.866025 -0.5 0
    outer loop
      vertex -21 0 4
      vertex -10.5 -18.1865 -4
      vertex -10.5 -18.1865 4
    endloop
  endfacet
  facet normal 0.229577 0.132546 0.964223
    outer loop
      vertex 10.5 18.1865 4
      vertex 0 0 9
      vertex 21 0 4
    endloop
  endfacet
  facet normal -0.229577 -0.132546 0.964223
    outer loop
      vertex 0 0 9
      vertex -21 0 4
      vertex -10.5 -18.1865 4
    endloop
  endfacet
  facet normal -0.229577 0.132546 0.964223
    outer loop
      vertex -10.5 18.1865 4
      vertex -21 0 4
      vertex 0 0 9
    endloop
  endfacet
  facet normal 0 0.265093 0.964223
    outer loop
      vertex 10.5 18.1865 4
      vertex -10.5 18.1865 4
      vertex 0 0 9
    endloop
  endfacet
  facet normal 0 -0.265093 0.964223
    outer loop
      vertex 0 0 9
      vertex -10.5 -18.1865 4
      vertex 10.5 -18.1865 4
    endloop
  endfacet
  facet normal 0.229577 -0.132546 0.964223
    outer loop
      vertex 21 0 4
      vertex 0 0 9
      vertex 10.5 -18.1865 4
    endloop
  endfacet
endsolid OpenSCAD_Model
